0
SECTION
2
HEADER
9
$ACADVER
1
AC1009
0
ENDSEC
0
SECTION
2
ENTITIES
0
LINE
8
LETRAS
10
60.5412
20
192.8984
30
0
11
61.8132
21
192.9261
31
0
0
LINE
8
LETRAS
10
61.8132
20
192.9261
30
0
11
63.3736
21
192.6291
31
0
0
LINE
8
LETRAS
10
63.3736
20
192.6291
30
0
11
61.4358
21
191.9948
31
0
0
LINE
8
LETRAS
10
61.4358
20
191.9948
30
0
11
59.7913
21
191.1149
31
0
0
LINE
8
LETRAS
10
59.7913
20
191.1149
30
0
11
58.6459
21
190.2372
31
0
0
LINE
8
LETRAS
10
58.6459
20
190.2372
30
0
11
56.8247
21
188.4149
31
0
0
LINE
8
LETRAS
10
56.8247
20
188.4149
30
0
11
55.2399
21
186.3743
31
0
0
LINE
8
LETRAS
10
55.2399
20
186.3743
30
0
11
53.6468
21
183.9122
31
0
0
LINE
8
LETRAS
10
53.6468
20
183.9122
30
0
11
52.4167
21
181.7406
31
0
0
LINE
8
LETRAS
10
52.4167
20
181.7406
30
0
11
50.2774
21
177.2556
31
0
0
LINE
8
LETRAS
10
50.2774
20
177.2556
30
0
11
48.7531
21
173.5161
31
0
0
LINE
8
LETRAS
10
48.7531
20
173.5161
30
0
11
46.2174
21
165.9184
31
0
0
LINE
8
LETRAS
10
46.2174
20
165.9184
30
0
11
44.7096
21
160.6766
31
0
0
LINE
8
LETRAS
10
44.7096
20
160.6766
30
0
11
41.2817
21
147.4666
31
0
0
LINE
8
LETRAS
10
41.2817
20
147.4666
30
0
11
41.4588
21
147.2125
31
0
0
LINE
8
LETRAS
10
41.4588
20
147.2125
30
0
11
42.1913
21
147.3501
31
0
0
LINE
8
LETRAS
10
42.1913
20
147.3501
30
0
11
52.0852
21
149.944
31
0
0
LINE
8
LETRAS
10
52.0852
20
149.944
30
0
11
52.4925
21
150.1812
31
0
0
LINE
8
LETRAS
10
52.4925
20
150.1812
30
0
11
55.4043
21
162.5592
31
0
0
LINE
8
LETRAS
10
55.4043
20
162.5592
30
0
11
58.5243
21
179.4823
31
0
0
LINE
8
LETRAS
10
58.5243
20
179.4823
30
0
11
58.6347
21
179.6406
31
0
0
LINE
8
LETRAS
10
58.6347
20
179.6406
30
0
11
58.8618
21
179.6084
31
0
0
LINE
8
LETRAS
10
58.8618
20
179.6084
30
0
11
66.6757
21
173.8067
31
0
0
LINE
8
LETRAS
10
66.6757
20
173.8067
30
0
11
66.8561
21
173.4244
31
0
0
LINE
8
LETRAS
10
66.8561
20
173.4244
30
0
11
66.4973
21
170.8917
31
0
0
LINE
8
LETRAS
10
66.4973
20
170.8917
30
0
11
65.0006
21
163.3469
31
0
0
LINE
8
LETRAS
10
65.0006
20
163.3469
30
0
11
62.6305
21
153.7933
31
0
0
LINE
8
LETRAS
10
62.6305
20
153.7933
30
0
11
58.166
21
138.1162
31
0
0
LINE
8
LETRAS
10
58.166
20
138.1162
30
0
11
55.8017
21
131.1257
31
0
0
LINE
8
LETRAS
10
55.8017
20
131.1257
30
0
11
52.9193
21
123.8837
31
0
0
LINE
8
LETRAS
10
52.9193
20
123.8837
30
0
11
49.8223
21
117.4022
31
0
0
LINE
8
LETRAS
10
49.8223
20
117.4022
30
0
11
46.5281
21
111.9773
31
0
0
LINE
8
LETRAS
10
46.5281
20
111.9773
30
0
11
44.6612
21
109.44
31
0
0
LINE
8
LETRAS
10
44.6612
20
109.44
30
0
11
42.7024
21
107.1198
31
0
0
LINE
8
LETRAS
10
42.7024
20
107.1198
30
0
11
41.3721
21
105.9237
31
0
0
LINE
8
LETRAS
10
41.3721
20
105.9237
30
0
11
44.0252
21
109.4762
31
0
0
LINE
8
LETRAS
10
44.0252
20
109.4762
30
0
11
46.6713
21
113.8215
31
0
0
LINE
8
LETRAS
10
46.6713
20
113.8215
30
0
11
49.1953
21
119.0139
31
0
0
LINE
8
LETRAS
10
49.1953
20
119.0139
30
0
11
50.3001
21
121.7406
31
0
0
LINE
8
LETRAS
10
50.3001
20
121.7406
30
0
11
50.4056
21
122.3905
31
0
0
LINE
8
LETRAS
10
50.4056
20
122.3905
30
0
11
47.3875
21
117.7065
31
0
0
LINE
8
LETRAS
10
47.3875
20
117.7065
30
0
11
44.7328
21
114.0949
31
0
0
LINE
8
LETRAS
10
44.7328
20
114.0949
30
0
11
41.9191
21
110.7767
31
0
0
LINE
8
LETRAS
10
41.9191
20
110.7767
30
0
11
38.8885
21
107.8185
31
0
0
LINE
8
LETRAS
10
38.8885
20
107.8185
30
0
11
35.554
21
105.1552
31
0
0
LINE
8
LETRAS
10
35.554
20
105.1552
30
0
11
32.3644
21
103.1976
31
0
0
LINE
8
LETRAS
10
32.3644
20
103.1976
30
0
11
28.4352
21
101.5229
31
0
0
LINE
8
LETRAS
10
28.4352
20
101.5229
30
0
11
26.1884
21
101.0013
31
0
0
LINE
8
LETRAS
10
26.1884
20
101.0013
30
0
11
26.1986
21
101.1634
31
0
0
LINE
8
LETRAS
10
26.1986
20
101.1634
30
0
11
27.798
21
101.99
31
0
0
LINE
8
LETRAS
10
27.798
20
101.99
30
0
11
29.922
21
103.4378
31
0
0
LINE
8
LETRAS
10
29.922
20
103.4378
30
0
11
31.7317
21
104.9581
31
0
0
LINE
8
LETRAS
10
31.7317
20
104.9581
30
0
11
33.6877
21
106.9141
31
0
0
LINE
8
LETRAS
10
33.6877
20
106.9141
30
0
11
37.2796
21
111.4862
31
0
0
LINE
8
LETRAS
10
37.2796
20
111.4862
30
0
11
40.8705
21
117.3306
31
0
0
LINE
8
LETRAS
10
40.8705
20
117.3306
30
0
11
43.8215
21
123.3762
31
0
0
LINE
8
LETRAS
10
43.8215
20
123.3762
30
0
11
46.3613
21
129.6898
31
0
0
LINE
8
LETRAS
10
46.3613
20
129.6898
30
0
11
49.4269
21
138.9687
31
0
0
LINE
8
LETRAS
10
49.4269
20
138.9687
30
0
11
51.9711
21
148.044
31
0
0
LINE
8
LETRAS
10
51.9711
20
148.044
30
0
11
51.8662
21
148.2908
31
0
0
LINE
8
LETRAS
10
51.8662
20
148.2908
30
0
11
51.444
21
148.2577
31
0
0
LINE
8
LETRAS
10
51.444
20
148.2577
30
0
11
32.7309
21
143.8393
31
0
0
LINE
8
LETRAS
10
32.7309
20
143.8393
30
0
11
29.844
21
143.1902
31
0
0
LINE
8
LETRAS
10
29.844
20
143.1902
30
0
11
29.5006
21
143.2456
31
0
0
LINE
8
LETRAS
10
29.5006
20
143.2456
30
0
11
30.3457
21
146.7527
31
0
0
LINE
8
LETRAS
10
30.3457
20
146.7527
30
0
11
34.2066
21
160.6701
31
0
0
LINE
8
LETRAS
10
34.2066
20
160.6701
30
0
11
36.5741
21
168.4182
31
0
0
LINE
8
LETRAS
10
36.5741
20
168.4182
30
0
11
38.31
21
173.4408
31
0
0
LINE
8
LETRAS
10
38.31
20
173.4408
30
0
11
40.2438
21
178.2747
31
0
0
LINE
8
LETRAS
10
40.2438
20
178.2747
30
0
11
42.5605
21
183.021
31
0
0
LINE
8
LETRAS
10
42.5605
20
183.021
30
0
11
45.1524
21
187.2235
31
0
0
LINE
8
LETRAS
10
45.1524
20
187.2235
30
0
11
47.6215
21
190.2409
31
0
0
LINE
8
LETRAS
10
47.6215
20
190.2409
30
0
11
47.7187
21
190.2709
31
0
0
LINE
8
LETRAS
10
47.7187
20
190.2709
30
0
11
47.6845
21
190.1251
31
0
0
LINE
8
LETRAS
10
47.6845
20
190.1251
30
0
11
44.9098
21
185.8458
31
0
0
LINE
8
LETRAS
10
44.9098
20
185.8458
30
0
11
43.6227
21
183.3552
31
0
0
LINE
8
LETRAS
10
43.6227
20
183.3552
30
0
11
41.6633
21
178.5292
31
0
0
LINE
8
LETRAS
10
41.6633
20
178.5292
30
0
11
41.0061
21
176.483
31
0
0
LINE
8
LETRAS
10
41.0061
20
176.483
30
0
11
40.9579
21
175.8825
31
0
0
LINE
8
LETRAS
10
40.9579
20
175.8825
30
0
11
41.2358
21
176.0832
31
0
0
LINE
8
LETRAS
10
41.2358
20
176.0832
30
0
11
43.6957
21
180.4087
31
0
0
LINE
8
LETRAS
10
43.6957
20
180.4087
30
0
11
45.8007
21
183.5047
31
0
0
LINE
8
LETRAS
10
45.8007
20
183.5047
30
0
11
47.8097
21
185.9895
31
0
0
LINE
8
LETRAS
10
47.8097
20
185.9895
30
0
11
50.0568
21
188.2362
31
0
0
LINE
8
LETRAS
10
50.0568
20
188.2362
30
0
11
52.9109
21
190.3952
31
0
0
LINE
8
LETRAS
10
52.9109
20
190.3952
30
0
11
55.4139
21
191.7056
31
0
0
LINE
8
LETRAS
10
55.4139
20
191.7056
30
0
11
58.2021
21
192.6145
31
0
0
LINE
8
LETRAS
10
58.2021
20
192.6145
30
0
11
60.5335
21
192.8971
31
0
0
LINE
8
LETRAS
10
60.5335
20
192.8971
30
0
11
60.5412
21
192.8984
31
0
0
LINE
8
LETRAS
10
129.3628
20
192.8267
30
0
11
131.0563
21
192.8552
31
0
0
LINE
8
LETRAS
10
131.0563
20
192.8552
30
0
11
132.4921
21
192.5703
31
0
0
LINE
8
LETRAS
10
132.4921
20
192.5703
30
0
11
130.6155
21
191.9948
31
0
0
LINE
8
LETRAS
10
130.6155
20
191.9948
30
0
11
128.6021
21
190.8929
31
0
0
LINE
8
LETRAS
10
128.6021
20
190.8929
30
0
11
127.5299
21
190.0852
31
0
0
LINE
8
LETRAS
10
127.5299
20
190.0852
30
0
11
125.145
21
187.5556
31
0
0
LINE
8
LETRAS
10
125.145
20
187.5556
30
0
11
123.5529
21
185.3611
31
0
0
LINE
8
LETRAS
10
123.5529
20
185.3611
30
0
11
121.3909
21
181.7581
31
0
0
LINE
8
LETRAS
10
121.3909
20
181.7581
30
0
11
119.0274
21
176.7543
31
0
0
LINE
8
LETRAS
10
119.0274
20
176.7543
30
0
11
117.0735
21
171.7974
31
0
0
LINE
8
LETRAS
10
117.0735
20
171.7974
30
0
11
114.7525
21
164.6294
31
0
0
LINE
8
LETRAS
10
114.7525
20
164.6294
30
0
11
113.2549
21
159.3773
31
0
0
LINE
8
LETRAS
10
113.2549
20
159.3773
30
0
11
110.2375
21
147.5762
31
0
0
LINE
8
LETRAS
10
110.2375
20
147.5762
30
0
11
110.306
21
147.3891
31
0
0
LINE
8
LETRAS
10
110.306
20
147.3891
30
0
11
110.4971
21
147.3524
31
0
0
LINE
8
LETRAS
10
110.4971
20
147.3524
30
0
11
111.8283
21
147.6179
31
0
0
LINE
8
LETRAS
10
111.8283
20
147.6179
30
0
11
120.7738
21
150.0054
31
0
0
LINE
8
LETRAS
10
120.7738
20
150.0054
30
0
11
121.5597
21
150.3654
31
0
0
LINE
8
LETRAS
10
121.5597
20
150.3654
30
0
11
123.0768
21
156.1709
31
0
0
LINE
8
LETRAS
10
123.0768
20
156.1709
30
0
11
124.5737
21
162.7843
31
0
0
LINE
8
LETRAS
10
124.5737
20
162.7843
30
0
11
126.0806
21
170.462
31
0
0
LINE
8
LETRAS
10
126.0806
20
170.462
30
0
11
127.5183
21
179.0145
31
0
0
LINE
8
LETRAS
10
127.5183
20
179.0145
30
0
11
127.6553
21
179.5129
31
0
0
LINE
8
LETRAS
10
127.6553
20
179.5129
30
0
11
127.8368
21
179.547
31
0
0
LINE
8
LETRAS
10
127.8368
20
179.547
30
0
11
135.5535
21
173.7823
31
0
0
LINE
8
LETRAS
10
135.5535
20
173.7823
30
0
11
135.779
21
173.314
31
0
0
LINE
8
LETRAS
10
135.779
20
173.314
30
0
11
135.0821
21
169.1859
31
0
0
LINE
8
LETRAS
10
135.0821
20
169.1859
30
0
11
133.8104
21
163.135
31
0
0
LINE
8
LETRAS
10
133.8104
20
163.135
30
0
11
131.4316
21
153.3841
31
0
0
LINE
8
LETRAS
10
131.4316
20
153.3841
30
0
11
127.1308
21
138.1878
31
0
0
LINE
8
LETRAS
10
127.1308
20
138.1878
30
0
11
124.3393
21
129.8432
31
0
0
LINE
8
LETRAS
10
124.3393
20
129.8432
30
0
11
120.6844
21
121.0641
31
0
0
LINE
8
LETRAS
10
120.6844
20
121.0641
30
0
11
118.0883
21
116.0869
31
0
0
LINE
8
LETRAS
10
118.0883
20
116.0869
30
0
11
115.2707
21
111.6088
31
0
0
LINE
8
LETRAS
10
115.2707
20
111.6088
30
0
11
113.264
21
109.0053
31
0
0
LINE
8
LETRAS
10
113.264
20
109.0053
30
0
11
111.4524
21
106.9765
31
0
0
LINE
8
LETRAS
10
111.4524
20
106.9765
30
0
11
110.9206
21
106.5579
31
0
0
LINE
8
LETRAS
10
110.9206
20
106.5579
30
0
11
113.2627
21
109.7675
31
0
0
LINE
8
LETRAS
10
113.2627
20
109.7675
30
0
11
115.4213
21
113.2486
31
0
0
LINE
8
LETRAS
10
115.4213
20
113.2486
30
0
11
117.5129
21
117.3606
31
0
0
LINE
8
LETRAS
10
117.5129
20
117.3606
30
0
11
119.2523
21
121.601
31
0
0
LINE
8
LETRAS
10
119.2523
20
121.601
30
0
11
119.3702
21
122.2475
31
0
0
LINE
8
LETRAS
10
119.3702
20
122.2475
30
0
11
116.2741
21
117.2924
31
0
0
LINE
8
LETRAS
10
116.2741
20
117.2924
30
0
11
113.988
21
114.0999
31
0
0
LINE
8
LETRAS
10
113.988
20
114.0999
30
0
11
111.3179
21
110.8529
31
0
0
LINE
8
LETRAS
10
111.3179
20
110.8529
30
0
11
108.4262
21
107.9617
31
0
0
LINE
8
LETRAS
10
108.4262
20
107.9617
30
0
11
105.1634
21
105.3701
31
0
0
LINE
8
LETRAS
10
105.1634
20
105.3701
30
0
11
102.326
21
103.6241
31
0
0
LINE
8
LETRAS
10
102.326
20
103.6241
30
0
11
99.3033
21
102.3141
31
0
0
LINE
8
LETRAS
10
99.3033
20
102.3141
30
0
11
97.8881
21
101.93
31
0
0
LINE
8
LETRAS
10
97.8881
20
101.93
30
0
11
96.4437
21
101.7845
31
0
0
LINE
8
LETRAS
10
96.4437
20
101.7845
30
0
11
96.5139
21
101.9614
31
0
0
LINE
8
LETRAS
10
96.5139
20
101.9614
30
0
11
98.3998
21
103.0028
31
0
0
LINE
8
LETRAS
10
98.3998
20
103.0028
30
0
11
99.603
21
103.8674
31
0
0
LINE
8
LETRAS
10
99.603
20
103.8674
30
0
11
101.3411
21
105.3162
31
0
0
LINE
8
LETRAS
10
101.3411
20
105.3162
30
0
11
102.8631
21
106.8378
31
0
0
LINE
8
LETRAS
10
102.8631
20
106.8378
30
0
11
105.8111
21
110.4784
31
0
0
LINE
8
LETRAS
10
105.8111
20
110.4784
30
0
11
107.9647
21
113.8951
31
0
0
LINE
8
LETRAS
10
107.9647
20
113.8951
30
0
11
107.5578
21
114.058
31
0
0
LINE
8
LETRAS
10
107.5578
20
114.058
30
0
11
105.3669
21
114.162
31
0
0
LINE
8
LETRAS
10
105.3669
20
114.162
30
0
11
103.1341
21
114.6238
31
0
0
LINE
8
LETRAS
10
103.1341
20
114.6238
30
0
11
99.86
21
115.8614
31
0
0
LINE
8
LETRAS
10
99.86
20
115.8614
30
0
11
97.3782
21
117.2646
31
0
0
LINE
8
LETRAS
10
97.3782
20
117.2646
30
0
11
94.8207
21
119.1294
31
0
0
LINE
8
LETRAS
10
94.8207
20
119.1294
30
0
11
92.0718
21
121.7337
31
0
0
LINE
8
LETRAS
10
92.0718
20
121.7337
30
0
11
90.0419
21
124.1976
31
0
0
LINE
8
LETRAS
10
90.0419
20
124.1976
30
0
11
87.8972
21
127.4151
31
0
0
LINE
8
LETRAS
10
87.8972
20
127.4151
30
0
11
87.5944
21
127.6404
31
0
0
LINE
8
LETRAS
10
87.5944
20
127.6404
30
0
11
88.2972
21
125.6576
31
0
0
LINE
8
LETRAS
10
88.2972
20
125.6576
30
0
11
90.027
21
122.2401
31
0
0
LINE
8
LETRAS
10
90.027
20
122.2401
30
0
11
91.9168
21
119.287
31
0
0
LINE
8
LETRAS
10
91.9168
20
119.287
30
0
11
94.0255
21
116.6403
31
0
0
LINE
8
LETRAS
10
94.0255
20
116.6403
30
0
11
92.5959
21
117.7729
31
0
0
LINE
8
LETRAS
10
92.5959
20
117.7729
30
0
11
91.2755
21
119.0933
31
0
0
LINE
8
LETRAS
10
91.2755
20
119.0933
30
0
11
88.598
21
122.6642
31
0
0
LINE
8
LETRAS
10
88.598
20
122.6642
30
0
11
87.7227
21
124.1253
31
0
0
LINE
8
LETRAS
10
87.7227
20
124.1253
30
0
11
85.9976
21
127.7534
31
0
0
LINE
8
LETRAS
10
85.9976
20
127.7534
30
0
11
84.9162
21
130.4944
31
0
0
LINE
8
LETRAS
10
84.9162
20
130.4944
30
0
11
83.4672
21
135.0879
31
0
0
LINE
8
LETRAS
10
83.4672
20
135.0879
30
0
11
81.0981
21
144.5441
31
0
0
LINE
8
LETRAS
10
81.0981
20
144.5441
30
0
11
80.827
21
144.5486
31
0
0
LINE
8
LETRAS
10
80.827
20
144.5486
30
0
11
79.9443
21
143.4261
31
0
0
LINE
8
LETRAS
10
79.9443
20
143.4261
30
0
11
75.0801
21
136.5813
31
0
0
LINE
8
LETRAS
10
75.0801
20
136.5813
30
0
11
71.9801
21
131.562
31
0
0
LINE
8
LETRAS
10
71.9801
20
131.562
30
0
11
70.0053
21
127.8987
31
0
0
LINE
8
LETRAS
10
70.0053
20
127.8987
30
0
11
69.7482
21
127.9574
31
0
0
LINE
8
LETRAS
10
69.7482
20
127.9574
30
0
11
65.555
21
133.4288
31
0
0
LINE
8
LETRAS
10
65.555
20
133.4288
30
0
11
67.9664
21
138.0732
31
0
0
LINE
8
LETRAS
10
67.9664
20
138.0732
30
0
11
70.9878
21
142.9652
31
0
0
LINE
8
LETRAS
10
70.9878
20
142.9652
30
0
11
75.0195
21
148.7716
31
0
0
LINE
8
LETRAS
10
75.0195
20
148.7716
30
0
11
79.2471
21
154.0418
31
0
0
LINE
8
LETRAS
10
79.2471
20
154.0418
30
0
11
78.9198
21
159.24
31
0
0
LINE
8
LETRAS
10
78.9198
20
159.24
30
0
11
78.8479
21
166.4544
31
0
0
LINE
8
LETRAS
10
78.8479
20
166.4544
30
0
11
79.1377
21
171.4551
31
0
0
LINE
8
LETRAS
10
79.1377
20
171.4551
30
0
11
79.7111
21
176.1454
31
0
0
LINE
8
LETRAS
10
79.7111
20
176.1454
30
0
11
79.9188
21
176.2091
31
0
0
LINE
8
LETRAS
10
79.9188
20
176.2091
30
0
11
87.2358
21
169.803
31
0
0
LINE
8
LETRAS
10
87.2358
20
169.803
30
0
11
86.8892
21
162.7962
31
0
0
LINE
8
LETRAS
10
86.8892
20
162.7962
30
0
11
87.0104
21
162.6007
31
0
0
LINE
8
LETRAS
10
87.0104
20
162.6007
30
0
11
94.3053
21
169.8943
31
0
0
LINE
8
LETRAS
10
94.3053
20
169.8943
30
0
11
100.6774
21
175.6895
31
0
0
LINE
8
LETRAS
10
100.6774
20
175.6895
30
0
11
100.8939
21
175.6103
31
0
0
LINE
8
LETRAS
10
100.8939
20
175.6103
30
0
11
104.4217
21
170.1336
31
0
0
LINE
8
LETRAS
10
104.4217
20
170.1336
30
0
11
104.2954
21
169.7155
31
0
0
LINE
8
LETRAS
10
104.2954
20
169.7155
30
0
11
95.2989
21
160.862
31
0
0
LINE
8
LETRAS
10
95.2989
20
160.862
30
0
11
89.0597
21
154.1927
31
0
0
LINE
8
LETRAS
10
89.0597
20
154.1927
30
0
11
87.5954
21
152.479
31
0
0
LINE
8
LETRAS
10
87.5954
20
152.479
30
0
11
87.5153
21
151.6864
31
0
0
LINE
8
LETRAS
10
87.5153
20
151.6864
30
0
11
87.8773
21
147.9217
31
0
0
LINE
8
LETRAS
10
87.8773
20
147.9217
30
0
11
88.5252
21
143.6013
31
0
0
LINE
8
LETRAS
10
88.5252
20
143.6013
30
0
11
89.8389
21
137.6013
31
0
0
LINE
8
LETRAS
10
89.8389
20
137.6013
30
0
11
91.9416
21
131.1193
31
0
0
LINE
8
LETRAS
10
91.9416
20
131.1193
30
0
11
93.3261
21
127.8757
31
0
0
LINE
8
LETRAS
10
93.3261
20
127.8757
30
0
11
94.7502
21
125.2536
31
0
0
LINE
8
LETRAS
10
94.7502
20
125.2536
30
0
11
97.4344
21
121.4566
31
0
0
LINE
8
LETRAS
10
97.4344
20
121.4566
30
0
11
99.0365
21
119.7823
31
0
0
LINE
8
LETRAS
10
99.0365
20
119.7823
30
0
11
100.9484
21
118.2031
31
0
0
LINE
8
LETRAS
10
100.9484
20
118.2031
30
0
11
102.9815
21
116.8792
31
0
0
LINE
8
LETRAS
10
102.9815
20
116.8792
30
0
11
105.1821
21
115.7945
31
0
0
LINE
8
LETRAS
10
105.1821
20
115.7945
30
0
11
107.6837
21
114.9839
31
0
0
LINE
8
LETRAS
10
107.6837
20
114.9839
30
0
11
108.5755
21
114.9022
31
0
0
LINE
8
LETRAS
10
108.5755
20
114.9022
30
0
11
108.8399
21
115.1391
31
0
0
LINE
8
LETRAS
10
108.8399
20
115.1391
30
0
11
109.8354
21
116.9009
31
0
0
LINE
8
LETRAS
10
109.8354
20
116.9009
30
0
11
111.7195
21
120.6384
31
0
0
LINE
8
LETRAS
10
111.7195
20
120.6384
30
0
11
113.2316
21
124.023
31
0
0
LINE
8
LETRAS
10
113.2316
20
124.023
30
0
11
115.1702
21
128.9773
31
0
0
LINE
8
LETRAS
10
115.1702
20
128.9773
30
0
11
118.1769
21
138.1093
31
0
0
LINE
8
LETRAS
10
118.1769
20
138.1093
30
0
11
121.0099
21
148.2732
31
0
0
LINE
8
LETRAS
10
121.0099
20
148.2732
30
0
11
120.7144
21
148.4265
31
0
0
LINE
8
LETRAS
10
120.7144
20
148.4265
30
0
11
98.5864
21
143.1224
31
0
0
LINE
8
LETRAS
10
98.5864
20
143.1224
30
0
11
98.509
21
143.4543
31
0
0
LINE
8
LETRAS
10
98.509
20
143.4543
30
0
11
100.4257
21
150.8654
31
0
0
LINE
8
LETRAS
10
100.4257
20
150.8654
30
0
11
104.258
21
164.3191
31
0
0
LINE
8
LETRAS
10
104.258
20
164.3191
30
0
11
107.9092
21
175.0982
31
0
0
LINE
8
LETRAS
10
107.9092
20
175.0982
30
0
11
111.0179
21
182.1499
31
0
0
LINE
8
LETRAS
10
111.0179
20
182.1499
30
0
11
113.0902
21
185.7798
31
0
0
LINE
8
LETRAS
10
113.0902
20
185.7798
30
0
11
114.3284
21
187.6479
31
0
0
LINE
8
LETRAS
10
114.3284
20
187.6479
30
0
11
116.05
21
189.8472
31
0
0
LINE
8
LETRAS
10
116.05
20
189.8472
30
0
11
116.7589
21
190.483
31
0
0
LINE
8
LETRAS
10
116.7589
20
190.483
30
0
11
114.4475
21
186.9201
31
0
0
LINE
8
LETRAS
10
114.4475
20
186.9201
30
0
11
112.874
21
183.9281
31
0
0
LINE
8
LETRAS
10
112.874
20
183.9281
30
0
11
110.9044
21
179.1123
31
0
0
LINE
8
LETRAS
10
110.9044
20
179.1123
30
0
11
109.8296
21
175.7022
31
0
0
LINE
8
LETRAS
10
109.8296
20
175.7022
30
0
11
109.8753
21
175.4513
31
0
0
LINE
8
LETRAS
10
109.8753
20
175.4513
30
0
11
110.2074
21
175.8078
31
0
0
LINE
8
LETRAS
10
110.2074
20
175.8078
30
0
11
112.5889
21
180.1223
31
0
0
LINE
8
LETRAS
10
112.5889
20
180.1223
30
0
11
114.6084
21
183.1517
31
0
0
LINE
8
LETRAS
10
114.6084
20
183.1517
30
0
11
116.4122
21
185.4835
31
0
0
LINE
8
LETRAS
10
116.4122
20
185.4835
30
0
11
118.9501
21
188.093
31
0
0
LINE
8
LETRAS
10
118.9501
20
188.093
30
0
11
121.8757
21
190.3236
31
0
0
LINE
8
LETRAS
10
121.8757
20
190.3236
30
0
11
124.2294
21
191.5596
31
0
0
LINE
8
LETRAS
10
124.2294
20
191.5596
30
0
11
126.6585
21
192.3979
31
0
0
LINE
8
LETRAS
10
126.6585
20
192.3979
30
0
11
129.3551
21
192.8255
31
0
0
LINE
8
LETRAS
10
129.3551
20
192.8255
30
0
11
129.3628
21
192.8267
31
0
0
LINE
8
LETRAS
10
164.6688
20
103.3085
30
0
11
167.6917
21
103.261
31
0
0
LINE
8
LETRAS
10
167.6917
20
103.261
30
0
11
168.8295
21
102.9396
31
0
0
LINE
8
LETRAS
10
168.8295
20
102.9396
30
0
11
169.028
21
102.7052
31
0
0
LINE
8
LETRAS
10
169.028
20
102.7052
30
0
11
165.8853
21
101.2416
31
0
0
LINE
8
LETRAS
10
165.8853
20
101.2416
30
0
11
162.8234
21
99.2904
31
0
0
LINE
8
LETRAS
10
162.8234
20
99.2904
30
0
11
159.1975
21
96.3547
31
0
0
LINE
8
LETRAS
10
159.1975
20
96.3547
30
0
11
155.6656
21
92.8952
31
0
0
LINE
8
LETRAS
10
155.6656
20
92.8952
30
0
11
152.8518
21
89.6486
31
0
0
LINE
8
LETRAS
10
152.8518
20
89.6486
30
0
11
149.8493
21
85.6687
31
0
0
LINE
8
LETRAS
10
149.8493
20
85.6687
30
0
11
147.1754
21
81.5034
31
0
0
LINE
8
LETRAS
10
147.1754
20
81.5034
30
0
11
144.3668
21
76.2464
31
0
0
LINE
8
LETRAS
10
144.3668
20
76.2464
30
0
11
143.077
21
73.4184
31
0
0
LINE
8
LETRAS
10
143.077
20
73.4184
30
0
11
141.4076
21
69.0273
31
0
0
LINE
8
LETRAS
10
141.4076
20
69.0273
30
0
11
140.5485
21
66.1178
31
0
0
LINE
8
LETRAS
10
140.5485
20
66.1178
30
0
11
139.6914
21
62.132
31
0
0
LINE
8
LETRAS
10
139.6914
20
62.132
30
0
11
139.2216
21
58.6539
31
0
0
LINE
8
LETRAS
10
139.2216
20
58.6539
30
0
11
139.1472
21
55.2731
31
0
0
LINE
8
LETRAS
10
139.1472
20
55.2731
30
0
11
139.4649
21
52.592
31
0
0
LINE
8
LETRAS
10
139.4649
20
52.592
30
0
11
139.8469
21
51.1388
31
0
0
LINE
8
LETRAS
10
139.8469
20
51.1388
30
0
11
140.7654
21
49.4792
31
0
0
LINE
8
LETRAS
10
140.7654
20
49.4792
30
0
11
141.3603
21
48.9372
31
0
0
LINE
8
LETRAS
10
141.3603
20
48.9372
30
0
11
142.1667
21
48.5888
31
0
0
LINE
8
LETRAS
10
142.1667
20
48.5888
30
0
11
143.2336
21
48.4831
31
0
0
LINE
8
LETRAS
10
143.2336
20
48.4831
30
0
11
143.977
21
48.5991
31
0
0
LINE
8
LETRAS
10
143.977
20
48.5991
30
0
11
145.113
21
48.9938
31
0
0
LINE
8
LETRAS
10
145.113
20
48.9938
30
0
11
146.5357
21
49.8001
31
0
0
LINE
8
LETRAS
10
146.5357
20
49.8001
30
0
11
148.3295
21
51.2559
31
0
0
LINE
8
LETRAS
10
148.3295
20
51.2559
30
0
11
150.6381
21
53.8976
31
0
0
LINE
8
LETRAS
10
150.6381
20
53.8976
30
0
11
153.391
21
58.145
31
0
0
LINE
8
LETRAS
10
153.391
20
58.145
30
0
11
154.8929
21
61.137
31
0
0
LINE
8
LETRAS
10
154.8929
20
61.137
30
0
11
156.8529
21
66.5085
31
0
0
LINE
8
LETRAS
10
156.8529
20
66.5085
30
0
11
157.256
21
68.2628
31
0
0
LINE
8
LETRAS
10
157.256
20
68.2628
30
0
11
157.5518
21
70.8047
31
0
0
LINE
8
LETRAS
10
157.5518
20
70.8047
30
0
11
157.4478
21
72.2399
31
0
0
LINE
8
LETRAS
10
157.4478
20
72.2399
30
0
11
157.0433
21
73.5542
31
0
0
LINE
8
LETRAS
10
157.0433
20
73.5542
30
0
11
156.2193
21
74.4578
31
0
0
LINE
8
LETRAS
10
156.2193
20
74.4578
30
0
11
155.1512
21
74.831
31
0
0
LINE
8
LETRAS
10
155.1512
20
74.831
30
0
11
153.5507
21
74.7432
31
0
0
LINE
8
LETRAS
10
153.5507
20
74.7432
30
0
11
152.0875
21
74.2549
31
0
0
LINE
8
LETRAS
10
152.0875
20
74.2549
30
0
11
149.9433
21
73.0153
31
0
0
LINE
8
LETRAS
10
149.9433
20
73.0153
30
0
11
148.3073
21
71.7151
31
0
0
LINE
8
LETRAS
10
148.3073
20
71.7151
30
0
11
146.9916
21
70.3989
31
0
0
LINE
8
LETRAS
10
146.9916
20
70.3989
30
0
11
144.9832
21
67.9136
31
0
0
LINE
8
LETRAS
10
144.9832
20
67.9136
30
0
11
143.3774
21
65.2851
31
0
0
LINE
8
LETRAS
10
143.3774
20
65.2851
30
0
11
142.3247
21
62.6317
31
0
0
LINE
8
LETRAS
10
142.3247
20
62.6317
30
0
11
142.132
21
62.562
31
0
0
LINE
8
LETRAS
10
142.132
20
62.562
30
0
11
142.019
21
62.764
31
0
0
LINE
8
LETRAS
10
142.019
20
62.764
30
0
11
142.0917
21
64.5745
31
0
0
LINE
8
LETRAS
10
142.0917
20
64.5745
30
0
11
142.7129
21
67.4893
31
0
0
LINE
8
LETRAS
10
142.7129
20
67.4893
30
0
11
143.6655
21
70.1264
31
0
0
LINE
8
LETRAS
10
143.6655
20
70.1264
30
0
11
144.761
21
72.1282
31
0
0
LINE
8
LETRAS
10
144.761
20
72.1282
30
0
11
146.1957
21
74.1132
31
0
0
LINE
8
LETRAS
10
146.1957
20
74.1132
30
0
11
147.7439
21
75.7339
31
0
0
LINE
8
LETRAS
10
147.7439
20
75.7339
30
0
11
149.7345
21
77.2613
31
0
0
LINE
8
LETRAS
10
149.7345
20
77.2613
30
0
11
152.4734
21
78.5776
31
0
0
LINE
8
LETRAS
10
152.4734
20
78.5776
30
0
11
154.6377
21
79.0541
31
0
0
LINE
8
LETRAS
10
154.6377
20
79.0541
30
0
11
156.3391
21
79.1341
31
0
0
LINE
8
LETRAS
10
156.3391
20
79.1341
30
0
11
157.637
21
78.9639
31
0
0
LINE
8
LETRAS
10
157.637
20
78.9639
30
0
11
158.8417
21
78.5752
31
0
0
LINE
8
LETRAS
10
158.8417
20
78.5752
30
0
11
159.9222
21
78.0354
31
0
0
LINE
8
LETRAS
10
159.9222
20
78.0354
30
0
11
161.0007
21
77.2251
31
0
0
LINE
8
LETRAS
10
161.0007
20
77.2251
30
0
11
162.3113
21
75.7247
31
0
0
LINE
8
LETRAS
10
162.3113
20
75.7247
30
0
11
162.9795
21
74.5848
31
0
0
LINE
8
LETRAS
10
162.9795
20
74.5848
30
0
11
163.5929
21
73.0139
31
0
0
LINE
8
LETRAS
10
163.5929
20
73.0139
30
0
11
164.0594
21
70.8844
31
0
0
LINE
8
LETRAS
10
164.0594
20
70.8844
30
0
11
164.1394
21
67.3413
31
0
0
LINE
8
LETRAS
10
164.1394
20
67.3413
30
0
11
163.3958
21
62.8571
31
0
0
LINE
8
LETRAS
10
163.3958
20
62.8571
30
0
11
162.1444
21
59.0686
31
0
0
LINE
8
LETRAS
10
162.1444
20
59.0686
30
0
11
159.768
21
54.2119
31
0
0
LINE
8
LETRAS
10
159.768
20
54.2119
30
0
11
157.7279
21
51.1763
31
0
0
LINE
8
LETRAS
10
157.7279
20
51.1763
30
0
11
155.567
21
48.6106
31
0
0
LINE
8
LETRAS
10
155.567
20
48.6106
30
0
11
152.4188
21
45.797
31
0
0
LINE
8
LETRAS
10
152.4188
20
45.797
30
0
11
150.4682
21
44.5517
31
0
0
LINE
8
LETRAS
10
150.4682
20
44.5517
30
0
11
149.1275
21
43.8961
31
0
0
LINE
8
LETRAS
10
149.1275
20
43.8961
30
0
11
146.4045
21
43.0922
31
0
0
LINE
8
LETRAS
10
146.4045
20
43.0922
30
0
11
143.1477
21
42.9723
31
0
0
LINE
8
LETRAS
10
143.1477
20
42.9723
30
0
11
141.5748
21
43.2345
31
0
0
LINE
8
LETRAS
10
141.5748
20
43.2345
30
0
11
140.2795
21
43.6759
31
0
0
LINE
8
LETRAS
10
140.2795
20
43.6759
30
0
11
138.9263
21
44.3369
31
0
0
LINE
8
LETRAS
10
138.9263
20
44.3369
30
0
11
137.2264
21
45.5016
31
0
0
LINE
8
LETRAS
10
137.2264
20
45.5016
30
0
11
136.3253
21
46.3282
31
0
0
LINE
8
LETRAS
10
136.3253
20
46.3282
30
0
11
134.9571
21
47.9588
31
0
0
LINE
8
LETRAS
10
134.9571
20
47.9588
30
0
11
134.132
21
49.2821
31
0
0
LINE
8
LETRAS
10
134.132
20
49.2821
30
0
11
133.253
21
51.1872
31
0
0
LINE
8
LETRAS
10
133.253
20
51.1872
30
0
11
132.8244
21
52.4146
31
0
0
LINE
8
LETRAS
10
132.8244
20
52.4146
30
0
11
132.351
21
54.7432
31
0
0
LINE
8
LETRAS
10
132.351
20
54.7432
30
0
11
132.1294
21
58.54
31
0
0
LINE
8
LETRAS
10
132.1294
20
58.54
30
0
11
132.6718
21
64.2012
31
0
0
LINE
8
LETRAS
10
132.6718
20
64.2012
30
0
11
133.7386
21
69.2216
31
0
0
LINE
8
LETRAS
10
133.7386
20
69.2216
30
0
11
134.9748
21
73.1775
31
0
0
LINE
8
LETRAS
10
134.9748
20
73.1775
30
0
11
135.9258
21
75.6282
31
0
0
LINE
8
LETRAS
10
135.9258
20
75.6282
30
0
11
138.2171
21
80.561
31
0
0
LINE
8
LETRAS
10
138.2171
20
80.561
30
0
11
141.3988
21
85.8119
31
0
0
LINE
8
LETRAS
10
141.3988
20
85.8119
30
0
11
145.6268
21
91.3056
31
0
0
LINE
8
LETRAS
10
145.6268
20
91.3056
30
0
11
149.1621
21
94.9855
31
0
0
LINE
8
LETRAS
10
149.1621
20
94.9855
30
0
11
153.1555
21
98.2878
31
0
0
LINE
8
LETRAS
10
153.1555
20
98.2878
30
0
11
157.0051
21
100.7403
31
0
0
LINE
8
LETRAS
10
157.0051
20
100.7403
30
0
11
160.726
21
102.4173
31
0
0
LINE
8
LETRAS
10
160.726
20
102.4173
30
0
11
162.8485
21
103.0161
31
0
0
LINE
8
LETRAS
10
162.8485
20
103.0161
30
0
11
164.6611
21
103.3072
31
0
0
LINE
8
LETRAS
10
164.6611
20
103.3072
30
0
11
164.6688
21
103.3085
31
0
0
LINE
8
LETRAS
10
58.894
20
101.5181
30
0
11
61.0417
21
101.5442
31
0
0
LINE
8
LETRAS
10
61.0417
20
101.5442
30
0
11
64.0305
21
100.9165
31
0
0
LINE
8
LETRAS
10
64.0305
20
100.9165
30
0
11
66.2102
21
99.802
31
0
0
LINE
8
LETRAS
10
66.2102
20
99.802
30
0
11
67.0469
21
99.1347
31
0
0
LINE
8
LETRAS
10
67.0469
20
99.1347
30
0
11
68.2135
21
97.8485
31
0
0
LINE
8
LETRAS
10
68.2135
20
97.8485
30
0
11
69.3471
21
95.7595
31
0
0
LINE
8
LETRAS
10
69.3471
20
95.7595
30
0
11
70.0347
21
93.0453
31
0
0
LINE
8
LETRAS
10
70.0347
20
93.0453
30
0
11
70.0338
21
90.0651
31
0
0
LINE
8
LETRAS
10
70.0338
20
90.0651
30
0
11
69.3314
21
86.7481
31
0
0
LINE
8
LETRAS
10
69.3314
20
86.7481
30
0
11
68.0215
21
83.4746
31
0
0
LINE
8
LETRAS
10
68.0215
20
83.4746
30
0
11
66.0928
21
79.9159
31
0
0
LINE
8
LETRAS
10
66.0928
20
79.9159
30
0
11
63.845
21
76.5331
31
0
0
LINE
8
LETRAS
10
63.845
20
76.5331
30
0
11
61.1326
21
72.9165
31
0
0
LINE
8
LETRAS
10
61.1326
20
72.9165
30
0
11
54.4559
21
65.1628
31
0
0
LINE
8
LETRAS
10
54.4559
20
65.1628
30
0
11
42.1258
21
52.3921
31
0
0
LINE
8
LETRAS
10
42.1258
20
52.3921
30
0
11
42.0128
21
52.1188
31
0
0
LINE
8
LETRAS
10
42.0128
20
52.1188
30
0
11
42.1781
21
52.0389
31
0
0
LINE
8
LETRAS
10
42.1781
20
52.0389
30
0
11
44.7386
21
52.7513
31
0
0
LINE
8
LETRAS
10
44.7386
20
52.7513
30
0
11
47.1365
21
53.2
31
0
0
LINE
8
LETRAS
10
47.1365
20
53.2
30
0
11
51.6836
21
53.6391
31
0
0
LINE
8
LETRAS
10
51.6836
20
53.6391
30
0
11
55.2646
21
53.4161
31
0
0
LINE
8
LETRAS
10
55.2646
20
53.4161
30
0
11
59.2945
21
52.5224
31
0
0
LINE
8
LETRAS
10
59.2945
20
52.5224
30
0
11
61.4058
21
51.7065
31
0
0
LINE
8
LETRAS
10
61.4058
20
51.7065
30
0
11
63.7373
21
50.4841
31
0
0
LINE
8
LETRAS
10
63.7373
20
50.4841
30
0
11
65.3406
21
49.4467
31
0
0
LINE
8
LETRAS
10
65.3406
20
49.4467
30
0
11
67.2431
21
47.9474
31
0
0
LINE
8
LETRAS
10
67.2431
20
47.9474
30
0
11
68.3449
21
46.9187
31
0
0
LINE
8
LETRAS
10
68.3449
20
46.9187
30
0
11
70.0717
21
44.9305
31
0
0
LINE
8
LETRAS
10
70.0717
20
44.9305
30
0
11
71.2556
21
43.1065
31
0
0
LINE
8
LETRAS
10
71.2556
20
43.1065
30
0
11
71.7848
21
41.8394
31
0
0
LINE
8
LETRAS
10
71.7848
20
41.8394
30
0
11
69.3613
21
43.7994
31
0
0
LINE
8
LETRAS
10
69.3613
20
43.7994
30
0
11
67.7375
21
44.8163
31
0
0
LINE
8
LETRAS
10
67.7375
20
44.8163
30
0
11
65.8886
21
45.6888
31
0
0
LINE
8
LETRAS
10
65.8886
20
45.6888
30
0
11
63.704
21
46.4314
31
0
0
LINE
8
LETRAS
10
63.704
20
46.4314
30
0
11
59.2985
21
47.2627
31
0
0
LINE
8
LETRAS
10
59.2985
20
47.2627
30
0
11
53.2714
21
47.262
31
0
0
LINE
8
LETRAS
10
53.2714
20
47.262
30
0
11
51.2185
21
47.0412
31
0
0
LINE
8
LETRAS
10
51.2185
20
47.0412
30
0
11
47.6134
21
46.3673
31
0
0
LINE
8
LETRAS
10
47.6134
20
46.3673
30
0
11
44.5806
21
45.5597
31
0
0
LINE
8
LETRAS
10
44.5806
20
45.5597
30
0
11
41.3964
21
44.4739
31
0
0
LINE
8
LETRAS
10
41.3964
20
44.4739
30
0
11
37.4223
21
42.7547
31
0
0
LINE
8
LETRAS
10
37.4223
20
42.7547
30
0
11
34.6157
21
41.3002
31
0
0
LINE
8
LETRAS
10
34.6157
20
41.3002
30
0
11
32.2805
21
39.8578
31
0
0
LINE
8
LETRAS
10
32.2805
20
39.8578
30
0
11
29.9677
21
38.1065
31
0
0
LINE
8
LETRAS
10
29.9677
20
38.1065
30
0
11
29.7325
21
38.0811
31
0
0
LINE
8
LETRAS
10
29.7325
20
38.0811
30
0
11
27.46
21
40.8743
31
0
0
LINE
8
LETRAS
10
27.46
20
40.8743
30
0
11
26.5501
21
42.8111
31
0
0
LINE
8
LETRAS
10
26.5501
20
42.8111
30
0
11
26.4259
21
43.5999
31
0
0
LINE
8
LETRAS
10
26.4259
20
43.5999
30
0
11
26.5244
21
44.9156
31
0
0
LINE
8
LETRAS
10
26.5244
20
44.9156
30
0
11
27.4528
21
46.8428
31
0
0
LINE
8
LETRAS
10
27.4528
20
46.8428
30
0
11
29.3923
21
49.4778
31
0
0
LINE
8
LETRAS
10
29.3923
20
49.4778
30
0
11
32.7664
21
53.3546
31
0
0
LINE
8
LETRAS
10
32.7664
20
53.3546
30
0
11
48.4403
21
69.961
31
0
0
LINE
8
LETRAS
10
48.4403
20
69.961
30
0
11
54.1021
21
76.2678
31
0
0
LINE
8
LETRAS
10
54.1021
20
76.2678
30
0
11
57.9099
21
80.7941
31
0
0
LINE
8
LETRAS
10
57.9099
20
80.7941
30
0
11
60.8408
21
84.7024
31
0
0
LINE
8
LETRAS
10
60.8408
20
84.7024
30
0
11
62.9514
21
88.0972
31
0
0
LINE
8
LETRAS
10
62.9514
20
88.0972
30
0
11
64.2552
21
91.1439
31
0
0
LINE
8
LETRAS
10
64.2552
20
91.1439
30
0
11
64.5211
21
92.5162
31
0
0
LINE
8
LETRAS
10
64.5211
20
92.5162
30
0
11
64.4701
21
93.568
31
0
0
LINE
8
LETRAS
10
64.4701
20
93.568
30
0
11
64.1351
21
94.5489
31
0
0
LINE
8
LETRAS
10
64.1351
20
94.5489
30
0
11
63.6765
21
95.1287
31
0
0
LINE
8
LETRAS
10
63.6765
20
95.1287
30
0
11
63.1264
21
95.5186
31
0
0
LINE
8
LETRAS
10
63.1264
20
95.5186
30
0
11
61.8294
21
95.8867
31
0
0
LINE
8
LETRAS
10
61.8294
20
95.8867
30
0
11
59.9316
21
95.8883
31
0
0
LINE
8
LETRAS
10
59.9316
20
95.8883
30
0
11
58.1162
21
95.5732
31
0
0
LINE
8
LETRAS
10
58.1162
20
95.5732
30
0
11
56.071
21
94.888
31
0
0
LINE
8
LETRAS
10
56.071
20
94.888
30
0
11
53.3685
21
93.5891
31
0
0
LINE
8
LETRAS
10
53.3685
20
93.5891
30
0
11
51.3914
21
92.3615
31
0
0
LINE
8
LETRAS
10
51.3914
20
92.3615
30
0
11
48.9158
21
90.4149
31
0
0
LINE
8
LETRAS
10
48.9158
20
90.4149
30
0
11
46.8874
21
88.4597
31
0
0
LINE
8
LETRAS
10
46.8874
20
88.4597
30
0
11
44.2072
21
85.0079
31
0
0
LINE
8
LETRAS
10
44.2072
20
85.0079
30
0
11
43.1746
21
83.0147
31
0
0
LINE
8
LETRAS
10
43.1746
20
83.0147
30
0
11
42.7623
21
81.4756
31
0
0
LINE
8
LETRAS
10
42.7623
20
81.4756
30
0
11
42.7881
21
80.4529
31
0
0
LINE
8
LETRAS
10
42.7881
20
80.4529
30
0
11
43.036
21
79.9757
31
0
0
LINE
8
LETRAS
10
43.036
20
79.9757
30
0
11
43.4896
21
79.5788
31
0
0
LINE
8
LETRAS
10
43.4896
20
79.5788
30
0
11
43.3676
21
79.3574
31
0
0
LINE
8
LETRAS
10
43.3676
20
79.3574
30
0
11
42.0646
21
79.3803
31
0
0
LINE
8
LETRAS
10
42.0646
20
79.3803
30
0
11
40.9575
21
79.7861
31
0
0
LINE
8
LETRAS
10
40.9575
20
79.7861
30
0
11
39.9278
21
80.5646
31
0
0
LINE
8
LETRAS
10
39.9278
20
80.5646
30
0
11
39.1592
21
81.8549
31
0
0
LINE
8
LETRAS
10
39.1592
20
81.8549
30
0
11
38.7497
21
83.4686
31
0
0
LINE
8
LETRAS
10
38.7497
20
83.4686
30
0
11
38.7471
21
85.2312
31
0
0
LINE
8
LETRAS
10
38.7471
20
85.2312
30
0
11
39.1582
21
87.1833
31
0
0
LINE
8
LETRAS
10
39.1582
20
87.1833
30
0
11
39.8067
21
88.7728
31
0
0
LINE
8
LETRAS
10
39.8067
20
88.7728
30
0
11
41.2852
21
91.2599
31
0
0
LINE
8
LETRAS
10
41.2852
20
91.2599
30
0
11
43.3696
21
93.75
31
0
0
LINE
8
LETRAS
10
43.3696
20
93.75
30
0
11
45.698
21
95.8616
31
0
0
LINE
8
LETRAS
10
45.698
20
95.8616
30
0
11
47.5398
21
97.2246
31
0
0
LINE
8
LETRAS
10
47.5398
20
97.2246
30
0
11
49.3683
21
98.377
31
0
0
LINE
8
LETRAS
10
49.3683
20
98.377
30
0
11
52.3497
21
99.8447
31
0
0
LINE
8
LETRAS
10
52.3497
20
99.8447
30
0
11
55.5656
21
100.9256
31
0
0
LINE
8
LETRAS
10
55.5656
20
100.9256
30
0
11
58.8864
21
101.5169
31
0
0
LINE
8
LETRAS
10
58.8864
20
101.5169
30
0
11
58.894
21
101.5181
31
0
0
LINE
8
LETRAS
10
91.3354
20
100.5155
30
0
11
92.6552
21
100.4657
31
0
0
LINE
8
LETRAS
10
92.6552
20
100.4657
30
0
11
94.1802
21
100.0571
31
0
0
LINE
8
LETRAS
10
94.1802
20
100.0571
30
0
11
95.8319
21
99.247
31
0
0
LINE
8
LETRAS
10
95.8319
20
99.247
30
0
11
97.1205
21
98.2797
31
0
0
LINE
8
LETRAS
10
97.1205
20
98.2797
30
0
11
98.3044
21
97.0199
31
0
0
LINE
8
LETRAS
10
98.3044
20
97.0199
30
0
11
99.3969
21
95.3193
31
0
0
LINE
8
LETRAS
10
99.3969
20
95.3193
30
0
11
100.0571
21
93.9654
31
0
0
LINE
8
LETRAS
10
100.0571
20
93.9654
30
0
11
100.8727
21
91.5583
31
0
0
LINE
8
LETRAS
10
100.8727
20
91.5583
30
0
11
101.4027
21
88.6687
31
0
0
LINE
8
LETRAS
10
101.4027
20
88.6687
30
0
11
101.6203
21
85.7621
31
0
0
LINE
8
LETRAS
10
101.6203
20
85.7621
30
0
11
101.6199
21
83.0249
31
0
0
LINE
8
LETRAS
10
101.6199
20
83.0249
30
0
11
100.9682
21
76.2914
31
0
0
LINE
8
LETRAS
10
100.9682
20
76.2914
30
0
11
99.64
21
69.4733
31
0
0
LINE
8
LETRAS
10
99.64
20
69.4733
30
0
11
98.3558
21
64.9568
31
0
0
LINE
8
LETRAS
10
98.3558
20
64.9568
30
0
11
97.0493
21
61.3667
31
0
0
LINE
8
LETRAS
10
97.0493
20
61.3667
30
0
11
95.9541
21
58.8453
31
0
0
LINE
8
LETRAS
10
95.9541
20
58.8453
30
0
11
93.4496
21
54.063
31
0
0
LINE
8
LETRAS
10
93.4496
20
54.063
30
0
11
90.5622
21
49.8517
31
0
0
LINE
8
LETRAS
10
90.5622
20
49.8517
30
0
11
87.5148
21
46.588
31
0
0
LINE
8
LETRAS
10
87.5148
20
46.588
30
0
11
84.8256
21
44.7028
31
0
0
LINE
8
LETRAS
10
84.8256
20
44.7028
30
0
11
83.4966
21
44.0982
31
0
0
LINE
8
LETRAS
10
83.4966
20
44.0982
30
0
11
82.0562
21
43.6945
31
0
0
LINE
8
LETRAS
10
82.0562
20
43.6945
30
0
11
79.9174
21
43.5417
31
0
0
LINE
8
LETRAS
10
79.9174
20
43.5417
30
0
11
78.5479
21
43.7119
31
0
0
LINE
8
LETRAS
10
78.5479
20
43.7119
30
0
11
75.9873
21
44.6335
31
0
0
LINE
8
LETRAS
10
75.9873
20
44.6335
30
0
11
74.2056
21
45.8596
31
0
0
LINE
8
LETRAS
10
74.2056
20
45.8596
30
0
11
73.2329
21
46.8295
31
0
0
LINE
8
LETRAS
10
73.2329
20
46.8295
30
0
11
72.1439
21
48.2559
31
0
0
LINE
8
LETRAS
10
72.1439
20
48.2559
30
0
11
71.2615
21
49.7996
31
0
0
LINE
8
LETRAS
10
71.2615
20
49.7996
30
0
11
70.0816
21
53.0418
31
0
0
LINE
8
LETRAS
10
70.0816
20
53.0418
30
0
11
69.469
21
56.4307
31
0
0
LINE
8
LETRAS
10
69.469
20
56.4307
30
0
11
69.3234
21
61.9775
31
0
0
LINE
8
LETRAS
10
69.3234
20
61.9775
30
0
11
69.4697
21
64.6778
31
0
0
LINE
8
LETRAS
10
69.4697
20
64.6778
30
0
11
69.9031
21
68.3623
31
0
0
LINE
8
LETRAS
10
69.9031
20
68.3623
30
0
11
70.7822
21
72.9169
31
0
0
LINE
8
LETRAS
10
70.7822
20
72.9169
30
0
11
72.2916
21
78.2826
31
0
0
LINE
8
LETRAS
10
72.2916
20
78.2826
30
0
11
74.4858
21
83.948
31
0
0
LINE
8
LETRAS
10
74.4858
20
83.948
30
0
11
76.9898
21
88.874
31
0
0
LINE
8
LETRAS
10
76.9898
20
88.874
30
0
11
79.388
21
92.4826
31
0
0
LINE
8
LETRAS
10
79.388
20
92.4826
30
0
11
82.0649
21
95.687
31
0
0
LINE
8
LETRAS
10
82.0649
20
95.687
30
0
11
85.3469
21
98.4385
31
0
0
LINE
8
LETRAS
10
85.3469
20
98.4385
30
0
11
86.6913
21
99.2425
31
0
0
LINE
8
LETRAS
10
86.6913
20
99.2425
30
0
11
88.4464
21
100.0029
31
0
0
LINE
8
LETRAS
10
88.4464
20
100.0029
30
0
11
90.2101
21
100.4235
31
0
0
LINE
8
LETRAS
10
90.2101
20
100.4235
30
0
11
91.3278
21
100.5143
31
0
0
LINE
8
LETRAS
10
91.3278
20
100.5143
30
0
11
91.3354
21
100.5155
31
0
0
LINE
8
LETRAS
10
122.9175
20
100.5155
30
0
11
124.094
21
100.4657
31
0
0
LINE
8
LETRAS
10
124.094
20
100.4657
30
0
11
125.8208
21
100.062
31
0
0
LINE
8
LETRAS
10
125.8208
20
100.062
30
0
11
127.48
21
99.2504
31
0
0
LINE
8
LETRAS
10
127.48
20
99.2504
30
0
11
128.6216
21
98.4315
31
0
0
LINE
8
LETRAS
10
128.6216
20
98.4315
30
0
11
129.7353
21
97.3163
31
0
0
LINE
8
LETRAS
10
129.7353
20
97.3163
30
0
11
130.904
21
95.6115
31
0
0
LINE
8
LETRAS
10
130.904
20
95.6115
30
0
11
131.6237
21
94.1827
31
0
0
LINE
8
LETRAS
10
131.6237
20
94.1827
30
0
11
132.2952
21
92.2851
31
0
0
LINE
8
LETRAS
10
132.2952
20
92.2851
30
0
11
132.8649
21
89.6858
31
0
0
LINE
8
LETRAS
10
132.8649
20
89.6858
30
0
11
133.1279
21
87.4512
31
0
0
LINE
8
LETRAS
10
133.1279
20
87.4512
30
0
11
133.2029
21
82.6927
31
0
0
LINE
8
LETRAS
10
133.2029
20
82.6927
30
0
11
132.6956
21
77.0949
31
0
0
LINE
8
LETRAS
10
132.6956
20
77.0949
30
0
11
131.8564
21
72.2765
31
0
0
LINE
8
LETRAS
10
131.8564
20
72.2765
30
0
11
130.3514
21
66.4231
31
0
0
LINE
8
LETRAS
10
130.3514
20
66.4231
30
0
11
128.4113
21
60.9243
31
0
0
LINE
8
LETRAS
10
128.4113
20
60.9243
30
0
11
126.9092
21
57.6013
31
0
0
LINE
8
LETRAS
10
126.9092
20
57.6013
30
0
11
125.6078
21
55.1429
31
0
0
LINE
8
LETRAS
10
125.6078
20
55.1429
30
0
11
124.3052
21
52.9723
31
0
0
LINE
8
LETRAS
10
124.3052
20
52.9723
30
0
11
122.5102
21
50.4346
31
0
0
LINE
8
LETRAS
10
122.5102
20
50.4346
30
0
11
121.0575
21
48.6914
31
0
0
LINE
8
LETRAS
10
121.0575
20
48.6914
30
0
11
119.1731
21
46.8071
31
0
0
LINE
8
LETRAS
10
119.1731
20
46.8071
30
0
11
117.8289
21
45.7254
31
0
0
LINE
8
LETRAS
10
117.8289
20
45.7254
30
0
11
116.2908
21
44.757
31
0
0
LINE
8
LETRAS
10
116.2908
20
44.757
30
0
11
114.2025
21
43.9359
31
0
0
LINE
8
LETRAS
10
114.2025
20
43.9359
30
0
11
112.6917
21
43.6922
31
0
0
LINE
8
LETRAS
10
112.6917
20
43.6922
30
0
11
111.1609
21
43.6866
31
0
0
LINE
8
LETRAS
10
111.1609
20
43.6866
30
0
11
109.9253
21
43.8654
31
0
0
LINE
8
LETRAS
10
109.9253
20
43.8654
30
0
11
108.4891
21
44.3179
31
0
0
LINE
8
LETRAS
10
108.4891
20
44.3179
30
0
11
107.1294
21
44.9814
31
0
0
LINE
8
LETRAS
10
107.1294
20
44.9814
30
0
11
106.1407
21
45.6488
31
0
0
LINE
8
LETRAS
10
106.1407
20
45.6488
30
0
11
104.8149
21
46.9011
31
0
0
LINE
8
LETRAS
10
104.8149
20
46.9011
30
0
11
103.1433
21
49.3026
31
0
0
LINE
8
LETRAS
10
103.1433
20
49.3026
30
0
11
102.3257
21
51.0542
31
0
0
LINE
8
LETRAS
10
102.3257
20
51.0542
30
0
11
101.7148
21
52.8781
31
0
0
LINE
8
LETRAS
10
101.7148
20
52.8781
30
0
11
101.0526
21
56.4859
31
0
0
LINE
8
LETRAS
10
101.0526
20
56.4859
30
0
11
100.8338
21
61.0465
31
0
0
LINE
8
LETRAS
10
100.8338
20
61.0465
30
0
11
101.0518
21
64.6778
31
0
0
LINE
8
LETRAS
10
101.0518
20
64.6778
30
0
11
101.4841
21
68.2111
31
0
0
LINE
8
LETRAS
10
101.4841
20
68.2111
30
0
11
102.3233
21
72.6714
31
0
0
LINE
8
LETRAS
10
102.3233
20
72.6714
30
0
11
103.8283
21
78.1668
31
0
0
LINE
8
LETRAS
10
103.8283
20
78.1668
30
0
11
105.3387
21
82.4481
31
0
0
LINE
8
LETRAS
10
105.3387
20
82.4481
30
0
11
108.006
21
88.0703
31
0
0
LINE
8
LETRAS
10
108.006
20
88.0703
30
0
11
110.3971
21
91.9096
31
0
0
LINE
8
LETRAS
10
110.3971
20
91.9096
30
0
11
113.1981
21
95.4017
31
0
0
LINE
8
LETRAS
10
113.1981
20
95.4017
30
0
11
114.51
21
96.7128
31
0
0
LINE
8
LETRAS
10
114.51
20
96.7128
30
0
11
116.489
21
98.3055
31
0
0
LINE
8
LETRAS
10
116.489
20
98.3055
30
0
11
119.3941
21
99.8494
31
0
0
LINE
8
LETRAS
10
119.3941
20
99.8494
30
0
11
120.8433
21
100.2891
31
0
0
LINE
8
LETRAS
10
120.8433
20
100.2891
30
0
11
122.9098
21
100.5143
31
0
0
LINE
8
LETRAS
10
122.9098
20
100.5143
30
0
11
122.9175
21
100.5155
31
0
0
LINE
8
LETRAS
10
124.5646
20
95.7174
30
0
11
126.2133
21
95.6204
31
0
0
LINE
8
LETRAS
10
126.2133
20
95.6204
30
0
11
126.7857
21
95.3693
31
0
0
LINE
8
LETRAS
10
126.7857
20
95.3693
30
0
11
127.288
21
94.8958
31
0
0
LINE
8
LETRAS
10
127.288
20
94.8958
30
0
11
127.8572
21
93.8537
31
0
0
LINE
8
LETRAS
10
127.8572
20
93.8537
30
0
11
128.19
21
91.8232
31
0
0
LINE
8
LETRAS
10
128.19
20
91.8232
30
0
11
128.044
21
87.8695
31
0
0
LINE
8
LETRAS
10
128.044
20
87.8695
30
0
11
127.5859
21
84.3172
31
0
0
LINE
8
LETRAS
10
127.5859
20
84.3172
30
0
11
126.2892
21
78.0496
31
0
0
LINE
8
LETRAS
10
126.2892
20
78.0496
30
0
11
124.8371
21
72.94
31
0
0
LINE
8
LETRAS
10
124.8371
20
72.94
30
0
11
123.5491
21
69.1791
31
0
0
LINE
8
LETRAS
10
123.5491
20
69.1791
30
0
11
121.8274
21
64.9121
31
0
0
LINE
8
LETRAS
10
121.8274
20
64.9121
30
0
11
119.5852
21
60.3151
31
0
0
LINE
8
LETRAS
10
119.5852
20
60.3151
30
0
11
117.5053
21
56.8449
31
0
0
LINE
8
LETRAS
10
117.5053
20
56.8449
30
0
11
115.9137
21
54.5782
31
0
0
LINE
8
LETRAS
10
115.9137
20
54.5782
30
0
11
113.5825
21
52.0307
31
0
0
LINE
8
LETRAS
10
113.5825
20
52.0307
30
0
11
112.1555
21
51.1213
31
0
0
LINE
8
LETRAS
10
112.1555
20
51.1213
30
0
11
111.538
21
50.9242
31
0
0
LINE
8
LETRAS
10
111.538
20
50.9242
30
0
11
110.8037
21
50.9563
31
0
0
LINE
8
LETRAS
10
110.8037
20
50.9563
30
0
11
110.1972
21
51.236
31
0
0
LINE
8
LETRAS
10
110.1972
20
51.236
30
0
11
109.6088
21
51.7756
31
0
0
LINE
8
LETRAS
10
109.6088
20
51.7756
30
0
11
108.9173
21
53.0893
31
0
0
LINE
8
LETRAS
10
108.9173
20
53.0893
30
0
11
108.5014
21
54.7591
31
0
0
LINE
8
LETRAS
10
108.5014
20
54.7591
30
0
11
108.2815
21
58.4596
31
0
0
LINE
8
LETRAS
10
108.2815
20
58.4596
30
0
11
108.5005
21
61.7498
31
0
0
LINE
8
LETRAS
10
108.5005
20
61.7498
30
0
11
108.9687
21
65.2114
31
0
0
LINE
8
LETRAS
10
108.9687
20
65.2114
30
0
11
110.0287
21
70.4893
31
0
0
LINE
8
LETRAS
10
110.0287
20
70.4893
30
0
11
111.3171
21
75.2613
31
0
0
LINE
8
LETRAS
10
111.3171
20
75.2613
30
0
11
112.5641
21
78.9914
31
0
0
LINE
8
LETRAS
10
112.5641
20
78.9914
30
0
11
114.0784
21
82.7408
31
0
0
LINE
8
LETRAS
10
114.0784
20
82.7408
30
0
11
115.5357
21
85.7684
31
0
0
LINE
8
LETRAS
10
115.5357
20
85.7684
30
0
11
117.7521
21
89.5408
31
0
0
LINE
8
LETRAS
10
117.7521
20
89.5408
30
0
11
119.6983
21
92.1601
31
0
0
LINE
8
LETRAS
10
119.6983
20
92.1601
30
0
11
121.3086
21
93.9156
31
0
0
LINE
8
LETRAS
10
121.3086
20
93.9156
30
0
11
123.2644
21
95.3078
31
0
0
LINE
8
LETRAS
10
123.2644
20
95.3078
30
0
11
124.5569
21
95.7161
31
0
0
LINE
8
LETRAS
10
124.5569
20
95.7161
30
0
11
124.5646
21
95.7174
31
0
0
LINE
8
LETRAS
10
92.9826
20
95.5741
30
0
11
94.1733
21
95.5563
31
0
0
LINE
8
LETRAS
10
94.1733
20
95.5563
30
0
11
95.4881
21
94.9913
31
0
0
LINE
8
LETRAS
10
95.4881
20
94.9913
30
0
11
96.205
21
93.8193
31
0
0
LINE
8
LETRAS
10
96.205
20
93.8193
30
0
11
96.5362
21
92.0469
31
0
0
LINE
8
LETRAS
10
96.5362
20
92.0469
30
0
11
96.4626
21
88.0927
31
0
0
LINE
8
LETRAS
10
96.4626
20
88.0927
30
0
11
96.0256
21
84.5193
31
0
0
LINE
8
LETRAS
10
96.0256
20
84.5193
30
0
11
94.922
21
79.0522
31
0
0
LINE
8
LETRAS
10
94.922
20
79.0522
30
0
11
93.4801
21
73.6459
31
0
0
LINE
8
LETRAS
10
93.4801
20
73.6459
30
0
11
92.182
21
69.6804
31
0
0
LINE
8
LETRAS
10
92.182
20
69.6804
30
0
11
90.0231
21
64.2839
31
0
0
LINE
8
LETRAS
10
90.0231
20
64.2839
30
0
11
88.6508
21
61.3952
31
0
0
LINE
8
LETRAS
10
88.6508
20
61.3952
30
0
11
86.2711
21
57.2132
31
0
0
LINE
8
LETRAS
10
86.2711
20
57.2132
30
0
11
84.1208
21
54.1535
31
0
0
LINE
8
LETRAS
10
84.1208
20
54.1535
30
0
11
82.0721
21
51.8875
31
0
0
LINE
8
LETRAS
10
82.0721
20
51.8875
30
0
11
80.5706
21
50.8914
31
0
0
LINE
8
LETRAS
10
80.5706
20
50.8914
30
0
11
79.8181
21
50.7039
31
0
0
LINE
8
LETRAS
10
79.8181
20
50.7039
30
0
11
79.0886
21
50.8233
31
0
0
LINE
8
LETRAS
10
79.0886
20
50.8233
30
0
11
78.0823
21
51.5804
31
0
0
LINE
8
LETRAS
10
78.0823
20
51.5804
30
0
11
77.3309
21
53.1028
31
0
0
LINE
8
LETRAS
10
77.3309
20
53.1028
30
0
11
76.9193
21
54.9739
31
0
0
LINE
8
LETRAS
10
76.9193
20
54.9739
30
0
11
76.6995
21
58.6029
31
0
0
LINE
8
LETRAS
10
76.6995
20
58.6029
30
0
11
76.9185
21
61.9646
31
0
0
LINE
8
LETRAS
10
76.9185
20
61.9646
30
0
11
77.5913
21
66.7971
31
0
0
LINE
8
LETRAS
10
77.5913
20
66.7971
30
0
11
78.2438
21
69.9133
31
0
0
LINE
8
LETRAS
10
78.2438
20
69.9133
30
0
11
79.6942
21
75.3022
31
0
0
LINE
8
LETRAS
10
79.6942
20
75.3022
30
0
11
80.9821
21
79.0631
31
0
0
LINE
8
LETRAS
10
80.9821
20
79.0631
30
0
11
82.2918
21
82.3009
31
0
0
LINE
8
LETRAS
10
82.2918
20
82.3009
30
0
11
83.7358
21
85.3329
31
0
0
LINE
8
LETRAS
10
83.7358
20
85.3329
30
0
11
85.679
21
88.7428
31
0
0
LINE
8
LETRAS
10
85.679
20
88.7428
30
0
11
88.1162
21
92.0884
31
0
0
LINE
8
LETRAS
10
88.1162
20
92.0884
30
0
11
90.1517
21
94.1977
31
0
0
LINE
8
LETRAS
10
90.1517
20
94.1977
30
0
11
91.6285
21
95.1737
31
0
0
LINE
8
LETRAS
10
91.6285
20
95.1737
30
0
11
92.9749
21
95.5729
31
0
0
LINE
8
LETRAS
10
92.9749
20
95.5729
30
0
11
92.9826
21
95.5741
31
0
0
LINE
8
LUNA
10
60.0399
20
193.0416
30
0
11
62.9833
21
192.9951
31
0
0
LINE
8
LUNA
10
62.9833
20
192.9951
30
0
11
63.7138
21
192.7946
31
0
0
LINE
8
LUNA
10
63.7138
20
192.7946
30
0
11
63.8466
21
192.5815
31
0
0
LINE
8
LUNA
10
63.8466
20
192.5815
30
0
11
61.7861
21
191.9488
31
0
0
LINE
8
LUNA
10
61.7861
20
191.9488
30
0
11
60.1447
21
191.1285
31
0
0
LINE
8
LUNA
10
60.1447
20
191.1285
30
0
11
58.579
21
189.955
31
0
0
LINE
8
LUNA
10
58.579
20
189.955
30
0
11
57.1955
21
188.5723
31
0
0
LINE
8
LUNA
10
57.1955
20
188.5723
30
0
11
55.6017
21
186.5944
31
0
0
LINE
8
LUNA
10
55.6017
20
186.5944
30
0
11
54.2879
21
184.6497
31
0
0
LINE
8
LUNA
10
54.2879
20
184.6497
30
0
11
51.7005
21
179.9503
31
0
0
LINE
8
LUNA
10
51.7005
20
179.9503
30
0
11
49.1034
21
173.9626
31
0
0
LINE
8
LUNA
10
49.1034
20
173.9626
30
0
11
46.5264
21
166.3345
31
0
0
LINE
8
LUNA
10
46.5264
20
166.3345
30
0
11
44.3719
21
158.7225
31
0
0
LINE
8
LUNA
10
44.3719
20
158.7225
30
0
11
41.5489
21
147.6581
31
0
0
LINE
8
LUNA
10
41.5489
20
147.6581
30
0
11
41.7163
21
147.4763
31
0
0
LINE
8
LUNA
10
41.7163
20
147.4763
30
0
11
42.9146
21
147.71
31
0
0
LINE
8
LUNA
10
42.9146
20
147.71
30
0
11
50.3153
21
149.6371
31
0
0
LINE
8
LUNA
10
50.3153
20
149.6371
30
0
11
52.3391
21
150.3347
31
0
0
LINE
8
LUNA
10
52.3391
20
150.3347
30
0
11
54.2449
21
157.9715
31
0
0
LINE
8
LUNA
10
54.2449
20
157.9715
30
0
11
55.3122
21
162.9377
31
0
0
LINE
8
LUNA
10
55.3122
20
162.9377
30
0
11
58.3827
21
179.7045
31
0
0
LINE
8
LUNA
10
58.3827
20
179.7045
30
0
11
58.515
21
179.8675
31
0
0
LINE
8
LUNA
10
58.515
20
179.8675
30
0
11
58.8208
21
179.854
31
0
0
LINE
8
LUNA
10
58.8208
20
179.854
30
0
11
66.7269
21
174.0011
31
0
0
LINE
8
LUNA
10
66.7269
20
174.0011
30
0
11
67.0909
21
173.4687
31
0
0
LINE
8
LUNA
10
67.0909
20
173.4687
30
0
11
65.5633
21
165.0759
31
0
0
LINE
8
LUNA
10
65.5633
20
165.0759
30
0
11
62.9885
21
154.3662
31
0
0
LINE
8
LUNA
10
62.9885
20
154.3662
30
0
11
59.3302
21
141.3115
31
0
0
LINE
8
LUNA
10
59.3302
20
141.3115
30
0
11
57.1774
21
134.4946
31
0
0
LINE
8
LUNA
10
57.1774
20
134.4946
30
0
11
55.4539
21
129.6832
31
0
0
LINE
8
LUNA
10
55.4539
20
129.6832
30
0
11
52.0134
21
121.4057
31
0
0
LINE
8
LUNA
10
52.0134
20
121.4057
30
0
11
48.7723
21
115.2116
31
0
0
LINE
8
LUNA
10
48.7723
20
115.2116
30
0
11
46.8862
21
112.1922
31
0
0
LINE
8
LUNA
10
46.8862
20
112.1922
30
0
11
44.5424
21
108.9948
31
0
0
LINE
8
LUNA
10
44.5424
20
108.9948
30
0
11
41.5521
21
105.7546
31
0
0
LINE
8
LUNA
10
41.5521
20
105.7546
30
0
11
41.0631
21
105.3574
31
0
0
LINE
8
LUNA
10
41.0631
20
105.3574
30
0
11
40.8037
21
105.3988
31
0
0
LINE
8
LUNA
10
40.8037
20
105.3988
30
0
11
40.8491
21
105.6699
31
0
0
LINE
8
LUNA
10
40.8491
20
105.6699
30
0
11
42.3735
21
107.4398
31
0
0
LINE
8
LUNA
10
42.3735
20
107.4398
30
0
11
44.1035
21
109.8903
31
0
0
LINE
8
LUNA
10
44.1035
20
109.8903
30
0
11
46.2589
21
113.4372
31
0
0
LINE
8
LUNA
10
46.2589
20
113.4372
30
0
11
48.2076
21
117.1907
31
0
0
LINE
8
LUNA
10
48.2076
20
117.1907
30
0
11
49.7892
21
121.0976
31
0
0
LINE
8
LUNA
10
49.7892
20
121.0976
30
0
11
47.0974
21
116.9851
31
0
0
LINE
8
LUNA
10
47.0974
20
116.9851
30
0
11
44.3707
21
113.3738
31
0
0
LINE
8
LUNA
10
44.3707
20
113.3738
30
0
11
40.9837
21
109.5546
31
0
0
LINE
8
LUNA
10
40.9837
20
109.5546
30
0
11
38.2392
21
107.0266
31
0
0
LINE
8
LUNA
10
38.2392
20
107.0266
30
0
11
35.3339
21
104.7935
31
0
0
LINE
8
LUNA
10
35.3339
20
104.7935
30
0
11
32.4856
21
103.0584
31
0
0
LINE
8
LUNA
10
32.4856
20
103.0584
30
0
11
29.2164
21
101.5922
31
0
0
LINE
8
LUNA
10
29.2164
20
101.5922
30
0
11
27.8244
21
101.14
31
0
0
LINE
8
LUNA
10
27.8244
20
101.14
30
0
11
25.7192
21
100.731
31
0
0
LINE
8
LUNA
10
25.7192
20
100.731
30
0
11
25.6046
21
100.9185
31
0
0
LINE
8
LUNA
10
25.6046
20
100.9185
30
0
11
25.8095
21
101.1766
31
0
0
LINE
8
LUNA
10
25.8095
20
101.1766
30
0
11
28.2891
21
102.5015
31
0
0
LINE
8
LUNA
10
28.2891
20
102.5015
30
0
11
30.2851
21
103.9431
31
0
0
LINE
8
LUNA
10
30.2851
20
103.9431
30
0
11
32.0228
21
105.4637
31
0
0
LINE
8
LUNA
10
32.0228
20
105.4637
30
0
11
33.9742
21
107.487
31
0
0
LINE
8
LUNA
10
33.9742
20
107.487
30
0
11
37.075
21
111.476
31
0
0
LINE
8
LUNA
10
37.075
20
111.476
30
0
11
40.4613
21
116.952
31
0
0
LINE
8
LUNA
10
40.4613
20
116.952
30
0
11
43.6987
21
123.4989
31
0
0
LINE
8
LUNA
10
43.6987
20
123.4989
30
0
11
46.0748
21
129.4033
31
0
0
LINE
8
LUNA
10
46.0748
20
129.4033
30
0
11
48.4346
21
136.3087
31
0
0
LINE
8
LUNA
10
48.4346
20
136.3087
30
0
11
51.7941
21
148.0486
31
0
0
LINE
8
LUNA
10
51.7941
20
148.0486
30
0
11
49.7793
21
147.6934
31
0
0
LINE
8
LUNA
10
49.7793
20
147.6934
30
0
11
30.0914
21
143.0413
31
0
0
LINE
8
LUNA
10
30.0914
20
143.0413
30
0
11
29.5544
21
142.9641
31
0
0
LINE
8
LUNA
10
29.5544
20
142.9641
30
0
11
29.3436
21
143.0989
31
0
0
LINE
8
LUNA
10
29.3436
20
143.0989
30
0
11
30.0388
21
146.3434
31
0
0
LINE
8
LUNA
10
30.0388
20
146.3434
30
0
11
34.3396
21
161.8262
31
0
0
LINE
8
LUNA
10
34.3396
20
161.8262
30
0
11
36.7071
21
169.431
31
0
0
LINE
8
LUNA
10
36.7071
20
169.431
30
0
11
38.6374
21
174.8322
31
0
0
LINE
8
LUNA
10
38.6374
20
174.8322
30
0
11
41.0241
21
180.3679
31
0
0
LINE
8
LUNA
10
41.0241
20
180.3679
30
0
11
43.2013
21
184.4749
31
0
0
LINE
8
LUNA
10
43.2013
20
184.4749
30
0
11
45.7189
21
188.3131
31
0
0
LINE
8
LUNA
10
45.7189
20
188.3131
30
0
11
47.8518
21
190.7367
31
0
0
LINE
8
LUNA
10
47.8518
20
190.7367
30
0
11
48.167
21
190.8009
31
0
0
LINE
8
LUNA
10
48.167
20
190.8009
30
0
11
48.1957
21
190.5002
31
0
0
LINE
8
LUNA
10
48.1957
20
190.5002
30
0
11
45.6907
21
186.8643
31
0
0
LINE
8
LUNA
10
45.6907
20
186.8643
30
0
11
43.5409
21
182.7925
31
0
0
LINE
8
LUNA
10
43.5409
20
182.7925
30
0
11
42.0111
21
178.9691
31
0
0
LINE
8
LUNA
10
42.0111
20
178.9691
30
0
11
41.3621
21
176.7625
31
0
0
LINE
8
LUNA
10
41.3621
20
176.7625
30
0
11
43.7094
21
180.7621
31
0
0
LINE
8
LUNA
10
43.7094
20
180.7621
30
0
11
45.4427
21
183.2899
31
0
0
LINE
8
LUNA
10
45.4427
20
183.2899
30
0
11
47.519
21
185.9132
31
0
0
LINE
8
LUNA
10
47.519
20
185.9132
30
0
11
50.2001
21
188.5943
31
0
0
LINE
8
LUNA
10
50.2001
20
188.5943
30
0
11
52.6196
21
190.409
31
0
0
LINE
8
LUNA
10
52.6196
20
190.409
30
0
11
55.3321
21
191.8591
31
0
0
LINE
8
LUNA
10
55.3321
20
191.8591
30
0
11
57.9801
21
192.756
31
0
0
LINE
8
LUNA
10
57.9801
20
192.756
30
0
11
60.0322
21
193.0403
31
0
0
LINE
8
LUNA
10
60.0322
20
193.0403
30
0
11
60.0399
21
193.0416
31
0
0
LINE
8
LUNA
10
128.6466
20
192.97
30
0
11
131.574
21
192.9969
31
0
0
LINE
8
LUNA
10
131.574
20
192.9969
30
0
11
132.8391
21
192.7582
31
0
0
LINE
8
LUNA
10
132.8391
20
192.7582
30
0
11
132.9754
21
192.5265
31
0
0
LINE
8
LUNA
10
132.9754
20
192.5265
30
0
11
132.8051
21
192.3296
31
0
0
LINE
8
LUNA
10
132.8051
20
192.3296
30
0
11
130.9658
21
191.9488
31
0
0
LINE
8
LUNA
10
130.9658
20
191.9488
30
0
11
129.1765
21
191.0705
31
0
0
LINE
8
LUNA
10
129.1765
20
191.0705
30
0
11
127.9067
21
190.174
31
0
0
LINE
8
LUNA
10
127.9067
20
190.174
30
0
11
126.308
21
188.6485
31
0
0
LINE
8
LUNA
10
126.308
20
188.6485
30
0
11
123.778
21
185.4225
31
0
0
LINE
8
LUNA
10
123.778
20
185.4225
30
0
11
120.8802
21
180.38
31
0
0
LINE
8
LUNA
10
120.8802
20
180.38
30
0
11
118.0707
21
173.9691
31
0
0
LINE
8
LUNA
10
118.0707
20
173.9691
30
0
11
115.6958
21
167.1325
31
0
0
LINE
8
LUNA
10
115.6958
20
167.1325
30
0
11
112.9071
21
157.4335
31
0
0
LINE
8
LUNA
10
112.9071
20
157.4335
30
0
11
110.5505
21
148.099
31
0
0
LINE
8
LUNA
10
110.5505
20
148.099
30
0
11
110.56
21
147.5956
31
0
0
LINE
8
LUNA
10
110.56
20
147.5956
30
0
11
115.6208
21
148.7758
31
0
0
LINE
8
LUNA
10
115.6208
20
148.7758
30
0
11
121.3991
21
150.4633
31
0
0
LINE
8
LUNA
10
121.3991
20
150.4633
30
0
11
122.7801
21
155.6798
31
0
0
LINE
8
LUNA
10
122.7801
20
155.6798
30
0
11
124.9318
21
165.3624
31
0
0
LINE
8
LUNA
10
124.9318
20
165.3624
30
0
11
127.3839
21
179.4264
31
0
0
LINE
8
LUNA
10
127.3839
20
179.4264
30
0
11
127.6151
21
179.8471
31
0
0
LINE
8
LUNA
10
127.6151
20
179.8471
30
0
11
135.843
21
173.7495
31
0
0
LINE
8
LUNA
10
135.843
20
173.7495
30
0
11
135.9836
21
173.3901
31
0
0
LINE
8
LUNA
10
135.9836
20
173.3901
30
0
11
135.4407
21
170.3317
31
0
0
LINE
8
LUNA
10
135.4407
20
170.3317
30
0
11
135.5191
21
170.0687
31
0
0
LINE
8
LUNA
10
135.5191
20
170.0687
30
0
11
142.5915
21
165.7633
31
0
0
LINE
8
LUNA
10
142.5915
20
165.7633
30
0
11
164.3541
21
151.8439
31
0
0
LINE
8
LUNA
10
164.3541
20
151.8439
30
0
11
166.2672
21
150.7581
31
0
0
LINE
8
LUNA
10
166.2672
20
150.7581
30
0
11
167.3499
21
150.4623
31
0
0
LINE
8
LUNA
10
167.3499
20
150.4623
30
0
11
168.4417
21
150.6505
31
0
0
LINE
8
LUNA
10
168.4417
20
150.6505
30
0
11
169.601
21
151.2816
31
0
0
LINE
8
LUNA
10
169.601
20
151.2816
30
0
11
180.9471
21
159.7369
31
0
0
LINE
8
LUNA
10
180.9471
20
159.7369
30
0
11
204.2939
21
176.1541
31
0
0
LINE
8
LUNA
10
204.2939
20
176.1541
30
0
11
208.0372
21
178.319
31
0
0
LINE
8
LUNA
10
208.0372
20
178.319
30
0
11
209.3435
21
178.7404
31
0
0
LINE
8
LUNA
10
209.3435
20
178.7404
30
0
11
210.5378
21
178.7096
31
0
0
LINE
8
LUNA
10
210.5378
20
178.7096
30
0
11
211.4106
21
178.1949
31
0
0
LINE
8
LUNA
10
211.4106
20
178.1949
30
0
11
211.8992
21
177.0094
31
0
0
LINE
8
LUNA
10
211.8992
20
177.0094
30
0
11
211.9729
21
175.3501
31
0
0
LINE
8
LUNA
10
211.9729
20
175.3501
30
0
11
211.4023
21
173.0829
31
0
0
LINE
8
LUNA
10
211.4023
20
173.0829
30
0
11
208.8173
21
168.5691
31
0
0
LINE
8
LUNA
10
208.8173
20
168.5691
30
0
11
201.1728
21
156.4122
31
0
0
LINE
8
LUNA
10
201.1728
20
156.4122
30
0
11
197.1733
21
149.2847
31
0
0
LINE
8
LUNA
10
197.1733
20
149.2847
30
0
11
195.3536
21
145.6348
31
0
0
LINE
8
LUNA
10
195.3536
20
145.6348
30
0
11
193.2046
21
140.6581
31
0
0
LINE
8
LUNA
10
193.2046
20
140.6581
30
0
11
191.9082
21
136.7982
31
0
0
LINE
8
LUNA
10
191.9082
20
136.7982
30
0
11
191.7195
21
135.0948
31
0
0
LINE
8
LUNA
10
191.7195
20
135.0948
30
0
11
192.2359
21
134.0088
31
0
0
LINE
8
LUNA
10
192.2359
20
134.0088
30
0
11
193.1624
21
133.2255
31
0
0
LINE
8
LUNA
10
193.1624
20
133.2255
30
0
11
218.1301
21
114.8395
31
0
0
LINE
8
LUNA
10
218.1301
20
114.8395
30
0
11
219.1365
21
113.6527
31
0
0
LINE
8
LUNA
10
219.1365
20
113.6527
30
0
11
219.5659
21
112.3097
31
0
0
LINE
8
LUNA
10
219.5659
20
112.3097
30
0
11
219.5278
21
111.5509
31
0
0
LINE
8
LUNA
10
219.5278
20
111.5509
30
0
11
219.1695
21
110.8529
31
0
0
LINE
8
LUNA
10
219.1695
20
110.8529
30
0
11
218.6161
21
110.4215
31
0
0
LINE
8
LUNA
10
218.6161
20
110.4215
30
0
11
217.4496
21
110.0305
31
0
0
LINE
8
LUNA
10
217.4496
20
110.0305
30
0
11
186.1787
21
104.0171
31
0
0
LINE
8
LUNA
10
186.1787
20
104.0171
30
0
11
182.1918
21
103.4474
31
0
0
LINE
8
LUNA
10
182.1918
20
103.4474
30
0
11
180.7988
21
103.0411
31
0
0
LINE
8
LUNA
10
180.7988
20
103.0411
30
0
11
179.4024
21
102.0921
31
0
0
LINE
8
LUNA
10
179.4024
20
102.0921
30
0
11
178.6245
21
101.1423
31
0
0
LINE
8
LUNA
10
178.6245
20
101.1423
30
0
11
177.824
21
99.7317
31
0
0
LINE
8
LUNA
10
177.824
20
99.7317
30
0
11
175.163
21
93.7632
31
0
0
LINE
8
LUNA
10
175.163
20
93.7632
30
0
11
168.3672
21
77.5618
31
0
0
LINE
8
LUNA
10
168.3672
20
77.5618
30
0
11
164.7099
21
67.9681
31
0
0
LINE
8
LUNA
10
164.7099
20
67.9681
30
0
11
164.4914
21
70.7972
31
0
0
LINE
8
LUNA
10
164.4914
20
70.7972
30
0
11
163.9489
21
73.3072
31
0
0
LINE
8
LUNA
10
163.9489
20
73.3072
30
0
11
163.1339
21
75.1956
31
0
0
LINE
8
LUNA
10
163.1339
20
75.1956
30
0
11
162.0167
21
76.7819
31
0
0
LINE
8
LUNA
10
162.0167
20
76.7819
30
0
11
160.9865
21
77.8107
31
0
0
LINE
8
LUNA
10
160.9865
20
77.8107
30
0
11
159.9157
21
78.557
31
0
0
LINE
8
LUNA
10
159.9157
20
78.557
30
0
11
158.5589
21
79.1607
31
0
0
LINE
8
LUNA
10
158.5589
20
79.1607
30
0
11
157.3232
21
79.4826
31
0
0
LINE
8
LUNA
10
157.3232
20
79.4826
30
0
11
155.1667
21
79.5636
31
0
0
LINE
8
LUNA
10
155.1667
20
79.5636
30
0
11
153.9854
21
79.411
31
0
0
LINE
8
LUNA
10
153.9854
20
79.411
30
0
11
151.0684
21
78.4841
31
0
0
LINE
8
LUNA
10
151.0684
20
78.4841
30
0
11
150.8034
21
78.9695
31
0
0
LINE
8
LUNA
10
150.8034
20
78.9695
30
0
11
149.4211
21
84.3153
31
0
0
LINE
8
LUNA
10
149.4211
20
84.3153
30
0
11
150.5626
21
86.0475
31
0
0
LINE
8
LUNA
10
150.5626
20
86.0475
30
0
11
153.7909
21
90.2313
31
0
0
LINE
8
LUNA
10
153.7909
20
90.2313
30
0
11
156.601
21
93.3295
31
0
0
LINE
8
LUNA
10
156.601
20
93.3295
30
0
11
159.4792
21
96.064
31
0
0
LINE
8
LUNA
10
159.4792
20
96.064
30
0
11
161.4321
21
97.7276
31
0
0
LINE
8
LUNA
10
161.4321
20
97.7276
30
0
11
163.9851
21
99.5879
31
0
0
LINE
8
LUNA
10
163.9851
20
99.5879
30
0
11
166.73
21
101.2652
31
0
0
LINE
8
LUNA
10
166.73
20
101.2652
30
0
11
169.0926
21
102.2596
31
0
0
LINE
8
LUNA
10
169.0926
20
102.2596
30
0
11
169.2577
21
102.534
31
0
0
LINE
8
LUNA
10
169.2577
20
102.534
30
0
11
167.6013
21
101.9157
31
0
0
LINE
8
LUNA
10
167.6013
20
101.9157
30
0
11
164.6351
21
100.3076
31
0
0
LINE
8
LUNA
10
164.6351
20
100.3076
30
0
11
161.1507
21
97.8031
31
0
0
LINE
8
LUNA
10
161.1507
20
97.8031
30
0
11
159.0449
21
95.9881
31
0
0
LINE
8
LUNA
10
159.0449
20
95.9881
30
0
11
155.8132
21
92.8282
31
0
0
LINE
8
LUNA
10
155.8132
20
92.8282
30
0
11
154.149
21
90.9475
31
0
0
LINE
8
LUNA
10
154.149
20
90.9475
30
0
11
151.6305
21
87.8532
31
0
0
LINE
8
LUNA
10
151.6305
20
87.8532
30
0
11
148.9797
21
84.1034
31
0
0
LINE
8
LUNA
10
148.9797
20
84.1034
30
0
11
145.5903
21
78.3351
31
0
0
LINE
8
LUNA
10
145.5903
20
78.3351
30
0
11
142.5859
21
71.761
31
0
0
LINE
8
LUNA
10
142.5859
20
71.761
30
0
11
141.4873
21
68.7239
31
0
0
LINE
8
LUNA
10
141.4873
20
68.7239
30
0
11
140.4035
21
64.6783
31
0
0
LINE
8
LUNA
10
140.4035
20
64.6783
30
0
11
139.7296
21
61.0732
31
0
0
LINE
8
LUNA
10
139.7296
20
61.0732
30
0
11
139.3664
21
58.169
31
0
0
LINE
8
LUNA
10
139.3664
20
58.169
30
0
11
139.2908
21
55.7569
31
0
0
LINE
8
LUNA
10
139.2908
20
55.7569
30
0
11
139.5125
21
53.4541
31
0
0
LINE
8
LUNA
10
139.5125
20
53.4541
30
0
11
139.7665
21
52.0968
31
0
0
LINE
8
LUNA
10
139.7665
20
52.0968
30
0
11
140.4576
21
50.2277
31
0
0
LINE
8
LUNA
10
140.4576
20
50.2277
30
0
11
140.9803
21
49.4792
31
0
0
LINE
8
LUNA
10
140.9803
20
49.4792
30
0
11
141.5919
21
48.9988
31
0
0
LINE
8
LUNA
10
141.5919
20
48.9988
30
0
11
142.5918
21
48.6738
31
0
0
LINE
8
LUNA
10
142.5918
20
48.6738
30
0
11
143.2472
21
48.6307
31
0
0
LINE
8
LUNA
10
143.2472
20
48.6307
30
0
11
144.3659
21
48.8816
31
0
0
LINE
8
LUNA
10
144.3659
20
48.8816
30
0
11
145.4379
21
49.3403
31
0
0
LINE
8
LUNA
10
145.4379
20
49.3403
30
0
11
147.7426
21
50.9565
31
0
0
LINE
8
LUNA
10
147.7426
20
50.9565
30
0
11
150.0023
21
53.3608
31
0
0
LINE
8
LUNA
10
150.0023
20
53.3608
30
0
11
152.0235
21
56.2003
31
0
0
LINE
8
LUNA
10
152.0235
20
56.2003
30
0
11
154.1198
21
59.887
31
0
0
LINE
8
LUNA
10
154.1198
20
59.887
30
0
11
155.8599
21
63.9476
31
0
0
LINE
8
LUNA
10
155.8599
20
63.9476
30
0
11
156.9465
21
67.6234
31
0
0
LINE
8
LUNA
10
156.9465
20
67.6234
30
0
11
157.3336
21
70.3157
31
0
0
LINE
8
LUNA
10
157.3336
20
70.3157
30
0
11
157.33
21
71.6565
31
0
0
LINE
8
LUNA
10
157.33
20
71.6565
30
0
11
157.1536
21
72.8229
31
0
0
LINE
8
LUNA
10
157.1536
20
72.8229
30
0
11
156.5799
21
73.9321
31
0
0
LINE
8
LUNA
10
156.5799
20
73.9321
30
0
11
155.7491
21
74.4979
31
0
0
LINE
8
LUNA
10
155.7491
20
74.4979
30
0
11
154.3831
21
74.6896
31
0
0
LINE
8
LUNA
10
154.3831
20
74.6896
30
0
11
153.053
21
74.4263
31
0
0
LINE
8
LUNA
10
153.053
20
74.4263
30
0
11
151.0962
21
73.5543
31
0
0
LINE
8
LUNA
10
151.0962
20
73.5543
30
0
11
149.186
21
72.2328
31
0
0
LINE
8
LUNA
10
149.186
20
72.2328
30
0
11
147.7252
21
70.9186
31
0
0
LINE
8
LUNA
10
147.7252
20
70.9186
30
0
11
145.4755
21
68.3074
31
0
0
LINE
8
LUNA
10
145.4755
20
68.3074
30
0
11
144.1812
21
66.3881
31
0
0
LINE
8
LUNA
10
144.1812
20
66.3881
30
0
11
143.2358
21
64.6121
31
0
0
LINE
8
LUNA
10
143.2358
20
64.6121
30
0
11
142.4303
21
62.4098
31
0
0
LINE
8
LUNA
10
142.4303
20
62.4098
30
0
11
142.1364
21
62.2654
31
0
0
LINE
8
LUNA
10
142.1364
20
62.2654
30
0
11
141.9324
21
62.4716
31
0
0
LINE
8
LUNA
10
141.9324
20
62.4716
30
0
11
141.7991
21
63.587
31
0
0
LINE
8
LUNA
10
141.7991
20
63.587
30
0
11
142.182
21
66.1851
31
0
0
LINE
8
LUNA
10
142.182
20
66.1851
30
0
11
142.8422
21
68.5328
31
0
0
LINE
8
LUNA
10
142.8422
20
68.5328
30
0
11
143.7212
21
70.6884
31
0
0
LINE
8
LUNA
10
143.7212
20
70.6884
30
0
11
145.3989
21
73.3612
31
0
0
LINE
8
LUNA
10
145.3989
20
73.3612
30
0
11
146.3514
21
74.5573
31
0
0
LINE
8
LUNA
10
146.3514
20
74.5573
30
0
11
147.8204
21
76.0244
31
0
0
LINE
8
LUNA
10
147.8204
20
76.0244
30
0
11
150.2631
21
77.7622
31
0
0
LINE
8
LUNA
10
150.2631
20
77.7622
30
0
11
151.7545
21
78.4909
31
0
0
LINE
8
LUNA
10
151.7545
20
78.4909
30
0
11
153.606
21
79.0832
31
0
0
LINE
8
LUNA
10
153.606
20
79.0832
30
0
11
155.3938
21
79.3454
31
0
0
LINE
8
LUNA
10
155.3938
20
79.3454
30
0
11
156.5039
21
79.3437
31
0
0
LINE
8
LUNA
10
156.5039
20
79.3437
30
0
11
157.8158
21
79.0979
31
0
0
LINE
8
LUNA
10
157.8158
20
79.0979
30
0
11
159.5256
21
78.4713
31
0
0
LINE
8
LUNA
10
159.5256
20
78.4713
30
0
11
160.9101
21
77.5283
31
0
0
LINE
8
LUNA
10
160.9101
20
77.5283
30
0
11
161.9537
21
76.4861
31
0
0
LINE
8
LUNA
10
161.9537
20
76.4861
30
0
11
162.8339
21
75.1911
31
0
0
LINE
8
LUNA
10
162.8339
20
75.1911
30
0
11
163.5024
21
73.8544
31
0
0
LINE
8
LUNA
10
163.5024
20
73.8544
30
0
11
164.207
21
71.1393
31
0
0
LINE
8
LUNA
10
164.207
20
71.1393
30
0
11
164.4242
21
68.2471
31
0
0
LINE
8
LUNA
10
164.4242
20
68.2471
30
0
11
164.2026
21
66.0427
31
0
0
LINE
8
LUNA
10
164.2026
20
66.0427
30
0
11
163.5354
21
62.6995
31
0
0
LINE
8
LUNA
10
163.5354
20
62.6995
30
0
11
162.0728
21
58.4241
31
0
0
LINE
8
LUNA
10
162.0728
20
58.4241
30
0
11
160.3339
21
54.8724
31
0
0
LINE
8
LUNA
10
160.3339
20
54.8724
30
0
11
158.6627
21
52.1841
31
0
0
LINE
8
LUNA
10
158.6627
20
52.1841
30
0
11
156.0011
21
48.83
31
0
0
LINE
8
LUNA
10
156.0011
20
48.83
30
0
11
153.2423
21
46.2177
31
0
0
LINE
8
LUNA
10
153.2423
20
46.2177
30
0
11
150.3033
21
44.269
31
0
0
LINE
8
LUNA
10
150.3033
20
44.269
30
0
11
147.5135
21
43.138
31
0
0
LINE
8
LUNA
10
147.5135
20
43.138
30
0
11
144.8943
21
42.6867
31
0
0
LINE
8
LUNA
10
144.8943
20
42.6867
30
0
11
142.0974
21
42.9067
31
0
0
LINE
8
LUNA
10
142.0974
20
42.9067
30
0
11
140.6432
21
43.3593
31
0
0
LINE
8
LUNA
10
140.6432
20
43.3593
30
0
11
139.0854
21
44.0574
31
0
0
LINE
8
LUNA
10
139.0854
20
44.0574
30
0
11
137.1498
21
45.3623
31
0
0
LINE
8
LUNA
10
137.1498
20
45.3623
30
0
11
135.824
21
46.6146
31
0
0
LINE
8
LUNA
10
135.824
20
46.6146
30
0
11
134.6462
21
48.1134
31
0
0
LINE
8
LUNA
10
134.6462
20
48.1134
30
0
11
133.3939
21
50.3702
31
0
0
LINE
8
LUNA
10
133.3939
20
50.3702
30
0
11
132.5193
21
52.8167
31
0
0
LINE
8
LUNA
10
132.5193
20
52.8167
30
0
11
132.0646
21
55.2445
31
0
0
LINE
8
LUNA
10
132.0646
20
55.2445
30
0
11
131.9859
21
56.5534
31
0
0
LINE
8
LUNA
10
131.9859
20
56.5534
30
0
11
131.9865
21
59.9093
31
0
0
LINE
8
LUNA
10
131.9865
20
59.9093
30
0
11
132.2805
21
62.999
31
0
0
LINE
8
LUNA
10
132.2805
20
62.999
30
0
11
132.9523
21
66.8837
31
0
0
LINE
8
LUNA
10
132.9523
20
66.8837
30
0
11
133.8103
21
70.1526
31
0
0
LINE
8
LUNA
10
133.8103
20
70.1526
30
0
11
134.6804
21
72.9079
31
0
0
LINE
8
LUNA
10
134.6804
20
72.9079
30
0
11
135.9871
21
76.283
31
0
0
LINE
8
LUNA
10
135.9871
20
76.283
30
0
11
138.5784
21
81.5693
31
0
0
LINE
8
LUNA
10
138.5784
20
81.5693
30
0
11
140.6039
21
84.9418
31
0
0
LINE
8
LUNA
10
140.6039
20
84.9418
30
0
11
142.4804
21
87.6128
31
0
0
LINE
8
LUNA
10
142.4804
20
87.6128
30
0
11
146.3514
21
92.3893
31
0
0
LINE
8
LUNA
10
146.3514
20
92.3893
30
0
11
149.3769
21
95.4152
31
0
0
LINE
8
LUNA
10
149.3769
20
95.4152
30
0
11
151.0431
21
96.8642
31
0
0
LINE
8
LUNA
10
151.0431
20
96.8642
30
0
11
153.3653
21
98.6599
31
0
0
LINE
8
LUNA
10
153.3653
20
98.6599
30
0
11
156.2673
21
100.5292
31
0
0
LINE
8
LUNA
10
156.2673
20
100.5292
30
0
11
158.5226
21
101.6935
31
0
0
LINE
8
LUNA
10
158.5226
20
101.6935
30
0
11
161.0636
21
102.7242
31
0
0
LINE
8
LUNA
10
161.0636
20
102.7242
30
0
11
163.5897
21
103.3671
31
0
0
LINE
8
LUNA
10
163.5897
20
103.3671
30
0
11
165.1668
21
103.5535
31
0
0
LINE
8
LUNA
10
165.1668
20
103.5535
30
0
11
166.8083
21
103.5503
31
0
0
LINE
8
LUNA
10
166.8083
20
103.5503
30
0
11
168.0927
21
103.3844
31
0
0
LINE
8
LUNA
10
168.0927
20
103.3844
30
0
11
169.0841
21
103.0292
31
0
0
LINE
8
LUNA
10
169.0841
20
103.0292
30
0
11
169.1411
21
103.1622
31
0
0
LINE
8
LUNA
10
169.1411
20
103.1622
30
0
11
168.1654
21
103.5736
31
0
0
LINE
8
LUNA
10
168.1654
20
103.5736
30
0
11
166.88
21
103.7651
31
0
0
LINE
8
LUNA
10
166.88
20
103.7651
30
0
11
165.6224
21
103.8409
31
0
0
LINE
8
LUNA
10
165.6224
20
103.8409
30
0
11
163.9713
21
103.6926
31
0
0
LINE
8
LUNA
10
163.9713
20
103.6926
30
0
11
160.9987
21
102.9413
31
0
0
LINE
8
LUNA
10
160.9987
20
102.9413
30
0
11
158.6106
21
101.9725
31
0
0
LINE
8
LUNA
10
158.6106
20
101.9725
30
0
11
155.6841
21
100.4678
31
0
0
LINE
8
LUNA
10
155.6841
20
100.4678
30
0
11
152.6439
21
98.4413
31
0
0
LINE
8
LUNA
10
152.6439
20
98.4413
30
0
11
149.9592
21
96.2831
31
0
0
LINE
8
LUNA
10
149.9592
20
96.2831
30
0
11
146.5851
21
93.0609
31
0
0
LINE
8
LUNA
10
146.5851
20
93.0609
30
0
11
146.419
21
93.1512
31
0
0
LINE
8
LUNA
10
146.419
20
93.1512
30
0
11
145.7013
21
94.7431
31
0
0
LINE
8
LUNA
10
145.7013
20
94.7431
30
0
11
145.312
21
95.0967
31
0
0
LINE
8
LUNA
10
145.312
20
95.0967
30
0
11
144.6318
21
95.3834
31
0
0
LINE
8
LUNA
10
144.6318
20
95.3834
30
0
11
140.9783
21
95.3901
31
0
0
LINE
8
LUNA
10
140.9783
20
95.3901
30
0
11
131.9165
21
95.0036
31
0
0
LINE
8
LUNA
10
131.9165
20
95.0036
30
0
11
130.0852
21
97.6124
31
0
0
LINE
8
LUNA
10
130.0852
20
97.6124
30
0
11
128.9796
21
98.718
31
0
0
LINE
8
LUNA
10
128.9796
20
98.718
30
0
11
127.9266
21
99.509
31
0
0
LINE
8
LUNA
10
127.9266
20
99.509
30
0
11
125.6643
21
100.5678
31
0
0
LINE
8
LUNA
10
125.6643
20
100.5678
30
0
11
123.3512
21
100.9761
31
0
0
LINE
8
LUNA
10
123.3512
20
100.9761
30
0
11
120.6705
21
100.7126
31
0
0
LINE
8
LUNA
10
120.6705
20
100.7126
30
0
11
119.1661
21
100.2744
31
0
0
LINE
8
LUNA
10
119.1661
20
100.2744
30
0
11
117.7341
21
99.6117
31
0
0
LINE
8
LUNA
10
117.7341
20
99.6117
30
0
11
114.7248
21
97.5005
31
0
0
LINE
8
LUNA
10
114.7248
20
97.5005
30
0
11
111.4232
21
94.142
31
0
0
LINE
8
LUNA
10
111.4232
20
94.142
30
0
11
105.9029
21
93.6736
31
0
0
LINE
8
LUNA
10
105.9029
20
93.6736
30
0
11
104.1597
21
93.6727
31
0
0
LINE
8
LUNA
10
104.1597
20
93.6727
30
0
11
103.4294
21
93.9807
31
0
0
LINE
8
LUNA
10
103.4294
20
93.9807
30
0
11
103.1381
21
94.4638
31
0
0
LINE
8
LUNA
10
103.1381
20
94.4638
30
0
11
103.4156
21
95.2477
31
0
0
LINE
8
LUNA
10
103.4156
20
95.2477
30
0
11
104.0271
21
96.0416
31
0
0
LINE
8
LUNA
10
104.0271
20
96.0416
30
0
11
107.8498
21
99.649
31
0
0
LINE
8
LUNA
10
107.8498
20
99.649
30
0
11
118.4536
21
108.7482
31
0
0
LINE
8
LUNA
10
118.4536
20
108.7482
30
0
11
136.3559
21
123.5021
31
0
0
LINE
8
LUNA
10
136.3559
20
123.5021
30
0
11
137.6885
21
124.9087
31
0
0
LINE
8
LUNA
10
137.6885
20
124.9087
30
0
11
138.5034
21
126.2244
31
0
0
LINE
8
LUNA
10
138.5034
20
126.2244
30
0
11
139.1435
21
128.6816
31
0
0
LINE
8
LUNA
10
139.1435
20
128.6816
30
0
11
138.9943
21
131.4703
31
0
0
LINE
8
LUNA
10
138.9943
20
131.4703
30
0
11
134.9575
21
148.891
31
0
0
LINE
8
LUNA
10
134.9575
20
148.891
30
0
11
134.0721
21
153.5557
31
0
0
LINE
8
LUNA
10
134.0721
20
153.5557
30
0
11
133.2274
21
159.6196
31
0
0
LINE
8
LUNA
10
133.2274
20
159.6196
30
0
11
130.4476
21
148.9165
31
0
0
LINE
8
LUNA
10
130.4476
20
148.9165
30
0
11
127.4357
21
138.5185
31
0
0
LINE
8
LUNA
10
127.4357
20
138.5185
30
0
11
124.8508
21
130.764
31
0
0
LINE
8
LUNA
10
124.8508
20
130.764
30
0
11
122.5389
21
124.8045
31
0
0
LINE
8
LUNA
10
122.5389
20
124.8045
30
0
11
119.8778
21
119.0509
31
0
0
LINE
8
LUNA
10
119.8778
20
119.0509
30
0
11
116.871
21
113.6966
31
0
0
LINE
8
LUNA
10
116.871
20
113.6966
30
0
11
115.6288
21
111.8236
31
0
0
LINE
8
LUNA
10
115.6288
20
111.8236
30
0
11
113.2844
21
108.77
31
0
0
LINE
8
LUNA
10
113.2844
20
108.77
30
0
11
110.3856
21
105.7428
31
0
0
LINE
8
LUNA
10
110.3856
20
105.7428
30
0
11
110.1232
21
105.7826
31
0
0
LINE
8
LUNA
10
110.1232
20
105.7826
30
0
11
110.1712
21
106.0735
31
0
0
LINE
8
LUNA
10
110.1712
20
106.0735
30
0
11
112.7577
21
109.3325
31
0
0
LINE
8
LUNA
10
112.7577
20
109.3325
30
0
11
115.0121
21
112.87
31
0
0
LINE
8
LUNA
10
115.0121
20
112.87
30
0
11
117.1725
21
117.0475
31
0
0
LINE
8
LUNA
10
117.1725
20
117.0475
30
0
11
118.7029
21
120.7913
31
0
0
LINE
8
LUNA
10
118.7029
20
120.7913
30
0
11
115.8511
21
116.3458
31
0
0
LINE
8
LUNA
10
115.8511
20
116.3458
30
0
11
113.1964
21
112.8058
31
0
0
LINE
8
LUNA
10
113.1964
20
112.8058
30
0
11
110.3826
21
109.6308
31
0
0
LINE
8
LUNA
10
110.3826
20
109.6308
30
0
11
107.8485
21
107.2414
31
0
0
LINE
8
LUNA
10
107.8485
20
107.2414
30
0
11
104.2934
21
104.575
31
0
0
LINE
8
LUNA
10
104.2934
20
104.575
30
0
11
101.3012
21
102.9122
31
0
0
LINE
8
LUNA
10
101.3012
20
102.9122
30
0
11
98.1397
21
101.7948
31
0
0
LINE
8
LUNA
10
98.1397
20
101.7948
30
0
11
96.976
21
101.5531
31
0
0
LINE
8
LUNA
10
96.976
20
101.5531
30
0
11
96.0702
21
101.5979
31
0
0
LINE
8
LUNA
10
96.0702
20
101.5979
30
0
11
95.985
21
101.7867
31
0
0
LINE
8
LUNA
10
95.985
20
101.7867
30
0
11
96.0992
21
101.9733
31
0
0
LINE
8
LUNA
10
96.0992
20
101.9733
30
0
11
98.4368
21
103.2254
31
0
0
LINE
8
LUNA
10
98.4368
20
103.2254
30
0
11
100.7587
21
105.0213
31
0
0
LINE
8
LUNA
10
100.7587
20
105.0213
30
0
11
102.4334
21
106.623
31
0
0
LINE
8
LUNA
10
102.4334
20
106.623
30
0
11
105.4493
21
110.2583
31
0
0
LINE
8
LUNA
10
105.4493
20
110.2583
30
0
11
107.723
21
113.7156
31
0
0
LINE
8
LUNA
10
107.723
20
113.7156
30
0
11
104.7198
21
114.0431
31
0
0
LINE
8
LUNA
10
104.7198
20
114.0431
30
0
11
102.2747
21
114.6954
31
0
0
LINE
8
LUNA
10
102.2747
20
114.6954
30
0
11
99.6288
21
115.7824
31
0
0
LINE
8
LUNA
10
99.6288
20
115.7824
30
0
11
97.0868
21
117.2508
31
0
0
LINE
8
LUNA
10
97.0868
20
117.2508
30
0
11
95.1018
21
118.6854
31
0
0
LINE
8
LUNA
10
95.1018
20
118.6854
30
0
11
92.7163
21
120.8027
31
0
0
LINE
8
LUNA
10
92.7163
20
120.8027
30
0
11
90.5471
21
123.2616
31
0
0
LINE
8
LUNA
10
90.5471
20
123.2616
30
0
11
88.1388
21
126.6796
31
0
0
LINE
8
LUNA
10
88.1388
20
126.6796
30
0
11
89.0906
21
124.3563
31
0
0
LINE
8
LUNA
10
89.0906
20
124.3563
30
0
11
90.7465
21
121.3751
31
0
0
LINE
8
LUNA
10
90.7465
20
121.3751
30
0
11
91.8387
21
119.7012
31
0
0
LINE
8
LUNA
10
91.8387
20
119.7012
30
0
11
93.6306
21
117.3842
31
0
0
LINE
8
LUNA
10
93.6306
20
117.3842
30
0
11
94.4947
21
116.4938
31
0
0
LINE
8
LUNA
10
94.4947
20
116.4938
30
0
11
94.5392
21
116.2445
31
0
0
LINE
8
LUNA
10
94.5392
20
116.2445
30
0
11
94.1095
21
116.2608
31
0
0
LINE
8
LUNA
10
94.1095
20
116.2608
30
0
11
90.9174
21
119.2365
31
0
0
LINE
8
LUNA
10
90.9174
20
119.2365
30
0
11
88.9564
21
121.7783
31
0
0
LINE
8
LUNA
10
88.9564
20
121.7783
30
0
11
87.4558
21
124.2612
31
0
0
LINE
8
LUNA
10
87.4558
20
124.2612
30
0
11
85.2712
21
129.1038
31
0
0
LINE
8
LUNA
10
85.2712
20
129.1038
30
0
11
83.3117
21
134.9414
31
0
0
LINE
8
LUNA
10
83.3117
20
134.9414
30
0
11
80.9686
21
144.3021
31
0
0
LINE
8
LUNA
10
80.9686
20
144.3021
30
0
11
78.9583
21
141.825
31
0
0
LINE
8
LUNA
10
78.9583
20
141.825
30
0
11
75.4484
21
136.8575
31
0
0
LINE
8
LUNA
10
75.4484
20
136.8575
30
0
11
72.9827
21
132.9227
31
0
0
LINE
8
LUNA
10
72.9827
20
132.9227
30
0
11
70.0565
21
127.6327
31
0
0
LINE
8
LUNA
10
70.0565
20
127.6327
30
0
11
69.6971
21
127.7631
31
0
0
LINE
8
LUNA
10
69.6971
20
127.7631
30
0
11
65.3659
21
133.4541
31
0
0
LINE
8
LUNA
10
65.3659
20
133.4541
30
0
11
66.3232
21
135.4733
31
0
0
LINE
8
LUNA
10
66.3232
20
135.4733
30
0
11
68.3142
21
139.0145
31
0
0
LINE
8
LUNA
10
68.3142
20
139.0145
30
0
11
71.2129
21
143.5995
31
0
0
LINE
8
LUNA
10
71.2129
20
143.5995
30
0
11
73.8634
21
147.4928
31
0
0
LINE
8
LUNA
10
73.8634
20
147.4928
30
0
11
76.5823
21
151.0939
31
0
0
LINE
8
LUNA
10
76.5823
20
151.0939
30
0
11
79.0889
21
154.1101
31
0
0
LINE
8
LUNA
10
79.0889
20
154.1101
30
0
11
78.7768
21
158.0139
31
0
0
LINE
8
LUNA
10
78.7768
20
158.0139
30
0
11
78.6331
21
165.7383
31
0
0
LINE
8
LUNA
10
78.6331
20
165.7383
30
0
11
78.9938
21
172.0198
31
0
0
LINE
8
LUNA
10
78.9938
20
172.0198
30
0
11
79.547
21
176.3632
31
0
0
LINE
8
LUNA
10
79.547
20
176.3632
30
0
11
80.0572
21
176.3564
31
0
0
LINE
8
LUNA
10
80.0572
20
176.3564
30
0
11
87.4475
21
169.8803
31
0
0
LINE
8
LUNA
10
87.4475
20
169.8803
30
0
11
87.1555
21
162.9249
31
0
0
LINE
8
LUNA
10
87.1555
20
162.9249
30
0
11
94.8066
21
170.6105
31
0
0
LINE
8
LUNA
10
94.8066
20
170.6105
30
0
11
100.4783
21
175.7794
31
0
0
LINE
8
LUNA
10
100.4783
20
175.7794
30
0
11
100.912
21
175.8522
31
0
0
LINE
8
LUNA
10
100.912
20
175.8522
30
0
11
104.6249
21
170.1836
31
0
0
LINE
8
LUNA
10
104.6249
20
170.1836
30
0
11
104.653
21
169.895
31
0
0
LINE
8
LUNA
10
104.653
20
169.895
30
0
11
96.015
21
161.3633
31
0
0
LINE
8
LUNA
10
96.015
20
161.3633
30
0
11
87.8283
21
152.5058
31
0
0
LINE
8
LUNA
10
87.8283
20
152.5058
30
0
11
87.7295
21
151.1219
31
0
0
LINE
8
LUNA
10
87.7295
20
151.1219
30
0
11
88.1638
21
147.2055
31
0
0
LINE
8
LUNA
10
88.1638
20
147.2055
30
0
11
89.4839
21
139.7886
31
0
0
LINE
8
LUNA
10
89.4839
20
139.7886
30
0
11
90.9888
21
134.2932
31
0
0
LINE
8
LUNA
10
90.9888
20
134.2932
30
0
11
93.1567
21
128.6552
31
0
0
LINE
8
LUNA
10
93.1567
20
128.6552
30
0
11
95.2616
21
124.7355
31
0
0
LINE
8
LUNA
10
95.2616
20
124.7355
30
0
11
97.8683
21
121.237
31
0
0
LINE
8
LUNA
10
97.8683
20
121.237
30
0
11
99.681
21
119.4243
31
0
0
LINE
8
LUNA
10
99.681
20
119.4243
30
0
11
101.2401
21
118.1993
31
0
0
LINE
8
LUNA
10
101.2401
20
118.1993
30
0
11
103.1144
21
117.0122
31
0
0
LINE
8
LUNA
10
103.1144
20
117.0122
30
0
11
105.3151
21
115.9275
31
0
0
LINE
8
LUNA
10
105.3151
20
115.9275
30
0
11
107.2611
21
115.2685
31
0
0
LINE
8
LUNA
10
107.2611
20
115.2685
30
0
11
108.5891
21
115.1216
31
0
0
LINE
8
LUNA
10
108.5891
20
115.1216
30
0
11
109.9101
21
117.408
31
0
0
LINE
8
LUNA
10
109.9101
20
117.408
30
0
11
111.7985
21
121.1951
31
0
0
LINE
8
LUNA
10
111.7985
20
121.1951
30
0
11
114.3927
21
127.3199
31
0
0
LINE
8
LUNA
10
114.3927
20
127.3199
30
0
11
117.4096
21
136.1552
31
0
0
LINE
8
LUNA
10
117.4096
20
136.1552
30
0
11
118.9278
21
141.1718
31
0
0
LINE
8
LUNA
10
118.9278
20
141.1718
30
0
11
120.7889
21
148.1277
31
0
0
LINE
8
LUNA
10
120.7889
20
148.1277
30
0
11
118.3686
21
147.702
31
0
0
LINE
8
LUNA
10
118.3686
20
147.702
30
0
11
98.4689
21
142.9269
31
0
0
LINE
8
LUNA
10
98.4689
20
142.9269
30
0
11
98.3092
21
143.1163
31
0
0
LINE
8
LUNA
10
98.3092
20
143.1163
30
0
11
98.3595
21
143.6396
31
0
0
LINE
8
LUNA
10
98.3595
20
143.6396
30
0
11
99.2167
21
147.0525
31
0
0
LINE
8
LUNA
10
99.2167
20
147.0525
30
0
11
103.949
21
163.9746
31
0
0
LINE
8
LUNA
10
103.949
20
163.9746
30
0
11
107.1804
21
173.6696
31
0
0
LINE
8
LUNA
10
107.1804
20
173.6696
30
0
11
109.9918
21
180.4456
31
0
0
LINE
8
LUNA
10
109.9918
20
180.4456
30
0
11
111.3003
21
183.0312
31
0
0
LINE
8
LUNA
10
111.3003
20
183.0312
30
0
11
113.1653
21
186.215
31
0
0
LINE
8
LUNA
10
113.1653
20
186.215
30
0
11
114.5405
21
188.2415
31
0
0
LINE
8
LUNA
10
114.5405
20
188.2415
30
0
11
115.9068
21
189.9188
31
0
0
LINE
8
LUNA
10
115.9068
20
189.9188
30
0
11
116.7394
21
190.7691
31
0
0
LINE
8
LUNA
10
116.7394
20
190.7691
30
0
11
117.1503
21
190.8585
31
0
0
LINE
8
LUNA
10
117.1503
20
190.8585
30
0
11
117.1575
21
190.6107
31
0
0
LINE
8
LUNA
10
117.1575
20
190.6107
30
0
11
115.7571
21
188.7167
31
0
0
LINE
8
LUNA
10
115.7571
20
188.7167
30
0
11
114.4475
21
186.562
31
0
0
LINE
8
LUNA
10
114.4475
20
186.562
30
0
11
113.0815
21
183.9445
31
0
0
LINE
8
LUNA
10
113.0815
20
183.9445
30
0
11
111.4081
21
180.0499
31
0
0
LINE
8
LUNA
10
111.4081
20
180.0499
30
0
11
110.3221
21
176.4809
31
0
0
LINE
8
LUNA
10
110.3221
20
176.4809
30
0
11
113.8206
21
182.3639
31
0
0
LINE
8
LUNA
10
113.8206
20
182.3639
30
0
11
116.5513
21
185.9084
31
0
0
LINE
8
LUNA
10
116.5513
20
185.9084
30
0
11
118.5157
21
187.9455
31
0
0
LINE
8
LUNA
10
118.5157
20
187.9455
30
0
11
121.2206
21
190.1015
31
0
0
LINE
8
LUNA
10
121.2206
20
190.1015
30
0
11
123.491
21
191.4207
31
0
0
LINE
8
LUNA
10
123.491
20
191.4207
30
0
11
125.7064
21
192.3206
31
0
0
LINE
8
LUNA
10
125.7064
20
192.3206
30
0
11
128.639
21
192.9687
31
0
0
LINE
8
LUNA
10
128.639
20
192.9687
30
0
11
128.6466
21
192.97
31
0
0
LINE
8
LUNA
10
60.5412
20
192.8984
30
0
11
61.8132
21
192.9261
31
0
0
LINE
8
LUNA
10
61.8132
20
192.9261
30
0
11
63.3736
21
192.6291
31
0
0
LINE
8
LUNA
10
63.3736
20
192.6291
30
0
11
61.4358
21
191.9948
31
0
0
LINE
8
LUNA
10
61.4358
20
191.9948
30
0
11
59.7913
21
191.1149
31
0
0
LINE
8
LUNA
10
59.7913
20
191.1149
30
0
11
58.6459
21
190.2372
31
0
0
LINE
8
LUNA
10
58.6459
20
190.2372
30
0
11
56.8247
21
188.4149
31
0
0
LINE
8
LUNA
10
56.8247
20
188.4149
30
0
11
55.2399
21
186.3743
31
0
0
LINE
8
LUNA
10
55.2399
20
186.3743
30
0
11
53.6468
21
183.9122
31
0
0
LINE
8
LUNA
10
53.6468
20
183.9122
30
0
11
52.4167
21
181.7406
31
0
0
LINE
8
LUNA
10
52.4167
20
181.7406
30
0
11
50.2774
21
177.2556
31
0
0
LINE
8
LUNA
10
50.2774
20
177.2556
30
0
11
48.7531
21
173.5161
31
0
0
LINE
8
LUNA
10
48.7531
20
173.5161
30
0
11
46.2174
21
165.9184
31
0
0
LINE
8
LUNA
10
46.2174
20
165.9184
30
0
11
44.7096
21
160.6766
31
0
0
LINE
8
LUNA
10
44.7096
20
160.6766
30
0
11
41.2817
21
147.4666
31
0
0
LINE
8
LUNA
10
41.2817
20
147.4666
30
0
11
41.4588
21
147.2125
31
0
0
LINE
8
LUNA
10
41.4588
20
147.2125
30
0
11
42.1913
21
147.3501
31
0
0
LINE
8
LUNA
10
42.1913
20
147.3501
30
0
11
52.0852
21
149.944
31
0
0
LINE
8
LUNA
10
52.0852
20
149.944
30
0
11
52.4925
21
150.1812
31
0
0
LINE
8
LUNA
10
52.4925
20
150.1812
30
0
11
55.4043
21
162.5592
31
0
0
LINE
8
LUNA
10
55.4043
20
162.5592
30
0
11
58.5243
21
179.4823
31
0
0
LINE
8
LUNA
10
58.5243
20
179.4823
30
0
11
58.6347
21
179.6406
31
0
0
LINE
8
LUNA
10
58.6347
20
179.6406
30
0
11
58.8618
21
179.6084
31
0
0
LINE
8
LUNA
10
58.8618
20
179.6084
30
0
11
66.6757
21
173.8067
31
0
0
LINE
8
LUNA
10
66.6757
20
173.8067
30
0
11
66.8561
21
173.4244
31
0
0
LINE
8
LUNA
10
66.8561
20
173.4244
30
0
11
66.4973
21
170.8917
31
0
0
LINE
8
LUNA
10
66.4973
20
170.8917
30
0
11
65.0006
21
163.3469
31
0
0
LINE
8
LUNA
10
65.0006
20
163.3469
30
0
11
62.6305
21
153.7933
31
0
0
LINE
8
LUNA
10
62.6305
20
153.7933
30
0
11
58.166
21
138.1162
31
0
0
LINE
8
LUNA
10
58.166
20
138.1162
30
0
11
55.8017
21
131.1257
31
0
0
LINE
8
LUNA
10
55.8017
20
131.1257
30
0
11
52.9193
21
123.8837
31
0
0
LINE
8
LUNA
10
52.9193
20
123.8837
30
0
11
49.8223
21
117.4022
31
0
0
LINE
8
LUNA
10
49.8223
20
117.4022
30
0
11
46.5281
21
111.9773
31
0
0
LINE
8
LUNA
10
46.5281
20
111.9773
30
0
11
44.6612
21
109.44
31
0
0
LINE
8
LUNA
10
44.6612
20
109.44
30
0
11
42.7024
21
107.1198
31
0
0
LINE
8
LUNA
10
42.7024
20
107.1198
30
0
11
41.3721
21
105.9237
31
0
0
LINE
8
LUNA
10
41.3721
20
105.9237
30
0
11
44.0252
21
109.4762
31
0
0
LINE
8
LUNA
10
44.0252
20
109.4762
30
0
11
46.6713
21
113.8215
31
0
0
LINE
8
LUNA
10
46.6713
20
113.8215
30
0
11
49.1953
21
119.0139
31
0
0
LINE
8
LUNA
10
49.1953
20
119.0139
30
0
11
50.3001
21
121.7406
31
0
0
LINE
8
LUNA
10
50.3001
20
121.7406
30
0
11
50.4056
21
122.3905
31
0
0
LINE
8
LUNA
10
50.4056
20
122.3905
30
0
11
47.3875
21
117.7065
31
0
0
LINE
8
LUNA
10
47.3875
20
117.7065
30
0
11
44.7328
21
114.0949
31
0
0
LINE
8
LUNA
10
44.7328
20
114.0949
30
0
11
41.9191
21
110.7767
31
0
0
LINE
8
LUNA
10
41.9191
20
110.7767
30
0
11
38.8885
21
107.8185
31
0
0
LINE
8
LUNA
10
38.8885
20
107.8185
30
0
11
35.554
21
105.1552
31
0
0
LINE
8
LUNA
10
35.554
20
105.1552
30
0
11
32.3644
21
103.1976
31
0
0
LINE
8
LUNA
10
32.3644
20
103.1976
30
0
11
28.4352
21
101.5229
31
0
0
LINE
8
LUNA
10
28.4352
20
101.5229
30
0
11
26.1884
21
101.0013
31
0
0
LINE
8
LUNA
10
26.1884
20
101.0013
30
0
11
26.1986
21
101.1634
31
0
0
LINE
8
LUNA
10
26.1986
20
101.1634
30
0
11
27.798
21
101.99
31
0
0
LINE
8
LUNA
10
27.798
20
101.99
30
0
11
29.922
21
103.4378
31
0
0
LINE
8
LUNA
10
29.922
20
103.4378
30
0
11
31.7317
21
104.9581
31
0
0
LINE
8
LUNA
10
31.7317
20
104.9581
30
0
11
33.6877
21
106.9141
31
0
0
LINE
8
LUNA
10
33.6877
20
106.9141
30
0
11
37.2796
21
111.4862
31
0
0
LINE
8
LUNA
10
37.2796
20
111.4862
30
0
11
40.8705
21
117.3306
31
0
0
LINE
8
LUNA
10
40.8705
20
117.3306
30
0
11
43.8215
21
123.3762
31
0
0
LINE
8
LUNA
10
43.8215
20
123.3762
30
0
11
46.3613
21
129.6898
31
0
0
LINE
8
LUNA
10
46.3613
20
129.6898
30
0
11
49.4269
21
138.9687
31
0
0
LINE
8
LUNA
10
49.4269
20
138.9687
30
0
11
51.9711
21
148.044
31
0
0
LINE
8
LUNA
10
51.9711
20
148.044
30
0
11
51.8662
21
148.2908
31
0
0
LINE
8
LUNA
10
51.8662
20
148.2908
30
0
11
51.444
21
148.2577
31
0
0
LINE
8
LUNA
10
51.444
20
148.2577
30
0
11
32.7309
21
143.8393
31
0
0
LINE
8
LUNA
10
32.7309
20
143.8393
30
0
11
29.844
21
143.1902
31
0
0
LINE
8
LUNA
10
29.844
20
143.1902
30
0
11
29.5006
21
143.2456
31
0
0
LINE
8
LUNA
10
29.5006
20
143.2456
30
0
11
30.3457
21
146.7527
31
0
0
LINE
8
LUNA
10
30.3457
20
146.7527
30
0
11
34.2066
21
160.6701
31
0
0
LINE
8
LUNA
10
34.2066
20
160.6701
30
0
11
36.5741
21
168.4182
31
0
0
LINE
8
LUNA
10
36.5741
20
168.4182
30
0
11
38.31
21
173.4408
31
0
0
LINE
8
LUNA
10
38.31
20
173.4408
30
0
11
40.2438
21
178.2747
31
0
0
LINE
8
LUNA
10
40.2438
20
178.2747
30
0
11
42.5605
21
183.021
31
0
0
LINE
8
LUNA
10
42.5605
20
183.021
30
0
11
45.1524
21
187.2235
31
0
0
LINE
8
LUNA
10
45.1524
20
187.2235
30
0
11
47.6215
21
190.2409
31
0
0
LINE
8
LUNA
10
47.6215
20
190.2409
30
0
11
47.7187
21
190.2709
31
0
0
LINE
8
LUNA
10
47.7187
20
190.2709
30
0
11
47.6845
21
190.1251
31
0
0
LINE
8
LUNA
10
47.6845
20
190.1251
30
0
11
44.9098
21
185.8458
31
0
0
LINE
8
LUNA
10
44.9098
20
185.8458
30
0
11
43.6227
21
183.3552
31
0
0
LINE
8
LUNA
10
43.6227
20
183.3552
30
0
11
41.6633
21
178.5292
31
0
0
LINE
8
LUNA
10
41.6633
20
178.5292
30
0
11
41.0061
21
176.483
31
0
0
LINE
8
LUNA
10
41.0061
20
176.483
30
0
11
40.9579
21
175.8825
31
0
0
LINE
8
LUNA
10
40.9579
20
175.8825
30
0
11
41.2358
21
176.0832
31
0
0
LINE
8
LUNA
10
41.2358
20
176.0832
30
0
11
43.6957
21
180.4087
31
0
0
LINE
8
LUNA
10
43.6957
20
180.4087
30
0
11
45.8007
21
183.5047
31
0
0
LINE
8
LUNA
10
45.8007
20
183.5047
30
0
11
47.8097
21
185.9895
31
0
0
LINE
8
LUNA
10
47.8097
20
185.9895
30
0
11
50.0568
21
188.2362
31
0
0
LINE
8
LUNA
10
50.0568
20
188.2362
30
0
11
52.9109
21
190.3952
31
0
0
LINE
8
LUNA
10
52.9109
20
190.3952
30
0
11
55.4139
21
191.7056
31
0
0
LINE
8
LUNA
10
55.4139
20
191.7056
30
0
11
58.2021
21
192.6145
31
0
0
LINE
8
LUNA
10
58.2021
20
192.6145
30
0
11
60.5335
21
192.8971
31
0
0
LINE
8
LUNA
10
60.5335
20
192.8971
30
0
11
60.5412
21
192.8984
31
0
0
LINE
8
LUNA
10
129.3628
20
192.8267
30
0
11
131.0563
21
192.8552
31
0
0
LINE
8
LUNA
10
131.0563
20
192.8552
30
0
11
132.4921
21
192.5703
31
0
0
LINE
8
LUNA
10
132.4921
20
192.5703
30
0
11
130.6155
21
191.9948
31
0
0
LINE
8
LUNA
10
130.6155
20
191.9948
30
0
11
128.6021
21
190.8929
31
0
0
LINE
8
LUNA
10
128.6021
20
190.8929
30
0
11
127.5299
21
190.0852
31
0
0
LINE
8
LUNA
10
127.5299
20
190.0852
30
0
11
125.145
21
187.5556
31
0
0
LINE
8
LUNA
10
125.145
20
187.5556
30
0
11
123.5529
21
185.3611
31
0
0
LINE
8
LUNA
10
123.5529
20
185.3611
30
0
11
121.3909
21
181.7581
31
0
0
LINE
8
LUNA
10
121.3909
20
181.7581
30
0
11
119.0274
21
176.7543
31
0
0
LINE
8
LUNA
10
119.0274
20
176.7543
30
0
11
117.0735
21
171.7974
31
0
0
LINE
8
LUNA
10
117.0735
20
171.7974
30
0
11
114.7525
21
164.6294
31
0
0
LINE
8
LUNA
10
114.7525
20
164.6294
30
0
11
113.2549
21
159.3773
31
0
0
LINE
8
LUNA
10
113.2549
20
159.3773
30
0
11
110.2375
21
147.5762
31
0
0
LINE
8
LUNA
10
110.2375
20
147.5762
30
0
11
110.306
21
147.3891
31
0
0
LINE
8
LUNA
10
110.306
20
147.3891
30
0
11
110.4971
21
147.3524
31
0
0
LINE
8
LUNA
10
110.4971
20
147.3524
30
0
11
111.8283
21
147.6179
31
0
0
LINE
8
LUNA
10
111.8283
20
147.6179
30
0
11
120.7738
21
150.0054
31
0
0
LINE
8
LUNA
10
120.7738
20
150.0054
30
0
11
121.5597
21
150.3654
31
0
0
LINE
8
LUNA
10
121.5597
20
150.3654
30
0
11
123.0768
21
156.1709
31
0
0
LINE
8
LUNA
10
123.0768
20
156.1709
30
0
11
124.5737
21
162.7843
31
0
0
LINE
8
LUNA
10
124.5737
20
162.7843
30
0
11
126.0806
21
170.462
31
0
0
LINE
8
LUNA
10
126.0806
20
170.462
30
0
11
127.5183
21
179.0145
31
0
0
LINE
8
LUNA
10
127.5183
20
179.0145
30
0
11
127.6553
21
179.5129
31
0
0
LINE
8
LUNA
10
127.6553
20
179.5129
30
0
11
127.8368
21
179.547
31
0
0
LINE
8
LUNA
10
127.8368
20
179.547
30
0
11
135.5535
21
173.7823
31
0
0
LINE
8
LUNA
10
135.5535
20
173.7823
30
0
11
135.779
21
173.314
31
0
0
LINE
8
LUNA
10
135.779
20
173.314
30
0
11
135.0821
21
169.1859
31
0
0
LINE
8
LUNA
10
135.0821
20
169.1859
30
0
11
133.8104
21
163.135
31
0
0
LINE
8
LUNA
10
133.8104
20
163.135
30
0
11
131.4316
21
153.3841
31
0
0
LINE
8
LUNA
10
131.4316
20
153.3841
30
0
11
127.1308
21
138.1878
31
0
0
LINE
8
LUNA
10
127.1308
20
138.1878
30
0
11
124.3393
21
129.8432
31
0
0
LINE
8
LUNA
10
124.3393
20
129.8432
30
0
11
120.6844
21
121.0641
31
0
0
LINE
8
LUNA
10
120.6844
20
121.0641
30
0
11
118.0883
21
116.0869
31
0
0
LINE
8
LUNA
10
118.0883
20
116.0869
30
0
11
115.2707
21
111.6088
31
0
0
LINE
8
LUNA
10
115.2707
20
111.6088
30
0
11
113.264
21
109.0053
31
0
0
LINE
8
LUNA
10
113.264
20
109.0053
30
0
11
111.4524
21
106.9765
31
0
0
LINE
8
LUNA
10
111.4524
20
106.9765
30
0
11
110.9206
21
106.5579
31
0
0
LINE
8
LUNA
10
110.9206
20
106.5579
30
0
11
113.2627
21
109.7675
31
0
0
LINE
8
LUNA
10
113.2627
20
109.7675
30
0
11
115.4213
21
113.2486
31
0
0
LINE
8
LUNA
10
115.4213
20
113.2486
30
0
11
117.5129
21
117.3606
31
0
0
LINE
8
LUNA
10
117.5129
20
117.3606
30
0
11
119.2523
21
121.601
31
0
0
LINE
8
LUNA
10
119.2523
20
121.601
30
0
11
119.3702
21
122.2475
31
0
0
LINE
8
LUNA
10
119.3702
20
122.2475
30
0
11
116.2741
21
117.2924
31
0
0
LINE
8
LUNA
10
116.2741
20
117.2924
30
0
11
113.988
21
114.0999
31
0
0
LINE
8
LUNA
10
113.988
20
114.0999
30
0
11
111.3179
21
110.8529
31
0
0
LINE
8
LUNA
10
111.3179
20
110.8529
30
0
11
108.4262
21
107.9617
31
0
0
LINE
8
LUNA
10
108.4262
20
107.9617
30
0
11
105.1634
21
105.3701
31
0
0
LINE
8
LUNA
10
105.1634
20
105.3701
30
0
11
102.326
21
103.6241
31
0
0
LINE
8
LUNA
10
102.326
20
103.6241
30
0
11
99.3033
21
102.3141
31
0
0
LINE
8
LUNA
10
99.3033
20
102.3141
30
0
11
97.8881
21
101.93
31
0
0
LINE
8
LUNA
10
97.8881
20
101.93
30
0
11
96.4437
21
101.7845
31
0
0
LINE
8
LUNA
10
96.4437
20
101.7845
30
0
11
96.5139
21
101.9614
31
0
0
LINE
8
LUNA
10
96.5139
20
101.9614
30
0
11
98.3998
21
103.0028
31
0
0
LINE
8
LUNA
10
98.3998
20
103.0028
30
0
11
99.603
21
103.8674
31
0
0
LINE
8
LUNA
10
99.603
20
103.8674
30
0
11
101.3411
21
105.3162
31
0
0
LINE
8
LUNA
10
101.3411
20
105.3162
30
0
11
102.8631
21
106.8378
31
0
0
LINE
8
LUNA
10
102.8631
20
106.8378
30
0
11
105.8111
21
110.4784
31
0
0
LINE
8
LUNA
10
105.8111
20
110.4784
30
0
11
107.9647
21
113.8951
31
0
0
LINE
8
LUNA
10
107.9647
20
113.8951
30
0
11
107.5578
21
114.058
31
0
0
LINE
8
LUNA
10
107.5578
20
114.058
30
0
11
105.3669
21
114.162
31
0
0
LINE
8
LUNA
10
105.3669
20
114.162
30
0
11
103.1341
21
114.6238
31
0
0
LINE
8
LUNA
10
103.1341
20
114.6238
30
0
11
99.86
21
115.8614
31
0
0
LINE
8
LUNA
10
99.86
20
115.8614
30
0
11
97.3782
21
117.2646
31
0
0
LINE
8
LUNA
10
97.3782
20
117.2646
30
0
11
94.8207
21
119.1294
31
0
0
LINE
8
LUNA
10
94.8207
20
119.1294
30
0
11
92.0718
21
121.7337
31
0
0
LINE
8
LUNA
10
92.0718
20
121.7337
30
0
11
90.0419
21
124.1976
31
0
0
LINE
8
LUNA
10
90.0419
20
124.1976
30
0
11
87.8972
21
127.4151
31
0
0
LINE
8
LUNA
10
87.8972
20
127.4151
30
0
11
87.5944
21
127.6404
31
0
0
LINE
8
LUNA
10
87.5944
20
127.6404
30
0
11
88.2972
21
125.6576
31
0
0
LINE
8
LUNA
10
88.2972
20
125.6576
30
0
11
90.027
21
122.2401
31
0
0
LINE
8
LUNA
10
90.027
20
122.2401
30
0
11
91.9168
21
119.287
31
0
0
LINE
8
LUNA
10
91.9168
20
119.287
30
0
11
94.0255
21
116.6403
31
0
0
LINE
8
LUNA
10
94.0255
20
116.6403
30
0
11
92.5959
21
117.7729
31
0
0
LINE
8
LUNA
10
92.5959
20
117.7729
30
0
11
91.2755
21
119.0933
31
0
0
LINE
8
LUNA
10
91.2755
20
119.0933
30
0
11
88.598
21
122.6642
31
0
0
LINE
8
LUNA
10
88.598
20
122.6642
30
0
11
87.7227
21
124.1253
31
0
0
LINE
8
LUNA
10
87.7227
20
124.1253
30
0
11
85.9976
21
127.7534
31
0
0
LINE
8
LUNA
10
85.9976
20
127.7534
30
0
11
84.9162
21
130.4944
31
0
0
LINE
8
LUNA
10
84.9162
20
130.4944
30
0
11
83.4672
21
135.0879
31
0
0
LINE
8
LUNA
10
83.4672
20
135.0879
30
0
11
81.0981
21
144.5441
31
0
0
LINE
8
LUNA
10
81.0981
20
144.5441
30
0
11
80.827
21
144.5486
31
0
0
LINE
8
LUNA
10
80.827
20
144.5486
30
0
11
79.9443
21
143.4261
31
0
0
LINE
8
LUNA
10
79.9443
20
143.4261
30
0
11
75.0801
21
136.5813
31
0
0
LINE
8
LUNA
10
75.0801
20
136.5813
30
0
11
71.9801
21
131.562
31
0
0
LINE
8
LUNA
10
71.9801
20
131.562
30
0
11
70.0053
21
127.8987
31
0
0
LINE
8
LUNA
10
70.0053
20
127.8987
30
0
11
69.7482
21
127.9574
31
0
0
LINE
8
LUNA
10
69.7482
20
127.9574
30
0
11
65.555
21
133.4288
31
0
0
LINE
8
LUNA
10
65.555
20
133.4288
30
0
11
67.9664
21
138.0732
31
0
0
LINE
8
LUNA
10
67.9664
20
138.0732
30
0
11
70.9878
21
142.9652
31
0
0
LINE
8
LUNA
10
70.9878
20
142.9652
30
0
11
75.0195
21
148.7716
31
0
0
LINE
8
LUNA
10
75.0195
20
148.7716
30
0
11
79.2471
21
154.0418
31
0
0
LINE
8
LUNA
10
79.2471
20
154.0418
30
0
11
78.9198
21
159.24
31
0
0
LINE
8
LUNA
10
78.9198
20
159.24
30
0
11
78.8479
21
166.4544
31
0
0
LINE
8
LUNA
10
78.8479
20
166.4544
30
0
11
79.1377
21
171.4551
31
0
0
LINE
8
LUNA
10
79.1377
20
171.4551
30
0
11
79.7111
21
176.1454
31
0
0
LINE
8
LUNA
10
79.7111
20
176.1454
30
0
11
79.9188
21
176.2091
31
0
0
LINE
8
LUNA
10
79.9188
20
176.2091
30
0
11
87.2358
21
169.803
31
0
0
LINE
8
LUNA
10
87.2358
20
169.803
30
0
11
86.8892
21
162.7962
31
0
0
LINE
8
LUNA
10
86.8892
20
162.7962
30
0
11
87.0104
21
162.6007
31
0
0
LINE
8
LUNA
10
87.0104
20
162.6007
30
0
11
94.3053
21
169.8943
31
0
0
LINE
8
LUNA
10
94.3053
20
169.8943
30
0
11
100.6774
21
175.6895
31
0
0
LINE
8
LUNA
10
100.6774
20
175.6895
30
0
11
100.8939
21
175.6103
31
0
0
LINE
8
LUNA
10
100.8939
20
175.6103
30
0
11
104.4217
21
170.1336
31
0
0
LINE
8
LUNA
10
104.4217
20
170.1336
30
0
11
104.2954
21
169.7155
31
0
0
LINE
8
LUNA
10
104.2954
20
169.7155
30
0
11
95.2989
21
160.862
31
0
0
LINE
8
LUNA
10
95.2989
20
160.862
30
0
11
89.0597
21
154.1927
31
0
0
LINE
8
LUNA
10
89.0597
20
154.1927
30
0
11
87.5954
21
152.479
31
0
0
LINE
8
LUNA
10
87.5954
20
152.479
30
0
11
87.5153
21
151.6864
31
0
0
LINE
8
LUNA
10
87.5153
20
151.6864
30
0
11
87.8773
21
147.9217
31
0
0
LINE
8
LUNA
10
87.8773
20
147.9217
30
0
11
88.5252
21
143.6013
31
0
0
LINE
8
LUNA
10
88.5252
20
143.6013
30
0
11
89.8389
21
137.6013
31
0
0
LINE
8
LUNA
10
89.8389
20
137.6013
30
0
11
91.9416
21
131.1193
31
0
0
LINE
8
LUNA
10
91.9416
20
131.1193
30
0
11
93.3261
21
127.8757
31
0
0
LINE
8
LUNA
10
93.3261
20
127.8757
30
0
11
94.7502
21
125.2536
31
0
0
LINE
8
LUNA
10
94.7502
20
125.2536
30
0
11
97.4344
21
121.4566
31
0
0
LINE
8
LUNA
10
97.4344
20
121.4566
30
0
11
99.0365
21
119.7823
31
0
0
LINE
8
LUNA
10
99.0365
20
119.7823
30
0
11
100.9484
21
118.2031
31
0
0
LINE
8
LUNA
10
100.9484
20
118.2031
30
0
11
102.9815
21
116.8792
31
0
0
LINE
8
LUNA
10
102.9815
20
116.8792
30
0
11
105.1821
21
115.7945
31
0
0
LINE
8
LUNA
10
105.1821
20
115.7945
30
0
11
107.6837
21
114.9839
31
0
0
LINE
8
LUNA
10
107.6837
20
114.9839
30
0
11
108.5755
21
114.9022
31
0
0
LINE
8
LUNA
10
108.5755
20
114.9022
30
0
11
108.8399
21
115.1391
31
0
0
LINE
8
LUNA
10
108.8399
20
115.1391
30
0
11
109.8354
21
116.9009
31
0
0
LINE
8
LUNA
10
109.8354
20
116.9009
30
0
11
111.7195
21
120.6384
31
0
0
LINE
8
LUNA
10
111.7195
20
120.6384
30
0
11
113.2316
21
124.023
31
0
0
LINE
8
LUNA
10
113.2316
20
124.023
30
0
11
115.1702
21
128.9773
31
0
0
LINE
8
LUNA
10
115.1702
20
128.9773
30
0
11
118.1769
21
138.1093
31
0
0
LINE
8
LUNA
10
118.1769
20
138.1093
30
0
11
121.0099
21
148.2732
31
0
0
LINE
8
LUNA
10
121.0099
20
148.2732
30
0
11
120.7144
21
148.4265
31
0
0
LINE
8
LUNA
10
120.7144
20
148.4265
30
0
11
98.5864
21
143.1224
31
0
0
LINE
8
LUNA
10
98.5864
20
143.1224
30
0
11
98.509
21
143.4543
31
0
0
LINE
8
LUNA
10
98.509
20
143.4543
30
0
11
100.4257
21
150.8654
31
0
0
LINE
8
LUNA
10
100.4257
20
150.8654
30
0
11
104.258
21
164.3191
31
0
0
LINE
8
LUNA
10
104.258
20
164.3191
30
0
11
107.9092
21
175.0982
31
0
0
LINE
8
LUNA
10
107.9092
20
175.0982
30
0
11
111.0179
21
182.1499
31
0
0
LINE
8
LUNA
10
111.0179
20
182.1499
30
0
11
113.0902
21
185.7798
31
0
0
LINE
8
LUNA
10
113.0902
20
185.7798
30
0
11
114.3284
21
187.6479
31
0
0
LINE
8
LUNA
10
114.3284
20
187.6479
30
0
11
116.05
21
189.8472
31
0
0
LINE
8
LUNA
10
116.05
20
189.8472
30
0
11
116.7589
21
190.483
31
0
0
LINE
8
LUNA
10
116.7589
20
190.483
30
0
11
114.4475
21
186.9201
31
0
0
LINE
8
LUNA
10
114.4475
20
186.9201
30
0
11
112.874
21
183.9281
31
0
0
LINE
8
LUNA
10
112.874
20
183.9281
30
0
11
110.9044
21
179.1123
31
0
0
LINE
8
LUNA
10
110.9044
20
179.1123
30
0
11
109.8296
21
175.7022
31
0
0
LINE
8
LUNA
10
109.8296
20
175.7022
30
0
11
109.8753
21
175.4513
31
0
0
LINE
8
LUNA
10
109.8753
20
175.4513
30
0
11
110.2074
21
175.8078
31
0
0
LINE
8
LUNA
10
110.2074
20
175.8078
30
0
11
112.5889
21
180.1223
31
0
0
LINE
8
LUNA
10
112.5889
20
180.1223
30
0
11
114.6084
21
183.1517
31
0
0
LINE
8
LUNA
10
114.6084
20
183.1517
30
0
11
116.4122
21
185.4835
31
0
0
LINE
8
LUNA
10
116.4122
20
185.4835
30
0
11
118.9501
21
188.093
31
0
0
LINE
8
LUNA
10
118.9501
20
188.093
30
0
11
121.8757
21
190.3236
31
0
0
LINE
8
LUNA
10
121.8757
20
190.3236
30
0
11
124.2294
21
191.5596
31
0
0
LINE
8
LUNA
10
124.2294
20
191.5596
30
0
11
126.6585
21
192.3979
31
0
0
LINE
8
LUNA
10
126.6585
20
192.3979
30
0
11
129.3551
21
192.8255
31
0
0
LINE
8
LUNA
10
129.3551
20
192.8255
30
0
11
129.3628
21
192.8267
31
0
0
LINE
8
LUNA
10
41.2887
20
176.5942
30
0
11
41.288
21
176.5936
31
0
0
LINE
8
LUNA
10
41.288
20
176.5936
30
0
11
41.2874
21
176.5931
31
0
0
LINE
8
LUNA
10
41.2874
20
176.5931
30
0
11
41.2868
21
176.5928
31
0
0
LINE
8
LUNA
10
41.2868
20
176.5928
30
0
11
41.2861
21
176.5926
31
0
0
LINE
8
LUNA
10
41.2861
20
176.5926
30
0
11
41.2855
21
176.5926
31
0
0
LINE
8
LUNA
10
41.2855
20
176.5926
30
0
11
41.2848
21
176.5928
31
0
0
LINE
8
LUNA
10
41.2848
20
176.5928
30
0
11
41.2842
21
176.5931
31
0
0
LINE
8
LUNA
10
41.2842
20
176.5931
30
0
11
41.2836
21
176.5936
31
0
0
LINE
8
LUNA
10
41.2836
20
176.5936
30
0
11
41.2829
21
176.5942
31
0
0
LINE
8
LUNA
10
41.2829
20
176.5942
30
0
11
41.2824
21
176.5949
31
0
0
LINE
8
LUNA
10
41.2824
20
176.5949
30
0
11
41.2819
21
176.5957
31
0
0
LINE
8
LUNA
10
41.2819
20
176.5957
30
0
11
41.2815
21
176.5966
31
0
0
LINE
8
LUNA
10
41.2815
20
176.5966
30
0
11
41.2812
21
176.5976
31
0
0
LINE
8
LUNA
10
41.2812
20
176.5976
30
0
11
41.2809
21
176.5986
31
0
0
LINE
8
LUNA
10
41.2809
20
176.5986
30
0
11
41.2808
21
176.5997
31
0
0
LINE
8
LUNA
10
41.2808
20
176.5997
30
0
11
41.2807
21
176.6009
31
0
0
LINE
8
LUNA
10
41.2807
20
176.6009
30
0
11
41.2807
21
176.6022
31
0
0
LINE
8
LUNA
10
41.2807
20
176.6022
30
0
11
41.2808
21
176.6034
31
0
0
LINE
8
LUNA
10
41.2808
20
176.6034
30
0
11
41.2809
21
176.6045
31
0
0
LINE
8
LUNA
10
41.2809
20
176.6045
30
0
11
41.2812
21
176.6056
31
0
0
LINE
8
LUNA
10
41.2812
20
176.6056
30
0
11
41.2815
21
176.6065
31
0
0
LINE
8
LUNA
10
41.2815
20
176.6065
30
0
11
41.2819
21
176.6074
31
0
0
LINE
8
LUNA
10
41.2819
20
176.6074
30
0
11
41.2824
21
176.6082
31
0
0
LINE
8
LUNA
10
41.2824
20
176.6082
30
0
11
41.2829
21
176.6089
31
0
0
LINE
8
LUNA
10
41.2829
20
176.6089
30
0
11
41.2836
21
176.6096
31
0
0
LINE
8
LUNA
10
41.2836
20
176.6096
30
0
11
41.2842
21
176.61
31
0
0
LINE
8
LUNA
10
41.2842
20
176.61
30
0
11
41.2848
21
176.6104
31
0
0
LINE
8
LUNA
10
41.2848
20
176.6104
30
0
11
41.2855
21
176.6105
31
0
0
LINE
8
LUNA
10
41.2855
20
176.6105
30
0
11
41.2861
21
176.6105
31
0
0
LINE
8
LUNA
10
41.2861
20
176.6105
30
0
11
41.2868
21
176.6104
31
0
0
LINE
8
LUNA
10
41.2868
20
176.6104
30
0
11
41.2874
21
176.61
31
0
0
LINE
8
LUNA
10
41.2874
20
176.61
30
0
11
41.288
21
176.6096
31
0
0
LINE
8
LUNA
10
41.288
20
176.6096
30
0
11
41.2887
21
176.6089
31
0
0
LINE
8
LUNA
10
41.2887
20
176.6089
30
0
11
41.2892
21
176.6082
31
0
0
LINE
8
LUNA
10
41.2892
20
176.6082
30
0
11
41.2897
21
176.6074
31
0
0
LINE
8
LUNA
10
41.2897
20
176.6074
30
0
11
41.2901
21
176.6065
31
0
0
LINE
8
LUNA
10
41.2901
20
176.6065
30
0
11
41.2904
21
176.6056
31
0
0
LINE
8
LUNA
10
41.2904
20
176.6056
30
0
11
41.2907
21
176.6045
31
0
0
LINE
8
LUNA
10
41.2907
20
176.6045
30
0
11
41.2908
21
176.6034
31
0
0
LINE
8
LUNA
10
41.2908
20
176.6034
30
0
11
41.2909
21
176.6022
31
0
0
LINE
8
LUNA
10
41.2909
20
176.6022
30
0
11
41.2909
21
176.6009
31
0
0
LINE
8
LUNA
10
41.2909
20
176.6009
30
0
11
41.2908
21
176.5997
31
0
0
LINE
8
LUNA
10
41.2908
20
176.5997
30
0
11
41.2907
21
176.5986
31
0
0
LINE
8
LUNA
10
41.2907
20
176.5986
30
0
11
41.2904
21
176.5976
31
0
0
LINE
8
LUNA
10
41.2904
20
176.5976
30
0
11
41.2901
21
176.5966
31
0
0
LINE
8
LUNA
10
41.2901
20
176.5966
30
0
11
41.2897
21
176.5957
31
0
0
LINE
8
LUNA
10
41.2897
20
176.5957
30
0
11
41.2892
21
176.5949
31
0
0
LINE
8
LUNA
10
41.2892
20
176.5949
30
0
11
41.2887
21
176.5942
31
0
0
LINE
8
LUNA
10
164.6688
20
103.3085
30
0
11
167.6917
21
103.261
31
0
0
LINE
8
LUNA
10
167.6917
20
103.261
30
0
11
168.8295
21
102.9396
31
0
0
LINE
8
LUNA
10
168.8295
20
102.9396
30
0
11
169.028
21
102.7052
31
0
0
LINE
8
LUNA
10
169.028
20
102.7052
30
0
11
165.8853
21
101.2416
31
0
0
LINE
8
LUNA
10
165.8853
20
101.2416
30
0
11
162.8234
21
99.2904
31
0
0
LINE
8
LUNA
10
162.8234
20
99.2904
30
0
11
159.1975
21
96.3547
31
0
0
LINE
8
LUNA
10
159.1975
20
96.3547
30
0
11
155.6656
21
92.8952
31
0
0
LINE
8
LUNA
10
155.6656
20
92.8952
30
0
11
152.8518
21
89.6486
31
0
0
LINE
8
LUNA
10
152.8518
20
89.6486
30
0
11
149.8493
21
85.6687
31
0
0
LINE
8
LUNA
10
149.8493
20
85.6687
30
0
11
147.1754
21
81.5034
31
0
0
LINE
8
LUNA
10
147.1754
20
81.5034
30
0
11
144.3668
21
76.2464
31
0
0
LINE
8
LUNA
10
144.3668
20
76.2464
30
0
11
143.077
21
73.4184
31
0
0
LINE
8
LUNA
10
143.077
20
73.4184
30
0
11
141.4076
21
69.0273
31
0
0
LINE
8
LUNA
10
141.4076
20
69.0273
30
0
11
140.5485
21
66.1178
31
0
0
LINE
8
LUNA
10
140.5485
20
66.1178
30
0
11
139.6914
21
62.132
31
0
0
LINE
8
LUNA
10
139.6914
20
62.132
30
0
11
139.2216
21
58.6539
31
0
0
LINE
8
LUNA
10
139.2216
20
58.6539
30
0
11
139.1472
21
55.2731
31
0
0
LINE
8
LUNA
10
139.1472
20
55.2731
30
0
11
139.4649
21
52.592
31
0
0
LINE
8
LUNA
10
139.4649
20
52.592
30
0
11
139.8469
21
51.1388
31
0
0
LINE
8
LUNA
10
139.8469
20
51.1388
30
0
11
140.7654
21
49.4792
31
0
0
LINE
8
LUNA
10
140.7654
20
49.4792
30
0
11
141.3603
21
48.9372
31
0
0
LINE
8
LUNA
10
141.3603
20
48.9372
30
0
11
142.1667
21
48.5888
31
0
0
LINE
8
LUNA
10
142.1667
20
48.5888
30
0
11
143.2336
21
48.4831
31
0
0
LINE
8
LUNA
10
143.2336
20
48.4831
30
0
11
143.977
21
48.5991
31
0
0
LINE
8
LUNA
10
143.977
20
48.5991
30
0
11
145.113
21
48.9938
31
0
0
LINE
8
LUNA
10
145.113
20
48.9938
30
0
11
146.5357
21
49.8001
31
0
0
LINE
8
LUNA
10
146.5357
20
49.8001
30
0
11
148.3295
21
51.2559
31
0
0
LINE
8
LUNA
10
148.3295
20
51.2559
30
0
11
150.6381
21
53.8976
31
0
0
LINE
8
LUNA
10
150.6381
20
53.8976
30
0
11
153.391
21
58.145
31
0
0
LINE
8
LUNA
10
153.391
20
58.145
30
0
11
154.8929
21
61.137
31
0
0
LINE
8
LUNA
10
154.8929
20
61.137
30
0
11
156.8529
21
66.5085
31
0
0
LINE
8
LUNA
10
156.8529
20
66.5085
30
0
11
157.256
21
68.2628
31
0
0
LINE
8
LUNA
10
157.256
20
68.2628
30
0
11
157.5518
21
70.8047
31
0
0
LINE
8
LUNA
10
157.5518
20
70.8047
30
0
11
157.4478
21
72.2399
31
0
0
LINE
8
LUNA
10
157.4478
20
72.2399
30
0
11
157.0433
21
73.5542
31
0
0
LINE
8
LUNA
10
157.0433
20
73.5542
30
0
11
156.2193
21
74.4578
31
0
0
LINE
8
LUNA
10
156.2193
20
74.4578
30
0
11
155.1512
21
74.831
31
0
0
LINE
8
LUNA
10
155.1512
20
74.831
30
0
11
153.5507
21
74.7432
31
0
0
LINE
8
LUNA
10
153.5507
20
74.7432
30
0
11
152.0875
21
74.2549
31
0
0
LINE
8
LUNA
10
152.0875
20
74.2549
30
0
11
149.9433
21
73.0153
31
0
0
LINE
8
LUNA
10
149.9433
20
73.0153
30
0
11
148.3073
21
71.7151
31
0
0
LINE
8
LUNA
10
148.3073
20
71.7151
30
0
11
146.9916
21
70.3989
31
0
0
LINE
8
LUNA
10
146.9916
20
70.3989
30
0
11
144.9832
21
67.9136
31
0
0
LINE
8
LUNA
10
144.9832
20
67.9136
30
0
11
143.3774
21
65.2851
31
0
0
LINE
8
LUNA
10
143.3774
20
65.2851
30
0
11
142.3247
21
62.6317
31
0
0
LINE
8
LUNA
10
142.3247
20
62.6317
30
0
11
142.132
21
62.562
31
0
0
LINE
8
LUNA
10
142.132
20
62.562
30
0
11
142.019
21
62.764
31
0
0
LINE
8
LUNA
10
142.019
20
62.764
30
0
11
142.0917
21
64.5745
31
0
0
LINE
8
LUNA
10
142.0917
20
64.5745
30
0
11
142.7129
21
67.4893
31
0
0
LINE
8
LUNA
10
142.7129
20
67.4893
30
0
11
143.6655
21
70.1264
31
0
0
LINE
8
LUNA
10
143.6655
20
70.1264
30
0
11
144.761
21
72.1282
31
0
0
LINE
8
LUNA
10
144.761
20
72.1282
30
0
11
146.1957
21
74.1132
31
0
0
LINE
8
LUNA
10
146.1957
20
74.1132
30
0
11
147.7439
21
75.7339
31
0
0
LINE
8
LUNA
10
147.7439
20
75.7339
30
0
11
149.7345
21
77.2613
31
0
0
LINE
8
LUNA
10
149.7345
20
77.2613
30
0
11
152.4734
21
78.5776
31
0
0
LINE
8
LUNA
10
152.4734
20
78.5776
30
0
11
154.6377
21
79.0541
31
0
0
LINE
8
LUNA
10
154.6377
20
79.0541
30
0
11
156.3391
21
79.1341
31
0
0
LINE
8
LUNA
10
156.3391
20
79.1341
30
0
11
157.637
21
78.9639
31
0
0
LINE
8
LUNA
10
157.637
20
78.9639
30
0
11
158.8417
21
78.5752
31
0
0
LINE
8
LUNA
10
158.8417
20
78.5752
30
0
11
159.9222
21
78.0354
31
0
0
LINE
8
LUNA
10
159.9222
20
78.0354
30
0
11
161.0007
21
77.2251
31
0
0
LINE
8
LUNA
10
161.0007
20
77.2251
30
0
11
162.3113
21
75.7247
31
0
0
LINE
8
LUNA
10
162.3113
20
75.7247
30
0
11
162.9795
21
74.5848
31
0
0
LINE
8
LUNA
10
162.9795
20
74.5848
30
0
11
163.5929
21
73.0139
31
0
0
LINE
8
LUNA
10
163.5929
20
73.0139
30
0
11
164.0594
21
70.8844
31
0
0
LINE
8
LUNA
10
164.0594
20
70.8844
30
0
11
164.1394
21
67.3413
31
0
0
LINE
8
LUNA
10
164.1394
20
67.3413
30
0
11
163.3958
21
62.8571
31
0
0
LINE
8
LUNA
10
163.3958
20
62.8571
30
0
11
162.1444
21
59.0686
31
0
0
LINE
8
LUNA
10
162.1444
20
59.0686
30
0
11
159.768
21
54.2119
31
0
0
LINE
8
LUNA
10
159.768
20
54.2119
30
0
11
157.7279
21
51.1763
31
0
0
LINE
8
LUNA
10
157.7279
20
51.1763
30
0
11
155.567
21
48.6106
31
0
0
LINE
8
LUNA
10
155.567
20
48.6106
30
0
11
152.4188
21
45.797
31
0
0
LINE
8
LUNA
10
152.4188
20
45.797
30
0
11
150.4682
21
44.5517
31
0
0
LINE
8
LUNA
10
150.4682
20
44.5517
30
0
11
149.1275
21
43.8961
31
0
0
LINE
8
LUNA
10
149.1275
20
43.8961
30
0
11
146.4045
21
43.0922
31
0
0
LINE
8
LUNA
10
146.4045
20
43.0922
30
0
11
143.1477
21
42.9723
31
0
0
LINE
8
LUNA
10
143.1477
20
42.9723
30
0
11
141.5748
21
43.2345
31
0
0
LINE
8
LUNA
10
141.5748
20
43.2345
30
0
11
140.2795
21
43.6759
31
0
0
LINE
8
LUNA
10
140.2795
20
43.6759
30
0
11
138.9263
21
44.3369
31
0
0
LINE
8
LUNA
10
138.9263
20
44.3369
30
0
11
137.2264
21
45.5016
31
0
0
LINE
8
LUNA
10
137.2264
20
45.5016
30
0
11
136.3253
21
46.3282
31
0
0
LINE
8
LUNA
10
136.3253
20
46.3282
30
0
11
134.9571
21
47.9588
31
0
0
LINE
8
LUNA
10
134.9571
20
47.9588
30
0
11
134.132
21
49.2821
31
0
0
LINE
8
LUNA
10
134.132
20
49.2821
30
0
11
133.253
21
51.1872
31
0
0
LINE
8
LUNA
10
133.253
20
51.1872
30
0
11
132.8244
21
52.4146
31
0
0
LINE
8
LUNA
10
132.8244
20
52.4146
30
0
11
132.351
21
54.7432
31
0
0
LINE
8
LUNA
10
132.351
20
54.7432
30
0
11
132.1294
21
58.54
31
0
0
LINE
8
LUNA
10
132.1294
20
58.54
30
0
11
132.6718
21
64.2012
31
0
0
LINE
8
LUNA
10
132.6718
20
64.2012
30
0
11
133.7386
21
69.2216
31
0
0
LINE
8
LUNA
10
133.7386
20
69.2216
30
0
11
134.9748
21
73.1775
31
0
0
LINE
8
LUNA
10
134.9748
20
73.1775
30
0
11
135.9258
21
75.6282
31
0
0
LINE
8
LUNA
10
135.9258
20
75.6282
30
0
11
138.2171
21
80.561
31
0
0
LINE
8
LUNA
10
138.2171
20
80.561
30
0
11
141.3988
21
85.8119
31
0
0
LINE
8
LUNA
10
141.3988
20
85.8119
30
0
11
145.6268
21
91.3056
31
0
0
LINE
8
LUNA
10
145.6268
20
91.3056
30
0
11
149.1621
21
94.9855
31
0
0
LINE
8
LUNA
10
149.1621
20
94.9855
30
0
11
153.1555
21
98.2878
31
0
0
LINE
8
LUNA
10
153.1555
20
98.2878
30
0
11
157.0051
21
100.7403
31
0
0
LINE
8
LUNA
10
157.0051
20
100.7403
30
0
11
160.726
21
102.4173
31
0
0
LINE
8
LUNA
10
160.726
20
102.4173
30
0
11
162.8485
21
103.0161
31
0
0
LINE
8
LUNA
10
162.8485
20
103.0161
30
0
11
164.6611
21
103.3072
31
0
0
LINE
8
LUNA
10
164.6611
20
103.3072
30
0
11
164.6688
21
103.3085
31
0
0
LINE
8
LUNA
10
59.6102
20
101.733
30
0
11
61.5185
21
101.6898
31
0
0
LINE
8
LUNA
10
61.5185
20
101.6898
30
0
11
62.8686
21
101.4554
31
0
0
LINE
8
LUNA
10
62.8686
20
101.4554
30
0
11
64.8596
21
100.7699
31
0
0
LINE
8
LUNA
10
64.8596
20
100.7699
30
0
11
66.1895
21
100.014
31
0
0
LINE
8
LUNA
10
66.1895
20
100.014
30
0
11
67.4627
21
99.0044
31
0
0
LINE
8
LUNA
10
67.4627
20
99.0044
30
0
11
68.8074
21
97.2697
31
0
0
LINE
8
LUNA
10
68.8074
20
97.2697
30
0
11
69.8596
21
94.8665
31
0
0
LINE
8
LUNA
10
69.8596
20
94.8665
30
0
11
70.3238
21
92.2245
31
0
0
LINE
8
LUNA
10
70.3238
20
92.2245
30
0
11
70.1011
21
89.1742
31
0
0
LINE
8
LUNA
10
70.1011
20
89.1742
30
0
11
69.4337
21
86.5026
31
0
0
LINE
8
LUNA
10
69.4337
20
86.5026
30
0
11
68.1136
21
83.2393
31
0
0
LINE
8
LUNA
10
68.1136
20
83.2393
30
0
11
66.2361
21
79.8443
31
0
0
LINE
8
LUNA
10
66.2361
20
79.8443
30
0
11
64.4997
21
77.1674
31
0
0
LINE
8
LUNA
10
64.4997
20
77.1674
30
0
11
61.3474
21
72.9165
31
0
0
LINE
8
LUNA
10
61.3474
20
72.9165
30
0
11
54.7424
21
65.2344
31
0
0
LINE
8
LUNA
10
54.7424
20
65.2344
30
0
11
42.3987
21
52.341
31
0
0
LINE
8
LUNA
10
42.3987
20
52.341
30
0
11
46.515
21
53.3113
31
0
0
LINE
8
LUNA
10
46.515
20
53.3113
30
0
11
50.4838
21
53.7826
31
0
0
LINE
8
LUNA
10
50.4838
20
53.7826
30
0
11
53.6788
21
53.7818
31
0
0
LINE
8
LUNA
10
53.6788
20
53.7818
30
0
11
55.6149
21
53.5604
31
0
0
LINE
8
LUNA
10
55.6149
20
53.5604
30
0
11
57.9639
21
53.1076
31
0
0
LINE
8
LUNA
10
57.9639
20
53.1076
30
0
11
60.0889
21
52.4485
31
0
0
LINE
8
LUNA
10
60.0889
20
52.4485
30
0
11
62.4205
21
51.4142
31
0
0
LINE
8
LUNA
10
62.4205
20
51.4142
30
0
11
64.4088
21
50.2694
31
0
0
LINE
8
LUNA
10
64.4088
20
50.2694
30
0
11
66.7319
21
48.6
31
0
0
LINE
8
LUNA
10
66.7319
20
48.6
30
0
11
68.0403
21
47.4377
31
0
0
LINE
8
LUNA
10
68.0403
20
47.4377
30
0
11
69.8615
21
45.4722
31
0
0
LINE
8
LUNA
10
69.8615
20
45.4722
30
0
11
70.7339
21
44.2857
31
0
0
LINE
8
LUNA
10
70.7339
20
44.2857
30
0
11
71.6125
21
42.7921
31
0
0
LINE
8
LUNA
10
71.6125
20
42.7921
30
0
11
72.0083
21
41.6664
31
0
0
LINE
8
LUNA
10
72.0083
20
41.6664
30
0
11
71.5877
21
41.6125
31
0
0
LINE
8
LUNA
10
71.5877
20
41.6125
30
0
11
70.3892
21
42.7952
31
0
0
LINE
8
LUNA
10
70.3892
20
42.7952
30
0
11
68.249
21
44.3253
31
0
0
LINE
8
LUNA
10
68.249
20
44.3253
30
0
11
66.5662
21
45.2026
31
0
0
LINE
8
LUNA
10
66.5662
20
45.2026
30
0
11
64.2731
21
46.0875
31
0
0
LINE
8
LUNA
10
64.2731
20
46.0875
30
0
11
61.7023
21
46.7214
31
0
0
LINE
8
LUNA
10
61.7023
20
46.7214
30
0
11
58.7172
21
47.1202
31
0
0
LINE
8
LUNA
10
58.7172
20
47.1202
30
0
11
55.1927
21
47.1938
31
0
0
LINE
8
LUNA
10
55.1927
20
47.1938
30
0
11
52.4837
21
46.9756
31
0
0
LINE
8
LUNA
10
52.4837
20
46.9756
30
0
11
50.2491
21
46.7125
31
0
0
LINE
8
LUNA
10
50.2491
20
46.7125
30
0
11
46.9586
21
46.0195
31
0
0
LINE
8
LUNA
10
46.9586
20
46.0195
30
0
11
41.5192
21
44.3512
31
0
0
LINE
8
LUNA
10
41.5192
20
44.3512
30
0
11
35.3933
21
41.5253
31
0
0
LINE
8
LUNA
10
35.3933
20
41.5253
30
0
11
32.071
21
39.5033
31
0
0
LINE
8
LUNA
10
32.071
20
39.5033
30
0
11
30.0441
21
37.9495
31
0
0
LINE
8
LUNA
10
30.0441
20
37.9495
30
0
11
29.6852
21
37.8795
31
0
0
LINE
8
LUNA
10
29.6852
20
37.8795
30
0
11
27.6032
21
40.373
31
0
0
LINE
8
LUNA
10
27.6032
20
40.373
30
0
11
26.3884
21
42.6404
31
0
0
LINE
8
LUNA
10
26.3884
20
42.6404
30
0
11
26.2126
21
43.6284
31
0
0
LINE
8
LUNA
10
26.2126
20
43.6284
30
0
11
26.2655
21
44.5837
31
0
0
LINE
8
LUNA
10
26.2655
20
44.5837
30
0
11
26.6343
21
45.7098
31
0
0
LINE
8
LUNA
10
26.6343
20
45.7098
30
0
11
27.1664
21
46.6996
31
0
0
LINE
8
LUNA
10
27.1664
20
46.6996
30
0
11
29.4599
21
49.8309
31
0
0
LINE
8
LUNA
10
29.4599
20
49.8309
30
0
11
32.3367
21
53.1398
31
0
0
LINE
8
LUNA
10
32.3367
20
53.1398
30
0
11
48.1539
21
69.8894
31
0
0
LINE
8
LUNA
10
48.1539
20
69.8894
30
0
11
53.8873
21
76.2678
31
0
0
LINE
8
LUNA
10
53.8873
20
76.2678
30
0
11
57.3472
21
80.3542
31
0
0
LINE
8
LUNA
10
57.3472
20
80.3542
30
0
11
60.9841
21
85.2037
31
0
0
LINE
8
LUNA
10
60.9841
20
85.2037
30
0
11
63.0199
21
88.5927
31
0
0
LINE
8
LUNA
10
63.0199
20
88.5927
30
0
11
64.1222
21
91.2769
31
0
0
LINE
8
LUNA
10
64.1222
20
91.2769
30
0
11
64.3771
21
92.7229
31
0
0
LINE
8
LUNA
10
64.3771
20
92.7229
30
0
11
64.3386
21
93.3559
31
0
0
LINE
8
LUNA
10
64.3386
20
93.3559
30
0
11
63.8863
21
94.6134
31
0
0
LINE
8
LUNA
10
63.8863
20
94.6134
30
0
11
63.2462
21
95.2535
31
0
0
LINE
8
LUNA
10
63.2462
20
95.2535
30
0
11
61.7177
21
95.7391
31
0
0
LINE
8
LUNA
10
61.7177
20
95.7391
30
0
11
60.1547
21
95.7458
31
0
0
LINE
8
LUNA
10
60.1547
20
95.7458
30
0
11
58.4988
21
95.4949
31
0
0
LINE
8
LUNA
10
58.4988
20
95.4949
30
0
11
56.4086
21
94.8369
31
0
0
LINE
8
LUNA
10
56.4086
20
94.8369
30
0
11
54.4384
21
93.9605
31
0
0
LINE
8
LUNA
10
54.4384
20
93.9605
30
0
11
51.6881
21
92.3512
31
0
0
LINE
8
LUNA
10
51.6881
20
92.3512
30
0
11
49.422
21
90.6338
31
0
0
LINE
8
LUNA
10
49.422
20
90.6338
30
0
11
47.4603
21
88.8177
31
0
0
LINE
8
LUNA
10
47.4603
20
88.8177
30
0
11
46.1501
21
87.3619
31
0
0
LINE
8
LUNA
10
46.1501
20
87.3619
30
0
11
44.405
21
85.0338
31
0
0
LINE
8
LUNA
10
44.405
20
85.0338
30
0
11
43.5097
21
83.3869
31
0
0
LINE
8
LUNA
10
43.5097
20
83.3869
30
0
11
42.9067
21
81.2685
31
0
0
LINE
8
LUNA
10
42.9067
20
81.2685
30
0
11
43.0454
21
80.3074
31
0
0
LINE
8
LUNA
10
43.0454
20
80.3074
30
0
11
43.7345
21
79.6089
31
0
0
LINE
8
LUNA
10
43.7345
20
79.6089
30
0
11
43.7081
21
79.3124
31
0
0
LINE
8
LUNA
10
43.7081
20
79.3124
30
0
11
43.4508
21
79.1668
31
0
0
LINE
8
LUNA
10
43.4508
20
79.1668
30
0
11
41.871
21
79.2225
31
0
0
LINE
8
LUNA
10
41.871
20
79.2225
30
0
11
40.5986
21
79.8031
31
0
0
LINE
8
LUNA
10
40.5986
20
79.8031
30
0
11
39.7685
21
80.5127
31
0
0
LINE
8
LUNA
10
39.7685
20
80.5127
30
0
11
38.8547
21
82.1144
31
0
0
LINE
8
LUNA
10
38.8547
20
82.1144
30
0
11
38.5309
21
83.7242
31
0
0
LINE
8
LUNA
10
38.5309
20
83.7242
30
0
11
38.6065
21
85.6851
31
0
0
LINE
8
LUNA
10
38.6065
20
85.6851
30
0
11
38.8555
21
86.7878
31
0
0
LINE
8
LUNA
10
38.8555
20
86.7878
30
0
11
39.6737
21
88.9058
31
0
0
LINE
8
LUNA
10
39.6737
20
88.9058
30
0
11
40.9272
21
91.0451
31
0
0
LINE
8
LUNA
10
40.9272
20
91.0451
30
0
11
43.0115
21
93.6067
31
0
0
LINE
8
LUNA
10
43.0115
20
93.6067
30
0
11
45.3351
21
95.7859
31
0
0
LINE
8
LUNA
10
45.3351
20
95.7859
30
0
11
47.5452
21
97.443
31
0
0
LINE
8
LUNA
10
47.5452
20
97.443
30
0
11
51.0886
21
99.4676
31
0
0
LINE
8
LUNA
10
51.0886
20
99.4676
30
0
11
53.942
21
100.6246
31
0
0
LINE
8
LUNA
10
53.942
20
100.6246
30
0
11
57.0067
21
101.454
31
0
0
LINE
8
LUNA
10
57.0067
20
101.454
30
0
11
59.6025
21
101.7317
31
0
0
LINE
8
LUNA
10
59.6025
20
101.7317
30
0
11
59.6102
21
101.733
31
0
0
LINE
8
LUNA
10
58.894
20
101.5181
30
0
11
61.0417
21
101.5442
31
0
0
LINE
8
LUNA
10
61.0417
20
101.5442
30
0
11
64.0305
21
100.9165
31
0
0
LINE
8
LUNA
10
64.0305
20
100.9165
30
0
11
66.2102
21
99.802
31
0
0
LINE
8
LUNA
10
66.2102
20
99.802
30
0
11
67.0469
21
99.1347
31
0
0
LINE
8
LUNA
10
67.0469
20
99.1347
30
0
11
68.2135
21
97.8485
31
0
0
LINE
8
LUNA
10
68.2135
20
97.8485
30
0
11
69.3471
21
95.7595
31
0
0
LINE
8
LUNA
10
69.3471
20
95.7595
30
0
11
70.0347
21
93.0453
31
0
0
LINE
8
LUNA
10
70.0347
20
93.0453
30
0
11
70.0338
21
90.0651
31
0
0
LINE
8
LUNA
10
70.0338
20
90.0651
30
0
11
69.3314
21
86.7481
31
0
0
LINE
8
LUNA
10
69.3314
20
86.7481
30
0
11
68.0215
21
83.4746
31
0
0
LINE
8
LUNA
10
68.0215
20
83.4746
30
0
11
66.0928
21
79.9159
31
0
0
LINE
8
LUNA
10
66.0928
20
79.9159
30
0
11
63.845
21
76.5331
31
0
0
LINE
8
LUNA
10
63.845
20
76.5331
30
0
11
61.1326
21
72.9165
31
0
0
LINE
8
LUNA
10
61.1326
20
72.9165
30
0
11
54.4559
21
65.1628
31
0
0
LINE
8
LUNA
10
54.4559
20
65.1628
30
0
11
42.1258
21
52.3921
31
0
0
LINE
8
LUNA
10
42.1258
20
52.3921
30
0
11
42.0128
21
52.1188
31
0
0
LINE
8
LUNA
10
42.0128
20
52.1188
30
0
11
42.1781
21
52.0389
31
0
0
LINE
8
LUNA
10
42.1781
20
52.0389
30
0
11
44.7386
21
52.7513
31
0
0
LINE
8
LUNA
10
44.7386
20
52.7513
30
0
11
47.1365
21
53.2
31
0
0
LINE
8
LUNA
10
47.1365
20
53.2
30
0
11
51.6836
21
53.6391
31
0
0
LINE
8
LUNA
10
51.6836
20
53.6391
30
0
11
55.2646
21
53.4161
31
0
0
LINE
8
LUNA
10
55.2646
20
53.4161
30
0
11
59.2945
21
52.5224
31
0
0
LINE
8
LUNA
10
59.2945
20
52.5224
30
0
11
61.4058
21
51.7065
31
0
0
LINE
8
LUNA
10
61.4058
20
51.7065
30
0
11
63.7373
21
50.4841
31
0
0
LINE
8
LUNA
10
63.7373
20
50.4841
30
0
11
65.3406
21
49.4467
31
0
0
LINE
8
LUNA
10
65.3406
20
49.4467
30
0
11
67.2431
21
47.9474
31
0
0
LINE
8
LUNA
10
67.2431
20
47.9474
30
0
11
68.3449
21
46.9187
31
0
0
LINE
8
LUNA
10
68.3449
20
46.9187
30
0
11
70.0717
21
44.9305
31
0
0
LINE
8
LUNA
10
70.0717
20
44.9305
30
0
11
71.2556
21
43.1065
31
0
0
LINE
8
LUNA
10
71.2556
20
43.1065
30
0
11
71.7848
21
41.8394
31
0
0
LINE
8
LUNA
10
71.7848
20
41.8394
30
0
11
69.3613
21
43.7994
31
0
0
LINE
8
LUNA
10
69.3613
20
43.7994
30
0
11
67.7375
21
44.8163
31
0
0
LINE
8
LUNA
10
67.7375
20
44.8163
30
0
11
65.8886
21
45.6888
31
0
0
LINE
8
LUNA
10
65.8886
20
45.6888
30
0
11
63.704
21
46.4314
31
0
0
LINE
8
LUNA
10
63.704
20
46.4314
30
0
11
59.2985
21
47.2627
31
0
0
LINE
8
LUNA
10
59.2985
20
47.2627
30
0
11
53.2714
21
47.262
31
0
0
LINE
8
LUNA
10
53.2714
20
47.262
30
0
11
51.2185
21
47.0412
31
0
0
LINE
8
LUNA
10
51.2185
20
47.0412
30
0
11
47.6134
21
46.3673
31
0
0
LINE
8
LUNA
10
47.6134
20
46.3673
30
0
11
44.5806
21
45.5597
31
0
0
LINE
8
LUNA
10
44.5806
20
45.5597
30
0
11
41.3964
21
44.4739
31
0
0
LINE
8
LUNA
10
41.3964
20
44.4739
30
0
11
37.4223
21
42.7547
31
0
0
LINE
8
LUNA
10
37.4223
20
42.7547
30
0
11
34.6157
21
41.3002
31
0
0
LINE
8
LUNA
10
34.6157
20
41.3002
30
0
11
32.2805
21
39.8578
31
0
0
LINE
8
LUNA
10
32.2805
20
39.8578
30
0
11
29.9677
21
38.1065
31
0
0
LINE
8
LUNA
10
29.9677
20
38.1065
30
0
11
29.7325
21
38.0811
31
0
0
LINE
8
LUNA
10
29.7325
20
38.0811
30
0
11
27.46
21
40.8743
31
0
0
LINE
8
LUNA
10
27.46
20
40.8743
30
0
11
26.5501
21
42.8111
31
0
0
LINE
8
LUNA
10
26.5501
20
42.8111
30
0
11
26.4259
21
43.5999
31
0
0
LINE
8
LUNA
10
26.4259
20
43.5999
30
0
11
26.5244
21
44.9156
31
0
0
LINE
8
LUNA
10
26.5244
20
44.9156
30
0
11
27.4528
21
46.8428
31
0
0
LINE
8
LUNA
10
27.4528
20
46.8428
30
0
11
29.3923
21
49.4778
31
0
0
LINE
8
LUNA
10
29.3923
20
49.4778
30
0
11
32.7664
21
53.3546
31
0
0
LINE
8
LUNA
10
32.7664
20
53.3546
30
0
11
48.4403
21
69.961
31
0
0
LINE
8
LUNA
10
48.4403
20
69.961
30
0
11
54.1021
21
76.2678
31
0
0
LINE
8
LUNA
10
54.1021
20
76.2678
30
0
11
57.9099
21
80.7941
31
0
0
LINE
8
LUNA
10
57.9099
20
80.7941
30
0
11
60.8408
21
84.7024
31
0
0
LINE
8
LUNA
10
60.8408
20
84.7024
30
0
11
62.9514
21
88.0972
31
0
0
LINE
8
LUNA
10
62.9514
20
88.0972
30
0
11
64.2552
21
91.1439
31
0
0
LINE
8
LUNA
10
64.2552
20
91.1439
30
0
11
64.5211
21
92.5162
31
0
0
LINE
8
LUNA
10
64.5211
20
92.5162
30
0
11
64.4701
21
93.568
31
0
0
LINE
8
LUNA
10
64.4701
20
93.568
30
0
11
64.1351
21
94.5489
31
0
0
LINE
8
LUNA
10
64.1351
20
94.5489
30
0
11
63.6765
21
95.1287
31
0
0
LINE
8
LUNA
10
63.6765
20
95.1287
30
0
11
63.1264
21
95.5186
31
0
0
LINE
8
LUNA
10
63.1264
20
95.5186
30
0
11
61.8294
21
95.8867
31
0
0
LINE
8
LUNA
10
61.8294
20
95.8867
30
0
11
59.9316
21
95.8883
31
0
0
LINE
8
LUNA
10
59.9316
20
95.8883
30
0
11
58.1162
21
95.5732
31
0
0
LINE
8
LUNA
10
58.1162
20
95.5732
30
0
11
56.071
21
94.888
31
0
0
LINE
8
LUNA
10
56.071
20
94.888
30
0
11
53.3685
21
93.5891
31
0
0
LINE
8
LUNA
10
53.3685
20
93.5891
30
0
11
51.3914
21
92.3615
31
0
0
LINE
8
LUNA
10
51.3914
20
92.3615
30
0
11
48.9158
21
90.4149
31
0
0
LINE
8
LUNA
10
48.9158
20
90.4149
30
0
11
46.8874
21
88.4597
31
0
0
LINE
8
LUNA
10
46.8874
20
88.4597
30
0
11
44.2072
21
85.0079
31
0
0
LINE
8
LUNA
10
44.2072
20
85.0079
30
0
11
43.1746
21
83.0147
31
0
0
LINE
8
LUNA
10
43.1746
20
83.0147
30
0
11
42.7623
21
81.4756
31
0
0
LINE
8
LUNA
10
42.7623
20
81.4756
30
0
11
42.7881
21
80.4529
31
0
0
LINE
8
LUNA
10
42.7881
20
80.4529
30
0
11
43.036
21
79.9757
31
0
0
LINE
8
LUNA
10
43.036
20
79.9757
30
0
11
43.4896
21
79.5788
31
0
0
LINE
8
LUNA
10
43.4896
20
79.5788
30
0
11
43.3676
21
79.3574
31
0
0
LINE
8
LUNA
10
43.3676
20
79.3574
30
0
11
42.0646
21
79.3803
31
0
0
LINE
8
LUNA
10
42.0646
20
79.3803
30
0
11
40.9575
21
79.7861
31
0
0
LINE
8
LUNA
10
40.9575
20
79.7861
30
0
11
39.9278
21
80.5646
31
0
0
LINE
8
LUNA
10
39.9278
20
80.5646
30
0
11
39.1592
21
81.8549
31
0
0
LINE
8
LUNA
10
39.1592
20
81.8549
30
0
11
38.7497
21
83.4686
31
0
0
LINE
8
LUNA
10
38.7497
20
83.4686
30
0
11
38.7471
21
85.2312
31
0
0
LINE
8
LUNA
10
38.7471
20
85.2312
30
0
11
39.1582
21
87.1833
31
0
0
LINE
8
LUNA
10
39.1582
20
87.1833
30
0
11
39.8067
21
88.7728
31
0
0
LINE
8
LUNA
10
39.8067
20
88.7728
30
0
11
41.2852
21
91.2599
31
0
0
LINE
8
LUNA
10
41.2852
20
91.2599
30
0
11
43.3696
21
93.75
31
0
0
LINE
8
LUNA
10
43.3696
20
93.75
30
0
11
45.698
21
95.8616
31
0
0
LINE
8
LUNA
10
45.698
20
95.8616
30
0
11
47.5398
21
97.2246
31
0
0
LINE
8
LUNA
10
47.5398
20
97.2246
30
0
11
49.3683
21
98.377
31
0
0
LINE
8
LUNA
10
49.3683
20
98.377
30
0
11
52.3497
21
99.8447
31
0
0
LINE
8
LUNA
10
52.3497
20
99.8447
30
0
11
55.5656
21
100.9256
31
0
0
LINE
8
LUNA
10
55.5656
20
100.9256
30
0
11
58.8864
21
101.5169
31
0
0
LINE
8
LUNA
10
58.8864
20
101.5169
30
0
11
58.894
21
101.5181
31
0
0
LINE
8
LUNA
10
90.8341
20
100.6588
30
0
11
92.1143
21
100.6857
31
0
0
LINE
8
LUNA
10
92.1143
20
100.6857
30
0
11
93.8975
21
100.3562
31
0
0
LINE
8
LUNA
10
93.8975
20
100.3562
30
0
11
96.0467
21
99.3186
31
0
0
LINE
8
LUNA
10
96.0467
20
99.3186
30
0
11
97.5408
21
98.1451
31
0
0
LINE
8
LUNA
10
97.5408
20
98.1451
30
0
11
98.7891
21
96.6362
31
0
0
LINE
8
LUNA
10
98.7891
20
96.6362
30
0
11
99.5331
21
95.4466
31
0
0
LINE
8
LUNA
10
99.5331
20
95.4466
30
0
11
100.1261
21
94.2582
31
0
0
LINE
8
LUNA
10
100.1261
20
94.2582
30
0
11
101.0099
21
91.794
31
0
0
LINE
8
LUNA
10
101.0099
20
91.794
30
0
11
101.6898
21
87.8727
31
0
0
LINE
8
LUNA
10
101.6898
20
87.8727
30
0
11
101.7635
21
82.3173
31
0
0
LINE
8
LUNA
10
101.7635
20
82.3173
30
0
11
101.2557
21
76.8721
31
0
0
LINE
8
LUNA
10
101.2557
20
76.8721
30
0
11
100.1413
21
70.834
31
0
0
LINE
8
LUNA
10
100.1413
20
70.834
30
0
11
98.8593
21
65.8945
31
0
0
LINE
8
LUNA
10
98.8593
20
65.8945
30
0
11
96.6833
21
60.0587
31
0
0
LINE
8
LUNA
10
96.6833
20
60.0587
30
0
11
94.1076
21
54.8462
31
0
0
LINE
8
LUNA
10
94.1076
20
54.8462
30
0
11
91.0675
21
50.2147
31
0
0
LINE
8
LUNA
10
91.0675
20
50.2147
30
0
11
88.0924
21
46.8787
31
0
0
LINE
8
LUNA
10
88.0924
20
46.8787
30
0
11
86.1191
21
45.2892
31
0
0
LINE
8
LUNA
10
86.1191
20
45.2892
30
0
11
85.0566
21
44.624
31
0
0
LINE
8
LUNA
10
85.0566
20
44.624
30
0
11
83.2002
21
43.7948
31
0
0
LINE
8
LUNA
10
83.2002
20
43.7948
30
0
11
80.9104
21
43.3364
31
0
0
LINE
8
LUNA
10
80.9104
20
43.3364
30
0
11
79.6972
21
43.3304
31
0
0
LINE
8
LUNA
10
79.6972
20
43.3304
30
0
11
78.3331
21
43.5687
31
0
0
LINE
8
LUNA
10
78.3331
20
43.5687
30
0
11
76.9597
21
43.9678
31
0
0
LINE
8
LUNA
10
76.9597
20
43.9678
30
0
11
74.9689
21
45.0564
31
0
0
LINE
8
LUNA
10
74.9689
20
45.0564
30
0
11
72.9464
21
46.9011
31
0
0
LINE
8
LUNA
10
72.9464
20
46.9011
30
0
11
71.551
21
48.8626
31
0
0
LINE
8
LUNA
10
71.551
20
48.8626
30
0
11
70.6875
21
50.622
31
0
0
LINE
8
LUNA
10
70.6875
20
50.622
30
0
11
69.9914
21
52.5846
31
0
0
LINE
8
LUNA
10
69.9914
20
52.5846
30
0
11
69.3265
21
55.7779
31
0
0
LINE
8
LUNA
10
69.3265
20
55.7779
30
0
11
69.1086
21
58.335
31
0
0
LINE
8
LUNA
10
69.1086
20
58.335
30
0
11
69.1083
21
62.3268
31
0
0
LINE
8
LUNA
10
69.1083
20
62.3268
30
0
11
69.545
21
67.2881
31
0
0
LINE
8
LUNA
10
69.545
20
67.2881
30
0
11
70.4242
21
72.2724
31
0
0
LINE
8
LUNA
10
70.4242
20
72.2724
30
0
11
71.9393
21
77.7575
31
0
0
LINE
8
LUNA
10
71.9393
20
77.7575
30
0
11
73.4805
21
82.0798
31
0
0
LINE
8
LUNA
10
73.4805
20
82.0798
30
0
11
76.0659
21
87.569
31
0
0
LINE
8
LUNA
10
76.0659
20
87.569
30
0
11
79.0773
21
92.3546
31
0
0
LINE
8
LUNA
10
79.0773
20
92.3546
30
0
11
81.6921
21
95.5495
31
0
0
LINE
8
LUNA
10
81.6921
20
95.5495
30
0
11
83.7921
21
97.5047
31
0
0
LINE
8
LUNA
10
83.7921
20
97.5047
30
0
11
85.045
21
98.445
31
0
0
LINE
8
LUNA
10
85.045
20
98.445
30
0
11
86.4603
21
99.3214
31
0
0
LINE
8
LUNA
10
86.4603
20
99.3214
30
0
11
88.2798
21
100.1516
31
0
0
LINE
8
LUNA
10
88.2798
20
100.1516
30
0
11
89.8881
21
100.5844
31
0
0
LINE
8
LUNA
10
89.8881
20
100.5844
30
0
11
90.8265
21
100.6575
31
0
0
LINE
8
LUNA
10
90.8265
20
100.6575
30
0
11
90.8341
21
100.6588
31
0
0
LINE
8
LUNA
10
122.2013
20
100.6588
30
0
11
123.6166
21
100.6865
31
0
0
LINE
8
LUNA
10
123.6166
20
100.6865
30
0
11
125.446
21
100.3674
31
0
0
LINE
8
LUNA
10
125.446
20
100.3674
30
0
11
127.0944
21
99.6794
31
0
0
LINE
8
LUNA
10
127.0944
20
99.6794
30
0
11
128.4331
21
98.7891
31
0
0
LINE
8
LUNA
10
128.4331
20
98.7891
30
0
11
129.4978
21
97.8218
31
0
0
LINE
8
LUNA
10
129.4978
20
97.8218
30
0
11
130.6139
21
96.4314
31
0
0
LINE
8
LUNA
10
130.6139
20
96.4314
30
0
11
132.1555
21
93.318
31
0
0
LINE
8
LUNA
10
132.1555
20
93.318
30
0
11
133.0503
21
89.8622
31
0
0
LINE
8
LUNA
10
133.0503
20
89.8622
30
0
11
133.418
21
85.5123
31
0
0
LINE
8
LUNA
10
133.418
20
85.5123
30
0
11
133.2711
21
80.485
31
0
0
LINE
8
LUNA
10
133.2711
20
80.485
30
0
11
132.8367
21
76.721
31
0
0
LINE
8
LUNA
10
132.8367
20
76.721
30
0
11
132.1751
21
72.8261
31
0
0
LINE
8
LUNA
10
132.1751
20
72.8261
30
0
11
130.4456
21
66.0514
31
0
0
LINE
8
LUNA
10
130.4456
20
66.0514
30
0
11
128.6901
21
61.1557
31
0
0
LINE
8
LUNA
10
128.6901
20
61.1557
30
0
11
126.542
21
56.5093
31
0
0
LINE
8
LUNA
10
126.542
20
56.5093
30
0
11
123.578
21
51.5957
31
0
0
LINE
8
LUNA
10
123.578
20
51.5957
30
0
11
122.2158
21
49.78
31
0
0
LINE
8
LUNA
10
122.2158
20
49.78
30
0
11
120.261
21
47.608
31
0
0
LINE
8
LUNA
10
120.261
20
47.608
30
0
11
119.0155
21
46.4365
31
0
0
LINE
8
LUNA
10
119.0155
20
46.4365
30
0
11
117.4595
21
45.2712
31
0
0
LINE
8
LUNA
10
117.4595
20
45.2712
30
0
11
116.1254
21
44.4747
31
0
0
LINE
8
LUNA
10
116.1254
20
44.4747
30
0
11
114.389
21
43.7852
31
0
0
LINE
8
LUNA
10
114.389
20
43.7852
30
0
11
113.1991
21
43.5429
31
0
0
LINE
8
LUNA
10
113.1991
20
43.5429
30
0
11
110.5056
21
43.5773
31
0
0
LINE
8
LUNA
10
110.5056
20
43.5773
30
0
11
108.7849
21
44.014
31
0
0
LINE
8
LUNA
10
108.7849
20
44.014
30
0
11
107.2797
21
44.6751
31
0
0
LINE
8
LUNA
10
107.2797
20
44.6751
30
0
11
105.0986
21
46.3613
31
0
0
LINE
8
LUNA
10
105.0986
20
46.3613
30
0
11
104.4364
21
47.0687
31
0
0
LINE
8
LUNA
10
104.4364
20
47.0687
30
0
11
103.1222
21
48.9681
31
0
0
LINE
8
LUNA
10
103.1222
20
48.9681
30
0
11
101.8005
21
51.9434
31
0
0
LINE
8
LUNA
10
101.8005
20
51.9434
30
0
11
101.1554
21
54.4314
31
0
0
LINE
8
LUNA
10
101.1554
20
54.4314
30
0
11
100.9093
21
56.0562
31
0
0
LINE
8
LUNA
10
100.9093
20
56.0562
30
0
11
100.6906
21
58.4066
31
0
0
LINE
8
LUNA
10
100.6906
20
58.4066
30
0
11
100.6902
21
62.4613
31
0
0
LINE
8
LUNA
10
100.6902
20
62.4613
30
0
11
101.1271
21
67.1448
31
0
0
LINE
8
LUNA
10
101.1271
20
67.1448
30
0
11
102.0046
21
72.1934
31
0
0
LINE
8
LUNA
10
102.0046
20
72.1934
30
0
11
103.5214
21
77.7575
31
0
0
LINE
8
LUNA
10
103.5214
20
77.7575
30
0
11
105.482
21
83.2359
31
0
0
LINE
8
LUNA
10
105.482
20
83.2359
30
0
11
108.006
21
88.4283
31
0
0
LINE
8
LUNA
10
108.006
20
88.4283
30
0
11
110.5979
21
92.4876
31
0
0
LINE
8
LUNA
10
110.5979
20
92.4876
30
0
11
113.0593
21
95.4779
31
0
0
LINE
8
LUNA
10
113.0593
20
95.4779
30
0
11
115.1545
21
97.5005
31
0
0
LINE
8
LUNA
10
115.1545
20
97.5005
30
0
11
116.6168
21
98.5985
31
0
0
LINE
8
LUNA
10
116.6168
20
98.5985
30
0
11
117.8334
21
99.3244
31
0
0
LINE
8
LUNA
10
117.8334
20
99.3244
30
0
11
119.6572
21
100.1414
31
0
0
LINE
8
LUNA
10
119.6572
20
100.1414
30
0
11
122.1937
21
100.6575
31
0
0
LINE
8
LUNA
10
122.1937
20
100.6575
30
0
11
122.2013
21
100.6588
31
0
0
LINE
8
LUNA
10
91.3354
20
100.5155
30
0
11
92.6552
21
100.4657
31
0
0
LINE
8
LUNA
10
92.6552
20
100.4657
30
0
11
94.1802
21
100.0571
31
0
0
LINE
8
LUNA
10
94.1802
20
100.0571
30
0
11
95.8319
21
99.247
31
0
0
LINE
8
LUNA
10
95.8319
20
99.247
30
0
11
97.1205
21
98.2797
31
0
0
LINE
8
LUNA
10
97.1205
20
98.2797
30
0
11
98.3044
21
97.0199
31
0
0
LINE
8
LUNA
10
98.3044
20
97.0199
30
0
11
99.3969
21
95.3193
31
0
0
LINE
8
LUNA
10
99.3969
20
95.3193
30
0
11
100.0571
21
93.9654
31
0
0
LINE
8
LUNA
10
100.0571
20
93.9654
30
0
11
100.8727
21
91.5583
31
0
0
LINE
8
LUNA
10
100.8727
20
91.5583
30
0
11
101.4027
21
88.6687
31
0
0
LINE
8
LUNA
10
101.4027
20
88.6687
30
0
11
101.6203
21
85.7621
31
0
0
LINE
8
LUNA
10
101.6203
20
85.7621
30
0
11
101.6199
21
83.0249
31
0
0
LINE
8
LUNA
10
101.6199
20
83.0249
30
0
11
100.9682
21
76.2914
31
0
0
LINE
8
LUNA
10
100.9682
20
76.2914
30
0
11
99.64
21
69.4733
31
0
0
LINE
8
LUNA
10
99.64
20
69.4733
30
0
11
98.3558
21
64.9568
31
0
0
LINE
8
LUNA
10
98.3558
20
64.9568
30
0
11
97.0493
21
61.3667
31
0
0
LINE
8
LUNA
10
97.0493
20
61.3667
30
0
11
95.9541
21
58.8453
31
0
0
LINE
8
LUNA
10
95.9541
20
58.8453
30
0
11
93.4496
21
54.063
31
0
0
LINE
8
LUNA
10
93.4496
20
54.063
30
0
11
90.5622
21
49.8517
31
0
0
LINE
8
LUNA
10
90.5622
20
49.8517
30
0
11
87.5148
21
46.588
31
0
0
LINE
8
LUNA
10
87.5148
20
46.588
30
0
11
84.8256
21
44.7028
31
0
0
LINE
8
LUNA
10
84.8256
20
44.7028
30
0
11
83.4966
21
44.0982
31
0
0
LINE
8
LUNA
10
83.4966
20
44.0982
30
0
11
82.0562
21
43.6945
31
0
0
LINE
8
LUNA
10
82.0562
20
43.6945
30
0
11
79.9174
21
43.5417
31
0
0
LINE
8
LUNA
10
79.9174
20
43.5417
30
0
11
78.5479
21
43.7119
31
0
0
LINE
8
LUNA
10
78.5479
20
43.7119
30
0
11
75.9873
21
44.6335
31
0
0
LINE
8
LUNA
10
75.9873
20
44.6335
30
0
11
74.2056
21
45.8596
31
0
0
LINE
8
LUNA
10
74.2056
20
45.8596
30
0
11
73.2329
21
46.8295
31
0
0
LINE
8
LUNA
10
73.2329
20
46.8295
30
0
11
72.1439
21
48.2559
31
0
0
LINE
8
LUNA
10
72.1439
20
48.2559
30
0
11
71.2615
21
49.7996
31
0
0
LINE
8
LUNA
10
71.2615
20
49.7996
30
0
11
70.0816
21
53.0418
31
0
0
LINE
8
LUNA
10
70.0816
20
53.0418
30
0
11
69.469
21
56.4307
31
0
0
LINE
8
LUNA
10
69.469
20
56.4307
30
0
11
69.3234
21
61.9775
31
0
0
LINE
8
LUNA
10
69.3234
20
61.9775
30
0
11
69.4697
21
64.6778
31
0
0
LINE
8
LUNA
10
69.4697
20
64.6778
30
0
11
69.9031
21
68.3623
31
0
0
LINE
8
LUNA
10
69.9031
20
68.3623
30
0
11
70.7822
21
72.9169
31
0
0
LINE
8
LUNA
10
70.7822
20
72.9169
30
0
11
72.2916
21
78.2826
31
0
0
LINE
8
LUNA
10
72.2916
20
78.2826
30
0
11
74.4858
21
83.948
31
0
0
LINE
8
LUNA
10
74.4858
20
83.948
30
0
11
76.9898
21
88.874
31
0
0
LINE
8
LUNA
10
76.9898
20
88.874
30
0
11
79.388
21
92.4826
31
0
0
LINE
8
LUNA
10
79.388
20
92.4826
30
0
11
82.0649
21
95.687
31
0
0
LINE
8
LUNA
10
82.0649
20
95.687
30
0
11
85.3469
21
98.4385
31
0
0
LINE
8
LUNA
10
85.3469
20
98.4385
30
0
11
86.6913
21
99.2425
31
0
0
LINE
8
LUNA
10
86.6913
20
99.2425
30
0
11
88.4464
21
100.0029
31
0
0
LINE
8
LUNA
10
88.4464
20
100.0029
30
0
11
90.2101
21
100.4235
31
0
0
LINE
8
LUNA
10
90.2101
20
100.4235
30
0
11
91.3278
21
100.5143
31
0
0
LINE
8
LUNA
10
91.3278
20
100.5143
30
0
11
91.3354
21
100.5155
31
0
0
LINE
8
LUNA
10
122.9175
20
100.5155
30
0
11
124.094
21
100.4657
31
0
0
LINE
8
LUNA
10
124.094
20
100.4657
30
0
11
125.8208
21
100.062
31
0
0
LINE
8
LUNA
10
125.8208
20
100.062
30
0
11
127.48
21
99.2504
31
0
0
LINE
8
LUNA
10
127.48
20
99.2504
30
0
11
128.6216
21
98.4315
31
0
0
LINE
8
LUNA
10
128.6216
20
98.4315
30
0
11
129.7353
21
97.3163
31
0
0
LINE
8
LUNA
10
129.7353
20
97.3163
30
0
11
130.904
21
95.6115
31
0
0
LINE
8
LUNA
10
130.904
20
95.6115
30
0
11
131.6237
21
94.1827
31
0
0
LINE
8
LUNA
10
131.6237
20
94.1827
30
0
11
132.2952
21
92.2851
31
0
0
LINE
8
LUNA
10
132.2952
20
92.2851
30
0
11
132.8649
21
89.6858
31
0
0
LINE
8
LUNA
10
132.8649
20
89.6858
30
0
11
133.1279
21
87.4512
31
0
0
LINE
8
LUNA
10
133.1279
20
87.4512
30
0
11
133.2029
21
82.6927
31
0
0
LINE
8
LUNA
10
133.2029
20
82.6927
30
0
11
132.6956
21
77.0949
31
0
0
LINE
8
LUNA
10
132.6956
20
77.0949
30
0
11
131.8564
21
72.2765
31
0
0
LINE
8
LUNA
10
131.8564
20
72.2765
30
0
11
130.3514
21
66.4231
31
0
0
LINE
8
LUNA
10
130.3514
20
66.4231
30
0
11
128.4113
21
60.9243
31
0
0
LINE
8
LUNA
10
128.4113
20
60.9243
30
0
11
126.9092
21
57.6013
31
0
0
LINE
8
LUNA
10
126.9092
20
57.6013
30
0
11
125.6078
21
55.1429
31
0
0
LINE
8
LUNA
10
125.6078
20
55.1429
30
0
11
124.3052
21
52.9723
31
0
0
LINE
8
LUNA
10
124.3052
20
52.9723
30
0
11
122.5102
21
50.4346
31
0
0
LINE
8
LUNA
10
122.5102
20
50.4346
30
0
11
121.0575
21
48.6914
31
0
0
LINE
8
LUNA
10
121.0575
20
48.6914
30
0
11
119.1731
21
46.8071
31
0
0
LINE
8
LUNA
10
119.1731
20
46.8071
30
0
11
117.8289
21
45.7254
31
0
0
LINE
8
LUNA
10
117.8289
20
45.7254
30
0
11
116.2908
21
44.757
31
0
0
LINE
8
LUNA
10
116.2908
20
44.757
30
0
11
114.2025
21
43.9359
31
0
0
LINE
8
LUNA
10
114.2025
20
43.9359
30
0
11
112.6917
21
43.6922
31
0
0
LINE
8
LUNA
10
112.6917
20
43.6922
30
0
11
111.1609
21
43.6866
31
0
0
LINE
8
LUNA
10
111.1609
20
43.6866
30
0
11
109.9253
21
43.8654
31
0
0
LINE
8
LUNA
10
109.9253
20
43.8654
30
0
11
108.4891
21
44.3179
31
0
0
LINE
8
LUNA
10
108.4891
20
44.3179
30
0
11
107.1294
21
44.9814
31
0
0
LINE
8
LUNA
10
107.1294
20
44.9814
30
0
11
106.1407
21
45.6488
31
0
0
LINE
8
LUNA
10
106.1407
20
45.6488
30
0
11
104.8149
21
46.9011
31
0
0
LINE
8
LUNA
10
104.8149
20
46.9011
30
0
11
103.1433
21
49.3026
31
0
0
LINE
8
LUNA
10
103.1433
20
49.3026
30
0
11
102.3257
21
51.0542
31
0
0
LINE
8
LUNA
10
102.3257
20
51.0542
30
0
11
101.7148
21
52.8781
31
0
0
LINE
8
LUNA
10
101.7148
20
52.8781
30
0
11
101.0526
21
56.4859
31
0
0
LINE
8
LUNA
10
101.0526
20
56.4859
30
0
11
100.8338
21
61.0465
31
0
0
LINE
8
LUNA
10
100.8338
20
61.0465
30
0
11
101.0518
21
64.6778
31
0
0
LINE
8
LUNA
10
101.0518
20
64.6778
30
0
11
101.4841
21
68.2111
31
0
0
LINE
8
LUNA
10
101.4841
20
68.2111
30
0
11
102.3233
21
72.6714
31
0
0
LINE
8
LUNA
10
102.3233
20
72.6714
30
0
11
103.8283
21
78.1668
31
0
0
LINE
8
LUNA
10
103.8283
20
78.1668
30
0
11
105.3387
21
82.4481
31
0
0
LINE
8
LUNA
10
105.3387
20
82.4481
30
0
11
108.006
21
88.0703
31
0
0
LINE
8
LUNA
10
108.006
20
88.0703
30
0
11
110.3971
21
91.9096
31
0
0
LINE
8
LUNA
10
110.3971
20
91.9096
30
0
11
113.1981
21
95.4017
31
0
0
LINE
8
LUNA
10
113.1981
20
95.4017
30
0
11
114.51
21
96.7128
31
0
0
LINE
8
LUNA
10
114.51
20
96.7128
30
0
11
116.489
21
98.3055
31
0
0
LINE
8
LUNA
10
116.489
20
98.3055
30
0
11
119.3941
21
99.8494
31
0
0
LINE
8
LUNA
10
119.3941
20
99.8494
30
0
11
120.8433
21
100.2891
31
0
0
LINE
8
LUNA
10
120.8433
20
100.2891
30
0
11
122.9098
21
100.5143
31
0
0
LINE
8
LUNA
10
122.9098
20
100.5143
30
0
11
122.9175
21
100.5155
31
0
0
LINE
8
LUNA
10
124.5646
20
95.7174
30
0
11
126.2133
21
95.6204
31
0
0
LINE
8
LUNA
10
126.2133
20
95.6204
30
0
11
126.7857
21
95.3693
31
0
0
LINE
8
LUNA
10
126.7857
20
95.3693
30
0
11
127.288
21
94.8958
31
0
0
LINE
8
LUNA
10
127.288
20
94.8958
30
0
11
127.8572
21
93.8537
31
0
0
LINE
8
LUNA
10
127.8572
20
93.8537
30
0
11
128.19
21
91.8232
31
0
0
LINE
8
LUNA
10
128.19
20
91.8232
30
0
11
128.044
21
87.8695
31
0
0
LINE
8
LUNA
10
128.044
20
87.8695
30
0
11
127.5859
21
84.3172
31
0
0
LINE
8
LUNA
10
127.5859
20
84.3172
30
0
11
126.2892
21
78.0496
31
0
0
LINE
8
LUNA
10
126.2892
20
78.0496
30
0
11
124.8371
21
72.94
31
0
0
LINE
8
LUNA
10
124.8371
20
72.94
30
0
11
123.5491
21
69.1791
31
0
0
LINE
8
LUNA
10
123.5491
20
69.1791
30
0
11
121.8274
21
64.9121
31
0
0
LINE
8
LUNA
10
121.8274
20
64.9121
30
0
11
119.5852
21
60.3151
31
0
0
LINE
8
LUNA
10
119.5852
20
60.3151
30
0
11
117.5053
21
56.8449
31
0
0
LINE
8
LUNA
10
117.5053
20
56.8449
30
0
11
115.9137
21
54.5782
31
0
0
LINE
8
LUNA
10
115.9137
20
54.5782
30
0
11
113.5825
21
52.0307
31
0
0
LINE
8
LUNA
10
113.5825
20
52.0307
30
0
11
112.1555
21
51.1213
31
0
0
LINE
8
LUNA
10
112.1555
20
51.1213
30
0
11
111.538
21
50.9242
31
0
0
LINE
8
LUNA
10
111.538
20
50.9242
30
0
11
110.8037
21
50.9563
31
0
0
LINE
8
LUNA
10
110.8037
20
50.9563
30
0
11
110.1972
21
51.236
31
0
0
LINE
8
LUNA
10
110.1972
20
51.236
30
0
11
109.6088
21
51.7756
31
0
0
LINE
8
LUNA
10
109.6088
20
51.7756
30
0
11
108.9173
21
53.0893
31
0
0
LINE
8
LUNA
10
108.9173
20
53.0893
30
0
11
108.5014
21
54.7591
31
0
0
LINE
8
LUNA
10
108.5014
20
54.7591
30
0
11
108.2815
21
58.4596
31
0
0
LINE
8
LUNA
10
108.2815
20
58.4596
30
0
11
108.5005
21
61.7498
31
0
0
LINE
8
LUNA
10
108.5005
20
61.7498
30
0
11
108.9687
21
65.2114
31
0
0
LINE
8
LUNA
10
108.9687
20
65.2114
30
0
11
110.0287
21
70.4893
31
0
0
LINE
8
LUNA
10
110.0287
20
70.4893
30
0
11
111.3171
21
75.2613
31
0
0
LINE
8
LUNA
10
111.3171
20
75.2613
30
0
11
112.5641
21
78.9914
31
0
0
LINE
8
LUNA
10
112.5641
20
78.9914
30
0
11
114.0784
21
82.7408
31
0
0
LINE
8
LUNA
10
114.0784
20
82.7408
30
0
11
115.5357
21
85.7684
31
0
0
LINE
8
LUNA
10
115.5357
20
85.7684
30
0
11
117.7521
21
89.5408
31
0
0
LINE
8
LUNA
10
117.7521
20
89.5408
30
0
11
119.6983
21
92.1601
31
0
0
LINE
8
LUNA
10
119.6983
20
92.1601
30
0
11
121.3086
21
93.9156
31
0
0
LINE
8
LUNA
10
121.3086
20
93.9156
30
0
11
123.2644
21
95.3078
31
0
0
LINE
8
LUNA
10
123.2644
20
95.3078
30
0
11
124.5569
21
95.7161
31
0
0
LINE
8
LUNA
10
124.5569
20
95.7161
30
0
11
124.5646
21
95.7174
31
0
0
LINE
8
LUNA
10
92.9826
20
95.5741
30
0
11
94.1733
21
95.5563
31
0
0
LINE
8
LUNA
10
94.1733
20
95.5563
30
0
11
95.4881
21
94.9913
31
0
0
LINE
8
LUNA
10
95.4881
20
94.9913
30
0
11
96.205
21
93.8193
31
0
0
LINE
8
LUNA
10
96.205
20
93.8193
30
0
11
96.5362
21
92.0469
31
0
0
LINE
8
LUNA
10
96.5362
20
92.0469
30
0
11
96.4626
21
88.0927
31
0
0
LINE
8
LUNA
10
96.4626
20
88.0927
30
0
11
96.0256
21
84.5193
31
0
0
LINE
8
LUNA
10
96.0256
20
84.5193
30
0
11
94.922
21
79.0522
31
0
0
LINE
8
LUNA
10
94.922
20
79.0522
30
0
11
93.4801
21
73.6459
31
0
0
LINE
8
LUNA
10
93.4801
20
73.6459
30
0
11
92.182
21
69.6804
31
0
0
LINE
8
LUNA
10
92.182
20
69.6804
30
0
11
90.0231
21
64.2839
31
0
0
LINE
8
LUNA
10
90.0231
20
64.2839
30
0
11
88.6508
21
61.3952
31
0
0
LINE
8
LUNA
10
88.6508
20
61.3952
30
0
11
86.2711
21
57.2132
31
0
0
LINE
8
LUNA
10
86.2711
20
57.2132
30
0
11
84.1208
21
54.1535
31
0
0
LINE
8
LUNA
10
84.1208
20
54.1535
30
0
11
82.0721
21
51.8875
31
0
0
LINE
8
LUNA
10
82.0721
20
51.8875
30
0
11
80.5706
21
50.8914
31
0
0
LINE
8
LUNA
10
80.5706
20
50.8914
30
0
11
79.8181
21
50.7039
31
0
0
LINE
8
LUNA
10
79.8181
20
50.7039
30
0
11
79.0886
21
50.8233
31
0
0
LINE
8
LUNA
10
79.0886
20
50.8233
30
0
11
78.0823
21
51.5804
31
0
0
LINE
8
LUNA
10
78.0823
20
51.5804
30
0
11
77.3309
21
53.1028
31
0
0
LINE
8
LUNA
10
77.3309
20
53.1028
30
0
11
76.9193
21
54.9739
31
0
0
LINE
8
LUNA
10
76.9193
20
54.9739
30
0
11
76.6995
21
58.6029
31
0
0
LINE
8
LUNA
10
76.6995
20
58.6029
30
0
11
76.9185
21
61.9646
31
0
0
LINE
8
LUNA
10
76.9185
20
61.9646
30
0
11
77.5913
21
66.7971
31
0
0
LINE
8
LUNA
10
77.5913
20
66.7971
30
0
11
78.2438
21
69.9133
31
0
0
LINE
8
LUNA
10
78.2438
20
69.9133
30
0
11
79.6942
21
75.3022
31
0
0
LINE
8
LUNA
10
79.6942
20
75.3022
30
0
11
80.9821
21
79.0631
31
0
0
LINE
8
LUNA
10
80.9821
20
79.0631
30
0
11
82.2918
21
82.3009
31
0
0
LINE
8
LUNA
10
82.2918
20
82.3009
30
0
11
83.7358
21
85.3329
31
0
0
LINE
8
LUNA
10
83.7358
20
85.3329
30
0
11
85.679
21
88.7428
31
0
0
LINE
8
LUNA
10
85.679
20
88.7428
30
0
11
88.1162
21
92.0884
31
0
0
LINE
8
LUNA
10
88.1162
20
92.0884
30
0
11
90.1517
21
94.1977
31
0
0
LINE
8
LUNA
10
90.1517
20
94.1977
30
0
11
91.6285
21
95.1737
31
0
0
LINE
8
LUNA
10
91.6285
20
95.1737
30
0
11
92.9749
21
95.5729
31
0
0
LINE
8
LUNA
10
92.9749
20
95.5729
30
0
11
92.9826
21
95.5741
31
0
0
LINE
8
LUNA
10
124.4214
20
95.5025
30
0
11
125.9583
21
95.4997
31
0
0
LINE
8
LUNA
10
125.9583
20
95.4997
30
0
11
126.9647
21
95.0023
31
0
0
LINE
8
LUNA
10
126.9647
20
95.0023
30
0
11
127.4829
21
94.3298
31
0
0
LINE
8
LUNA
10
127.4829
20
94.3298
30
0
11
127.975
21
92.5482
31
0
0
LINE
8
LUNA
10
127.975
20
92.5482
30
0
11
127.9736
21
89.2469
31
0
0
LINE
8
LUNA
10
127.9736
20
89.2469
30
0
11
127.536
21
85.0206
31
0
0
LINE
8
LUNA
10
127.536
20
85.0206
30
0
11
126.6473
21
80.2696
31
0
0
LINE
8
LUNA
10
126.6473
20
80.2696
30
0
11
124.9292
21
73.7789
31
0
0
LINE
8
LUNA
10
124.9292
20
73.7789
30
0
11
123.6334
21
69.8916
31
0
0
LINE
8
LUNA
10
123.6334
20
69.8916
30
0
11
121.9018
21
65.4911
31
0
0
LINE
8
LUNA
10
121.9018
20
65.4911
30
0
11
119.7417
21
60.9553
31
0
0
LINE
8
LUNA
10
119.7417
20
60.9553
30
0
11
117.4951
21
57.1416
31
0
0
LINE
8
LUNA
10
117.4951
20
57.1416
30
0
11
115.4124
21
54.2202
31
0
0
LINE
8
LUNA
10
115.4124
20
54.2202
30
0
11
113.2196
21
51.9549
31
0
0
LINE
8
LUNA
10
113.2196
20
51.9549
30
0
11
112.0298
21
51.2469
31
0
0
LINE
8
LUNA
10
112.0298
20
51.2469
30
0
11
111.3652
21
51.1328
31
0
0
LINE
8
LUNA
10
111.3652
20
51.1328
30
0
11
110.5172
21
51.2427
31
0
0
LINE
8
LUNA
10
110.5172
20
51.2427
30
0
11
109.6527
21
51.9806
31
0
0
LINE
8
LUNA
10
109.6527
20
51.9806
30
0
11
109.0498
21
53.186
31
0
0
LINE
8
LUNA
10
109.0498
20
53.186
30
0
11
108.8284
21
54.0119
31
0
0
LINE
8
LUNA
10
108.8284
20
54.0119
30
0
11
108.5685
21
55.6767
31
0
0
LINE
8
LUNA
10
108.5685
20
55.6767
30
0
11
108.5685
21
60.697
31
0
0
LINE
8
LUNA
10
108.5685
20
60.697
30
0
11
109.6863
21
68.0835
31
0
0
LINE
8
LUNA
10
109.6863
20
68.0835
30
0
11
110.3169
21
70.9978
31
0
0
LINE
8
LUNA
10
110.3169
20
70.9978
30
0
11
111.624
21
75.6705
31
0
0
LINE
8
LUNA
10
111.624
20
75.6705
30
0
11
112.4823
21
78.2855
31
0
0
LINE
8
LUNA
10
112.4823
20
78.2855
30
0
11
113.9966
21
82.1065
31
0
0
LINE
8
LUNA
10
113.9966
20
82.1065
30
0
11
115.5122
21
85.3533
31
0
0
LINE
8
LUNA
10
115.5122
20
85.3533
30
0
11
117.6054
21
89.034
31
0
0
LINE
8
LUNA
10
117.6054
20
89.034
30
0
11
119.8415
21
92.0884
31
0
0
LINE
8
LUNA
10
119.8415
20
92.0884
30
0
11
121.8053
21
94.1261
31
0
0
LINE
8
LUNA
10
121.8053
20
94.1261
30
0
11
123.1167
21
95.0347
31
0
0
LINE
8
LUNA
10
123.1167
20
95.0347
30
0
11
124.4137
21
95.5012
31
0
0
LINE
8
LUNA
10
124.4137
20
95.5012
30
0
11
124.4214
21
95.5025
31
0
0
LINE
8
LUNA
10
93.1258
20
95.3593
30
0
11
94.5629
21
95.2746
31
0
0
LINE
8
LUNA
10
94.5629
20
95.2746
30
0
11
95.5627
21
94.681
31
0
0
LINE
8
LUNA
10
95.5627
20
94.681
30
0
11
96.0808
21
93.5877
31
0
0
LINE
8
LUNA
10
96.0808
20
93.5877
30
0
11
96.3931
21
91.8232
31
0
0
LINE
8
LUNA
10
96.3931
20
91.8232
30
0
11
96.3904
21
89.3018
31
0
0
LINE
8
LUNA
10
96.3904
20
89.3018
30
0
11
95.7174
21
83.6727
31
0
0
LINE
8
LUNA
10
95.7174
20
83.6727
30
0
11
94.8504
21
79.4103
31
0
0
LINE
8
LUNA
10
94.8504
20
79.4103
30
0
11
93.3471
21
73.7789
31
0
0
LINE
8
LUNA
10
93.3471
20
73.7789
30
0
11
92.0514
21
69.82
31
0
0
LINE
8
LUNA
10
92.0514
20
69.82
30
0
11
90.5476
21
65.9168
31
0
0
LINE
8
LUNA
10
90.5476
20
65.9168
30
0
11
88.3776
21
61.2477
31
0
0
LINE
8
LUNA
10
88.3776
20
61.2477
30
0
11
86.5576
21
58.0009
31
0
0
LINE
8
LUNA
10
86.5576
20
58.0009
30
0
11
84.4764
21
54.89
31
0
0
LINE
8
LUNA
10
84.4764
20
54.89
30
0
11
82.3679
21
52.3973
31
0
0
LINE
8
LUNA
10
82.3679
20
52.3973
30
0
11
81.3311
21
51.5094
31
0
0
LINE
8
LUNA
10
81.3311
20
51.5094
30
0
11
80.5145
21
51.0549
31
0
0
LINE
8
LUNA
10
80.5145
20
51.0549
30
0
11
79.7534
21
50.9296
31
0
0
LINE
8
LUNA
10
79.7534
20
50.9296
30
0
11
79.0682
21
51.0176
31
0
0
LINE
8
LUNA
10
79.0682
20
51.0176
30
0
11
78.4739
21
51.3991
31
0
0
LINE
8
LUNA
10
78.4739
20
51.3991
30
0
11
77.9208
21
52.1351
31
0
0
LINE
8
LUNA
10
77.9208
20
52.1351
30
0
11
77.2464
21
54.2268
31
0
0
LINE
8
LUNA
10
77.2464
20
54.2268
30
0
11
76.9865
21
55.8915
31
0
0
LINE
8
LUNA
10
76.9865
20
55.8915
30
0
11
76.9862
21
60.76
31
0
0
LINE
8
LUNA
10
76.9862
20
60.76
30
0
11
77.8792
21
67.4492
31
0
0
LINE
8
LUNA
10
77.8792
20
67.4492
30
0
11
79.8169
21
75.1078
31
0
0
LINE
8
LUNA
10
79.8169
20
75.1078
30
0
11
80.6854
21
77.7842
31
0
0
LINE
8
LUNA
10
80.6854
20
77.7842
30
0
11
82.4174
21
82.1843
31
0
0
LINE
8
LUNA
10
82.4174
20
82.1843
30
0
11
83.9435
21
85.3489
31
0
0
LINE
8
LUNA
10
83.9435
20
85.3489
30
0
11
86.3952
21
89.5305
31
0
0
LINE
8
LUNA
10
86.3952
20
89.5305
30
0
11
88.0487
21
91.7352
31
0
0
LINE
8
LUNA
10
88.0487
20
91.7352
30
0
11
90.0894
21
93.9198
31
0
0
LINE
8
LUNA
10
90.0894
20
93.9198
30
0
11
91.7615
21
95.0407
31
0
0
LINE
8
LUNA
10
91.7615
20
95.0407
30
0
11
93.1181
21
95.358
31
0
0
LINE
8
LUNA
10
93.1181
20
95.358
30
0
11
93.1258
21
95.3593
31
0
0
LINE
8
LUNA
10
153.9982
20
74.3762
30
0
11
155.1747
21
74.398
31
0
0
LINE
8
LUNA
10
155.1747
20
74.398
30
0
11
156.1835
21
74.0192
31
0
0
LINE
8
LUNA
10
156.1835
20
74.0192
30
0
11
156.7093
21
73.3633
31
0
0
LINE
8
LUNA
10
156.7093
20
73.3633
30
0
11
157.1162
21
71.7919
31
0
0
LINE
8
LUNA
10
157.1162
20
71.7919
30
0
11
157.1195
21
70.3955
31
0
0
LINE
8
LUNA
10
157.1195
20
70.3955
30
0
11
156.7901
21
67.9768
31
0
0
LINE
8
LUNA
10
156.7901
20
67.9768
30
0
11
155.578
21
63.7461
31
0
0
LINE
8
LUNA
10
155.578
20
63.7461
30
0
11
155.3653
21
63.5084
31
0
0
LINE
8
LUNA
10
155.3653
20
63.5084
30
0
11
155.1616
21
63.7053
31
0
0
LINE
8
LUNA
10
155.1616
20
63.7053
30
0
11
152.368
21
73.7115
31
0
0
LINE
8
LUNA
10
152.368
20
73.7115
30
0
11
152.5423
21
74.006
31
0
0
LINE
8
LUNA
10
152.5423
20
74.006
30
0
11
153.9905
21
74.3749
31
0
0
LINE
8
LUNA
10
153.9905
20
74.3749
30
0
11
153.9982
21
74.3762
31
0
0
ENDSEC
0
EOF
