0
SECTION
2
HEADER
9
$ACADVER
1
AC1009
0
ENDSEC
0
SECTION
2
ENTITIES
0
LINE
8
TEXTO
10
118.9965
20
87.7188
30
0
11
119.0087
21
74.3295
31
0
0
LINE
8
TEXTO
10
119.0087
20
74.3295
30
0
11
119.0455
21
73.962
31
0
0
LINE
8
TEXTO
10
119.0455
20
73.962
30
0
11
118.9475
21
74.3785
31
0
0
LINE
8
TEXTO
10
118.9475
20
74.3785
30
0
11
119.07
21
74.0723
31
0
0
LINE
8
TEXTO
10
119.07
20
74.0723
30
0
11
118.1267
21
74.9788
31
0
0
LINE
8
TEXTO
10
118.1267
20
74.9788
30
0
11
118.7392
21
74.7583
31
0
0
LINE
8
TEXTO
10
118.7392
20
74.7583
30
0
11
118.237
21
74.844
31
0
0
LINE
8
TEXTO
10
118.237
20
74.844
30
0
11
119.0577
21
74.844
31
0
0
LINE
8
TEXTO
10
119.0577
20
74.844
30
0
11
119.6457
21
74.7338
31
0
0
LINE
8
TEXTO
10
119.6457
20
74.7338
30
0
11
120.3195
21
74.452
31
0
0
LINE
8
TEXTO
10
120.3195
20
74.452
30
0
11
120.7482
21
74.1825
31
0
0
LINE
8
TEXTO
10
120.7482
20
74.1825
30
0
11
121.0667
21
73.7905
31
0
0
LINE
8
TEXTO
10
121.0667
20
73.7905
30
0
11
121.2505
21
73.4598
31
0
0
LINE
8
TEXTO
10
121.2505
20
73.4598
30
0
11
121.4342
21
72.9208
31
0
0
LINE
8
TEXTO
10
121.4342
20
72.9208
30
0
11
121.5077
21
72.4308
31
0
0
LINE
8
TEXTO
10
121.5077
20
72.4308
30
0
11
121.52
21
72.2103
31
0
0
LINE
8
TEXTO
10
121.52
20
72.2103
30
0
11
121.52
21
68.3148
31
0
0
LINE
8
TEXTO
10
121.52
20
68.3148
30
0
11
121.4465
21
67.837
31
0
0
LINE
8
TEXTO
10
121.4465
20
67.837
30
0
11
121.1892
21
67.053
31
0
0
LINE
8
TEXTO
10
121.1892
20
67.053
30
0
11
120.883
21
66.4895
31
0
0
LINE
8
TEXTO
10
120.883
20
66.4895
30
0
11
120.3685
21
66.122
31
0
0
LINE
8
TEXTO
10
120.3685
20
66.122
30
0
11
119.5967
21
65.7668
31
0
0
LINE
8
TEXTO
10
119.5967
20
65.7668
30
0
11
119.217
21
65.6565
31
0
0
LINE
8
TEXTO
10
119.217
20
65.6565
30
0
11
118.6535
21
65.5585
31
0
0
LINE
8
TEXTO
10
118.6535
20
65.5585
30
0
11
119.0455
21
65.681
31
0
0
LINE
8
TEXTO
10
119.0455
20
65.681
30
0
11
118.7392
21
65.534
31
0
0
LINE
8
TEXTO
10
118.7392
20
65.534
30
0
11
119.5355
21
66.3793
31
0
0
LINE
8
TEXTO
10
119.5355
20
66.3793
30
0
11
119.413
21
66.0853
31
0
0
LINE
8
TEXTO
10
119.413
20
66.0853
30
0
11
119.511
21
66.5018
31
0
0
LINE
8
TEXTO
10
119.511
20
66.5018
30
0
11
119.462
21
65.9628
31
0
0
LINE
8
TEXTO
10
119.462
20
65.9628
30
0
11
119.4742
21
63.8313
31
0
0
LINE
8
TEXTO
10
119.4742
20
63.8313
30
0
11
119.4252
21
63.1698
31
0
0
LINE
8
TEXTO
10
119.4252
20
63.1698
30
0
11
119.266
21
62.6063
31
0
0
LINE
8
TEXTO
10
119.266
20
62.6063
30
0
11
119.0822
21
62.2388
31
0
0
LINE
8
TEXTO
10
119.0822
20
62.2388
30
0
11
118.8617
21
61.908
31
0
0
LINE
8
TEXTO
10
118.8617
20
61.908
30
0
11
118.5677
21
61.6508
31
0
0
LINE
8
TEXTO
10
118.5677
20
61.6508
30
0
11
118.2002
21
61.3935
31
0
0
LINE
8
TEXTO
10
118.2002
20
61.3935
30
0
11
117.6
21
61.1485
31
0
0
LINE
8
TEXTO
10
117.6
20
61.1485
30
0
11
117.0855
21
61.0628
31
0
0
LINE
8
TEXTO
10
117.0855
20
61.0628
30
0
11
116.816
21
61.0383
31
0
0
LINE
8
TEXTO
10
116.816
20
61.0383
30
0
11
110.2745
21
61.0383
31
0
0
LINE
8
TEXTO
10
110.2745
20
61.0383
30
0
11
109.515
21
61.1118
31
0
0
LINE
8
TEXTO
10
109.515
20
61.1118
30
0
11
108.927
21
61.3078
31
0
0
LINE
8
TEXTO
10
108.927
20
61.3078
30
0
11
108.6085
21
61.4915
31
0
0
LINE
8
TEXTO
10
108.6085
20
61.4915
30
0
11
108.241
21
61.7855
31
0
0
LINE
8
TEXTO
10
108.241
20
61.7855
30
0
11
107.9715
21
62.1775
31
0
0
LINE
8
TEXTO
10
107.9715
20
62.1775
30
0
11
107.8122
21
62.5328
31
0
0
LINE
8
TEXTO
10
107.8122
20
62.5328
30
0
11
107.6652
21
63.0718
31
0
0
LINE
8
TEXTO
10
107.6652
20
63.0718
30
0
11
107.6285
21
63.721
31
0
0
LINE
8
TEXTO
10
107.6285
20
63.721
30
0
11
107.6162
21
65.8158
31
0
0
LINE
8
TEXTO
10
107.6162
20
65.8158
30
0
11
107.555
21
66.3303
31
0
0
LINE
8
TEXTO
10
107.555
20
66.3303
30
0
11
107.7265
21
65.779
31
0
0
LINE
8
TEXTO
10
107.7265
20
65.779
30
0
11
107.4937
21
66.22
31
0
0
LINE
8
TEXTO
10
107.4937
20
66.22
30
0
11
108.1062
21
65.5953
31
0
0
LINE
8
TEXTO
10
108.1062
20
65.5953
30
0
11
107.6897
21
65.828
31
0
0
LINE
8
TEXTO
10
107.6897
20
65.828
30
0
11
108.2777
21
65.6443
31
0
0
LINE
8
TEXTO
10
108.2777
20
65.6443
30
0
11
107.6162
21
65.7055
31
0
0
LINE
8
TEXTO
10
107.6162
20
65.7055
30
0
11
100.3152
21
65.7055
31
0
0
LINE
8
TEXTO
10
100.3152
20
65.7055
30
0
11
98.98
21
65.8525
31
0
0
LINE
8
TEXTO
10
98.98
20
65.8525
30
0
11
98.3675
21
66.073
31
0
0
LINE
8
TEXTO
10
98.3675
20
66.073
30
0
11
97.6447
21
66.514
31
0
0
LINE
8
TEXTO
10
97.6447
20
66.514
30
0
11
97.3385
21
66.759
31
0
0
LINE
8
TEXTO
10
97.3385
20
66.759
30
0
11
97.0935
21
67.0898
31
0
0
LINE
8
TEXTO
10
97.0935
20
67.0898
30
0
11
96.677
21
67.8615
31
0
0
LINE
8
TEXTO
10
96.677
20
67.8615
30
0
11
96.5055
21
68.4128
31
0
0
LINE
8
TEXTO
10
96.5055
20
68.4128
30
0
11
96.3585
21
69.5765
31
0
0
LINE
8
TEXTO
10
96.3585
20
69.5765
30
0
11
96.3585
21
69.8705
31
0
0
LINE
8
TEXTO
10
96.3585
20
69.8705
30
0
11
96.4687
21
71.4998
31
0
0
LINE
8
TEXTO
10
96.4687
20
71.4998
30
0
11
96.5177
21
71.7815
31
0
0
LINE
8
TEXTO
10
96.5177
20
71.7815
30
0
11
96.8485
21
73.0188
31
0
0
LINE
8
TEXTO
10
96.8485
20
73.0188
30
0
11
96.971
21
73.3495
31
0
0
LINE
8
TEXTO
10
96.971
20
73.3495
30
0
11
97.363
21
74.0968
31
0
0
LINE
8
TEXTO
10
97.363
20
74.0968
30
0
11
98.0612
21
75.187
31
0
0
LINE
8
TEXTO
10
98.0612
20
75.187
30
0
11
99.0412
21
76.4855
31
0
0
LINE
8
TEXTO
10
99.0412
20
76.4855
30
0
11
100.2172
21
77.9188
31
0
0
LINE
8
TEXTO
10
100.2172
20
77.9188
30
0
11
105.0805
21
83.7865
31
0
0
LINE
8
TEXTO
10
105.0805
20
83.7865
30
0
11
106.8322
21
85.7955
31
0
0
LINE
8
TEXTO
10
106.8322
20
85.7955
30
0
11
108.3267
21
87.437
31
0
0
LINE
8
TEXTO
10
108.3267
20
87.437
30
0
11
109.6007
21
88.6865
31
0
0
LINE
8
TEXTO
10
109.6007
20
88.6865
30
0
11
110.7277
21
89.593
31
0
0
LINE
8
TEXTO
10
110.7277
20
89.593
30
0
11
110.9237
21
89.7155
31
0
0
LINE
8
TEXTO
10
110.9237
20
89.7155
30
0
11
111.7812
21
90.2055
31
0
0
LINE
8
TEXTO
10
111.7812
20
90.2055
30
0
11
111.9895
21
90.3035
31
0
0
LINE
8
TEXTO
10
111.9895
20
90.3035
30
0
11
113.0185
21
90.7078
31
0
0
LINE
8
TEXTO
10
113.0185
20
90.7078
30
0
11
114.317
21
91.0263
31
0
0
LINE
8
TEXTO
10
114.317
20
91.0263
30
0
11
115.5297
21
91.1488
31
0
0
LINE
8
TEXTO
10
115.5297
20
91.1488
30
0
11
115.885
21
91.1488
31
0
0
LINE
8
TEXTO
10
115.885
20
91.1488
30
0
11
116.718
21
91.0263
31
0
0
LINE
8
TEXTO
10
116.718
20
91.0263
30
0
11
117.3917
21
90.769
31
0
0
LINE
8
TEXTO
10
117.3917
20
90.769
30
0
11
117.9307
21
90.3893
31
0
0
LINE
8
TEXTO
10
117.9307
20
90.3893
30
0
11
118.2002
21
90.1443
31
0
0
LINE
8
TEXTO
10
118.2002
20
90.1443
30
0
11
118.4085
21
89.838
31
0
0
LINE
8
TEXTO
10
118.4085
20
89.838
30
0
11
118.7392
21
89.201
31
0
0
LINE
8
TEXTO
10
118.7392
20
89.201
30
0
11
118.9107
21
88.6498
31
0
0
LINE
8
TEXTO
10
118.9107
20
88.6498
30
0
11
118.9965
21
87.7188
31
0
0
LINE
8
TEXTO
10
118.9965
20
87.7188
30
0
11
118.9965
21
87.7188
31
0
0
LINE
8
TEXTO
10
115.836
20
88.3435
30
0
11
116.0075
21
87.7923
31
0
0
LINE
8
TEXTO
10
116.0075
20
87.7923
30
0
11
115.6767
21
88.417
31
0
0
LINE
8
TEXTO
10
115.6767
20
88.417
30
0
11
116.1667
21
87.8658
31
0
0
LINE
8
TEXTO
10
116.1667
20
87.8658
30
0
11
115.6277
21
88.2333
31
0
0
LINE
8
TEXTO
10
115.6277
20
88.2333
30
0
11
116.3015
21
87.976
31
0
0
LINE
8
TEXTO
10
116.3015
20
87.976
30
0
11
115.4562
21
88.0863
31
0
0
LINE
8
TEXTO
10
115.4562
20
88.0863
30
0
11
115.8115
21
88.0863
31
0
0
LINE
8
TEXTO
10
115.8115
20
88.0863
30
0
11
115.0152
21
88.025
31
0
0
LINE
8
TEXTO
10
115.0152
20
88.025
30
0
11
114.121
21
87.829
31
0
0
LINE
8
TEXTO
10
114.121
20
87.829
30
0
11
113.092
21
87.437
31
0
0
LINE
8
TEXTO
10
113.092
20
87.437
30
0
11
113.3002
21
87.535
31
0
0
LINE
8
TEXTO
10
113.3002
20
87.535
30
0
11
112.4427
21
87.045
31
0
0
LINE
8
TEXTO
10
112.4427
20
87.045
30
0
11
112.6387
21
87.1675
31
0
0
LINE
8
TEXTO
10
112.6387
20
87.1675
30
0
11
111.7567
21
86.4938
31
0
0
LINE
8
TEXTO
10
111.7567
20
86.4938
30
0
11
110.6052
21
85.3545
31
0
0
LINE
8
TEXTO
10
110.6052
20
85.3545
30
0
11
109.1597
21
83.7743
31
0
0
LINE
8
TEXTO
10
109.1597
20
83.7743
30
0
11
107.457
21
81.8265
31
0
0
LINE
8
TEXTO
10
107.457
20
81.8265
30
0
11
102.606
21
75.971
31
0
0
LINE
8
TEXTO
10
102.606
20
75.971
30
0
11
101.4912
21
74.6113
31
0
0
LINE
8
TEXTO
10
101.4912
20
74.6113
30
0
11
100.6582
21
73.521
31
0
0
LINE
8
TEXTO
10
100.6582
20
73.521
30
0
11
100.0947
21
72.6513
31
0
0
LINE
8
TEXTO
10
100.0947
20
72.6513
30
0
11
99.6905
21
71.904
31
0
0
LINE
8
TEXTO
10
99.6905
20
71.904
30
0
11
99.8252
21
72.2348
31
0
0
LINE
8
TEXTO
10
99.8252
20
72.2348
30
0
11
99.4945
21
70.9975
31
0
0
LINE
8
TEXTO
10
99.4945
20
70.9975
30
0
11
99.5435
21
71.2793
31
0
0
LINE
8
TEXTO
10
99.5435
20
71.2793
30
0
11
99.421
21
69.65
31
0
0
LINE
8
TEXTO
10
99.421
20
69.65
30
0
11
99.421
21
69.944
31
0
0
LINE
8
TEXTO
10
99.421
20
69.944
30
0
11
99.5557
21
68.7803
31
0
0
LINE
8
TEXTO
10
99.5557
20
68.7803
30
0
11
99.3842
21
69.3315
31
0
0
LINE
8
TEXTO
10
99.3842
20
69.3315
30
0
11
99.8007
21
68.5598
31
0
0
LINE
8
TEXTO
10
99.8007
20
68.5598
30
0
11
99.2495
21
69.1355
31
0
0
LINE
8
TEXTO
10
99.2495
20
69.1355
30
0
11
99.9722
21
68.6945
31
0
0
LINE
8
TEXTO
10
99.9722
20
68.6945
30
0
11
99.3597
21
68.915
31
0
0
LINE
8
TEXTO
10
99.3597
20
68.915
30
0
11
100.3152
21
68.7803
31
0
0
LINE
8
TEXTO
10
100.3152
20
68.7803
30
0
11
107.947
21
68.768
31
0
0
LINE
8
TEXTO
10
107.947
20
68.768
30
0
11
108.5962
21
68.7068
31
0
0
LINE
8
TEXTO
10
108.5962
20
68.7068
30
0
11
109.1842
21
68.523
31
0
0
LINE
8
TEXTO
10
109.1842
20
68.523
30
0
11
109.6007
21
68.278
31
0
0
LINE
8
TEXTO
10
109.6007
20
68.278
30
0
11
109.956
21
68.0208
31
0
0
LINE
8
TEXTO
10
109.956
20
68.0208
30
0
11
110.2132
21
67.6533
31
0
0
LINE
8
TEXTO
10
110.2132
20
67.6533
30
0
11
110.446
21
67.2123
31
0
0
LINE
8
TEXTO
10
110.446
20
67.2123
30
0
11
110.6175
21
66.6488
31
0
0
LINE
8
TEXTO
10
110.6175
20
66.6488
30
0
11
110.7032
21
65.8158
31
0
0
LINE
8
TEXTO
10
110.7032
20
65.8158
30
0
11
110.691
21
63.9415
31
0
0
LINE
8
TEXTO
10
110.691
20
63.9415
30
0
11
110.74
21
63.2923
31
0
0
LINE
8
TEXTO
10
110.74
20
63.2923
30
0
11
110.6052
21
63.8313
31
0
0
LINE
8
TEXTO
10
110.6052
20
63.8313
30
0
11
110.7645
21
63.4883
31
0
0
LINE
8
TEXTO
10
110.7645
20
63.4883
30
0
11
110.1275
21
64.162
31
0
0
LINE
8
TEXTO
10
110.1275
20
64.162
30
0
11
110.4582
21
63.9783
31
0
0
LINE
8
TEXTO
10
110.4582
20
63.9783
30
0
11
109.8825
21
64.1743
31
0
0
LINE
8
TEXTO
10
109.8825
20
64.1743
30
0
11
110.2745
21
64.113
31
0
0
LINE
8
TEXTO
10
110.2745
20
64.113
30
0
11
116.816
21
64.113
31
0
0
LINE
8
TEXTO
10
116.816
20
64.113
30
0
11
116.5342
21
64.0885
31
0
0
LINE
8
TEXTO
10
116.5342
20
64.0885
30
0
11
117.0487
21
64.1865
31
0
0
LINE
8
TEXTO
10
117.0487
20
64.1865
30
0
11
116.4485
21
63.9415
31
0
0
LINE
8
TEXTO
10
116.4485
20
63.9415
30
0
11
116.8282
21
64.1988
31
0
0
LINE
8
TEXTO
10
116.8282
20
64.1988
30
0
11
116.326
21
63.6108
31
0
0
LINE
8
TEXTO
10
116.326
20
63.6108
30
0
11
116.5097
21
63.9905
31
0
0
LINE
8
TEXTO
10
116.5097
20
63.9905
30
0
11
116.3505
21
63.427
31
0
0
LINE
8
TEXTO
10
116.3505
20
63.427
30
0
11
116.3872
21
63.8313
31
0
0
LINE
8
TEXTO
10
116.3872
20
63.8313
30
0
11
116.3995
21
66.2323
31
0
0
LINE
8
TEXTO
10
116.3995
20
66.2323
30
0
11
116.4485
21
66.7713
31
0
0
LINE
8
TEXTO
10
116.4485
20
66.7713
30
0
11
116.5465
21
67.1878
31
0
0
LINE
8
TEXTO
10
116.5465
20
67.1878
30
0
11
116.6567
21
67.494
31
0
0
LINE
8
TEXTO
10
116.6567
20
67.494
30
0
11
116.9752
21
67.984
31
0
0
LINE
8
TEXTO
10
116.9752
20
67.984
30
0
11
117.453
21
68.3393
31
0
0
LINE
8
TEXTO
10
117.453
20
68.3393
30
0
11
117.7592
21
68.474
31
0
0
LINE
8
TEXTO
10
117.7592
20
68.474
30
0
11
118.1512
21
68.5965
31
0
0
LINE
8
TEXTO
10
118.1512
20
68.5965
30
0
11
118.7025
21
68.6945
31
0
0
LINE
8
TEXTO
10
118.7025
20
68.6945
30
0
11
118.3227
21
68.572
31
0
0
LINE
8
TEXTO
10
118.3227
20
68.572
30
0
11
119.0945
21
68.9273
31
0
0
LINE
8
TEXTO
10
119.0945
20
68.9273
30
0
11
118.2615
21
67.9963
31
0
0
LINE
8
TEXTO
10
118.2615
20
67.9963
30
0
11
118.5187
21
68.7925
31
0
0
LINE
8
TEXTO
10
118.5187
20
68.7925
30
0
11
118.4452
21
68.3148
31
0
0
LINE
8
TEXTO
10
118.4452
20
68.3148
30
0
11
118.4452
21
72.2103
31
0
0
LINE
8
TEXTO
10
118.4452
20
72.2103
30
0
11
118.4575
21
71.9898
31
0
0
LINE
8
TEXTO
10
118.4575
20
71.9898
30
0
11
118.3962
21
72.4798
31
0
0
LINE
8
TEXTO
10
118.3962
20
72.4798
30
0
11
118.58
21
71.9408
31
0
0
LINE
8
TEXTO
10
118.58
20
71.9408
30
0
11
118.3962
21
72.2593
31
0
0
LINE
8
TEXTO
10
118.3962
20
72.2593
30
0
11
119.1435
21
71.61
31
0
0
LINE
8
TEXTO
10
119.1435
20
71.61
30
0
11
118.4575
21
71.8795
31
0
0
LINE
8
TEXTO
10
118.4575
20
71.8795
30
0
11
119.0577
21
71.7693
31
0
0
LINE
8
TEXTO
10
119.0577
20
71.7693
30
0
11
118.237
21
71.7693
31
0
0
LINE
8
TEXTO
10
118.237
20
71.7693
30
0
11
117.7347
21
71.855
31
0
0
LINE
8
TEXTO
10
117.7347
20
71.855
30
0
11
117.1222
21
72.0633
31
0
0
LINE
8
TEXTO
10
117.1222
20
72.0633
30
0
11
116.5587
21
72.4063
31
0
0
LINE
8
TEXTO
10
116.5587
20
72.4063
30
0
11
116.1912
21
72.9698
31
0
0
LINE
8
TEXTO
10
116.1912
20
72.9698
30
0
11
116.081
21
73.2638
31
0
0
LINE
8
TEXTO
10
116.081
20
73.2638
30
0
11
115.983
21
73.6803
31
0
0
LINE
8
TEXTO
10
115.983
20
73.6803
30
0
11
115.9217
21
74.3295
31
0
0
LINE
8
TEXTO
10
115.9217
20
74.3295
30
0
11
115.934
21
87.4125
31
0
0
LINE
8
TEXTO
10
115.934
20
87.4125
30
0
11
115.836
21
88.3435
31
0
0
LINE
8
TEXTO
10
115.836
20
88.3435
30
0
11
115.836
21
88.3435
31
0
0
LINE
8
TEXTO
10
107.898
20
77.6248
30
0
11
107.898
21
78.5558
31
0
0
LINE
8
TEXTO
10
107.898
20
78.5558
30
0
11
107.8367
21
79.156
31
0
0
LINE
8
TEXTO
10
107.8367
20
79.156
30
0
11
107.898
21
78.8498
31
0
0
LINE
8
TEXTO
10
107.898
20
78.8498
30
0
11
107.7265
21
79.3888
31
0
0
LINE
8
TEXTO
10
107.7265
20
79.3888
30
0
11
108.0817
21
78.7885
31
0
0
LINE
8
TEXTO
10
108.0817
20
78.7885
30
0
11
107.7755
21
79.1193
31
0
0
LINE
8
TEXTO
10
107.7755
20
79.1193
30
0
11
108.486
21
78.6783
31
0
0
LINE
8
TEXTO
10
108.486
20
78.6783
30
0
11
108.0695
21
78.8008
31
0
0
LINE
8
TEXTO
10
108.0695
20
78.8008
30
0
11
108.878
21
78.8008
31
0
0
LINE
8
TEXTO
10
108.878
20
78.8008
30
0
11
108.1797
21
78.6048
31
0
0
LINE
8
TEXTO
10
108.1797
20
78.6048
30
0
11
108.829
21
78.9723
31
0
0
LINE
8
TEXTO
10
108.829
20
78.9723
30
0
11
108.1797
21
78.3598
31
0
0
LINE
8
TEXTO
10
108.1797
20
78.3598
30
0
11
105.3622
21
74.893
31
0
0
LINE
8
TEXTO
10
105.3622
20
74.893
30
0
11
104.8232
21
74.207
31
0
0
LINE
8
TEXTO
10
104.8232
20
74.207
30
0
11
104.517
21
73.7048
31
0
0
LINE
8
TEXTO
10
104.517
20
73.7048
30
0
11
104.3822
21
73.374
31
0
0
LINE
8
TEXTO
10
104.3822
20
73.374
30
0
11
104.4802
21
73.6558
31
0
0
LINE
8
TEXTO
10
104.4802
20
73.6558
30
0
11
104.3822
21
73.2638
31
0
0
LINE
8
TEXTO
10
104.3822
20
73.2638
30
0
11
104.3455
21
74.0968
31
0
0
LINE
8
TEXTO
10
104.3455
20
74.0968
30
0
11
104.4802
21
73.6803
31
0
0
LINE
8
TEXTO
10
104.4802
20
73.6803
30
0
11
103.8065
21
74.5133
31
0
0
LINE
8
TEXTO
10
103.8065
20
74.5133
30
0
11
104.1985
21
74.2805
31
0
0
LINE
8
TEXTO
10
104.1985
20
74.2805
30
0
11
103.7085
21
74.4765
31
0
0
LINE
8
TEXTO
10
103.7085
20
74.4765
30
0
11
104.076
21
74.403
31
0
0
LINE
8
TEXTO
10
104.076
20
74.403
30
0
11
104.4925
21
74.3785
31
0
0
LINE
8
TEXTO
10
104.4925
20
74.3785
30
0
11
105.2152
21
74.3295
31
0
0
LINE
8
TEXTO
10
105.2152
20
74.3295
30
0
11
106.1217
21
74.305
31
0
0
LINE
8
TEXTO
10
106.1217
20
74.305
30
0
11
107.6162
21
74.2928
31
0
0
LINE
8
TEXTO
10
107.6162
20
74.2928
30
0
11
108.3267
21
74.3295
31
0
0
LINE
8
TEXTO
10
108.3267
20
74.3295
30
0
11
107.947
21
74.256
31
0
0
LINE
8
TEXTO
10
107.947
20
74.256
30
0
11
108.4615
21
74.4275
31
0
0
LINE
8
TEXTO
10
108.4615
20
74.4275
30
0
11
107.751
21
73.962
31
0
0
LINE
8
TEXTO
10
107.751
20
73.962
30
0
11
108.0327
21
74.2805
31
0
0
LINE
8
TEXTO
10
108.0327
20
74.2805
30
0
11
107.702
21
73.5945
31
0
0
LINE
8
TEXTO
10
107.702
20
73.5945
30
0
11
107.8122
21
74.158
31
0
0
LINE
8
TEXTO
10
107.8122
20
74.158
30
0
11
107.8367
21
74.5868
31
0
0
LINE
8
TEXTO
10
107.8367
20
74.5868
30
0
11
107.8735
21
75.3953
31
0
0
LINE
8
TEXTO
10
107.8735
20
75.3953
30
0
11
107.898
21
76.3998
31
0
0
LINE
8
TEXTO
10
107.898
20
76.3998
30
0
11
107.898
21
77.6248
31
0
0
LINE
8
TEXTO
10
107.898
20
77.6248
30
0
11
107.898
21
77.6248
31
0
0
LINE
8
TEXTO
10
110.9727
20
76.3263
30
0
11
110.9482
21
75.2238
31
0
0
LINE
8
TEXTO
10
110.9482
20
75.2238
30
0
11
110.8992
21
74.3663
31
0
0
LINE
8
TEXTO
10
110.8992
20
74.3663
30
0
11
110.8257
21
73.5333
31
0
0
LINE
8
TEXTO
10
110.8257
20
73.5333
30
0
11
110.7155
21
72.9698
31
0
0
LINE
8
TEXTO
10
110.7155
20
72.9698
30
0
11
110.593
21
72.6023
31
0
0
LINE
8
TEXTO
10
110.593
20
72.6023
30
0
11
110.3725
21
72.2838
31
0
0
LINE
8
TEXTO
10
110.3725
20
72.2838
30
0
11
110.0907
21
71.953
31
0
0
LINE
8
TEXTO
10
110.0907
20
71.953
30
0
11
109.7722
21
71.6713
31
0
0
LINE
8
TEXTO
10
109.7722
20
71.6713
30
0
11
109.3925
21
71.4875
31
0
0
LINE
8
TEXTO
10
109.3925
20
71.4875
30
0
11
108.878
21
71.3283
31
0
0
LINE
8
TEXTO
10
108.878
20
71.3283
30
0
11
108.4982
21
71.2548
31
0
0
LINE
8
TEXTO
10
108.4982
20
71.2548
30
0
11
107.5672
21
71.2058
31
0
0
LINE
8
TEXTO
10
107.5672
20
71.2058
30
0
11
106.036
21
71.2303
31
0
0
LINE
8
TEXTO
10
106.036
20
71.2303
30
0
11
105.0315
21
71.2548
31
0
0
LINE
8
TEXTO
10
105.0315
20
71.2548
30
0
11
104.2475
21
71.3038
31
0
0
LINE
8
TEXTO
10
104.2475
20
71.3038
30
0
11
103.5125
21
71.3773
31
0
0
LINE
8
TEXTO
10
103.5125
20
71.3773
30
0
11
103.1327
21
71.4385
31
0
0
LINE
8
TEXTO
10
103.1327
20
71.4385
30
0
11
102.6427
21
71.6345
31
0
0
LINE
8
TEXTO
10
102.6427
20
71.6345
30
0
11
102.2385
21
71.8673
31
0
0
LINE
8
TEXTO
10
102.2385
20
71.8673
30
0
11
101.822
21
72.2225
31
0
0
LINE
8
TEXTO
10
101.822
20
72.2225
30
0
11
101.5647
21
72.7003
31
0
0
LINE
8
TEXTO
10
101.5647
20
72.7003
30
0
11
101.4177
21
73.129
31
0
0
LINE
8
TEXTO
10
101.4177
20
73.129
30
0
11
101.3442
21
73.5455
31
0
0
LINE
8
TEXTO
10
101.3442
20
73.5455
30
0
11
101.381
21
73.962
31
0
0
LINE
8
TEXTO
10
101.381
20
73.962
30
0
11
101.479
21
74.3663
31
0
0
LINE
8
TEXTO
10
101.479
20
74.3663
30
0
11
101.577
21
74.648
31
0
0
LINE
8
TEXTO
10
101.577
20
74.648
30
0
11
101.9077
21
75.3463
31
0
0
LINE
8
TEXTO
10
101.9077
20
75.3463
30
0
11
102.3855
21
76.0935
31
0
0
LINE
8
TEXTO
10
102.3855
20
76.0935
30
0
11
102.9735
21
76.853
31
0
0
LINE
8
TEXTO
10
102.9735
20
76.853
30
0
11
106.085
21
80.6138
31
0
0
LINE
8
TEXTO
10
106.085
20
80.6138
30
0
11
106.7342
21
81.2263
31
0
0
LINE
8
TEXTO
10
106.7342
20
81.2263
30
0
11
107.0405
21
81.4468
31
0
0
LINE
8
TEXTO
10
107.0405
20
81.4468
30
0
11
107.3835
21
81.5815
31
0
0
LINE
8
TEXTO
10
107.3835
20
81.5815
30
0
11
108.0817
21
81.7775
31
0
0
LINE
8
TEXTO
10
108.0817
20
81.7775
30
0
11
108.486
21
81.8265
31
0
0
LINE
8
TEXTO
10
108.486
20
81.8265
30
0
11
108.8902
21
81.7653
31
0
0
LINE
8
TEXTO
10
108.8902
20
81.7653
30
0
11
109.319
21
81.655
31
0
0
LINE
8
TEXTO
10
109.319
20
81.655
30
0
11
109.6987
21
81.4835
31
0
0
LINE
8
TEXTO
10
109.6987
20
81.4835
30
0
11
110.0295
21
81.214
31
0
0
LINE
8
TEXTO
10
110.0295
20
81.214
30
0
11
110.3357
21
80.8833
31
0
0
LINE
8
TEXTO
10
110.3357
20
80.8833
30
0
11
110.6787
21
80.2953
31
0
0
LINE
8
TEXTO
10
110.6787
20
80.2953
30
0
11
110.838
21
79.7563
31
0
0
LINE
8
TEXTO
10
110.838
20
79.7563
30
0
11
110.8992
21
79.45
31
0
0
LINE
8
TEXTO
10
110.8992
20
79.45
30
0
11
110.985
21
78.5558
31
0
0
LINE
8
TEXTO
10
110.985
20
78.5558
30
0
11
110.985
21
77.6248
31
0
0
LINE
8
TEXTO
10
110.985
20
77.6248
30
0
11
110.9727
21
76.3263
31
0
0
LINE
8
TEXTO
10
110.9727
20
76.3263
30
0
11
110.9727
21
76.3263
31
0
0
LINE
8
TEXTO
10
180.614
20
87.7555
30
0
11
180.6262
21
74.3295
31
0
0
LINE
8
TEXTO
10
180.6262
20
74.3295
30
0
11
180.6752
21
73.962
31
0
0
LINE
8
TEXTO
10
180.6752
20
73.962
30
0
11
180.6017
21
74.2683
31
0
0
LINE
8
TEXTO
10
180.6017
20
74.2683
30
0
11
180.6997
21
73.9743
31
0
0
LINE
8
TEXTO
10
180.6997
20
73.9743
30
0
11
179.732
21
74.9788
31
0
0
LINE
8
TEXTO
10
179.732
20
74.9788
30
0
11
180.3445
21
74.7583
31
0
0
LINE
8
TEXTO
10
180.3445
20
74.7583
30
0
11
179.83
21
74.844
31
0
0
LINE
8
TEXTO
10
179.83
20
74.844
30
0
11
180.6507
21
74.844
31
0
0
LINE
8
TEXTO
10
180.6507
20
74.844
30
0
11
181.2387
21
74.7338
31
0
0
LINE
8
TEXTO
10
181.2387
20
74.7338
30
0
11
181.9125
21
74.452
31
0
0
LINE
8
TEXTO
10
181.9125
20
74.452
30
0
11
182.3535
21
74.1825
31
0
0
LINE
8
TEXTO
10
182.3535
20
74.1825
30
0
11
182.672
21
73.7905
31
0
0
LINE
8
TEXTO
10
182.672
20
73.7905
30
0
11
182.8557
21
73.4598
31
0
0
LINE
8
TEXTO
10
182.8557
20
73.4598
30
0
11
183.0395
21
72.9208
31
0
0
LINE
8
TEXTO
10
183.0395
20
72.9208
30
0
11
183.113
21
72.4308
31
0
0
LINE
8
TEXTO
10
183.113
20
72.4308
30
0
11
183.1252
21
72.2103
31
0
0
LINE
8
TEXTO
10
183.1252
20
72.2103
30
0
11
183.1252
21
68.3148
31
0
0
LINE
8
TEXTO
10
183.1252
20
68.3148
30
0
11
183.0517
21
67.837
31
0
0
LINE
8
TEXTO
10
183.0517
20
67.837
30
0
11
182.7945
21
67.053
31
0
0
LINE
8
TEXTO
10
182.7945
20
67.053
30
0
11
182.476
21
66.4895
31
0
0
LINE
8
TEXTO
10
182.476
20
66.4895
30
0
11
181.9615
21
66.122
31
0
0
LINE
8
TEXTO
10
181.9615
20
66.122
30
0
11
181.202
21
65.7668
31
0
0
LINE
8
TEXTO
10
181.202
20
65.7668
30
0
11
180.8222
21
65.6565
31
0
0
LINE
8
TEXTO
10
180.8222
20
65.6565
30
0
11
180.2832
21
65.5585
31
0
0
LINE
8
TEXTO
10
180.2832
20
65.5585
30
0
11
180.663
21
65.681
31
0
0
LINE
8
TEXTO
10
180.663
20
65.681
30
0
11
180.369
21
65.534
31
0
0
LINE
8
TEXTO
10
180.369
20
65.534
30
0
11
181.1162
21
66.2935
31
0
0
LINE
8
TEXTO
10
181.1162
20
66.2935
30
0
11
180.9815
21
65.9873
31
0
0
LINE
8
TEXTO
10
180.9815
20
65.9873
30
0
11
181.1162
21
66.5018
31
0
0
LINE
8
TEXTO
10
181.1162
20
66.5018
30
0
11
181.0672
21
65.9628
31
0
0
LINE
8
TEXTO
10
181.0672
20
65.9628
30
0
11
181.0672
21
63.8313
31
0
0
LINE
8
TEXTO
10
181.0672
20
63.8313
30
0
11
181.0182
21
63.1698
31
0
0
LINE
8
TEXTO
10
181.0182
20
63.1698
30
0
11
180.859
21
62.6063
31
0
0
LINE
8
TEXTO
10
180.859
20
62.6063
30
0
11
180.6752
21
62.2388
31
0
0
LINE
8
TEXTO
10
180.6752
20
62.2388
30
0
11
180.4792
21
61.9325
31
0
0
LINE
8
TEXTO
10
180.4792
20
61.9325
30
0
11
180.2097
21
61.6875
31
0
0
LINE
8
TEXTO
10
180.2097
20
61.6875
30
0
11
179.8545
21
61.4303
31
0
0
LINE
8
TEXTO
10
179.8545
20
61.4303
30
0
11
179.5605
21
61.2465
31
0
0
LINE
8
TEXTO
10
179.5605
20
61.2465
30
0
11
179.2297
21
61.1485
31
0
0
LINE
8
TEXTO
10
179.2297
20
61.1485
30
0
11
178.7152
21
61.0628
31
0
0
LINE
8
TEXTO
10
178.7152
20
61.0628
30
0
11
178.4335
21
61.0383
31
0
0
LINE
8
TEXTO
10
178.4335
20
61.0383
30
0
11
171.8797
21
61.0383
31
0
0
LINE
8
TEXTO
10
171.8797
20
61.0383
30
0
11
171.1325
21
61.1118
31
0
0
LINE
8
TEXTO
10
171.1325
20
61.1118
30
0
11
170.5567
21
61.3078
31
0
0
LINE
8
TEXTO
10
170.5567
20
61.3078
30
0
11
170.226
21
61.4915
31
0
0
LINE
8
TEXTO
10
170.226
20
61.4915
30
0
11
169.8585
21
61.7855
31
0
0
LINE
8
TEXTO
10
169.8585
20
61.7855
30
0
11
169.6012
21
62.1775
31
0
0
LINE
8
TEXTO
10
169.6012
20
62.1775
30
0
11
169.4297
21
62.5328
31
0
0
LINE
8
TEXTO
10
169.4297
20
62.5328
30
0
11
169.295
21
63.0228
31
0
0
LINE
8
TEXTO
10
169.295
20
63.0228
30
0
11
169.2337
21
63.672
31
0
0
LINE
8
TEXTO
10
169.2337
20
63.672
30
0
11
169.2215
21
65.8158
31
0
0
LINE
8
TEXTO
10
169.2215
20
65.8158
30
0
11
169.1602
21
66.3303
31
0
0
LINE
8
TEXTO
10
169.1602
20
66.3303
30
0
11
169.3317
21
65.779
31
0
0
LINE
8
TEXTO
10
169.3317
20
65.779
30
0
11
169.099
21
66.22
31
0
0
LINE
8
TEXTO
10
169.099
20
66.22
30
0
11
169.7115
21
65.5953
31
0
0
LINE
8
TEXTO
10
169.7115
20
65.5953
30
0
11
169.2827
21
65.828
31
0
0
LINE
8
TEXTO
10
169.2827
20
65.828
30
0
11
169.8707
21
65.6443
31
0
0
LINE
8
TEXTO
10
169.8707
20
65.6443
30
0
11
169.2215
21
65.7055
31
0
0
LINE
8
TEXTO
10
169.2215
20
65.7055
30
0
11
161.945
21
65.7055
31
0
0
LINE
8
TEXTO
10
161.945
20
65.7055
30
0
11
160.6097
21
65.8525
31
0
0
LINE
8
TEXTO
10
160.6097
20
65.8525
30
0
11
160.0095
21
66.0608
31
0
0
LINE
8
TEXTO
10
160.0095
20
66.0608
30
0
11
159.2622
21
66.5018
31
0
0
LINE
8
TEXTO
10
159.2622
20
66.5018
30
0
11
158.9437
21
66.759
31
0
0
LINE
8
TEXTO
10
158.9437
20
66.759
30
0
11
158.6987
21
67.0898
31
0
0
LINE
8
TEXTO
10
158.6987
20
67.0898
30
0
11
158.2822
21
67.8615
31
0
0
LINE
8
TEXTO
10
158.2822
20
67.8615
30
0
11
158.0985
21
68.4128
31
0
0
LINE
8
TEXTO
10
158.0985
20
68.4128
30
0
11
157.9637
21
69.5765
31
0
0
LINE
8
TEXTO
10
157.9637
20
69.5765
30
0
11
157.9515
21
69.8705
31
0
0
LINE
8
TEXTO
10
157.9515
20
69.8705
30
0
11
158.074
21
71.4998
31
0
0
LINE
8
TEXTO
10
158.074
20
71.4998
30
0
11
158.1107
21
71.7815
31
0
0
LINE
8
TEXTO
10
158.1107
20
71.7815
30
0
11
158.4415
21
73.0188
31
0
0
LINE
8
TEXTO
10
158.4415
20
73.0188
30
0
11
158.5762
21
73.3495
31
0
0
LINE
8
TEXTO
10
158.5762
20
73.3495
30
0
11
158.9682
21
74.0968
31
0
0
LINE
8
TEXTO
10
158.9682
20
74.0968
30
0
11
159.7032
21
75.2115
31
0
0
LINE
8
TEXTO
10
159.7032
20
75.2115
30
0
11
160.6342
21
76.4733
31
0
0
LINE
8
TEXTO
10
160.6342
20
76.4733
30
0
11
161.8225
21
77.9188
31
0
0
LINE
8
TEXTO
10
161.8225
20
77.9188
30
0
11
166.7102
21
83.7865
31
0
0
LINE
8
TEXTO
10
166.7102
20
83.7865
30
0
11
168.4252
21
85.7955
31
0
0
LINE
8
TEXTO
10
168.4252
20
85.7955
30
0
11
169.9197
21
87.437
31
0
0
LINE
8
TEXTO
10
169.9197
20
87.437
30
0
11
171.1937
21
88.6865
31
0
0
LINE
8
TEXTO
10
171.1937
20
88.6865
30
0
11
172.3207
21
89.593
31
0
0
LINE
8
TEXTO
10
172.3207
20
89.593
30
0
11
172.5167
21
89.7155
31
0
0
LINE
8
TEXTO
10
172.5167
20
89.7155
30
0
11
173.3865
21
90.2055
31
0
0
LINE
8
TEXTO
10
173.3865
20
90.2055
30
0
11
173.5947
21
90.3158
31
0
0
LINE
8
TEXTO
10
173.5947
20
90.3158
30
0
11
174.6482
21
90.7078
31
0
0
LINE
8
TEXTO
10
174.6482
20
90.7078
30
0
11
175.91
21
91.0263
31
0
0
LINE
8
TEXTO
10
175.91
20
91.0263
30
0
11
176.1182
21
91.063
31
0
0
LINE
8
TEXTO
10
176.1182
20
91.063
30
0
11
177.1227
21
91.1488
31
0
0
LINE
8
TEXTO
10
177.1227
20
91.1488
30
0
11
177.478
21
91.1488
31
0
0
LINE
8
TEXTO
10
177.478
20
91.1488
30
0
11
178.3232
21
91.0263
31
0
0
LINE
8
TEXTO
10
178.3232
20
91.0263
30
0
11
178.9847
21
90.769
31
0
0
LINE
8
TEXTO
10
178.9847
20
90.769
30
0
11
179.5237
21
90.3893
31
0
0
LINE
8
TEXTO
10
179.5237
20
90.3893
30
0
11
179.8055
21
90.1443
31
0
0
LINE
8
TEXTO
10
179.8055
20
90.1443
30
0
11
180.0137
21
89.838
31
0
0
LINE
8
TEXTO
10
180.0137
20
89.838
30
0
11
180.3445
21
89.201
31
0
0
LINE
8
TEXTO
10
180.3445
20
89.201
30
0
11
180.5037
21
88.6865
31
0
0
LINE
8
TEXTO
10
180.5037
20
88.6865
30
0
11
180.614
21
87.7555
31
0
0
LINE
8
TEXTO
10
180.614
20
87.7555
30
0
11
180.614
21
87.7555
31
0
0
LINE
8
TEXTO
10
177.4412
20
88.3068
30
0
11
177.6005
21
87.7923
31
0
0
LINE
8
TEXTO
10
177.6005
20
87.7923
30
0
11
177.282
21
88.417
31
0
0
LINE
8
TEXTO
10
177.282
20
88.417
30
0
11
177.772
21
87.8658
31
0
0
LINE
8
TEXTO
10
177.772
20
87.8658
30
0
11
177.233
21
88.2333
31
0
0
LINE
8
TEXTO
10
177.233
20
88.2333
30
0
11
177.8945
21
87.976
31
0
0
LINE
8
TEXTO
10
177.8945
20
87.976
30
0
11
177.0615
21
88.0863
31
0
0
LINE
8
TEXTO
10
177.0615
20
88.0863
30
0
11
177.4167
21
88.0863
31
0
0
LINE
8
TEXTO
10
177.4167
20
88.0863
30
0
11
176.4122
21
87.9883
31
0
0
LINE
8
TEXTO
10
176.4122
20
87.9883
30
0
11
176.6205
21
88.025
31
0
0
LINE
8
TEXTO
10
176.6205
20
88.025
30
0
11
175.7385
21
87.829
31
0
0
LINE
8
TEXTO
10
175.7385
20
87.829
30
0
11
174.685
21
87.4248
31
0
0
LINE
8
TEXTO
10
174.685
20
87.4248
30
0
11
174.9055
21
87.535
31
0
0
LINE
8
TEXTO
10
174.9055
20
87.535
30
0
11
174.0357
21
87.045
31
0
0
LINE
8
TEXTO
10
174.0357
20
87.045
30
0
11
174.2317
21
87.1675
31
0
0
LINE
8
TEXTO
10
174.2317
20
87.1675
30
0
11
173.3497
21
86.4938
31
0
0
LINE
8
TEXTO
10
173.3497
20
86.4938
30
0
11
172.1982
21
85.3545
31
0
0
LINE
8
TEXTO
10
172.1982
20
85.3545
30
0
11
170.765
21
83.7865
31
0
0
LINE
8
TEXTO
10
170.765
20
83.7865
30
0
11
169.0745
21
81.8143
31
0
0
LINE
8
TEXTO
10
169.0745
20
81.8143
30
0
11
164.2112
21
75.971
31
0
0
LINE
8
TEXTO
10
164.2112
20
75.971
30
0
11
163.1087
21
74.6235
31
0
0
LINE
8
TEXTO
10
163.1087
20
74.6235
30
0
11
162.2635
21
73.5088
31
0
0
LINE
8
TEXTO
10
162.2635
20
73.5088
30
0
11
161.6877
21
72.6513
31
0
0
LINE
8
TEXTO
10
161.6877
20
72.6513
30
0
11
161.2957
21
71.904
31
0
0
LINE
8
TEXTO
10
161.2957
20
71.904
30
0
11
161.4182
21
72.2348
31
0
0
LINE
8
TEXTO
10
161.4182
20
72.2348
30
0
11
161.0997
21
70.9975
31
0
0
LINE
8
TEXTO
10
161.0997
20
70.9975
30
0
11
161.1365
21
71.2793
31
0
0
LINE
8
TEXTO
10
161.1365
20
71.2793
30
0
11
161.0262
21
69.65
31
0
0
LINE
8
TEXTO
10
161.0262
20
69.65
30
0
11
161.014
21
69.944
31
0
0
LINE
8
TEXTO
10
161.014
20
69.944
30
0
11
161.161
21
68.7803
31
0
0
LINE
8
TEXTO
10
161.161
20
68.7803
30
0
11
160.9772
21
69.3315
31
0
0
LINE
8
TEXTO
10
160.9772
20
69.3315
30
0
11
161.406
21
68.5598
31
0
0
LINE
8
TEXTO
10
161.406
20
68.5598
30
0
11
160.8302
21
69.1478
31
0
0
LINE
8
TEXTO
10
160.8302
20
69.1478
30
0
11
161.5775
21
68.7068
31
0
0
LINE
8
TEXTO
10
161.5775
20
68.7068
30
0
11
160.9772
21
68.915
31
0
0
LINE
8
TEXTO
10
160.9772
20
68.915
30
0
11
161.945
21
68.7803
31
0
0
LINE
8
TEXTO
10
161.945
20
68.7803
30
0
11
169.5522
21
68.768
31
0
0
LINE
8
TEXTO
10
169.5522
20
68.768
30
0
11
170.2015
21
68.7068
31
0
0
LINE
8
TEXTO
10
170.2015
20
68.7068
30
0
11
170.7895
21
68.523
31
0
0
LINE
8
TEXTO
10
170.7895
20
68.523
30
0
11
171.206
21
68.278
31
0
0
LINE
8
TEXTO
10
171.206
20
68.278
30
0
11
171.5612
21
68.0208
31
0
0
LINE
8
TEXTO
10
171.5612
20
68.0208
30
0
11
171.8185
21
67.6533
31
0
0
LINE
8
TEXTO
10
171.8185
20
67.6533
30
0
11
172.0512
21
67.2123
31
0
0
LINE
8
TEXTO
10
172.0512
20
67.2123
30
0
11
172.2227
21
66.6488
31
0
0
LINE
8
TEXTO
10
172.2227
20
66.6488
30
0
11
172.2962
21
65.8158
31
0
0
LINE
8
TEXTO
10
172.2962
20
65.8158
30
0
11
172.2962
21
64.0028
31
0
0
LINE
8
TEXTO
10
172.2962
20
64.0028
30
0
11
172.3575
21
63.3413
31
0
0
LINE
8
TEXTO
10
172.3575
20
63.3413
30
0
11
172.2227
21
63.8313
31
0
0
LINE
8
TEXTO
10
172.2227
20
63.8313
30
0
11
172.382
21
63.4883
31
0
0
LINE
8
TEXTO
10
172.382
20
63.4883
30
0
11
171.7572
21
64.162
31
0
0
LINE
8
TEXTO
10
171.7572
20
64.162
30
0
11
172.088
21
63.9783
31
0
0
LINE
8
TEXTO
10
172.088
20
63.9783
30
0
11
171.5122
21
64.1743
31
0
0
LINE
8
TEXTO
10
171.5122
20
64.1743
30
0
11
171.8797
21
64.113
31
0
0
LINE
8
TEXTO
10
171.8797
20
64.113
30
0
11
178.4335
21
64.113
31
0
0
LINE
8
TEXTO
10
178.4335
20
64.113
30
0
11
178.164
21
64.0885
31
0
0
LINE
8
TEXTO
10
178.164
20
64.0885
30
0
11
178.6785
21
64.1865
31
0
0
LINE
8
TEXTO
10
178.6785
20
64.1865
30
0
11
178.0415
21
63.9048
31
0
0
LINE
8
TEXTO
10
178.0415
20
63.9048
30
0
11
178.3845
21
64.162
31
0
0
LINE
8
TEXTO
10
178.3845
20
64.162
30
0
11
177.919
21
63.6108
31
0
0
LINE
8
TEXTO
10
177.919
20
63.6108
30
0
11
178.1027
21
63.9905
31
0
0
LINE
8
TEXTO
10
178.1027
20
63.9905
30
0
11
177.9557
21
63.427
31
0
0
LINE
8
TEXTO
10
177.9557
20
63.427
30
0
11
177.9925
21
63.8313
31
0
0
LINE
8
TEXTO
10
177.9925
20
63.8313
30
0
11
177.9925
21
66.2323
31
0
0
LINE
8
TEXTO
10
177.9925
20
66.2323
30
0
11
178.0415
21
66.7713
31
0
0
LINE
8
TEXTO
10
178.0415
20
66.7713
30
0
11
178.1762
21
67.2735
31
0
0
LINE
8
TEXTO
10
178.1762
20
67.2735
30
0
11
178.3232
21
67.5798
31
0
0
LINE
8
TEXTO
10
178.3232
20
67.5798
30
0
11
178.6295
21
68.0208
31
0
0
LINE
8
TEXTO
10
178.6295
20
68.0208
30
0
11
179.0705
21
68.3393
31
0
0
LINE
8
TEXTO
10
179.0705
20
68.3393
30
0
11
179.3767
21
68.474
31
0
0
LINE
8
TEXTO
10
179.3767
20
68.474
30
0
11
179.7565
21
68.5965
31
0
0
LINE
8
TEXTO
10
179.7565
20
68.5965
30
0
11
180.2955
21
68.6823
31
0
0
LINE
8
TEXTO
10
180.2955
20
68.6823
30
0
11
179.9157
21
68.572
31
0
0
LINE
8
TEXTO
10
179.9157
20
68.572
30
0
11
180.6875
21
68.9273
31
0
0
LINE
8
TEXTO
10
180.6875
20
68.9273
30
0
11
179.8667
21
67.9963
31
0
0
LINE
8
TEXTO
10
179.8667
20
67.9963
30
0
11
180.124
21
68.7925
31
0
0
LINE
8
TEXTO
10
180.124
20
68.7925
30
0
11
180.0505
21
68.3148
31
0
0
LINE
8
TEXTO
10
180.0505
20
68.3148
30
0
11
180.0505
21
72.2103
31
0
0
LINE
8
TEXTO
10
180.0505
20
72.2103
30
0
11
180.0627
21
71.9898
31
0
0
LINE
8
TEXTO
10
180.0627
20
71.9898
30
0
11
179.9892
21
72.4798
31
0
0
LINE
8
TEXTO
10
179.9892
20
72.4798
30
0
11
180.173
21
71.9408
31
0
0
LINE
8
TEXTO
10
180.173
20
71.9408
30
0
11
179.9892
21
72.2593
31
0
0
LINE
8
TEXTO
10
179.9892
20
72.2593
30
0
11
180.7365
21
71.61
31
0
0
LINE
8
TEXTO
10
180.7365
20
71.61
30
0
11
180.0627
21
71.8795
31
0
0
LINE
8
TEXTO
10
180.0627
20
71.8795
30
0
11
180.6507
21
71.7693
31
0
0
LINE
8
TEXTO
10
180.6507
20
71.7693
30
0
11
179.83
21
71.7693
31
0
0
LINE
8
TEXTO
10
179.83
20
71.7693
30
0
11
179.3277
21
71.855
31
0
0
LINE
8
TEXTO
10
179.3277
20
71.855
30
0
11
178.7275
21
72.0633
31
0
0
LINE
8
TEXTO
10
178.7275
20
72.0633
30
0
11
178.3967
21
72.2225
31
0
0
LINE
8
TEXTO
10
178.3967
20
72.2225
30
0
11
178.1272
21
72.443
31
0
0
LINE
8
TEXTO
10
178.1272
20
72.443
30
0
11
177.9067
21
72.737
31
0
0
LINE
8
TEXTO
10
177.9067
20
72.737
30
0
11
177.7597
21
73.0678
31
0
0
LINE
8
TEXTO
10
177.7597
20
73.0678
30
0
11
177.6617
21
73.374
31
0
0
LINE
8
TEXTO
10
177.6617
20
73.374
30
0
11
177.6005
21
73.6803
31
0
0
LINE
8
TEXTO
10
177.6005
20
73.6803
30
0
11
177.5515
21
74.3295
31
0
0
LINE
8
TEXTO
10
177.5515
20
74.3295
30
0
11
177.5637
21
87.3758
31
0
0
LINE
8
TEXTO
10
177.5637
20
87.3758
30
0
11
177.4412
21
88.3068
31
0
0
LINE
8
TEXTO
10
177.4412
20
88.3068
30
0
11
177.4412
21
88.3068
31
0
0
LINE
8
TEXTO
10
169.5032
20
77.6248
30
0
11
169.5032
21
78.5558
31
0
0
LINE
8
TEXTO
10
169.5032
20
78.5558
30
0
11
169.4297
21
79.156
31
0
0
LINE
8
TEXTO
10
169.4297
20
79.156
30
0
11
169.491
21
78.862
31
0
0
LINE
8
TEXTO
10
169.491
20
78.862
30
0
11
169.3317
21
79.3888
31
0
0
LINE
8
TEXTO
10
169.3317
20
79.3888
30
0
11
169.6747
21
78.7885
31
0
0
LINE
8
TEXTO
10
169.6747
20
78.7885
30
0
11
169.3685
21
79.1193
31
0
0
LINE
8
TEXTO
10
169.3685
20
79.1193
30
0
11
170.0912
21
78.6783
31
0
0
LINE
8
TEXTO
10
170.0912
20
78.6783
30
0
11
169.6747
21
78.8008
31
0
0
LINE
8
TEXTO
10
169.6747
20
78.8008
30
0
11
170.4832
21
78.8008
31
0
0
LINE
8
TEXTO
10
170.4832
20
78.8008
30
0
11
169.785
21
78.6048
31
0
0
LINE
8
TEXTO
10
169.785
20
78.6048
30
0
11
170.4342
21
78.9723
31
0
0
LINE
8
TEXTO
10
170.4342
20
78.9723
30
0
11
169.7727
21
78.3598
31
0
0
LINE
8
TEXTO
10
169.7727
20
78.3598
30
0
11
166.9552
21
74.893
31
0
0
LINE
8
TEXTO
10
166.9552
20
74.893
30
0
11
166.4285
21
74.207
31
0
0
LINE
8
TEXTO
10
166.4285
20
74.207
30
0
11
166.11
21
73.7048
31
0
0
LINE
8
TEXTO
10
166.11
20
73.7048
30
0
11
165.9752
21
73.374
31
0
0
LINE
8
TEXTO
10
165.9752
20
73.374
30
0
11
166.0732
21
73.6558
31
0
0
LINE
8
TEXTO
10
166.0732
20
73.6558
30
0
11
165.9875
21
73.2638
31
0
0
LINE
8
TEXTO
10
165.9875
20
73.2638
30
0
11
165.9385
21
74.0968
31
0
0
LINE
8
TEXTO
10
165.9385
20
74.0968
30
0
11
166.0855
21
73.6803
31
0
0
LINE
8
TEXTO
10
166.0855
20
73.6803
30
0
11
165.3995
21
74.5133
31
0
0
LINE
8
TEXTO
10
165.3995
20
74.5133
30
0
11
165.8037
21
74.2805
31
0
0
LINE
8
TEXTO
10
165.8037
20
74.2805
30
0
11
165.3015
21
74.4765
31
0
0
LINE
8
TEXTO
10
165.3015
20
74.4765
30
0
11
165.6812
21
74.403
31
0
0
LINE
8
TEXTO
10
165.6812
20
74.403
30
0
11
166.0977
21
74.3785
31
0
0
LINE
8
TEXTO
10
166.0977
20
74.3785
30
0
11
166.8205
21
74.3295
31
0
0
LINE
8
TEXTO
10
166.8205
20
74.3295
30
0
11
167.7147
21
74.305
31
0
0
LINE
8
TEXTO
10
167.7147
20
74.305
30
0
11
169.2215
21
74.2928
31
0
0
LINE
8
TEXTO
10
169.2215
20
74.2928
30
0
11
169.9197
21
74.3295
31
0
0
LINE
8
TEXTO
10
169.9197
20
74.3295
30
0
11
169.54
21
74.256
31
0
0
LINE
8
TEXTO
10
169.54
20
74.256
30
0
11
170.0545
21
74.4275
31
0
0
LINE
8
TEXTO
10
170.0545
20
74.4275
30
0
11
169.3562
21
73.962
31
0
0
LINE
8
TEXTO
10
169.3562
20
73.962
30
0
11
169.638
21
74.2805
31
0
0
LINE
8
TEXTO
10
169.638
20
74.2805
30
0
11
169.295
21
73.5945
31
0
0
LINE
8
TEXTO
10
169.295
20
73.5945
30
0
11
169.4175
21
74.158
31
0
0
LINE
8
TEXTO
10
169.4175
20
74.158
30
0
11
169.4297
21
74.5868
31
0
0
LINE
8
TEXTO
10
169.4297
20
74.5868
30
0
11
169.4787
21
75.3953
31
0
0
LINE
8
TEXTO
10
169.4787
20
75.3953
30
0
11
169.5032
21
76.3998
31
0
0
LINE
8
TEXTO
10
169.5032
20
76.3998
30
0
11
169.5032
21
77.6248
31
0
0
LINE
8
TEXTO
10
169.5032
20
77.6248
30
0
11
169.5032
21
77.6248
31
0
0
LINE
8
TEXTO
10
172.578
20
76.3263
30
0
11
172.5535
21
75.2238
31
0
0
LINE
8
TEXTO
10
172.5535
20
75.2238
30
0
11
172.5045
21
74.3663
31
0
0
LINE
8
TEXTO
10
172.5045
20
74.3663
30
0
11
172.431
21
73.5333
31
0
0
LINE
8
TEXTO
10
172.431
20
73.5333
30
0
11
172.3085
21
72.9698
31
0
0
LINE
8
TEXTO
10
172.3085
20
72.9698
30
0
11
172.186
21
72.6023
31
0
0
LINE
8
TEXTO
10
172.186
20
72.6023
30
0
11
171.9777
21
72.2838
31
0
0
LINE
8
TEXTO
10
171.9777
20
72.2838
30
0
11
171.696
21
71.953
31
0
0
LINE
8
TEXTO
10
171.696
20
71.953
30
0
11
171.3775
21
71.6713
31
0
0
LINE
8
TEXTO
10
171.3775
20
71.6713
30
0
11
170.9977
21
71.4875
31
0
0
LINE
8
TEXTO
10
170.9977
20
71.4875
30
0
11
170.4832
21
71.3283
31
0
0
LINE
8
TEXTO
10
170.4832
20
71.3283
30
0
11
170.1035
21
71.2548
31
0
0
LINE
8
TEXTO
10
170.1035
20
71.2548
30
0
11
169.1725
21
71.2058
31
0
0
LINE
8
TEXTO
10
169.1725
20
71.2058
30
0
11
167.6412
21
71.2303
31
0
0
LINE
8
TEXTO
10
167.6412
20
71.2303
30
0
11
166.6245
21
71.2548
31
0
0
LINE
8
TEXTO
10
166.6245
20
71.2548
30
0
11
165.8527
21
71.3038
31
0
0
LINE
8
TEXTO
10
165.8527
20
71.3038
30
0
11
165.1055
21
71.3773
31
0
0
LINE
8
TEXTO
10
165.1055
20
71.3773
30
0
11
164.738
21
71.4385
31
0
0
LINE
8
TEXTO
10
164.738
20
71.4385
30
0
11
164.2357
21
71.6345
31
0
0
LINE
8
TEXTO
10
164.2357
20
71.6345
30
0
11
163.8437
21
71.8673
31
0
0
LINE
8
TEXTO
10
163.8437
20
71.8673
30
0
11
163.4272
21
72.2225
31
0
0
LINE
8
TEXTO
10
163.4272
20
72.2225
30
0
11
163.1577
21
72.7003
31
0
0
LINE
8
TEXTO
10
163.1577
20
72.7003
30
0
11
163.023
21
73.129
31
0
0
LINE
8
TEXTO
10
163.023
20
73.129
30
0
11
162.9372
21
73.5455
31
0
0
LINE
8
TEXTO
10
162.9372
20
73.5455
30
0
11
162.9862
21
73.962
31
0
0
LINE
8
TEXTO
10
162.9862
20
73.962
30
0
11
163.072
21
74.3663
31
0
0
LINE
8
TEXTO
10
163.072
20
74.3663
30
0
11
163.17
21
74.648
31
0
0
LINE
8
TEXTO
10
163.17
20
74.648
30
0
11
163.5007
21
75.3463
31
0
0
LINE
8
TEXTO
10
163.5007
20
75.3463
30
0
11
163.9907
21
76.0935
31
0
0
LINE
8
TEXTO
10
163.9907
20
76.0935
30
0
11
164.5787
21
76.853
31
0
0
LINE
8
TEXTO
10
164.5787
20
76.853
30
0
11
167.678
21
80.6138
31
0
0
LINE
8
TEXTO
10
167.678
20
80.6138
30
0
11
168.3395
21
81.2263
31
0
0
LINE
8
TEXTO
10
168.3395
20
81.2263
30
0
11
168.6457
21
81.4468
31
0
0
LINE
8
TEXTO
10
168.6457
20
81.4468
30
0
11
168.9887
21
81.5815
31
0
0
LINE
8
TEXTO
10
168.9887
20
81.5815
30
0
11
169.687
21
81.7775
31
0
0
LINE
8
TEXTO
10
169.687
20
81.7775
30
0
11
170.0912
21
81.8265
31
0
0
LINE
8
TEXTO
10
170.0912
20
81.8265
30
0
11
170.4955
21
81.7653
31
0
0
LINE
8
TEXTO
10
170.4955
20
81.7653
30
0
11
170.912
21
81.655
31
0
0
LINE
8
TEXTO
10
170.912
20
81.655
30
0
11
171.304
21
81.4835
31
0
0
LINE
8
TEXTO
10
171.304
20
81.4835
30
0
11
171.6347
21
81.214
31
0
0
LINE
8
TEXTO
10
171.6347
20
81.214
30
0
11
171.9287
21
80.8833
31
0
0
LINE
8
TEXTO
10
171.9287
20
80.8833
30
0
11
172.284
21
80.2953
31
0
0
LINE
8
TEXTO
10
172.284
20
80.2953
30
0
11
172.4432
21
79.7563
31
0
0
LINE
8
TEXTO
10
172.4432
20
79.7563
30
0
11
172.5045
21
79.45
31
0
0
LINE
8
TEXTO
10
172.5045
20
79.45
30
0
11
172.578
21
78.5558
31
0
0
LINE
8
TEXTO
10
172.578
20
78.5558
30
0
11
172.578
21
77.6248
31
0
0
LINE
8
TEXTO
10
172.578
20
77.6248
30
0
11
172.578
21
76.3263
31
0
0
LINE
8
TEXTO
10
172.578
20
76.3263
30
0
11
172.578
21
76.3263
31
0
0
LINE
8
TEXTO
10
111.3892
20
22.3283
30
0
11
99.8497
21
22.3283
31
0
0
LINE
8
TEXTO
10
99.8497
20
22.3283
30
0
11
99.0657
21
22.3773
31
0
0
LINE
8
TEXTO
10
99.0657
20
22.3773
30
0
11
98.6615
21
22.463
31
0
0
LINE
8
TEXTO
10
98.6615
20
22.463
30
0
11
98.196
21
22.6223
31
0
0
LINE
8
TEXTO
10
98.196
20
22.6223
30
0
11
97.657
21
22.9408
31
0
0
LINE
8
TEXTO
10
97.657
20
22.9408
30
0
11
97.363
21
23.2225
31
0
0
LINE
8
TEXTO
10
97.363
20
23.2225
30
0
11
97.0812
21
23.5655
31
0
0
LINE
8
TEXTO
10
97.0812
20
23.5655
30
0
11
96.9097
21
23.982
31
0
0
LINE
8
TEXTO
10
96.9097
20
23.982
30
0
11
96.8117
21
24.3495
31
0
0
LINE
8
TEXTO
10
96.8117
20
24.3495
30
0
11
96.775
21
24.7048
31
0
0
LINE
8
TEXTO
10
96.775
20
24.7048
30
0
11
96.8117
21
25.06
31
0
0
LINE
8
TEXTO
10
96.8117
20
25.06
30
0
11
96.8975
21
25.4765
31
0
0
LINE
8
TEXTO
10
96.8975
20
25.4765
30
0
11
97.069
21
25.9298
31
0
0
LINE
8
TEXTO
10
97.069
20
25.9298
30
0
11
97.314
21
26.3218
31
0
0
LINE
8
TEXTO
10
97.314
20
26.3218
30
0
11
97.4977
21
26.579
31
0
0
LINE
8
TEXTO
10
97.4977
20
26.579
30
0
11
97.755
21
26.8608
31
0
0
LINE
8
TEXTO
10
97.755
20
26.8608
30
0
11
98.245
21
27.3508
31
0
0
LINE
8
TEXTO
10
98.245
20
27.3508
30
0
11
98.8697
21
27.9633
31
0
0
LINE
8
TEXTO
10
98.8697
20
27.9633
30
0
11
99.666
21
28.7228
31
0
0
LINE
8
TEXTO
10
99.666
20
28.7228
30
0
11
101.1972
21
30.2295
31
0
0
LINE
8
TEXTO
10
101.1972
20
30.2295
30
0
11
102.459
21
31.6383
31
0
0
LINE
8
TEXTO
10
102.459
20
31.6383
30
0
11
103.5125
21
32.9858
31
0
0
LINE
8
TEXTO
10
103.5125
20
32.9858
30
0
11
104.3455
21
34.2598
31
0
0
LINE
8
TEXTO
10
104.3455
20
34.2598
30
0
11
104.2475
21
34.0638
31
0
0
LINE
8
TEXTO
10
104.2475
20
34.0638
30
0
11
104.8477
21
35.35
31
0
0
LINE
8
TEXTO
10
104.8477
20
35.35
30
0
11
104.7252
21
34.9825
31
0
0
LINE
8
TEXTO
10
104.7252
20
34.9825
30
0
11
104.9457
21
36.0605
31
0
0
LINE
8
TEXTO
10
104.9457
20
36.0605
30
0
11
104.9335
21
35.5338
31
0
0
LINE
8
TEXTO
10
104.9335
20
35.5338
30
0
11
104.811
21
36.3055
31
0
0
LINE
8
TEXTO
10
104.811
20
36.3055
30
0
11
105.0437
21
35.7053
31
0
0
LINE
8
TEXTO
10
105.0437
20
35.7053
30
0
11
104.664
21
36.2933
31
0
0
LINE
8
TEXTO
10
104.664
20
36.2933
30
0
11
105.0927
21
35.84
31
0
0
LINE
8
TEXTO
10
105.0927
20
35.84
30
0
11
104.517
21
36.2443
31
0
0
LINE
8
TEXTO
10
104.517
20
36.2443
30
0
11
105.1417
21
35.987
31
0
0
LINE
8
TEXTO
10
105.1417
20
35.987
30
0
11
104.3945
21
36.1095
31
0
0
LINE
8
TEXTO
10
104.3945
20
36.1095
30
0
11
104.7375
21
36.0973
31
0
0
LINE
8
TEXTO
10
104.7375
20
36.0973
30
0
11
104.0392
21
36.0483
31
0
0
LINE
8
TEXTO
10
104.0392
20
36.0483
30
0
11
104.3945
21
36.1218
31
0
0
LINE
8
TEXTO
10
104.3945
20
36.1218
30
0
11
103.88
21
35.9503
31
0
0
LINE
8
TEXTO
10
103.88
20
35.9503
30
0
11
104.3087
21
36.1708
31
0
0
LINE
8
TEXTO
10
104.3087
20
36.1708
30
0
11
103.6595
21
35.7053
31
0
0
LINE
8
TEXTO
10
103.6595
20
35.7053
30
0
11
102.5937
21
34.8233
31
0
0
LINE
8
TEXTO
10
102.5937
20
34.8233
30
0
11
102.3365
21
34.664
31
0
0
LINE
8
TEXTO
10
102.3365
20
34.664
30
0
11
101.8955
21
34.419
31
0
0
LINE
8
TEXTO
10
101.8955
20
34.419
30
0
11
101.3687
21
34.2598
31
0
0
LINE
8
TEXTO
10
101.3687
20
34.2598
30
0
11
100.8052
21
34.1863
31
0
0
LINE
8
TEXTO
10
100.8052
20
34.1863
30
0
11
100.303
21
34.2108
31
0
0
LINE
8
TEXTO
10
100.303
20
34.2108
30
0
11
99.5312
21
34.37
31
0
0
LINE
8
TEXTO
10
99.5312
20
34.37
30
0
11
98.9922
21
34.6028
31
0
0
LINE
8
TEXTO
10
98.9922
20
34.6028
30
0
11
98.294
21
35.0683
31
0
0
LINE
8
TEXTO
10
98.294
20
35.0683
30
0
11
97.951
21
35.3745
31
0
0
LINE
8
TEXTO
10
97.951
20
35.3745
30
0
11
97.4365
21
35.9993
31
0
0
LINE
8
TEXTO
10
97.4365
20
35.9993
30
0
11
97.1302
21
36.6363
31
0
0
LINE
8
TEXTO
10
97.1302
20
36.6363
30
0
11
96.971
21
37.359
31
0
0
LINE
8
TEXTO
10
96.971
20
37.359
30
0
11
96.971
21
38.045
31
0
0
LINE
8
TEXTO
10
96.971
20
38.045
30
0
11
97.1302
21
38.7555
31
0
0
LINE
8
TEXTO
10
97.1302
20
38.7555
30
0
11
97.2772
21
39.1353
31
0
0
LINE
8
TEXTO
10
97.2772
20
39.1353
30
0
11
97.7305
21
39.956
31
0
0
LINE
8
TEXTO
10
97.7305
20
39.956
30
0
11
97.9265
21
40.2378
31
0
0
LINE
8
TEXTO
10
97.9265
20
40.2378
30
0
11
98.6492
21
41.0585
31
0
0
LINE
8
TEXTO
10
98.6492
20
41.0585
30
0
11
98.8085
21
41.2055
31
0
0
LINE
8
TEXTO
10
98.8085
20
41.2055
30
0
11
99.715
21
41.9773
31
0
0
LINE
8
TEXTO
10
99.715
20
41.9773
30
0
11
99.8987
21
42.112
31
0
0
LINE
8
TEXTO
10
99.8987
20
42.112
30
0
11
101.7975
21
43.2758
31
0
0
LINE
8
TEXTO
10
101.7975
20
43.2758
30
0
11
102.018
21
43.3983
31
0
0
LINE
8
TEXTO
10
102.018
20
43.3983
30
0
11
104.027
21
44.219
31
0
0
LINE
8
TEXTO
10
104.027
20
44.219
30
0
11
104.2475
21
44.2803
31
0
0
LINE
8
TEXTO
10
104.2475
20
44.2803
30
0
11
106.3422
21
44.7948
31
0
0
LINE
8
TEXTO
10
106.3422
20
44.7948
30
0
11
106.5995
21
44.8315
31
0
0
LINE
8
TEXTO
10
106.5995
20
44.8315
30
0
11
108.7922
21
45.003
31
0
0
LINE
8
TEXTO
10
108.7922
20
45.003
30
0
11
110.6175
21
44.905
31
0
0
LINE
8
TEXTO
10
110.6175
20
44.905
30
0
11
112.2467
21
44.66
31
0
0
LINE
8
TEXTO
10
112.2467
20
44.66
30
0
11
112.4672
21
44.611
31
0
0
LINE
8
TEXTO
10
112.4672
20
44.611
30
0
11
113.8147
21
44.1945
31
0
0
LINE
8
TEXTO
10
113.8147
20
44.1945
30
0
11
114.0352
21
44.0965
31
0
0
LINE
8
TEXTO
10
114.0352
20
44.0965
30
0
11
115.2235
21
43.5208
31
0
0
LINE
8
TEXTO
10
115.2235
20
43.5208
30
0
11
115.5052
21
43.337
31
0
0
LINE
8
TEXTO
10
115.5052
20
43.337
30
0
11
116.4117
21
42.6143
31
0
0
LINE
8
TEXTO
10
116.4117
20
42.6143
30
0
11
116.6935
21
42.3448
31
0
0
LINE
8
TEXTO
10
116.6935
20
42.3448
30
0
11
117.4162
21
41.377
31
0
0
LINE
8
TEXTO
10
117.4162
20
41.377
30
0
11
117.6122
21
41.034
31
0
0
LINE
8
TEXTO
10
117.6122
20
41.034
30
0
11
118.0532
21
39.9315
31
0
0
LINE
8
TEXTO
10
118.0532
20
39.9315
30
0
11
118.1512
21
39.5763
31
0
0
LINE
8
TEXTO
10
118.1512
20
39.5763
30
0
11
118.3105
21
38.437
31
0
0
LINE
8
TEXTO
10
118.3105
20
38.437
30
0
11
118.3105
21
37.9593
31
0
0
LINE
8
TEXTO
10
118.3105
20
37.9593
30
0
11
118.0532
21
36.4158
31
0
0
LINE
8
TEXTO
10
118.0532
20
36.4158
30
0
11
117.9185
21
35.9993
31
0
0
LINE
8
TEXTO
10
117.9185
20
35.9993
30
0
11
117.1467
21
34.419
31
0
0
LINE
8
TEXTO
10
117.1467
20
34.419
30
0
11
116.9752
21
34.1373
31
0
0
LINE
8
TEXTO
10
116.9752
20
34.1373
30
0
11
115.6645
21
32.4713
31
0
0
LINE
8
TEXTO
10
115.6645
20
32.4713
30
0
11
113.729
21
30.597
31
0
0
LINE
8
TEXTO
10
113.729
20
30.597
30
0
11
113.0307
21
29.9723
31
0
0
LINE
8
TEXTO
10
113.0307
20
29.9723
30
0
11
112.7
21
29.5925
31
0
0
LINE
8
TEXTO
10
112.7
20
29.5925
30
0
11
112.847
21
29.7763
31
0
0
LINE
8
TEXTO
10
112.847
20
29.7763
30
0
11
112.5652
21
29.3598
31
0
0
LINE
8
TEXTO
10
112.5652
20
29.3598
30
0
11
112.7735
21
29.813
31
0
0
LINE
8
TEXTO
10
112.7735
20
29.813
30
0
11
112.6755
21
29.47
31
0
0
LINE
8
TEXTO
10
112.6755
20
29.47
30
0
11
112.6755
21
30.254
31
0
0
LINE
8
TEXTO
10
112.6755
20
30.254
30
0
11
112.798
21
29.813
31
0
0
LINE
8
TEXTO
10
112.798
20
29.813
30
0
11
112.4305
21
30.4623
31
0
0
LINE
8
TEXTO
10
112.4305
20
30.4623
30
0
11
112.7612
21
30.1193
31
0
0
LINE
8
TEXTO
10
112.7612
20
30.1193
30
0
11
112.3447
21
30.4378
31
0
0
LINE
8
TEXTO
10
112.3447
20
30.4378
30
0
11
112.8347
21
30.1805
31
0
0
LINE
8
TEXTO
10
112.8347
20
30.1805
30
0
11
112.3692
21
30.3275
31
0
0
LINE
8
TEXTO
10
112.3692
20
30.3275
30
0
11
112.945
21
30.2418
31
0
0
LINE
8
TEXTO
10
112.945
20
30.2418
30
0
11
112.553
21
30.254
31
0
0
LINE
8
TEXTO
10
112.553
20
30.254
30
0
11
113.2757
21
30.3153
31
0
0
LINE
8
TEXTO
10
113.2757
20
30.3153
30
0
11
112.945
21
30.254
31
0
0
LINE
8
TEXTO
10
112.945
20
30.254
30
0
11
113.6432
21
30.4868
31
0
0
LINE
8
TEXTO
10
113.6432
20
30.4868
30
0
11
113.3982
21
30.3765
31
0
0
LINE
8
TEXTO
10
113.3982
20
30.3765
30
0
11
114.0597
21
30.7318
31
0
0
LINE
8
TEXTO
10
114.0597
20
30.7318
30
0
11
113.7902
21
30.548
31
0
0
LINE
8
TEXTO
10
113.7902
20
30.548
30
0
11
114.3905
21
31.0625
31
0
0
LINE
8
TEXTO
10
114.3905
20
31.0625
30
0
11
114.8192
21
31.4668
31
0
0
LINE
8
TEXTO
10
114.8192
20
31.4668
30
0
11
115.248
21
31.8098
31
0
0
LINE
8
TEXTO
10
115.248
20
31.8098
30
0
11
115.8605
21
32.0915
31
0
0
LINE
8
TEXTO
10
115.8605
20
32.0915
30
0
11
116.3872
21
32.2018
31
0
0
LINE
8
TEXTO
10
116.3872
20
32.2018
30
0
11
116.7425
21
32.2385
31
0
0
LINE
8
TEXTO
10
116.7425
20
32.2385
30
0
11
117.0977
21
32.1895
31
0
0
LINE
8
TEXTO
10
117.0977
20
32.1895
30
0
11
117.747
21
32.0303
31
0
0
LINE
8
TEXTO
10
117.747
20
32.0303
30
0
11
118.1145
21
31.8833
31
0
0
LINE
8
TEXTO
10
118.1145
20
31.8833
30
0
11
118.433
21
31.6505
31
0
0
LINE
8
TEXTO
10
118.433
20
31.6505
30
0
11
118.923
21
31.185
31
0
0
LINE
8
TEXTO
10
118.923
20
31.185
30
0
11
119.1557
21
30.9033
31
0
0
LINE
8
TEXTO
10
119.1557
20
30.9033
30
0
11
119.315
21
30.5725
31
0
0
LINE
8
TEXTO
10
119.315
20
30.5725
30
0
11
119.5967
21
29.7518
31
0
0
LINE
8
TEXTO
10
119.5967
20
29.7518
30
0
11
119.6825
21
29.3843
31
0
0
LINE
8
TEXTO
10
119.6825
20
29.3843
30
0
11
119.7682
21
28.2573
31
0
0
LINE
8
TEXTO
10
119.7682
20
28.2573
30
0
11
119.7682
21
28
31
0
0
LINE
8
TEXTO
10
119.7682
20
28
30
0
11
119.658
21
26.7138
31
0
0
LINE
8
TEXTO
10
119.658
20
26.7138
30
0
11
119.5967
21
26.432
31
0
0
LINE
8
TEXTO
10
119.5967
20
26.432
30
0
11
119.2292
21
25.1213
31
0
0
LINE
8
TEXTO
10
119.2292
20
25.1213
30
0
11
119.1435
21
24.8885
31
0
0
LINE
8
TEXTO
10
119.1435
20
24.8885
30
0
11
118.5555
21
23.6513
31
0
0
LINE
8
TEXTO
10
118.5555
20
23.6513
30
0
11
118.4085
21
23.4063
31
0
0
LINE
8
TEXTO
10
118.4085
20
23.4063
30
0
11
117.6612
21
22.3773
31
0
0
LINE
8
TEXTO
10
117.6612
20
22.3773
30
0
11
117.3917
21
22.0955
31
0
0
LINE
8
TEXTO
10
117.3917
20
22.0955
30
0
11
116.4607
21
21.3238
31
0
0
LINE
8
TEXTO
10
116.4607
20
21.3238
30
0
11
116.179
21
21.1278
31
0
0
LINE
8
TEXTO
10
116.179
20
21.1278
30
0
11
115.8605
21
21.0175
31
0
0
LINE
8
TEXTO
10
115.8605
20
21.0175
30
0
11
114.8315
21
20.7603
31
0
0
LINE
8
TEXTO
10
114.8315
20
20.7603
30
0
11
114.464
21
20.7113
31
0
0
LINE
8
TEXTO
10
114.464
20
20.7113
30
0
11
114.0965
21
20.7603
31
0
0
LINE
8
TEXTO
10
114.0965
20
20.7603
30
0
11
113.4227
21
20.9195
31
0
0
LINE
8
TEXTO
10
113.4227
20
20.9195
30
0
11
113.0307
21
21.0788
31
0
0
LINE
8
TEXTO
10
113.0307
20
21.0788
30
0
11
112.6877
21
21.3238
31
0
0
LINE
8
TEXTO
10
112.6877
20
21.3238
30
0
11
112.4305
21
21.581
31
0
0
LINE
8
TEXTO
10
112.4305
20
21.581
30
0
11
111.9772
21
22.1445
31
0
0
LINE
8
TEXTO
10
111.9772
20
22.1445
30
0
11
111.671
21
22.561
31
0
0
LINE
8
TEXTO
10
111.671
20
22.561
30
0
11
111.9527
21
22.267
31
0
0
LINE
8
TEXTO
10
111.9527
20
22.267
30
0
11
111.6465
21
22.4998
31
0
0
LINE
8
TEXTO
10
111.6465
20
22.4998
30
0
11
112.259
21
22.218
31
0
0
LINE
8
TEXTO
10
112.259
20
22.218
30
0
11
111.8302
21
22.316
31
0
0
LINE
8
TEXTO
10
111.8302
20
22.316
30
0
11
112.063
21
22.2793
31
0
0
LINE
8
TEXTO
10
112.063
20
22.2793
30
0
11
111.3892
21
22.3283
31
0
0
LINE
8
TEXTO
10
111.3892
20
22.3283
30
0
11
111.3892
21
22.3283
31
0
0
LINE
8
TEXTO
10
112.2712
20
25.354
30
0
11
112.504
21
25.3173
31
0
0
LINE
8
TEXTO
10
112.504
20
25.3173
30
0
11
112.9205
21
25.2315
31
0
0
LINE
8
TEXTO
10
112.9205
20
25.2315
30
0
11
113.533
21
24.9498
31
0
0
LINE
8
TEXTO
10
113.533
20
24.9498
30
0
11
113.827
21
24.717
31
0
0
LINE
8
TEXTO
10
113.827
20
24.717
30
0
11
114.121
21
24.423
31
0
0
LINE
8
TEXTO
10
114.121
20
24.423
30
0
11
114.415
21
24.0433
31
0
0
LINE
8
TEXTO
10
114.415
20
24.0433
30
0
11
114.611
21
23.7615
31
0
0
LINE
8
TEXTO
10
114.611
20
23.7615
30
0
11
114.8682
21
23.5043
31
0
0
LINE
8
TEXTO
10
114.8682
20
23.5043
30
0
11
114.1455
21
23.9085
31
0
0
LINE
8
TEXTO
10
114.1455
20
23.9085
30
0
11
114.8192
21
23.7493
31
0
0
LINE
8
TEXTO
10
114.8192
20
23.7493
30
0
11
114.0842
21
23.7493
31
0
0
LINE
8
TEXTO
10
114.0842
20
23.7493
30
0
11
115.1132
21
24.0065
31
0
0
LINE
8
TEXTO
10
115.1132
20
24.0065
30
0
11
114.5007
21
23.7003
31
0
0
LINE
8
TEXTO
10
114.5007
20
23.7003
30
0
11
115.4317
21
24.472
31
0
0
LINE
8
TEXTO
10
115.4317
20
24.472
30
0
11
115.1745
21
24.1903
31
0
0
LINE
8
TEXTO
10
115.1745
20
24.1903
30
0
11
115.9217
21
25.2193
31
0
0
LINE
8
TEXTO
10
115.9217
20
25.2193
30
0
11
115.7747
21
24.962
31
0
0
LINE
8
TEXTO
10
115.7747
20
24.962
30
0
11
116.3505
21
26.1993
31
0
0
LINE
8
TEXTO
10
116.3505
20
26.1993
30
0
11
116.2647
21
25.9665
31
0
0
LINE
8
TEXTO
10
116.2647
20
25.9665
30
0
11
116.6322
21
27.2773
31
0
0
LINE
8
TEXTO
10
116.6322
20
27.2773
30
0
11
116.5832
21
26.9955
31
0
0
LINE
8
TEXTO
10
116.5832
20
26.9955
30
0
11
116.7057
21
28.2695
31
0
0
LINE
8
TEXTO
10
116.7057
20
28.2695
30
0
11
116.7057
21
28.0123
31
0
0
LINE
8
TEXTO
10
116.7057
20
28.0123
30
0
11
116.6077
21
29.127
31
0
0
LINE
8
TEXTO
10
116.6077
20
29.127
30
0
11
116.6812
21
28.7595
31
0
0
LINE
8
TEXTO
10
116.6812
20
28.7595
30
0
11
116.4117
21
29.568
31
0
0
LINE
8
TEXTO
10
116.4117
20
29.568
30
0
11
116.8037
21
28.9555
31
0
0
LINE
8
TEXTO
10
116.8037
20
28.9555
30
0
11
116.3137
21
29.421
31
0
0
LINE
8
TEXTO
10
116.3137
20
29.421
30
0
11
116.9997
21
29.0413
31
0
0
LINE
8
TEXTO
10
116.9997
20
29.0413
30
0
11
116.3505
21
29.2128
31
0
0
LINE
8
TEXTO
10
116.3505
20
29.2128
30
0
11
117.0487
21
29.2005
31
0
0
LINE
8
TEXTO
10
117.0487
20
29.2005
30
0
11
116.5097
21
29.078
31
0
0
LINE
8
TEXTO
10
116.5097
20
29.078
30
0
11
117.1222
21
29.3598
31
0
0
LINE
8
TEXTO
10
117.1222
20
29.3598
30
0
11
116.9385
21
29.2373
31
0
0
LINE
8
TEXTO
10
116.9385
20
29.2373
30
0
11
116.3872
21
28.7105
31
0
0
LINE
8
TEXTO
10
116.3872
20
28.7105
30
0
11
115.7747
21
28.196
31
0
0
LINE
8
TEXTO
10
115.7747
20
28.196
30
0
11
115.5052
21
28.0123
31
0
0
LINE
8
TEXTO
10
115.5052
20
28.0123
30
0
11
114.856
21
27.6693
31
0
0
LINE
8
TEXTO
10
114.856
20
27.6693
30
0
11
114.611
21
27.559
31
0
0
LINE
8
TEXTO
10
114.611
20
27.559
30
0
11
113.9127
21
27.3263
31
0
0
LINE
8
TEXTO
10
113.9127
20
27.3263
30
0
11
113.582
21
27.2528
31
0
0
LINE
8
TEXTO
10
113.582
20
27.2528
30
0
11
112.8592
21
27.1793
31
0
0
LINE
8
TEXTO
10
112.8592
20
27.1793
30
0
11
112.4672
21
27.1915
31
0
0
LINE
8
TEXTO
10
112.4672
20
27.1915
30
0
11
111.8792
21
27.2895
31
0
0
LINE
8
TEXTO
10
111.8792
20
27.2895
30
0
11
111.4137
21
27.4488
31
0
0
LINE
8
TEXTO
10
111.4137
20
27.4488
30
0
11
110.9237
21
27.706
31
0
0
LINE
8
TEXTO
10
110.9237
20
27.706
30
0
11
110.5072
21
28.0123
31
0
0
LINE
8
TEXTO
10
110.5072
20
28.0123
30
0
11
110.1765
21
28.3675
31
0
0
LINE
8
TEXTO
10
110.1765
20
28.3675
30
0
11
109.956
21
28.6738
31
0
0
LINE
8
TEXTO
10
109.956
20
28.6738
30
0
11
109.8212
21
29.029
31
0
0
LINE
8
TEXTO
10
109.8212
20
29.029
30
0
11
109.6987
21
29.47
31
0
0
LINE
8
TEXTO
10
109.6987
20
29.47
30
0
11
109.6497
21
29.862
31
0
0
LINE
8
TEXTO
10
109.6497
20
29.862
30
0
11
109.6987
21
30.254
31
0
0
LINE
8
TEXTO
10
109.6987
20
30.254
30
0
11
109.7967
21
30.6093
31
0
0
LINE
8
TEXTO
10
109.7967
20
30.6093
30
0
11
110.005
21
31.0625
31
0
0
LINE
8
TEXTO
10
110.005
20
31.0625
30
0
11
110.2867
21
31.4913
31
0
0
LINE
8
TEXTO
10
110.2867
20
31.4913
30
0
11
110.4215
21
31.6628
31
0
0
LINE
8
TEXTO
10
110.4215
20
31.6628
30
0
11
110.985
21
32.2753
31
0
0
LINE
8
TEXTO
10
110.985
20
32.2753
30
0
11
111.5975
21
32.8143
31
0
0
LINE
8
TEXTO
10
111.5975
20
32.8143
30
0
11
113.2512
21
34.3823
31
0
0
LINE
8
TEXTO
10
113.2512
20
34.3823
30
0
11
114.5497
21
36.036
31
0
0
LINE
8
TEXTO
10
114.5497
20
36.036
30
0
11
114.3782
21
35.7543
31
0
0
LINE
8
TEXTO
10
114.3782
20
35.7543
30
0
11
115.15
21
37.3468
31
0
0
LINE
8
TEXTO
10
115.15
20
37.3468
30
0
11
115.0152
21
36.9303
31
0
0
LINE
8
TEXTO
10
115.0152
20
36.9303
30
0
11
115.2725
21
38.4615
31
0
0
LINE
8
TEXTO
10
115.2725
20
38.4615
30
0
11
115.2602
21
37.996
31
0
0
LINE
8
TEXTO
10
115.2602
20
37.996
30
0
11
115.101
21
39.1353
31
0
0
LINE
8
TEXTO
10
115.101
20
39.1353
30
0
11
115.199
21
38.78
31
0
0
LINE
8
TEXTO
10
115.199
20
38.78
30
0
11
114.758
21
39.8825
31
0
0
LINE
8
TEXTO
10
114.758
20
39.8825
30
0
11
114.954
21
39.5273
31
0
0
LINE
8
TEXTO
10
114.954
20
39.5273
30
0
11
114.2312
21
40.4828
31
0
0
LINE
8
TEXTO
10
114.2312
20
40.4828
30
0
11
114.5007
21
40.201
31
0
0
LINE
8
TEXTO
10
114.5007
20
40.201
30
0
11
113.5942
21
40.9238
31
0
0
LINE
8
TEXTO
10
113.5942
20
40.9238
30
0
11
113.876
21
40.7523
31
0
0
LINE
8
TEXTO
10
113.876
20
40.7523
30
0
11
112.6755
21
41.3403
31
0
0
LINE
8
TEXTO
10
112.6755
20
41.3403
30
0
11
112.9082
21
41.2423
31
0
0
LINE
8
TEXTO
10
112.9082
20
41.2423
30
0
11
111.5485
21
41.671
31
0
0
LINE
8
TEXTO
10
111.5485
20
41.671
30
0
11
111.769
21
41.622
31
0
0
LINE
8
TEXTO
10
111.769
20
41.622
30
0
11
110.446
21
41.8303
31
0
0
LINE
8
TEXTO
10
110.446
20
41.8303
30
0
11
109.0127
21
41.9283
31
0
0
LINE
8
TEXTO
10
109.0127
20
41.9283
30
0
11
106.82
21
41.769
31
0
0
LINE
8
TEXTO
10
106.82
20
41.769
30
0
11
107.0772
21
41.8058
31
0
0
LINE
8
TEXTO
10
107.0772
20
41.8058
30
0
11
104.9702
21
41.2913
31
0
0
LINE
8
TEXTO
10
104.9702
20
41.2913
30
0
11
105.1907
21
41.3648
31
0
0
LINE
8
TEXTO
10
105.1907
20
41.3648
30
0
11
103.1817
21
40.544
31
0
0
LINE
8
TEXTO
10
103.1817
20
40.544
30
0
11
103.4145
21
40.6665
31
0
0
LINE
8
TEXTO
10
103.4145
20
40.6665
30
0
11
101.5157
21
39.4905
31
0
0
LINE
8
TEXTO
10
101.5157
20
39.4905
30
0
11
101.7117
21
39.6253
31
0
0
LINE
8
TEXTO
10
101.7117
20
39.6253
30
0
11
100.793
21
38.8535
31
0
0
LINE
8
TEXTO
10
100.793
20
38.8535
30
0
11
100.9522
21
39.0128
31
0
0
LINE
8
TEXTO
10
100.9522
20
39.0128
30
0
11
100.2295
21
38.192
31
0
0
LINE
8
TEXTO
10
100.2295
20
38.192
30
0
11
100.4377
21
38.486
31
0
0
LINE
8
TEXTO
10
100.4377
20
38.486
30
0
11
99.9845
21
37.6653
31
0
0
LINE
8
TEXTO
10
99.9845
20
37.6653
30
0
11
100.1315
21
38.045
31
0
0
LINE
8
TEXTO
10
100.1315
20
38.045
30
0
11
99.9722
21
37.3468
31
0
0
LINE
8
TEXTO
10
99.9722
20
37.3468
30
0
11
99.9722
21
38.045
31
0
0
LINE
8
TEXTO
10
99.9722
20
38.045
30
0
11
100.1437
21
37.3223
31
0
0
LINE
8
TEXTO
10
100.1437
20
37.3223
30
0
11
99.8252
21
37.947
31
0
0
LINE
8
TEXTO
10
99.8252
20
37.947
30
0
11
100.3397
21
37.3223
31
0
0
LINE
8
TEXTO
10
100.3397
20
37.3223
30
0
11
100.009
21
37.6285
31
0
0
LINE
8
TEXTO
10
100.009
20
37.6285
30
0
11
100.7072
21
37.163
31
0
0
LINE
8
TEXTO
10
100.7072
20
37.163
30
0
11
100.1682
21
37.3835
31
0
0
LINE
8
TEXTO
10
100.1682
20
37.3835
30
0
11
100.94
21
37.2243
31
0
0
LINE
8
TEXTO
10
100.94
20
37.2243
30
0
11
100.4255
21
37.2488
31
0
0
LINE
8
TEXTO
10
100.4255
20
37.2488
30
0
11
100.989
21
37.31
31
0
0
LINE
8
TEXTO
10
100.989
20
37.31
30
0
11
100.4622
21
37.1508
31
0
0
LINE
8
TEXTO
10
100.4622
20
37.1508
30
0
11
100.9032
21
37.3835
31
0
0
LINE
8
TEXTO
10
100.9032
20
37.3835
30
0
11
100.646
21
37.212
31
0
0
LINE
8
TEXTO
10
100.646
20
37.212
30
0
11
101.871
21
38.2043
31
0
0
LINE
8
TEXTO
10
101.871
20
38.2043
30
0
11
102.5202
21
38.6698
31
0
0
LINE
8
TEXTO
10
102.5202
20
38.6698
30
0
11
102.949
21
38.8903
31
0
0
LINE
8
TEXTO
10
102.949
20
38.8903
30
0
11
103.4635
21
39.0495
31
0
0
LINE
8
TEXTO
10
103.4635
20
39.0495
30
0
11
103.831
21
39.123
31
0
0
LINE
8
TEXTO
10
103.831
20
39.123
30
0
11
104.5292
21
39.172
31
0
0
LINE
8
TEXTO
10
104.5292
20
39.172
30
0
11
104.8722
21
39.1475
31
0
0
LINE
8
TEXTO
10
104.8722
20
39.1475
30
0
11
105.6195
21
39.0373
31
0
0
LINE
8
TEXTO
10
105.6195
20
39.0373
30
0
11
106.2442
21
38.7923
31
0
0
LINE
8
TEXTO
10
106.2442
20
38.7923
30
0
11
106.8322
21
38.388
31
0
0
LINE
8
TEXTO
10
106.8322
20
38.388
30
0
11
107.261
21
37.947
31
0
0
LINE
8
TEXTO
10
107.261
20
37.947
30
0
11
107.6285
21
37.359
31
0
0
LINE
8
TEXTO
10
107.6285
20
37.359
30
0
11
107.8612
21
36.771
31
0
0
LINE
8
TEXTO
10
107.8612
20
36.771
30
0
11
107.9715
21
35.9993
31
0
0
LINE
8
TEXTO
10
107.9715
20
35.9993
30
0
11
107.9592
21
35.4725
31
0
0
LINE
8
TEXTO
10
107.9592
20
35.4725
30
0
11
107.751
21
34.3945
31
0
0
LINE
8
TEXTO
10
107.751
20
34.3945
30
0
11
107.6407
21
34.027
31
0
0
LINE
8
TEXTO
10
107.6407
20
34.027
30
0
11
107.0282
21
32.753
31
0
0
LINE
8
TEXTO
10
107.0282
20
32.753
30
0
11
106.918
21
32.557
31
0
0
LINE
8
TEXTO
10
106.918
20
32.557
30
0
11
105.938
21
31.0748
31
0
0
LINE
8
TEXTO
10
105.938
20
31.0748
30
0
11
104.7497
21
29.5803
31
0
0
LINE
8
TEXTO
10
104.7497
20
29.5803
30
0
11
103.3532
21
28.0368
31
0
0
LINE
8
TEXTO
10
103.3532
20
28.0368
30
0
11
101.8097
21
26.5178
31
0
0
LINE
8
TEXTO
10
101.8097
20
26.5178
30
0
11
101.0135
21
25.746
31
0
0
LINE
8
TEXTO
10
101.0135
20
25.746
30
0
11
100.4255
21
25.1825
31
0
0
LINE
8
TEXTO
10
100.4255
20
25.1825
30
0
11
100.0335
21
24.7783
31
0
0
LINE
8
TEXTO
10
100.0335
20
24.7783
30
0
11
99.7762
21
24.5088
31
0
0
LINE
8
TEXTO
10
99.7762
20
24.5088
30
0
11
99.96
21
24.766
31
0
0
LINE
8
TEXTO
10
99.96
20
24.766
30
0
11
99.7272
21
24.3618
31
0
0
LINE
8
TEXTO
10
99.7272
20
24.3618
30
0
11
99.911
21
24.815
31
0
0
LINE
8
TEXTO
10
99.911
20
24.815
30
0
11
99.813
21
24.3985
31
0
0
LINE
8
TEXTO
10
99.813
20
24.3985
30
0
11
99.8007
21
25.0968
31
0
0
LINE
8
TEXTO
10
99.8007
20
25.0968
30
0
11
99.8987
21
24.7293
31
0
0
LINE
8
TEXTO
10
99.8987
20
24.7293
30
0
11
99.4455
21
25.4888
31
0
0
LINE
8
TEXTO
10
99.4455
20
25.4888
30
0
11
99.7517
21
25.207
31
0
0
LINE
8
TEXTO
10
99.7517
20
25.207
30
0
11
99.2127
21
25.5255
31
0
0
LINE
8
TEXTO
10
99.2127
20
25.5255
30
0
11
99.6782
21
25.3663
31
0
0
LINE
8
TEXTO
10
99.6782
20
25.3663
30
0
11
99.274
21
25.452
31
0
0
LINE
8
TEXTO
10
99.274
20
25.452
30
0
11
99.8497
21
25.403
31
0
0
LINE
8
TEXTO
10
99.8497
20
25.403
30
0
11
111.5975
21
25.403
31
0
0
LINE
8
TEXTO
10
111.5975
20
25.403
30
0
11
112.2712
21
25.354
31
0
0
LINE
8
TEXTO
10
112.2712
20
25.354
30
0
11
112.2712
21
25.354
31
0
0
LINE
8
TEXTO
10
129.017
20
45.1133
30
0
11
129.2497
21
45.1133
31
0
0
LINE
8
TEXTO
10
129.2497
20
45.1133
30
0
11
130.4135
21
45.052
31
0
0
LINE
8
TEXTO
10
130.4135
20
45.052
30
0
11
130.634
21
45.0153
31
0
0
LINE
8
TEXTO
10
130.634
20
45.0153
30
0
11
131.761
21
44.7825
31
0
0
LINE
8
TEXTO
10
131.761
20
44.7825
30
0
11
131.9937
21
44.7213
31
0
0
LINE
8
TEXTO
10
131.9937
20
44.7213
30
0
11
134.1987
21
43.876
31
0
0
LINE
8
TEXTO
10
134.1987
20
43.876
30
0
11
134.4805
21
43.7413
31
0
0
LINE
8
TEXTO
10
134.4805
20
43.7413
30
0
11
135.8525
21
42.8838
31
0
0
LINE
8
TEXTO
10
135.8525
20
42.8838
30
0
11
136.0607
21
42.7245
31
0
0
LINE
8
TEXTO
10
136.0607
20
42.7245
30
0
11
137.249
21
41.6833
31
0
0
LINE
8
TEXTO
10
137.249
20
41.6833
30
0
11
137.4327
21
41.4873
31
0
0
LINE
8
TEXTO
10
137.4327
20
41.4873
30
0
11
138.4372
21
40.2255
31
0
0
LINE
8
TEXTO
10
138.4372
20
40.2255
30
0
11
138.5597
21
40.0295
31
0
0
LINE
8
TEXTO
10
138.5597
20
40.0295
30
0
11
139.3805
21
38.6085
31
0
0
LINE
8
TEXTO
10
139.3805
20
38.6085
30
0
11
139.4907
21
38.3635
31
0
0
LINE
8
TEXTO
10
139.4907
20
38.3635
30
0
11
140.3115
21
36.0728
31
0
0
LINE
8
TEXTO
10
140.3115
20
36.0728
30
0
11
140.3972
21
35.7175
31
0
0
LINE
8
TEXTO
10
140.3972
20
35.7175
30
0
11
140.6545
21
33.292
31
0
0
LINE
8
TEXTO
10
140.6545
20
33.292
30
0
11
140.6545
21
32.9858
31
0
0
LINE
8
TEXTO
10
140.6545
20
32.9858
30
0
11
140.4462
21
30.793
31
0
0
LINE
8
TEXTO
10
140.4462
20
30.793
30
0
11
140.3727
21
30.45
31
0
0
LINE
8
TEXTO
10
140.3727
20
30.45
30
0
11
139.7235
21
28.4655
31
0
0
LINE
8
TEXTO
10
139.7235
20
28.4655
30
0
11
139.5642
21
28.147
31
0
0
LINE
8
TEXTO
10
139.5642
20
28.147
30
0
11
138.474
21
26.3708
31
0
0
LINE
8
TEXTO
10
138.474
20
26.3708
30
0
11
138.2535
21
26.1013
31
0
0
LINE
8
TEXTO
10
138.2535
20
26.1013
30
0
11
136.7222
21
24.5333
31
0
0
LINE
8
TEXTO
10
136.7222
20
24.5333
30
0
11
136.5017
21
24.3495
31
0
0
LINE
8
TEXTO
10
136.5017
20
24.3495
30
0
11
135.1175
21
23.394
31
0
0
LINE
8
TEXTO
10
135.1175
20
23.394
30
0
11
134.897
21
23.2593
31
0
0
LINE
8
TEXTO
10
134.897
20
23.2593
30
0
11
133.4025
21
22.561
31
0
0
LINE
8
TEXTO
10
133.4025
20
22.561
30
0
11
133.1452
21
22.4753
31
0
0
LINE
8
TEXTO
10
133.1452
20
22.4753
30
0
11
131.5895
21
22.0465
31
0
0
LINE
8
TEXTO
10
131.5895
20
22.0465
30
0
11
131.3077
21
21.9975
31
0
0
LINE
8
TEXTO
10
131.3077
20
21.9975
30
0
11
129.6295
21
21.8628
31
0
0
LINE
8
TEXTO
10
129.6295
20
21.8628
30
0
11
129.3722
21
21.8628
31
0
0
LINE
8
TEXTO
10
129.3722
20
21.8628
30
0
11
127.547
21
22.022
31
0
0
LINE
8
TEXTO
10
127.547
20
22.022
30
0
11
127.2897
21
22.071
31
0
0
LINE
8
TEXTO
10
127.2897
20
22.071
30
0
11
125.6115
21
22.512
31
0
0
LINE
8
TEXTO
10
125.6115
20
22.512
30
0
11
125.3297
21
22.6223
31
0
0
LINE
8
TEXTO
10
125.3297
20
22.6223
30
0
11
123.7617
21
23.394
31
0
0
LINE
8
TEXTO
10
123.7617
20
23.394
30
0
11
123.4922
21
23.5655
31
0
0
LINE
8
TEXTO
10
123.4922
20
23.5655
30
0
11
122.0957
21
24.6558
31
0
0
LINE
8
TEXTO
10
122.0957
20
24.6558
30
0
11
121.8752
21
24.864
31
0
0
LINE
8
TEXTO
10
121.8752
20
24.864
30
0
11
120.5032
21
26.4443
31
0
0
LINE
8
TEXTO
10
120.5032
20
26.4443
30
0
11
120.3072
21
26.726
31
0
0
LINE
8
TEXTO
10
120.3072
20
26.726
30
0
11
119.3272
21
28.5513
31
0
0
LINE
8
TEXTO
10
119.3272
20
28.5513
30
0
11
119.2047
21
28.8453
31
0
0
LINE
8
TEXTO
10
119.2047
20
28.8453
30
0
11
118.6045
21
30.9278
31
0
0
LINE
8
TEXTO
10
118.6045
20
30.9278
30
0
11
118.5432
21
31.234
31
0
0
LINE
8
TEXTO
10
118.5432
20
31.234
30
0
11
118.3595
21
33.5615
31
0
0
LINE
8
TEXTO
10
118.3595
20
33.5615
30
0
11
118.3595
21
33.8188
31
0
0
LINE
8
TEXTO
10
118.3595
20
33.8188
30
0
11
118.5432
21
36.0728
31
0
0
LINE
8
TEXTO
10
118.5432
20
36.0728
30
0
11
118.5922
21
36.3545
31
0
0
LINE
8
TEXTO
10
118.5922
20
36.3545
30
0
11
119.1312
21
38.339
31
0
0
LINE
8
TEXTO
10
119.1312
20
38.339
30
0
11
119.2415
21
38.633
31
0
0
LINE
8
TEXTO
10
119.2415
20
38.633
30
0
11
120.1235
21
40.3848
31
0
0
LINE
8
TEXTO
10
120.1235
20
40.3848
30
0
11
120.3195
21
40.6788
31
0
0
LINE
8
TEXTO
10
120.3195
20
40.6788
30
0
11
121.5812
21
42.1733
31
0
0
LINE
8
TEXTO
10
121.5812
20
42.1733
30
0
11
121.814
21
42.3938
31
0
0
LINE
8
TEXTO
10
121.814
20
42.3938
30
0
11
123.1737
21
43.4473
31
0
0
LINE
8
TEXTO
10
123.1737
20
43.4473
30
0
11
123.431
21
43.6065
31
0
0
LINE
8
TEXTO
10
123.431
20
43.6065
30
0
11
124.95
21
44.3538
31
0
0
LINE
8
TEXTO
10
124.95
20
44.3538
30
0
11
125.244
21
44.464
31
0
0
LINE
8
TEXTO
10
125.244
20
44.464
30
0
11
126.9222
21
44.905
31
0
0
LINE
8
TEXTO
10
126.9222
20
44.905
30
0
11
127.1795
21
44.954
31
0
0
LINE
8
TEXTO
10
127.1795
20
44.954
30
0
11
129.017
21
45.1133
31
0
0
LINE
8
TEXTO
10
129.017
20
45.1133
30
0
11
129.017
21
45.1133
31
0
0
LINE
8
TEXTO
10
127.449
20
41.8793
30
0
11
127.7062
21
41.9283
31
0
0
LINE
8
TEXTO
10
127.7062
20
41.9283
30
0
11
126.028
21
41.4873
31
0
0
LINE
8
TEXTO
10
126.028
20
41.4873
30
0
11
126.3097
21
41.5975
31
0
0
LINE
8
TEXTO
10
126.3097
20
41.5975
30
0
11
124.7907
21
40.8503
31
0
0
LINE
8
TEXTO
10
124.7907
20
40.8503
30
0
11
125.0602
21
41.0095
31
0
0
LINE
8
TEXTO
10
125.0602
20
41.0095
30
0
11
123.7005
21
39.956
31
0
0
LINE
8
TEXTO
10
123.7005
20
39.956
30
0
11
123.9455
21
40.1888
31
0
0
LINE
8
TEXTO
10
123.9455
20
40.1888
30
0
11
122.6837
21
38.6943
31
0
0
LINE
8
TEXTO
10
122.6837
20
38.6943
30
0
11
122.8797
21
38.9883
31
0
0
LINE
8
TEXTO
10
122.8797
20
38.9883
30
0
11
121.9855
21
37.2365
31
0
0
LINE
8
TEXTO
10
121.9855
20
37.2365
30
0
11
122.108
21
37.5305
31
0
0
LINE
8
TEXTO
10
122.108
20
37.5305
30
0
11
121.569
21
35.546
31
0
0
LINE
8
TEXTO
10
121.569
20
35.546
30
0
11
121.618
21
35.8278
31
0
0
LINE
8
TEXTO
10
121.618
20
35.8278
30
0
11
121.422
21
33.5615
31
0
0
LINE
8
TEXTO
10
121.422
20
33.5615
30
0
11
121.422
21
33.8065
31
0
0
LINE
8
TEXTO
10
121.422
20
33.8065
30
0
11
121.618
21
31.479
31
0
0
LINE
8
TEXTO
10
121.618
20
31.479
30
0
11
121.5567
21
31.7853
31
0
0
LINE
8
TEXTO
10
121.5567
20
31.7853
30
0
11
122.1692
21
29.715
31
0
0
LINE
8
TEXTO
10
122.1692
20
29.715
30
0
11
122.0467
21
30.009
31
0
0
LINE
8
TEXTO
10
122.0467
20
30.009
30
0
11
123.0267
21
28.1838
31
0
0
LINE
8
TEXTO
10
123.0267
20
28.1838
30
0
11
122.8307
21
28.4655
31
0
0
LINE
8
TEXTO
10
122.8307
20
28.4655
30
0
11
124.2027
21
26.8853
31
0
0
LINE
8
TEXTO
10
124.2027
20
26.8853
30
0
11
123.9945
21
27.0813
31
0
0
LINE
8
TEXTO
10
123.9945
20
27.0813
30
0
11
125.391
21
25.991
31
0
0
LINE
8
TEXTO
10
125.391
20
25.991
30
0
11
125.1215
21
26.1503
31
0
0
LINE
8
TEXTO
10
125.1215
20
26.1503
30
0
11
126.6895
21
25.3908
31
0
0
LINE
8
TEXTO
10
126.6895
20
25.3908
30
0
11
126.3955
21
25.4888
31
0
0
LINE
8
TEXTO
10
126.3955
20
25.4888
30
0
11
128.0737
21
25.0478
31
0
0
LINE
8
TEXTO
10
128.0737
20
25.0478
30
0
11
127.8287
21
25.0968
31
0
0
LINE
8
TEXTO
10
127.8287
20
25.0968
30
0
11
129.6417
21
24.9375
31
0
0
LINE
8
TEXTO
10
129.6417
20
24.9375
30
0
11
129.3722
21
24.9375
31
0
0
LINE
8
TEXTO
10
129.3722
20
24.9375
30
0
11
131.0627
21
25.0723
31
0
0
LINE
8
TEXTO
10
131.0627
20
25.0723
30
0
11
130.781
21
25.0233
31
0
0
LINE
8
TEXTO
10
130.781
20
25.0233
30
0
11
132.349
21
25.4398
31
0
0
LINE
8
TEXTO
10
132.349
20
25.4398
30
0
11
132.0917
21
25.354
31
0
0
LINE
8
TEXTO
10
132.0917
20
25.354
30
0
11
133.5862
21
26.0523
31
0
0
LINE
8
TEXTO
10
133.5862
20
26.0523
30
0
11
133.3657
21
25.9175
31
0
0
LINE
8
TEXTO
10
133.3657
20
25.9175
30
0
11
134.7377
21
26.873
31
0
0
LINE
8
TEXTO
10
134.7377
20
26.873
30
0
11
134.5172
21
26.6893
31
0
0
LINE
8
TEXTO
10
134.5172
20
26.6893
30
0
11
136.0607
21
28.2573
31
0
0
LINE
8
TEXTO
10
136.0607
20
28.2573
30
0
11
135.8525
21
27.9878
31
0
0
LINE
8
TEXTO
10
135.8525
20
27.9878
30
0
11
136.9427
21
29.764
31
0
0
LINE
8
TEXTO
10
136.9427
20
29.764
30
0
11
136.7957
21
29.4333
31
0
0
LINE
8
TEXTO
10
136.7957
20
29.4333
30
0
11
137.445
21
31.4178
31
0
0
LINE
8
TEXTO
10
137.445
20
31.4178
30
0
11
137.3715
21
31.087
31
0
0
LINE
8
TEXTO
10
137.3715
20
31.087
30
0
11
137.592
21
33.2798
31
0
0
LINE
8
TEXTO
10
137.592
20
33.2798
30
0
11
137.592
21
32.9613
31
0
0
LINE
8
TEXTO
10
137.592
20
32.9613
30
0
11
137.3347
21
35.3868
31
0
0
LINE
8
TEXTO
10
137.3347
20
35.3868
30
0
11
137.4082
21
35.0315
31
0
0
LINE
8
TEXTO
10
137.4082
20
35.0315
30
0
11
136.5997
21
37.3223
31
0
0
LINE
8
TEXTO
10
136.5997
20
37.3223
30
0
11
136.71
21
37.0773
31
0
0
LINE
8
TEXTO
10
136.71
20
37.0773
30
0
11
135.8892
21
38.4983
31
0
0
LINE
8
TEXTO
10
135.8892
20
38.4983
30
0
11
136.024
21
38.3023
31
0
0
LINE
8
TEXTO
10
136.024
20
38.3023
30
0
11
135.0195
21
39.564
31
0
0
LINE
8
TEXTO
10
135.0195
20
39.564
30
0
11
135.2032
21
39.368
31
0
0
LINE
8
TEXTO
10
135.2032
20
39.368
30
0
11
134.015
21
40.4215
31
0
0
LINE
8
TEXTO
10
134.015
20
40.4215
30
0
11
134.2232
21
40.2745
31
0
0
LINE
8
TEXTO
10
134.2232
20
40.2745
30
0
11
132.839
21
41.132
31
0
0
LINE
8
TEXTO
10
132.839
20
41.132
30
0
11
133.1085
21
40.9973
31
0
0
LINE
8
TEXTO
10
133.1085
20
40.9973
30
0
11
130.8912
21
41.8425
31
0
0
LINE
8
TEXTO
10
130.8912
20
41.8425
30
0
11
131.124
21
41.769
31
0
0
LINE
8
TEXTO
10
131.124
20
41.769
30
0
11
130.0092
21
42.0018
31
0
0
LINE
8
TEXTO
10
130.0092
20
42.0018
30
0
11
130.2297
21
41.9773
31
0
0
LINE
8
TEXTO
10
130.2297
20
41.9773
30
0
11
129.066
21
42.0385
31
0
0
LINE
8
TEXTO
10
129.066
20
42.0385
30
0
11
129.2865
21
42.0508
31
0
0
LINE
8
TEXTO
10
129.2865
20
42.0508
30
0
11
127.449
21
41.8793
31
0
0
LINE
8
TEXTO
10
127.449
20
41.8793
30
0
11
127.449
21
41.8793
31
0
0
LINE
8
TEXTO
10
128.38
20
37.0038
30
0
11
129.115
21
36.9915
31
0
0
LINE
8
TEXTO
10
129.115
20
36.9915
30
0
11
128.4045
21
36.8323
31
0
0
LINE
8
TEXTO
10
128.4045
20
36.8323
30
0
11
129.1762
21
37.2733
31
0
0
LINE
8
TEXTO
10
129.1762
20
37.2733
30
0
11
128.6862
21
36.7588
31
0
0
LINE
8
TEXTO
10
128.6862
20
36.7588
30
0
11
129.017
21
37.2978
31
0
0
LINE
8
TEXTO
10
129.017
20
37.2978
30
0
11
128.7107
21
36.4525
31
0
0
LINE
8
TEXTO
10
128.7107
20
36.4525
30
0
11
128.7965
21
36.8568
31
0
0
LINE
8
TEXTO
10
128.7965
20
36.8568
30
0
11
128.7107
21
35.6685
31
0
0
LINE
8
TEXTO
10
128.7107
20
35.6685
30
0
11
128.8087
21
34.1495
31
0
0
LINE
8
TEXTO
10
128.8087
20
34.1495
30
0
11
129.0292
21
32.6428
31
0
0
LINE
8
TEXTO
10
129.0292
20
32.6428
30
0
11
129.409
21
31.2953
31
0
0
LINE
8
TEXTO
10
129.409
20
31.2953
30
0
11
129.948
21
30.009
31
0
0
LINE
8
TEXTO
10
129.948
20
30.009
30
0
11
129.7642
21
30.3398
31
0
0
LINE
8
TEXTO
10
129.7642
20
30.3398
30
0
11
130.3645
21
29.519
31
0
0
LINE
8
TEXTO
10
130.3645
20
29.519
30
0
11
129.6417
21
30.058
31
0
0
LINE
8
TEXTO
10
129.6417
20
30.058
30
0
11
130.438
21
29.7763
31
0
0
LINE
8
TEXTO
10
130.438
20
29.7763
30
0
11
129.5682
21
29.813
31
0
0
LINE
8
TEXTO
10
129.5682
20
29.813
30
0
11
130.242
21
29.9845
31
0
0
LINE
8
TEXTO
10
130.242
20
29.9845
30
0
11
129.4702
21
29.519
31
0
0
LINE
8
TEXTO
10
129.4702
20
29.519
30
0
11
129.9602
21
30.058
31
0
0
LINE
8
TEXTO
10
129.9602
20
30.058
30
0
11
129.6417
21
29.5313
31
0
0
LINE
8
TEXTO
10
129.6417
20
29.5313
30
0
11
129.948
21
30.3888
31
0
0
LINE
8
TEXTO
10
129.948
20
30.3888
30
0
11
129.8622
21
30.009
31
0
0
LINE
8
TEXTO
10
129.8622
20
30.009
30
0
11
129.948
21
31.1973
31
0
0
LINE
8
TEXTO
10
129.948
20
31.1973
30
0
11
129.8622
21
32.5693
31
0
0
LINE
8
TEXTO
10
129.8622
20
32.5693
30
0
11
129.6417
21
34.1495
31
0
0
LINE
8
TEXTO
10
129.6417
20
34.1495
30
0
11
129.2742
21
35.5828
31
0
0
LINE
8
TEXTO
10
129.2742
20
35.5828
30
0
11
128.8577
21
36.673
31
0
0
LINE
8
TEXTO
10
128.8577
20
36.673
30
0
11
128.9557
21
36.4525
31
0
0
LINE
8
TEXTO
10
128.9557
20
36.4525
30
0
11
128.6495
21
36.9915
31
0
0
LINE
8
TEXTO
10
128.6495
20
36.9915
30
0
11
128.8455
21
36.7343
31
0
0
LINE
8
TEXTO
10
128.8455
20
36.7343
30
0
11
128.4902
21
37.1263
31
0
0
LINE
8
TEXTO
10
128.4902
20
37.1263
30
0
11
128.8945
21
36.7955
31
0
0
LINE
8
TEXTO
10
128.8945
20
36.7955
30
0
11
128.478
21
37.0283
31
0
0
LINE
8
TEXTO
10
128.478
20
37.0283
30
0
11
128.8577
21
36.8813
31
0
0
LINE
8
TEXTO
10
128.8577
20
36.8813
30
0
11
128.38
21
37.0038
31
0
0
LINE
8
TEXTO
10
128.38
20
37.0038
30
0
11
128.38
21
37.0038
31
0
0
LINE
8
TEXTO
10
129.605
20
39.8703
30
0
11
129.9725
21
39.7233
31
0
0
LINE
8
TEXTO
10
129.9725
20
39.7233
30
0
11
130.389
21
39.4905
31
0
0
LINE
8
TEXTO
10
130.389
20
39.4905
30
0
11
130.8055
21
39.1598
31
0
0
LINE
8
TEXTO
10
130.8055
20
39.1598
30
0
11
131.1485
21
38.7678
31
0
0
LINE
8
TEXTO
10
131.1485
20
38.7678
30
0
11
131.3322
21
38.5105
31
0
0
LINE
8
TEXTO
10
131.3322
20
38.5105
30
0
11
131.6385
21
37.9715
31
0
0
LINE
8
TEXTO
10
131.6385
20
37.9715
30
0
11
131.7487
21
37.751
31
0
0
LINE
8
TEXTO
10
131.7487
20
37.751
30
0
11
132.2632
21
36.33
31
0
0
LINE
8
TEXTO
10
132.2632
20
36.33
30
0
11
132.692
21
34.5783
31
0
0
LINE
8
TEXTO
10
132.692
20
34.5783
30
0
11
132.937
21
32.753
31
0
0
LINE
8
TEXTO
10
132.937
20
32.753
30
0
11
133.0227
21
30.9523
31
0
0
LINE
8
TEXTO
10
133.0227
20
30.9523
30
0
11
132.937
21
29.764
31
0
0
LINE
8
TEXTO
10
132.937
20
29.764
30
0
11
132.8512
21
29.372
31
0
0
LINE
8
TEXTO
10
132.8512
20
29.372
30
0
11
132.545
21
28.5145
31
0
0
LINE
8
TEXTO
10
132.545
20
28.5145
30
0
11
132.2265
21
27.9878
31
0
0
LINE
8
TEXTO
10
132.2265
20
27.9878
30
0
11
131.7365
21
27.4488
31
0
0
LINE
8
TEXTO
10
131.7365
20
27.4488
30
0
11
131.3812
21
27.1548
31
0
0
LINE
8
TEXTO
10
131.3812
20
27.1548
30
0
11
130.9647
21
26.9833
31
0
0
LINE
8
TEXTO
10
130.9647
20
26.9833
30
0
11
130.291
21
26.824
31
0
0
LINE
8
TEXTO
10
130.291
20
26.824
30
0
11
129.85
21
26.7873
31
0
0
LINE
8
TEXTO
10
129.85
20
26.7873
30
0
11
129.409
21
26.873
31
0
0
LINE
8
TEXTO
10
129.409
20
26.873
30
0
11
128.625
21
27.1548
31
0
0
LINE
8
TEXTO
10
128.625
20
27.1548
30
0
11
128.2207
21
27.363
31
0
0
LINE
8
TEXTO
10
128.2207
20
27.363
30
0
11
127.9022
21
27.6815
31
0
0
LINE
8
TEXTO
10
127.9022
20
27.6815
30
0
11
127.2897
21
28.5023
31
0
0
LINE
8
TEXTO
10
127.2897
20
28.5023
30
0
11
127.106
21
28.833
31
0
0
LINE
8
TEXTO
10
127.106
20
28.833
30
0
11
126.4322
21
30.4868
31
0
0
LINE
8
TEXTO
10
126.4322
20
30.4868
30
0
11
125.979
21
32.214
31
0
0
LINE
8
TEXTO
10
125.979
20
32.214
30
0
11
125.734
21
33.978
31
0
0
LINE
8
TEXTO
10
125.734
20
33.978
30
0
11
125.636
21
35.9135
31
0
0
LINE
8
TEXTO
10
125.636
20
35.9135
30
0
11
125.734
21
37.1018
31
0
0
LINE
8
TEXTO
10
125.734
20
37.1018
30
0
11
125.8197
21
37.506
31
0
0
LINE
8
TEXTO
10
125.8197
20
37.506
30
0
11
126.126
21
38.339
31
0
0
LINE
8
TEXTO
10
126.126
20
38.339
30
0
11
126.2607
21
38.633
31
0
0
LINE
8
TEXTO
10
126.2607
20
38.633
30
0
11
126.4567
21
38.878
31
0
0
LINE
8
TEXTO
10
126.4567
20
38.878
30
0
11
126.9467
21
39.3925
31
0
0
LINE
8
TEXTO
10
126.9467
20
39.3925
30
0
11
127.2897
21
39.662
31
0
0
LINE
8
TEXTO
10
127.2897
20
39.662
30
0
11
127.7062
21
39.8335
31
0
0
LINE
8
TEXTO
10
127.7062
20
39.8335
30
0
11
128.4045
21
39.9928
31
0
0
LINE
8
TEXTO
10
128.4045
20
39.9928
30
0
11
128.772
21
40.0295
31
0
0
LINE
8
TEXTO
10
128.772
20
40.0295
30
0
11
129.1272
21
39.9928
31
0
0
LINE
8
TEXTO
10
129.1272
20
39.9928
30
0
11
129.605
21
39.8703
31
0
0
LINE
8
TEXTO
10
129.605
20
39.8703
30
0
11
129.605
21
39.8703
31
0
0
LINE
8
TEXTO
10
150.0257
20
45.1133
30
0
11
150.2462
21
45.1133
31
0
0
LINE
8
TEXTO
10
150.2462
20
45.1133
30
0
11
151.41
21
45.052
31
0
0
LINE
8
TEXTO
10
151.41
20
45.052
30
0
11
151.6305
21
45.0153
31
0
0
LINE
8
TEXTO
10
151.6305
20
45.0153
30
0
11
152.7575
21
44.7825
31
0
0
LINE
8
TEXTO
10
152.7575
20
44.7825
30
0
11
152.9902
21
44.7213
31
0
0
LINE
8
TEXTO
10
152.9902
20
44.7213
30
0
11
155.2075
21
43.876
31
0
0
LINE
8
TEXTO
10
155.2075
20
43.876
30
0
11
155.477
21
43.7413
31
0
0
LINE
8
TEXTO
10
155.477
20
43.7413
30
0
11
156.849
21
42.8838
31
0
0
LINE
8
TEXTO
10
156.849
20
42.8838
30
0
11
157.0572
21
42.7245
31
0
0
LINE
8
TEXTO
10
157.0572
20
42.7245
30
0
11
158.2455
21
41.6833
31
0
0
LINE
8
TEXTO
10
158.2455
20
41.6833
30
0
11
158.4292
21
41.4873
31
0
0
LINE
8
TEXTO
10
158.4292
20
41.4873
30
0
11
159.4337
21
40.2255
31
0
0
LINE
8
TEXTO
10
159.4337
20
40.2255
30
0
11
159.5685
21
40.0295
31
0
0
LINE
8
TEXTO
10
159.5685
20
40.0295
30
0
11
160.377
21
38.6085
31
0
0
LINE
8
TEXTO
10
160.377
20
38.6085
30
0
11
160.4995
21
38.3635
31
0
0
LINE
8
TEXTO
10
160.4995
20
38.3635
30
0
11
161.308
21
36.0728
31
0
0
LINE
8
TEXTO
10
161.308
20
36.0728
30
0
11
161.3937
21
35.7298
31
0
0
LINE
8
TEXTO
10
161.3937
20
35.7298
30
0
11
161.6755
21
33.3043
31
0
0
LINE
8
TEXTO
10
161.6755
20
33.3043
30
0
11
161.6755
21
32.9613
31
0
0
LINE
8
TEXTO
10
161.6755
20
32.9613
30
0
11
161.4427
21
30.7685
31
0
0
LINE
8
TEXTO
10
161.4427
20
30.7685
30
0
11
161.3692
21
30.45
31
0
0
LINE
8
TEXTO
10
161.3692
20
30.45
30
0
11
160.72
21
28.4655
31
0
0
LINE
8
TEXTO
10
160.72
20
28.4655
30
0
11
160.5607
21
28.147
31
0
0
LINE
8
TEXTO
10
160.5607
20
28.147
30
0
11
159.4705
21
26.3708
31
0
0
LINE
8
TEXTO
10
159.4705
20
26.3708
30
0
11
159.2622
21
26.1013
31
0
0
LINE
8
TEXTO
10
159.2622
20
26.1013
30
0
11
157.7187
21
24.5333
31
0
0
LINE
8
TEXTO
10
157.7187
20
24.5333
30
0
11
157.4982
21
24.3495
31
0
0
LINE
8
TEXTO
10
157.4982
20
24.3495
30
0
11
156.1262
21
23.394
31
0
0
LINE
8
TEXTO
10
156.1262
20
23.394
30
0
11
155.8935
21
23.2593
31
0
0
LINE
8
TEXTO
10
155.8935
20
23.2593
30
0
11
154.399
21
22.561
31
0
0
LINE
8
TEXTO
10
154.399
20
22.561
30
0
11
154.154
21
22.4753
31
0
0
LINE
8
TEXTO
10
154.154
20
22.4753
30
0
11
152.586
21
22.0465
31
0
0
LINE
8
TEXTO
10
152.586
20
22.0465
30
0
11
152.3165
21
21.9975
31
0
0
LINE
8
TEXTO
10
152.3165
20
21.9975
30
0
11
150.6382
21
21.8628
31
0
0
LINE
8
TEXTO
10
150.6382
20
21.8628
30
0
11
150.3687
21
21.8628
31
0
0
LINE
8
TEXTO
10
150.3687
20
21.8628
30
0
11
148.5435
21
22.022
31
0
0
LINE
8
TEXTO
10
148.5435
20
22.022
30
0
11
148.2985
21
22.071
31
0
0
LINE
8
TEXTO
10
148.2985
20
22.071
30
0
11
146.608
21
22.512
31
0
0
LINE
8
TEXTO
10
146.608
20
22.512
30
0
11
146.3262
21
22.6223
31
0
0
LINE
8
TEXTO
10
146.3262
20
22.6223
30
0
11
144.7582
21
23.394
31
0
0
LINE
8
TEXTO
10
144.7582
20
23.394
30
0
11
144.4887
21
23.5655
31
0
0
LINE
8
TEXTO
10
144.4887
20
23.5655
30
0
11
143.0922
21
24.6558
31
0
0
LINE
8
TEXTO
10
143.0922
20
24.6558
30
0
11
142.884
21
24.864
31
0
0
LINE
8
TEXTO
10
142.884
20
24.864
30
0
11
141.4997
21
26.4443
31
0
0
LINE
8
TEXTO
10
141.4997
20
26.4443
30
0
11
141.3037
21
26.726
31
0
0
LINE
8
TEXTO
10
141.3037
20
26.726
30
0
11
140.3237
21
28.5513
31
0
0
LINE
8
TEXTO
10
140.3237
20
28.5513
30
0
11
140.2135
21
28.8453
31
0
0
LINE
8
TEXTO
10
140.2135
20
28.8453
30
0
11
139.601
21
30.9278
31
0
0
LINE
8
TEXTO
10
139.601
20
30.9278
30
0
11
139.5397
21
31.234
31
0
0
LINE
8
TEXTO
10
139.5397
20
31.234
30
0
11
139.356
21
33.5615
31
0
0
LINE
8
TEXTO
10
139.356
20
33.5615
30
0
11
139.356
21
33.8188
31
0
0
LINE
8
TEXTO
10
139.356
20
33.8188
30
0
11
139.5397
21
36.0728
31
0
0
LINE
8
TEXTO
10
139.5397
20
36.0728
30
0
11
139.5887
21
36.3545
31
0
0
LINE
8
TEXTO
10
139.5887
20
36.3545
30
0
11
140.1277
21
38.339
31
0
0
LINE
8
TEXTO
10
140.1277
20
38.339
30
0
11
140.2502
21
38.6453
31
0
0
LINE
8
TEXTO
10
140.2502
20
38.6453
30
0
11
141.1567
21
40.397
31
0
0
LINE
8
TEXTO
10
141.1567
20
40.397
30
0
11
141.3527
21
40.6788
31
0
0
LINE
8
TEXTO
10
141.3527
20
40.6788
30
0
11
142.6145
21
42.1733
31
0
0
LINE
8
TEXTO
10
142.6145
20
42.1733
30
0
11
142.8472
21
42.3938
31
0
0
LINE
8
TEXTO
10
142.8472
20
42.3938
30
0
11
144.1947
21
43.4473
31
0
0
LINE
8
TEXTO
10
144.1947
20
43.4473
30
0
11
144.452
21
43.6065
31
0
0
LINE
8
TEXTO
10
144.452
20
43.6065
30
0
11
145.9465
21
44.3538
31
0
0
LINE
8
TEXTO
10
145.9465
20
44.3538
30
0
11
146.2405
21
44.464
31
0
0
LINE
8
TEXTO
10
146.2405
20
44.464
30
0
11
147.9187
21
44.905
31
0
0
LINE
8
TEXTO
10
147.9187
20
44.905
30
0
11
148.176
21
44.954
31
0
0
LINE
8
TEXTO
10
148.176
20
44.954
30
0
11
150.0257
21
45.1133
31
0
0
LINE
8
TEXTO
10
150.0257
20
45.1133
30
0
11
150.0257
21
45.1133
31
0
0
LINE
8
TEXTO
10
148.4455
20
41.8793
30
0
11
148.7027
21
41.9283
31
0
0
LINE
8
TEXTO
10
148.7027
20
41.9283
30
0
11
147.0245
21
41.4873
31
0
0
LINE
8
TEXTO
10
147.0245
20
41.4873
30
0
11
147.3185
21
41.5975
31
0
0
LINE
8
TEXTO
10
147.3185
20
41.5975
30
0
11
145.824
21
40.8503
31
0
0
LINE
8
TEXTO
10
145.824
20
40.8503
30
0
11
146.0812
21
41.0095
31
0
0
LINE
8
TEXTO
10
146.0812
20
41.0095
30
0
11
144.7337
21
39.956
31
0
0
LINE
8
TEXTO
10
144.7337
20
39.956
30
0
11
144.9665
21
40.1888
31
0
0
LINE
8
TEXTO
10
144.9665
20
40.1888
30
0
11
143.7047
21
38.6943
31
0
0
LINE
8
TEXTO
10
143.7047
20
38.6943
30
0
11
143.8885
21
38.976
31
0
0
LINE
8
TEXTO
10
143.8885
20
38.976
30
0
11
142.982
21
37.2243
31
0
0
LINE
8
TEXTO
10
142.982
20
37.2243
30
0
11
143.1045
21
37.5305
31
0
0
LINE
8
TEXTO
10
143.1045
20
37.5305
30
0
11
142.5655
21
35.546
31
0
0
LINE
8
TEXTO
10
142.5655
20
35.546
30
0
11
142.6145
21
35.8278
31
0
0
LINE
8
TEXTO
10
142.6145
20
35.8278
30
0
11
142.4307
21
33.5615
31
0
0
LINE
8
TEXTO
10
142.4307
20
33.5615
30
0
11
142.4307
21
33.8065
31
0
0
LINE
8
TEXTO
10
142.4307
20
33.8065
30
0
11
142.6145
21
31.479
31
0
0
LINE
8
TEXTO
10
142.6145
20
31.479
30
0
11
142.5532
21
31.7853
31
0
0
LINE
8
TEXTO
10
142.5532
20
31.7853
30
0
11
143.1657
21
29.715
31
0
0
LINE
8
TEXTO
10
143.1657
20
29.715
30
0
11
143.0432
21
30.009
31
0
0
LINE
8
TEXTO
10
143.0432
20
30.009
30
0
11
144.0232
21
28.1838
31
0
0
LINE
8
TEXTO
10
144.0232
20
28.1838
30
0
11
143.8272
21
28.4655
31
0
0
LINE
8
TEXTO
10
143.8272
20
28.4655
30
0
11
145.2115
21
26.8853
31
0
0
LINE
8
TEXTO
10
145.2115
20
26.8853
30
0
11
144.991
21
27.0813
31
0
0
LINE
8
TEXTO
10
144.991
20
27.0813
30
0
11
146.3875
21
25.991
31
0
0
LINE
8
TEXTO
10
146.3875
20
25.991
30
0
11
146.118
21
26.1503
31
0
0
LINE
8
TEXTO
10
146.118
20
26.1503
30
0
11
147.686
21
25.3908
31
0
0
LINE
8
TEXTO
10
147.686
20
25.3908
30
0
11
147.4042
21
25.4888
31
0
0
LINE
8
TEXTO
10
147.4042
20
25.4888
30
0
11
149.0825
21
25.0478
31
0
0
LINE
8
TEXTO
10
149.0825
20
25.0478
30
0
11
148.8252
21
25.0968
31
0
0
LINE
8
TEXTO
10
148.8252
20
25.0968
30
0
11
150.6382
21
24.9375
31
0
0
LINE
8
TEXTO
10
150.6382
20
24.9375
30
0
11
150.381
21
24.9375
31
0
0
LINE
8
TEXTO
10
150.381
20
24.9375
30
0
11
152.0592
21
25.0723
31
0
0
LINE
8
TEXTO
10
152.0592
20
25.0723
30
0
11
151.7897
21
25.0233
31
0
0
LINE
8
TEXTO
10
151.7897
20
25.0233
30
0
11
153.3455
21
25.4398
31
0
0
LINE
8
TEXTO
10
153.3455
20
25.4398
30
0
11
153.1005
21
25.354
31
0
0
LINE
8
TEXTO
10
153.1005
20
25.354
30
0
11
154.5827
21
26.0523
31
0
0
LINE
8
TEXTO
10
154.5827
20
26.0523
30
0
11
154.3622
21
25.9175
31
0
0
LINE
8
TEXTO
10
154.3622
20
25.9175
30
0
11
155.7342
21
26.873
31
0
0
LINE
8
TEXTO
10
155.7342
20
26.873
30
0
11
155.526
21
26.6893
31
0
0
LINE
8
TEXTO
10
155.526
20
26.6893
30
0
11
157.0572
21
28.2573
31
0
0
LINE
8
TEXTO
10
157.0572
20
28.2573
30
0
11
156.849
21
27.9878
31
0
0
LINE
8
TEXTO
10
156.849
20
27.9878
30
0
11
157.9515
21
29.764
31
0
0
LINE
8
TEXTO
10
157.9515
20
29.764
30
0
11
157.7922
21
29.4333
31
0
0
LINE
8
TEXTO
10
157.7922
20
29.4333
30
0
11
158.4415
21
31.4178
31
0
0
LINE
8
TEXTO
10
158.4415
20
31.4178
30
0
11
158.3802
21
31.0993
31
0
0
LINE
8
TEXTO
10
158.3802
20
31.0993
30
0
11
158.613
21
33.292
31
0
0
LINE
8
TEXTO
10
158.613
20
33.292
30
0
11
158.613
21
32.949
31
0
0
LINE
8
TEXTO
10
158.613
20
32.949
30
0
11
158.3312
21
35.3745
31
0
0
LINE
8
TEXTO
10
158.3312
20
35.3745
30
0
11
158.417
21
35.0315
31
0
0
LINE
8
TEXTO
10
158.417
20
35.0315
30
0
11
157.5962
21
37.3223
31
0
0
LINE
8
TEXTO
10
157.5962
20
37.3223
30
0
11
157.7065
21
37.0773
31
0
0
LINE
8
TEXTO
10
157.7065
20
37.0773
30
0
11
156.898
21
38.4983
31
0
0
LINE
8
TEXTO
10
156.898
20
38.4983
30
0
11
157.0205
21
38.3023
31
0
0
LINE
8
TEXTO
10
157.0205
20
38.3023
30
0
11
156.016
21
39.564
31
0
0
LINE
8
TEXTO
10
156.016
20
39.564
30
0
11
156.212
21
39.368
31
0
0
LINE
8
TEXTO
10
156.212
20
39.368
30
0
11
155.0115
21
40.4215
31
0
0
LINE
8
TEXTO
10
155.0115
20
40.4215
30
0
11
155.2197
21
40.2745
31
0
0
LINE
8
TEXTO
10
155.2197
20
40.2745
30
0
11
153.8355
21
41.132
31
0
0
LINE
8
TEXTO
10
153.8355
20
41.132
30
0
11
154.1172
21
40.9973
31
0
0
LINE
8
TEXTO
10
154.1172
20
40.9973
30
0
11
151.9
21
41.8425
31
0
0
LINE
8
TEXTO
10
151.9
20
41.8425
30
0
11
152.1327
21
41.769
31
0
0
LINE
8
TEXTO
10
152.1327
20
41.769
30
0
11
151.0057
21
42.0018
31
0
0
LINE
8
TEXTO
10
151.0057
20
42.0018
30
0
11
151.2262
21
41.9773
31
0
0
LINE
8
TEXTO
10
151.2262
20
41.9773
30
0
11
150.0625
21
42.0385
31
0
0
LINE
8
TEXTO
10
150.0625
20
42.0385
30
0
11
150.2952
21
42.0508
31
0
0
LINE
8
TEXTO
10
150.2952
20
42.0508
30
0
11
148.4455
21
41.8793
31
0
0
LINE
8
TEXTO
10
148.4455
20
41.8793
30
0
11
148.4455
21
41.8793
31
0
0
LINE
8
TEXTO
10
149.3887
20
37.0038
30
0
11
150.1115
21
36.9915
31
0
0
LINE
8
TEXTO
10
150.1115
20
36.9915
30
0
11
149.4132
21
36.8323
31
0
0
LINE
8
TEXTO
10
149.4132
20
36.8323
30
0
11
150.1727
21
37.2733
31
0
0
LINE
8
TEXTO
10
150.1727
20
37.2733
30
0
11
149.6827
21
36.7588
31
0
0
LINE
8
TEXTO
10
149.6827
20
36.7588
30
0
11
150.0135
21
37.2978
31
0
0
LINE
8
TEXTO
10
150.0135
20
37.2978
30
0
11
149.7195
21
36.4525
31
0
0
LINE
8
TEXTO
10
149.7195
20
36.4525
30
0
11
149.8052
21
36.8568
31
0
0
LINE
8
TEXTO
10
149.8052
20
36.8568
30
0
11
149.7072
21
35.6685
31
0
0
LINE
8
TEXTO
10
149.7072
20
35.6685
30
0
11
149.8052
21
34.1495
31
0
0
LINE
8
TEXTO
10
149.8052
20
34.1495
30
0
11
150.0257
21
32.6428
31
0
0
LINE
8
TEXTO
10
150.0257
20
32.6428
30
0
11
150.4055
21
31.2953
31
0
0
LINE
8
TEXTO
10
150.4055
20
31.2953
30
0
11
150.9445
21
30.009
31
0
0
LINE
8
TEXTO
10
150.9445
20
30.009
30
0
11
150.7607
21
30.3398
31
0
0
LINE
8
TEXTO
10
150.7607
20
30.3398
30
0
11
151.3732
21
29.519
31
0
0
LINE
8
TEXTO
10
151.3732
20
29.519
30
0
11
150.6505
21
30.058
31
0
0
LINE
8
TEXTO
10
150.6505
20
30.058
30
0
11
151.4345
21
29.7763
31
0
0
LINE
8
TEXTO
10
151.4345
20
29.7763
30
0
11
150.5647
21
29.813
31
0
0
LINE
8
TEXTO
10
150.5647
20
29.813
30
0
11
151.2385
21
29.9845
31
0
0
LINE
8
TEXTO
10
151.2385
20
29.9845
30
0
11
150.4667
21
29.519
31
0
0
LINE
8
TEXTO
10
150.4667
20
29.519
30
0
11
150.9567
21
30.058
31
0
0
LINE
8
TEXTO
10
150.9567
20
30.058
30
0
11
150.6382
21
29.5313
31
0
0
LINE
8
TEXTO
10
150.6382
20
29.5313
30
0
11
150.9445
21
30.3888
31
0
0
LINE
8
TEXTO
10
150.9445
20
30.3888
30
0
11
150.8587
21
30.009
31
0
0
LINE
8
TEXTO
10
150.8587
20
30.009
30
0
11
150.9567
21
31.1973
31
0
0
LINE
8
TEXTO
10
150.9567
20
31.1973
30
0
11
150.8587
21
32.5693
31
0
0
LINE
8
TEXTO
10
150.8587
20
32.5693
30
0
11
150.6382
21
34.1495
31
0
0
LINE
8
TEXTO
10
150.6382
20
34.1495
30
0
11
150.2952
21
35.595
31
0
0
LINE
8
TEXTO
10
150.2952
20
35.595
30
0
11
149.8787
21
36.673
31
0
0
LINE
8
TEXTO
10
149.8787
20
36.673
30
0
11
150.0012
21
36.4158
31
0
0
LINE
8
TEXTO
10
150.0012
20
36.4158
30
0
11
149.6827
21
36.9425
31
0
0
LINE
8
TEXTO
10
149.6827
20
36.9425
30
0
11
149.842
21
36.7343
31
0
0
LINE
8
TEXTO
10
149.842
20
36.7343
30
0
11
149.4867
21
37.1263
31
0
0
LINE
8
TEXTO
10
149.4867
20
37.1263
30
0
11
149.9032
21
36.7955
31
0
0
LINE
8
TEXTO
10
149.9032
20
36.7955
30
0
11
149.4745
21
37.0283
31
0
0
LINE
8
TEXTO
10
149.4745
20
37.0283
30
0
11
149.8542
21
36.8813
31
0
0
LINE
8
TEXTO
10
149.8542
20
36.8813
30
0
11
149.3887
21
37.0038
31
0
0
LINE
8
TEXTO
10
149.3887
20
37.0038
30
0
11
149.3887
21
37.0038
31
0
0
LINE
8
TEXTO
10
150.6015
20
39.8703
30
0
11
150.969
21
39.7233
31
0
0
LINE
8
TEXTO
10
150.969
20
39.7233
30
0
11
151.3977
21
39.4905
31
0
0
LINE
8
TEXTO
10
151.3977
20
39.4905
30
0
11
151.802
21
39.1598
31
0
0
LINE
8
TEXTO
10
151.802
20
39.1598
30
0
11
152.145
21
38.7678
31
0
0
LINE
8
TEXTO
10
152.145
20
38.7678
30
0
11
152.3165
21
38.5473
31
0
0
LINE
8
TEXTO
10
152.3165
20
38.5473
30
0
11
152.635
21
38.0083
31
0
0
LINE
8
TEXTO
10
152.635
20
38.0083
30
0
11
152.7697
21
37.751
31
0
0
LINE
8
TEXTO
10
152.7697
20
37.751
30
0
11
153.2842
21
36.3055
31
0
0
LINE
8
TEXTO
10
153.2842
20
36.3055
30
0
11
153.6885
21
34.5783
31
0
0
LINE
8
TEXTO
10
153.6885
20
34.5783
30
0
11
153.9335
21
32.753
31
0
0
LINE
8
TEXTO
10
153.9335
20
32.753
30
0
11
154.0192
21
30.9523
31
0
0
LINE
8
TEXTO
10
154.0192
20
30.9523
30
0
11
153.9335
21
29.764
31
0
0
LINE
8
TEXTO
10
153.9335
20
29.764
30
0
11
153.8477
21
29.372
31
0
0
LINE
8
TEXTO
10
153.8477
20
29.372
30
0
11
153.5415
21
28.5145
31
0
0
LINE
8
TEXTO
10
153.5415
20
28.5145
30
0
11
153.2352
21
27.9878
31
0
0
LINE
8
TEXTO
10
153.2352
20
27.9878
30
0
11
152.7452
21
27.4488
31
0
0
LINE
8
TEXTO
10
152.7452
20
27.4488
30
0
11
152.39
21
27.1548
31
0
0
LINE
8
TEXTO
10
152.39
20
27.1548
30
0
11
151.9612
21
26.9833
31
0
0
LINE
8
TEXTO
10
151.9612
20
26.9833
30
0
11
151.2875
21
26.824
31
0
0
LINE
8
TEXTO
10
151.2875
20
26.824
30
0
11
150.8465
21
26.7873
31
0
0
LINE
8
TEXTO
10
150.8465
20
26.7873
30
0
11
150.4177
21
26.873
31
0
0
LINE
8
TEXTO
10
150.4177
20
26.873
30
0
11
149.6215
21
27.1548
31
0
0
LINE
8
TEXTO
10
149.6215
20
27.1548
30
0
11
149.2172
21
27.363
31
0
0
LINE
8
TEXTO
10
149.2172
20
27.363
30
0
11
148.8987
21
27.6815
31
0
0
LINE
8
TEXTO
10
148.8987
20
27.6815
30
0
11
148.2862
21
28.5023
31
0
0
LINE
8
TEXTO
10
148.2862
20
28.5023
30
0
11
148.1025
21
28.833
31
0
0
LINE
8
TEXTO
10
148.1025
20
28.833
30
0
11
147.4287
21
30.4868
31
0
0
LINE
8
TEXTO
10
147.4287
20
30.4868
30
0
11
146.9755
21
32.214
31
0
0
LINE
8
TEXTO
10
146.9755
20
32.214
30
0
11
146.7305
21
33.978
31
0
0
LINE
8
TEXTO
10
146.7305
20
33.978
30
0
11
146.6325
21
35.9135
31
0
0
LINE
8
TEXTO
10
146.6325
20
35.9135
30
0
11
146.7305
21
37.1018
31
0
0
LINE
8
TEXTO
10
146.7305
20
37.1018
30
0
11
146.8162
21
37.506
31
0
0
LINE
8
TEXTO
10
146.8162
20
37.506
30
0
11
147.1225
21
38.339
31
0
0
LINE
8
TEXTO
10
147.1225
20
38.339
30
0
11
147.4532
21
38.878
31
0
0
LINE
8
TEXTO
10
147.4532
20
38.878
30
0
11
147.9432
21
39.3925
31
0
0
LINE
8
TEXTO
10
147.9432
20
39.3925
30
0
11
148.2985
21
39.662
31
0
0
LINE
8
TEXTO
10
148.2985
20
39.662
30
0
11
148.715
21
39.8335
31
0
0
LINE
8
TEXTO
10
148.715
20
39.8335
30
0
11
149.4132
21
39.9928
31
0
0
LINE
8
TEXTO
10
149.4132
20
39.9928
30
0
11
149.7685
21
40.0295
31
0
0
LINE
8
TEXTO
10
149.7685
20
40.0295
30
0
11
150.136
21
39.9928
31
0
0
LINE
8
TEXTO
10
150.136
20
39.9928
30
0
11
150.6015
21
39.8703
31
0
0
LINE
8
TEXTO
10
150.6015
20
39.8703
30
0
11
150.6015
21
39.8703
31
0
0
LINE
8
TEXTO
10
169.148
20
47.5755
30
0
11
169.7115
21
47.6123
31
0
0
LINE
8
TEXTO
10
169.7115
20
47.6123
30
0
11
170.667
21
47.4898
31
0
0
LINE
8
TEXTO
10
170.667
20
47.4898
30
0
11
170.8875
21
47.4408
31
0
0
LINE
8
TEXTO
10
170.8875
20
47.4408
30
0
11
172.333
21
47.0488
31
0
0
LINE
8
TEXTO
10
172.333
20
47.0488
30
0
11
173.3252
21
46.669
31
0
0
LINE
8
TEXTO
10
173.3252
20
46.669
30
0
11
174.1827
21
46.2158
31
0
0
LINE
8
TEXTO
10
174.1827
20
46.2158
30
0
11
174.44
21
46.032
31
0
0
LINE
8
TEXTO
10
174.44
20
46.032
30
0
11
174.9055
21
45.64
31
0
0
LINE
8
TEXTO
10
174.9055
20
45.64
30
0
11
175.1627
21
45.3705
31
0
0
LINE
8
TEXTO
10
175.1627
20
45.3705
30
0
11
175.3342
21
45.0398
31
0
0
LINE
8
TEXTO
10
175.3342
20
45.0398
30
0
11
175.4812
21
44.6845
31
0
0
LINE
8
TEXTO
10
175.4812
20
44.6845
30
0
11
175.5915
21
44.1455
31
0
0
LINE
8
TEXTO
10
175.5915
20
44.1455
30
0
11
175.4935
21
43.5943
31
0
0
LINE
8
TEXTO
10
175.4935
20
43.5943
30
0
11
175.3097
21
43.0798
31
0
0
LINE
8
TEXTO
10
175.3097
20
43.0798
30
0
11
175.0525
21
42.6265
31
0
0
LINE
8
TEXTO
10
175.0525
20
42.6265
30
0
11
174.636
21
42.112
31
0
0
LINE
8
TEXTO
10
174.636
20
42.112
30
0
11
173.754
21
41.1198
31
0
0
LINE
8
TEXTO
10
173.754
20
41.1198
30
0
11
173.1905
21
40.3725
31
0
0
LINE
8
TEXTO
10
173.1905
20
40.3725
30
0
11
172.7005
21
39.564
31
0
0
LINE
8
TEXTO
10
172.7005
20
39.564
30
0
11
172.4065
21
38.8413
31
0
0
LINE
8
TEXTO
10
172.4065
20
38.8413
30
0
11
172.4922
21
39.123
31
0
0
LINE
8
TEXTO
10
172.4922
20
39.123
30
0
11
172.3575
21
38.4738
31
0
0
LINE
8
TEXTO
10
172.3575
20
38.4738
30
0
11
172.3207
21
39.2578
31
0
0
LINE
8
TEXTO
10
172.3207
20
39.2578
30
0
11
172.4555
21
38.8168
31
0
0
LINE
8
TEXTO
10
172.4555
20
38.8168
30
0
11
171.6837
21
39.7355
31
0
0
LINE
8
TEXTO
10
171.6837
20
39.7355
30
0
11
172.0512
21
39.5395
31
0
0
LINE
8
TEXTO
10
172.0512
20
39.5395
30
0
11
171.0345
21
39.6743
31
0
0
LINE
8
TEXTO
10
171.0345
20
39.6743
30
0
11
171.451
21
39.76
31
0
0
LINE
8
TEXTO
10
171.451
20
39.76
30
0
11
172.1002
21
39.9928
31
0
0
LINE
8
TEXTO
10
172.1002
20
39.9928
30
0
11
173.558
21
40.4215
31
0
0
LINE
8
TEXTO
10
173.558
20
40.4215
30
0
11
173.8397
21
40.4705
31
0
0
LINE
8
TEXTO
10
173.8397
20
40.4705
30
0
11
175.126
21
40.593
31
0
0
LINE
8
TEXTO
10
175.126
20
40.593
30
0
11
175.3955
21
40.593
31
0
0
LINE
8
TEXTO
10
175.3955
20
40.593
30
0
11
176.449
21
40.495
31
0
0
LINE
8
TEXTO
10
176.449
20
40.495
30
0
11
177.6862
21
40.2255
31
0
0
LINE
8
TEXTO
10
177.6862
20
40.2255
30
0
11
177.968
21
40.1275
31
0
0
LINE
8
TEXTO
10
177.968
20
40.1275
30
0
11
178.899
21
39.711
31
0
0
LINE
8
TEXTO
10
178.899
20
39.711
30
0
11
179.1317
21
39.5885
31
0
0
LINE
8
TEXTO
10
179.1317
20
39.5885
30
0
11
180.0382
21
38.9883
31
0
0
LINE
8
TEXTO
10
180.0382
20
38.9883
30
0
11
180.2465
21
38.8168
31
0
0
LINE
8
TEXTO
10
180.2465
20
38.8168
30
0
11
181.349
21
37.7633
31
0
0
LINE
8
TEXTO
10
181.349
20
37.7633
30
0
11
181.5695
21
37.4815
31
0
0
LINE
8
TEXTO
10
181.5695
20
37.4815
30
0
11
182.3412
21
36.2933
31
0
0
LINE
8
TEXTO
10
182.3412
20
36.2933
30
0
11
182.5127
21
35.938
31
0
0
LINE
8
TEXTO
10
182.5127
20
35.938
30
0
11
182.9537
21
34.5538
31
0
0
LINE
8
TEXTO
10
182.9537
20
34.5538
30
0
11
183.0272
21
34.2475
31
0
0
LINE
8
TEXTO
10
183.0272
20
34.2475
30
0
11
183.1865
21
32.7285
31
0
0
LINE
8
TEXTO
10
183.1865
20
32.7285
30
0
11
183.1865
21
32.459
31
0
0
LINE
8
TEXTO
10
183.1865
20
32.459
30
0
11
183.1007
21
31.1973
31
0
0
LINE
8
TEXTO
10
183.1007
20
31.1973
30
0
11
183.064
21
30.9645
31
0
0
LINE
8
TEXTO
10
183.064
20
30.9645
30
0
11
182.7822
21
29.7273
31
0
0
LINE
8
TEXTO
10
182.7822
20
29.7273
30
0
11
182.721
21
29.5068
31
0
0
LINE
8
TEXTO
10
182.721
20
29.5068
30
0
11
182.2555
21
28.3185
31
0
0
LINE
8
TEXTO
10
182.2555
20
28.3185
30
0
11
181.5082
21
26.9465
31
0
0
LINE
8
TEXTO
10
181.5082
20
26.9465
30
0
11
181.3612
21
26.7138
31
0
0
LINE
8
TEXTO
10
181.3612
20
26.7138
30
0
11
179.8177
21
24.8273
31
0
0
LINE
8
TEXTO
10
179.8177
20
24.8273
30
0
11
179.5115
21
24.5455
31
0
0
LINE
8
TEXTO
10
179.5115
20
24.5455
30
0
11
177.6127
21
23.2103
31
0
0
LINE
8
TEXTO
10
177.6127
20
23.2103
30
0
11
177.2697
21
23.0265
31
0
0
LINE
8
TEXTO
10
177.2697
20
23.0265
30
0
11
175.0525
21
22.2058
31
0
0
LINE
8
TEXTO
10
175.0525
20
22.2058
30
0
11
174.6727
21
22.12
31
0
0
LINE
8
TEXTO
10
174.6727
20
22.12
30
0
11
172.1247
21
21.8628
31
0
0
LINE
8
TEXTO
10
172.1247
20
21.8628
30
0
11
171.8552
21
21.8628
31
0
0
LINE
8
TEXTO
10
171.8552
20
21.8628
30
0
11
169.7115
21
22.022
31
0
0
LINE
8
TEXTO
10
169.7115
20
22.022
30
0
11
169.442
21
22.071
31
0
0
LINE
8
TEXTO
10
169.442
20
22.071
30
0
11
167.5065
21
22.561
31
0
0
LINE
8
TEXTO
10
167.5065
20
22.561
30
0
11
167.237
21
22.659
31
0
0
LINE
8
TEXTO
10
167.237
20
22.659
30
0
11
165.5342
21
23.443
31
0
0
LINE
8
TEXTO
10
165.5342
20
23.443
30
0
11
165.2525
21
23.6268
31
0
0
LINE
8
TEXTO
10
165.2525
20
23.6268
30
0
11
163.758
21
24.766
31
0
0
LINE
8
TEXTO
10
163.758
20
24.766
30
0
11
163.5007
21
25.011
31
0
0
LINE
8
TEXTO
10
163.5007
20
25.011
30
0
11
162.141
21
26.6648
31
0
0
LINE
8
TEXTO
10
162.141
20
26.6648
30
0
11
161.9695
21
26.9465
31
0
0
LINE
8
TEXTO
10
161.9695
20
26.9465
30
0
11
160.9405
21
28.9555
31
0
0
LINE
8
TEXTO
10
160.9405
20
28.9555
30
0
11
160.8302
21
29.2373
31
0
0
LINE
8
TEXTO
10
160.8302
20
29.2373
30
0
11
160.3157
21
31.0503
31
0
0
LINE
8
TEXTO
10
160.3157
20
31.0503
30
0
11
160.2667
21
31.3198
31
0
0
LINE
8
TEXTO
10
160.2667
20
31.3198
30
0
11
160.083
21
33.1573
31
0
0
LINE
8
TEXTO
10
160.083
20
33.1573
30
0
11
160.083
21
33.4635
31
0
0
LINE
8
TEXTO
10
160.083
20
33.4635
30
0
11
160.2912
21
35.6318
31
0
0
LINE
8
TEXTO
10
160.2912
20
35.6318
30
0
11
160.3402
21
35.9258
31
0
0
LINE
8
TEXTO
10
160.3402
20
35.9258
30
0
11
161.0017
21
38.1308
31
0
0
LINE
8
TEXTO
10
161.0017
20
38.1308
30
0
11
161.0997
21
38.388
31
0
0
LINE
8
TEXTO
10
161.0997
20
38.388
30
0
11
162.19
21
40.6053
31
0
0
LINE
8
TEXTO
10
162.19
20
40.6053
30
0
11
163.807
21
43.043
31
0
0
LINE
8
TEXTO
10
163.807
20
43.043
30
0
11
164.689
21
44.1333
31
0
0
LINE
8
TEXTO
10
164.689
20
44.1333
30
0
11
165.3995
21
44.9908
31
0
0
LINE
8
TEXTO
10
165.3995
20
44.9908
30
0
11
166.0365
21
45.7013
31
0
0
LINE
8
TEXTO
10
166.0365
20
45.7013
30
0
11
166.6612
21
46.3015
31
0
0
LINE
8
TEXTO
10
166.6612
20
46.3015
30
0
11
166.8327
21
46.4485
31
0
0
LINE
8
TEXTO
10
166.8327
20
46.4485
30
0
11
167.7882
21
47.1223
31
0
0
LINE
8
TEXTO
10
167.7882
20
47.1223
30
0
11
168.3027
21
47.3673
31
0
0
LINE
8
TEXTO
10
168.3027
20
47.3673
30
0
11
169.148
21
47.5755
31
0
0
LINE
8
TEXTO
10
169.148
20
47.5755
30
0
11
169.148
21
47.5755
31
0
0
LINE
8
TEXTO
10
169.05
20
44.3783
30
0
11
169.5767
21
44.611
31
0
0
LINE
8
TEXTO
10
169.5767
20
44.611
30
0
11
168.609
21
43.9373
31
0
0
LINE
8
TEXTO
10
168.609
20
43.9373
30
0
11
168.7927
21
44.072
31
0
0
LINE
8
TEXTO
10
168.7927
20
44.072
30
0
11
168.3395
21
43.6555
31
0
0
LINE
8
TEXTO
10
168.3395
20
43.6555
30
0
11
167.7637
21
43.0185
31
0
0
LINE
8
TEXTO
10
167.7637
20
43.0185
30
0
11
167.0777
21
42.1978
31
0
0
LINE
8
TEXTO
10
167.0777
20
42.1978
30
0
11
166.3672
21
41.328
31
0
0
LINE
8
TEXTO
10
166.3672
20
41.328
30
0
11
164.9585
21
39.2333
31
0
0
LINE
8
TEXTO
10
164.9585
20
39.2333
30
0
11
163.856
21
37.016
31
0
0
LINE
8
TEXTO
10
163.856
20
37.016
30
0
11
163.954
21
37.261
31
0
0
LINE
8
TEXTO
10
163.954
20
37.261
30
0
11
163.3047
21
35.0438
31
0
0
LINE
8
TEXTO
10
163.3047
20
35.0438
30
0
11
163.3537
21
35.3378
31
0
0
LINE
8
TEXTO
10
163.3537
20
35.3378
30
0
11
163.1455
21
33.1695
31
0
0
LINE
8
TEXTO
10
163.1455
20
33.1695
30
0
11
163.1455
21
33.4635
31
0
0
LINE
8
TEXTO
10
163.1455
20
33.4635
30
0
11
163.3292
21
31.626
31
0
0
LINE
8
TEXTO
10
163.3292
20
31.626
30
0
11
163.2802
21
31.8833
31
0
0
LINE
8
TEXTO
10
163.2802
20
31.8833
30
0
11
163.7947
21
30.0703
31
0
0
LINE
8
TEXTO
10
163.7947
20
30.0703
30
0
11
163.6845
21
30.352
31
0
0
LINE
8
TEXTO
10
163.6845
20
30.352
30
0
11
164.7135
21
28.343
31
0
0
LINE
8
TEXTO
10
164.7135
20
28.343
30
0
11
164.5297
21
28.6125
31
0
0
LINE
8
TEXTO
10
164.5297
20
28.6125
30
0
11
165.8895
21
26.9588
31
0
0
LINE
8
TEXTO
10
165.8895
20
26.9588
30
0
11
165.6322
21
27.216
31
0
0
LINE
8
TEXTO
10
165.6322
20
27.216
30
0
11
167.1267
21
26.0645
31
0
0
LINE
8
TEXTO
10
167.1267
20
26.0645
30
0
11
166.8327
21
26.236
31
0
0
LINE
8
TEXTO
10
166.8327
20
26.236
30
0
11
168.5355
21
25.452
31
0
0
LINE
8
TEXTO
10
168.5355
20
25.452
30
0
11
168.266
21
25.55
31
0
0
LINE
8
TEXTO
10
168.266
20
25.55
30
0
11
170.2015
21
25.06
31
0
0
LINE
8
TEXTO
10
170.2015
20
25.06
30
0
11
169.9442
21
25.0968
31
0
0
LINE
8
TEXTO
10
169.9442
20
25.0968
30
0
11
172.088
21
24.9375
31
0
0
LINE
8
TEXTO
10
172.088
20
24.9375
30
0
11
171.8185
21
24.9253
31
0
0
LINE
8
TEXTO
10
171.8185
20
24.9253
30
0
11
174.3665
21
25.1825
31
0
0
LINE
8
TEXTO
10
174.3665
20
25.1825
30
0
11
173.9867
21
25.0968
31
0
0
LINE
8
TEXTO
10
173.9867
20
25.0968
30
0
11
176.204
21
25.9175
31
0
0
LINE
8
TEXTO
10
176.204
20
25.9175
30
0
11
175.8487
21
25.7338
31
0
0
LINE
8
TEXTO
10
175.8487
20
25.7338
30
0
11
177.7352
21
27.0568
31
0
0
LINE
8
TEXTO
10
177.7352
20
27.0568
30
0
11
177.429
21
26.775
31
0
0
LINE
8
TEXTO
10
177.429
20
26.775
30
0
11
178.9725
21
28.6615
31
0
0
LINE
8
TEXTO
10
178.9725
20
28.6615
30
0
11
178.8132
21
28.4288
31
0
0
LINE
8
TEXTO
10
178.8132
20
28.4288
30
0
11
179.3767
21
29.4455
31
0
0
LINE
8
TEXTO
10
179.3767
20
29.4455
30
0
11
179.8545
21
30.6338
31
0
0
LINE
8
TEXTO
10
179.8545
20
30.6338
30
0
11
179.781
21
30.4133
31
0
0
LINE
8
TEXTO
10
179.781
20
30.4133
30
0
11
180.0627
21
31.6505
31
0
0
LINE
8
TEXTO
10
180.0627
20
31.6505
30
0
11
180.026
21
31.4178
31
0
0
LINE
8
TEXTO
10
180.026
20
31.4178
30
0
11
180.124
21
32.6795
31
0
0
LINE
8
TEXTO
10
180.124
20
32.6795
30
0
11
180.124
21
32.3978
31
0
0
LINE
8
TEXTO
10
180.124
20
32.3978
30
0
11
179.9647
21
33.9168
31
0
0
LINE
8
TEXTO
10
179.9647
20
33.9168
30
0
11
180.026
21
33.6105
31
0
0
LINE
8
TEXTO
10
180.026
20
33.6105
30
0
11
179.585
21
34.9948
31
0
0
LINE
8
TEXTO
10
179.585
20
34.9948
30
0
11
179.7565
21
34.6273
31
0
0
LINE
8
TEXTO
10
179.7565
20
34.6273
30
0
11
178.9847
21
35.8155
31
0
0
LINE
8
TEXTO
10
178.9847
20
35.8155
30
0
11
179.2175
21
35.5338
31
0
0
LINE
8
TEXTO
10
179.2175
20
35.5338
30
0
11
178.115
21
36.5873
31
0
0
LINE
8
TEXTO
10
178.115
20
36.5873
30
0
11
178.3232
21
36.4158
31
0
0
LINE
8
TEXTO
10
178.3232
20
36.4158
30
0
11
177.4167
21
37.0283
31
0
0
LINE
8
TEXTO
10
177.4167
20
37.0283
30
0
11
177.6372
21
36.9058
31
0
0
LINE
8
TEXTO
10
177.6372
20
36.9058
30
0
11
176.7062
21
37.3223
31
0
0
LINE
8
TEXTO
10
176.7062
20
37.3223
30
0
11
177.0002
21
37.2243
31
0
0
LINE
8
TEXTO
10
177.0002
20
37.2243
30
0
11
176.1795
21
37.4325
31
0
0
LINE
8
TEXTO
10
176.1795
20
37.4325
30
0
11
175.126
21
37.5183
31
0
0
LINE
8
TEXTO
10
175.126
20
37.5183
30
0
11
175.4077
21
37.5183
31
0
0
LINE
8
TEXTO
10
175.4077
20
37.5183
30
0
11
174.1215
21
37.408
31
0
0
LINE
8
TEXTO
10
174.1215
20
37.408
30
0
11
174.4032
21
37.457
31
0
0
LINE
8
TEXTO
10
174.4032
20
37.457
30
0
11
173.1047
21
37.0895
31
0
0
LINE
8
TEXTO
10
173.1047
20
37.0895
30
0
11
172.1247
21
36.7588
31
0
0
LINE
8
TEXTO
10
172.1247
20
36.7588
30
0
11
171.696
21
36.6608
31
0
0
LINE
8
TEXTO
10
171.696
20
36.6608
30
0
11
171.1815
21
36.6363
31
0
0
LINE
8
TEXTO
10
171.1815
20
36.6363
30
0
11
170.6792
21
36.7955
31
0
0
LINE
8
TEXTO
10
170.6792
20
36.7955
30
0
11
170.2995
21
36.9793
31
0
0
LINE
8
TEXTO
10
170.2995
20
36.9793
30
0
11
169.8217
21
37.359
31
0
0
LINE
8
TEXTO
10
169.8217
20
37.359
30
0
11
169.5277
21
37.8858
31
0
0
LINE
8
TEXTO
10
169.5277
20
37.8858
30
0
11
169.3807
21
38.339
31
0
0
LINE
8
TEXTO
10
169.3807
20
38.339
30
0
11
169.3195
21
38.7188
31
0
0
LINE
8
TEXTO
10
169.3195
20
38.7188
30
0
11
169.344
21
39.123
31
0
0
LINE
8
TEXTO
10
169.344
20
39.123
30
0
11
169.491
21
39.7723
31
0
0
LINE
8
TEXTO
10
169.491
20
39.7723
30
0
11
169.5767
21
40.0663
31
0
0
LINE
8
TEXTO
10
169.5767
20
40.0663
30
0
11
170.079
21
41.1688
31
0
0
LINE
8
TEXTO
10
170.079
20
41.1688
30
0
11
170.7527
21
42.259
31
0
0
LINE
8
TEXTO
10
170.7527
20
42.259
30
0
11
171.451
21
43.1533
31
0
0
LINE
8
TEXTO
10
171.451
20
43.1533
30
0
11
172.2472
21
44.072
31
0
0
LINE
8
TEXTO
10
172.2472
20
44.072
30
0
11
172.676
21
44.5743
31
0
0
LINE
8
TEXTO
10
172.676
20
44.5743
30
0
11
172.4187
21
44.1333
31
0
0
LINE
8
TEXTO
10
172.4187
20
44.1333
30
0
11
172.6025
21
44.6478
31
0
0
LINE
8
TEXTO
10
172.6025
20
44.6478
30
0
11
172.6147
21
43.5453
31
0
0
LINE
8
TEXTO
10
172.6147
20
43.5453
30
0
11
172.48
21
43.9005
31
0
0
LINE
8
TEXTO
10
172.48
20
43.9005
30
0
11
172.9087
21
43.3003
31
0
0
LINE
8
TEXTO
10
172.9087
20
43.3003
30
0
11
172.4432
21
43.6923
31
0
0
LINE
8
TEXTO
10
172.4432
20
43.6923
30
0
11
172.7005
21
43.5208
31
0
0
LINE
8
TEXTO
10
172.7005
20
43.5208
30
0
11
172.2105
21
43.8025
31
0
0
LINE
8
TEXTO
10
172.2105
20
43.8025
30
0
11
171.5245
21
44.0843
31
0
0
LINE
8
TEXTO
10
171.5245
20
44.0843
30
0
11
170.0667
21
44.4763
31
0
0
LINE
8
TEXTO
10
170.0667
20
44.4763
30
0
11
170.2872
21
44.4273
31
0
0
LINE
8
TEXTO
10
170.2872
20
44.4273
30
0
11
169.3317
21
44.5498
31
0
0
LINE
8
TEXTO
10
169.3317
20
44.5498
30
0
11
169.8952
21
44.5865
31
0
0
LINE
8
TEXTO
10
169.8952
20
44.5865
30
0
11
169.05
21
44.3783
31
0
0
LINE
8
TEXTO
10
169.05
20
44.3783
30
0
11
169.05
21
44.3783
31
0
0
LINE
8
TEXTO
10
171.0957
20
32.704
30
0
11
171.6837
21
32.7163
31
0
0
LINE
8
TEXTO
10
171.6837
20
32.7163
30
0
11
171.0345
21
32.5815
31
0
0
LINE
8
TEXTO
10
171.0345
20
32.5815
30
0
11
171.6592
21
32.8633
31
0
0
LINE
8
TEXTO
10
171.6592
20
32.8633
30
0
11
171.1447
21
32.4713
31
0
0
LINE
8
TEXTO
10
171.1447
20
32.4713
30
0
11
171.5612
21
32.9735
31
0
0
LINE
8
TEXTO
10
171.5612
20
32.9735
30
0
11
171.2427
21
32.3488
31
0
0
LINE
8
TEXTO
10
171.2427
20
32.3488
30
0
11
171.402
21
32.851
31
0
0
LINE
8
TEXTO
10
171.402
20
32.851
30
0
11
171.2795
21
32.0058
31
0
0
LINE
8
TEXTO
10
171.2795
20
32.0058
30
0
11
171.2672
21
32.4958
31
0
0
LINE
8
TEXTO
10
171.2672
20
32.4958
30
0
11
171.5245
21
31.0993
31
0
0
LINE
8
TEXTO
10
171.5245
20
31.0993
30
0
11
171.3652
21
31.5403
31
0
0
LINE
8
TEXTO
10
171.3652
20
31.5403
30
0
11
172.1125
21
30.1438
31
0
0
LINE
8
TEXTO
10
172.1125
20
30.1438
30
0
11
171.9287
21
30.4133
31
0
0
LINE
8
TEXTO
10
171.9287
20
30.4133
30
0
11
172.4432
21
29.8008
31
0
0
LINE
8
TEXTO
10
172.4432
20
29.8008
30
0
11
172.284
21
29.9723
31
0
0
LINE
8
TEXTO
10
172.284
20
29.9723
30
0
11
172.7862
21
29.5313
31
0
0
LINE
8
TEXTO
10
172.7862
20
29.5313
30
0
11
172.48
21
29.7395
31
0
0
LINE
8
TEXTO
10
172.48
20
29.7395
30
0
11
172.9822
21
29.4823
31
0
0
LINE
8
TEXTO
10
172.9822
20
29.4823
30
0
11
172.578
21
29.6293
31
0
0
LINE
8
TEXTO
10
172.578
20
29.6293
30
0
11
173.0925
21
29.5313
31
0
0
LINE
8
TEXTO
10
173.0925
20
29.5313
30
0
11
172.5902
21
29.5435
31
0
0
LINE
8
TEXTO
10
172.5902
20
29.5435
30
0
11
173.215
21
29.6293
31
0
0
LINE
8
TEXTO
10
173.215
20
29.6293
30
0
11
172.5902
21
29.3965
31
0
0
LINE
8
TEXTO
10
172.5902
20
29.3965
30
0
11
173.0802
21
29.715
31
0
0
LINE
8
TEXTO
10
173.0802
20
29.715
30
0
11
172.6515
21
29.2863
31
0
0
LINE
8
TEXTO
10
172.6515
20
29.2863
30
0
11
172.9822
21
29.7763
31
0
0
LINE
8
TEXTO
10
172.9822
20
29.7763
30
0
11
172.7495
21
29.2128
31
0
0
LINE
8
TEXTO
10
172.7495
20
29.2128
30
0
11
172.8597
21
29.8253
31
0
0
LINE
8
TEXTO
10
172.8597
20
29.8253
30
0
11
172.8475
21
29.3475
31
0
0
LINE
8
TEXTO
10
172.8475
20
29.3475
30
0
11
172.7127
21
30.5235
31
0
0
LINE
8
TEXTO
10
172.7127
20
30.5235
30
0
11
172.7617
21
30.254
31
0
0
LINE
8
TEXTO
10
172.7617
20
30.254
30
0
11
172.382
21
31.4913
31
0
0
LINE
8
TEXTO
10
172.382
20
31.4913
30
0
11
172.5045
21
31.1973
31
0
0
LINE
8
TEXTO
10
172.5045
20
31.1973
30
0
11
171.9287
21
32.2753
31
0
0
LINE
8
TEXTO
10
171.9287
20
32.2753
30
0
11
172.137
21
31.9813
31
0
0
LINE
8
TEXTO
10
172.137
20
31.9813
30
0
11
171.4632
21
32.7285
31
0
0
LINE
8
TEXTO
10
171.4632
20
32.7285
30
0
11
171.8062
21
32.4345
31
0
0
LINE
8
TEXTO
10
171.8062
20
32.4345
30
0
11
171.2305
21
32.7898
31
0
0
LINE
8
TEXTO
10
171.2305
20
32.7898
30
0
11
171.745
21
32.5938
31
0
0
LINE
8
TEXTO
10
171.745
20
32.5938
30
0
11
171.0957
21
32.704
31
0
0
LINE
8
TEXTO
10
171.0957
20
32.704
30
0
11
171.0957
21
32.704
31
0
0
LINE
8
TEXTO
10
172.284
20
35.6195
30
0
11
172.8107
21
35.4235
31
0
0
LINE
8
TEXTO
10
172.8107
20
35.4235
30
0
11
173.3987
21
35.0805
31
0
0
LINE
8
TEXTO
10
173.3987
20
35.0805
30
0
11
173.7417
21
34.7865
31
0
0
LINE
8
TEXTO
10
173.7417
20
34.7865
30
0
11
174.4155
21
34.0393
31
0
0
LINE
8
TEXTO
10
174.4155
20
34.0393
30
0
11
174.636
21
33.7453
31
0
0
LINE
8
TEXTO
10
174.636
20
33.7453
30
0
11
175.2117
21
32.6673
31
0
0
LINE
8
TEXTO
10
175.2117
20
32.6673
30
0
11
175.3342
21
32.3855
31
0
0
LINE
8
TEXTO
10
175.3342
20
32.3855
30
0
11
175.714
21
31.1483
31
0
0
LINE
8
TEXTO
10
175.714
20
31.1483
30
0
11
175.763
21
30.8788
31
0
0
LINE
8
TEXTO
10
175.763
20
30.8788
30
0
11
175.91
21
29.715
31
0
0
LINE
8
TEXTO
10
175.91
20
29.715
30
0
11
175.8855
21
29.2495
31
0
0
LINE
8
TEXTO
10
175.8855
20
29.2495
30
0
11
175.7752
21
28.637
31
0
0
LINE
8
TEXTO
10
175.7752
20
28.637
30
0
11
175.5425
21
28.0735
31
0
0
LINE
8
TEXTO
10
175.5425
20
28.0735
30
0
11
175.2117
21
27.5835
31
0
0
LINE
8
TEXTO
10
175.2117
20
27.5835
30
0
11
174.783
21
27.1548
31
0
0
LINE
8
TEXTO
10
174.783
20
27.1548
30
0
11
174.293
21
26.824
31
0
0
LINE
8
TEXTO
10
174.293
20
26.824
30
0
11
173.999
21
26.6648
31
0
0
LINE
8
TEXTO
10
173.999
20
26.6648
30
0
11
173.6682
21
26.5913
31
0
0
LINE
8
TEXTO
10
173.6682
20
26.5913
30
0
11
173.0435
21
26.4933
31
0
0
LINE
8
TEXTO
10
173.0435
20
26.4933
30
0
11
172.5412
21
26.5055
31
0
0
LINE
8
TEXTO
10
172.5412
20
26.5055
30
0
11
172.0267
21
26.5913
31
0
0
LINE
8
TEXTO
10
172.0267
20
26.5913
30
0
11
171.6102
21
26.7383
31
0
0
LINE
8
TEXTO
10
171.6102
20
26.7383
30
0
11
171.0957
21
26.9955
31
0
0
LINE
8
TEXTO
10
171.0957
20
26.9955
30
0
11
170.7772
21
27.2038
31
0
0
LINE
8
TEXTO
10
170.7772
20
27.2038
30
0
11
170.2627
21
27.6448
31
0
0
LINE
8
TEXTO
10
170.2627
20
27.6448
30
0
11
170.0912
21
27.8163
31
0
0
LINE
8
TEXTO
10
170.0912
20
27.8163
30
0
11
169.589
21
28.4288
31
0
0
LINE
8
TEXTO
10
169.589
20
28.4288
30
0
11
169.4052
21
28.6983
31
0
0
LINE
8
TEXTO
10
169.4052
20
28.6983
30
0
11
168.658
21
30.0948
31
0
0
LINE
8
TEXTO
10
168.658
20
30.0948
30
0
11
168.4987
21
30.5358
31
0
0
LINE
8
TEXTO
10
168.4987
20
30.5358
30
0
11
168.2415
21
31.9445
31
0
0
LINE
8
TEXTO
10
168.2415
20
31.9445
30
0
11
168.2292
21
32.4345
31
0
0
LINE
8
TEXTO
10
168.2292
20
32.4345
30
0
11
168.3517
21
33.2675
31
0
0
LINE
8
TEXTO
10
168.3517
20
33.2675
30
0
11
168.511
21
33.7698
31
0
0
LINE
8
TEXTO
10
168.511
20
33.7698
30
0
11
168.8295
21
34.3945
31
0
0
LINE
8
TEXTO
10
168.8295
20
34.3945
30
0
11
169.2582
21
34.909
31
0
0
LINE
8
TEXTO
10
169.2582
20
34.909
30
0
11
169.7727
21
35.301
31
0
0
LINE
8
TEXTO
10
169.7727
20
35.301
30
0
11
170.3852
21
35.595
31
0
0
LINE
8
TEXTO
10
170.3852
20
35.595
30
0
11
171.0467
21
35.7298
31
0
0
LINE
8
TEXTO
10
171.0467
20
35.7298
30
0
11
171.6347
21
35.742
31
0
0
LINE
8
TEXTO
10
171.6347
20
35.742
30
0
11
172.284
21
35.6195
31
0
0
LINE
8
TEXTO
10
172.284
20
35.6195
30
0
11
172.284
21
35.6195
31
0
0
LINE
8
TEXTO
10
132.2755
20
99.0623
30
0
11
155.3422
21
77.1348
31
0
0
LINE
8
TEXTO
10
155.3422
20
77.1348
30
0
11
155.9915
21
76.3875
31
0
0
LINE
8
TEXTO
10
155.9915
20
76.3875
30
0
11
156.163
21
76.1425
31
0
0
LINE
8
TEXTO
10
156.163
20
76.1425
30
0
11
156.555
21
75.4443
31
0
0
LINE
8
TEXTO
10
156.555
20
75.4443
30
0
11
156.6897
21
75.138
31
0
0
LINE
8
TEXTO
10
156.6897
20
75.138
30
0
11
156.9225
21
74.403
31
0
0
LINE
8
TEXTO
10
156.9225
20
74.403
30
0
11
156.9715
21
74.1703
31
0
0
LINE
8
TEXTO
10
156.9715
20
74.1703
30
0
11
157.094
21
73.3985
31
0
0
LINE
8
TEXTO
10
157.094
20
73.3985
30
0
11
157.1062
21
73.031
31
0
0
LINE
8
TEXTO
10
157.1062
20
73.031
30
0
11
157.0327
21
72.2348
31
0
0
LINE
8
TEXTO
10
157.0327
20
72.2348
30
0
11
156.996
21
72.002
31
0
0
LINE
8
TEXTO
10
156.996
20
72.002
30
0
11
156.8122
21
71.2548
31
0
0
LINE
8
TEXTO
10
156.8122
20
71.2548
30
0
11
156.6897
21
70.9363
31
0
0
LINE
8
TEXTO
10
156.6897
20
70.9363
30
0
11
156.3345
21
70.238
31
0
0
LINE
8
TEXTO
10
156.3345
20
70.238
30
0
11
156.1752
21
69.9808
31
0
0
LINE
8
TEXTO
10
156.1752
20
69.9808
30
0
11
155.6607
21
69.3193
31
0
0
LINE
8
TEXTO
10
155.6607
20
69.3193
30
0
11
155.4525
21
69.0988
31
0
0
LINE
8
TEXTO
10
155.4525
20
69.0988
30
0
11
154.8155
21
68.5598
31
0
0
LINE
8
TEXTO
10
154.8155
20
68.5598
30
0
11
154.5827
21
68.4005
31
0
0
LINE
8
TEXTO
10
154.5827
20
68.4005
30
0
11
153.8722
21
67.9963
31
0
0
LINE
8
TEXTO
10
153.8722
20
67.9963
30
0
11
153.5782
21
67.8738
31
0
0
LINE
8
TEXTO
10
153.5782
20
67.8738
30
0
11
152.831
21
67.641
31
0
0
LINE
8
TEXTO
10
152.831
20
67.641
30
0
11
152.5982
21
67.5798
31
0
0
LINE
8
TEXTO
10
152.5982
20
67.5798
30
0
11
151.8387
21
67.4695
31
0
0
LINE
8
TEXTO
10
151.8387
20
67.4695
30
0
11
151.4712
21
67.4573
31
0
0
LINE
8
TEXTO
10
151.4712
20
67.4573
30
0
11
150.675
21
67.5308
31
0
0
LINE
8
TEXTO
10
150.675
20
67.5308
30
0
11
150.43
21
67.5675
31
0
0
LINE
8
TEXTO
10
150.43
20
67.5675
30
0
11
149.695
21
67.7513
31
0
0
LINE
8
TEXTO
10
149.695
20
67.7513
30
0
11
149.3765
21
67.8738
31
0
0
LINE
8
TEXTO
10
149.3765
20
67.8738
30
0
11
148.6782
21
68.2168
31
0
0
LINE
8
TEXTO
10
148.6782
20
68.2168
30
0
11
148.4087
21
68.3883
31
0
0
LINE
8
TEXTO
10
148.4087
20
68.3883
30
0
11
147.7595
21
68.9028
31
0
0
LINE
8
TEXTO
10
147.7595
20
68.9028
30
0
11
124.6927
21
90.8303
31
0
0
LINE
8
TEXTO
10
124.6927
20
90.8303
30
0
11
124.0435
21
91.5775
31
0
0
LINE
8
TEXTO
10
124.0435
20
91.5775
30
0
11
123.872
21
91.8225
31
0
0
LINE
8
TEXTO
10
123.872
20
91.8225
30
0
11
123.48
21
92.5208
31
0
0
LINE
8
TEXTO
10
123.48
20
92.5208
30
0
11
123.3452
21
92.827
31
0
0
LINE
8
TEXTO
10
123.3452
20
92.827
30
0
11
123.1125
21
93.5743
31
0
0
LINE
8
TEXTO
10
123.1125
20
93.5743
30
0
11
123.0512
21
93.8438
31
0
0
LINE
8
TEXTO
10
123.0512
20
93.8438
30
0
11
122.9655
21
94.6155
31
0
0
LINE
8
TEXTO
10
122.9655
20
94.6155
30
0
11
122.9532
21
94.885
31
0
0
LINE
8
TEXTO
10
122.9532
20
94.885
30
0
11
123.0022
21
95.6813
31
0
0
LINE
8
TEXTO
10
123.0022
20
95.6813
30
0
11
123.039
21
95.963
31
0
0
LINE
8
TEXTO
10
123.039
20
95.963
30
0
11
123.2227
21
96.7103
31
0
0
LINE
8
TEXTO
10
123.2227
20
96.7103
30
0
11
123.3452
21
97.0288
31
0
0
LINE
8
TEXTO
10
123.3452
20
97.0288
30
0
11
123.7005
21
97.727
31
0
0
LINE
8
TEXTO
10
123.7005
20
97.727
30
0
11
123.8597
21
97.9843
31
0
0
LINE
8
TEXTO
10
123.8597
20
97.9843
30
0
11
124.3742
21
98.6458
31
0
0
LINE
8
TEXTO
10
124.3742
20
98.6458
30
0
11
124.5825
21
98.8663
31
0
0
LINE
8
TEXTO
10
124.5825
20
98.8663
30
0
11
125.2195
21
99.4053
31
0
0
LINE
8
TEXTO
10
125.2195
20
99.4053
30
0
11
125.4522
21
99.5645
31
0
0
LINE
8
TEXTO
10
125.4522
20
99.5645
30
0
11
126.1505
21
99.9688
31
0
0
LINE
8
TEXTO
10
126.1505
20
99.9688
30
0
11
126.4567
21
100.0913
31
0
0
LINE
8
TEXTO
10
126.4567
20
100.0913
30
0
11
127.204
21
100.324
31
0
0
LINE
8
TEXTO
10
127.204
20
100.324
30
0
11
127.4735
21
100.3853
31
0
0
LINE
8
TEXTO
10
127.4735
20
100.3853
30
0
11
128.2452
21
100.4833
31
0
0
LINE
8
TEXTO
10
128.2452
20
100.4833
30
0
11
128.527
21
100.4833
31
0
0
LINE
8
TEXTO
10
128.527
20
100.4833
30
0
11
129.311
21
100.4465
31
0
0
LINE
8
TEXTO
10
129.311
20
100.4465
30
0
11
129.605
21
100.3975
31
0
0
LINE
8
TEXTO
10
129.605
20
100.3975
30
0
11
130.34
21
100.2138
31
0
0
LINE
8
TEXTO
10
130.34
20
100.2138
30
0
11
130.6585
21
100.0913
31
0
0
LINE
8
TEXTO
10
130.6585
20
100.0913
30
0
11
131.3567
21
99.7483
31
0
0
LINE
8
TEXTO
10
131.3567
20
99.7483
30
0
11
131.6262
21
99.5768
31
0
0
LINE
8
TEXTO
10
131.6262
20
99.5768
30
0
11
132.2755
21
99.0623
31
0
0
LINE
8
TEXTO
10
132.2755
20
99.0623
30
0
11
132.2755
21
99.0623
31
0
0
LINE
8
TEXTO
10
129.7152
20
97.1513
30
0
11
129.9847
21
96.992
31
0
0
LINE
8
TEXTO
10
129.9847
20
96.992
30
0
11
129.2865
21
97.335
31
0
0
LINE
8
TEXTO
10
129.2865
20
97.335
30
0
11
129.605
21
97.2248
31
0
0
LINE
8
TEXTO
10
129.605
20
97.2248
30
0
11
128.8577
21
97.4085
31
0
0
LINE
8
TEXTO
10
128.8577
20
97.4085
30
0
11
129.1395
21
97.3718
31
0
0
LINE
8
TEXTO
10
129.1395
20
97.3718
30
0
11
128.3432
21
97.4085
31
0
0
LINE
8
TEXTO
10
128.3432
20
97.4085
30
0
11
128.6127
21
97.4208
31
0
0
LINE
8
TEXTO
10
128.6127
20
97.4208
30
0
11
127.8532
21
97.3228
31
0
0
LINE
8
TEXTO
10
127.8532
20
97.3228
30
0
11
128.1227
21
97.384
31
0
0
LINE
8
TEXTO
10
128.1227
20
97.384
30
0
11
127.3755
21
97.1513
31
0
0
LINE
8
TEXTO
10
127.3755
20
97.1513
30
0
11
127.6695
21
97.286
31
0
0
LINE
8
TEXTO
10
127.6695
20
97.286
30
0
11
126.9712
21
96.8818
31
0
0
LINE
8
TEXTO
10
126.9712
20
96.8818
30
0
11
127.2162
21
97.0533
31
0
0
LINE
8
TEXTO
10
127.2162
20
97.0533
30
0
11
126.5792
21
96.5143
31
0
0
LINE
8
TEXTO
10
126.5792
20
96.5143
30
0
11
126.7997
21
96.7348
31
0
0
LINE
8
TEXTO
10
126.7997
20
96.7348
30
0
11
126.2852
21
96.0855
31
0
0
LINE
8
TEXTO
10
126.2852
20
96.0855
30
0
11
126.4445
21
96.355
31
0
0
LINE
8
TEXTO
10
126.4445
20
96.355
30
0
11
126.1015
21
95.6445
31
0
0
LINE
8
TEXTO
10
126.1015
20
95.6445
30
0
11
126.2117
21
95.963
31
0
0
LINE
8
TEXTO
10
126.2117
20
95.963
30
0
11
126.028
21
95.2158
31
0
0
LINE
8
TEXTO
10
126.028
20
95.2158
30
0
11
126.077
21
95.4975
31
0
0
LINE
8
TEXTO
10
126.077
20
95.4975
30
0
11
126.028
21
94.7013
31
0
0
LINE
8
TEXTO
10
126.028
20
94.7013
30
0
11
126.0157
21
94.983
31
0
0
LINE
8
TEXTO
10
126.0157
20
94.983
30
0
11
126.1137
21
94.2113
31
0
0
LINE
8
TEXTO
10
126.1137
20
94.2113
30
0
11
126.0525
21
94.493
31
0
0
LINE
8
TEXTO
10
126.0525
20
94.493
30
0
11
126.2852
21
93.7458
31
0
0
LINE
8
TEXTO
10
126.2852
20
93.7458
30
0
11
126.1505
21
94.0398
31
0
0
LINE
8
TEXTO
10
126.1505
20
94.0398
30
0
11
126.5547
21
93.3415
31
0
0
LINE
8
TEXTO
10
126.5547
20
93.3415
30
0
11
126.3832
21
93.5743
31
0
0
LINE
8
TEXTO
10
126.3832
20
93.5743
30
0
11
126.812
21
93.072
31
0
0
LINE
8
TEXTO
10
126.812
20
93.072
30
0
11
149.6582
21
71.316
31
0
0
LINE
8
TEXTO
10
149.6582
20
71.316
30
0
11
150.3197
21
70.8138
31
0
0
LINE
8
TEXTO
10
150.3197
20
70.8138
30
0
11
150.0502
21
70.973
31
0
0
LINE
8
TEXTO
10
150.0502
20
70.973
30
0
11
150.7485
21
70.63
31
0
0
LINE
8
TEXTO
10
150.7485
20
70.63
30
0
11
150.43
21
70.7403
31
0
0
LINE
8
TEXTO
10
150.43
20
70.7403
30
0
11
151.1772
21
70.5565
31
0
0
LINE
8
TEXTO
10
151.1772
20
70.5565
30
0
11
150.9445
21
70.5933
31
0
0
LINE
8
TEXTO
10
150.9445
20
70.5933
30
0
11
151.7407
21
70.5198
31
0
0
LINE
8
TEXTO
10
151.7407
20
70.5198
30
0
11
151.3732
21
70.5075
31
0
0
LINE
8
TEXTO
10
151.3732
20
70.5075
30
0
11
152.145
21
70.63
31
0
0
LINE
8
TEXTO
10
152.145
20
70.63
30
0
11
151.9122
21
70.581
31
0
0
LINE
8
TEXTO
10
151.9122
20
70.581
30
0
11
152.6595
21
70.8138
31
0
0
LINE
8
TEXTO
10
152.6595
20
70.8138
30
0
11
152.3655
21
70.679
31
0
0
LINE
8
TEXTO
10
152.3655
20
70.679
30
0
11
153.0637
21
71.0833
31
0
0
LINE
8
TEXTO
10
153.0637
20
71.0833
30
0
11
152.8187
21
70.9118
31
0
0
LINE
8
TEXTO
10
152.8187
20
70.9118
30
0
11
153.4557
21
71.4508
31
0
0
LINE
8
TEXTO
10
153.4557
20
71.4508
30
0
11
153.2352
21
71.2303
31
0
0
LINE
8
TEXTO
10
153.2352
20
71.2303
30
0
11
153.7497
21
71.8795
31
0
0
LINE
8
TEXTO
10
153.7497
20
71.8795
30
0
11
153.5905
21
71.6223
31
0
0
LINE
8
TEXTO
10
153.5905
20
71.6223
30
0
11
153.9335
21
72.3205
31
0
0
LINE
8
TEXTO
10
153.9335
20
72.3205
30
0
11
153.8232
21
72.002
31
0
0
LINE
8
TEXTO
10
153.8232
20
72.002
30
0
11
154.007
21
72.7493
31
0
0
LINE
8
TEXTO
10
154.007
20
72.7493
30
0
11
153.9702
21
72.5043
31
0
0
LINE
8
TEXTO
10
153.9702
20
72.5043
30
0
11
154.0315
21
73.3005
31
0
0
LINE
8
TEXTO
10
154.0315
20
73.3005
30
0
11
154.0437
21
72.933
31
0
0
LINE
8
TEXTO
10
154.0437
20
72.933
30
0
11
153.9335
21
73.7048
31
0
0
LINE
8
TEXTO
10
153.9335
20
73.7048
30
0
11
153.9825
21
73.4843
31
0
0
LINE
8
TEXTO
10
153.9825
20
73.4843
30
0
11
153.7497
21
74.2193
31
0
0
LINE
8
TEXTO
10
153.7497
20
74.2193
30
0
11
153.8845
21
73.9253
31
0
0
LINE
8
TEXTO
10
153.8845
20
73.9253
30
0
11
153.4802
21
74.6235
31
0
0
LINE
8
TEXTO
10
153.4802
20
74.6235
30
0
11
153.6517
21
74.3908
31
0
0
LINE
8
TEXTO
10
153.6517
20
74.3908
30
0
11
153.223
21
74.893
31
0
0
LINE
8
TEXTO
10
153.223
20
74.893
30
0
11
130.3767
21
96.649
31
0
0
LINE
8
TEXTO
10
130.3767
20
96.649
30
0
11
129.7152
21
97.1513
31
0
0
LINE
8
TEXTO
10
129.7152
20
97.1513
30
0
11
129.7152
21
97.1513
31
0
0
LINE
8
TEXTO
10
155.4525
20
90.9528
30
0
11
132.3857
21
69.0008
31
0
0
LINE
8
TEXTO
10
132.3857
20
69.0008
30
0
11
131.6262
21
68.3883
31
0
0
LINE
8
TEXTO
10
131.6262
20
68.3883
30
0
11
131.3567
21
68.2168
31
0
0
LINE
8
TEXTO
10
131.3567
20
68.2168
30
0
11
130.6585
21
67.8738
31
0
0
LINE
8
TEXTO
10
130.6585
20
67.8738
30
0
11
130.34
21
67.7513
31
0
0
LINE
8
TEXTO
10
130.34
20
67.7513
30
0
11
129.605
21
67.5675
31
0
0
LINE
8
TEXTO
10
129.605
20
67.5675
30
0
11
129.36
21
67.5308
31
0
0
LINE
8
TEXTO
10
129.36
20
67.5308
30
0
11
128.5637
21
67.4573
31
0
0
LINE
8
TEXTO
10
128.5637
20
67.4573
30
0
11
128.1962
21
67.4695
31
0
0
LINE
8
TEXTO
10
128.1962
20
67.4695
30
0
11
127.4367
21
67.5798
31
0
0
LINE
8
TEXTO
10
127.4367
20
67.5798
30
0
11
127.204
21
67.641
31
0
0
LINE
8
TEXTO
10
127.204
20
67.641
30
0
11
126.4567
21
67.8738
31
0
0
LINE
8
TEXTO
10
126.4567
20
67.8738
30
0
11
126.1505
21
67.9963
31
0
0
LINE
8
TEXTO
10
126.1505
20
67.9963
30
0
11
125.4522
21
68.4005
31
0
0
LINE
8
TEXTO
10
125.4522
20
68.4005
30
0
11
125.2195
21
68.5598
31
0
0
LINE
8
TEXTO
10
125.2195
20
68.5598
30
0
11
124.5825
21
69.0988
31
0
0
LINE
8
TEXTO
10
124.5825
20
69.0988
30
0
11
124.3742
21
69.3193
31
0
0
LINE
8
TEXTO
10
124.3742
20
69.3193
30
0
11
123.8597
21
69.9808
31
0
0
LINE
8
TEXTO
10
123.8597
20
69.9808
30
0
11
123.7005
21
70.238
31
0
0
LINE
8
TEXTO
10
123.7005
20
70.238
30
0
11
123.3452
21
70.9363
31
0
0
LINE
8
TEXTO
10
123.3452
20
70.9363
30
0
11
123.2227
21
71.2548
31
0
0
LINE
8
TEXTO
10
123.2227
20
71.2548
30
0
11
123.039
21
72.002
31
0
0
LINE
8
TEXTO
10
123.039
20
72.002
30
0
11
123.0022
21
72.2838
31
0
0
LINE
8
TEXTO
10
123.0022
20
72.2838
30
0
11
122.9532
21
73.08
31
0
0
LINE
8
TEXTO
10
122.9532
20
73.08
30
0
11
122.9655
21
73.3495
31
0
0
LINE
8
TEXTO
10
122.9655
20
73.3495
30
0
11
123.0512
21
74.1213
31
0
0
LINE
8
TEXTO
10
123.0512
20
74.1213
30
0
11
123.1125
21
74.403
31
0
0
LINE
8
TEXTO
10
123.1125
20
74.403
30
0
11
123.3452
21
75.138
31
0
0
LINE
8
TEXTO
10
123.3452
20
75.138
30
0
11
123.48
21
75.4443
31
0
0
LINE
8
TEXTO
10
123.48
20
75.4443
30
0
11
123.872
21
76.1425
31
0
0
LINE
8
TEXTO
10
123.872
20
76.1425
30
0
11
124.0435
21
76.3875
31
0
0
LINE
8
TEXTO
10
124.0435
20
76.3875
30
0
11
124.5825
21
77.0123
31
0
0
LINE
8
TEXTO
10
124.5825
20
77.0123
30
0
11
147.6492
21
98.9643
31
0
0
LINE
8
TEXTO
10
147.6492
20
98.9643
30
0
11
148.4087
21
99.5768
31
0
0
LINE
8
TEXTO
10
148.4087
20
99.5768
30
0
11
148.6782
21
99.7483
31
0
0
LINE
8
TEXTO
10
148.6782
20
99.7483
30
0
11
149.3765
21
100.0913
31
0
0
LINE
8
TEXTO
10
149.3765
20
100.0913
30
0
11
149.6827
21
100.2138
31
0
0
LINE
8
TEXTO
10
149.6827
20
100.2138
30
0
11
150.43
21
100.3975
31
0
0
LINE
8
TEXTO
10
150.43
20
100.3975
30
0
11
150.724
21
100.4465
31
0
0
LINE
8
TEXTO
10
150.724
20
100.4465
30
0
11
151.508
21
100.4833
31
0
0
LINE
8
TEXTO
10
151.508
20
100.4833
30
0
11
151.7897
21
100.4833
31
0
0
LINE
8
TEXTO
10
151.7897
20
100.4833
30
0
11
152.5615
21
100.3853
31
0
0
LINE
8
TEXTO
10
152.5615
20
100.3853
30
0
11
152.831
21
100.324
31
0
0
LINE
8
TEXTO
10
152.831
20
100.324
30
0
11
153.5782
21
100.0913
31
0
0
LINE
8
TEXTO
10
153.5782
20
100.0913
30
0
11
153.8722
21
99.9688
31
0
0
LINE
8
TEXTO
10
153.8722
20
99.9688
30
0
11
154.5827
21
99.5645
31
0
0
LINE
8
TEXTO
10
154.5827
20
99.5645
30
0
11
154.8155
21
99.4053
31
0
0
LINE
8
TEXTO
10
154.8155
20
99.4053
30
0
11
155.4525
21
98.8663
31
0
0
LINE
8
TEXTO
10
155.4525
20
98.8663
30
0
11
155.6607
21
98.6458
31
0
0
LINE
8
TEXTO
10
155.6607
20
98.6458
30
0
11
156.1752
21
97.9843
31
0
0
LINE
8
TEXTO
10
156.1752
20
97.9843
30
0
11
156.3345
21
97.727
31
0
0
LINE
8
TEXTO
10
156.3345
20
97.727
30
0
11
156.6897
21
97.0288
31
0
0
LINE
8
TEXTO
10
156.6897
20
97.0288
30
0
11
156.8122
21
96.7103
31
0
0
LINE
8
TEXTO
10
156.8122
20
96.7103
30
0
11
156.996
21
95.963
31
0
0
LINE
8
TEXTO
10
156.996
20
95.963
30
0
11
157.0327
21
95.7303
31
0
0
LINE
8
TEXTO
10
157.0327
20
95.7303
30
0
11
157.1062
21
94.934
31
0
0
LINE
8
TEXTO
10
157.1062
20
94.934
30
0
11
157.094
21
94.5665
31
0
0
LINE
8
TEXTO
10
157.094
20
94.5665
30
0
11
156.9715
21
93.7948
31
0
0
LINE
8
TEXTO
10
156.9715
20
93.7948
30
0
11
156.9225
21
93.5743
31
0
0
LINE
8
TEXTO
10
156.9225
20
93.5743
30
0
11
156.6897
21
92.827
31
0
0
LINE
8
TEXTO
10
156.6897
20
92.827
30
0
11
156.555
21
92.5208
31
0
0
LINE
8
TEXTO
10
156.555
20
92.5208
30
0
11
156.163
21
91.8225
31
0
0
LINE
8
TEXTO
10
156.163
20
91.8225
30
0
11
155.9915
21
91.5775
31
0
0
LINE
8
TEXTO
10
155.9915
20
91.5775
30
0
11
155.4525
21
90.9528
31
0
0
LINE
8
TEXTO
10
155.4525
20
90.9528
30
0
11
155.4525
21
90.9528
31
0
0
LINE
8
TEXTO
10
153.6517
20
93.5743
30
0
11
153.4802
21
93.3415
31
0
0
LINE
8
TEXTO
10
153.4802
20
93.3415
30
0
11
153.8845
21
94.0398
31
0
0
LINE
8
TEXTO
10
153.8845
20
94.0398
30
0
11
153.7497
21
93.7458
31
0
0
LINE
8
TEXTO
10
153.7497
20
93.7458
30
0
11
153.9825
21
94.493
31
0
0
LINE
8
TEXTO
10
153.9825
20
94.493
30
0
11
153.9335
21
94.2603
31
0
0
LINE
8
TEXTO
10
153.9335
20
94.2603
30
0
11
154.0437
21
95.032
31
0
0
LINE
8
TEXTO
10
154.0437
20
95.032
30
0
11
154.0315
21
94.6645
31
0
0
LINE
8
TEXTO
10
154.0315
20
94.6645
30
0
11
153.9702
21
95.4608
31
0
0
LINE
8
TEXTO
10
153.9702
20
95.4608
30
0
11
154.007
21
95.2158
31
0
0
LINE
8
TEXTO
10
154.007
20
95.2158
30
0
11
153.8232
21
95.963
31
0
0
LINE
8
TEXTO
10
153.8232
20
95.963
30
0
11
153.9335
21
95.6445
31
0
0
LINE
8
TEXTO
10
153.9335
20
95.6445
30
0
11
153.5905
21
96.355
31
0
0
LINE
8
TEXTO
10
153.5905
20
96.355
30
0
11
153.7497
21
96.0855
31
0
0
LINE
8
TEXTO
10
153.7497
20
96.0855
30
0
11
153.2352
21
96.7348
31
0
0
LINE
8
TEXTO
10
153.2352
20
96.7348
30
0
11
153.4557
21
96.5143
31
0
0
LINE
8
TEXTO
10
153.4557
20
96.5143
30
0
11
152.8187
21
97.0533
31
0
0
LINE
8
TEXTO
10
152.8187
20
97.0533
30
0
11
153.0637
21
96.8818
31
0
0
LINE
8
TEXTO
10
153.0637
20
96.8818
30
0
11
152.3655
21
97.286
31
0
0
LINE
8
TEXTO
10
152.3655
20
97.286
30
0
11
152.6595
21
97.1513
31
0
0
LINE
8
TEXTO
10
152.6595
20
97.1513
30
0
11
151.9122
21
97.384
31
0
0
LINE
8
TEXTO
10
151.9122
20
97.384
30
0
11
152.1817
21
97.3228
31
0
0
LINE
8
TEXTO
10
152.1817
20
97.3228
30
0
11
151.4222
21
97.4208
31
0
0
LINE
8
TEXTO
10
151.4222
20
97.4208
30
0
11
151.6917
21
97.4085
31
0
0
LINE
8
TEXTO
10
151.6917
20
97.4085
30
0
11
150.8955
21
97.3718
31
0
0
LINE
8
TEXTO
10
150.8955
20
97.3718
30
0
11
151.1772
21
97.4085
31
0
0
LINE
8
TEXTO
10
151.1772
20
97.4085
30
0
11
150.43
21
97.2248
31
0
0
LINE
8
TEXTO
10
150.43
20
97.2248
30
0
11
150.7485
21
97.335
31
0
0
LINE
8
TEXTO
10
150.7485
20
97.335
30
0
11
150.0502
21
96.992
31
0
0
LINE
8
TEXTO
10
150.0502
20
96.992
30
0
11
150.3197
21
97.1513
31
0
0
LINE
8
TEXTO
10
150.3197
20
97.1513
30
0
11
149.7685
21
96.7348
31
0
0
LINE
8
TEXTO
10
149.7685
20
96.7348
30
0
11
126.9222
21
75.0155
31
0
0
LINE
8
TEXTO
10
126.9222
20
75.0155
30
0
11
126.3832
21
74.3908
31
0
0
LINE
8
TEXTO
10
126.3832
20
74.3908
30
0
11
126.5547
21
74.6235
31
0
0
LINE
8
TEXTO
10
126.5547
20
74.6235
30
0
11
126.1505
21
73.9253
31
0
0
LINE
8
TEXTO
10
126.1505
20
73.9253
30
0
11
126.2852
21
74.2193
31
0
0
LINE
8
TEXTO
10
126.2852
20
74.2193
30
0
11
126.0525
21
73.4843
31
0
0
LINE
8
TEXTO
10
126.0525
20
73.4843
30
0
11
126.1137
21
73.7538
31
0
0
LINE
8
TEXTO
10
126.1137
20
73.7538
30
0
11
126.0157
21
72.982
31
0
0
LINE
8
TEXTO
10
126.0157
20
72.982
30
0
11
126.028
21
73.2638
31
0
0
LINE
8
TEXTO
10
126.028
20
73.2638
30
0
11
126.077
21
72.4675
31
0
0
LINE
8
TEXTO
10
126.077
20
72.4675
30
0
11
126.028
21
72.7493
31
0
0
LINE
8
TEXTO
10
126.028
20
72.7493
30
0
11
126.2117
21
72.002
31
0
0
LINE
8
TEXTO
10
126.2117
20
72.002
30
0
11
126.1015
21
72.3205
31
0
0
LINE
8
TEXTO
10
126.1015
20
72.3205
30
0
11
126.4445
21
71.6223
31
0
0
LINE
8
TEXTO
10
126.4445
20
71.6223
30
0
11
126.2852
21
71.8795
31
0
0
LINE
8
TEXTO
10
126.2852
20
71.8795
30
0
11
126.7997
21
71.2303
31
0
0
LINE
8
TEXTO
10
126.7997
20
71.2303
30
0
11
126.5792
21
71.4508
31
0
0
LINE
8
TEXTO
10
126.5792
20
71.4508
30
0
11
127.2162
21
70.9118
31
0
0
LINE
8
TEXTO
10
127.2162
20
70.9118
30
0
11
126.9712
21
71.0833
31
0
0
LINE
8
TEXTO
10
126.9712
20
71.0833
30
0
11
127.6695
21
70.679
31
0
0
LINE
8
TEXTO
10
127.6695
20
70.679
30
0
11
127.3755
21
70.8138
31
0
0
LINE
8
TEXTO
10
127.3755
20
70.8138
30
0
11
128.1227
21
70.581
31
0
0
LINE
8
TEXTO
10
128.1227
20
70.581
30
0
11
127.89
21
70.63
31
0
0
LINE
8
TEXTO
10
127.89
20
70.63
30
0
11
128.6617
21
70.5075
31
0
0
LINE
8
TEXTO
10
128.6617
20
70.5075
30
0
11
128.2942
21
70.5198
31
0
0
LINE
8
TEXTO
10
128.2942
20
70.5198
30
0
11
129.0905
21
70.5933
31
0
0
LINE
8
TEXTO
10
129.0905
20
70.5933
30
0
11
128.8577
21
70.5565
31
0
0
LINE
8
TEXTO
10
128.8577
20
70.5565
30
0
11
129.605
21
70.7403
31
0
0
LINE
8
TEXTO
10
129.605
20
70.7403
30
0
11
129.2865
21
70.63
31
0
0
LINE
8
TEXTO
10
129.2865
20
70.63
30
0
11
129.9847
21
70.973
31
0
0
LINE
8
TEXTO
10
129.9847
20
70.973
30
0
11
129.7152
21
70.8138
31
0
0
LINE
8
TEXTO
10
129.7152
20
70.8138
30
0
11
130.2665
21
71.2303
31
0
0
LINE
8
TEXTO
10
130.2665
20
71.2303
30
0
11
153.1127
21
92.9495
31
0
0
LINE
8
TEXTO
10
153.1127
20
92.9495
30
0
11
153.6517
21
93.5743
31
0
0
LINE
8
TEXTO
10
153.6517
20
93.5743
30
0
11
153.6517
21
93.5743
31
0
0
ENDSEC
0
EOF
