0
SECTION
2
HEADER
9
$ACADVER
1
AC1009
0
ENDSEC
0
SECTION
2
ENTITIES
0
LINE
8
VINILO
10
61.2573
20
193.1132
30
0
11
63.2314
21
192.9657
31
0
0
LINE
8
VINILO
10
63.2314
20
192.9657
30
0
11
63.7531
21
192.7892
31
0
0
LINE
8
VINILO
10
63.7531
20
192.7892
30
0
11
63.8446
21
192.5703
31
0
0
LINE
8
VINILO
10
63.8446
20
192.5703
30
0
11
61.7926
21
191.9513
31
0
0
LINE
8
VINILO
10
61.7926
20
191.9513
30
0
11
60.4265
21
191.2853
31
0
0
LINE
8
VINILO
10
60.4265
20
191.2853
30
0
11
59.0183
21
190.3213
31
0
0
LINE
8
VINILO
10
59.0183
20
190.3213
30
0
11
57.3302
21
188.7062
31
0
0
LINE
8
VINILO
10
57.3302
20
188.7062
30
0
11
55.6017
21
186.5944
31
0
0
LINE
8
VINILO
10
55.6017
20
186.5944
30
0
11
54.2844
21
184.6442
31
0
0
LINE
8
VINILO
10
54.2844
20
184.6442
30
0
11
52.7778
21
182.033
31
0
0
LINE
8
VINILO
10
52.7778
20
182.033
30
0
11
50.8298
21
178.0638
31
0
0
LINE
8
VINILO
10
50.8298
20
178.0638
30
0
11
48.4565
21
172.1657
31
0
0
LINE
8
VINILO
10
48.4565
20
172.1657
30
0
11
45.8818
21
164.1861
31
0
0
LINE
8
VINILO
10
45.8818
20
164.1861
30
0
11
41.5496
21
147.6651
31
0
0
LINE
8
VINILO
10
41.5496
20
147.6651
30
0
11
41.7163
21
147.4763
31
0
0
LINE
8
VINILO
10
41.7163
20
147.4763
30
0
11
42.9146
21
147.71
31
0
0
LINE
8
VINILO
10
42.9146
20
147.71
30
0
11
50.3153
21
149.6371
31
0
0
LINE
8
VINILO
10
50.3153
20
149.6371
30
0
11
52.0644
21
150.1618
31
0
0
LINE
8
VINILO
10
52.0644
20
150.1618
30
0
11
52.3493
21
150.3961
31
0
0
LINE
8
VINILO
10
52.3493
20
150.3961
30
0
11
55.3224
21
162.9991
31
0
0
LINE
8
VINILO
10
55.3224
20
162.9991
30
0
11
58.3827
21
179.7045
31
0
0
LINE
8
VINILO
10
58.3827
20
179.7045
30
0
11
58.5357
21
179.8738
31
0
0
LINE
8
VINILO
10
58.5357
20
179.8738
30
0
11
58.872
21
179.8335
31
0
0
LINE
8
VINILO
10
58.872
20
179.8335
30
0
11
66.8956
21
173.8744
31
0
0
LINE
8
VINILO
10
66.8956
20
173.8744
30
0
11
67.0968
21
173.4237
31
0
0
LINE
8
VINILO
10
67.0968
20
173.4237
30
0
11
65.3571
21
164.0557
31
0
0
LINE
8
VINILO
10
65.3571
20
164.0557
30
0
11
63.8498
21
157.6676
31
0
0
LINE
8
VINILO
10
63.8498
20
157.6676
30
0
11
61.4846
21
148.7803
31
0
0
LINE
8
VINILO
10
61.4846
20
148.7803
30
0
11
58.4687
21
138.4401
31
0
0
LINE
8
VINILO
10
58.4687
20
138.4401
30
0
11
56.3668
21
132.1451
31
0
0
LINE
8
VINILO
10
56.3668
20
132.1451
30
0
11
54.6432
21
127.5488
31
0
0
LINE
8
VINILO
10
54.6432
20
127.5488
30
0
11
51.9901
21
121.3485
31
0
0
LINE
8
VINILO
10
51.9901
20
121.3485
30
0
11
49.9042
21
117.1771
31
0
0
LINE
8
VINILO
10
49.9042
20
117.1771
30
0
11
48.1244
21
114.1318
31
0
0
LINE
8
VINILO
10
48.1244
20
114.1318
30
0
11
46.4528
21
111.5424
31
0
0
LINE
8
VINILO
10
46.4528
20
111.5424
30
0
11
44.4464
21
108.867
31
0
0
LINE
8
VINILO
10
44.4464
20
108.867
30
0
11
41.3281
21
105.531
31
0
0
LINE
8
VINILO
10
41.3281
20
105.531
30
0
11
40.9492
21
105.318
31
0
0
LINE
8
VINILO
10
40.9492
20
105.318
30
0
11
40.7716
21
105.4531
31
0
0
LINE
8
VINILO
10
40.7716
20
105.4531
30
0
11
43.578
21
109.1177
31
0
0
LINE
8
VINILO
10
43.578
20
109.1177
30
0
11
45.6041
21
112.3016
31
0
0
LINE
8
VINILO
10
45.6041
20
112.3016
30
0
11
48.2048
21
117.1846
31
0
0
LINE
8
VINILO
10
48.2048
20
117.1846
30
0
11
49.7317
21
121.0109
31
0
0
LINE
8
VINILO
10
49.7317
20
121.0109
30
0
11
47.1588
21
117.0669
31
0
0
LINE
8
VINILO
10
47.1588
20
117.0669
30
0
11
44.4424
21
113.4454
31
0
0
LINE
8
VINILO
10
44.4424
20
113.4454
30
0
11
41.0553
21
109.6263
31
0
0
LINE
8
VINILO
10
41.0553
20
109.6263
30
0
11
38.2392
21
107.0266
31
0
0
LINE
8
VINILO
10
38.2392
20
107.0266
30
0
11
35.3339
21
104.7935
31
0
0
LINE
8
VINILO
10
35.3339
20
104.7935
30
0
11
32.6288
21
103.13
31
0
0
LINE
8
VINILO
10
32.6288
20
103.13
30
0
11
29.2164
21
101.5922
31
0
0
LINE
8
VINILO
10
29.2164
20
101.5922
30
0
11
27.0264
21
100.9354
31
0
0
LINE
8
VINILO
10
27.0264
20
100.9354
30
0
11
25.7192
21
100.731
31
0
0
LINE
8
VINILO
10
25.7192
20
100.731
30
0
11
25.5997
21
100.9301
31
0
0
LINE
8
VINILO
10
25.5997
20
100.9301
30
0
11
25.7646
21
101.1767
31
0
0
LINE
8
VINILO
10
25.7646
20
101.1767
30
0
11
28.1561
21
102.4196
31
0
0
LINE
8
VINILO
10
28.1561
20
102.4196
30
0
11
30.2851
21
103.9431
31
0
0
LINE
8
VINILO
10
30.2851
20
103.9431
30
0
11
32.0228
21
105.4637
31
0
0
LINE
8
VINILO
10
32.0228
20
105.4637
30
0
11
33.9784
21
107.4917
31
0
0
LINE
8
VINILO
10
33.9784
20
107.4917
30
0
11
37.5083
21
112.1259
31
0
0
LINE
8
VINILO
10
37.5083
20
112.1259
30
0
11
39.3806
21
115.0786
31
0
0
LINE
8
VINILO
10
39.3806
20
115.0786
30
0
11
41.3207
21
118.5276
31
0
0
LINE
8
VINILO
10
41.3207
20
118.5276
30
0
11
43.7014
21
123.5052
31
0
0
LINE
8
VINILO
10
43.7014
20
123.5052
30
0
11
46.7193
21
131.1937
31
0
0
LINE
8
VINILO
10
46.7193
20
131.1937
30
0
11
49.0812
21
138.464
31
0
0
LINE
8
VINILO
10
49.0812
20
138.464
30
0
11
51.7832
21
148.0338
31
0
0
LINE
8
VINILO
10
51.7832
20
148.0338
30
0
11
51.653
21
148.1148
31
0
0
LINE
8
VINILO
10
51.653
20
148.1148
30
0
11
49.7793
21
147.6934
31
0
0
LINE
8
VINILO
10
49.7793
20
147.6934
30
0
11
30.0914
21
143.0413
31
0
0
LINE
8
VINILO
10
30.0914
20
143.0413
30
0
11
29.5608
21
142.9636
31
0
0
LINE
8
VINILO
10
29.5608
20
142.9636
30
0
11
29.3466
21
143.0929
31
0
0
LINE
8
VINILO
10
29.3466
20
143.0929
30
0
11
29.824
21
145.5557
31
0
0
LINE
8
VINILO
10
29.824
20
145.5557
30
0
11
33.4802
21
158.89
31
0
0
LINE
8
VINILO
10
33.4802
20
158.89
30
0
11
36.2672
21
168.0805
31
0
0
LINE
8
VINILO
10
36.2672
20
168.0805
30
0
11
38.599
21
174.7364
31
0
0
LINE
8
VINILO
10
38.599
20
174.7364
30
0
11
40.175
21
178.5673
31
0
0
LINE
8
VINILO
10
40.175
20
178.5673
30
0
11
42.7478
21
183.702
31
0
0
LINE
8
VINILO
10
42.7478
20
183.702
30
0
11
45.6575
21
188.2313
31
0
0
LINE
8
VINILO
10
45.6575
20
188.2313
30
0
11
47.8465
21
190.751
31
0
0
LINE
8
VINILO
10
47.8465
20
190.751
30
0
11
48.1825
21
190.8075
31
0
0
LINE
8
VINILO
10
48.1825
20
190.8075
30
0
11
48.2059
21
190.49
31
0
0
LINE
8
VINILO
10
48.2059
20
190.49
30
0
11
45.9157
21
187.2121
31
0
0
LINE
8
VINILO
10
45.9157
20
187.2121
30
0
11
43.5306
21
182.7312
31
0
0
LINE
8
VINILO
10
43.5306
20
182.7312
30
0
11
42.0111
21
178.9691
31
0
0
LINE
8
VINILO
10
42.0111
20
178.9691
30
0
11
41.3621
21
176.7625
31
0
0
LINE
8
VINILO
10
41.3621
20
176.7625
30
0
11
43.6173
21
180.6393
31
0
0
LINE
8
VINILO
10
43.6173
20
180.6393
30
0
11
46.0156
21
184.0776
31
0
0
LINE
8
VINILO
10
46.0156
20
184.0776
30
0
11
48.1678
21
186.6341
31
0
0
LINE
8
VINILO
10
48.1678
20
186.6341
30
0
11
50.2097
21
188.6025
31
0
0
LINE
8
VINILO
10
50.2097
20
188.6025
30
0
11
52.6196
21
190.409
31
0
0
LINE
8
VINILO
10
52.6196
20
190.409
30
0
11
55.4879
21
191.936
31
0
0
LINE
8
VINILO
10
55.4879
20
191.936
30
0
11
58.0093
21
192.7626
31
0
0
LINE
8
VINILO
10
58.0093
20
192.7626
30
0
11
59.2073
21
192.9969
31
0
0
LINE
8
VINILO
10
59.2073
20
192.9969
30
0
11
61.2497
21
193.1119
31
0
0
LINE
8
VINILO
10
61.2497
20
193.1119
30
0
11
61.2573
21
193.1132
31
0
0
LINE
8
VINILO
10
128.6466
20
192.97
30
0
11
131.574
21
192.9969
31
0
0
LINE
8
VINILO
10
131.574
20
192.9969
30
0
11
132.8391
21
192.7582
31
0
0
LINE
8
VINILO
10
132.8391
20
192.7582
30
0
11
133.0065
21
192.5157
31
0
0
LINE
8
VINILO
10
133.0065
20
192.5157
30
0
11
132.8153
21
192.3194
31
0
0
LINE
8
VINILO
10
132.8153
20
192.3194
30
0
11
130.9788
21
191.9537
31
0
0
LINE
8
VINILO
10
130.9788
20
191.9537
30
0
11
129.5621
21
191.2847
31
0
0
LINE
8
VINILO
10
129.5621
20
191.2847
30
0
11
128.6633
21
190.7422
31
0
0
LINE
8
VINILO
10
128.6633
20
190.7422
30
0
11
127.1718
21
189.5123
31
0
0
LINE
8
VINILO
10
127.1718
20
189.5123
30
0
11
125.4274
21
187.6223
31
0
0
LINE
8
VINILO
10
125.4274
20
187.6223
30
0
11
123.843
21
185.5097
31
0
0
LINE
8
VINILO
10
123.843
20
185.5097
30
0
11
121.0337
21
180.6562
31
0
0
LINE
8
VINILO
10
121.0337
20
180.6562
30
0
11
118.0707
21
173.9691
31
0
0
LINE
8
VINILO
10
118.0707
20
173.9691
30
0
11
115.9107
21
167.7771
31
0
0
LINE
8
VINILO
10
115.9107
20
167.7771
30
0
11
112.9173
21
157.4232
31
0
0
LINE
8
VINILO
10
112.9173
20
157.4232
30
0
11
110.6016
21
148.2627
31
0
0
LINE
8
VINILO
10
110.6016
20
148.2627
30
0
11
110.56
21
147.5956
31
0
0
LINE
8
VINILO
10
110.56
20
147.5956
30
0
11
112.3092
21
147.9248
31
0
0
LINE
8
VINILO
10
112.3092
20
147.9248
30
0
11
117.9841
21
149.4203
31
0
0
LINE
8
VINILO
10
117.9841
20
149.4203
30
0
11
121.0741
21
150.2959
31
0
0
LINE
8
VINILO
10
121.0741
20
150.2959
30
0
11
121.4165
21
150.5086
31
0
0
LINE
8
VINILO
10
121.4165
20
150.5086
30
0
11
122.7801
21
155.6798
31
0
0
LINE
8
VINILO
10
122.7801
20
155.6798
30
0
11
124.277
21
162.2932
31
0
0
LINE
8
VINILO
10
124.277
20
162.2932
30
0
11
125.7941
21
169.8174
31
0
0
LINE
8
VINILO
10
125.7941
20
169.8174
30
0
11
127.3839
21
179.4264
31
0
0
LINE
8
VINILO
10
127.3839
20
179.4264
30
0
11
127.6151
21
179.8471
31
0
0
LINE
8
VINILO
10
127.6151
20
179.8471
30
0
11
135.8533
21
173.7598
31
0
0
LINE
8
VINILO
10
135.8533
20
173.7598
30
0
11
135.9836
21
173.3901
31
0
0
LINE
8
VINILO
10
135.9836
20
173.3901
30
0
11
135.4499
21
170.3856
31
0
0
LINE
8
VINILO
10
135.4499
20
170.3856
30
0
11
135.5293
21
170.0789
31
0
0
LINE
8
VINILO
10
135.5293
20
170.0789
30
0
11
142.0288
21
166.1316
31
0
0
LINE
8
VINILO
10
142.0288
20
166.1316
30
0
11
164.8452
21
151.5472
31
0
0
LINE
8
VINILO
10
164.8452
20
151.5472
30
0
11
166.2796
21
150.7526
31
0
0
LINE
8
VINILO
10
166.2796
20
150.7526
30
0
11
167.4215
21
150.4623
31
0
0
LINE
8
VINILO
10
167.4215
20
150.4623
30
0
11
168.6619
21
150.7526
31
0
0
LINE
8
VINILO
10
168.6619
20
150.7526
30
0
11
169.8875
21
151.4964
31
0
0
LINE
8
VINILO
10
169.8875
20
151.4964
30
0
11
183.5252
21
161.5989
31
0
0
LINE
8
VINILO
10
183.5252
20
161.5989
30
0
11
204.8054
21
176.502
31
0
0
LINE
8
VINILO
10
204.8054
20
176.502
30
0
11
208.3876
21
178.4878
31
0
0
LINE
8
VINILO
10
208.3876
20
178.4878
30
0
11
209.3196
21
178.7464
31
0
0
LINE
8
VINILO
10
209.3196
20
178.7464
30
0
11
210.5991
21
178.6993
31
0
0
LINE
8
VINILO
10
210.5991
20
178.6993
30
0
11
211.38
21
178.2358
31
0
0
LINE
8
VINILO
10
211.38
20
178.2358
30
0
11
211.8992
21
177.081
31
0
0
LINE
8
VINILO
10
211.8992
20
177.081
30
0
11
212.0455
21
176.0402
31
0
0
LINE
8
VINILO
10
212.0455
20
176.0402
30
0
11
211.9729
21
175.2068
31
0
0
LINE
8
VINILO
10
211.9729
20
175.2068
30
0
11
211.4023
21
173.0829
31
0
0
LINE
8
VINILO
10
211.4023
20
173.0829
30
0
11
208.6025
21
168.2111
31
0
0
LINE
8
VINILO
10
208.6025
20
168.2111
30
0
11
201.4012
21
156.7657
31
0
0
LINE
8
VINILO
10
201.4012
20
156.7657
30
0
11
197.6746
21
150.2157
31
0
0
LINE
8
VINILO
10
197.6746
20
150.2157
30
0
11
195.374
21
145.6143
31
0
0
LINE
8
VINILO
10
195.374
20
145.6143
30
0
11
193.4195
21
141.1594
31
0
0
LINE
8
VINILO
10
193.4195
20
141.1594
30
0
11
192.125
21
137.5214
31
0
0
LINE
8
VINILO
10
192.125
20
137.5214
30
0
11
191.764
21
135.9488
31
0
0
LINE
8
VINILO
10
191.764
20
135.9488
30
0
11
191.7195
21
135.0948
31
0
0
LINE
8
VINILO
10
191.7195
20
135.0948
30
0
11
192.1735
21
134.1165
31
0
0
LINE
8
VINILO
10
192.1735
20
134.1165
30
0
11
192.8044
21
133.512
31
0
0
LINE
8
VINILO
10
192.8044
20
133.512
30
0
11
218.4166
21
114.6247
31
0
0
LINE
8
VINILO
10
218.4166
20
114.6247
30
0
11
219.2758
21
113.416
31
0
0
LINE
8
VINILO
10
219.2758
20
113.416
30
0
11
219.565
21
112.3893
31
0
0
LINE
8
VINILO
10
219.565
20
112.3893
30
0
11
219.5433
21
111.5623
31
0
0
LINE
8
VINILO
10
219.5433
20
111.5623
30
0
11
219.2453
21
110.9292
31
0
0
LINE
8
VINILO
10
219.2453
20
110.9292
30
0
11
218.6221
21
110.4245
31
0
0
LINE
8
VINILO
10
218.6221
20
110.4245
30
0
11
217.511
21
110.0407
31
0
0
LINE
8
VINILO
10
217.511
20
110.0407
30
0
11
186.2503
21
104.0171
31
0
0
LINE
8
VINILO
10
186.2503
20
104.0171
30
0
11
182.202
21
103.4372
31
0
0
LINE
8
VINILO
10
182.202
20
103.4372
30
0
11
180.8725
21
103.057
31
0
0
LINE
8
VINILO
10
180.8725
20
103.057
30
0
11
179.6889
21
102.3069
31
0
0
LINE
8
VINILO
10
179.6889
20
102.3069
30
0
11
178.7763
21
101.3218
31
0
0
LINE
8
VINILO
10
178.7763
20
101.3218
30
0
11
178.1207
21
100.2944
31
0
0
LINE
8
VINILO
10
178.1207
20
100.2944
30
0
11
173.6591
21
90.2541
31
0
0
LINE
8
VINILO
10
173.6591
20
90.2541
30
0
11
168.5002
21
77.8585
31
0
0
LINE
8
VINILO
10
168.5002
20
77.8585
30
0
11
164.7385
21
67.9554
31
0
0
LINE
8
VINILO
10
164.7385
20
67.9554
30
0
11
164.5739
21
68.2389
31
0
0
LINE
8
VINILO
10
164.5739
20
68.2389
30
0
11
164.4891
21
70.7411
31
0
0
LINE
8
VINILO
10
164.4891
20
70.7411
30
0
11
163.867
21
73.5118
31
0
0
LINE
8
VINILO
10
163.867
20
73.5118
30
0
11
162.919
21
75.5537
31
0
0
LINE
8
VINILO
10
162.919
20
75.5537
30
0
11
162.0167
21
76.7819
31
0
0
LINE
8
VINILO
10
162.0167
20
76.7819
30
0
11
161.0582
21
77.7391
31
0
0
LINE
8
VINILO
10
161.0582
20
77.7391
30
0
11
159.9873
21
78.4854
31
0
0
LINE
8
VINILO
10
159.9873
20
78.4854
30
0
11
158.7635
21
79.0789
31
0
0
LINE
8
VINILO
10
158.7635
20
79.0789
30
0
11
157.2438
21
79.4838
31
0
0
LINE
8
VINILO
10
157.2438
20
79.4838
30
0
11
155.3099
21
79.5636
31
0
0
LINE
8
VINILO
10
155.3099
20
79.5636
30
0
11
154.057
21
79.411
31
0
0
LINE
8
VINILO
10
154.057
20
79.411
30
0
11
151.0582
21
78.4739
31
0
0
LINE
8
VINILO
10
151.0582
20
78.4739
30
0
11
150.6499
21
79.4605
31
0
0
LINE
8
VINILO
10
150.6499
20
79.4605
30
0
11
149.4019
21
84.2932
31
0
0
LINE
8
VINILO
10
149.4019
20
84.2932
30
0
11
150.8593
21
86.4669
31
0
0
LINE
8
VINILO
10
150.8593
20
86.4669
30
0
11
153.7909
21
90.2313
31
0
0
LINE
8
VINILO
10
153.7909
20
90.2313
30
0
11
156.4533
21
93.1817
31
0
0
LINE
8
VINILO
10
156.4533
20
93.1817
30
0
11
158.8347
21
95.4911
31
0
0
LINE
8
VINILO
10
158.8347
20
95.4911
30
0
11
160.353
21
96.8642
31
0
0
LINE
8
VINILO
10
160.353
20
96.8642
30
0
11
163.3352
21
99.1546
31
0
0
LINE
8
VINILO
10
163.3352
20
99.1546
30
0
11
165.9307
21
100.8292
31
0
0
LINE
8
VINILO
10
165.9307
20
100.8292
30
0
11
169.0648
21
102.2604
31
0
0
LINE
8
VINILO
10
169.0648
20
102.2604
30
0
11
169.2628
21
102.5295
31
0
0
LINE
8
VINILO
10
169.2628
20
102.5295
30
0
11
166.3062
21
101.2682
31
0
0
LINE
8
VINILO
10
166.3062
20
101.2682
30
0
11
163.76
21
99.7414
31
0
0
LINE
8
VINILO
10
163.76
20
99.7414
30
0
11
161.0691
21
97.7236
31
0
0
LINE
8
VINILO
10
161.0691
20
97.7236
30
0
11
157.9707
21
94.9855
31
0
0
LINE
8
VINILO
10
157.9707
20
94.9855
30
0
11
155.9477
21
92.9622
31
0
0
LINE
8
VINILO
10
155.9477
20
92.9622
30
0
11
152.999
21
89.5819
31
0
0
LINE
8
VINILO
10
152.999
20
89.5819
30
0
11
150.7775
21
86.692
31
0
0
LINE
8
VINILO
10
150.7775
20
86.692
30
0
11
148.6998
21
83.6581
31
0
0
LINE
8
VINILO
10
148.6998
20
83.6581
30
0
11
145.3724
21
77.8995
31
0
0
LINE
8
VINILO
10
145.3724
20
77.8995
30
0
11
142.3583
21
71.1919
31
0
0
LINE
8
VINILO
10
142.3583
20
71.1919
30
0
11
140.9021
21
66.722
31
0
0
LINE
8
VINILO
10
140.9021
20
66.722
30
0
11
140.2074
21
63.7912
31
0
0
LINE
8
VINILO
10
140.2074
20
63.7912
30
0
11
139.3656
21
58.0893
31
0
0
LINE
8
VINILO
10
139.3656
20
58.0893
30
0
11
139.2908
21
55.9718
31
0
0
LINE
8
VINILO
10
139.2908
20
55.9718
30
0
11
139.5125
21
53.5257
31
0
0
LINE
8
VINILO
10
139.5125
20
53.5257
30
0
11
139.9793
21
51.3876
31
0
0
LINE
8
VINILO
10
139.9793
20
51.3876
30
0
11
140.4404
21
50.2731
31
0
0
LINE
8
VINILO
10
140.4404
20
50.2731
30
0
11
140.8226
21
49.6885
31
0
0
LINE
8
VINILO
10
140.8226
20
49.6885
30
0
11
141.5044
21
49.0634
31
0
0
LINE
8
VINILO
10
141.5044
20
49.0634
30
0
11
142.4137
21
48.7284
31
0
0
LINE
8
VINILO
10
142.4137
20
48.7284
30
0
11
143.1836
21
48.6316
31
0
0
LINE
8
VINILO
10
143.1836
20
48.6316
30
0
11
144.3557
21
48.8918
31
0
0
LINE
8
VINILO
10
144.3557
20
48.8918
30
0
11
145.4277
21
49.3505
31
0
0
LINE
8
VINILO
10
145.4277
20
49.3505
30
0
11
147.8906
21
51.104
31
0
0
LINE
8
VINILO
10
147.8906
20
51.104
30
0
11
150.0023
21
53.3608
31
0
0
LINE
8
VINILO
10
150.0023
20
53.3608
30
0
11
152.027
21
56.2059
31
0
0
LINE
8
VINILO
10
152.027
20
56.2059
30
0
11
154.7673
21
61.2536
31
0
0
LINE
8
VINILO
10
154.7673
20
61.2536
30
0
11
156.0771
21
64.5988
31
0
0
LINE
8
VINILO
10
156.0771
20
64.5988
30
0
11
156.7236
21
66.7273
31
0
0
LINE
8
VINILO
10
156.7236
20
66.7273
30
0
11
157.1867
21
68.9945
31
0
0
LINE
8
VINILO
10
157.1867
20
68.9945
30
0
11
157.3372
21
71.4758
31
0
0
LINE
8
VINILO
10
157.3372
20
71.4758
30
0
11
157.1584
21
72.7561
31
0
0
LINE
8
VINILO
10
157.1584
20
72.7561
30
0
11
156.6779
21
73.8064
31
0
0
LINE
8
VINILO
10
156.6779
20
73.8064
30
0
11
155.9769
21
74.4034
31
0
0
LINE
8
VINILO
10
155.9769
20
74.4034
30
0
11
154.9203
21
74.6896
31
0
0
LINE
8
VINILO
10
154.9203
20
74.6896
30
0
11
153.9138
21
74.6128
31
0
0
LINE
8
VINILO
10
153.9138
20
74.6128
30
0
11
151.9425
21
73.997
31
0
0
LINE
8
VINILO
10
151.9425
20
73.997
30
0
11
150.7269
21
73.3328
31
0
0
LINE
8
VINILO
10
150.7269
20
73.3328
30
0
11
149.1811
21
72.2288
31
0
0
LINE
8
VINILO
10
149.1811
20
72.2288
30
0
11
147.5775
21
70.7709
31
0
0
LINE
8
VINILO
10
147.5775
20
70.7709
30
0
11
145.4716
21
68.3024
31
0
0
LINE
8
VINILO
10
145.4716
20
68.3024
30
0
11
144.0993
21
66.2551
31
0
0
LINE
8
VINILO
10
144.0993
20
66.2551
30
0
11
143.2126
21
64.5547
31
0
0
LINE
8
VINILO
10
143.2126
20
64.5547
30
0
11
142.4405
21
62.3996
31
0
0
LINE
8
VINILO
10
142.4405
20
62.3996
30
0
11
142.1518
21
62.2535
31
0
0
LINE
8
VINILO
10
142.1518
20
62.2535
30
0
11
141.9422
21
62.4097
31
0
0
LINE
8
VINILO
10
141.9422
20
62.4097
30
0
11
141.7986
21
63.5786
31
0
0
LINE
8
VINILO
10
141.7986
20
63.5786
30
0
11
142.1804
21
66.1778
31
0
0
LINE
8
VINILO
10
142.1804
20
66.1778
30
0
11
142.8319
21
68.543
31
0
0
LINE
8
VINILO
10
142.8319
20
68.543
30
0
11
143.7181
21
70.6826
31
0
0
LINE
8
VINILO
10
143.7181
20
70.6826
30
0
11
145.3412
21
73.2847
31
0
0
LINE
8
VINILO
10
145.3412
20
73.2847
30
0
11
146.6847
21
74.9311
31
0
0
LINE
8
VINILO
10
146.6847
20
74.9311
30
0
11
148.3217
21
76.4541
31
0
0
LINE
8
VINILO
10
148.3217
20
76.4541
30
0
11
149.889
21
77.5544
31
0
0
LINE
8
VINILO
10
149.889
20
77.5544
30
0
11
151.2179
21
78.2755
31
0
0
LINE
8
VINILO
10
151.2179
20
78.2755
30
0
11
152.7907
21
78.887
31
0
0
LINE
8
VINILO
10
152.7907
20
78.887
30
0
11
155.298
21
79.3427
31
0
0
LINE
8
VINILO
10
155.298
20
79.3427
30
0
11
156.5344
21
79.3473
31
0
0
LINE
8
VINILO
10
156.5344
20
79.3473
30
0
11
157.812
21
79.1121
31
0
0
LINE
8
VINILO
10
157.812
20
79.1121
30
0
11
159.2374
21
78.6307
31
0
0
LINE
8
VINILO
10
159.2374
20
78.6307
30
0
11
160.0356
21
78.1846
31
0
0
LINE
8
VINILO
10
160.0356
20
78.1846
30
0
11
161.6031
21
76.8786
31
0
0
LINE
8
VINILO
10
161.6031
20
76.8786
30
0
11
162.5371
21
75.7089
31
0
0
LINE
8
VINILO
10
162.5371
20
75.7089
30
0
11
163.282
21
74.3681
31
0
0
LINE
8
VINILO
10
163.282
20
74.3681
30
0
11
163.9612
21
72.4512
31
0
0
LINE
8
VINILO
10
163.9612
20
72.4512
30
0
11
164.2026
21
71.1708
31
0
0
LINE
8
VINILO
10
164.2026
20
71.1708
30
0
11
164.4254
21
68.049
31
0
0
LINE
8
VINILO
10
164.4254
20
68.049
30
0
11
163.7521
21
63.4944
31
0
0
LINE
8
VINILO
10
163.7521
20
63.4944
30
0
11
162.9245
21
60.5891
31
0
0
LINE
8
VINILO
10
162.9245
20
60.5891
30
0
11
160.6951
21
55.5228
31
0
0
LINE
8
VINILO
10
160.6951
20
55.5228
30
0
11
158.9733
21
52.5986
31
0
0
LINE
8
VINILO
10
158.9733
20
52.5986
30
0
11
156.2203
21
49.0495
31
0
0
LINE
8
VINILO
10
156.2203
20
49.0495
30
0
11
153.2473
21
46.2217
31
0
0
LINE
8
VINILO
10
153.2473
20
46.2217
30
0
11
150.6876
21
44.4666
31
0
0
LINE
8
VINILO
10
150.6876
20
44.4666
30
0
11
148.9065
21
43.607
31
0
0
LINE
8
VINILO
10
148.9065
20
43.607
30
0
11
147.5204
21
43.14
31
0
0
LINE
8
VINILO
10
147.5204
20
43.14
30
0
11
145.0456
21
42.6876
31
0
0
LINE
8
VINILO
10
145.0456
20
42.6876
30
0
11
143.6248
21
42.6885
31
0
0
LINE
8
VINILO
10
143.6248
20
42.6885
30
0
11
141.3012
21
43.14
31
0
0
LINE
8
VINILO
10
141.3012
20
43.14
30
0
11
139.461
21
43.8332
31
0
0
LINE
8
VINILO
10
139.461
20
43.8332
30
0
11
137.5179
21
45.068
31
0
0
LINE
8
VINILO
10
137.5179
20
45.068
30
0
11
135.7567
21
46.6816
31
0
0
LINE
8
VINILO
10
135.7567
20
46.6816
30
0
11
134.5033
21
48.3017
31
0
0
LINE
8
VINILO
10
134.5033
20
48.3017
30
0
11
133.3967
21
50.3641
31
0
0
LINE
8
VINILO
10
133.3967
20
50.3641
30
0
11
132.7299
21
52.0695
31
0
0
LINE
8
VINILO
10
132.7299
20
52.0695
30
0
11
132.0595
21
55.2216
31
0
0
LINE
8
VINILO
10
132.0595
20
55.2216
30
0
11
132.0626
21
61.2565
31
0
0
LINE
8
VINILO
10
132.0626
20
61.2565
30
0
11
133.1602
21
67.7679
31
0
0
LINE
8
VINILO
10
133.1602
20
67.7679
30
0
11
134.0292
21
70.8825
31
0
0
LINE
8
VINILO
10
134.0292
20
70.8825
30
0
11
135.3298
21
74.6397
31
0
0
LINE
8
VINILO
10
135.3298
20
74.6397
30
0
11
138.1321
21
80.7802
31
0
0
LINE
8
VINILO
10
138.1321
20
80.7802
30
0
11
141.5251
21
86.3122
31
0
0
LINE
8
VINILO
10
141.5251
20
86.3122
30
0
11
143.9716
21
89.577
31
0
0
LINE
8
VINILO
10
143.9716
20
89.577
30
0
11
146.3514
21
92.3893
31
0
0
LINE
8
VINILO
10
146.3514
20
92.3893
30
0
11
149.5201
21
95.5584
31
0
0
LINE
8
VINILO
10
149.5201
20
95.5584
30
0
11
151.0382
21
96.8602
31
0
0
LINE
8
VINILO
10
151.0382
20
96.8602
30
0
11
153.3705
21
98.6636
31
0
0
LINE
8
VINILO
10
153.3705
20
98.6636
30
0
11
156.6253
21
100.7441
31
0
0
LINE
8
VINILO
10
156.6253
20
100.7441
30
0
11
161.0636
21
102.7242
31
0
0
LINE
8
VINILO
10
161.0636
20
102.7242
30
0
11
163.5972
21
103.3685
31
0
0
LINE
8
VINILO
10
163.5972
20
103.3685
30
0
11
165.8744
21
103.6245
31
0
0
LINE
8
VINILO
10
165.8744
20
103.6245
30
0
11
168.0704
21
103.389
31
0
0
LINE
8
VINILO
10
168.0704
20
103.389
30
0
11
169.0943
21
103.0395
31
0
0
LINE
8
VINILO
10
169.0943
20
103.0395
30
0
11
169.1411
21
103.1622
31
0
0
LINE
8
VINILO
10
169.1411
20
103.1622
30
0
11
168.1654
21
103.5736
31
0
0
LINE
8
VINILO
10
168.1654
20
103.5736
30
0
11
166.8083
21
103.7651
31
0
0
LINE
8
VINILO
10
166.8083
20
103.7651
30
0
11
165.8827
21
103.8397
31
0
0
LINE
8
VINILO
10
165.8827
20
103.8397
30
0
11
164.043
21
103.6926
31
0
0
LINE
8
VINILO
10
164.043
20
103.6926
30
0
11
160.569
21
102.7981
31
0
0
LINE
8
VINILO
10
160.569
20
102.7981
30
0
11
158.4673
21
101.9009
31
0
0
LINE
8
VINILO
10
158.4673
20
101.9009
30
0
11
155.8273
21
100.5394
31
0
0
LINE
8
VINILO
10
155.8273
20
100.5394
30
0
11
152.6542
21
98.431
31
0
0
LINE
8
VINILO
10
152.6542
20
98.431
30
0
11
149.7443
21
96.0682
31
0
0
LINE
8
VINILO
10
149.7443
20
96.0682
30
0
11
146.5851
21
93.0609
31
0
0
LINE
8
VINILO
10
146.5851
20
93.0609
30
0
11
146.419
21
93.1512
31
0
0
LINE
8
VINILO
10
146.419
20
93.1512
30
0
11
145.6972
21
94.7479
31
0
0
LINE
8
VINILO
10
145.6972
20
94.7479
30
0
11
145.3063
21
95.1
31
0
0
LINE
8
VINILO
10
145.3063
20
95.1
30
0
11
144.5602
21
95.3834
31
0
0
LINE
8
VINILO
10
144.5602
20
95.3834
30
0
11
131.8586
21
94.9995
31
0
0
LINE
8
VINILO
10
131.8586
20
94.9995
30
0
11
130.0136
21
97.6841
31
0
0
LINE
8
VINILO
10
130.0136
20
97.6841
30
0
11
127.9929
21
99.4411
31
0
0
LINE
8
VINILO
10
127.9929
20
99.4411
30
0
11
126.0326
21
100.4348
31
0
0
LINE
8
VINILO
10
126.0326
20
100.4348
30
0
11
123.2079
21
100.9761
31
0
0
LINE
8
VINILO
10
123.2079
20
100.9761
30
0
11
120.4485
21
100.6392
31
0
0
LINE
8
VINILO
10
120.4485
20
100.6392
30
0
11
119.2312
21
100.2719
31
0
0
LINE
8
VINILO
10
119.2312
20
100.2719
30
0
11
117.5954
21
99.5266
31
0
0
LINE
8
VINILO
10
117.5954
20
99.5266
30
0
11
114.5816
21
97.3573
31
0
0
LINE
8
VINILO
10
114.5816
20
97.3573
30
0
11
111.3311
21
94.0909
31
0
0
LINE
8
VINILO
10
111.3311
20
94.0909
30
0
11
104.862
21
93.6122
31
0
0
LINE
8
VINILO
10
104.862
20
93.6122
30
0
11
103.9785
21
93.6973
31
0
0
LINE
8
VINILO
10
103.9785
20
93.6973
30
0
11
103.5207
21
93.902
31
0
0
LINE
8
VINILO
10
103.5207
20
93.902
30
0
11
103.1317
21
94.4967
31
0
0
LINE
8
VINILO
10
103.1317
20
94.4967
30
0
11
103.344
21
95.1761
31
0
0
LINE
8
VINILO
10
103.344
20
95.1761
30
0
11
103.9555
21
95.97
31
0
0
LINE
8
VINILO
10
103.9555
20
95.97
30
0
11
107.993
21
99.7922
31
0
0
LINE
8
VINILO
10
107.993
20
99.7922
30
0
11
119.8858
21
109.9656
31
0
0
LINE
8
VINILO
10
119.8858
20
109.9656
30
0
11
136.4992
21
123.6453
31
0
0
LINE
8
VINILO
10
136.4992
20
123.6453
30
0
11
137.6208
21
124.8421
31
0
0
LINE
8
VINILO
10
137.6208
20
124.8421
30
0
11
138.4932
21
126.2346
31
0
0
LINE
8
VINILO
10
138.4932
20
126.2346
30
0
11
138.8916
21
127.3848
31
0
0
LINE
8
VINILO
10
138.8916
20
127.3848
30
0
11
139.1435
21
128.7532
31
0
0
LINE
8
VINILO
10
139.1435
20
128.7532
30
0
11
138.9943
21
131.3987
31
0
0
LINE
8
VINILO
10
138.9943
20
131.3987
30
0
11
134.9575
21
148.8194
31
0
0
LINE
8
VINILO
10
134.9575
20
148.8194
30
0
11
134.0721
21
153.4841
31
0
0
LINE
8
VINILO
10
134.0721
20
153.4841
30
0
11
133.2274
21
159.6196
31
0
0
LINE
8
VINILO
10
133.2274
20
159.6196
30
0
11
130.4373
21
148.8551
31
0
0
LINE
8
VINILO
10
130.4373
20
148.8551
30
0
11
127.4357
21
138.5185
31
0
0
LINE
8
VINILO
10
127.4357
20
138.5185
30
0
11
124.8611
21
130.7538
31
0
0
LINE
8
VINILO
10
124.8611
20
130.7538
30
0
11
122.4673
21
124.5896
31
0
0
LINE
8
VINILO
10
122.4673
20
124.5896
30
0
11
119.8747
21
119.0449
31
0
0
LINE
8
VINILO
10
119.8747
20
119.0449
30
0
11
116.5641
21
113.2158
31
0
0
LINE
8
VINILO
10
116.5641
20
113.2158
30
0
11
113.1924
21
108.6472
31
0
0
LINE
8
VINILO
10
113.1924
20
108.6472
30
0
11
110.3856
21
105.7428
31
0
0
LINE
8
VINILO
10
110.3856
20
105.7428
30
0
11
110.1178
21
105.788
31
0
0
LINE
8
VINILO
10
110.1178
20
105.788
30
0
11
110.1543
21
106.0725
31
0
0
LINE
8
VINILO
10
110.1543
20
106.0725
30
0
11
111.7653
21
107.9616
31
0
0
LINE
8
VINILO
10
111.7653
20
107.9616
30
0
11
115.0121
21
112.87
31
0
0
LINE
8
VINILO
10
115.0121
20
112.87
30
0
11
117.3771
21
117.4874
31
0
0
LINE
8
VINILO
10
117.3771
20
117.4874
30
0
11
118.7029
21
120.7913
31
0
0
LINE
8
VINILO
10
118.7029
20
120.7913
30
0
11
115.8511
21
116.3458
31
0
0
LINE
8
VINILO
10
115.8511
20
116.3458
30
0
11
113.933
21
113.7164
31
0
0
LINE
8
VINILO
10
113.933
20
113.7164
30
0
11
111.8192
21
111.1394
31
0
0
LINE
8
VINILO
10
111.8192
20
111.1394
30
0
11
108.135
21
107.4562
31
0
0
LINE
8
VINILO
10
108.135
20
107.4562
30
0
11
104.2115
21
104.5137
31
0
0
LINE
8
VINILO
10
104.2115
20
104.5137
30
0
11
101.3012
21
102.9122
31
0
0
LINE
8
VINILO
10
101.3012
20
102.9122
30
0
11
98.1499
21
101.7845
31
0
0
LINE
8
VINILO
10
98.1499
20
101.7845
30
0
11
97.0476
21
101.5531
31
0
0
LINE
8
VINILO
10
97.0476
20
101.5531
30
0
11
96.0599
21
101.5877
31
0
0
LINE
8
VINILO
10
96.0599
20
101.5877
30
0
11
96.0889
21
101.9836
31
0
0
LINE
8
VINILO
10
96.0889
20
101.9836
30
0
11
98.5186
21
103.2868
31
0
0
LINE
8
VINILO
10
98.5186
20
103.2868
30
0
11
100.4722
21
104.8065
31
0
0
LINE
8
VINILO
10
100.4722
20
104.8065
30
0
11
102.2902
21
106.4798
31
0
0
LINE
8
VINILO
10
102.2902
20
106.4798
30
0
11
105.2485
21
109.9936
31
0
0
LINE
8
VINILO
10
105.2485
20
109.9936
30
0
11
107.7128
21
113.7259
31
0
0
LINE
8
VINILO
10
107.7128
20
113.7259
30
0
11
104.7171
21
114.0315
31
0
0
LINE
8
VINILO
10
104.7171
20
114.0315
30
0
11
102.2645
21
114.6852
31
0
0
LINE
8
VINILO
10
102.2645
20
114.6852
30
0
11
99.7149
21
115.7342
31
0
0
LINE
8
VINILO
10
99.7149
20
115.7342
30
0
11
97.0868
21
117.2508
31
0
0
LINE
8
VINILO
10
97.0868
20
117.2508
30
0
11
94.8972
21
118.8389
31
0
0
LINE
8
VINILO
10
94.8972
20
118.8389
30
0
11
92.6447
21
120.8743
31
0
0
LINE
8
VINILO
10
92.6447
20
120.8743
30
0
11
90.4755
21
123.3332
31
0
0
LINE
8
VINILO
10
90.4755
20
123.3332
30
0
11
88.1425
21
126.613
31
0
0
LINE
8
VINILO
10
88.1425
20
126.613
30
0
11
89.3012
21
123.9761
31
0
0
LINE
8
VINILO
10
89.3012
20
123.9761
30
0
11
91.4626
21
120.2293
31
0
0
LINE
8
VINILO
10
91.4626
20
120.2293
30
0
11
93.6306
21
117.3842
31
0
0
LINE
8
VINILO
10
93.6306
20
117.3842
30
0
11
94.5089
21
116.499
31
0
0
LINE
8
VINILO
10
94.5089
20
116.499
30
0
11
94.5304
21
116.1845
31
0
0
LINE
8
VINILO
10
94.5304
20
116.1845
30
0
11
94.2892
21
116.1565
31
0
0
LINE
8
VINILO
10
94.2892
20
116.1565
30
0
11
93.8181
21
116.4797
31
0
0
LINE
8
VINILO
10
93.8181
20
116.4797
30
0
11
90.9174
21
119.2365
31
0
0
LINE
8
VINILO
10
90.9174
20
119.2365
30
0
11
88.895
21
121.8601
31
0
0
LINE
8
VINILO
10
88.895
20
121.8601
30
0
11
87.4526
21
124.267
31
0
0
LINE
8
VINILO
10
87.4526
20
124.267
30
0
11
86.1487
21
126.9467
31
0
0
LINE
8
VINILO
10
86.1487
20
126.9467
30
0
11
84.7802
21
130.3315
31
0
0
LINE
8
VINILO
10
84.7802
20
130.3315
30
0
11
82.9025
21
136.3941
31
0
0
LINE
8
VINILO
10
82.9025
20
136.3941
30
0
11
80.9686
21
144.3021
31
0
0
LINE
8
VINILO
10
80.9686
20
144.3021
30
0
11
79.0197
21
141.9069
31
0
0
LINE
8
VINILO
10
79.0197
20
141.9069
30
0
11
75.4279
21
136.8064
31
0
0
LINE
8
VINILO
10
75.4279
20
136.8064
30
0
11
72.5632
21
132.1963
31
0
0
LINE
8
VINILO
10
72.5632
20
132.1963
30
0
11
70.0667
21
127.6225
31
0
0
LINE
8
VINILO
10
70.0667
20
127.6225
30
0
11
69.6908
21
127.7479
31
0
0
LINE
8
VINILO
10
69.6908
20
127.7479
30
0
11
65.3448
21
133.471
31
0
0
LINE
8
VINILO
10
65.3448
20
133.471
30
0
11
68.3175
21
139.0201
31
0
0
LINE
8
VINILO
10
68.3175
20
139.0201
30
0
11
72.4099
21
145.4104
31
0
0
LINE
8
VINILO
10
72.4099
20
145.4104
30
0
11
76.5068
21
151.0173
31
0
0
LINE
8
VINILO
10
76.5068
20
151.0173
30
0
11
79.0711
21
154.1047
31
0
0
LINE
8
VINILO
10
79.0711
20
154.1047
30
0
11
78.7049
21
159.8845
31
0
0
LINE
8
VINILO
10
78.7049
20
159.8845
30
0
11
78.6331
21
166.0247
31
0
0
LINE
8
VINILO
10
78.6331
20
166.0247
30
0
11
78.7789
21
169.5849
31
0
0
LINE
8
VINILO
10
78.7789
20
169.5849
30
0
11
79.5147
21
176.3418
31
0
0
LINE
8
VINILO
10
79.5147
20
176.3418
30
0
11
79.7527
21
176.4786
31
0
0
LINE
8
VINILO
10
79.7527
20
176.4786
30
0
11
80.0572
21
176.3564
31
0
0
LINE
8
VINILO
10
80.0572
20
176.3564
30
0
11
87.4475
21
169.8803
31
0
0
LINE
8
VINILO
10
87.4475
20
169.8803
30
0
11
87.1555
21
162.9249
31
0
0
LINE
8
VINILO
10
87.1555
20
162.9249
30
0
11
94.9498
21
170.7537
31
0
0
LINE
8
VINILO
10
94.9498
20
170.7537
30
0
11
100.4783
21
175.7794
31
0
0
LINE
8
VINILO
10
100.4783
20
175.7794
30
0
11
100.912
21
175.8522
31
0
0
LINE
8
VINILO
10
100.912
20
175.8522
30
0
11
104.6249
21
170.1836
31
0
0
LINE
8
VINILO
10
104.6249
20
170.1836
30
0
11
104.6557
21
169.9012
31
0
0
LINE
8
VINILO
10
104.6557
20
169.9012
30
0
11
94.2963
21
159.573
31
0
0
LINE
8
VINILO
10
94.2963
20
159.573
30
0
11
87.804
21
152.4495
31
0
0
LINE
8
VINILO
10
87.804
20
152.4495
30
0
11
87.7301
21
151.1851
31
0
0
LINE
8
VINILO
10
87.7301
20
151.1851
30
0
11
88.2354
21
146.7042
31
0
0
LINE
8
VINILO
10
88.2354
20
146.7042
30
0
11
89.4839
21
139.7886
31
0
0
LINE
8
VINILO
10
89.4839
20
139.7886
30
0
11
90.991
21
134.2865
31
0
0
LINE
8
VINILO
10
90.991
20
134.2865
30
0
11
93.1595
21
128.649
31
0
0
LINE
8
VINILO
10
93.1595
20
128.649
30
0
11
94.2458
21
126.4768
31
0
0
LINE
8
VINILO
10
94.2458
20
126.4768
30
0
11
95.6299
21
124.1728
31
0
0
LINE
8
VINILO
10
95.6299
20
124.1728
30
0
11
97.9442
21
121.1608
31
0
0
LINE
8
VINILO
10
97.9442
20
121.1608
30
0
11
99.6857
21
119.42
31
0
0
LINE
8
VINILO
10
99.6857
20
119.42
30
0
11
101.2454
21
118.1956
31
0
0
LINE
8
VINILO
10
101.2454
20
118.1956
30
0
11
103.1144
21
117.0122
31
0
0
LINE
8
VINILO
10
103.1144
20
117.0122
30
0
11
105.3214
21
115.9248
31
0
0
LINE
8
VINILO
10
105.3214
20
115.9248
30
0
11
107.2858
21
115.2753
31
0
0
LINE
8
VINILO
10
107.2858
20
115.2753
30
0
11
108.3513
21
115.0875
31
0
0
LINE
8
VINILO
10
108.3513
20
115.0875
30
0
11
108.6243
21
115.1668
31
0
0
LINE
8
VINILO
10
108.6243
20
115.1668
30
0
11
110.2784
21
118.1139
31
0
0
LINE
8
VINILO
10
110.2784
20
118.1139
30
0
11
111.7912
21
121.2114
31
0
0
LINE
8
VINILO
10
111.7912
20
121.2114
30
0
11
113.5283
21
125.1586
31
0
0
LINE
8
VINILO
10
113.5283
20
125.1586
30
0
11
115.0372
21
129.1103
31
0
0
LINE
8
VINILO
10
115.0372
20
129.1103
30
0
11
117.4117
21
136.1621
31
0
0
LINE
8
VINILO
10
117.4117
20
136.1621
30
0
11
120.7876
21
148.1316
31
0
0
LINE
8
VINILO
10
120.7876
20
148.1316
30
0
11
118.3788
21
147.6917
31
0
0
LINE
8
VINILO
10
118.3788
20
147.6917
30
0
11
98.5095
21
142.9023
31
0
0
LINE
8
VINILO
10
98.5095
20
142.9023
30
0
11
98.2864
21
143.2418
31
0
0
LINE
8
VINILO
10
98.2864
20
143.2418
30
0
11
98.5823
21
144.6073
31
0
0
LINE
8
VINILO
10
98.5823
20
144.6073
30
0
11
103.3147
21
161.8159
31
0
0
LINE
8
VINILO
10
103.3147
20
161.8159
30
0
11
106.2676
21
171.136
31
0
0
LINE
8
VINILO
10
106.2676
20
171.136
30
0
11
107.7684
21
175.2479
31
0
0
LINE
8
VINILO
10
107.7684
20
175.2479
30
0
11
109.9759
21
180.4436
31
0
0
LINE
8
VINILO
10
109.9759
20
180.4436
30
0
11
112.7935
21
185.6468
31
0
0
LINE
8
VINILO
10
112.7935
20
185.6468
30
0
11
114.4651
21
188.1647
31
0
0
LINE
8
VINILO
10
114.4651
20
188.1647
30
0
11
115.473
21
189.4127
31
0
0
LINE
8
VINILO
10
115.473
20
189.4127
30
0
11
116.7355
21
190.7999
31
0
0
LINE
8
VINILO
10
116.7355
20
190.7999
30
0
11
117.1414
21
190.918
31
0
0
LINE
8
VINILO
10
117.1414
20
190.918
30
0
11
117.1745
21
190.6116
31
0
0
LINE
8
VINILO
10
117.1745
20
190.6116
30
0
11
115.3103
21
187.9999
31
0
0
LINE
8
VINILO
10
115.3103
20
187.9999
30
0
11
113.0815
21
183.9445
31
0
0
LINE
8
VINILO
10
113.0815
20
183.9445
30
0
11
111.4183
21
180.0396
31
0
0
LINE
8
VINILO
10
111.4183
20
180.0396
30
0
11
110.3315
21
176.546
31
0
0
LINE
8
VINILO
10
110.3315
20
176.546
30
0
11
113.8206
21
182.3639
31
0
0
LINE
8
VINILO
10
113.8206
20
182.3639
30
0
11
116.4797
21
185.8368
31
0
0
LINE
8
VINILO
10
116.4797
20
185.8368
30
0
11
118.5204
21
187.9498
31
0
0
LINE
8
VINILO
10
118.5204
20
187.9498
30
0
11
121.64
21
190.3982
31
0
0
LINE
8
VINILO
10
121.64
20
190.3982
30
0
11
123.491
21
191.4207
31
0
0
LINE
8
VINILO
10
123.491
20
191.4207
30
0
11
125.7064
21
192.3206
31
0
0
LINE
8
VINILO
10
125.7064
20
192.3206
30
0
11
128.639
21
192.9687
31
0
0
LINE
8
VINILO
10
128.639
20
192.9687
30
0
11
128.6466
21
192.97
31
0
0
LINE
8
VINILO
10
59.467
20
101.733
30
0
11
61.6305
21
101.6854
31
0
0
LINE
8
VINILO
10
61.6305
20
101.6854
30
0
11
64.2643
21
101.0518
31
0
0
LINE
8
VINILO
10
64.2643
20
101.0518
30
0
11
65.6868
21
100.3348
31
0
0
LINE
8
VINILO
10
65.6868
20
100.3348
30
0
11
66.9468
21
99.4464
31
0
0
LINE
8
VINILO
10
66.9468
20
99.4464
30
0
11
68.5276
21
97.7151
31
0
0
LINE
8
VINILO
10
68.5276
20
97.7151
30
0
11
69.3953
21
96.1389
31
0
0
LINE
8
VINILO
10
69.3953
20
96.1389
30
0
11
69.8554
21
94.8802
31
0
0
LINE
8
VINILO
10
69.8554
20
94.8802
30
0
11
70.3226
21
92.3128
31
0
0
LINE
8
VINILO
10
70.3226
20
92.3128
30
0
11
70.3233
21
90.8856
31
0
0
LINE
8
VINILO
10
70.3233
20
90.8856
30
0
11
70.1023
21
89.1104
31
0
0
LINE
8
VINILO
10
70.1023
20
89.1104
30
0
11
69.4337
21
86.5026
31
0
0
LINE
8
VINILO
10
69.4337
20
86.5026
30
0
11
68.3927
21
83.8285
31
0
0
LINE
8
VINILO
10
68.3927
20
83.8285
30
0
11
66.6657
21
80.5604
31
0
0
LINE
8
VINILO
10
66.6657
20
80.5604
30
0
11
64.5034
21
77.1726
31
0
0
LINE
8
VINILO
10
64.5034
20
77.1726
30
0
11
61.419
21
72.9881
31
0
0
LINE
8
VINILO
10
61.419
20
72.9881
30
0
11
58.3213
21
69.2646
31
0
0
LINE
8
VINILO
10
58.3213
20
69.2646
30
0
11
53.9546
21
64.375
31
0
0
LINE
8
VINILO
10
53.9546
20
64.375
30
0
11
42.3987
21
52.341
31
0
0
LINE
8
VINILO
10
42.3987
20
52.341
30
0
11
46.4971
21
53.3202
31
0
0
LINE
8
VINILO
10
46.4971
20
53.3202
30
0
11
50.4122
21
53.7826
31
0
0
LINE
8
VINILO
10
50.4122
20
53.7826
30
0
11
53.7504
21
53.7818
31
0
0
LINE
8
VINILO
10
53.7504
20
53.7818
30
0
11
55.6149
21
53.5604
31
0
0
LINE
8
VINILO
10
55.6149
20
53.5604
30
0
11
57.9639
21
53.1076
31
0
0
LINE
8
VINILO
10
57.9639
20
53.1076
30
0
11
60.0889
21
52.4485
31
0
0
LINE
8
VINILO
10
60.0889
20
52.4485
30
0
11
61.9908
21
51.6291
31
0
0
LINE
8
VINILO
10
61.9908
20
51.6291
30
0
11
64.327
21
50.3308
31
0
0
LINE
8
VINILO
10
64.327
20
50.3308
30
0
11
65.8112
21
49.3264
31
0
0
LINE
8
VINILO
10
65.8112
20
49.3264
30
0
11
68.0403
21
47.4377
31
0
0
LINE
8
VINILO
10
68.0403
20
47.4377
30
0
11
69.575
21
45.8303
31
0
0
LINE
8
VINILO
10
69.575
20
45.8303
30
0
11
70.8873
21
44.0811
31
0
0
LINE
8
VINILO
10
70.8873
20
44.0811
30
0
11
71.9763
21
41.9921
31
0
0
LINE
8
VINILO
10
71.9763
20
41.9921
30
0
11
72.0041
21
41.6169
31
0
0
LINE
8
VINILO
10
72.0041
20
41.6169
30
0
11
71.8429
21
41.516
31
0
0
LINE
8
VINILO
10
71.8429
20
41.516
30
0
11
71.5877
21
41.6125
31
0
0
LINE
8
VINILO
10
71.5877
20
41.6125
30
0
11
70.3843
21
42.7992
31
0
0
LINE
8
VINILO
10
70.3843
20
42.7992
30
0
11
67.8352
21
44.5471
31
0
0
LINE
8
VINILO
10
67.8352
20
44.5471
30
0
11
66.5599
21
45.2053
31
0
0
LINE
8
VINILO
10
66.5599
20
45.2053
30
0
11
64.2802
21
46.0856
31
0
0
LINE
8
VINILO
10
64.2802
20
46.0856
30
0
11
61.7023
21
46.7214
31
0
0
LINE
8
VINILO
10
61.7023
20
46.7214
30
0
11
58.6456
21
47.1202
31
0
0
LINE
8
VINILO
10
58.6456
20
47.1202
30
0
11
55.3359
21
47.1938
31
0
0
LINE
8
VINILO
10
55.3359
20
47.1938
30
0
11
52.5553
21
46.9756
31
0
0
LINE
8
VINILO
10
52.5553
20
46.9756
30
0
11
50.0752
21
46.6716
31
0
0
LINE
8
VINILO
10
50.0752
20
46.6716
30
0
11
46.9689
21
46.0093
31
0
0
LINE
8
VINILO
10
46.9689
20
46.0093
30
0
11
41.5294
21
44.3409
31
0
0
LINE
8
VINILO
10
41.5294
20
44.3409
30
0
11
38.4863
21
43.0514
31
0
0
LINE
8
VINILO
10
38.4863
20
43.0514
30
0
11
35.025
21
41.3207
31
0
0
LINE
8
VINILO
10
35.025
20
41.3207
30
0
11
32.0657
21
39.4997
31
0
0
LINE
8
VINILO
10
32.0657
20
39.4997
30
0
11
30.0086
21
37.9223
31
0
0
LINE
8
VINILO
10
30.0086
20
37.9223
30
0
11
29.7021
21
37.8675
31
0
0
LINE
8
VINILO
10
29.7021
20
37.8675
30
0
11
27.3102
21
40.7871
31
0
0
LINE
8
VINILO
10
27.3102
20
40.7871
30
0
11
26.3904
21
42.5618
31
0
0
LINE
8
VINILO
10
26.3904
20
42.5618
30
0
11
26.1814
21
43.8122
31
0
0
LINE
8
VINILO
10
26.1814
20
43.8122
30
0
11
26.2525
21
44.5788
31
0
0
LINE
8
VINILO
10
26.2525
20
44.5788
30
0
11
27.0743
21
46.5768
31
0
0
LINE
8
VINILO
10
27.0743
20
46.5768
30
0
11
28.6005
21
48.7567
31
0
0
LINE
8
VINILO
10
28.6005
20
48.7567
30
0
11
32.2651
21
53.0682
31
0
0
LINE
8
VINILO
10
32.2651
20
53.0682
30
0
11
48.1539
21
69.8894
31
0
0
LINE
8
VINILO
10
48.1539
20
69.8894
30
0
11
55.2479
21
77.8433
31
0
0
LINE
8
VINILO
10
55.2479
20
77.8433
30
0
11
58.268
21
81.5103
31
0
0
LINE
8
VINILO
10
58.268
20
81.5103
30
0
11
60.9877
21
85.209
31
0
0
LINE
8
VINILO
10
60.9877
20
85.209
30
0
11
63.0874
21
88.7579
31
0
0
LINE
8
VINILO
10
63.0874
20
88.7579
30
0
11
64.1241
21
91.284
31
0
0
LINE
8
VINILO
10
64.1241
20
91.284
30
0
11
64.3771
21
92.7945
31
0
0
LINE
8
VINILO
10
64.3771
20
92.7945
30
0
11
64.3284
21
93.3457
31
0
0
LINE
8
VINILO
10
64.3284
20
93.3457
30
0
11
63.8863
21
94.6134
31
0
0
LINE
8
VINILO
10
63.8863
20
94.6134
30
0
11
63.2519
21
95.2502
31
0
0
LINE
8
VINILO
10
63.2519
20
95.2502
30
0
11
62.1448
21
95.656
31
0
0
LINE
8
VINILO
10
62.1448
20
95.656
30
0
11
60.2979
21
95.7458
31
0
0
LINE
8
VINILO
10
60.2979
20
95.7458
30
0
11
58.509
21
95.4847
31
0
0
LINE
8
VINILO
10
58.509
20
95.4847
30
0
11
56.4253
21
94.8292
31
0
0
LINE
8
VINILO
10
56.4253
20
94.8292
30
0
11
54.4384
21
93.9605
31
0
0
LINE
8
VINILO
10
54.4384
20
93.9605
30
0
11
51.6881
21
92.3512
31
0
0
LINE
8
VINILO
10
51.6881
20
92.3512
30
0
11
49.7752
21
90.9162
31
0
0
LINE
8
VINILO
10
49.7752
20
90.9162
30
0
11
47.5466
21
88.8836
31
0
0
LINE
8
VINILO
10
47.5466
20
88.8836
30
0
11
44.712
21
85.5147
31
0
0
LINE
8
VINILO
10
44.712
20
85.5147
30
0
11
43.5335
21
83.4078
31
0
0
LINE
8
VINILO
10
43.5335
20
83.4078
30
0
11
43.0643
21
82.1404
31
0
0
LINE
8
VINILO
10
43.0643
20
82.1404
30
0
11
42.9044
21
80.7393
31
0
0
LINE
8
VINILO
10
42.9044
20
80.7393
30
0
11
43.1305
21
80.1597
31
0
0
LINE
8
VINILO
10
43.1305
20
80.1597
30
0
11
43.7282
21
79.6295
31
0
0
LINE
8
VINILO
10
43.7282
20
79.6295
30
0
11
43.7114
21
79.3179
31
0
0
LINE
8
VINILO
10
43.7114
20
79.3179
30
0
11
43.461
21
79.1566
31
0
0
LINE
8
VINILO
10
43.461
20
79.1566
30
0
11
41.8244
21
79.2296
31
0
0
LINE
8
VINILO
10
41.8244
20
79.2296
30
0
11
40.7214
21
79.711
31
0
0
LINE
8
VINILO
10
40.7214
20
79.711
30
0
11
39.6969
21
80.5843
31
0
0
LINE
8
VINILO
10
39.6969
20
80.5843
30
0
11
38.8547
21
82.1144
31
0
0
LINE
8
VINILO
10
38.8547
20
82.1144
30
0
11
38.5309
21
83.6525
31
0
0
LINE
8
VINILO
10
38.5309
20
83.6525
30
0
11
38.6065
21
85.7567
31
0
0
LINE
8
VINILO
10
38.6065
20
85.7567
30
0
11
39.0726
21
87.439
31
0
0
LINE
8
VINILO
10
39.0726
20
87.439
30
0
11
39.6737
21
88.9058
31
0
0
LINE
8
VINILO
10
39.6737
20
88.9058
30
0
11
40.7123
21
90.7586
31
0
0
LINE
8
VINILO
10
40.7123
20
90.7586
30
0
11
43.0115
21
93.6067
31
0
0
LINE
8
VINILO
10
43.0115
20
93.6067
30
0
11
45.3351
21
95.7859
31
0
0
LINE
8
VINILO
10
45.3351
20
95.7859
30
0
11
47.7444
21
97.5929
31
0
0
LINE
8
VINILO
10
47.7444
20
97.5929
30
0
11
51.5243
21
99.6854
31
0
0
LINE
8
VINILO
10
51.5243
20
99.6854
30
0
11
54.3512
21
100.7883
31
0
0
LINE
8
VINILO
10
54.3512
20
100.7883
30
0
11
56.9529
21
101.4452
31
0
0
LINE
8
VINILO
10
56.9529
20
101.4452
30
0
11
59.4593
21
101.7317
31
0
0
LINE
8
VINILO
10
59.4593
20
101.7317
30
0
11
59.467
21
101.733
31
0
0
LINE
8
VINILO
10
90.7625
20
100.6588
30
0
11
92.1778
21
100.6865
31
0
0
LINE
8
VINILO
10
92.1778
20
100.6865
30
0
11
93.8776
21
100.3632
31
0
0
LINE
8
VINILO
10
93.8776
20
100.3632
30
0
11
95.8206
21
99.4685
31
0
0
LINE
8
VINILO
10
95.8206
20
99.4685
30
0
11
97.0298
21
98.583
31
0
0
LINE
8
VINILO
10
97.0298
20
98.583
30
0
11
97.7154
21
97.9705
31
0
0
LINE
8
VINILO
10
97.7154
20
97.9705
30
0
11
99.0424
21
96.2718
31
0
0
LINE
8
VINILO
10
99.0424
20
96.2718
30
0
11
100.1896
21
94.1337
31
0
0
LINE
8
VINILO
10
100.1896
20
94.1337
30
0
11
100.8053
21
92.4488
31
0
0
LINE
8
VINILO
10
100.8053
20
92.4488
30
0
11
101.4437
21
89.8646
31
0
0
LINE
8
VINILO
10
101.4437
20
89.8646
30
0
11
101.6891
21
87.8809
31
0
0
LINE
8
VINILO
10
101.6891
20
87.8809
30
0
11
101.7638
21
82.2543
31
0
0
LINE
8
VINILO
10
101.7638
20
82.2543
30
0
11
101.2557
21
76.8721
31
0
0
LINE
8
VINILO
10
101.2557
20
76.8721
30
0
11
100.1516
21
70.8238
31
0
0
LINE
8
VINILO
10
100.1516
20
70.8238
30
0
11
98.8593
21
65.8945
31
0
0
LINE
8
VINILO
10
98.8593
20
65.8945
30
0
11
97.5735
21
62.2121
31
0
0
LINE
8
VINILO
10
97.5735
20
62.2121
30
0
11
96.2536
21
59.0561
31
0
0
LINE
8
VINILO
10
96.2536
20
59.0561
30
0
11
94.6562
21
55.8195
31
0
0
LINE
8
VINILO
10
94.6562
20
55.8195
30
0
11
93.0882
21
53.1264
31
0
0
LINE
8
VINILO
10
93.0882
20
53.1264
30
0
11
90.4945
21
49.4985
31
0
0
LINE
8
VINILO
10
90.4945
20
49.4985
30
0
11
89.1087
21
47.8945
31
0
0
LINE
8
VINILO
10
89.1087
20
47.8945
30
0
11
87.1621
21
46.0723
31
0
0
LINE
8
VINILO
10
87.1621
20
46.0723
30
0
11
85.4533
21
44.845
31
0
0
LINE
8
VINILO
10
85.4533
20
44.845
30
0
11
84.1853
21
44.1883
31
0
0
LINE
8
VINILO
10
84.1853
20
44.1883
30
0
11
82.3916
21
43.574
31
0
0
LINE
8
VINILO
10
82.3916
20
43.574
30
0
11
80.9425
21
43.3312
31
0
0
LINE
8
VINILO
10
80.9425
20
43.3312
30
0
11
79.6972
21
43.3304
31
0
0
LINE
8
VINILO
10
79.6972
20
43.3304
30
0
11
78.3331
21
43.5687
31
0
0
LINE
8
VINILO
10
78.3331
20
43.5687
30
0
11
76.8188
21
44.0238
31
0
0
LINE
8
VINILO
10
76.8188
20
44.0238
30
0
11
75.5261
21
44.6915
31
0
0
LINE
8
VINILO
10
75.5261
20
44.6915
30
0
11
74.2674
21
45.5812
31
0
0
LINE
8
VINILO
10
74.2674
20
45.5812
30
0
11
72.8748
21
46.9727
31
0
0
LINE
8
VINILO
10
72.8748
20
46.9727
30
0
11
71.9802
21
48.1638
31
0
0
LINE
8
VINILO
10
71.9802
20
48.1638
30
0
11
71.1009
21
49.7016
31
0
0
LINE
8
VINILO
10
71.1009
20
49.7016
30
0
11
70.0017
21
52.5232
31
0
0
LINE
8
VINILO
10
70.0017
20
52.5232
30
0
11
69.3325
21
55.7302
31
0
0
LINE
8
VINILO
10
69.3325
20
55.7302
30
0
11
69.1117
21
58.1412
31
0
0
LINE
8
VINILO
10
69.1117
20
58.1412
30
0
11
69.1083
21
62.4701
31
0
0
LINE
8
VINILO
10
69.1083
20
62.4701
30
0
11
69.545
21
67.3597
31
0
0
LINE
8
VINILO
10
69.545
20
67.3597
30
0
11
70.4242
21
72.2724
31
0
0
LINE
8
VINILO
10
70.4242
20
72.2724
30
0
11
71.7245
21
77.113
31
0
0
LINE
8
VINILO
10
71.7245
20
77.113
30
0
11
73.4805
21
82.0798
31
0
0
LINE
8
VINILO
10
73.4805
20
82.0798
30
0
11
76.0659
21
87.569
31
0
0
LINE
8
VINILO
10
76.0659
20
87.569
30
0
11
79.0159
21
92.2728
31
0
0
LINE
8
VINILO
10
79.0159
20
92.2728
30
0
11
81.6921
21
95.5495
31
0
0
LINE
8
VINILO
10
81.6921
20
95.5495
30
0
11
83.7921
21
97.5047
31
0
0
LINE
8
VINILO
10
83.7921
20
97.5047
30
0
11
85.3314
21
98.6599
31
0
0
LINE
8
VINILO
10
85.3314
20
98.6599
30
0
11
88.2798
21
100.1516
31
0
0
LINE
8
VINILO
10
88.2798
20
100.1516
30
0
11
89.8704
21
100.5931
31
0
0
LINE
8
VINILO
10
89.8704
20
100.5931
30
0
11
90.7549
21
100.6575
31
0
0
LINE
8
VINILO
10
90.7549
20
100.6575
30
0
11
90.7625
21
100.6588
31
0
0
LINE
8
VINILO
10
122.1297
20
100.6588
30
0
11
123.68
21
100.6872
31
0
0
LINE
8
VINILO
10
123.68
20
100.6872
30
0
11
125.4562
21
100.3777
31
0
0
LINE
8
VINILO
10
125.4562
20
100.3777
30
0
11
127.0944
21
99.6794
31
0
0
LINE
8
VINILO
10
127.0944
20
99.6794
30
0
11
128.4331
21
98.7891
31
0
0
LINE
8
VINILO
10
128.4331
20
98.7891
30
0
11
129.508
21
97.832
31
0
0
LINE
8
VINILO
10
129.508
20
97.832
30
0
11
130.6139
21
96.4314
31
0
0
LINE
8
VINILO
10
130.6139
20
96.4314
30
0
11
131.684
21
94.4936
31
0
0
LINE
8
VINILO
10
131.684
20
94.4936
30
0
11
132.1555
21
93.318
31
0
0
LINE
8
VINILO
10
132.1555
20
93.318
30
0
11
133.0503
21
89.8622
31
0
0
LINE
8
VINILO
10
133.0503
20
89.8622
30
0
11
133.418
21
85.6555
31
0
0
LINE
8
VINILO
10
133.418
20
85.6555
30
0
11
133.2711
21
80.4133
31
0
0
LINE
8
VINILO
10
133.2711
20
80.4133
30
0
11
132.8367
21
76.6494
31
0
0
LINE
8
VINILO
10
132.8367
20
76.6494
30
0
11
132.1751
21
72.8261
31
0
0
LINE
8
VINILO
10
132.1751
20
72.8261
30
0
11
130.4456
21
66.0514
31
0
0
LINE
8
VINILO
10
130.4456
20
66.0514
30
0
11
128.6901
21
61.1557
31
0
0
LINE
8
VINILO
10
128.6901
20
61.1557
30
0
11
126.5318
21
56.448
31
0
0
LINE
8
VINILO
10
126.5318
20
56.448
30
0
11
123.578
21
51.5957
31
0
0
LINE
8
VINILO
10
123.578
20
51.5957
30
0
11
120.6907
21
48.0377
31
0
0
LINE
8
VINILO
10
120.6907
20
48.0377
30
0
11
118.9439
21
46.3649
31
0
0
LINE
8
VINILO
10
118.9439
20
46.3649
30
0
11
116.8968
21
44.9029
31
0
0
LINE
8
VINILO
10
116.8968
20
44.9029
30
0
11
114.9382
21
43.9701
31
0
0
LINE
8
VINILO
10
114.9382
20
43.9701
30
0
11
113.4946
21
43.5875
31
0
0
LINE
8
VINILO
10
113.4946
20
43.5875
30
0
11
110.434
21
43.5773
31
0
0
LINE
8
VINILO
10
110.434
20
43.5773
30
0
11
108.9384
21
43.9527
31
0
0
LINE
8
VINILO
10
108.9384
20
43.9527
30
0
11
107.2797
21
44.6751
31
0
0
LINE
8
VINILO
10
107.2797
20
44.6751
30
0
11
106.2173
21
45.3583
31
0
0
LINE
8
VINILO
10
106.2173
20
45.3583
30
0
11
104.9771
21
46.4724
31
0
0
LINE
8
VINILO
10
104.9771
20
46.4724
30
0
11
103.0646
21
49.0717
31
0
0
LINE
8
VINILO
10
103.0646
20
49.0717
30
0
11
102.0418
21
51.2626
31
0
0
LINE
8
VINILO
10
102.0418
20
51.2626
30
0
11
101.5857
21
52.6595
31
0
0
LINE
8
VINILO
10
101.5857
20
52.6595
30
0
11
101.1294
21
54.5128
31
0
0
LINE
8
VINILO
10
101.1294
20
54.5128
30
0
11
100.6937
21
58.2128
31
0
0
LINE
8
VINILO
10
100.6937
20
58.2128
30
0
11
100.6903
21
62.6133
31
0
0
LINE
8
VINILO
10
100.6903
20
62.6133
30
0
11
101.1271
21
67.2164
31
0
0
LINE
8
VINILO
10
101.1271
20
67.2164
30
0
11
102.0046
21
72.1934
31
0
0
LINE
8
VINILO
10
102.0046
20
72.1934
30
0
11
103.5111
21
77.7678
31
0
0
LINE
8
VINILO
10
103.5111
20
77.7678
30
0
11
105.4922
21
83.2973
31
0
0
LINE
8
VINILO
10
105.4922
20
83.2973
30
0
11
107.8174
21
88.0888
31
0
0
LINE
8
VINILO
10
107.8174
20
88.0888
30
0
11
110.5979
21
92.4876
31
0
0
LINE
8
VINILO
10
110.5979
20
92.4876
30
0
11
112.8444
21
95.2631
31
0
0
LINE
8
VINILO
10
112.8444
20
95.2631
30
0
11
114.6485
21
97.0666
31
0
0
LINE
8
VINILO
10
114.6485
20
97.0666
30
0
11
116.2791
21
98.3632
31
0
0
LINE
8
VINILO
10
116.2791
20
98.3632
30
0
11
119.2312
21
99.9855
31
0
0
LINE
8
VINILO
10
119.2312
20
99.9855
30
0
11
120.4352
21
100.375
31
0
0
LINE
8
VINILO
10
120.4352
20
100.375
30
0
11
122.122
21
100.6575
31
0
0
LINE
8
VINILO
10
122.122
20
100.6575
30
0
11
122.1297
21
100.6588
31
0
0
LINE
8
VINILO
10
124.493
20
95.5025
30
0
11
125.9555
21
95.488
31
0
0
LINE
8
VINILO
10
125.9555
20
95.488
30
0
11
126.9744
21
94.994
31
0
0
LINE
8
VINILO
10
126.9744
20
94.994
30
0
11
127.4957
21
94.2621
31
0
0
LINE
8
VINILO
10
127.4957
20
94.2621
30
0
11
127.975
21
92.4766
31
0
0
LINE
8
VINILO
10
127.975
20
92.4766
30
0
11
127.9736
21
89.3185
31
0
0
LINE
8
VINILO
10
127.9736
20
89.3185
30
0
11
127.536
21
85.0206
31
0
0
LINE
8
VINILO
10
127.536
20
85.0206
30
0
11
126.4427
21
79.4
31
0
0
LINE
8
VINILO
10
126.4427
20
79.4
30
0
11
124.9394
21
73.8403
31
0
0
LINE
8
VINILO
10
124.9394
20
73.8403
30
0
11
123.2013
21
68.7392
31
0
0
LINE
8
VINILO
10
123.2013
20
68.7392
30
0
11
121.6972
21
65.0512
31
0
0
LINE
8
VINILO
10
121.6972
20
65.0512
30
0
11
119.9566
21
61.385
31
0
0
LINE
8
VINILO
10
119.9566
20
61.385
30
0
11
117.4951
21
57.1416
31
0
0
LINE
8
VINILO
10
117.4951
20
57.1416
30
0
11
115.4124
21
54.2202
31
0
0
LINE
8
VINILO
10
115.4124
20
54.2202
30
0
11
113.2196
21
51.9549
31
0
0
LINE
8
VINILO
10
113.2196
20
51.9549
30
0
11
111.9684
21
51.2367
31
0
0
LINE
8
VINILO
10
111.9684
20
51.2367
30
0
11
111.213
21
51.1328
31
0
0
LINE
8
VINILO
10
111.213
20
51.1328
30
0
11
110.5172
21
51.2427
31
0
0
LINE
8
VINILO
10
110.5172
20
51.2427
30
0
11
109.7141
21
51.8988
31
0
0
LINE
8
VINILO
10
109.7141
20
51.8988
30
0
11
109.2647
21
52.6847
31
0
0
LINE
8
VINILO
10
109.2647
20
52.6847
30
0
11
108.8387
21
54.0222
31
0
0
LINE
8
VINILO
10
108.8387
20
54.0222
30
0
11
108.5685
21
55.7483
31
0
0
LINE
8
VINILO
10
108.5685
20
55.7483
30
0
11
108.5685
21
60.5538
31
0
0
LINE
8
VINILO
10
108.5685
20
60.5538
30
0
11
109.0774
21
64.6461
31
0
0
LINE
8
VINILO
10
109.0774
20
64.6461
30
0
11
109.6761
21
68.0221
31
0
0
LINE
8
VINILO
10
109.6761
20
68.0221
30
0
11
110.3271
21
70.9876
31
0
0
LINE
8
VINILO
10
110.3271
20
70.9876
30
0
11
111.624
21
75.6705
31
0
0
LINE
8
VINILO
10
111.624
20
75.6705
30
0
11
112.9145
21
79.4378
31
0
0
LINE
8
VINILO
10
112.9145
20
79.4378
30
0
11
114.6411
21
83.5388
31
0
0
LINE
8
VINILO
10
114.6411
20
83.5388
30
0
11
116.3747
21
86.9347
31
0
0
LINE
8
VINILO
10
116.3747
20
86.9347
30
0
11
117.8953
21
89.4692
31
0
0
LINE
8
VINILO
10
117.8953
20
89.4692
30
0
11
119.8456
21
92.0933
31
0
0
LINE
8
VINILO
10
119.8456
20
92.0933
30
0
11
121.7383
21
94.0588
31
0
0
LINE
8
VINILO
10
121.7383
20
94.0588
30
0
11
123.1167
21
95.0347
31
0
0
LINE
8
VINILO
10
123.1167
20
95.0347
30
0
11
124.4853
21
95.5012
31
0
0
LINE
8
VINILO
10
124.4853
20
95.5012
30
0
11
124.493
21
95.5025
31
0
0
LINE
8
VINILO
10
93.1974
20
95.3593
30
0
11
94.3584
21
95.3117
31
0
0
LINE
8
VINILO
10
94.3584
20
95.3117
30
0
11
94.9869
21
95.1078
31
0
0
LINE
8
VINILO
10
94.9869
20
95.1078
30
0
11
95.5584
21
94.6856
31
0
0
LINE
8
VINILO
10
95.5584
20
94.6856
30
0
11
95.891
21
94.1677
31
0
0
LINE
8
VINILO
10
95.891
20
94.1677
30
0
11
96.3888
21
91.8279
31
0
0
LINE
8
VINILO
10
96.3888
20
91.8279
30
0
11
96.393
21
89.4245
31
0
0
LINE
8
VINILO
10
96.393
20
89.4245
30
0
11
95.7391
21
83.8747
31
0
0
LINE
8
VINILO
10
95.7391
20
83.8747
30
0
11
94.8537
21
79.4965
31
0
0
LINE
8
VINILO
10
94.8537
20
79.4965
30
0
11
92.7004
21
71.7669
31
0
0
LINE
8
VINILO
10
92.7004
20
71.7669
30
0
11
91.1769
21
67.5255
31
0
0
LINE
8
VINILO
10
91.1769
20
67.5255
30
0
11
89.6725
21
63.9095
31
0
0
LINE
8
VINILO
10
89.6725
20
63.9095
30
0
11
87.287
21
59.2409
31
0
0
LINE
8
VINILO
10
87.287
20
59.2409
30
0
11
85.7663
21
56.7781
31
0
0
LINE
8
VINILO
10
85.7663
20
56.7781
30
0
11
83.6155
21
53.7905
31
0
0
LINE
8
VINILO
10
83.6155
20
53.7905
30
0
11
81.699
21
51.8219
31
0
0
LINE
8
VINILO
10
81.699
20
51.8219
30
0
11
80.4073
21
51.0279
31
0
0
LINE
8
VINILO
10
80.4073
20
51.0279
30
0
11
79.0614
21
51.0198
31
0
0
LINE
8
VINILO
10
79.0614
20
51.0198
30
0
11
78.4739
21
51.3991
31
0
0
LINE
8
VINILO
10
78.4739
20
51.3991
30
0
11
77.9208
21
52.1351
31
0
0
LINE
8
VINILO
10
77.9208
20
52.1351
30
0
11
77.2566
21
54.237
31
0
0
LINE
8
VINILO
10
77.2566
20
54.237
30
0
11
76.9865
21
55.9631
31
0
0
LINE
8
VINILO
10
76.9865
20
55.9631
30
0
11
76.9865
21
60.697
31
0
0
LINE
8
VINILO
10
76.9865
20
60.697
30
0
11
77.8894
21
67.439
31
0
0
LINE
8
VINILO
10
77.8894
20
67.439
30
0
11
78.7451
21
71.2024
31
0
0
LINE
8
VINILO
10
78.7451
20
71.2024
30
0
11
80.0442
21
75.8205
31
0
0
LINE
8
VINILO
10
80.0442
20
75.8205
30
0
11
81.5473
21
80.0824
31
0
0
LINE
8
VINILO
10
81.5473
20
80.0824
30
0
11
83.0619
21
83.545
31
0
0
LINE
8
VINILO
10
83.0619
20
83.545
30
0
11
85.0107
21
87.2985
31
0
0
LINE
8
VINILO
10
85.0107
20
87.2985
30
0
11
86.4601
21
89.6177
31
0
0
LINE
8
VINILO
10
86.4601
20
89.6177
30
0
11
88.0487
21
91.7352
31
0
0
LINE
8
VINILO
10
88.0487
20
91.7352
30
0
11
90.0328
21
93.8421
31
0
0
LINE
8
VINILO
10
90.0328
20
93.8421
30
0
11
91.3318
21
94.8259
31
0
0
LINE
8
VINILO
10
91.3318
20
94.8259
30
0
11
92.4944
21
95.2746
31
0
0
LINE
8
VINILO
10
92.4944
20
95.2746
30
0
11
93.1898
21
95.358
31
0
0
LINE
8
VINILO
10
93.1898
20
95.358
30
0
11
93.1974
21
95.3593
31
0
0
LINE
8
VINILO
10
153.9266
20
74.3762
30
0
11
155.2463
21
74.398
31
0
0
LINE
8
VINILO
10
155.2463
20
74.398
30
0
11
156.1785
21
74.0232
31
0
0
LINE
8
VINILO
10
156.1785
20
74.0232
30
0
11
156.7093
21
73.3633
31
0
0
LINE
8
VINILO
10
156.7093
20
73.3633
30
0
11
157.1151
21
71.8714
31
0
0
LINE
8
VINILO
10
157.1151
20
71.8714
30
0
11
157.1188
21
70.3157
31
0
0
LINE
8
VINILO
10
157.1188
20
70.3157
30
0
11
156.7184
21
67.6187
31
0
0
LINE
8
VINILO
10
156.7184
20
67.6187
30
0
11
155.578
21
63.7461
31
0
0
LINE
8
VINILO
10
155.578
20
63.7461
30
0
11
155.3551
21
63.4982
31
0
0
LINE
8
VINILO
10
155.3551
20
63.4982
30
0
11
155.1534
21
63.6881
31
0
0
LINE
8
VINILO
10
155.1534
20
63.6881
30
0
11
152.3573
21
73.7381
31
0
0
LINE
8
VINILO
10
152.3573
20
73.7381
30
0
11
152.5154
21
73.997
31
0
0
LINE
8
VINILO
10
152.5154
20
73.997
30
0
11
153.9189
21
74.3749
31
0
0
LINE
8
VINILO
10
153.9189
20
74.3749
30
0
11
153.9266
21
74.3762
31
0
0
ENDSEC
0
EOF
