0
SECTION
2
HEADER
9
$ACADVER
1
AC1009
0
ENDSEC
0
SECTION
2
ENTITIES
0
LINE
8
VINILO
10
279.5317
20
140.4626
30
0
11
279.8702
21
140.5025
31
0
0
LINE
8
VINILO
10
279.8702
20
140.5025
30
0
11
280
21
140.188
31
0
0
LINE
8
VINILO
10
280
20
140.188
30
0
11
280
21
0.3589
31
0
0
LINE
8
VINILO
10
280
20
0.3589
30
0
11
279.8397
21
0.0293
31
0
0
LINE
8
VINILO
10
279.8397
20
0.0293
30
0
11
279.5557
21
0.0627
31
0
0
LINE
8
VINILO
10
279.5557
20
0.0627
30
0
11
279.4534
21
0.3364
31
0
0
LINE
8
VINILO
10
279.4534
20
0.3364
30
0
11
279.3785
21
23.5834
31
0
0
LINE
8
VINILO
10
279.3785
20
23.5834
30
0
11
277.8126
21
24.0911
31
0
0
LINE
8
VINILO
10
277.8126
20
24.0911
30
0
11
273.2992
21
25.0122
31
0
0
LINE
8
VINILO
10
273.2992
20
25.0122
30
0
11
262.6037
21
26.4277
31
0
0
LINE
8
VINILO
10
262.6037
20
26.4277
30
0
11
250.8163
21
27.2525
31
0
0
LINE
8
VINILO
10
250.8163
20
27.2525
30
0
11
248.7949
21
26.494
31
0
0
LINE
8
VINILO
10
248.7949
20
26.494
30
0
11
247.6253
21
26.2622
31
0
0
LINE
8
VINILO
10
247.6253
20
26.2622
30
0
11
243.9363
21
26.1604
31
0
0
LINE
8
VINILO
10
243.9363
20
26.1604
30
0
11
240.9145
21
26.7731
31
0
0
LINE
8
VINILO
10
240.9145
20
26.7731
30
0
11
239.4512
21
27.6909
31
0
0
LINE
8
VINILO
10
239.4512
20
27.6909
30
0
11
232.5956
21
28.3435
31
0
0
LINE
8
VINILO
10
232.5956
20
28.3435
30
0
11
214.4032
21
29.2575
31
0
0
LINE
8
VINILO
10
214.4032
20
29.2575
30
0
11
206.0637
21
29.3489
31
0
0
LINE
8
VINILO
10
206.0637
20
29.3489
30
0
11
203.6809
21
29.077
31
0
0
LINE
8
VINILO
10
203.6809
20
29.077
30
0
11
201.1086
21
29.0765
31
0
0
LINE
8
VINILO
10
201.1086
20
29.0765
30
0
11
196.877
21
29.7099
31
0
0
LINE
8
VINILO
10
196.877
20
29.7099
30
0
11
189.1446
21
30.078
31
0
0
LINE
8
VINILO
10
189.1446
20
30.078
30
0
11
176.7618
21
29.8943
31
0
0
LINE
8
VINILO
10
176.7618
20
29.8943
30
0
11
151.1917
21
27.8928
31
0
0
LINE
8
VINILO
10
151.1917
20
27.8928
30
0
11
143.1399
21
27.8916
31
0
0
LINE
8
VINILO
10
143.1399
20
27.8916
30
0
11
132.027
21
28.9923
31
0
0
LINE
8
VINILO
10
132.027
20
28.9923
30
0
11
111.6868
21
31.8943
31
0
0
LINE
8
VINILO
10
111.6868
20
31.8943
30
0
11
102.3482
21
32.7185
31
0
0
LINE
8
VINILO
10
102.3482
20
32.7185
30
0
11
97.8963
21
32.9036
31
0
0
LINE
8
VINILO
10
97.8963
20
32.9036
30
0
11
88.5656
21
32.9033
31
0
0
LINE
8
VINILO
10
88.5656
20
32.9033
30
0
11
70.7592
21
32.2641
31
0
0
LINE
8
VINILO
10
70.7592
20
32.2641
30
0
11
67.7393
21
32.0711
31
0
0
LINE
8
VINILO
10
67.7393
20
32.0711
30
0
11
66.0027
21
31.4949
31
0
0
LINE
8
VINILO
10
66.0027
20
31.4949
30
0
11
63.9102
21
31.172
31
0
0
LINE
8
VINILO
10
63.9102
20
31.172
30
0
11
60.1253
21
31.2378
31
0
0
LINE
8
VINILO
10
60.1253
20
31.2378
30
0
11
56.8231
21
32.3562
31
0
0
LINE
8
VINILO
10
56.8231
20
32.3562
30
0
11
46.6385
21
32.2653
31
0
0
LINE
8
VINILO
10
46.6385
20
32.2653
30
0
11
38.4828
21
31.8989
31
0
0
LINE
8
VINILO
10
38.4828
20
31.8989
30
0
11
22.4094
21
30.5293
31
0
0
LINE
8
VINILO
10
22.4094
20
30.5293
30
0
11
15.3502
21
29.7043
31
0
0
LINE
8
VINILO
10
15.3502
20
29.7043
30
0
11
7.3196
21
28.381
31
0
0
LINE
8
VINILO
10
7.3196
20
28.381
30
0
11
0.2828
21
26.4972
31
0
0
LINE
8
VINILO
10
0.2828
20
26.4972
30
0
11
0.0312
21
26.5862
31
0
0
LINE
8
VINILO
10
0.0312
20
26.5862
30
0
11
0.0073
21
27.3763
31
0
0
LINE
8
VINILO
10
0.0073
20
27.3763
30
0
11
0.1819
21
27.6119
31
0
0
LINE
8
VINILO
10
0.1819
20
27.6119
30
0
11
3.8098
21
28.7349
31
0
0
LINE
8
VINILO
10
3.8098
20
28.7349
30
0
11
10.8969
21
30.1928
31
0
0
LINE
8
VINILO
10
10.8969
20
30.1928
30
0
11
17.5104
21
31.2156
31
0
0
LINE
8
VINILO
10
17.5104
20
31.2156
30
0
11
15.174
21
33.1809
31
0
0
LINE
8
VINILO
10
15.174
20
33.1809
30
0
11
13.6543
21
35.6831
31
0
0
LINE
8
VINILO
10
13.6543
20
35.6831
30
0
11
13.1816
21
36.8738
31
0
0
LINE
8
VINILO
10
13.1816
20
36.8738
30
0
11
12.7726
21
38.7549
31
0
0
LINE
8
VINILO
10
12.7726
20
38.7549
30
0
11
12.5208
21
42.5134
31
0
0
LINE
8
VINILO
10
12.5208
20
42.5134
30
0
11
11.1483
21
43.0436
31
0
0
LINE
8
VINILO
10
11.1483
20
43.0436
30
0
11
10.8938
21
43.5638
31
0
0
LINE
8
VINILO
10
10.8938
20
43.5638
30
0
11
10.7306
21
44.8818
31
0
0
LINE
8
VINILO
10
10.7306
20
44.8818
30
0
11
8.4274
21
45.2674
31
0
0
LINE
8
VINILO
10
8.4274
20
45.2674
30
0
11
7.5969
21
45.8041
31
0
0
LINE
8
VINILO
10
7.5969
20
45.8041
30
0
11
7.1122
21
47.2221
31
0
0
LINE
8
VINILO
10
7.1122
20
47.2221
30
0
11
7.2477
21
50.4525
31
0
0
LINE
8
VINILO
10
7.2477
20
50.4525
30
0
11
5.0465
21
51.9695
31
0
0
LINE
8
VINILO
10
5.0465
20
51.9695
30
0
11
4.0337
21
53.4518
31
0
0
LINE
8
VINILO
10
4.0337
20
53.4518
30
0
11
3.2546
21
55.4413
31
0
0
LINE
8
VINILO
10
3.2546
20
55.4413
30
0
11
2.735
21
58.2029
31
0
0
LINE
8
VINILO
10
2.735
20
58.2029
30
0
11
2.7359
21
61.0377
31
0
0
LINE
8
VINILO
10
2.7359
20
61.0377
30
0
11
2.9843
21
62.7489
31
0
0
LINE
8
VINILO
10
2.9843
20
62.7489
30
0
11
4.1136
21
66.1997
31
0
0
LINE
8
VINILO
10
4.1136
20
66.1997
30
0
11
5.6036
21
68.4467
31
0
0
LINE
8
VINILO
10
5.6036
20
68.4467
30
0
11
6.6312
21
69.4129
31
0
0
LINE
8
VINILO
10
6.6312
20
69.4129
30
0
11
8.2147
21
70.222
31
0
0
LINE
8
VINILO
10
8.2147
20
70.222
30
0
11
12.2537
21
70.5807
31
0
0
LINE
8
VINILO
10
12.2537
20
70.5807
30
0
11
13.8935
21
75.9022
31
0
0
LINE
8
VINILO
10
13.8935
20
75.9022
30
0
11
13.9237
21
77.3189
31
0
0
LINE
8
VINILO
10
13.9237
20
77.3189
30
0
11
14.3371
21
78.1475
31
0
0
LINE
8
VINILO
10
14.3371
20
78.1475
30
0
11
15.4941
21
79.0412
31
0
0
LINE
8
VINILO
10
15.4941
20
79.0412
30
0
11
18.1797
21
79.5799
31
0
0
LINE
8
VINILO
10
18.1797
20
79.5799
30
0
11
19.2262
21
81.5071
31
0
0
LINE
8
VINILO
10
19.2262
20
81.5071
30
0
11
20.1509
21
82.0521
31
0
0
LINE
8
VINILO
10
20.1509
20
82.0521
30
0
11
32.3653
21
83.1222
31
0
0
LINE
8
VINILO
10
32.3653
20
83.1222
30
0
11
41.0659
21
83.4886
31
0
0
LINE
8
VINILO
10
41.0659
20
83.4886
30
0
11
42.3229
21
82.9568
31
0
0
LINE
8
VINILO
10
42.3229
20
82.9568
30
0
11
43.4175
21
80.998
31
0
0
LINE
8
VINILO
10
43.4175
20
80.998
30
0
11
46.7598
21
80.9412
31
0
0
LINE
8
VINILO
10
46.7598
20
80.9412
30
0
11
47.0771
21
81.1181
31
0
0
LINE
8
VINILO
10
47.0771
20
81.1181
30
0
11
46.9468
21
82.6113
31
0
0
LINE
8
VINILO
10
46.9468
20
82.6113
30
0
11
47.3591
21
83.589
31
0
0
LINE
8
VINILO
10
47.3591
20
83.589
30
0
11
48.2192
21
84.1644
31
0
0
LINE
8
VINILO
10
48.2192
20
84.1644
30
0
11
50.0109
21
84.4919
31
0
0
LINE
8
VINILO
10
50.0109
20
84.4919
30
0
11
51.9532
21
84.3385
31
0
0
LINE
8
VINILO
10
51.9532
20
84.3385
30
0
11
53.0344
21
83.779
31
0
0
LINE
8
VINILO
10
53.0344
20
83.779
30
0
11
53.4115
21
82.675
31
0
0
LINE
8
VINILO
10
53.4115
20
82.675
30
0
11
52.9093
21
80.9855
31
0
0
LINE
8
VINILO
10
52.9093
20
80.9855
30
0
11
53.0499
21
80.7753
31
0
0
LINE
8
VINILO
10
53.0499
20
80.7753
30
0
11
57.0381
21
80.6619
31
0
0
LINE
8
VINILO
10
57.0381
20
80.6619
30
0
11
62.5592
21
80.2016
31
0
0
LINE
8
VINILO
10
62.5592
20
80.2016
30
0
11
64.7319
21
79.8678
31
0
0
LINE
8
VINILO
10
64.7319
20
79.8678
30
0
11
66.0955
21
79.2831
31
0
0
LINE
8
VINILO
10
66.0955
20
79.2831
30
0
11
67.4246
21
77.4336
31
0
0
LINE
8
VINILO
10
67.4246
20
77.4336
30
0
11
70.6616
21
70.5762
31
0
0
LINE
8
VINILO
10
70.6616
20
70.5762
30
0
11
70.9578
21
70.3937
31
0
0
LINE
8
VINILO
10
70.9578
20
70.3937
30
0
11
72.4407
21
70.3159
31
0
0
LINE
8
VINILO
10
72.4407
20
70.3159
30
0
11
73.0895
21
69.8253
31
0
0
LINE
8
VINILO
10
73.0895
20
69.8253
30
0
11
73.3959
21
68.8557
31
0
0
LINE
8
VINILO
10
73.3959
20
68.8557
30
0
11
73.6963
21
66.547
31
0
0
LINE
8
VINILO
10
73.6963
20
66.547
30
0
11
83.2894
21
65.4305
31
0
0
LINE
8
VINILO
10
83.2894
20
65.4305
30
0
11
88.4841
21
64.4729
31
0
0
LINE
8
VINILO
10
88.4841
20
64.4729
30
0
11
90.1633
21
63.9759
31
0
0
LINE
8
VINILO
10
90.1633
20
63.9759
30
0
11
91.5416
21
62.9959
31
0
0
LINE
8
VINILO
10
91.5416
20
62.9959
30
0
11
92.2346
21
61.809
31
0
0
LINE
8
VINILO
10
92.2346
20
61.809
30
0
11
92.7188
21
60.1057
31
0
0
LINE
8
VINILO
10
92.7188
20
60.1057
30
0
11
93.0444
21
57.3551
31
0
0
LINE
8
VINILO
10
93.0444
20
57.3551
30
0
11
94.5715
21
57.3783
31
0
0
LINE
8
VINILO
10
94.5715
20
57.3783
30
0
11
95.6991
21
56.6276
31
0
0
LINE
8
VINILO
10
95.6991
20
56.6276
30
0
11
101.6682
21
57.5807
31
0
0
LINE
8
VINILO
10
101.6682
20
57.5807
30
0
11
107.8834
21
58.942
31
0
0
LINE
8
VINILO
10
107.8834
20
58.942
30
0
11
108.1761
21
59.1392
31
0
0
LINE
8
VINILO
10
108.1761
20
59.1392
30
0
11
108.8025
21
60.3585
31
0
0
LINE
8
VINILO
10
108.8025
20
60.3585
30
0
11
109.8306
21
60.914
31
0
0
LINE
8
VINILO
10
109.8306
20
60.914
30
0
11
110.7176
21
60.9121
31
0
0
LINE
8
VINILO
10
110.7176
20
60.9121
30
0
11
112.0272
21
60.1953
31
0
0
LINE
8
VINILO
10
112.0272
20
60.1953
30
0
11
113.8993
21
60.9127
31
0
0
LINE
8
VINILO
10
113.8993
20
60.9127
30
0
11
116.4926
21
62.6716
31
0
0
LINE
8
VINILO
10
116.4926
20
62.6716
30
0
11
122.1455
21
68.3208
31
0
0
LINE
8
VINILO
10
122.1455
20
68.3208
30
0
11
126.0108
21
70.7445
31
0
0
LINE
8
VINILO
10
126.0108
20
70.7445
30
0
11
128.3719
21
74.0915
31
0
0
LINE
8
VINILO
10
128.3719
20
74.0915
30
0
11
129.8799
21
75.4432
31
0
0
LINE
8
VINILO
10
129.8799
20
75.4432
30
0
11
131.5015
21
76.4079
31
0
0
LINE
8
VINILO
10
131.5015
20
76.4079
30
0
11
133.3024
21
76.783
31
0
0
LINE
8
VINILO
10
133.3024
20
76.783
30
0
11
135.4351
21
76.4922
31
0
0
LINE
8
VINILO
10
135.4351
20
76.4922
30
0
11
138.05
21
75.0853
31
0
0
LINE
8
VINILO
10
138.05
20
75.0853
30
0
11
139.1853
21
73.942
31
0
0
LINE
8
VINILO
10
139.1853
20
73.942
30
0
11
140.9092
21
71.5074
31
0
0
LINE
8
VINILO
10
140.9092
20
71.5074
30
0
11
144.6973
21
69.7811
31
0
0
LINE
8
VINILO
10
144.6973
20
69.7811
30
0
11
145.8754
21
68.7262
31
0
0
LINE
8
VINILO
10
145.8754
20
68.7262
30
0
11
147.6475
21
66.4764
31
0
0
LINE
8
VINILO
10
147.6475
20
66.4764
30
0
11
148.748
21
66.0844
31
0
0
LINE
8
VINILO
10
148.748
20
66.0844
30
0
11
150.1213
21
66.2646
31
0
0
LINE
8
VINILO
10
150.1213
20
66.2646
30
0
11
151.2665
21
67.3411
31
0
0
LINE
8
VINILO
10
151.2665
20
67.3411
30
0
11
152.1544
21
69.404
31
0
0
LINE
8
VINILO
10
152.1544
20
69.404
30
0
11
152.8363
21
73.4867
31
0
0
LINE
8
VINILO
10
152.8363
20
73.4867
30
0
11
152.4977
21
75.0764
31
0
0
LINE
8
VINILO
10
152.4977
20
75.0764
30
0
11
153.2646
21
76.9584
31
0
0
LINE
8
VINILO
10
153.2646
20
76.9584
30
0
11
153.1562
21
77.3058
31
0
0
LINE
8
VINILO
10
153.1562
20
77.3058
30
0
11
151.9736
21
78.3106
31
0
0
LINE
8
VINILO
10
151.9736
20
78.3106
30
0
11
151.4697
21
79.1968
31
0
0
LINE
8
VINILO
10
151.4697
20
79.1968
30
0
11
151.3036
21
80.4518
31
0
0
LINE
8
VINILO
10
151.3036
20
80.4518
30
0
11
151.5808
21
81.3025
31
0
0
LINE
8
VINILO
10
151.5808
20
81.3025
30
0
11
152.1103
21
81.7528
31
0
0
LINE
8
VINILO
10
152.1103
20
81.7528
30
0
11
152.9933
21
81.9164
31
0
0
LINE
8
VINILO
10
152.9933
20
81.9164
30
0
11
154.1057
21
81.5821
31
0
0
LINE
8
VINILO
10
154.1057
20
81.5821
30
0
11
155.3927
21
80.722
31
0
0
LINE
8
VINILO
10
155.3927
20
80.722
30
0
11
157.1499
21
81.3161
31
0
0
LINE
8
VINILO
10
157.1499
20
81.3161
30
0
11
157.6196
21
82.1908
31
0
0
LINE
8
VINILO
10
157.6196
20
82.1908
30
0
11
158.1859
21
82.6498
31
0
0
LINE
8
VINILO
10
158.1859
20
82.6498
30
0
11
158.7429
21
82.8448
31
0
0
LINE
8
VINILO
10
158.7429
20
82.8448
30
0
11
159.4278
21
82.7912
31
0
0
LINE
8
VINILO
10
159.4278
20
82.7912
30
0
11
160.3781
21
82.2035
31
0
0
LINE
8
VINILO
10
160.3781
20
82.2035
30
0
11
160.9104
21
80.9585
31
0
0
LINE
8
VINILO
10
160.9104
20
80.9585
30
0
11
162.0798
21
80.3504
31
0
0
LINE
8
VINILO
10
162.0798
20
80.3504
30
0
11
163.3784
21
79.2793
31
0
0
LINE
8
VINILO
10
163.3784
20
79.2793
30
0
11
167.557
21
78.8664
31
0
0
LINE
8
VINILO
10
167.557
20
78.8664
30
0
11
169.7558
21
78.1713
31
0
0
LINE
8
VINILO
10
169.7558
20
78.1713
30
0
11
170.6929
21
77.1601
31
0
0
LINE
8
VINILO
10
170.6929
20
77.1601
30
0
11
170.9652
21
75.8944
31
0
0
LINE
8
VINILO
10
170.9652
20
75.8944
30
0
11
171.6955
21
74.9726
31
0
0
LINE
8
VINILO
10
171.6955
20
74.9726
30
0
11
171.9885
21
73.9213
31
0
0
LINE
8
VINILO
10
171.9885
20
73.9213
30
0
11
171.692
21
72.3681
31
0
0
LINE
8
VINILO
10
171.692
20
72.3681
30
0
11
171.124
21
71.8423
31
0
0
LINE
8
VINILO
10
171.124
20
71.8423
30
0
11
169.8933
21
71.4749
31
0
0
LINE
8
VINILO
10
169.8933
20
71.4749
30
0
11
170.1607
21
70.7731
31
0
0
LINE
8
VINILO
10
170.1607
20
70.7731
30
0
11
170.0178
21
70.0774
31
0
0
LINE
8
VINILO
10
170.0178
20
70.0774
30
0
11
169.6814
21
69.4796
31
0
0
LINE
8
VINILO
10
169.6814
20
69.4796
30
0
11
168.9933
21
69.0739
31
0
0
LINE
8
VINILO
10
168.9933
20
69.0739
30
0
11
167.9425
21
68.9069
31
0
0
LINE
8
VINILO
10
167.9425
20
68.9069
30
0
11
166.8826
21
69.1458
31
0
0
LINE
8
VINILO
10
166.8826
20
69.1458
30
0
11
164.5683
21
70.6234
31
0
0
LINE
8
VINILO
10
164.5683
20
70.6234
30
0
11
163.4908
21
70.2014
31
0
0
LINE
8
VINILO
10
163.4908
20
70.2014
30
0
11
163.9621
21
68.944
31
0
0
LINE
8
VINILO
10
163.9621
20
68.944
30
0
11
163.7604
21
68.4165
31
0
0
LINE
8
VINILO
10
163.7604
20
68.4165
30
0
11
163.2002
21
68.0539
31
0
0
LINE
8
VINILO
10
163.2002
20
68.0539
30
0
11
162.7199
21
68.0593
31
0
0
LINE
8
VINILO
10
162.7199
20
68.0593
30
0
11
162.1585
21
68.3979
31
0
0
LINE
8
VINILO
10
162.1585
20
68.3979
30
0
11
161.3289
21
69.5964
31
0
0
LINE
8
VINILO
10
161.3289
20
69.5964
30
0
11
160.0829
21
69.2685
31
0
0
LINE
8
VINILO
10
160.0829
20
69.2685
30
0
11
158.5264
21
63.5447
31
0
0
LINE
8
VINILO
10
158.5264
20
63.5447
30
0
11
157.0305
21
60.1415
31
0
0
LINE
8
VINILO
10
157.0305
20
60.1415
30
0
11
154.6827
21
57.2029
31
0
0
LINE
8
VINILO
10
154.6827
20
57.2029
30
0
11
152.9584
21
55.908
31
0
0
LINE
8
VINILO
10
152.9584
20
55.908
30
0
11
151.5568
21
55.1514
31
0
0
LINE
8
VINILO
10
151.5568
20
55.1514
30
0
11
152.9522
21
51.7632
31
0
0
LINE
8
VINILO
10
152.9522
20
51.7632
30
0
11
153.6406
21
50.7541
31
0
0
LINE
8
VINILO
10
153.6406
20
50.7541
30
0
11
155.8238
21
48.7787
31
0
0
LINE
8
VINILO
10
155.8238
20
48.7787
30
0
11
156.7735
21
45.8889
31
0
0
LINE
8
VINILO
10
156.7735
20
45.8889
30
0
11
158.4605
21
43.3832
31
0
0
LINE
8
VINILO
10
158.4605
20
43.3832
30
0
11
161.069
21
40.8306
31
0
0
LINE
8
VINILO
10
161.069
20
40.8306
30
0
11
163.5195
21
40.8771
31
0
0
LINE
8
VINILO
10
163.5195
20
40.8771
30
0
11
164.52
21
40.442
31
0
0
LINE
8
VINILO
10
164.52
20
40.442
30
0
11
165.0556
21
39.9295
31
0
0
LINE
8
VINILO
10
165.0556
20
39.9295
30
0
11
165.4211
21
38.8721
31
0
0
LINE
8
VINILO
10
165.4211
20
38.8721
30
0
11
165.2354
21
38.0711
31
0
0
LINE
8
VINILO
10
165.2354
20
38.0711
30
0
11
164.555
21
36.997
31
0
0
LINE
8
VINILO
10
164.555
20
36.997
30
0
11
163.0824
21
35.6782
31
0
0
LINE
8
VINILO
10
163.0824
20
35.6782
30
0
11
161.0355
21
34.911
31
0
0
LINE
8
VINILO
10
161.0355
20
34.911
30
0
11
160.0208
21
34.963
31
0
0
LINE
8
VINILO
10
160.0208
20
34.963
30
0
11
159.1265
21
35.4245
31
0
0
LINE
8
VINILO
10
159.1265
20
35.4245
30
0
11
158.6132
21
36.0505
31
0
0
LINE
8
VINILO
10
158.6132
20
36.0505
30
0
11
158.0503
21
37.5726
31
0
0
LINE
8
VINILO
10
158.0503
20
37.5726
30
0
11
157.0799
21
38.3567
31
0
0
LINE
8
VINILO
10
157.0799
20
38.3567
30
0
11
155.3072
21
41.9275
31
0
0
LINE
8
VINILO
10
155.3072
20
41.9275
30
0
11
153.8156
21
44.0134
31
0
0
LINE
8
VINILO
10
153.8156
20
44.0134
30
0
11
151.6974
21
45.7461
31
0
0
LINE
8
VINILO
10
151.6974
20
45.7461
30
0
11
150.7196
21
47.6849
31
0
0
LINE
8
VINILO
10
150.7196
20
47.6849
30
0
11
149.7725
21
48.6975
31
0
0
LINE
8
VINILO
10
149.7725
20
48.6975
30
0
11
146.0446
21
51.9536
31
0
0
LINE
8
VINILO
10
146.0446
20
51.9536
30
0
11
145.6637
21
52.0927
31
0
0
LINE
8
VINILO
10
145.6637
20
52.0927
30
0
11
144.749
21
50.9582
31
0
0
LINE
8
VINILO
10
144.749
20
50.9582
30
0
11
143.374
21
48.2202
31
0
0
LINE
8
VINILO
10
143.374
20
48.2202
30
0
11
142.3556
21
44.0434
31
0
0
LINE
8
VINILO
10
142.3556
20
44.0434
30
0
11
141.9282
21
43.4453
31
0
0
LINE
8
VINILO
10
141.9282
20
43.4453
30
0
11
140.226
21
42.0144
31
0
0
LINE
8
VINILO
10
140.226
20
42.0144
30
0
11
139
21
40.0616
31
0
0
LINE
8
VINILO
10
139
20
40.0616
30
0
11
137.6145
21
36.605
31
0
0
LINE
8
VINILO
10
137.6145
20
36.605
30
0
11
136.7922
21
35.4565
31
0
0
LINE
8
VINILO
10
136.7922
20
35.4565
30
0
11
136.6528
21
33.6019
31
0
0
LINE
8
VINILO
10
136.6528
20
33.6019
30
0
11
136.3404
21
32.7977
31
0
0
LINE
8
VINILO
10
136.3404
20
32.7977
30
0
11
135.765
21
32.2111
31
0
0
LINE
8
VINILO
10
135.765
20
32.2111
30
0
11
135.333
21
32.0506
31
0
0
LINE
8
VINILO
10
135.333
20
32.0506
30
0
11
134.6702
21
32.0001
31
0
0
LINE
8
VINILO
10
134.6702
20
32.0001
30
0
11
133.756
21
32.248
31
0
0
LINE
8
VINILO
10
133.756
20
32.248
30
0
11
133.053
21
32.6957
31
0
0
LINE
8
VINILO
10
133.053
20
32.6957
30
0
11
131.9014
21
34.0963
31
0
0
LINE
8
VINILO
10
131.9014
20
34.0963
30
0
11
130.003
21
34.2258
31
0
0
LINE
8
VINILO
10
130.003
20
34.2258
30
0
11
128.8276
21
35.0101
31
0
0
LINE
8
VINILO
10
128.8276
20
35.0101
30
0
11
128.3191
21
36.4384
31
0
0
LINE
8
VINILO
10
128.3191
20
36.4384
30
0
11
127.518
21
37.4488
31
0
0
LINE
8
VINILO
10
127.518
20
37.4488
30
0
11
126.8959
21
39.6408
31
0
0
LINE
8
VINILO
10
126.8959
20
39.6408
30
0
11
126.2097
21
41.0738
31
0
0
LINE
8
VINILO
10
126.2097
20
41.0738
30
0
11
125.38
21
42.5228
31
0
0
LINE
8
VINILO
10
125.38
20
42.5228
30
0
11
123.1465
21
45.2794
31
0
0
LINE
8
VINILO
10
123.1465
20
45.2794
30
0
11
123.0123
21
46.7981
31
0
0
LINE
8
VINILO
10
123.0123
20
46.7981
30
0
11
124.2233
21
49.0164
31
0
0
LINE
8
VINILO
10
124.2233
20
49.0164
30
0
11
124.5841
21
50.3304
31
0
0
LINE
8
VINILO
10
124.5841
20
50.3304
30
0
11
124.5942
21
52.7542
31
0
0
LINE
8
VINILO
10
124.5942
20
52.7542
30
0
11
124.4173
21
53.0794
31
0
0
LINE
8
VINILO
10
124.4173
20
53.0794
30
0
11
122.7634
21
51.5359
31
0
0
LINE
8
VINILO
10
122.7634
20
51.5359
30
0
11
121.3299
21
50.5085
31
0
0
LINE
8
VINILO
10
121.3299
20
50.5085
30
0
11
117.243
21
48.7734
31
0
0
LINE
8
VINILO
10
117.243
20
48.7734
30
0
11
116.0087
21
47.9683
31
0
0
LINE
8
VINILO
10
116.0087
20
47.9683
30
0
11
113.8345
21
44.6396
31
0
0
LINE
8
VINILO
10
113.8345
20
44.6396
30
0
11
111.991
21
39.8637
31
0
0
LINE
8
VINILO
10
111.991
20
39.8637
30
0
11
110.8391
21
38.8964
31
0
0
LINE
8
VINILO
10
110.8391
20
38.8964
30
0
11
110.4531
21
37.7899
31
0
0
LINE
8
VINILO
10
110.4531
20
37.7899
30
0
11
109.8934
21
36.9368
31
0
0
LINE
8
VINILO
10
109.8934
20
36.9368
30
0
11
108.573
21
36.0697
31
0
0
LINE
8
VINILO
10
108.573
20
36.0697
30
0
11
107.8235
21
36.0063
31
0
0
LINE
8
VINILO
10
107.8235
20
36.0063
30
0
11
107.0959
21
36.1902
31
0
0
LINE
8
VINILO
10
107.0959
20
36.1902
30
0
11
106.1249
21
37.1788
31
0
0
LINE
8
VINILO
10
106.1249
20
37.1788
30
0
11
105.7075
21
38.4134
31
0
0
LINE
8
VINILO
10
105.7075
20
38.4134
30
0
11
105.646
21
39.6918
31
0
0
LINE
8
VINILO
10
105.646
20
39.6918
30
0
11
106.0727
21
41.2361
31
0
0
LINE
8
VINILO
10
106.0727
20
41.2361
30
0
11
106.8073
21
42.1649
31
0
0
LINE
8
VINILO
10
106.8073
20
42.1649
30
0
11
108.5446
21
42.8771
31
0
0
LINE
8
VINILO
10
108.5446
20
42.8771
30
0
11
109.6173
21
44.197
31
0
0
LINE
8
VINILO
10
109.6173
20
44.197
30
0
11
111.1051
21
47.1183
31
0
0
LINE
8
VINILO
10
111.1051
20
47.1183
30
0
11
112.0726
21
50.674
31
0
0
LINE
8
VINILO
10
112.0726
20
50.674
30
0
11
112.5986
21
51.5722
31
0
0
LINE
8
VINILO
10
112.5986
20
51.5722
30
0
11
115.0618
21
52.9142
31
0
0
LINE
8
VINILO
10
115.0618
20
52.9142
30
0
11
116.3838
21
54.4064
31
0
0
LINE
8
VINILO
10
116.3838
20
54.4064
30
0
11
117.1531
21
56.5196
31
0
0
LINE
8
VINILO
10
117.1531
20
56.5196
30
0
11
117.9143
21
61.2609
31
0
0
LINE
8
VINILO
10
117.9143
20
61.2609
30
0
11
116.8507
21
60.4564
31
0
0
LINE
8
VINILO
10
116.8507
20
60.4564
30
0
11
114.9705
21
59.4427
31
0
0
LINE
8
VINILO
10
114.9705
20
59.4427
30
0
11
112.3741
21
58.5756
31
0
0
LINE
8
VINILO
10
112.3741
20
58.5756
30
0
11
111.7922
21
57.5169
31
0
0
LINE
8
VINILO
10
111.7922
20
57.5169
30
0
11
110.8736
21
56.8404
31
0
0
LINE
8
VINILO
10
110.8736
20
56.8404
30
0
11
109.4608
21
56.8411
31
0
0
LINE
8
VINILO
10
109.4608
20
56.8411
30
0
11
108.7868
21
57.2496
31
0
0
LINE
8
VINILO
10
108.7868
20
57.2496
30
0
11
108.4066
21
57.7808
31
0
0
LINE
8
VINILO
10
108.4066
20
57.7808
30
0
11
108.0257
21
57.8654
31
0
0
LINE
8
VINILO
10
108.0257
20
57.8654
30
0
11
101.222
21
56.3976
31
0
0
LINE
8
VINILO
10
101.222
20
56.3976
30
0
11
95.8983
21
55.5234
31
0
0
LINE
8
VINILO
10
95.8983
20
55.5234
30
0
11
95.5589
21
55.3957
31
0
0
LINE
8
VINILO
10
95.5589
20
55.3957
30
0
11
94.6503
21
54.413
31
0
0
LINE
8
VINILO
10
94.6503
20
54.413
30
0
11
93.1441
21
54.2444
31
0
0
LINE
8
VINILO
10
93.1441
20
54.2444
30
0
11
93.1822
21
53.323
31
0
0
LINE
8
VINILO
10
93.1822
20
53.323
30
0
11
94.7206
21
53.0384
31
0
0
LINE
8
VINILO
10
94.7206
20
53.0384
30
0
11
95.3694
21
52.3314
31
0
0
LINE
8
VINILO
10
95.3694
20
52.3314
30
0
11
95.5208
21
50.8537
31
0
0
LINE
8
VINILO
10
95.5208
20
50.8537
30
0
11
95.362
21
48.3578
31
0
0
LINE
8
VINILO
10
95.362
20
48.3578
30
0
11
95.155
21
47.6762
31
0
0
LINE
8
VINILO
10
95.155
20
47.6762
30
0
11
94.7019
21
47.1495
31
0
0
LINE
8
VINILO
10
94.7019
20
47.1495
30
0
11
92.6335
21
46.5063
31
0
0
LINE
8
VINILO
10
92.6335
20
46.5063
30
0
11
92.9688
21
43.6646
31
0
0
LINE
8
VINILO
10
92.9688
20
43.6646
30
0
11
92.6412
21
39.8905
31
0
0
LINE
8
VINILO
10
92.6412
20
39.8905
30
0
11
92.1761
21
38.3504
31
0
0
LINE
8
VINILO
10
92.1761
20
38.3504
30
0
11
91.501
21
36.9976
31
0
0
LINE
8
VINILO
10
91.501
20
36.9976
30
0
11
90.5705
21
35.5697
31
0
0
LINE
8
VINILO
10
90.5705
20
35.5697
30
0
11
89.3138
21
34.1718
31
0
0
LINE
8
VINILO
10
89.3138
20
34.1718
30
0
11
97.5763
21
34.0875
31
0
0
LINE
8
VINILO
10
97.5763
20
34.0875
30
0
11
107.4734
21
33.4459
31
0
0
LINE
8
VINILO
10
107.4734
20
33.4459
30
0
11
117.7227
21
32.2564
31
0
0
LINE
8
VINILO
10
117.7227
20
32.2564
30
0
11
135.9462
21
29.6303
31
0
0
LINE
8
VINILO
10
135.9462
20
29.6303
30
0
11
143.242
21
29.0761
31
0
0
LINE
8
VINILO
10
143.242
20
29.0761
30
0
11
148.3113
21
28.9845
31
0
0
LINE
8
VINILO
10
148.3113
20
28.9845
30
0
11
152.8323
21
29.1688
31
0
0
LINE
8
VINILO
10
152.8323
20
29.1688
30
0
11
171.1804
21
30.7133
31
0
0
LINE
8
VINILO
10
171.1804
20
30.7133
30
0
11
177.7863
21
31.0801
31
0
0
LINE
8
VINILO
10
177.7863
20
31.0801
30
0
11
189.1333
21
31.1719
31
0
0
LINE
8
VINILO
10
189.1333
20
31.1719
30
0
11
195.4315
21
30.9255
31
0
0
LINE
8
VINILO
10
195.4315
20
30.9255
30
0
11
195.5235
21
31.1707
31
0
0
LINE
8
VINILO
10
195.5235
20
31.1707
30
0
11
194.1459
21
32.9944
31
0
0
LINE
8
VINILO
10
194.1459
20
32.9944
30
0
11
193.0904
21
35.4024
31
0
0
LINE
8
VINILO
10
193.0904
20
35.4024
30
0
11
192.6869
21
37.6307
31
0
0
LINE
8
VINILO
10
192.6869
20
37.6307
30
0
11
192.5989
21
40.8468
31
0
0
LINE
8
VINILO
10
192.5989
20
40.8468
30
0
11
190.791
21
41.4087
31
0
0
LINE
8
VINILO
10
190.791
20
41.4087
30
0
11
190.4708
21
41.9999
31
0
0
LINE
8
VINILO
10
190.4708
20
41.9999
30
0
11
190.2861
21
43.2621
31
0
0
LINE
8
VINILO
10
190.2861
20
43.2621
30
0
11
188.158
21
43.9596
31
0
0
LINE
8
VINILO
10
188.158
20
43.9596
30
0
11
187.4549
21
44.7946
31
0
0
LINE
8
VINILO
10
187.4549
20
44.7946
30
0
11
187.2151
21
46.7878
31
0
0
LINE
8
VINILO
10
187.2151
20
46.7878
30
0
11
187.2551
21
48.3739
31
0
0
LINE
8
VINILO
10
187.2551
20
48.3739
30
0
11
187.7804
21
49.0222
31
0
0
LINE
8
VINILO
10
187.7804
20
49.0222
30
0
11
188.8113
21
49.1533
31
0
0
LINE
8
VINILO
10
188.8113
20
49.1533
30
0
11
189.0426
21
49.3392
31
0
0
LINE
8
VINILO
10
189.0426
20
49.3392
30
0
11
188.9296
21
52.9116
31
0
0
LINE
8
VINILO
10
188.9296
20
52.9116
30
0
11
187.3817
21
53.4714
31
0
0
LINE
8
VINILO
10
187.3817
20
53.4714
30
0
11
186.8646
21
54.1962
31
0
0
LINE
8
VINILO
10
186.8646
20
54.1962
30
0
11
186.6002
21
55.0939
31
0
0
LINE
8
VINILO
10
186.6002
20
55.0939
30
0
11
183.103
21
56.3135
31
0
0
LINE
8
VINILO
10
183.103
20
56.3135
30
0
11
177.7065
21
58.6188
31
0
0
LINE
8
VINILO
10
177.7065
20
58.6188
30
0
11
170.4351
21
62.5355
31
0
0
LINE
8
VINILO
10
170.4351
20
62.5355
30
0
11
165.3549
21
66.1142
31
0
0
LINE
8
VINILO
10
165.3549
20
66.1142
30
0
11
164.2081
21
67.1662
31
0
0
LINE
8
VINILO
10
164.2081
20
67.1662
30
0
11
164.024
21
67.5669
31
0
0
LINE
8
VINILO
10
164.024
20
67.5669
30
0
11
164.2928
21
67.9411
31
0
0
LINE
8
VINILO
10
164.2928
20
67.9411
30
0
11
164.8889
21
67.9154
31
0
0
LINE
8
VINILO
10
164.8889
20
67.9154
30
0
11
168.7729
21
64.9407
31
0
0
LINE
8
VINILO
10
168.7729
20
64.9407
30
0
11
171.9846
21
62.9001
31
0
0
LINE
8
VINILO
10
171.9846
20
62.9001
30
0
11
175.4125
21
60.996
31
0
0
LINE
8
VINILO
10
175.4125
20
60.996
30
0
11
181.4592
21
58.156
31
0
0
LINE
8
VINILO
10
181.4592
20
58.156
30
0
11
186.6912
21
56.0963
31
0
0
LINE
8
VINILO
10
186.6912
20
56.0963
30
0
11
187.8384
21
56.552
31
0
0
LINE
8
VINILO
10
187.8384
20
56.552
30
0
11
189.2719
21
56.7137
31
0
0
LINE
8
VINILO
10
189.2719
20
56.7137
30
0
11
189.9159
21
60.0231
31
0
0
LINE
8
VINILO
10
189.9159
20
60.0231
30
0
11
190.9772
21
62.1861
31
0
0
LINE
8
VINILO
10
190.9772
20
62.1861
30
0
11
193.0175
21
69.4199
31
0
0
LINE
8
VINILO
10
193.0175
20
69.4199
30
0
11
194.4461
21
73.5056
31
0
0
LINE
8
VINILO
10
194.4461
20
73.5056
30
0
11
194.6795
21
74.8559
31
0
0
LINE
8
VINILO
10
194.6795
20
74.8559
30
0
11
195.6955
21
75.9931
31
0
0
LINE
8
VINILO
10
195.6955
20
75.9931
30
0
11
197.5981
21
76.5629
31
0
0
LINE
8
VINILO
10
197.5981
20
76.5629
30
0
11
197.871
21
78.1813
31
0
0
LINE
8
VINILO
10
197.871
20
78.1813
30
0
11
198.7697
21
78.9117
31
0
0
LINE
8
VINILO
10
198.7697
20
78.9117
30
0
11
198.3312
21
91.5823
31
0
0
LINE
8
VINILO
10
198.3312
20
91.5823
30
0
11
197.962
21
96.6477
31
0
0
LINE
8
VINILO
10
197.962
20
96.6477
30
0
11
197.6303
21
97.696
31
0
0
LINE
8
VINILO
10
197.6303
20
97.696
30
0
11
197.867
21
98.4538
31
0
0
LINE
8
VINILO
10
197.867
20
98.4538
30
0
11
198.3834
21
98.6963
31
0
0
LINE
8
VINILO
10
198.3834
20
98.6963
30
0
11
198.9429
21
98.3236
31
0
0
LINE
8
VINILO
10
198.9429
20
98.3236
30
0
11
199.1508
21
97.6998
31
0
0
LINE
8
VINILO
10
199.1508
20
97.6998
30
0
11
198.8895
21
96.7591
31
0
0
LINE
8
VINILO
10
198.8895
20
96.7591
30
0
11
198.8808
21
95.755
31
0
0
LINE
8
VINILO
10
198.8808
20
95.755
30
0
11
199.4256
21
88.108
31
0
0
LINE
8
VINILO
10
199.4256
20
88.108
30
0
11
199.7072
21
79.1726
31
0
0
LINE
8
VINILO
10
199.7072
20
79.1726
30
0
11
199.8311
21
78.7952
31
0
0
LINE
8
VINILO
10
199.8311
20
78.7952
30
0
11
200.6093
21
78.2517
31
0
0
LINE
8
VINILO
10
200.6093
20
78.2517
30
0
11
200.8533
21
76.7981
31
0
0
LINE
8
VINILO
10
200.8533
20
76.7981
30
0
11
203.0037
21
76.8083
31
0
0
LINE
8
VINILO
10
203.0037
20
76.8083
30
0
11
203.5886
21
77.6704
31
0
0
LINE
8
VINILO
10
203.5886
20
77.6704
30
0
11
204.2606
21
78.1534
31
0
0
LINE
8
VINILO
10
204.2606
20
78.1534
30
0
11
204.1988
21
78.3321
31
0
0
LINE
8
VINILO
10
204.1988
20
78.3321
30
0
11
203.1152
21
78.7866
31
0
0
LINE
8
VINILO
10
203.1152
20
78.7866
30
0
11
202.4798
21
79.45
31
0
0
LINE
8
VINILO
10
202.4798
20
79.45
30
0
11
202.1737
21
80.2262
31
0
0
LINE
8
VINILO
10
202.1737
20
80.2262
30
0
11
202.2206
21
81.0778
31
0
0
LINE
8
VINILO
10
202.2206
20
81.0778
30
0
11
202.8369
21
81.897
31
0
0
LINE
8
VINILO
10
202.8369
20
81.897
30
0
11
203.2286
21
84.0118
31
0
0
LINE
8
VINILO
10
203.2286
20
84.0118
30
0
11
204.0129
21
85.472
31
0
0
LINE
8
VINILO
10
204.0129
20
85.472
30
0
11
205.5262
21
86.6702
31
0
0
LINE
8
VINILO
10
205.5262
20
86.6702
30
0
11
206.8608
21
87.17
31
0
0
LINE
8
VINILO
10
206.8608
20
87.17
30
0
11
209.4909
21
87.673
31
0
0
LINE
8
VINILO
10
209.4909
20
87.673
30
0
11
213.7455
21
88.1352
31
0
0
LINE
8
VINILO
10
213.7455
20
88.1352
30
0
11
223.5066
21
88.3202
31
0
0
LINE
8
VINILO
10
223.5066
20
88.3202
30
0
11
230.0043
21
87.7655
31
0
0
LINE
8
VINILO
10
230.0043
20
87.7655
30
0
11
235.7434
21
86.7143
31
0
0
LINE
8
VINILO
10
235.7434
20
86.7143
30
0
11
239.3846
21
85.388
31
0
0
LINE
8
VINILO
10
239.3846
20
85.388
30
0
11
240.6407
21
84.73
31
0
0
LINE
8
VINILO
10
240.6407
20
84.73
30
0
11
242.0549
21
83.6491
31
0
0
LINE
8
VINILO
10
242.0549
20
83.6491
30
0
11
242.5537
21
82.8605
31
0
0
LINE
8
VINILO
10
242.5537
20
82.8605
30
0
11
242.9752
21
81.3109
31
0
0
LINE
8
VINILO
10
242.9752
20
81.3109
30
0
11
243.6141
21
80.7764
31
0
0
LINE
8
VINILO
10
243.6141
20
80.7764
30
0
11
243.7745
21
80.1751
31
0
0
LINE
8
VINILO
10
243.7745
20
80.1751
30
0
11
243.6537
21
79.3045
31
0
0
LINE
8
VINILO
10
243.6537
20
79.3045
30
0
11
243.1436
21
78.4018
31
0
0
LINE
8
VINILO
10
243.1436
20
78.4018
30
0
11
242.645
21
77.9434
31
0
0
LINE
8
VINILO
10
242.645
20
77.9434
30
0
11
241.6512
21
77.4854
31
0
0
LINE
8
VINILO
10
241.6512
20
77.4854
30
0
11
242.8426
21
77.1338
31
0
0
LINE
8
VINILO
10
242.8426
20
77.1338
30
0
11
243.3555
21
76.7922
31
0
0
LINE
8
VINILO
10
243.3555
20
76.7922
30
0
11
244.0844
21
75.4361
31
0
0
LINE
8
VINILO
10
244.0844
20
75.4361
30
0
11
247.536
21
74.6722
31
0
0
LINE
8
VINILO
10
247.536
20
74.6722
30
0
11
248.6203
21
73.9222
31
0
0
LINE
8
VINILO
10
248.6203
20
73.9222
30
0
11
250.7337
21
69.5643
31
0
0
LINE
8
VINILO
10
250.7337
20
69.5643
30
0
11
252.3969
21
65.4283
31
0
0
LINE
8
VINILO
10
252.3969
20
65.4283
30
0
11
252.7399
21
65.2016
31
0
0
LINE
8
VINILO
10
252.7399
20
65.2016
30
0
11
254.0324
21
65.0928
31
0
0
LINE
8
VINILO
10
254.0324
20
65.0928
30
0
11
254.8205
21
64.4909
31
0
0
LINE
8
VINILO
10
254.8205
20
64.4909
30
0
11
255.105
21
63.693
31
0
0
LINE
8
VINILO
10
255.105
20
63.693
30
0
11
255.2139
21
61.3183
31
0
0
LINE
8
VINILO
10
255.2139
20
61.3183
30
0
11
255.381
21
60.8928
31
0
0
LINE
8
VINILO
10
255.381
20
60.8928
30
0
11
268.3242
21
58.6375
31
0
0
LINE
8
VINILO
10
268.3242
20
58.6375
30
0
11
272.8876
21
57.3676
31
0
0
LINE
8
VINILO
10
272.8876
20
57.3676
30
0
11
273.9926
21
56.7294
31
0
0
LINE
8
VINILO
10
273.9926
20
56.7294
30
0
11
274.8187
21
55.5617
31
0
0
LINE
8
VINILO
10
274.8187
20
55.5617
30
0
11
275.5591
21
53.3512
31
0
0
LINE
8
VINILO
10
275.5591
20
53.3512
30
0
11
275.6663
21
46.7478
31
0
0
LINE
8
VINILO
10
275.6663
20
46.7478
30
0
11
275.9322
21
46.5125
31
0
0
LINE
8
VINILO
10
275.9322
20
46.5125
30
0
11
277.3142
21
46.2994
31
0
0
LINE
8
VINILO
10
277.3142
20
46.2994
30
0
11
277.789
21
45.7032
31
0
0
LINE
8
VINILO
10
277.789
20
45.7032
30
0
11
277.9026
21
44.8846
31
0
0
LINE
8
VINILO
10
277.9026
20
44.8846
30
0
11
277.5903
21
41.141
31
0
0
LINE
8
VINILO
10
277.5903
20
41.141
30
0
11
277.3283
21
40.5827
31
0
0
LINE
8
VINILO
10
277.3283
20
40.5827
30
0
11
276.856
21
40.1777
31
0
0
LINE
8
VINILO
10
276.856
20
40.1777
30
0
11
274.5929
21
39.7862
31
0
0
LINE
8
VINILO
10
274.5929
20
39.7862
30
0
11
274.7068
21
36.1517
31
0
0
LINE
8
VINILO
10
274.7068
20
36.1517
30
0
11
274.4817
21
34.3489
31
0
0
LINE
8
VINILO
10
274.4817
20
34.3489
30
0
11
273.7025
21
31.881
31
0
0
LINE
8
VINILO
10
273.7025
20
31.881
30
0
11
271.9193
21
29.0614
31
0
0
LINE
8
VINILO
10
271.9193
20
29.0614
30
0
11
270.55
21
27.8443
31
0
0
LINE
8
VINILO
10
270.55
20
27.8443
30
0
11
268.9487
21
26.9396
31
0
0
LINE
8
VINILO
10
268.9487
20
26.9396
30
0
11
279.313
21
24.9238
31
0
0
LINE
8
VINILO
10
279.313
20
24.9238
30
0
11
279.4531
21
25.2417
31
0
0
LINE
8
VINILO
10
279.4531
20
25.2417
30
0
11
279.5262
21
140.4567
31
0
0
LINE
8
VINILO
10
279.5262
20
140.4567
30
0
11
279.5317
21
140.4626
31
0
0
LINE
8
VINILO
10
264.5066
20
123.3254
30
0
11
264.4608
21
122.2776
31
0
0
LINE
8
VINILO
10
264.4608
20
122.2776
30
0
11
264.3239
21
121.2377
31
0
0
LINE
8
VINILO
10
264.3239
20
121.2377
30
0
11
264.0969
21
120.2137
31
0
0
LINE
8
VINILO
10
264.0969
20
120.2137
30
0
11
263.7815
21
119.2135
31
0
0
LINE
8
VINILO
10
263.7815
20
119.2135
30
0
11
263.3802
21
118.2445
31
0
0
LINE
8
VINILO
10
263.3802
20
118.2445
30
0
11
262.8959
21
117.3141
31
0
0
LINE
8
VINILO
10
262.8959
20
117.3141
30
0
11
262.3323
21
116.4296
31
0
0
LINE
8
VINILO
10
262.3323
20
116.4296
30
0
11
261.6938
21
115.5975
31
0
0
LINE
8
VINILO
10
261.6938
20
115.5975
30
0
11
260.9853
21
114.8242
31
0
0
LINE
8
VINILO
10
260.9853
20
114.8242
30
0
11
260.212
21
114.1156
31
0
0
LINE
8
VINILO
10
260.212
20
114.1156
30
0
11
259.3799
21
113.4771
31
0
0
LINE
8
VINILO
10
259.3799
20
113.4771
30
0
11
258.4953
21
112.9136
31
0
0
LINE
8
VINILO
10
258.4953
20
112.9136
30
0
11
257.565
21
112.4293
31
0
0
LINE
8
VINILO
10
257.565
20
112.4293
30
0
11
256.596
21
112.0279
31
0
0
LINE
8
VINILO
10
256.596
20
112.0279
30
0
11
255.5957
21
111.7125
31
0
0
LINE
8
VINILO
10
255.5957
20
111.7125
30
0
11
254.5717
21
111.4855
31
0
0
LINE
8
VINILO
10
254.5717
20
111.4855
30
0
11
253.5319
21
111.3486
31
0
0
LINE
8
VINILO
10
253.5319
20
111.3486
30
0
11
252.4841
21
111.3029
31
0
0
LINE
8
VINILO
10
252.4841
20
111.3029
30
0
11
251.4362
21
111.3486
31
0
0
LINE
8
VINILO
10
251.4362
20
111.3486
30
0
11
250.3964
21
111.4855
31
0
0
LINE
8
VINILO
10
250.3964
20
111.4855
30
0
11
249.3724
21
111.7125
31
0
0
LINE
8
VINILO
10
249.3724
20
111.7125
30
0
11
248.3721
21
112.0279
31
0
0
LINE
8
VINILO
10
248.3721
20
112.0279
30
0
11
247.4031
21
112.4293
31
0
0
LINE
8
VINILO
10
247.4031
20
112.4293
30
0
11
246.4728
21
112.9136
31
0
0
LINE
8
VINILO
10
246.4728
20
112.9136
30
0
11
245.5882
21
113.4771
31
0
0
LINE
8
VINILO
10
245.5882
20
113.4771
30
0
11
244.7561
21
114.1156
31
0
0
LINE
8
VINILO
10
244.7561
20
114.1156
30
0
11
243.9829
21
114.8242
31
0
0
LINE
8
VINILO
10
243.9829
20
114.8242
30
0
11
243.2743
21
115.5975
31
0
0
LINE
8
VINILO
10
243.2743
20
115.5975
30
0
11
242.6358
21
116.4296
31
0
0
LINE
8
VINILO
10
242.6358
20
116.4296
30
0
11
242.0722
21
117.3141
31
0
0
LINE
8
VINILO
10
242.0722
20
117.3141
30
0
11
241.588
21
118.2445
31
0
0
LINE
8
VINILO
10
241.588
20
118.2445
30
0
11
241.1866
21
119.2135
31
0
0
LINE
8
VINILO
10
241.1866
20
119.2135
30
0
11
240.8712
21
120.2137
31
0
0
LINE
8
VINILO
10
240.8712
20
120.2137
30
0
11
240.6442
21
121.2377
31
0
0
LINE
8
VINILO
10
240.6442
20
121.2377
30
0
11
240.5073
21
122.2776
31
0
0
LINE
8
VINILO
10
240.5073
20
122.2776
30
0
11
240.4615
21
123.3254
31
0
0
LINE
8
VINILO
10
240.4615
20
123.3254
30
0
11
240.5073
21
124.3732
31
0
0
LINE
8
VINILO
10
240.5073
20
124.3732
30
0
11
240.6442
21
125.4131
31
0
0
LINE
8
VINILO
10
240.6442
20
125.4131
30
0
11
240.8712
21
126.4371
31
0
0
LINE
8
VINILO
10
240.8712
20
126.4371
30
0
11
241.1866
21
127.4373
31
0
0
LINE
8
VINILO
10
241.1866
20
127.4373
30
0
11
241.588
21
128.4063
31
0
0
LINE
8
VINILO
10
241.588
20
128.4063
30
0
11
242.0722
21
129.3367
31
0
0
LINE
8
VINILO
10
242.0722
20
129.3367
30
0
11
242.6358
21
130.2212
31
0
0
LINE
8
VINILO
10
242.6358
20
130.2212
30
0
11
243.2743
21
131.0533
31
0
0
LINE
8
VINILO
10
243.2743
20
131.0533
30
0
11
243.9829
21
131.8266
31
0
0
LINE
8
VINILO
10
243.9829
20
131.8266
30
0
11
244.7561
21
132.5352
31
0
0
LINE
8
VINILO
10
244.7561
20
132.5352
30
0
11
245.5882
21
133.1737
31
0
0
LINE
8
VINILO
10
245.5882
20
133.1737
30
0
11
246.4728
21
133.7372
31
0
0
LINE
8
VINILO
10
246.4728
20
133.7372
30
0
11
247.4031
21
134.2215
31
0
0
LINE
8
VINILO
10
247.4031
20
134.2215
30
0
11
248.3721
21
134.6229
31
0
0
LINE
8
VINILO
10
248.3721
20
134.6229
30
0
11
249.3724
21
134.9383
31
0
0
LINE
8
VINILO
10
249.3724
20
134.9383
30
0
11
250.3964
21
135.1653
31
0
0
LINE
8
VINILO
10
250.3964
20
135.1653
30
0
11
251.4362
21
135.3022
31
0
0
LINE
8
VINILO
10
251.4362
20
135.3022
30
0
11
252.4841
21
135.3479
31
0
0
LINE
8
VINILO
10
252.4841
20
135.3479
30
0
11
253.5319
21
135.3022
31
0
0
LINE
8
VINILO
10
253.5319
20
135.3022
30
0
11
254.5717
21
135.1653
31
0
0
LINE
8
VINILO
10
254.5717
20
135.1653
30
0
11
255.5957
21
134.9383
31
0
0
LINE
8
VINILO
10
255.5957
20
134.9383
30
0
11
256.596
21
134.6229
31
0
0
LINE
8
VINILO
10
256.596
20
134.6229
30
0
11
257.565
21
134.2215
31
0
0
LINE
8
VINILO
10
257.565
20
134.2215
30
0
11
258.4953
21
133.7372
31
0
0
LINE
8
VINILO
10
258.4953
20
133.7372
30
0
11
259.3799
21
133.1737
31
0
0
LINE
8
VINILO
10
259.3799
20
133.1737
30
0
11
260.212
21
132.5352
31
0
0
LINE
8
VINILO
10
260.212
20
132.5352
30
0
11
260.9853
21
131.8266
31
0
0
LINE
8
VINILO
10
260.9853
20
131.8266
30
0
11
261.6938
21
131.0533
31
0
0
LINE
8
VINILO
10
261.6938
20
131.0533
30
0
11
262.3323
21
130.2212
31
0
0
LINE
8
VINILO
10
262.3323
20
130.2212
30
0
11
262.8959
21
129.3367
31
0
0
LINE
8
VINILO
10
262.8959
20
129.3367
30
0
11
263.3802
21
128.4063
31
0
0
LINE
8
VINILO
10
263.3802
20
128.4063
30
0
11
263.7815
21
127.4373
31
0
0
LINE
8
VINILO
10
263.7815
20
127.4373
30
0
11
264.0969
21
126.4371
31
0
0
LINE
8
VINILO
10
264.0969
20
126.4371
30
0
11
264.3239
21
125.4131
31
0
0
LINE
8
VINILO
10
264.3239
20
125.4131
30
0
11
264.4608
21
124.3732
31
0
0
LINE
8
VINILO
10
264.4608
20
124.3732
30
0
11
264.5066
21
123.3254
31
0
0
LINE
8
VINILO
10
37.9508
20
81.6268
30
0
11
39.5194
21
81.6231
31
0
0
LINE
8
VINILO
10
39.5194
20
81.6231
30
0
11
39.8879
21
81.098
31
0
0
LINE
8
VINILO
10
39.8879
20
81.098
30
0
11
39.6505
21
80.9412
31
0
0
LINE
8
VINILO
10
39.6505
20
80.9412
30
0
11
32.2247
21
80.4828
31
0
0
LINE
8
VINILO
10
32.2247
20
80.4828
30
0
11
30.957
21
80.4891
31
0
0
LINE
8
VINILO
10
30.957
20
80.4891
30
0
11
30.6661
21
80.7316
31
0
0
LINE
8
VINILO
10
30.6661
20
80.7316
30
0
11
30.7397
21
81.0563
31
0
0
LINE
8
VINILO
10
30.7397
20
81.0563
30
0
11
31.0374
21
81.203
31
0
0
LINE
8
VINILO
10
31.0374
20
81.203
30
0
11
37.9411
21
81.6252
31
0
0
LINE
8
VINILO
10
37.9411
20
81.6252
30
0
11
37.9508
21
81.6268
31
0
0
LINE
8
VINILO
10
28.6287
20
81.0547
30
0
11
28.8807
21
80.9535
31
0
0
LINE
8
VINILO
10
28.8807
20
80.9535
30
0
11
28.951
21
80.6555
31
0
0
LINE
8
VINILO
10
28.951
20
80.6555
30
0
11
28.5009
21
80.3102
31
0
0
LINE
8
VINILO
10
28.5009
20
80.3102
30
0
11
22.2542
21
79.8505
31
0
0
LINE
8
VINILO
10
22.2542
20
79.8505
30
0
11
21.9177
21
80.0387
31
0
0
LINE
8
VINILO
10
21.9177
20
80.0387
30
0
11
22.0612
21
80.3469
31
0
0
LINE
8
VINILO
10
22.0612
20
80.3469
30
0
11
22.5408
21
80.5622
31
0
0
LINE
8
VINILO
10
22.5408
20
80.5622
30
0
11
28.6206
21
81.0547
31
0
0
LINE
8
VINILO
10
28.6206
20
81.0547
30
0
11
28.6287
21
81.0547
31
0
0
LINE
8
VINILO
10
51.4543
20
77.876
30
0
11
54.3622
21
77.9291
31
0
0
LINE
8
VINILO
10
54.3622
20
77.9291
30
0
11
61.8688
21
77.563
31
0
0
LINE
8
VINILO
10
61.8688
20
77.563
30
0
11
65.5545
21
77.0218
31
0
0
LINE
8
VINILO
10
65.5545
20
77.0218
30
0
11
66.7979
21
74.8586
31
0
0
LINE
8
VINILO
10
66.7979
20
74.8586
30
0
11
70.2892
21
66.8383
31
0
0
LINE
8
VINILO
10
70.2892
20
66.8383
30
0
11
61.6446
21
66.5349
31
0
0
LINE
8
VINILO
10
61.6446
20
66.5349
30
0
11
55.8315
21
66.0817
31
0
0
LINE
8
VINILO
10
55.8315
20
66.0817
30
0
11
54.8564
21
66.1641
31
0
0
LINE
8
VINILO
10
54.8564
20
66.1641
30
0
11
53.664
21
69.1873
31
0
0
LINE
8
VINILO
10
53.664
20
69.1873
30
0
11
51.4784
21
75.7972
31
0
0
LINE
8
VINILO
10
51.4784
20
75.7972
30
0
11
51.2241
21
76.9101
31
0
0
LINE
8
VINILO
10
51.2241
20
76.9101
30
0
11
51.2475
21
77.6043
31
0
0
LINE
8
VINILO
10
51.2475
20
77.6043
30
0
11
51.4462
21
77.8726
31
0
0
LINE
8
VINILO
10
51.4462
20
77.8726
30
0
11
51.4543
21
77.876
31
0
0
LINE
8
VINILO
10
211.3139
20
77.5216
30
0
11
221.5236
21
77.4733
31
0
0
LINE
8
VINILO
10
221.5236
20
77.4733
30
0
11
221.9139
21
77.1883
31
0
0
LINE
8
VINILO
10
221.9139
20
77.1883
30
0
11
221.5746
21
76.9011
31
0
0
LINE
8
VINILO
10
221.5746
20
76.9011
30
0
11
211.5102
21
76.9277
31
0
0
LINE
8
VINILO
10
211.5102
20
76.9277
30
0
11
211.1298
21
77.1169
31
0
0
LINE
8
VINILO
10
211.1298
20
77.1169
30
0
11
211.3051
21
77.5189
31
0
0
LINE
8
VINILO
10
211.3051
20
77.5189
30
0
11
211.3139
21
77.5216
31
0
0
LINE
8
VINILO
10
207.1175
20
77.4341
30
0
11
208.3415
21
77.4618
31
0
0
LINE
8
VINILO
10
208.3415
20
77.4618
30
0
11
208.6635
21
77.1783
31
0
0
LINE
8
VINILO
10
208.6635
20
77.1783
30
0
11
208.1685
21
76.9299
31
0
0
LINE
8
VINILO
10
208.1685
20
76.9299
30
0
11
206.6045
21
77.023
31
0
0
LINE
8
VINILO
10
206.6045
20
77.023
30
0
11
206.6457
21
77.302
31
0
0
LINE
8
VINILO
10
206.6457
20
77.302
30
0
11
207.1077
21
77.4325
31
0
0
LINE
8
VINILO
10
207.1077
20
77.4325
30
0
11
207.1175
21
77.4341
31
0
0
LINE
8
VINILO
10
224.2704
20
77.3254
30
0
11
230.5689
21
77.2901
31
0
0
LINE
8
VINILO
10
230.5689
20
77.2901
30
0
11
230.9196
21
77.2078
31
0
0
LINE
8
VINILO
10
230.9196
20
77.2078
30
0
11
231.0393
21
76.9502
31
0
0
LINE
8
VINILO
10
231.0393
20
76.9502
30
0
11
230.9131
21
76.6642
31
0
0
LINE
8
VINILO
10
230.9131
20
76.6642
30
0
11
230.5471
21
76.5631
31
0
0
LINE
8
VINILO
10
230.5471
20
76.5631
30
0
11
224.7045
21
76.7463
31
0
0
LINE
8
VINILO
10
224.7045
20
76.7463
30
0
11
224.2212
21
76.9238
31
0
0
LINE
8
VINILO
10
224.2212
20
76.9238
30
0
11
224.2633
21
77.3212
31
0
0
LINE
8
VINILO
10
224.2633
20
77.3212
30
0
11
224.2704
21
77.3254
31
0
0
LINE
8
VINILO
10
236.7574
20
76.7786
30
0
11
240.3955
21
76.5096
31
0
0
LINE
8
VINILO
10
240.3955
20
76.5096
30
0
11
241.017
21
76.288
31
0
0
LINE
8
VINILO
10
241.017
20
76.288
30
0
11
241.1411
21
76.008
31
0
0
LINE
8
VINILO
10
241.1411
20
76.008
30
0
11
240.8838
21
75.84
31
0
0
LINE
8
VINILO
10
240.8838
20
75.84
30
0
11
237.0264
21
76.1597
31
0
0
LINE
8
VINILO
10
237.0264
20
76.1597
30
0
11
236.6164
21
76.39
31
0
0
LINE
8
VINILO
10
236.6164
20
76.39
30
0
11
236.7502
21
76.7744
31
0
0
LINE
8
VINILO
10
236.7502
20
76.7744
30
0
11
236.7574
21
76.7786
31
0
0
LINE
8
VINILO
10
43.9665
20
76.7049
30
0
11
45.0314
21
76.5964
31
0
0
LINE
8
VINILO
10
45.0314
20
76.5964
30
0
11
45.6546
21
76.1144
31
0
0
LINE
8
VINILO
10
45.6546
20
76.1144
30
0
11
47.5388
21
70.605
31
0
0
LINE
8
VINILO
10
47.5388
20
70.605
30
0
11
47.2467
21
70.3713
31
0
0
LINE
8
VINILO
10
47.2467
20
70.3713
30
0
11
44.8345
21
70.2998
31
0
0
LINE
8
VINILO
10
44.8345
20
70.2998
30
0
11
43.8778
21
69.6842
31
0
0
LINE
8
VINILO
10
43.8778
20
69.6842
30
0
11
43.6617
21
68.9889
31
0
0
LINE
8
VINILO
10
43.6617
20
68.9889
30
0
11
43.5413
21
65.2014
31
0
0
LINE
8
VINILO
10
43.5413
20
65.2014
30
0
11
35.655
21
64.8959
31
0
0
LINE
8
VINILO
10
35.655
20
64.8959
30
0
11
33.2982
21
64.8974
31
0
0
LINE
8
VINILO
10
33.2982
20
64.8974
30
0
11
32.8895
21
65.0469
31
0
0
LINE
8
VINILO
10
32.8895
20
65.0469
30
0
11
32.6339
21
65.5318
31
0
0
LINE
8
VINILO
10
32.6339
20
65.5318
30
0
11
32.6317
21
68.2382
31
0
0
LINE
8
VINILO
10
32.6317
20
68.2382
30
0
11
33.0915
21
74.6713
31
0
0
LINE
8
VINILO
10
33.0915
20
74.6713
30
0
11
33.4193
21
75.9386
31
0
0
LINE
8
VINILO
10
33.4193
20
75.9386
30
0
11
34.1882
21
76.2862
31
0
0
LINE
8
VINILO
10
34.1882
20
76.2862
30
0
11
43.9567
21
76.7033
31
0
0
LINE
8
VINILO
10
43.9567
20
76.7033
30
0
11
43.9665
21
76.7049
31
0
0
LINE
8
VINILO
10
27.8337
20
75.8846
30
0
11
28.5075
21
75.8976
31
0
0
LINE
8
VINILO
10
28.5075
20
75.8976
30
0
11
28.8776
21
75.698
31
0
0
LINE
8
VINILO
10
28.8776
20
75.698
30
0
11
28.9844
21
74.4604
31
0
0
LINE
8
VINILO
10
28.9844
20
74.4604
30
0
11
28.3384
21
67.04
31
0
0
LINE
8
VINILO
10
28.3384
20
67.04
30
0
11
28.1275
21
65.4166
31
0
0
LINE
8
VINILO
10
28.1275
20
65.4166
30
0
11
27.8265
21
64.9428
31
0
0
LINE
8
VINILO
10
27.8265
20
64.9428
30
0
11
17.1524
21
64.5314
31
0
0
LINE
8
VINILO
10
17.1524
20
64.5314
30
0
11
15.7249
21
64.5392
31
0
0
LINE
8
VINILO
10
15.7249
20
64.5392
30
0
11
15.2553
21
64.7646
31
0
0
LINE
8
VINILO
10
15.2553
20
64.7646
30
0
11
15.1369
21
65.8405
31
0
0
LINE
8
VINILO
10
15.1369
20
65.8405
30
0
11
15.7375
21
68.8971
31
0
0
LINE
8
VINILO
10
15.7375
20
68.8971
30
0
11
16.8299
21
73.1481
31
0
0
LINE
8
VINILO
10
16.8299
20
73.1481
30
0
11
17.4978
21
74.8728
31
0
0
LINE
8
VINILO
10
17.4978
20
74.8728
30
0
11
18.0155
21
75.1412
31
0
0
LINE
8
VINILO
10
18.0155
20
75.1412
30
0
11
19.037
21
75.2819
31
0
0
LINE
8
VINILO
10
19.037
20
75.2819
30
0
11
27.8239
21
75.883
31
0
0
LINE
8
VINILO
10
27.8239
20
75.883
30
0
11
27.8337
21
75.8846
31
0
0
LINE
8
VINILO
10
235.3699
20
73.1474
30
0
11
243.9188
21
72.6387
31
0
0
LINE
8
VINILO
10
243.9188
20
72.6387
30
0
11
247.5863
21
71.9995
31
0
0
LINE
8
VINILO
10
247.5863
20
71.9995
30
0
11
248.4479
21
70.5825
31
0
0
LINE
8
VINILO
10
248.4479
20
70.5825
30
0
11
250.2815
21
66.4574
31
0
0
LINE
8
VINILO
10
250.2815
20
66.4574
30
0
11
252.036
21
62.2533
31
0
0
LINE
8
VINILO
10
252.036
20
62.2533
30
0
11
252.2239
21
61.2823
31
0
0
LINE
8
VINILO
10
252.2239
20
61.2823
30
0
11
247.0222
21
61.5233
31
0
0
LINE
8
VINILO
10
247.0222
20
61.5233
30
0
11
238.0387
21
61.438
31
0
0
LINE
8
VINILO
10
238.0387
20
61.438
30
0
11
237.4055
21
63.015
31
0
0
LINE
8
VINILO
10
237.4055
20
63.015
30
0
11
234.9302
21
71.2722
31
0
0
LINE
8
VINILO
10
234.9302
20
71.2722
30
0
11
234.8391
21
72.6471
31
0
0
LINE
8
VINILO
10
234.8391
20
72.6471
30
0
11
235.0061
21
72.9814
31
0
0
LINE
8
VINILO
10
235.0061
20
72.9814
30
0
11
235.3609
21
73.1464
31
0
0
LINE
8
VINILO
10
235.3609
20
73.1464
30
0
11
235.3699
21
73.1474
31
0
0
LINE
8
VINILO
10
203.4717
20
72.4211
30
0
11
209.3211
21
72.4599
31
0
0
LINE
8
VINILO
10
209.3211
20
72.4599
30
0
11
209.9285
21
72.1786
31
0
0
LINE
8
VINILO
10
209.9285
20
72.1786
30
0
11
210.0511
21
71.616
31
0
0
LINE
8
VINILO
10
210.0511
20
71.616
30
0
11
209.7186
21
68.4983
31
0
0
LINE
8
VINILO
10
209.7186
20
68.4983
30
0
11
208.6955
21
61.9108
31
0
0
LINE
8
VINILO
10
208.6955
20
61.9108
30
0
11
207.8755
21
61.6149
31
0
0
LINE
8
VINILO
10
207.8755
20
61.6149
30
0
11
197.9076
21
61.9807
31
0
0
LINE
8
VINILO
10
197.9076
20
61.9807
30
0
11
196.1936
21
62.0782
31
0
0
LINE
8
VINILO
10
196.1936
20
62.0782
30
0
11
195.6999
21
62.2681
31
0
0
LINE
8
VINILO
10
195.6999
20
62.2681
30
0
11
195.5115
21
62.8927
31
0
0
LINE
8
VINILO
10
195.5115
20
62.8927
30
0
11
195.9219
21
64.909
31
0
0
LINE
8
VINILO
10
195.9219
20
64.909
30
0
11
197.2075
21
69.8668
31
0
0
LINE
8
VINILO
10
197.2075
20
69.8668
30
0
11
197.9712
21
71.9173
31
0
0
LINE
8
VINILO
10
197.9712
20
71.9173
30
0
11
198.6854
21
72.2741
31
0
0
LINE
8
VINILO
10
198.6854
20
72.2741
30
0
11
203.4619
21
72.4194
31
0
0
LINE
8
VINILO
10
203.4619
20
72.4194
30
0
11
203.4717
21
72.4211
31
0
0
LINE
8
VINILO
10
214.9597
20
72.4174
30
0
11
224.1669
21
72.3692
31
0
0
LINE
8
VINILO
10
224.1669
20
72.3692
30
0
11
228.4496
21
72.0263
31
0
0
LINE
8
VINILO
10
228.4496
20
72.0263
30
0
11
229.0609
21
71.2931
31
0
0
LINE
8
VINILO
10
229.0609
20
71.2931
30
0
11
231.1178
21
65.5009
31
0
0
LINE
8
VINILO
10
231.1178
20
65.5009
30
0
11
229.903
21
65.8006
31
0
0
LINE
8
VINILO
10
229.903
20
65.8006
30
0
11
228.3146
21
65.8073
31
0
0
LINE
8
VINILO
10
228.3146
20
65.8073
30
0
11
227.1213
21
65.4739
31
0
0
LINE
8
VINILO
10
227.1213
20
65.4739
30
0
11
226.6414
21
64.484
31
0
0
LINE
8
VINILO
10
226.6414
20
64.484
30
0
11
226.5849
21
61.248
31
0
0
LINE
8
VINILO
10
226.5849
20
61.248
30
0
11
226.3543
21
60.9089
31
0
0
LINE
8
VINILO
10
226.3543
20
60.9089
30
0
11
213.9592
21
61.3982
31
0
0
LINE
8
VINILO
10
213.9592
20
61.3982
30
0
11
213.6485
21
61.7483
31
0
0
LINE
8
VINILO
10
213.6485
20
61.7483
30
0
11
213.555
21
62.2244
31
0
0
LINE
8
VINILO
10
213.555
20
62.2244
30
0
11
213.8327
21
66.7313
31
0
0
LINE
8
VINILO
10
213.8327
20
66.7313
30
0
11
214.3403
21
71.5215
31
0
0
LINE
8
VINILO
10
214.3403
20
71.5215
30
0
11
214.5714
21
72.1449
31
0
0
LINE
8
VINILO
10
214.5714
20
72.1449
30
0
11
214.9509
21
72.4149
31
0
0
LINE
8
VINILO
10
214.9509
20
72.4149
30
0
11
214.9597
21
72.4174
31
0
0
LINE
8
VINILO
10
166.9804
20
72.026
30
0
11
169.4488
21
71.4265
31
0
0
LINE
8
VINILO
10
169.4488
20
71.4265
30
0
11
168.8655
21
71.1956
31
0
0
LINE
8
VINILO
10
168.8655
20
71.1956
30
0
11
168.2551
21
71.2475
31
0
0
LINE
8
VINILO
10
168.2551
20
71.2475
30
0
11
167.4201
21
71.5632
31
0
0
LINE
8
VINILO
10
167.4201
20
71.5632
30
0
11
166.9766
21
72.0218
31
0
0
LINE
8
VINILO
10
166.9766
20
72.0218
30
0
11
166.9804
21
72.026
31
0
0
LINE
8
VINILO
10
48.8041
20
65.8679
30
0
11
49.0857
21
65.3113
31
0
0
LINE
8
VINILO
10
49.0857
20
65.3113
30
0
11
48.8835
21
64.942
31
0
0
LINE
8
VINILO
10
48.8835
20
64.942
30
0
11
48.6804
21
65.2165
31
0
0
LINE
8
VINILO
10
48.6804
20
65.2165
30
0
11
48.8018
21
65.8652
31
0
0
LINE
8
VINILO
10
48.8018
20
65.8652
30
0
11
48.8041
21
65.8679
31
0
0
LINE
8
VINILO
10
231.665
20
63.6117
30
0
11
232.4696
21
61.1439
31
0
0
LINE
8
VINILO
10
232.4696
20
61.1439
30
0
11
232.2286
21
60.67
31
0
0
LINE
8
VINILO
10
232.2286
20
60.67
30
0
11
231.7244
21
61.0067
31
0
0
LINE
8
VINILO
10
231.7244
20
61.0067
30
0
11
231.6618
21
63.608
31
0
0
LINE
8
VINILO
10
231.6618
20
63.608
30
0
11
231.665
21
63.6117
31
0
0
LINE
8
VINILO
10
131.7546
20
53.1689
30
0
11
135.1383
21
52.2925
31
0
0
LINE
8
VINILO
10
135.1383
20
52.2925
30
0
11
138.9268
21
51.9338
31
0
0
LINE
8
VINILO
10
138.9268
20
51.9338
30
0
11
139.173
21
51.6217
31
0
0
LINE
8
VINILO
10
139.173
20
51.6217
30
0
11
138.8415
21
48.3892
31
0
0
LINE
8
VINILO
10
138.8415
20
48.3892
30
0
11
137.7887
21
46.0126
31
0
0
LINE
8
VINILO
10
137.7887
20
46.0126
30
0
11
137.0749
21
43.2742
31
0
0
LINE
8
VINILO
10
137.0749
20
43.2742
30
0
11
135.1307
21
40.3877
31
0
0
LINE
8
VINILO
10
135.1307
20
40.3877
30
0
11
133.4249
21
38.7797
31
0
0
LINE
8
VINILO
10
133.4249
20
38.7797
30
0
11
131.7562
21
39.2944
31
0
0
LINE
8
VINILO
10
131.7562
20
39.2944
30
0
11
129.9113
21
41.4941
31
0
0
LINE
8
VINILO
10
129.9113
20
41.4941
30
0
11
128.3418
21
44.1857
31
0
0
LINE
8
VINILO
10
128.3418
20
44.1857
30
0
11
127.9874
21
45.8334
31
0
0
LINE
8
VINILO
10
127.9874
20
45.8334
30
0
11
128.3428
21
47.2212
31
0
0
LINE
8
VINILO
10
128.3428
20
47.2212
30
0
11
130.5925
21
50.1781
31
0
0
LINE
8
VINILO
10
130.5925
20
50.1781
30
0
11
131.748
21
53.1655
31
0
0
LINE
8
VINILO
10
131.748
20
53.1655
30
0
11
131.7546
21
53.1689
31
0
0
LINE
8
VINILO
10
51.805
20
42.0695
30
0
11
52.7277
21
41.944
31
0
0
LINE
8
VINILO
10
52.7277
20
41.944
30
0
11
53.0868
21
38.7712
31
0
0
LINE
8
VINILO
10
53.0868
20
38.7712
30
0
11
53.5699
21
37.0213
31
0
0
LINE
8
VINILO
10
53.5699
20
37.0213
30
0
11
54.2412
21
35.5392
31
0
0
LINE
8
VINILO
10
54.2412
20
35.5392
30
0
11
55.599
21
33.5522
31
0
0
LINE
8
VINILO
10
55.599
20
33.5522
30
0
11
46.0783
21
33.3464
31
0
0
LINE
8
VINILO
10
46.0783
20
33.3464
30
0
11
46.0588
21
33.5132
31
0
0
LINE
8
VINILO
10
46.0588
20
33.5132
30
0
11
47.813
21
35.1012
31
0
0
LINE
8
VINILO
10
47.813
20
35.1012
30
0
11
48.8422
21
36.7039
31
0
0
LINE
8
VINILO
10
48.8422
20
36.7039
30
0
11
49.792
21
39.2746
31
0
0
LINE
8
VINILO
10
49.792
20
39.2746
30
0
11
50.1182
21
41.8764
31
0
0
LINE
8
VINILO
10
50.1182
20
41.8764
30
0
11
51.7952
21
42.0679
31
0
0
LINE
8
VINILO
10
51.7952
20
42.0679
30
0
11
51.805
21
42.0695
31
0
0
LINE
8
VINILO
10
74.4092
20
40.7023
30
0
11
74.9285
21
40.538
31
0
0
LINE
8
VINILO
10
74.9285
20
40.538
30
0
11
75.5615
21
38.186
31
0
0
LINE
8
VINILO
10
75.5615
20
38.186
30
0
11
76.6938
21
36.1624
31
0
0
LINE
8
VINILO
10
76.6938
20
36.1624
30
0
11
78.0009
21
34.7009
31
0
0
LINE
8
VINILO
10
78.0009
20
34.7009
30
0
11
79.1107
21
33.8202
31
0
0
LINE
8
VINILO
10
79.1107
20
33.8202
30
0
11
71.4174
21
33.3604
31
0
0
LINE
8
VINILO
10
71.4174
20
33.3604
30
0
11
69.478
21
33.4122
31
0
0
LINE
8
VINILO
10
69.478
20
33.4122
30
0
11
69.4454
21
33.6462
31
0
0
LINE
8
VINILO
10
69.4454
20
33.6462
30
0
11
70.5331
21
35.0764
31
0
0
LINE
8
VINILO
10
70.5331
20
35.0764
30
0
11
71.473
21
36.9963
31
0
0
LINE
8
VINILO
10
71.473
20
36.9963
30
0
11
72.2666
21
40.4181
31
0
0
LINE
8
VINILO
10
72.2666
20
40.4181
30
0
11
74.3994
21
40.7007
31
0
0
LINE
8
VINILO
10
74.3994
20
40.7007
30
0
11
74.4092
21
40.7023
31
0
0
LINE
8
VINILO
10
33.2113
20
39.882
30
0
11
33.574
21
39.7434
31
0
0
LINE
8
VINILO
10
33.574
20
39.7434
30
0
11
33.9697
21
37.8947
31
0
0
LINE
8
VINILO
10
33.9697
20
37.8947
30
0
11
35.2272
21
35.6088
31
0
0
LINE
8
VINILO
10
35.2272
20
35.6088
30
0
11
36.4501
21
34.2341
31
0
0
LINE
8
VINILO
10
36.4501
20
34.2341
30
0
11
38.017
21
33.078
31
0
0
LINE
8
VINILO
10
38.017
20
33.078
30
0
11
27.7201
21
32.2367
31
0
0
LINE
8
VINILO
10
27.7201
20
32.2367
30
0
11
27.7469
21
32.529
31
0
0
LINE
8
VINILO
10
27.7469
20
32.529
30
0
11
29.1311
21
33.9817
31
0
0
LINE
8
VINILO
10
29.1311
20
33.9817
30
0
11
30.1573
21
35.8836
31
0
0
LINE
8
VINILO
10
30.1573
20
35.8836
30
0
11
30.6644
21
37.2564
31
0
0
LINE
8
VINILO
10
30.6644
20
37.2564
30
0
11
31.0864
21
39.5003
31
0
0
LINE
8
VINILO
10
31.0864
20
39.5003
30
0
11
33.2015
21
39.8804
31
0
0
LINE
8
VINILO
10
33.2015
20
39.8804
30
0
11
33.2113
21
39.882
31
0
0
LINE
8
VINILO
10
229.9215
20
37.677
30
0
11
231.4695
21
37.7334
31
0
0
LINE
8
VINILO
10
231.4695
20
37.7334
30
0
11
235.3121
21
37.4288
31
0
0
LINE
8
VINILO
10
235.3121
20
37.4288
30
0
11
235.9602
21
33.2234
31
0
0
LINE
8
VINILO
10
235.9602
20
33.2234
30
0
11
236.8089
21
30.9617
31
0
0
LINE
8
VINILO
10
236.8089
20
30.9617
30
0
11
237.8853
21
29.1418
31
0
0
LINE
8
VINILO
10
237.8853
20
29.1418
30
0
11
225.1575
21
29.9011
31
0
0
LINE
8
VINILO
10
225.1575
20
29.9011
30
0
11
226.5968
21
30.9529
31
0
0
LINE
8
VINILO
10
226.5968
20
30.9529
30
0
11
228.0331
21
32.5243
31
0
0
LINE
8
VINILO
10
228.0331
20
32.5243
30
0
11
229.2526
21
34.9165
31
0
0
LINE
8
VINILO
10
229.2526
20
34.9165
30
0
11
229.9143
21
37.6727
31
0
0
LINE
8
VINILO
10
229.9143
20
37.6727
30
0
11
229.9215
21
37.677
31
0
0
LINE
8
VINILO
10
212.5863
20
37.0565
30
0
11
213.3974
21
36.9676
31
0
0
LINE
8
VINILO
10
213.3974
20
36.9676
30
0
11
213.7987
21
34.9421
31
0
0
LINE
8
VINILO
10
213.7987
20
34.9421
30
0
11
214.5626
21
33.2678
31
0
0
LINE
8
VINILO
10
214.5626
20
33.2678
30
0
11
215.6089
21
31.8077
31
0
0
LINE
8
VINILO
10
215.6089
20
31.8077
30
0
11
217.1604
21
30.5151
31
0
0
LINE
8
VINILO
10
217.1604
20
30.5151
30
0
11
217.1629
21
30.3245
31
0
0
LINE
8
VINILO
10
217.1629
20
30.3245
30
0
11
207.7116
21
30.5526
31
0
0
LINE
8
VINILO
10
207.7116
20
30.5526
30
0
11
208.9525
21
32.0541
31
0
0
LINE
8
VINILO
10
208.9525
20
32.0541
30
0
11
209.8894
21
33.5896
31
0
0
LINE
8
VINILO
10
209.8894
20
33.5896
30
0
11
210.4851
21
35.1244
31
0
0
LINE
8
VINILO
10
210.4851
20
35.1244
30
0
11
210.8911
21
36.8831
31
0
0
LINE
8
VINILO
10
210.8911
20
36.8831
30
0
11
212.5765
21
37.0549
31
0
0
LINE
8
VINILO
10
212.5765
20
37.0549
30
0
11
212.5863
21
37.0565
31
0
0
LINE
8
VINILO
10
256.0628
20
34.7778
30
0
11
256.5114
21
34.6112
31
0
0
LINE
8
VINILO
10
256.5114
20
34.6112
30
0
11
257.0134
21
32.4472
31
0
0
LINE
8
VINILO
10
257.0134
20
32.4472
30
0
11
258.1431
21
30.2386
31
0
0
LINE
8
VINILO
10
258.1431
20
30.2386
30
0
11
259.0052
21
29.1525
31
0
0
LINE
8
VINILO
10
259.0052
20
29.1525
30
0
11
260.4576
21
27.8379
31
0
0
LINE
8
VINILO
10
260.4576
20
27.8379
30
0
11
252.1881
21
28.3693
31
0
0
LINE
8
VINILO
10
252.1881
20
28.3693
30
0
11
254.1061
21
31.3341
31
0
0
LINE
8
VINILO
10
254.1061
20
31.3341
30
0
11
254.5943
21
32.703
31
0
0
LINE
8
VINILO
10
254.5943
20
32.703
30
0
11
254.9445
21
34.5518
31
0
0
LINE
8
VINILO
10
254.9445
20
34.5518
30
0
11
256.0531
21
34.7762
31
0
0
LINE
8
VINILO
10
256.0531
20
34.7762
30
0
11
256.0628
21
34.7778
31
0
0
ENDSEC
0
EOF
