999
DXF file generated by netDxf https://github.com/haplokuon/netDxf, Copyright(C) Daniel Carvajal, Licensed under MIT
0
SECTION
2
HEADER
9
$ACADVER
1
AC1015
9
$DWGCODEPAGE
3
ANSI_1252
9
$HANDSEED
5
1A0
9
$ANGBASE
50
0.0
9
$ANGDIR
70
0
9
$ATTMODE
70
1
9
$AUNITS
70
0
9
$AUPREC
70
0
9
$CECOLOR
62
256
9
$CELTSCALE
40
1.0
9
$CELTYPE
6
ByLayer
9
$CELWEIGHT
370
-1
9
$CLAYER
8
0
9
$CMLJUST
70
0
9
$CMLSCALE
40
20.0
9
$CMLSTYLE
2
Standard
9
$DIMSTYLE
2
Standard
9
$TEXTSIZE
40
2.5
9
$TEXTSTYLE
7
Standard
9
$LUNITS
70
2
9
$LUPREC
70
4
9
$MIRRTEXT
70
0
9
$EXTNAMES
290
1
9
$INSBASE
10
0.0
20
0.0
30
0.0
9
$INSUNITS
70
0
9
$LTSCALE
40
1.0
9
$LWDISPLAY
290
0
9
$PDMODE
70
0
9
$PDSIZE
40
0.0
9
$PLINEGEN
70
0
9
$PSLTSCALE
70
1
9
$SPLINESEGS
70
8
9
$SURFU
70
6
9
$SURFV
70
6
9
$TDCREATE
40
2460380.45755409
9
$TDUCREATE
40
2460380.41588742
9
$TDUPDATE
40
2460380.45755409
9
$TDUUPDATE
40
2460380.41588742
9
$TDINDWG
40
0.0
9
$UCSORG
10
0.0
20
0.0
30
0.0
9
$UCSXDIR
10
1.0
20
0.0
30
0.0
9
$UCSYDIR
10
0.0
20
1.0
30
0.0
9
$DIMADEC
70
0
9
$DIMALT
70
0
9
$DIMALTD
70
2
9
$DIMALTF
40
25.4
9
$DIMALTRND
40
0.0
9
$DIMALTTD
70
2
9
$DIMALTTZ
70
0
9
$DIMALTU
70
2
9
$DIMALTZ
70
0
9
$DIMAPOST
1
[]
9
$DIMATFIT
70
3
9
$DIMAUNIT
70
0
9
$DIMASZ
40
0.18
9
$DIMAZIN
70
0
9
$DIMSAH
70
0
9
$DIMBLK
1

9
$DIMLDRBLK
1

9
$DIMCEN
40
0.09
9
$DIMCLRD
70
0
9
$DIMCLRE
70
0
9
$DIMCLRT
70
0
9
$DIMDEC
70
4
9
$DIMDLE
40
0.0
9
$DIMDLI
40
0.38
9
$DIMDSEP
70
46
9
$DIMEXE
40
0.18
9
$DIMEXO
40
0.0625
9
$DIMFXLON
70
0
9
$DIMFXL
40
1.0
9
$DIMGAP
40
0.09
9
$DIMJUST
70
0
9
$DIMLFAC
40
1.0
9
$DIMLUNIT
70
2
9
$DIMLWD
70
-2
9
$DIMLWE
70
-2
9
$DIMPOST
1
<>
9
$DIMRND
40
0.0
9
$DIMSCALE
40
1.0
9
$DIMSD1
70
0
9
$DIMSD2
70
0
9
$DIMSE1
70
0
9
$DIMSE2
70
0
9
$DIMSOXD
70
0
9
$DIMTAD
70
0
9
$DIMTDEC
70
4
9
$DIMTFAC
40
1.0
9
$DIMTIH
70
0
9
$DIMTIX
70
0
9
$DIMTM
40
0.0
9
$DIMTMOVE
70
0
9
$DIMTOFL
70
0
9
$DIMTOH
70
0
9
$DIMTOL
70
0
9
$DIMLIM
70
0
9
$DIMTOLJ
70
1
9
$DIMTP
40
0.0
9
$DIMTXT
40
0.18
9
$DIMTXTDIRECTION
70
0
9
$DIMTZIN
70
0
9
$DIMZIN
70
0
9
$DIMFRAC
70
0
9
$DIMLTYPE
6
ByBlock
9
$DIMLTEX1
6
ByBlock
9
$DIMLTEX2
6
ByBlock
0
ENDSEC
0
SECTION
2
CLASSES
0
CLASS
1
RASTERVARIABLES
2
AcDbRasterVariables
3
ISM
90
0
280
0
281
0
0
ENDSEC
0
SECTION
2
TABLES
0
TABLE
2
APPID
5
4
330
0
100
AcDbSymbolTable
70
5
0
APPID
5
19
330
4
100
AcDbSymbolTableRecord
100
AcDbRegAppTableRecord
2
ACAD
70
0
0
APPID
5
28
330
4
100
AcDbSymbolTableRecord
100
AcDbRegAppTableRecord
2
AcCmTransparency
70
0
0
APPID
5
29
330
4
100
AcDbSymbolTableRecord
100
AcDbRegAppTableRecord
2
AcAecLayerStandard
70
0
0
APPID
5
2A
330
4
100
AcDbSymbolTableRecord
100
AcDbRegAppTableRecord
2
GradientColor1ACI
70
0
0
APPID
5
2B
330
4
100
AcDbSymbolTableRecord
100
AcDbRegAppTableRecord
2
GradientColor2ACI
70
0
0
ENDTAB
0
TABLE
2
VPORT
5
1
330
0
100
AcDbSymbolTable
70
1
0
VPORT
5
2
330
1
100
AcDbSymbolTableRecord
100
AcDbViewportTableRecord
2
*Active
70
0
10
0.0
20
0.0
11
1.0
21
1.0
12
0.0
22
0.0
13
0.0
23
0.0
14
0.5
24
0.5
15
10.0
25
10.0
16
0.0
26
0.0
36
1.0
17
0.0
27
0.0
37
0.0
40
10.0
41
1.0
75
0
76
1
0
ENDTAB
0
TABLE
2
LTYPE
5
7
330
0
100
AcDbSymbolTable
70
3
0
LTYPE
5
15
330
7
100
AcDbSymbolTableRecord
100
AcDbLinetypeTableRecord
2
Continuous
70
0
3
Solid line
72
65
73
0
40
0.0
0
LTYPE
5
16
330
7
100
AcDbSymbolTableRecord
100
AcDbLinetypeTableRecord
2
ByLayer
70
0
3

72
65
73
0
40
0.0
0
LTYPE
5
17
330
7
100
AcDbSymbolTableRecord
100
AcDbLinetypeTableRecord
2
ByBlock
70
0
3

72
65
73
0
40
0.0
0
ENDTAB
0
TABLE
2
LAYER
5
5
102
{ACAD_XDICTIONARY
360
6
102
}
330
0
100
AcDbSymbolTable
70
2
0
LAYER
5
14
330
5
100
AcDbSymbolTableRecord
100
AcDbLayerTableRecord
2
0
70
0
62
7
6
Continuous
290
1
370
-3
390
0
0
LAYER
5
F3
330
5
100
AcDbSymbolTableRecord
100
AcDbLayerTableRecord
2
ATK_Panel
70
0
62
7
6
Continuous
290
1
370
-3
390
0
0
ENDTAB
0
TABLE
2
STYLE
5
8
330
0
100
AcDbSymbolTable
70
1
0
STYLE
5
18
330
8
100
AcDbSymbolTableRecord
100
AcDbTextStyleTableRecord
2
Standard
3
simplex.shx
70
0
71
0
40
0.0
41
1.0
42
0.0
50
0.0
0
ENDTAB
0
TABLE
2
DIMSTYLE
5
A
330
0
100
AcDbSymbolTable
70
1
100
AcDbDimStyleTable
0
DIMSTYLE
105
1A
330
A
100
AcDbSymbolTableRecord
100
AcDbDimStyleTableRecord
2
Standard
3
<>
4
[]
40
1.0
41
0.18
42
0.0625
43
0.38
44
0.18
45
0.0
46
0.0
47
0.0
48
0.0
49
1.0
70
0
71
0
72
0
73
0
74
0
75
0
76
0
77
0
78
0
79
0
140
0.18
141
0.09
143
25.4
144
1.0
146
1.0
147
0.09
148
0.0
170
0
171
2
172
0
174
0
175
0
176
0
177
0
178
0
179
0
271
4
272
4
273
2
274
2
275
0
276
0
277
2
278
46
279
0
280
0
281
0
282
0
283
1
284
0
285
0
286
0
289
3
290
0
294
0
340
18
173
0
345
17
346
17
347
17
371
-2
372
-2
0
ENDTAB
0
TABLE
2
VIEW
5
3
330
0
100
AcDbSymbolTable
70
0
0
ENDTAB
0
TABLE
2
UCS
5
C
330
0
100
AcDbSymbolTable
70
0
0
ENDTAB
0
TABLE
2
BLOCK_RECORD
5
D
330
0
100
AcDbSymbolTable
70
4
0
BLOCK_RECORD
5
1C
330
D
100
AcDbSymbolTableRecord
100
AcDbBlockTableRecord
2
*Model_Space
340
20
0
BLOCK_RECORD
5
22
330
D
100
AcDbSymbolTableRecord
100
AcDbBlockTableRecord
2
*Paper_Space
340
27
0
BLOCK_RECORD
5
2F
330
D
100
AcDbSymbolTableRecord
100
AcDbBlockTableRecord
2
ATK_Panel27x90
340
0
70
0
280
1
281
0
1001
ACAD
1000
DesignCenter Data
1002
{
1070
1
1070
0
1002
}
0
BLOCK_RECORD
5
108
330
D
100
AcDbSymbolTableRecord
100
AcDbBlockTableRecord
2
ATK_Panel27x30
340
0
70
0
280
1
281
0
1001
ACAD
1000
DesignCenter Data
1002
{
1070
1
1070
0
1002
}
0
ENDTAB
0
ENDSEC
0
SECTION
2
BLOCKS
0
BLOCK
5
1E
330
1C
100
AcDbEntity
67
0
8
0
100
AcDbBlockBegin
2
*Model_Space
70
0
10
0.0
20
0.0
30
0.0
3
*Model_Space
4

0
ENDBLK
5
1D
330
1C
100
AcDbEntity
8
0
100
AcDbBlockEnd
0
BLOCK
5
24
330
22
100
AcDbEntity
67
1
8
0
100
AcDbBlockBegin
2
*Paper_Space
70
0
10
0.0
20
0.0
30
0.0
3
*Paper_Space
4

0
ENDBLK
5
23
330
22
100
AcDbEntity
8
0
100
AcDbBlockEnd
0
BLOCK
5
31
330
2F
100
AcDbEntity
8
0
100
AcDbBlockBegin
2
ATK_Panel27x90
70
0
10
0.0
20
0.0
30
0.0
3
ATK_Panel27x90
4

0
3DFACE
5
32
330
2F
100
AcDbEntity
8
0
62
38
6
ByLayer
370
-1
48
1.0
60
0
100
AcDbFace
10
0.899999999999999
20
-0.0000000000000001
30
2.7
11
-0.0000000000000007
21
0.0
31
2.7
12
-0.0000000000000007
22
0.0000000000000004
32
-0.0000000000000004
13
0.899999999999999
23
0.0000000000000003
33
-0.0000000000000004
70
0
0
3DFACE
5
33
330
2F
100
AcDbEntity
8
0
62
0
6
ByLayer
370
-1
48
1.0
60
0
100
AcDbFace
10
0.0253493689298844
20
-0.0165004505704759
30
2.41224383596508
11
0.0253493689298844
21
-0.120000450575191
31
2.41224383596508
12
0.875349368929566
22
-0.120000450575191
32
2.41224383596508
13
0.875349368929566
23
-0.016500450570476
33
2.41224383596508
70
0
0
3DFACE
5
34
330
2F
100
AcDbEntity
8
0
62
0
6
ByLayer
370
-1
48
1.0
60
0
100
AcDbFace
10
0.0253493689298844
20
-0.0165004505704759
30
2.38724383596508
11
0.0253493689298844
21
-0.120000450575191
31
2.38724383596508
12
0.875349368929566
22
-0.120000450575191
32
2.38724383596508
13
0.875349368929566
23
-0.016500450570476
33
2.38724383596508
70
0
0
3DFACE
5
35
330
2F
100
AcDbEntity
8
0
62
0
6
ByLayer
370
-1
48
1.0
60
0
100
AcDbFace
10
0.875349368929566
20
-0.120000450575191
30
2.41224383596508
11
0.875349368929566
21
-0.120000450575191
31
2.38724383596508
12
0.875349368929566
22
-0.016500450570476
32
2.38724383596508
13
0.875349368929566
23
-0.016500450570476
33
2.41224383596508
70
0
0
3DFACE
5
36
330
2F
100
AcDbEntity
8
0
62
0
6
ByLayer
370
-1
48
1.0
60
0
100
AcDbFace
10
0.0253493689298844
20
-0.0165004505704759
30
2.38724383596508
11
0.0253493689298844
21
-0.120000450575191
31
2.38724383596508
12
0.0253493689298844
22
-0.120000450575191
32
2.41224383596508
13
0.0253493689298844
23
-0.0165004505704759
33
2.41224383596508
70
0
0
3DFACE
5
37
330
2F
100
AcDbEntity
8
0
62
0
6
ByLayer
370
-1
48
1.0
60
0
100
AcDbFace
10
0.612852618341496
20
-0.0165004505704764
30
2.41230383596507
11
0.612852618341041
21
-0.120000450575191
31
2.41217723242407
12
0.612852618341041
22
-0.120000450575191
32
2.67467723242407
13
0.612852618341496
23
-0.0165004505704764
33
2.67480383596506
70
0
0
3DFACE
5
38
330
2F
100
AcDbEntity
8
0
62
0
6
ByLayer
370
-1
48
1.0
60
0
100
AcDbFace
10
0.587852618341405
20
-0.0165004505704764
30
2.41217723242407
11
0.587852618341405
21
-0.120000450575191
31
2.41230383596506
12
0.587852618341405
22
-0.120000450575191
32
2.67467723242407
13
0.587852618341405
23
-0.0165004505704764
33
2.67467723242407
70
0
0
3DFACE
5
39
330
2F
100
AcDbEntity
8
0
62
0
6
ByLayer
370
-1
48
1.0
60
0
100
AcDbFace
10
0.605711729084694
20
-0.120000450575191
30
2.67467723242407
11
0.580711729085058
21
-0.120000450575191
31
2.67480383596506
12
0.580711729085058
22
-0.0165004505704764
32
2.67467723242407
13
0.605711729085149
23
-0.0165004505704764
33
2.67467723242407
70
0
0
3DFACE
5
3A
330
2F
100
AcDbEntity
8
0
62
0
6
ByLayer
370
-1
48
1.0
60
0
100
AcDbFace
10
0.287846119517955
20
-0.0165004505704764
30
2.67480383596506
11
0.28784611951841
21
-0.120000450575191
31
2.67467723242407
12
0.28784611951841
22
-0.120000450575191
32
2.41217723242407
13
0.287846119517955
23
-0.0165004505704763
33
2.41230383596507
70
0
0
3DFACE
5
3B
330
2F
100
AcDbEntity
8
0
62
0
6
ByLayer
370
-1
48
1.0
60
0
100
AcDbFace
10
0.312846119518046
20
-0.0165004505704764
30
2.67467723242407
11
0.312846119518046
21
-0.120000450575191
31
2.67467723242407
12
0.312846119518046
22
-0.120000450575191
32
2.41230383596506
13
0.312846119518046
23
-0.0165004505704763
33
2.41217723242407
70
0
0
3DFACE
5
3C
330
2F
100
AcDbEntity
8
0
62
0
6
ByLayer
370
-1
48
1.0
60
0
100
AcDbFace
10
0.280705230261608
20
-0.0165004505704764
30
2.67467723242407
11
0.305705230261699
21
-0.0165004505704764
31
2.67467723242407
12
0.305705230261699
22
-0.120000450575191
32
2.67480383596506
13
0.280705230262063
23
-0.120000450575191
33
2.67467723242407
70
0
0
3DFACE
5
3D
330
2F
100
AcDbEntity
8
0
62
0
6
ByLayer
370
-1
48
1.0
60
0
100
AcDbFace
10
0.875349368929566
20
-0.016500450570476
30
2.38724383596508
11
0.875349368929566
21
-0.120000450575191
31
2.38724383596508
12
0.0253493689298844
22
-0.120000450575191
32
2.38724383596508
13
0.0253493689298844
23
-0.0165004505704759
33
2.38724383596508
70
0
0
3DFACE
5
3E
330
2F
100
AcDbEntity
8
0
62
0
6
ByLayer
370
-1
48
1.0
60
0
100
AcDbFace
10
0.875349368929566
20
-0.0165004505704756
30
0.287756164034923
11
0.875349368929566
21
-0.12000045057519
31
0.287756164034923
12
0.0253493689298844
22
-0.12000045057519
32
0.287756164034923
13
0.0253493689298844
23
-0.0165004505704755
33
0.287756164034923
70
0
0
3DFACE
5
3F
330
2F
100
AcDbEntity
8
0
62
0
6
ByLayer
370
-1
48
1.0
60
0
100
AcDbFace
10
0.875349368929566
20
-0.0165004505704756
30
0.312756164034923
11
0.875349368929566
21
-0.12000045057519
31
0.312756164034923
12
0.0253493689298844
22
-0.12000045057519
32
0.312756164034923
13
0.0253493689298844
23
-0.0165004505704755
33
0.312756164034923
70
0
0
3DFACE
5
40
330
2F
100
AcDbEntity
8
0
62
0
6
ByLayer
370
-1
48
1.0
60
0
100
AcDbFace
10
0.875349368929566
20
-0.0165004505704756
30
0.287756164034923
11
0.875349368929566
21
-0.0165004505704756
31
0.312756164034923
12
0.875349368929566
22
-0.12000045057519
32
0.312756164034923
13
0.875349368929566
23
-0.12000045057519
33
0.287756164034923
70
0
0
3DFACE
5
41
330
2F
100
AcDbEntity
8
0
62
0
6
ByLayer
370
-1
48
1.0
60
0
100
AcDbFace
10
0.0253493689298844
20
-0.0165004505704755
30
0.287756164034923
11
0.0253493689298844
21
-0.12000045057519
31
0.287756164034923
12
0.0253493689298844
22
-0.12000045057519
32
0.312756164034923
13
0.0253493689298844
23
-0.0165004505704755
33
0.312756164034923
70
0
0
3DFACE
5
42
330
2F
100
AcDbEntity
8
0
62
0
6
ByLayer
370
-1
48
1.0
60
0
100
AcDbFace
10
0.612852618341496
20
-0.016500450570476
30
0.0251961640349348
11
0.612852618341041
21
-0.120000450575191
31
0.0253227675759305
12
0.612852618341041
22
-0.120000450575191
32
0.287822767575931
13
0.612852618341496
23
-0.016500450570476
33
0.287696164034933
70
0
0
3DFACE
5
43
330
2F
100
AcDbEntity
8
0
62
0
6
ByLayer
370
-1
48
1.0
60
0
100
AcDbFace
10
0.587852618341405
20
-0.016500450570476
30
0.0253227675759305
11
0.587852618341405
21
-0.120000450575191
31
0.0253227675759305
12
0.587852618341405
22
-0.120000450575191
32
0.287696164034934
13
0.587852618341405
23
-0.016500450570476
33
0.28782276757593
70
0
0
3DFACE
5
44
330
2F
100
AcDbEntity
8
0
62
0
6
ByLayer
370
-1
48
1.0
60
0
100
AcDbFace
10
0.605711729085149
20
-0.016500450570476
30
0.0253227675759305
11
0.580711729085058
21
-0.016500450570476
31
0.0253227675759305
12
0.580711729085058
22
-0.120000450575191
32
0.0251961640349348
13
0.605711729084694
23
-0.120000450575191
33
0.0253227675759305
70
0
0
3DFACE
5
45
330
2F
100
AcDbEntity
8
0
62
0
6
ByLayer
370
-1
48
1.0
60
0
100
AcDbFace
10
0.287846119517955
20
-0.016500450570476
30
0.287696164034933
11
0.28784611951841
21
-0.120000450575191
31
0.287822767575931
12
0.28784611951841
22
-0.120000450575191
32
0.0253227675759305
13
0.287846119517955
23
-0.0165004505704759
33
0.0251961640349348
70
0
0
3DFACE
5
46
330
2F
100
AcDbEntity
8
0
62
0
6
ByLayer
370
-1
48
1.0
60
0
100
AcDbFace
10
0.312846119518046
20
-0.016500450570476
30
0.28782276757593
11
0.312846119518046
21
-0.120000450575191
31
0.287696164034934
12
0.312846119518046
22
-0.120000450575191
32
0.0253227675759305
13
0.312846119518046
23
-0.0165004505704759
33
0.0253227675759305
70
0
0
3DFACE
5
47
330
2F
100
AcDbEntity
8
0
62
0
6
ByLayer
370
-1
48
1.0
60
0
100
AcDbFace
10
0.280705230262063
20
-0.120000450575191
30
0.0253227675759305
11
0.305705230261699
21
-0.120000450575191
31
0.0251961640349348
12
0.305705230261699
22
-0.0165004505704759
32
0.0253227675759305
13
0.280705230261608
23
-0.0165004505704759
33
0.0253227675759305
70
0
0
3DFACE
5
48
330
2F
100
AcDbEntity
8
0
62
0
6
ByLayer
370
-1
48
1.0
60
0
100
AcDbFace
10
0.0253493689298844
20
-0.0165004505704755
30
0.312756164034922
11
0.0253493689298844
21
-0.12000045057519
31
0.312756164034922
12
0.875349368929566
22
-0.12000045057519
32
0.312756164034922
13
0.875349368929566
23
-0.0165004505704756
33
0.312756164034922
70
0
0
3DFACE
5
49
330
2F
100
AcDbEntity
8
0
62
0
6
ByLayer
370
-1
48
1.0
60
0
100
AcDbFace
10
0.0253493689298844
20
-0.0165004505704759
30
2.11224383596508
11
0.0253493689298844
21
-0.120000450575191
31
2.11224383596508
12
0.875349368929566
22
-0.120000450575191
32
2.11224383596508
13
0.875349368929566
23
-0.016500450570476
33
2.11224383596508
70
0
0
3DFACE
5
4A
330
2F
100
AcDbEntity
8
0
62
0
6
ByLayer
370
-1
48
1.0
60
0
100
AcDbFace
10
0.0253493689298844
20
-0.0165004505704759
30
2.08724383596508
11
0.0253493689298844
21
-0.120000450575191
31
2.08724383596508
12
0.875349368929566
22
-0.120000450575191
32
2.08724383596508
13
0.875349368929566
23
-0.016500450570476
33
2.08724383596508
70
0
0
3DFACE
5
4B
330
2F
100
AcDbEntity
8
0
62
0
6
ByLayer
370
-1
48
1.0
60
0
100
AcDbFace
10
0.875349368929566
20
-0.120000450575191
30
2.11224383596508
11
0.875349368929566
21
-0.120000450575191
31
2.08724383596508
12
0.875349368929566
22
-0.016500450570476
32
2.08724383596508
13
0.875349368929566
23
-0.016500450570476
33
2.11224383596508
70
0
0
3DFACE
5
4C
330
2F
100
AcDbEntity
8
0
62
0
6
ByLayer
370
-1
48
1.0
60
0
100
AcDbFace
10
0.0253493689298844
20
-0.0165004505704759
30
2.08724383596508
11
0.0253493689298844
21
-0.120000450575191
31
2.08724383596508
12
0.0253493689298844
22
-0.120000450575191
32
2.11224383596508
13
0.0253493689298844
23
-0.0165004505704759
33
2.11224383596508
70
0
0
3DFACE
5
4D
330
2F
100
AcDbEntity
8
0
62
0
6
ByLayer
370
-1
48
1.0
60
0
100
AcDbFace
10
0.875349368929566
20
-0.016500450570476
30
2.08724383596508
11
0.875349368929566
21
-0.120000450575191
31
2.08724383596508
12
0.0253493689298844
22
-0.120000450575191
32
2.08724383596508
13
0.0253493689298844
23
-0.0165004505704759
33
2.08724383596508
70
0
0
3DFACE
5
4E
330
2F
100
AcDbEntity
8
0
62
0
6
ByLayer
370
-1
48
1.0
60
0
100
AcDbFace
10
0.0253493689298844
20
-0.0165004505704758
30
1.81224383596508
11
0.0253493689298844
21
-0.120000450575191
31
1.81224383596508
12
0.875349368929566
22
-0.120000450575191
32
1.81224383596508
13
0.875349368929566
23
-0.0165004505704759
33
1.81224383596508
70
0
0
3DFACE
5
4F
330
2F
100
AcDbEntity
8
0
62
0
6
ByLayer
370
-1
48
1.0
60
0
100
AcDbFace
10
0.0253493689298844
20
-0.0165004505704758
30
1.78724383596508
11
0.0253493689298844
21
-0.120000450575191
31
1.78724383596508
12
0.875349368929566
22
-0.120000450575191
32
1.78724383596508
13
0.875349368929566
23
-0.0165004505704759
33
1.78724383596508
70
0
0
3DFACE
5
50
330
2F
100
AcDbEntity
8
0
62
0
6
ByLayer
370
-1
48
1.0
60
0
100
AcDbFace
10
0.875349368929566
20
-0.120000450575191
30
1.81224383596508
11
0.875349368929566
21
-0.120000450575191
31
1.78724383596508
12
0.875349368929566
22
-0.0165004505704759
32
1.78724383596508
13
0.875349368929566
23
-0.0165004505704759
33
1.81224383596508
70
0
0
3DFACE
5
51
330
2F
100
AcDbEntity
8
0
62
0
6
ByLayer
370
-1
48
1.0
60
0
100
AcDbFace
10
0.0253493689298844
20
-0.0165004505704758
30
1.78724383596508
11
0.0253493689298844
21
-0.120000450575191
31
1.78724383596508
12
0.0253493689298844
22
-0.120000450575191
32
1.81224383596508
13
0.0253493689298844
23
-0.0165004505704758
33
1.81224383596508
70
0
0
3DFACE
5
52
330
2F
100
AcDbEntity
8
0
62
0
6
ByLayer
370
-1
48
1.0
60
0
100
AcDbFace
10
0.875349368929566
20
-0.0165004505704759
30
1.78724383596508
11
0.875349368929566
21
-0.120000450575191
31
1.78724383596508
12
0.0253493689298844
22
-0.120000450575191
32
1.78724383596508
13
0.0253493689298844
23
-0.0165004505704758
33
1.78724383596508
70
0
0
3DFACE
5
53
330
2F
100
AcDbEntity
8
0
62
0
6
ByLayer
370
-1
48
1.0
60
0
100
AcDbFace
10
0.0253493689298844
20
-0.0165004505704758
30
1.51224383596507
11
0.0253493689298844
21
-0.120000450575191
31
1.51224383596507
12
0.875349368929566
22
-0.120000450575191
32
1.51224383596507
13
0.875349368929566
23
-0.0165004505704759
33
1.51224383596507
70
0
0
3DFACE
5
54
330
2F
100
AcDbEntity
8
0
62
0
6
ByLayer
370
-1
48
1.0
60
0
100
AcDbFace
10
0.0253493689298844
20
-0.0165004505704758
30
1.48724383596508
11
0.0253493689298844
21
-0.120000450575191
31
1.48724383596508
12
0.875349368929566
22
-0.120000450575191
32
1.48724383596508
13
0.875349368929566
23
-0.0165004505704759
33
1.48724383596508
70
0
0
3DFACE
5
55
330
2F
100
AcDbEntity
8
0
62
0
6
ByLayer
370
-1
48
1.0
60
0
100
AcDbFace
10
0.875349368929566
20
-0.120000450575191
30
1.51224383596507
11
0.875349368929566
21
-0.120000450575191
31
1.48724383596508
12
0.875349368929566
22
-0.0165004505704759
32
1.48724383596508
13
0.875349368929566
23
-0.0165004505704759
33
1.51224383596507
70
0
0
3DFACE
5
56
330
2F
100
AcDbEntity
8
0
62
0
6
ByLayer
370
-1
48
1.0
60
0
100
AcDbFace
10
0.875349368929566
20
-0.0165004505704759
30
1.48724383596508
11
0.875349368929566
21
-0.120000450575191
31
1.48724383596508
12
0.0253493689298844
22
-0.120000450575191
32
1.48724383596508
13
0.0253493689298844
23
-0.0165004505704758
33
1.48724383596508
70
0
0
3DFACE
5
57
330
2F
100
AcDbEntity
8
0
62
0
6
ByLayer
370
-1
48
1.0
60
0
100
AcDbFace
10
0.875349368929566
20
-0.0165004505704758
30
0.587756164034923
11
0.875349368929566
21
-0.120000450575191
31
0.587756164034923
12
0.0253493689298844
22
-0.120000450575191
32
0.587756164034923
13
0.0253493689298844
23
-0.0165004505704757
33
0.587756164034923
70
0
0
3DFACE
5
58
330
2F
100
AcDbEntity
8
0
62
0
6
ByLayer
370
-1
48
1.0
60
0
100
AcDbFace
10
0.875349368929566
20
-0.0165004505704758
30
0.612756164034923
11
0.875349368929566
21
-0.120000450575191
31
0.612756164034923
12
0.0253493689298844
22
-0.120000450575191
32
0.612756164034923
13
0.0253493689298844
23
-0.0165004505704757
33
0.612756164034923
70
0
0
3DFACE
5
59
330
2F
100
AcDbEntity
8
0
62
0
6
ByLayer
370
-1
48
1.0
60
0
100
AcDbFace
10
0.875349368929566
20
-0.0165004505704758
30
0.587756164034923
11
0.875349368929566
21
-0.0165004505704758
31
0.612756164034923
12
0.875349368929566
22
-0.120000450575191
32
0.612756164034923
13
0.875349368929566
23
-0.120000450575191
33
0.587756164034923
70
0
0
3DFACE
5
5A
330
2F
100
AcDbEntity
8
0
62
0
6
ByLayer
370
-1
48
1.0
60
0
100
AcDbFace
10
0.0253493689298844
20
-0.0165004505704757
30
0.587756164034923
11
0.0253493689298844
21
-0.120000450575191
31
0.587756164034923
12
0.0253493689298844
22
-0.120000450575191
32
0.612756164034923
13
0.0253493689298844
23
-0.0165004505704757
33
0.612756164034923
70
0
0
3DFACE
5
5B
330
2F
100
AcDbEntity
8
0
62
0
6
ByLayer
370
-1
48
1.0
60
0
100
AcDbFace
10
0.0253493689298844
20
-0.0165004505704757
30
0.612756164034922
11
0.0253493689298844
21
-0.120000450575191
31
0.612756164034922
12
0.875349368929566
22
-0.120000450575191
32
0.612756164034922
13
0.875349368929566
23
-0.0165004505704758
33
0.612756164034922
70
0
0
3DFACE
5
5C
330
2F
100
AcDbEntity
8
0
62
0
6
ByLayer
370
-1
48
1.0
60
0
100
AcDbFace
10
0.875349368929566
20
-0.0165004505704758
30
0.887756164034923
11
0.875349368929566
21
-0.120000450575191
31
0.887756164034923
12
0.0253493689298844
22
-0.120000450575191
32
0.887756164034923
13
0.0253493689298844
23
-0.0165004505704757
33
0.887756164034923
70
0
0
3DFACE
5
5D
330
2F
100
AcDbEntity
8
0
62
0
6
ByLayer
370
-1
48
1.0
60
0
100
AcDbFace
10
0.875349368929566
20
-0.0165004505704758
30
0.912756164034923
11
0.875349368929566
21
-0.120000450575191
31
0.912756164034923
12
0.0253493689298844
22
-0.120000450575191
32
0.912756164034923
13
0.0253493689298844
23
-0.0165004505704757
33
0.912756164034923
70
0
0
3DFACE
5
5E
330
2F
100
AcDbEntity
8
0
62
0
6
ByLayer
370
-1
48
1.0
60
0
100
AcDbFace
10
0.875349368929566
20
-0.0165004505704758
30
0.887756164034923
11
0.875349368929566
21
-0.0165004505704758
31
0.912756164034923
12
0.875349368929566
22
-0.120000450575191
32
0.912756164034923
13
0.875349368929566
23
-0.120000450575191
33
0.887756164034923
70
0
0
3DFACE
5
5F
330
2F
100
AcDbEntity
8
0
62
0
6
ByLayer
370
-1
48
1.0
60
0
100
AcDbFace
10
0.0253493689298844
20
-0.0165004505704757
30
0.887756164034923
11
0.0253493689298844
21
-0.120000450575191
31
0.887756164034923
12
0.0253493689298844
22
-0.120000450575191
32
0.912756164034923
13
0.0253493689298844
23
-0.0165004505704757
33
0.912756164034923
70
0
0
3DFACE
5
60
330
2F
100
AcDbEntity
8
0
62
0
6
ByLayer
370
-1
48
1.0
60
0
100
AcDbFace
10
0.0253493689298844
20
-0.0165004505704757
30
0.912756164034922
11
0.0253493689298844
21
-0.120000450575191
31
0.912756164034922
12
0.875349368929566
22
-0.120000450575191
32
0.912756164034922
13
0.875349368929566
23
-0.0165004505704758
33
0.912756164034922
70
0
0
3DFACE
5
61
330
2F
100
AcDbEntity
8
0
62
0
6
ByLayer
370
-1
48
1.0
60
0
100
AcDbFace
10
0.875349368929566
20
-0.0165004505704759
30
1.18775616403492
11
0.875349368929566
21
-0.120000450575191
31
1.18775616403492
12
0.0253493689298844
22
-0.120000450575191
32
1.18775616403492
13
0.0253493689298844
23
-0.0165004505704758
33
1.18775616403492
70
0
0
3DFACE
5
62
330
2F
100
AcDbEntity
8
0
62
0
6
ByLayer
370
-1
48
1.0
60
0
100
AcDbFace
10
0.875349368929566
20
-0.0165004505704759
30
1.21275616403492
11
0.875349368929566
21
-0.120000450575191
31
1.21275616403492
12
0.0253493689298844
22
-0.120000450575191
32
1.21275616403492
13
0.0253493689298844
23
-0.0165004505704758
33
1.21275616403492
70
0
0
3DFACE
5
63
330
2F
100
AcDbEntity
8
0
62
0
6
ByLayer
370
-1
48
1.0
60
0
100
AcDbFace
10
0.875349368929566
20
-0.0165004505704759
30
1.18775616403492
11
0.875349368929566
21
-0.0165004505704759
31
1.21275616403492
12
0.875349368929566
22
-0.120000450575191
32
1.21275616403492
13
0.875349368929566
23
-0.120000450575191
33
1.18775616403492
70
0
0
3DFACE
5
64
330
2F
100
AcDbEntity
8
0
62
0
6
ByLayer
370
-1
48
1.0
60
0
100
AcDbFace
10
0.0253493689298844
20
-0.0165004505704758
30
1.21275616403492
11
0.0253493689298844
21
-0.120000450575191
31
1.21275616403492
12
0.875349368929566
22
-0.120000450575191
32
1.21275616403492
13
0.875349368929566
23
-0.0165004505704759
33
1.21275616403492
70
0
0
3DFACE
5
65
330
2F
100
AcDbEntity
8
0
62
0
6
ByLayer
370
-1
48
1.0
60
0
100
AcDbFace
10
0.797331651110034
20
-0.120000004280883
30
2.11223196139495
11
0.797331651110034
21
-0.0165000042834439
31
2.11223196139495
12
0.874890614885607
22
-0.0165000042834439
32
2.19535589049985
13
0.874890614885607
23
-0.120000004280883
33
2.19535589049985
70
0
0
3DFACE
5
66
330
2F
100
AcDbEntity
8
0
62
0
6
ByLayer
370
-1
48
1.0
60
0
100
AcDbFace
10
0.874890614885607
20
-0.0165000042834439
30
2.18656092378981
11
0.805537814039616
21
-0.0165000042834439
31
2.11223196139495
12
0.805537814039616
22
-0.120000004280883
32
2.11223196139495
13
0.874890614885607
23
-0.120000004280883
33
2.18656092378981
70
0
0
3DFACE
5
67
330
2F
100
AcDbEntity
8
0
62
0
6
ByLayer
370
-1
48
1.0
60
0
100
AcDbFace
10
0.874890614885607
20
-0.120000004280883
30
2.18656092378981
11
0.805537814039616
21
-0.120000004280883
31
2.11223196139495
12
0.797331651110034
22
-0.120000004280883
32
2.11223196139495
13
0.874890614885607
23
-0.120000004280883
33
2.19535589049985
70
0
0
3DFACE
5
68
330
2F
100
AcDbEntity
8
0
62
0
6
ByLayer
370
-1
48
1.0
60
0
100
AcDbFace
10
0.874890614885607
20
-0.0165000042834439
30
2.18656092378981
11
0.805537814039616
21
-0.0165000042834439
31
2.11223196139495
12
0.797331651110034
22
-0.0165000042834438
32
2.11223196139495
13
0.874890614885607
23
-0.0165000042834439
33
2.19535589049985
70
0
0
3DFACE
5
69
330
2F
100
AcDbEntity
8
0
62
0
6
ByLayer
370
-1
48
1.0
60
0
100
AcDbFace
10
0.874890614885607
20
-0.0165000042834438
30
2.18656092378981
11
0.874890614885607
21
-0.120000004280883
31
2.18656092378981
12
0.874890614885607
22
-0.120000004280883
32
2.19535589049985
13
0.874890614885607
23
-0.0165000042834438
33
2.19535589049985
70
0
0
3DFACE
5
6A
330
2F
100
AcDbEntity
8
0
62
0
6
ByLayer
370
-1
48
1.0
60
0
100
AcDbFace
10
0.874890614885607
20
-0.0165000042834438
30
2.18656092378981
11
0.874890614885607
21
-0.120000004280883
31
2.18656092378981
12
0.805537814039616
22
-0.120000004280883
32
2.11223196139495
13
0.805537814039616
23
-0.0165000042834439
33
2.11223196139495
70
0
0
3DFACE
5
6B
330
2F
100
AcDbEntity
8
0
62
0
6
ByLayer
370
-1
48
1.0
60
0
100
AcDbFace
10
0.0258081229738437
20
-0.120000004280883
30
2.19535589049985
11
0.0258081229738437
21
-0.0165000042834439
31
2.19535589049985
12
0.103367086749417
22
-0.0165000042834439
32
2.11223196139495
13
0.103367086749417
23
-0.120000004280883
33
2.11223196139495
70
0
0
3DFACE
5
6C
330
2F
100
AcDbEntity
8
0
62
0
6
ByLayer
370
-1
48
1.0
60
0
100
AcDbFace
10
0.0258081229738437
20
-0.120000004280883
30
2.18656092378981
11
0.0951609238198347
21
-0.120000004280883
31
2.11223196139495
12
0.0951609238198347
22
-0.0165000042834439
32
2.11223196139495
13
0.0258081229738437
23
-0.0165000042834439
33
2.18656092378981
70
0
0
3DFACE
5
6D
330
2F
100
AcDbEntity
8
0
62
0
6
ByLayer
370
-1
48
1.0
60
0
100
AcDbFace
10
0.0258081229738437
20
-0.120000004280883
30
2.19535589049985
11
0.103367086749417
21
-0.120000004280883
31
2.11223196139495
12
0.0951609238198347
22
-0.120000004280883
32
2.11223196139495
13
0.0258081229738437
23
-0.120000004280883
33
2.18656092378981
70
0
0
3DFACE
5
6E
330
2F
100
AcDbEntity
8
0
62
0
6
ByLayer
370
-1
48
1.0
60
0
100
AcDbFace
10
0.0258081229738437
20
-0.0165000042834439
30
2.19535589049985
11
0.103367086749417
21
-0.0165000042834439
31
2.11223196139495
12
0.0951609238198347
22
-0.0165000042834439
32
2.11223196139495
13
0.0258081229738437
23
-0.0165000042834439
33
2.18656092378981
70
0
0
3DFACE
5
6F
330
2F
100
AcDbEntity
8
0
62
0
6
ByLayer
370
-1
48
1.0
60
0
100
AcDbFace
10
0.0258081229738437
20
-0.0165000042834439
30
2.19535589049985
11
0.0258081229738437
21
-0.120000004280883
31
2.19535589049985
12
0.0258081229738437
22
-0.120000004280883
32
2.18656092378981
13
0.0258081229738437
23
-0.0165000042834439
33
2.18656092378981
70
0
0
3DFACE
5
70
330
2F
100
AcDbEntity
8
0
62
0
6
ByLayer
370
-1
48
1.0
60
0
100
AcDbFace
10
0.0951609238198347
20
-0.0165000042834439
30
2.11223196139495
11
0.0951609238198347
21
-0.120000004280883
31
2.11223196139495
12
0.0258081229738437
22
-0.120000004280883
32
2.18656092378981
13
0.0258081229738437
23
-0.0165000042834439
33
2.18656092378981
70
0
0
3DFACE
5
71
330
2F
100
AcDbEntity
8
0
62
0
6
ByLayer
370
-1
48
1.0
60
0
100
AcDbFace
10
0.875349368929566
20
-0.0165004505704757
30
0.587756164034923
11
0.875349368929566
21
-0.0165004505704757
31
0.612756164034923
12
0.875349368929566
22
-0.120000450575191
32
0.612756164034923
13
0.875349368929566
23
-0.120000450575191
33
0.587756164034923
70
0
0
3DFACE
5
72
330
2F
100
AcDbEntity
8
0
62
0
6
ByLayer
370
-1
48
1.0
60
0
100
AcDbFace
10
0.0253493689298844
20
-0.0165004505704756
30
0.587756164034923
11
0.0253493689298844
21
-0.12000045057519
31
0.587756164034923
12
0.0253493689298844
22
-0.12000045057519
32
0.612756164034923
13
0.0253493689298844
23
-0.0165004505704756
33
0.612756164034923
70
0
0
3DFACE
5
73
330
2F
100
AcDbEntity
8
0
62
0
6
ByLayer
370
-1
48
1.0
60
0
100
AcDbFace
10
0.874890614885607
20
-0.120000004280882
30
0.504644109500146
11
0.874890614885607
21
-0.0165000042834436
31
0.504644109500146
12
0.797331651110034
22
-0.0165000042834436
32
0.587768038605049
13
0.797331651110034
23
-0.120000004280882
33
0.587768038605049
70
0
0
3DFACE
5
74
330
2F
100
AcDbEntity
8
0
62
0
6
ByLayer
370
-1
48
1.0
60
0
100
AcDbFace
10
0.874890614885607
20
-0.120000004280882
30
0.513439076210192
11
0.805537814039616
21
-0.120000004280882
31
0.587768038605049
12
0.805537814039616
22
-0.0165000042834436
32
0.587768038605049
13
0.874890614885607
23
-0.0165000042834436
33
0.513439076210192
70
0
0
3DFACE
5
75
330
2F
100
AcDbEntity
8
0
62
0
6
ByLayer
370
-1
48
1.0
60
0
100
AcDbFace
10
0.874890614885607
20
-0.120000004280882
30
0.504644109500146
11
0.797331651110034
21
-0.120000004280882
31
0.587768038605049
12
0.805537814039616
22
-0.120000004280882
32
0.587768038605049
13
0.874890614885607
23
-0.120000004280882
33
0.513439076210192
70
0
0
3DFACE
5
76
330
2F
100
AcDbEntity
8
0
62
0
6
ByLayer
370
-1
48
1.0
60
0
100
AcDbFace
10
0.874890614885607
20
-0.0165000042834436
30
0.504644109500146
11
0.797331651110034
21
-0.0165000042834435
31
0.587768038605049
12
0.805537814039616
22
-0.0165000042834436
32
0.587768038605049
13
0.874890614885607
23
-0.0165000042834436
33
0.513439076210192
70
0
0
3DFACE
5
77
330
2F
100
AcDbEntity
8
0
62
0
6
ByLayer
370
-1
48
1.0
60
0
100
AcDbFace
10
0.874890614885607
20
-0.0165000042834435
30
0.504644109500146
11
0.874890614885607
21
-0.120000004280882
31
0.504644109500146
12
0.874890614885607
22
-0.120000004280882
32
0.513439076210192
13
0.874890614885607
23
-0.0165000042834435
33
0.513439076210192
70
0
0
3DFACE
5
78
330
2F
100
AcDbEntity
8
0
62
0
6
ByLayer
370
-1
48
1.0
60
0
100
AcDbFace
10
0.805537814039616
20
-0.0165000042834436
30
0.587768038605049
11
0.805537814039616
21
-0.120000004280882
31
0.587768038605049
12
0.874890614885607
22
-0.120000004280882
32
0.513439076210192
13
0.874890614885607
23
-0.0165000042834435
33
0.513439076210192
70
0
0
3DFACE
5
79
330
2F
100
AcDbEntity
8
0
62
0
6
ByLayer
370
-1
48
1.0
60
0
100
AcDbFace
10
0.103367086749417
20
-0.120000004280882
30
0.587768038605049
11
0.103367086749417
21
-0.0165000042834436
31
0.587768038605049
12
0.0258081229738437
22
-0.0165000042834436
32
0.504644109500146
13
0.0258081229738437
23
-0.120000004280882
33
0.504644109500146
70
0
0
3DFACE
5
7A
330
2F
100
AcDbEntity
8
0
62
0
6
ByLayer
370
-1
48
1.0
60
0
100
AcDbFace
10
0.0258081229738437
20
-0.0165000042834436
30
0.513439076210192
11
0.0951609238198347
21
-0.0165000042834436
31
0.587768038605049
12
0.0951609238198347
22
-0.120000004280882
32
0.587768038605049
13
0.0258081229738437
23
-0.120000004280883
33
0.513439076210192
70
0
0
3DFACE
5
7B
330
2F
100
AcDbEntity
8
0
62
0
6
ByLayer
370
-1
48
1.0
60
0
100
AcDbFace
10
0.0258081229738437
20
-0.120000004280883
30
0.513439076210192
11
0.0951609238198347
21
-0.120000004280882
31
0.587768038605049
12
0.103367086749417
22
-0.120000004280882
32
0.587768038605049
13
0.0258081229738437
23
-0.120000004280882
33
0.504644109500146
70
0
0
3DFACE
5
7C
330
2F
100
AcDbEntity
8
0
62
0
6
ByLayer
370
-1
48
1.0
60
0
100
AcDbFace
10
0.0258081229738437
20
-0.0165000042834436
30
0.513439076210192
11
0.0951609238198347
21
-0.0165000042834436
31
0.587768038605049
12
0.103367086749417
22
-0.0165000042834436
32
0.587768038605049
13
0.0258081229738437
23
-0.0165000042834436
33
0.504644109500146
70
0
0
3DFACE
5
7D
330
2F
100
AcDbEntity
8
0
62
0
6
ByLayer
370
-1
48
1.0
60
0
100
AcDbFace
10
0.0258081229738437
20
-0.0165000042834436
30
0.513439076210192
11
0.0258081229738437
21
-0.120000004280883
31
0.513439076210192
12
0.0258081229738437
22
-0.120000004280882
32
0.504644109500146
13
0.0258081229738437
23
-0.0165000042834436
33
0.504644109500146
70
0
0
3DFACE
5
7E
330
2F
100
AcDbEntity
8
0
62
0
6
ByLayer
370
-1
48
1.0
60
0
100
AcDbFace
10
0.0258081229738437
20
-0.0165000042834436
30
0.513439076210192
11
0.0258081229738437
21
-0.120000004280883
31
0.513439076210192
12
0.0951609238198347
22
-0.120000004280882
32
0.587768038605049
13
0.0951609238198347
23
-0.0165000042834436
33
0.587768038605049
70
0
0
LWPOLYLINE
5
7F
330
2F
100
AcDbEntity
8
0
62
0
6
ByLayer
370
-1
48
1.0
60
0
100
AcDbPolyline
90
13
70
1
38
0.0
39
2.7
10
-0.0000000000000001
20
-0.119999999988067
40
0.0
41
0.0
42
0.0
10
0.0250000000000909
20
-0.120000000002619
40
0.0
41
0.0
42
0.0
10
0.0250000000000909
20
-0.0899999999892315
40
0.0
41
0.0
42
0.0
10
0.016011394203815
20
-0.0824999999903371
40
0.0
41
0.0
42
0.0
10
0.004143140852875
20
-0.0805010550175211
40
0.0
41
0.0
42
0.0
10
0.0041209846735909
20
-0.0384999999878345
40
0.0
41
0.0
42
0.0
10
0.0209999999999581
20
-0.0364999999874263
40
0.0
41
0.0
42
0.0
10
0.0249999999999582
20
-0.0324999999938881
40
0.0
41
0.0
42
0.0
10
0.0250000000001821
20
-0.0204999999987196
40
0.0
41
0.0
42
0.0
10
0.0209999999999635
20
-0.0164999999934831
40
0.0
41
0.0
42
0.0
10
0.005921825426867
20
-0.0150464246617047
40
0.0
41
0.0
42
0.0
10
0.008036462509608
20
0.0000000000000001
40
0.0
41
0.0
42
0.0
10
0.0
20
0.0000000000000001
40
0.0
41
0.0
42
0.0
210
0.0
220
0.0
230
1.0
0
LWPOLYLINE
5
80
330
2F
100
AcDbEntity
8
0
62
0
6
ByLayer
370
-1
48
1.0
60
0
100
AcDbPolyline
90
13
70
1
38
-0.9
39
0.9
10
0.119999999988068
20
2.7
40
0.0
41
0.0
42
0.0
10
0.120000000002619
20
2.67499999999991
40
0.0
41
0.0
42
0.0
10
0.0899999999892318
20
2.67499999999991
40
0.0
41
0.0
42
0.0
10
0.0824999999903374
20
2.68398860579619
40
0.0
41
0.0
42
0.0
10
0.0805010550175214
20
2.69585685914713
40
0.0
41
0.0
42
0.0
10
0.0384999999878348
20
2.69587901532641
40
0.0
41
0.0
42
0.0
10
0.0364999999874266
20
2.67900000000004
40
0.0
41
0.0
42
0.0
10
0.0324999999938884
20
2.67500000000004
40
0.0
41
0.0
42
0.0
10
0.0204999999987199
20
2.67499999999982
40
0.0
41
0.0
42
0.0
10
0.0164999999934834
20
2.67900000000004
40
0.0
41
0.0
42
0.0
10
0.0150464246617051
20
2.69407817457313
40
0.0
41
0.0
42
0.0
10
0.0000000000000002
20
2.69196353749039
40
0.0
41
0.0
42
0.0
10
0.0000000000000002
20
2.7
40
0.0
41
0.0
42
0.0
210
-1.0
220
0.0000000000000001
230
-0.0000000000000002
0
LWPOLYLINE
5
81
330
2F
100
AcDbEntity
8
0
62
0
6
ByLayer
370
-1
48
1.0
60
0
100
AcDbPolyline
90
13
70
1
38
0.0
39
2.7
10
0.899999999999999
20
-0.119999999988067
40
0.0
41
0.0
42
0.0
10
0.874999999999908
20
-0.120000000002619
40
0.0
41
0.0
42
0.0
10
0.874999999999908
20
-0.0899999999892314
40
0.0
41
0.0
42
0.0
10
0.883988605796184
20
-0.0824999999903371
40
0.0
41
0.0
42
0.0
10
0.895856859147124
20
-0.080501055017521
40
0.0
41
0.0
42
0.0
10
0.895879015326408
20
-0.0384999999878345
40
0.0
41
0.0
42
0.0
10
0.879000000000041
20
-0.0364999999874262
40
0.0
41
0.0
42
0.0
10
0.875000000000041
20
-0.0324999999938881
40
0.0
41
0.0
42
0.0
10
0.874999999999817
20
-0.0204999999987195
40
0.0
41
0.0
42
0.0
10
0.879000000000035
20
-0.016499999993483
40
0.0
41
0.0
42
0.0
10
0.894078174573132
20
-0.0150464246617047
40
0.0
41
0.0
42
0.0
10
0.891963537490391
20
0.0000000000000002
40
0.0
41
0.0
42
0.0
10
0.899999999999999
20
0.0000000000000002
40
0.0
41
0.0
42
0.0
210
0.0
220
0.0
230
1.0
0
LWPOLYLINE
5
82
330
2F
100
AcDbEntity
8
0
62
0
6
ByLayer
370
-1
48
1.0
60
0
100
AcDbPolyline
90
13
70
1
38
-0.9
39
0.9
10
0.119999999988067
20
0.0000000000000002
40
0.0
41
0.0
42
0.0
10
0.120000000002619
20
0.0250000000000912
40
0.0
41
0.0
42
0.0
10
0.0899999999892315
20
0.0250000000000912
40
0.0
41
0.0
42
0.0
10
0.0824999999903371
20
0.0160113942038154
40
0.0
41
0.0
42
0.0
10
0.0805010550175211
20
0.0041431408528754
40
0.0
41
0.0
42
0.0
10
0.0384999999878345
20
0.0041209846735912
40
0.0
41
0.0
42
0.0
10
0.0364999999874263
20
0.0209999999999584
40
0.0
41
0.0
42
0.0
10
0.0324999999938881
20
0.0249999999999584
40
0.0
41
0.0
42
0.0
10
0.0204999999987196
20
0.0250000000001822
40
0.0
41
0.0
42
0.0
10
0.0164999999934831
20
0.0209999999999637
40
0.0
41
0.0
42
0.0
10
0.0150464246617048
20
0.0059218254268673
40
0.0
41
0.0
42
0.0
10
-0.0000000000000001
20
0.0080364625096083
40
0.0
41
0.0
42
0.0
10
-0.0000000000000001
20
0.0000000000000002
40
0.0
41
0.0
42
0.0
210
-1.0
220
0.0000000000000001
230
0.0000000000000002
0
LWPOLYLINE
5
83
330
2F
100
AcDbEntity
8
0
62
0
6
ByLayer
370
-1
48
1.0
60
0
100
AcDbPolyline
90
13
70
1
38
-0.9
39
0.9
10
0.119999999988067
20
0.0000000000000002
40
0.0
41
0.0
42
0.0
10
0.120000000002619
20
0.0250000000000912
40
0.0
41
0.0
42
0.0
10
0.0899999999892313
20
0.0250000000000912
40
0.0
41
0.0
42
0.0
10
0.0824999999903369
20
0.0160113942038154
40
0.0
41
0.0
42
0.0
10
0.0805010550175209
20
0.0041431408528754
40
0.0
41
0.0
42
0.0
10
0.0384999999878344
20
0.0041209846735912
40
0.0
41
0.0
42
0.0
10
0.0364999999874261
20
0.0209999999999584
40
0.0
41
0.0
42
0.0
10
0.0324999999938879
20
0.0249999999999584
40
0.0
41
0.0
42
0.0
10
0.0204999999987194
20
0.0250000000001822
40
0.0
41
0.0
42
0.0
10
0.0164999999934829
20
0.0209999999999637
40
0.0
41
0.0
42
0.0
10
0.0150464246617046
20
0.0059218254268673
40
0.0
41
0.0
42
0.0
10
-0.0000000000000002
20
0.0080364625096083
40
0.0
41
0.0
42
0.0
10
-0.0000000000000002
20
0.0000000000000002
40
0.0
41
0.0
42
0.0
210
-1.0
220
0.0000000000000001
230
0.0000000000000002
0
CIRCLE
5
84
330
2F
100
AcDbEntity
8
0
62
0
6
ByLayer
370
-1
48
1.0
60
0
100
AcDbCircle
10
0.825349368929839
20
-0.0800004561404253
30
2.41224383596508
40
0.012
39
0.0
210
0.0
220
0.0
230
1.0
0
CIRCLE
5
85
330
2F
100
AcDbEntity
8
0
62
0
6
ByLayer
370
-1
48
1.0
60
0
100
AcDbCircle
10
0.750349368929566
20
-0.0700004575353723
30
2.41224383596508
40
0.012
39
0.0
210
0.0
220
0.0
230
1.0
0
CIRCLE
5
86
330
2F
100
AcDbEntity
8
0
62
0
6
ByLayer
370
-1
48
1.0
60
0
100
AcDbCircle
10
0.675349368929748
20
-0.0700004575353723
30
2.41224383596508
40
0.012
39
0.0
210
0.0
220
0.0
230
1.0
0
CIRCLE
5
87
330
2F
100
AcDbEntity
8
0
62
0
6
ByLayer
370
-1
48
1.0
60
0
100
AcDbCircle
10
0.150349368929884
20
-0.0800004561404256
30
2.41224383596508
40
0.012
39
0.0
210
0.0
220
0.0
230
1.0
0
CIRCLE
5
88
330
2F
100
AcDbEntity
8
0
62
0
6
ByLayer
370
-1
48
1.0
60
0
100
AcDbCircle
10
0.0700004672706035
20
2.53718053419457
30
-0.612852618341496
40
0.012
39
0.0
210
-1.0
220
0.0000000000000001
230
0.0
0
CIRCLE
5
89
330
2F
100
AcDbEntity
8
0
62
0
6
ByLayer
370
-1
48
1.0
60
0
100
AcDbCircle
10
0.0800004672726408
20
2.46218053419457
30
-0.612852618341496
40
0.012
39
0.0
210
-1.0
220
0.0000000000000001
230
0.0
0
CIRCLE
5
8A
330
2F
100
AcDbEntity
8
0
62
0
6
ByLayer
370
-1
48
1.0
60
0
100
AcDbCircle
10
0.0700004672706035
20
2.53718053419457
30
-0.587852618341405
40
0.012
39
0.0
210
-1.0
220
0.0000000000000001
230
0.0
0
CIRCLE
5
8B
330
2F
100
AcDbEntity
8
0
62
0
6
ByLayer
370
-1
48
1.0
60
0
100
AcDbCircle
10
0.0800004672726408
20
2.46218053419457
30
-0.587852618341405
40
0.012
39
0.0
210
-1.0
220
0.0000000000000001
230
0.0
0
CIRCLE
5
8C
330
2F
100
AcDbEntity
8
0
62
0
6
ByLayer
370
-1
48
1.0
60
0
100
AcDbCircle
10
-0.0700004672706037
20
2.53718053419457
30
0.287846119517955
40
0.012
39
0.0
210
1.0
220
0.0000000000000003
230
0.0
0
CIRCLE
5
8D
330
2F
100
AcDbEntity
8
0
62
0
6
ByLayer
370
-1
48
1.0
60
0
100
AcDbCircle
10
-0.0800004672726409
20
2.46218053419457
30
0.287846119517955
40
0.012
39
0.0
210
1.0
220
0.0000000000000003
230
0.0
0
CIRCLE
5
8E
330
2F
100
AcDbEntity
8
0
62
0
6
ByLayer
370
-1
48
1.0
60
0
100
AcDbCircle
10
-0.0700004672706037
20
2.53718053419457
30
0.312846119518046
40
0.012
39
0.0
210
1.0
220
0.0000000000000003
230
0.0
0
CIRCLE
5
8F
330
2F
100
AcDbEntity
8
0
62
0
6
ByLayer
370
-1
48
1.0
60
0
100
AcDbCircle
10
-0.0800004672726409
20
2.46218053419457
30
0.312846119518046
40
0.012
39
0.0
210
1.0
220
0.0000000000000003
230
0.0
0
CIRCLE
5
90
330
2F
100
AcDbEntity
8
0
62
0
6
ByLayer
370
-1
48
1.0
60
0
100
AcDbCircle
10
-0.825349368929839
20
-0.0800004561404247
30
-2.38724383596508
40
0.012
39
0.0
210
0.0
220
0.0000000000000002
230
-1.0
0
CIRCLE
5
91
330
2F
100
AcDbEntity
8
0
62
0
6
ByLayer
370
-1
48
1.0
60
0
100
AcDbCircle
10
-0.750349368929566
20
-0.0700004575353717
30
-2.38724383596508
40
0.012
39
0.0
210
0.0
220
0.0000000000000002
230
-1.0
0
CIRCLE
5
92
330
2F
100
AcDbEntity
8
0
62
0
6
ByLayer
370
-1
48
1.0
60
0
100
AcDbCircle
10
-0.675349368929748
20
-0.0700004575353717
30
-2.38724383596508
40
0.012
39
0.0
210
0.0
220
0.0000000000000002
230
-1.0
0
CIRCLE
5
93
330
2F
100
AcDbEntity
8
0
62
0
6
ByLayer
370
-1
48
1.0
60
0
100
AcDbCircle
10
-0.150349368929884
20
-0.080000456140425
30
-2.38724383596508
40
0.012
39
0.0
210
0.0
220
0.0000000000000002
230
-1.0
0
CIRCLE
5
94
330
2F
100
AcDbEntity
8
0
62
0
6
ByLayer
370
-1
48
1.0
60
0
100
AcDbCircle
10
-0.825349368929839
20
-0.0800004561404248
30
-0.287756164034923
40
0.012
39
0.0
210
0.0
220
0.0000000000000002
230
-1.0
0
CIRCLE
5
95
330
2F
100
AcDbEntity
8
0
62
0
6
ByLayer
370
-1
48
1.0
60
0
100
AcDbCircle
10
-0.750349368929566
20
-0.0700004575353718
30
-0.287756164034923
40
0.012
39
0.0
210
0.0
220
0.0000000000000002
230
-1.0
0
CIRCLE
5
96
330
2F
100
AcDbEntity
8
0
62
0
6
ByLayer
370
-1
48
1.0
60
0
100
AcDbCircle
10
-0.675349368929748
20
-0.0700004575353718
30
-0.287756164034923
40
0.012
39
0.0
210
0.0
220
0.0000000000000002
230
-1.0
0
CIRCLE
5
97
330
2F
100
AcDbEntity
8
0
62
0
6
ByLayer
370
-1
48
1.0
60
0
100
AcDbCircle
10
-0.150349368929884
20
-0.0800004561404251
30
-0.287756164034923
40
0.012
39
0.0
210
0.0
220
0.0000000000000002
230
-1.0
0
CIRCLE
5
98
330
2F
100
AcDbEntity
8
0
62
0
6
ByLayer
370
-1
48
1.0
60
0
100
AcDbCircle
10
0.070000467270603
20
0.162819465805427
30
-0.612852618341496
40
0.012
39
0.0
210
-1.0
220
0.0000000000000001
230
0.0
0
CIRCLE
5
99
330
2F
100
AcDbEntity
8
0
62
0
6
ByLayer
370
-1
48
1.0
60
0
100
AcDbCircle
10
0.0800004672726403
20
0.237819465805426
30
-0.612852618341496
40
0.012
39
0.0
210
-1.0
220
0.0000000000000001
230
0.0
0
CIRCLE
5
9A
330
2F
100
AcDbEntity
8
0
62
0
6
ByLayer
370
-1
48
1.0
60
0
100
AcDbCircle
10
0.070000467270603
20
0.162819465805427
30
-0.587852618341405
40
0.012
39
0.0
210
-1.0
220
0.0000000000000001
230
0.0
0
CIRCLE
5
9B
330
2F
100
AcDbEntity
8
0
62
0
6
ByLayer
370
-1
48
1.0
60
0
100
AcDbCircle
10
0.0800004672726403
20
0.237819465805426
30
-0.587852618341405
40
0.012
39
0.0
210
-1.0
220
0.0000000000000001
230
0.0
0
CIRCLE
5
9C
330
2F
100
AcDbEntity
8
0
62
0
6
ByLayer
370
-1
48
1.0
60
0
100
AcDbCircle
10
-0.0700004672706032
20
0.162819465805427
30
0.287846119517955
40
0.012
39
0.0
210
1.0
220
0.0000000000000003
230
0.0
0
CIRCLE
5
9D
330
2F
100
AcDbEntity
8
0
62
0
6
ByLayer
370
-1
48
1.0
60
0
100
AcDbCircle
10
-0.0800004672726405
20
0.237819465805426
30
0.287846119517955
40
0.012
39
0.0
210
1.0
220
0.0000000000000003
230
0.0
0
CIRCLE
5
9E
330
2F
100
AcDbEntity
8
0
62
0
6
ByLayer
370
-1
48
1.0
60
0
100
AcDbCircle
10
-0.0700004672706032
20
0.162819465805427
30
0.312846119518046
40
0.012
39
0.0
210
1.0
220
0.0000000000000003
230
0.0
0
CIRCLE
5
9F
330
2F
100
AcDbEntity
8
0
62
0
6
ByLayer
370
-1
48
1.0
60
0
100
AcDbCircle
10
-0.0800004672726405
20
0.237819465805426
30
0.312846119518046
40
0.012
39
0.0
210
1.0
220
0.0000000000000003
230
0.0
0
CIRCLE
5
A0
330
2F
100
AcDbEntity
8
0
62
0
6
ByLayer
370
-1
48
1.0
60
0
100
AcDbCircle
10
0.825349368929839
20
-0.0800004561404248
30
0.312756164034922
40
0.012
39
0.0
210
0.0
220
0.0
230
1.0
0
CIRCLE
5
A1
330
2F
100
AcDbEntity
8
0
62
0
6
ByLayer
370
-1
48
1.0
60
0
100
AcDbCircle
10
0.750349368929566
20
-0.0700004575353719
30
0.312756164034922
40
0.012
39
0.0
210
0.0
220
0.0
230
1.0
0
CIRCLE
5
A2
330
2F
100
AcDbEntity
8
0
62
0
6
ByLayer
370
-1
48
1.0
60
0
100
AcDbCircle
10
0.675349368929748
20
-0.0700004575353719
30
0.312756164034922
40
0.012
39
0.0
210
0.0
220
0.0
230
1.0
0
CIRCLE
5
A3
330
2F
100
AcDbEntity
8
0
62
0
6
ByLayer
370
-1
48
1.0
60
0
100
AcDbCircle
10
0.150349368929884
20
-0.0800004561404253
30
0.312756164034922
40
0.012
39
0.0
210
0.0
220
0.0
230
1.0
0
CIRCLE
5
A4
330
2F
100
AcDbEntity
8
0
62
0
6
ByLayer
370
-1
48
1.0
60
0
100
AcDbCircle
10
0.451442783733591
20
-0.0684484198791325
30
2.28670981767374
40
0.0075
39
0.1
210
0.0
220
0.0
230
1.0
0
CIRCLE
5
A5
330
2F
100
AcDbEntity
8
0
62
0
6
ByLayer
370
-1
48
1.0
60
0
100
AcDbCircle
10
0.0684484198791325
20
2.29410446050305
30
-0.544005795581162
40
0.0075
39
0.1
210
-1.0
220
0.0
230
-0.0000000000000002
0
CIRCLE
5
A6
330
2F
100
AcDbEntity
8
0
62
0
6
ByLayer
370
-1
48
1.0
60
0
100
AcDbCircle
10
-0.451442783733591
20
-0.0684484198791323
30
-0.413290182326257
40
0.0075
39
0.1
210
0.0
220
0.0000000000000001
230
-1.0
0
CIRCLE
5
A7
330
2F
100
AcDbEntity
8
0
62
0
6
ByLayer
370
-1
48
1.0
60
0
100
AcDbCircle
10
0.0684484198791323
20
0.405895539496946
30
-0.544005795581161
40
0.0075
39
0.1
210
-1.0
220
0.0
230
0.0000000000000002
0
CIRCLE
5
A8
330
2F
100
AcDbEntity
8
0
62
0
6
ByLayer
370
-1
48
1.0
60
0
100
AcDbCircle
10
0.825349368929839
20
-0.0800004561404253
30
2.11224383596508
40
0.012
39
0.0
210
0.0
220
0.0
230
1.0
0
CIRCLE
5
A9
330
2F
100
AcDbEntity
8
0
62
0
6
ByLayer
370
-1
48
1.0
60
0
100
AcDbCircle
10
0.750349368929566
20
-0.0700004575353723
30
2.11224383596508
40
0.012
39
0.0
210
0.0
220
0.0
230
1.0
0
CIRCLE
5
AA
330
2F
100
AcDbEntity
8
0
62
0
6
ByLayer
370
-1
48
1.0
60
0
100
AcDbCircle
10
0.675349368929748
20
-0.0700004575353723
30
2.11224383596508
40
0.012
39
0.0
210
0.0
220
0.0
230
1.0
0
CIRCLE
5
AB
330
2F
100
AcDbEntity
8
0
62
0
6
ByLayer
370
-1
48
1.0
60
0
100
AcDbCircle
10
0.150349368929884
20
-0.0800004561404256
30
2.11224383596508
40
0.012
39
0.0
210
0.0
220
0.0
230
1.0
0
CIRCLE
5
AC
330
2F
100
AcDbEntity
8
0
62
0
6
ByLayer
370
-1
48
1.0
60
0
100
AcDbCircle
10
-0.825349368929839
20
-0.0800004561404247
30
-2.08724383596508
40
0.012
39
0.0
210
0.0
220
0.0000000000000002
230
-1.0
0
CIRCLE
5
AD
330
2F
100
AcDbEntity
8
0
62
0
6
ByLayer
370
-1
48
1.0
60
0
100
AcDbCircle
10
-0.750349368929566
20
-0.0700004575353718
30
-2.08724383596508
40
0.012
39
0.0
210
0.0
220
0.0000000000000002
230
-1.0
0
CIRCLE
5
AE
330
2F
100
AcDbEntity
8
0
62
0
6
ByLayer
370
-1
48
1.0
60
0
100
AcDbCircle
10
-0.675349368929748
20
-0.0700004575353718
30
-2.08724383596508
40
0.012
39
0.0
210
0.0
220
0.0000000000000002
230
-1.0
0
CIRCLE
5
AF
330
2F
100
AcDbEntity
8
0
62
0
6
ByLayer
370
-1
48
1.0
60
0
100
AcDbCircle
10
-0.150349368929884
20
-0.0800004561404251
30
-2.08724383596508
40
0.012
39
0.0
210
0.0
220
0.0000000000000002
230
-1.0
0
CIRCLE
5
B0
330
2F
100
AcDbEntity
8
0
62
0
6
ByLayer
370
-1
48
1.0
60
0
100
AcDbCircle
10
0.825349368929839
20
-0.0800004561404252
30
1.81224383596508
40
0.012
39
0.0
210
0.0
220
0.0
230
1.0
0
CIRCLE
5
B1
330
2F
100
AcDbEntity
8
0
62
0
6
ByLayer
370
-1
48
1.0
60
0
100
AcDbCircle
10
0.750349368929566
20
-0.0700004575353722
30
1.81224383596508
40
0.012
39
0.0
210
0.0
220
0.0
230
1.0
0
CIRCLE
5
B2
330
2F
100
AcDbEntity
8
0
62
0
6
ByLayer
370
-1
48
1.0
60
0
100
AcDbCircle
10
0.675349368929748
20
-0.0700004575353722
30
1.81224383596508
40
0.012
39
0.0
210
0.0
220
0.0
230
1.0
0
CIRCLE
5
B3
330
2F
100
AcDbEntity
8
0
62
0
6
ByLayer
370
-1
48
1.0
60
0
100
AcDbCircle
10
0.150349368929884
20
-0.0800004561404255
30
1.81224383596508
40
0.012
39
0.0
210
0.0
220
0.0
230
1.0
0
CIRCLE
5
B4
330
2F
100
AcDbEntity
8
0
62
0
6
ByLayer
370
-1
48
1.0
60
0
100
AcDbCircle
10
-0.825349368929839
20
-0.0800004561404247
30
-1.78724383596508
40
0.012
39
0.0
210
0.0
220
0.0000000000000002
230
-1.0
0
CIRCLE
5
B5
330
2F
100
AcDbEntity
8
0
62
0
6
ByLayer
370
-1
48
1.0
60
0
100
AcDbCircle
10
-0.750349368929566
20
-0.0700004575353718
30
-1.78724383596508
40
0.012
39
0.0
210
0.0
220
0.0000000000000002
230
-1.0
0
CIRCLE
5
B6
330
2F
100
AcDbEntity
8
0
62
0
6
ByLayer
370
-1
48
1.0
60
0
100
AcDbCircle
10
-0.675349368929748
20
-0.0700004575353718
30
-1.78724383596508
40
0.012
39
0.0
210
0.0
220
0.0000000000000002
230
-1.0
0
CIRCLE
5
B7
330
2F
100
AcDbEntity
8
0
62
0
6
ByLayer
370
-1
48
1.0
60
0
100
AcDbCircle
10
-0.150349368929884
20
-0.0800004561404251
30
-1.78724383596508
40
0.012
39
0.0
210
0.0
220
0.0000000000000002
230
-1.0
0
CIRCLE
5
B8
330
2F
100
AcDbEntity
8
0
62
0
6
ByLayer
370
-1
48
1.0
60
0
100
AcDbCircle
10
0.825349368929839
20
-0.0800004561404252
30
1.51224383596507
40
0.012
39
0.0
210
0.0
220
0.0
230
1.0
0
CIRCLE
5
B9
330
2F
100
AcDbEntity
8
0
62
0
6
ByLayer
370
-1
48
1.0
60
0
100
AcDbCircle
10
-0.825349368929839
20
-0.0800004561404248
30
-1.48724383596508
40
0.012
39
0.0
210
0.0
220
0.0000000000000002
230
-1.0
0
CIRCLE
5
BA
330
2F
100
AcDbEntity
8
0
62
0
6
ByLayer
370
-1
48
1.0
60
0
100
AcDbCircle
10
-0.825349368929839
20
-0.080000456140425
30
-0.587756164034923
40
0.012
39
0.0
210
0.0
220
0.0000000000000001
230
-1.0
0
CIRCLE
5
BB
330
2F
100
AcDbEntity
8
0
62
0
6
ByLayer
370
-1
48
1.0
60
0
100
AcDbCircle
10
-0.750349368929566
20
-0.070000457535372
30
-0.587756164034923
40
0.012
39
0.0
210
0.0
220
0.0000000000000001
230
-1.0
0
CIRCLE
5
BC
330
2F
100
AcDbEntity
8
0
62
0
6
ByLayer
370
-1
48
1.0
60
0
100
AcDbCircle
10
-0.675349368929748
20
-0.070000457535372
30
-0.587756164034923
40
0.012
39
0.0
210
0.0
220
0.0000000000000001
230
-1.0
0
CIRCLE
5
BD
330
2F
100
AcDbEntity
8
0
62
0
6
ByLayer
370
-1
48
1.0
60
0
100
AcDbCircle
10
-0.150349368929884
20
-0.0800004561404253
30
-0.587756164034923
40
0.012
39
0.0
210
0.0
220
0.0000000000000001
230
-1.0
0
CIRCLE
5
BE
330
2F
100
AcDbEntity
8
0
62
0
6
ByLayer
370
-1
48
1.0
60
0
100
AcDbCircle
10
0.825349368929839
20
-0.0800004561404251
30
0.612756164034922
40
0.012
39
0.0
210
0.0
220
0.0
230
1.0
0
CIRCLE
5
BF
330
2F
100
AcDbEntity
8
0
62
0
6
ByLayer
370
-1
48
1.0
60
0
100
AcDbCircle
10
0.750349368929566
20
-0.0700004575353721
30
0.612756164034922
40
0.012
39
0.0
210
0.0
220
0.0
230
1.0
0
CIRCLE
5
C0
330
2F
100
AcDbEntity
8
0
62
0
6
ByLayer
370
-1
48
1.0
60
0
100
AcDbCircle
10
0.675349368929748
20
-0.0700004575353721
30
0.612756164034922
40
0.012
39
0.0
210
0.0
220
0.0
230
1.0
0
CIRCLE
5
C1
330
2F
100
AcDbEntity
8
0
62
0
6
ByLayer
370
-1
48
1.0
60
0
100
AcDbCircle
10
0.150349368929884
20
-0.0800004561404254
30
0.612756164034922
40
0.012
39
0.0
210
0.0
220
0.0
230
1.0
0
CIRCLE
5
C2
330
2F
100
AcDbEntity
8
0
62
0
6
ByLayer
370
-1
48
1.0
60
0
100
AcDbCircle
10
-0.825349368929839
20
-0.080000456140425
30
-0.887756164034923
40
0.012
39
0.0
210
0.0
220
0.0000000000000001
230
-1.0
0
CIRCLE
5
C3
330
2F
100
AcDbEntity
8
0
62
0
6
ByLayer
370
-1
48
1.0
60
0
100
AcDbCircle
10
-0.750349368929566
20
-0.070000457535372
30
-0.887756164034923
40
0.012
39
0.0
210
0.0
220
0.0000000000000001
230
-1.0
0
CIRCLE
5
C4
330
2F
100
AcDbEntity
8
0
62
0
6
ByLayer
370
-1
48
1.0
60
0
100
AcDbCircle
10
-0.675349368929748
20
-0.070000457535372
30
-0.887756164034923
40
0.012
39
0.0
210
0.0
220
0.0000000000000001
230
-1.0
0
CIRCLE
5
C5
330
2F
100
AcDbEntity
8
0
62
0
6
ByLayer
370
-1
48
1.0
60
0
100
AcDbCircle
10
-0.150349368929884
20
-0.0800004561404253
30
-0.887756164034923
40
0.012
39
0.0
210
0.0
220
0.0000000000000001
230
-1.0
0
CIRCLE
5
C6
330
2F
100
AcDbEntity
8
0
62
0
6
ByLayer
370
-1
48
1.0
60
0
100
AcDbCircle
10
0.825349368929839
20
-0.0800004561404251
30
0.912756164034922
40
0.012
39
0.0
210
0.0
220
0.0
230
1.0
0
CIRCLE
5
C7
330
2F
100
AcDbEntity
8
0
62
0
6
ByLayer
370
-1
48
1.0
60
0
100
AcDbCircle
10
0.750349368929566
20
-0.0700004575353721
30
0.912756164034922
40
0.012
39
0.0
210
0.0
220
0.0
230
1.0
0
CIRCLE
5
C8
330
2F
100
AcDbEntity
8
0
62
0
6
ByLayer
370
-1
48
1.0
60
0
100
AcDbCircle
10
0.675349368929748
20
-0.0700004575353721
30
0.912756164034922
40
0.012
39
0.0
210
0.0
220
0.0
230
1.0
0
CIRCLE
5
C9
330
2F
100
AcDbEntity
8
0
62
0
6
ByLayer
370
-1
48
1.0
60
0
100
AcDbCircle
10
0.150349368929884
20
-0.0800004561404254
30
0.912756164034922
40
0.012
39
0.0
210
0.0
220
0.0
230
1.0
0
CIRCLE
5
CA
330
2F
100
AcDbEntity
8
0
62
0
6
ByLayer
370
-1
48
1.0
60
0
100
AcDbCircle
10
-0.825349368929839
20
-0.080000456140425
30
-1.18775616403492
40
0.012
39
0.0
210
0.0
220
0.0000000000000001
230
-1.0
0
CIRCLE
5
CB
330
2F
100
AcDbEntity
8
0
62
0
6
ByLayer
370
-1
48
1.0
60
0
100
AcDbCircle
10
0.825349368929839
20
-0.0800004561404252
30
1.21275616403492
40
0.012
39
0.0
210
0.0
220
0.0
230
1.0
0
CIRCLE
5
CC
330
2F
100
AcDbEntity
8
0
62
0
6
ByLayer
370
-1
48
1.0
60
0
100
AcDbCircle
10
-0.825349368929839
20
-0.0800004561404248
30
-0.587756164034923
40
0.012
39
0.0
210
0.0
220
0.0000000000000002
230
-1.0
0
CIRCLE
5
CD
330
2F
100
AcDbEntity
8
0
62
0
6
ByLayer
370
-1
48
1.0
60
0
100
AcDbCircle
10
0.825349368929839
20
-0.080000456140425
30
0.612756164034922
40
0.012
39
0.0
210
0.0
220
0.0
230
1.0
0
POINT
5
CE
330
2F
100
AcDbEntity
8
0
62
0
6
ByLayer
370
-1
48
1.0
60
0
100
AcDbPoint
10
0.825349368929839
20
-0.0800004561404253
30
2.41224383596508
39
0.0
210
0.0
220
0.0
230
1.0
50
180.0
0
POINT
5
CF
330
2F
100
AcDbEntity
8
0
62
0
6
ByLayer
370
-1
48
1.0
60
0
100
AcDbPoint
10
0.750349368929566
20
-0.0700004575353723
30
2.41224383596508
39
0.0
210
0.0
220
0.0
230
1.0
50
180.0
0
POINT
5
D0
330
2F
100
AcDbEntity
8
0
62
0
6
ByLayer
370
-1
48
1.0
60
0
100
AcDbPoint
10
0.675349368929748
20
-0.0700004575353723
30
2.41224383596508
39
0.0
210
0.0
220
0.0
230
1.0
50
180.0
0
POINT
5
D1
330
2F
100
AcDbEntity
8
0
62
0
6
ByLayer
370
-1
48
1.0
60
0
100
AcDbPoint
10
0.587852618341405
20
-0.0700004672706036
30
2.53718053419457
39
0.0
210
0.0
220
0.0
230
1.0
50
180.0
0
POINT
5
D2
330
2F
100
AcDbEntity
8
0
62
0
6
ByLayer
370
-1
48
1.0
60
0
100
AcDbPoint
10
0.587852618341405
20
-0.0800004672726409
30
2.46218053419457
39
0.0
210
0.0
220
0.0
230
1.0
50
180.0
0
POINT
5
D3
330
2F
100
AcDbEntity
8
0
62
0
6
ByLayer
370
-1
48
1.0
60
0
100
AcDbPoint
10
0.287846119517955
20
-0.0700004672706036
30
2.53718053419457
39
0.0
210
0.0
220
0.0
230
1.0
50
180.0
0
POINT
5
D4
330
2F
100
AcDbEntity
8
0
62
0
6
ByLayer
370
-1
48
1.0
60
0
100
AcDbPoint
10
0.287846119517955
20
-0.0800004672726409
30
2.46218053419457
39
0.0
210
0.0
220
0.0
230
1.0
50
180.0
0
POINT
5
D5
330
2F
100
AcDbEntity
8
0
62
0
6
ByLayer
370
-1
48
1.0
60
0
100
AcDbPoint
10
0.150349368929884
20
-0.0800004561404256
30
2.41224383596508
39
0.0
210
0.0
220
0.0
230
1.0
50
180.0
0
POINT
5
D6
330
2F
100
AcDbEntity
8
0
62
0
6
ByLayer
370
-1
48
1.0
60
0
100
AcDbPoint
10
0.750349368929566
20
-0.0700004575353723
30
2.11224383596508
39
0.0
210
0.0
220
0.0
230
1.0
50
180.0
0
POINT
5
D7
330
2F
100
AcDbEntity
8
0
62
0
6
ByLayer
370
-1
48
1.0
60
0
100
AcDbPoint
10
0.675349368929748
20
-0.0700004575353723
30
2.11224383596508
39
0.0
210
0.0
220
0.0
230
1.0
50
180.0
0
POINT
5
D8
330
2F
100
AcDbEntity
8
0
62
0
6
ByLayer
370
-1
48
1.0
60
0
100
AcDbPoint
10
0.150349368929884
20
-0.0800004561404256
30
2.11224383596508
39
0.0
210
0.0
220
0.0
230
1.0
50
180.0
0
POINT
5
D9
330
2F
100
AcDbEntity
8
0
62
0
6
ByLayer
370
-1
48
1.0
60
0
100
AcDbPoint
10
0.825349368929839
20
-0.0800004561404252
30
1.81224383596508
39
0.0
210
0.0
220
0.0
230
1.0
50
180.0
0
POINT
5
DA
330
2F
100
AcDbEntity
8
0
62
0
6
ByLayer
370
-1
48
1.0
60
0
100
AcDbPoint
10
0.750349368929566
20
-0.0700004575353722
30
1.81224383596508
39
0.0
210
0.0
220
0.0
230
1.0
50
180.0
0
POINT
5
DB
330
2F
100
AcDbEntity
8
0
62
0
6
ByLayer
370
-1
48
1.0
60
0
100
AcDbPoint
10
0.675349368929748
20
-0.0700004575353722
30
1.81224383596508
39
0.0
210
0.0
220
0.0
230
1.0
50
180.0
0
POINT
5
DC
330
2F
100
AcDbEntity
8
0
62
0
6
ByLayer
370
-1
48
1.0
60
0
100
AcDbPoint
10
0.825349368929839
20
-0.0800004561404252
30
1.51224383596507
39
0.0
210
0.0
220
0.0
230
1.0
50
180.0
0
POINT
5
DD
330
2F
100
AcDbEntity
8
0
62
0
6
ByLayer
370
-1
48
1.0
60
0
100
AcDbPoint
10
0.150349368929884
20
-0.0800004561404255
30
1.81224383596508
39
0.0
210
0.0
220
0.0
230
1.0
50
180.0
0
POINT
5
DE
330
2F
100
AcDbEntity
8
0
62
0
6
ByLayer
370
-1
48
1.0
60
0
100
AcDbPoint
10
0.825349368929839
20
-0.0800004561404252
30
1.21275616403492
39
0.0
210
0.0
220
0.0
230
1.0
50
180.0
0
POINT
5
DF
330
2F
100
AcDbEntity
8
0
62
0
6
ByLayer
370
-1
48
1.0
60
0
100
AcDbPoint
10
0.825349368929839
20
-0.0800004561404251
30
0.912756164034922
39
0.0
210
0.0
220
0.0
230
1.0
50
180.0
0
POINT
5
E0
330
2F
100
AcDbEntity
8
0
62
0
6
ByLayer
370
-1
48
1.0
60
0
100
AcDbPoint
10
0.750349368929566
20
-0.0700004575353721
30
0.912756164034922
39
0.0
210
0.0
220
0.0
230
1.0
50
180.0
0
POINT
5
E1
330
2F
100
AcDbEntity
8
0
62
0
6
ByLayer
370
-1
48
1.0
60
0
100
AcDbPoint
10
0.675349368929748
20
-0.0700004575353721
30
0.912756164034922
39
0.0
210
0.0
220
0.0
230
1.0
50
180.0
0
POINT
5
E2
330
2F
100
AcDbEntity
8
0
62
0
6
ByLayer
370
-1
48
1.0
60
0
100
AcDbPoint
10
0.150349368929884
20
-0.0800004561404254
30
0.912756164034922
39
0.0
210
0.0
220
0.0
230
1.0
50
180.0
0
POINT
5
E3
330
2F
100
AcDbEntity
8
0
62
0
6
ByLayer
370
-1
48
1.0
60
0
100
AcDbPoint
10
0.825349368929839
20
-0.080000456140425
30
0.612756164034922
39
0.0
210
0.0
220
0.0
230
1.0
50
180.0
0
POINT
5
E4
330
2F
100
AcDbEntity
8
0
62
0
6
ByLayer
370
-1
48
1.0
60
0
100
AcDbPoint
10
0.750349368929566
20
-0.0700004575353721
30
0.612756164034922
39
0.0
210
0.0
220
0.0
230
1.0
50
180.0
0
POINT
5
E5
330
2F
100
AcDbEntity
8
0
62
0
6
ByLayer
370
-1
48
1.0
60
0
100
AcDbPoint
10
0.687349368929748
20
-0.0700004575353721
30
0.612756164034922
39
0.0
210
0.0
220
0.0
230
1.0
50
180.0
0
POINT
5
E6
330
2F
100
AcDbEntity
8
0
62
0
6
ByLayer
370
-1
48
1.0
60
0
100
AcDbPoint
10
0.150349368929884
20
-0.0800004561404254
30
0.612756164034922
39
0.0
210
0.0
220
0.0
230
1.0
50
180.0
0
POINT
5
E7
330
2F
100
AcDbEntity
8
0
62
0
6
ByLayer
370
-1
48
1.0
60
0
100
AcDbPoint
10
0.825349368929839
20
-0.0800004561404248
30
0.312756164034922
39
0.0
210
0.0
220
0.0
230
1.0
50
180.0
0
POINT
5
E8
330
2F
100
AcDbEntity
8
0
62
0
6
ByLayer
370
-1
48
1.0
60
0
100
AcDbPoint
10
0.750349368929566
20
-0.0700004575353719
30
0.312756164034922
39
0.0
210
0.0
220
0.0
230
1.0
50
180.0
0
POINT
5
E9
330
2F
100
AcDbEntity
8
0
62
0
6
ByLayer
370
-1
48
1.0
60
0
100
AcDbPoint
10
0.675349368929748
20
-0.0700004575353719
30
0.312756164034922
39
0.0
210
0.0
220
0.0
230
1.0
50
180.0
0
POINT
5
EA
330
2F
100
AcDbEntity
8
0
62
0
6
ByLayer
370
-1
48
1.0
60
0
100
AcDbPoint
10
0.150349368929884
20
-0.0800004561404253
30
0.312756164034922
39
0.0
210
0.0
220
0.0
230
1.0
50
180.0
0
POINT
5
EB
330
2F
100
AcDbEntity
8
0
62
0
6
ByLayer
370
-1
48
1.0
60
0
100
AcDbPoint
10
0.587852618341405
20
-0.0800004672726404
30
0.237819465805426
39
0.0
210
0.0
220
0.0
230
1.0
50
180.0
0
POINT
5
EC
330
2F
100
AcDbEntity
8
0
62
0
6
ByLayer
370
-1
48
1.0
60
0
100
AcDbPoint
10
0.587852618341405
20
-0.0700004672706031
30
0.162819465805427
39
0.0
210
0.0
220
0.0
230
1.0
50
180.0
0
POINT
5
ED
330
2F
100
AcDbEntity
8
0
62
0
6
ByLayer
370
-1
48
1.0
60
0
100
AcDbPoint
10
0.287846119517955
20
-0.0800004672726405
30
0.237819465805426
39
0.0
210
0.0
220
0.0
230
1.0
50
180.0
0
POINT
5
EE
330
2F
100
AcDbEntity
8
0
62
0
6
ByLayer
370
-1
48
1.0
60
0
100
AcDbPoint
10
0.287846119517955
20
-0.0700004672706032
30
0.162819465805427
39
0.0
210
0.0
220
0.0
230
1.0
50
180.0
0
POINT
5
EF
330
2F
100
AcDbEntity
8
0
62
0
6
ByLayer
370
-1
48
1.0
60
0
100
AcDbPoint
10
0.857781791696089
20
-0.0165000042834439
30
2.13082013927873
39
0.0
210
0.0000000000000003
220
1.0
230
0.0
50
360.0
0
POINT
5
F0
330
2F
100
AcDbEntity
8
0
62
0
6
ByLayer
370
-1
48
1.0
60
0
100
AcDbPoint
10
0.0429169461633617
20
-0.0165000042834436
30
2.13082013927873
39
0.0
210
0.0000000000000003
220
1.0
230
0.0
50
180.0
0
POINT
5
F1
330
2F
100
AcDbEntity
8
0
62
0
6
ByLayer
370
-1
48
1.0
60
0
100
AcDbPoint
10
0.857781791696089
20
-0.0165000042834438
30
0.569179860721272
39
0.0
210
0.0000000000000003
220
1.0
230
0.0
50
360.0
0
POINT
5
F2
330
2F
100
AcDbEntity
8
0
62
0
6
ByLayer
370
-1
48
1.0
60
0
100
AcDbPoint
10
0.0429169461633617
20
-0.0165000042834435
30
0.569179860721272
39
0.0
210
0.0000000000000003
220
1.0
230
0.0
50
180.0
0
ENDBLK
5
30
330
2F
100
AcDbEntity
8
0
100
AcDbBlockEnd
0
BLOCK
5
10A
330
108
100
AcDbEntity
8
0
100
AcDbBlockBegin
2
ATK_Panel27x30
70
0
10
0.0
20
0.0
30
0.0
3
ATK_Panel27x30
4

0
3DFACE
5
10B
330
108
100
AcDbEntity
8
0
62
4
6
ByLayer
370
-1
48
1.0
60
0
100
AcDbFace
10
0.035587
20
-0.0165
30
2.412244
11
0.035587
21
-0.12
31
2.412244
12
0.275349
22
-0.12
32
2.412244
13
0.275349
23
-0.0165
33
2.412244
70
0
0
3DFACE
5
10C
330
108
100
AcDbEntity
8
0
62
4
6
ByLayer
370
-1
48
1.0
60
0
100
AcDbFace
10
0.035587
20
-0.0165
30
2.387244
11
0.035587
21
-0.12
31
2.387244
12
0.275349
22
-0.12
32
2.387244
13
0.275349
23
-0.0165
33
2.387244
70
0
0
3DFACE
5
10D
330
108
100
AcDbEntity
8
0
62
4
6
ByLayer
370
-1
48
1.0
60
0
100
AcDbFace
10
0.275349
20
-0.12
30
2.412244
11
0.275349
21
-0.12
31
2.387244
12
0.275349
22
-0.0165
32
2.387244
13
0.275349
23
-0.0165
33
2.412244
70
0
0
3DFACE
5
10E
330
108
100
AcDbEntity
8
0
62
4
6
ByLayer
370
-1
48
1.0
60
0
100
AcDbFace
10
0.275349
20
-0.0165
30
2.387244
11
0.275349
21
-0.12
31
2.387244
12
0.035587
22
-0.12
32
2.387244
13
0.035587
23
-0.0165
33
2.387244
70
0
0
3DFACE
5
10F
330
108
100
AcDbEntity
8
0
62
4
6
ByLayer
370
-1
48
1.0
60
0
100
AcDbFace
10
0.275349
20
-0.0165
30
0.287756
11
0.275349
21
-0.12
31
0.287756
12
0.035587
22
-0.12
32
0.287756
13
0.035587
23
-0.0165
33
0.287756
70
0
0
3DFACE
5
110
330
108
100
AcDbEntity
8
0
62
4
6
ByLayer
370
-1
48
1.0
60
0
100
AcDbFace
10
0.275349
20
-0.0165
30
0.312756
11
0.275349
21
-0.12
31
0.312756
12
0.035587
22
-0.12
32
0.312756
13
0.035587
23
-0.0165
33
0.312756
70
0
0
3DFACE
5
111
330
108
100
AcDbEntity
8
0
62
4
6
ByLayer
370
-1
48
1.0
60
0
100
AcDbFace
10
0.275349
20
-0.0165
30
0.287756
11
0.275349
21
-0.0165
31
0.312756
12
0.275349
22
-0.12
32
0.312756
13
0.275349
23
-0.12
33
0.287756
70
0
0
3DFACE
5
112
330
108
100
AcDbEntity
8
0
62
4
6
ByLayer
370
-1
48
1.0
60
0
100
AcDbFace
10
0.035587
20
-0.0165
30
0.312756
11
0.035587
21
-0.12
31
0.312756
12
0.275349
22
-0.12
32
0.312756
13
0.275349
23
-0.0165
33
0.312756
70
0
0
3DFACE
5
113
330
108
100
AcDbEntity
8
0
62
4
6
ByLayer
370
-1
48
1.0
60
0
100
AcDbFace
10
0.035587
20
-0.0165
30
2.112244
11
0.035587
21
-0.12
31
2.112244
12
0.275349
22
-0.12
32
2.112244
13
0.275349
23
-0.0165
33
2.112244
70
0
0
3DFACE
5
114
330
108
100
AcDbEntity
8
0
62
4
6
ByLayer
370
-1
48
1.0
60
0
100
AcDbFace
10
0.035587
20
-0.0165
30
2.087244
11
0.035587
21
-0.12
31
2.087244
12
0.275349
22
-0.12
32
2.087244
13
0.275349
23
-0.0165
33
2.087244
70
0
0
3DFACE
5
115
330
108
100
AcDbEntity
8
0
62
4
6
ByLayer
370
-1
48
1.0
60
0
100
AcDbFace
10
0.275349
20
-0.12
30
2.112244
11
0.275349
21
-0.12
31
2.087244
12
0.275349
22
-0.0165
32
2.087244
13
0.275349
23
-0.0165
33
2.112244
70
0
0
3DFACE
5
116
330
108
100
AcDbEntity
8
0
62
4
6
ByLayer
370
-1
48
1.0
60
0
100
AcDbFace
10
0.275349
20
-0.0165
30
2.087244
11
0.275349
21
-0.12
31
2.087244
12
0.035587
22
-0.12
32
2.087244
13
0.035587
23
-0.0165
33
2.087244
70
0
0
3DFACE
5
117
330
108
100
AcDbEntity
8
0
62
4
6
ByLayer
370
-1
48
1.0
60
0
100
AcDbFace
10
0.035587
20
-0.0165
30
1.812244
11
0.035587
21
-0.12
31
1.812244
12
0.275349
22
-0.12
32
1.812244
13
0.275349
23
-0.0165
33
1.812244
70
0
0
3DFACE
5
118
330
108
100
AcDbEntity
8
0
62
4
6
ByLayer
370
-1
48
1.0
60
0
100
AcDbFace
10
0.035587
20
-0.0165
30
1.787244
11
0.035587
21
-0.12
31
1.787244
12
0.275349
22
-0.12
32
1.787244
13
0.275349
23
-0.0165
33
1.787244
70
0
0
3DFACE
5
119
330
108
100
AcDbEntity
8
0
62
4
6
ByLayer
370
-1
48
1.0
60
0
100
AcDbFace
10
0.275349
20
-0.12
30
1.812244
11
0.275349
21
-0.12
31
1.787244
12
0.275349
22
-0.0165
32
1.787244
13
0.275349
23
-0.0165
33
1.812244
70
0
0
3DFACE
5
11A
330
108
100
AcDbEntity
8
0
62
4
6
ByLayer
370
-1
48
1.0
60
0
100
AcDbFace
10
0.275349
20
-0.0165
30
1.787244
11
0.275349
21
-0.12
31
1.787244
12
0.035587
22
-0.12
32
1.787244
13
0.035587
23
-0.0165
33
1.787244
70
0
0
3DFACE
5
11B
330
108
100
AcDbEntity
8
0
62
4
6
ByLayer
370
-1
48
1.0
60
0
100
AcDbFace
10
0.035587
20
-0.0165
30
1.512244
11
0.035587
21
-0.12
31
1.512244
12
0.275349
22
-0.12
32
1.512244
13
0.275349
23
-0.0165
33
1.512244
70
0
0
3DFACE
5
11C
330
108
100
AcDbEntity
8
0
62
4
6
ByLayer
370
-1
48
1.0
60
0
100
AcDbFace
10
0.035587
20
-0.0165
30
1.487244
11
0.035587
21
-0.12
31
1.487244
12
0.275349
22
-0.12
32
1.487244
13
0.275349
23
-0.0165
33
1.487244
70
0
0
3DFACE
5
11D
330
108
100
AcDbEntity
8
0
62
4
6
ByLayer
370
-1
48
1.0
60
0
100
AcDbFace
10
0.275349
20
-0.12
30
1.512244
11
0.275349
21
-0.12
31
1.487244
12
0.275349
22
-0.0165
32
1.487244
13
0.275349
23
-0.0165
33
1.512244
70
0
0
3DFACE
5
11E
330
108
100
AcDbEntity
8
0
62
4
6
ByLayer
370
-1
48
1.0
60
0
100
AcDbFace
10
0.275349
20
-0.0165
30
1.487244
11
0.275349
21
-0.12
31
1.487244
12
0.035587
22
-0.12
32
1.487244
13
0.035587
23
-0.0165
33
1.487244
70
0
0
3DFACE
5
11F
330
108
100
AcDbEntity
8
0
62
4
6
ByLayer
370
-1
48
1.0
60
0
100
AcDbFace
10
0.275349
20
-0.0165
30
0.587756
11
0.275349
21
-0.12
31
0.587756
12
0.035587
22
-0.12
32
0.587756
13
0.035587
23
-0.0165
33
0.587756
70
0
0
3DFACE
5
120
330
108
100
AcDbEntity
8
0
62
4
6
ByLayer
370
-1
48
1.0
60
0
100
AcDbFace
10
0.275349
20
-0.0165
30
0.612756
11
0.275349
21
-0.12
31
0.612756
12
0.035587
22
-0.12
32
0.612756
13
0.035587
23
-0.0165
33
0.612756
70
0
0
3DFACE
5
121
330
108
100
AcDbEntity
8
0
62
4
6
ByLayer
370
-1
48
1.0
60
0
100
AcDbFace
10
0.275349
20
-0.0165
30
0.587756
11
0.275349
21
-0.0165
31
0.612756
12
0.275349
22
-0.12
32
0.612756
13
0.275349
23
-0.12
33
0.587756
70
0
0
3DFACE
5
122
330
108
100
AcDbEntity
8
0
62
4
6
ByLayer
370
-1
48
1.0
60
0
100
AcDbFace
10
0.035587
20
-0.0165
30
0.612756
11
0.035587
21
-0.12
31
0.612756
12
0.275349
22
-0.12
32
0.612756
13
0.275349
23
-0.0165
33
0.612756
70
0
0
3DFACE
5
123
330
108
100
AcDbEntity
8
0
62
4
6
ByLayer
370
-1
48
1.0
60
0
100
AcDbFace
10
0.275349
20
-0.0165
30
0.887756
11
0.275349
21
-0.12
31
0.887756
12
0.035587
22
-0.12
32
0.887756
13
0.035587
23
-0.0165
33
0.887756
70
0
0
3DFACE
5
124
330
108
100
AcDbEntity
8
0
62
4
6
ByLayer
370
-1
48
1.0
60
0
100
AcDbFace
10
0.275349
20
-0.0165
30
0.912756
11
0.275349
21
-0.12
31
0.912756
12
0.035587
22
-0.12
32
0.912756
13
0.035587
23
-0.0165
33
0.912756
70
0
0
3DFACE
5
125
330
108
100
AcDbEntity
8
0
62
4
6
ByLayer
370
-1
48
1.0
60
0
100
AcDbFace
10
0.275349
20
-0.0165
30
0.887756
11
0.275349
21
-0.0165
31
0.912756
12
0.275349
22
-0.12
32
0.912756
13
0.275349
23
-0.12
33
0.887756
70
0
0
3DFACE
5
126
330
108
100
AcDbEntity
8
0
62
4
6
ByLayer
370
-1
48
1.0
60
0
100
AcDbFace
10
0.035587
20
-0.0165
30
0.912756
11
0.035587
21
-0.12
31
0.912756
12
0.275349
22
-0.12
32
0.912756
13
0.275349
23
-0.0165
33
0.912756
70
0
0
3DFACE
5
127
330
108
100
AcDbEntity
8
0
62
4
6
ByLayer
370
-1
48
1.0
60
0
100
AcDbFace
10
0.275349
20
-0.0165
30
1.187756
11
0.275349
21
-0.12
31
1.187756
12
0.035587
22
-0.12
32
1.187756
13
0.035587
23
-0.0165
33
1.187756
70
0
0
3DFACE
5
128
330
108
100
AcDbEntity
8
0
62
4
6
ByLayer
370
-1
48
1.0
60
0
100
AcDbFace
10
0.275349
20
-0.0165
30
1.212756
11
0.275349
21
-0.12
31
1.212756
12
0.035587
22
-0.12
32
1.212756
13
0.035587
23
-0.0165
33
1.212756
70
0
0
3DFACE
5
129
330
108
100
AcDbEntity
8
0
62
4
6
ByLayer
370
-1
48
1.0
60
0
100
AcDbFace
10
0.275349
20
-0.0165
30
1.187756
11
0.275349
21
-0.0165
31
1.212756
12
0.275349
22
-0.12
32
1.212756
13
0.275349
23
-0.12
33
1.187756
70
0
0
3DFACE
5
12A
330
108
100
AcDbEntity
8
0
62
4
6
ByLayer
370
-1
48
1.0
60
0
100
AcDbFace
10
0.035587
20
-0.0165
30
1.212756
11
0.035587
21
-0.12
31
1.212756
12
0.275349
22
-0.12
32
1.212756
13
0.275349
23
-0.0165
33
1.212756
70
0
0
3DFACE
5
12B
330
108
100
AcDbEntity
8
0
62
4
6
ByLayer
370
-1
48
1.0
60
0
100
AcDbFace
10
0.197332
20
-0.12
30
2.112232
11
0.197332
21
-0.0165
31
2.112232
12
0.274891
22
-0.0165
32
2.195356
13
0.274891
23
-0.12
33
2.195356
70
0
0
3DFACE
5
12C
330
108
100
AcDbEntity
8
0
62
4
6
ByLayer
370
-1
48
1.0
60
0
100
AcDbFace
10
0.274891
20
-0.0165
30
2.186561
11
0.205538
21
-0.0165
31
2.112232
12
0.205538
22
-0.12
32
2.112232
13
0.274891
23
-0.12
33
2.186561
70
0
0
3DFACE
5
12D
330
108
100
AcDbEntity
8
0
62
4
6
ByLayer
370
-1
48
1.0
60
0
100
AcDbFace
10
0.274891
20
-0.12
30
2.186561
11
0.205538
21
-0.12
31
2.112232
12
0.197332
22
-0.12
32
2.112232
13
0.274891
23
-0.12
33
2.195356
70
0
0
3DFACE
5
12E
330
108
100
AcDbEntity
8
0
62
4
6
ByLayer
370
-1
48
1.0
60
0
100
AcDbFace
10
0.274891
20
-0.0165
30
2.186561
11
0.205538
21
-0.0165
31
2.112232
12
0.197332
22
-0.0165
32
2.112232
13
0.274891
23
-0.0165
33
2.195356
70
0
0
3DFACE
5
12F
330
108
100
AcDbEntity
8
0
62
4
6
ByLayer
370
-1
48
1.0
60
0
100
AcDbFace
10
0.274891
20
-0.0165
30
2.186561
11
0.274891
21
-0.12
31
2.186561
12
0.274891
22
-0.12
32
2.195356
13
0.274891
23
-0.0165
33
2.195356
70
0
0
3DFACE
5
130
330
108
100
AcDbEntity
8
0
62
4
6
ByLayer
370
-1
48
1.0
60
0
100
AcDbFace
10
0.274891
20
-0.0165
30
2.186561
11
0.274891
21
-0.12
31
2.186561
12
0.205538
22
-0.12
32
2.112232
13
0.205538
23
-0.0165
33
2.112232
70
0
0
3DFACE
5
131
330
108
100
AcDbEntity
8
0
62
4
6
ByLayer
370
-1
48
1.0
60
0
100
AcDbFace
10
0.275349
20
-0.0165
30
0.587756
11
0.275349
21
-0.0165
31
0.612756
12
0.275349
22
-0.12
32
0.612756
13
0.275349
23
-0.12
33
0.587756
70
0
0
3DFACE
5
132
330
108
100
AcDbEntity
8
0
62
4
6
ByLayer
370
-1
48
1.0
60
0
100
AcDbFace
10
0.274891
20
-0.12
30
0.504644
11
0.274891
21
-0.0165
31
0.504644
12
0.197332
22
-0.0165
32
0.587768
13
0.197332
23
-0.12
33
0.587768
70
0
0
3DFACE
5
133
330
108
100
AcDbEntity
8
0
62
4
6
ByLayer
370
-1
48
1.0
60
0
100
AcDbFace
10
0.274891
20
-0.12
30
0.513439
11
0.205538
21
-0.12
31
0.587768
12
0.205538
22
-0.0165
32
0.587768
13
0.274891
23
-0.0165
33
0.513439
70
0
0
3DFACE
5
134
330
108
100
AcDbEntity
8
0
62
4
6
ByLayer
370
-1
48
1.0
60
0
100
AcDbFace
10
0.274891
20
-0.12
30
0.504644
11
0.197332
21
-0.12
31
0.587768
12
0.205538
22
-0.12
32
0.587768
13
0.274891
23
-0.12
33
0.513439
70
0
0
3DFACE
5
135
330
108
100
AcDbEntity
8
0
62
4
6
ByLayer
370
-1
48
1.0
60
0
100
AcDbFace
10
0.274891
20
-0.0165
30
0.504644
11
0.197332
21
-0.0165
31
0.587768
12
0.205538
22
-0.0165
32
0.587768
13
0.274891
23
-0.0165
33
0.513439
70
0
0
3DFACE
5
136
330
108
100
AcDbEntity
8
0
62
4
6
ByLayer
370
-1
48
1.0
60
0
100
AcDbFace
10
0.274891
20
-0.0165
30
0.504644
11
0.274891
21
-0.12
31
0.504644
12
0.274891
22
-0.12
32
0.513439
13
0.274891
23
-0.0165
33
0.513439
70
0
0
3DFACE
5
137
330
108
100
AcDbEntity
8
0
62
4
6
ByLayer
370
-1
48
1.0
60
0
100
AcDbFace
10
0.205538
20
-0.0165
30
0.587768
11
0.205538
21
-0.12
31
0.587768
12
0.274891
22
-0.12
32
0.513439
13
0.274891
23
-0.0165
33
0.513439
70
0
0
3DFACE
5
138
330
108
100
AcDbEntity
8
0
62
4
6
ByLayer
370
-1
48
1.0
60
0
100
AcDbFace
10
0.024651
20
-0.12
30
2.412244
11
0.024651
21
-0.12
31
2.387244
12
0.024651
22
-0.0165
32
2.387244
13
0.024651
23
-0.0165
33
2.412244
70
0
0
3DFACE
5
139
330
108
100
AcDbEntity
8
0
62
4
6
ByLayer
370
-1
48
1.0
60
0
100
AcDbFace
10
0.024651
20
-0.0165
30
0.287756
11
0.024651
21
-0.0165
31
0.312756
12
0.024651
22
-0.12
32
0.312756
13
0.024651
23
-0.12
33
0.287756
70
0
0
3DFACE
5
13A
330
108
100
AcDbEntity
8
0
62
4
6
ByLayer
370
-1
48
1.0
60
0
100
AcDbFace
10
0.024651
20
-0.12
30
2.112244
11
0.024651
21
-0.12
31
2.087244
12
0.024651
22
-0.0165
32
2.087244
13
0.024651
23
-0.0165
33
2.112244
70
0
0
3DFACE
5
13B
330
108
100
AcDbEntity
8
0
62
4
6
ByLayer
370
-1
48
1.0
60
0
100
AcDbFace
10
0.024651
20
-0.12
30
1.812244
11
0.024651
21
-0.12
31
1.787244
12
0.024651
22
-0.0165
32
1.787244
13
0.024651
23
-0.0165
33
1.812244
70
0
0
3DFACE
5
13C
330
108
100
AcDbEntity
8
0
62
4
6
ByLayer
370
-1
48
1.0
60
0
100
AcDbFace
10
0.024651
20
-0.12
30
1.512244
11
0.024651
21
-0.12
31
1.487244
12
0.024651
22
-0.0165
32
1.487244
13
0.024651
23
-0.0165
33
1.512244
70
0
0
3DFACE
5
13D
330
108
100
AcDbEntity
8
0
62
4
6
ByLayer
370
-1
48
1.0
60
0
100
AcDbFace
10
0.024651
20
-0.0165
30
0.587756
11
0.024651
21
-0.0165
31
0.612756
12
0.024651
22
-0.12
32
0.612756
13
0.024651
23
-0.12
33
0.587756
70
0
0
3DFACE
5
13E
330
108
100
AcDbEntity
8
0
62
4
6
ByLayer
370
-1
48
1.0
60
0
100
AcDbFace
10
0.024651
20
-0.0165
30
0.887756
11
0.024651
21
-0.0165
31
0.912756
12
0.024651
22
-0.12
32
0.912756
13
0.024651
23
-0.12
33
0.887756
70
0
0
3DFACE
5
13F
330
108
100
AcDbEntity
8
0
62
4
6
ByLayer
370
-1
48
1.0
60
0
100
AcDbFace
10
0.024651
20
-0.0165
30
1.187756
11
0.024651
21
-0.0165
31
1.212756
12
0.024651
22
-0.12
32
1.212756
13
0.024651
23
-0.12
33
1.187756
70
0
0
3DFACE
5
140
330
108
100
AcDbEntity
8
0
62
4
6
ByLayer
370
-1
48
1.0
60
0
100
AcDbFace
10
0.102668
20
-0.12
30
2.112232
11
0.102668
21
-0.0165
31
2.112232
12
0.025109
22
-0.0165
32
2.195356
13
0.025109
23
-0.12
33
2.195356
70
0
0
3DFACE
5
141
330
108
100
AcDbEntity
8
0
62
4
6
ByLayer
370
-1
48
1.0
60
0
100
AcDbFace
10
0.025109
20
-0.0165
30
2.186561
11
0.094462
21
-0.0165
31
2.112232
12
0.094462
22
-0.12
32
2.112232
13
0.025109
23
-0.12
33
2.186561
70
0
0
3DFACE
5
142
330
108
100
AcDbEntity
8
0
62
4
6
ByLayer
370
-1
48
1.0
60
0
100
AcDbFace
10
0.025109
20
-0.12
30
2.186561
11
0.094462
21
-0.12
31
2.112232
12
0.102668
22
-0.12
32
2.112232
13
0.025109
23
-0.12
33
2.195356
70
0
0
3DFACE
5
143
330
108
100
AcDbEntity
8
0
62
4
6
ByLayer
370
-1
48
1.0
60
0
100
AcDbFace
10
0.025109
20
-0.0165
30
2.186561
11
0.094462
21
-0.0165
31
2.112232
12
0.102668
22
-0.0165
32
2.112232
13
0.025109
23
-0.0165
33
2.195356
70
0
0
3DFACE
5
144
330
108
100
AcDbEntity
8
0
62
4
6
ByLayer
370
-1
48
1.0
60
0
100
AcDbFace
10
0.025109
20
-0.0165
30
2.186561
11
0.025109
21
-0.12
31
2.186561
12
0.025109
22
-0.12
32
2.195356
13
0.025109
23
-0.0165
33
2.195356
70
0
0
3DFACE
5
145
330
108
100
AcDbEntity
8
0
62
4
6
ByLayer
370
-1
48
1.0
60
0
100
AcDbFace
10
0.025109
20
-0.0165
30
2.186561
11
0.025109
21
-0.12
31
2.186561
12
0.094462
22
-0.12
32
2.112232
13
0.094462
23
-0.0165
33
2.112232
70
0
0
3DFACE
5
146
330
108
100
AcDbEntity
8
0
62
4
6
ByLayer
370
-1
48
1.0
60
0
100
AcDbFace
10
0.024651
20
-0.0165
30
0.587756
11
0.024651
21
-0.0165
31
0.612756
12
0.024651
22
-0.12
32
0.612756
13
0.024651
23
-0.12
33
0.587756
70
0
0
3DFACE
5
147
330
108
100
AcDbEntity
8
0
62
4
6
ByLayer
370
-1
48
1.0
60
0
100
AcDbFace
10
0.025109
20
-0.12
30
0.504644
11
0.025109
21
-0.0165
31
0.504644
12
0.102668
22
-0.0165
32
0.587768
13
0.102668
23
-0.12
33
0.587768
70
0
0
3DFACE
5
148
330
108
100
AcDbEntity
8
0
62
4
6
ByLayer
370
-1
48
1.0
60
0
100
AcDbFace
10
0.025109
20
-0.12
30
0.513439
11
0.094462
21
-0.12
31
0.587768
12
0.094462
22
-0.0165
32
0.587768
13
0.025109
23
-0.0165
33
0.513439
70
0
0
3DFACE
5
149
330
108
100
AcDbEntity
8
0
62
4
6
ByLayer
370
-1
48
1.0
60
0
100
AcDbFace
10
0.025109
20
-0.12
30
0.504644
11
0.102668
21
-0.12
31
0.587768
12
0.094462
22
-0.12
32
0.587768
13
0.025109
23
-0.12
33
0.513439
70
0
0
3DFACE
5
14A
330
108
100
AcDbEntity
8
0
62
4
6
ByLayer
370
-1
48
1.0
60
0
100
AcDbFace
10
0.025109
20
-0.0165
30
0.504644
11
0.102668
21
-0.0165
31
0.587768
12
0.094462
22
-0.0165
32
0.587768
13
0.025109
23
-0.0165
33
0.513439
70
0
0
3DFACE
5
14B
330
108
100
AcDbEntity
8
0
62
4
6
ByLayer
370
-1
48
1.0
60
0
100
AcDbFace
10
0.025109
20
-0.0165
30
0.504644
11
0.025109
21
-0.12
31
0.504644
12
0.025109
22
-0.12
32
0.513439
13
0.025109
23
-0.0165
33
0.513439
70
0
0
3DFACE
5
14C
330
108
100
AcDbEntity
8
0
62
4
6
ByLayer
370
-1
48
1.0
60
0
100
AcDbFace
10
0.094462
20
-0.0165
30
0.587768
11
0.094462
21
-0.12
31
0.587768
12
0.025109
22
-0.12
32
0.513439
13
0.025109
23
-0.0165
33
0.513439
70
0
0
3DFACE
5
14D
330
108
100
AcDbEntity
8
0
62
4
6
ByLayer
370
-1
48
1.0
60
0
100
AcDbFace
10
-0.0000000000000001
20
0.0000000000000001
30
0.0
11
0.3
21
0.0
31
0.0
12
0.3
22
-0.0000000000000002
32
2.7
13
-0.0000000000000001
23
-0.0000000000000001
33
2.7
70
0
0
LWPOLYLINE
5
14E
330
108
100
AcDbEntity
8
0
62
4
6
ByLayer
370
-1
48
1.0
60
0
100
AcDbPolyline
90
13
70
1
38
-0.3
39
0.3
10
0.12
20
2.7
40
0.0
41
0.0
42
0.0
10
0.12
20
2.675
40
0.0
41
0.0
42
0.0
10
0.09
20
2.675
40
0.0
41
0.0
42
0.0
10
0.0825
20
2.683989
40
0.0
41
0.0
42
0.0
10
0.080501
20
2.695857
40
0.0
41
0.0
42
0.0
10
0.0385
20
2.695879
40
0.0
41
0.0
42
0.0
10
0.0365
20
2.679
40
0.0
41
0.0
42
0.0
10
0.0325
20
2.675
40
0.0
41
0.0
42
0.0
10
0.0205
20
2.675
40
0.0
41
0.0
42
0.0
10
0.0165
20
2.679
40
0.0
41
0.0
42
0.0
10
0.015046
20
2.694078
40
0.0
41
0.0
42
0.0
10
0.0
20
2.691964
40
0.0
41
0.0
42
0.0
10
0.0
20
2.7
40
0.0
41
0.0
42
0.0
210
-1.0
220
0.0000000000000001
230
-0.0000000000000002
0
LWPOLYLINE
5
14F
330
108
100
AcDbEntity
8
0
62
4
6
ByLayer
370
-1
48
1.0
60
0
100
AcDbPolyline
90
13
70
1
38
0.0
39
2.7
10
0.3
20
-0.12
40
0.0
41
0.0
42
0.0
10
0.275
20
-0.12
40
0.0
41
0.0
42
0.0
10
0.275
20
-0.09
40
0.0
41
0.0
42
0.0
10
0.283989
20
-0.0825
40
0.0
41
0.0
42
0.0
10
0.295857
20
-0.080501
40
0.0
41
0.0
42
0.0
10
0.295879
20
-0.0385
40
0.0
41
0.0
42
0.0
10
0.279
20
-0.0365
40
0.0
41
0.0
42
0.0
10
0.275
20
-0.0325
40
0.0
41
0.0
42
0.0
10
0.275
20
-0.0205
40
0.0
41
0.0
42
0.0
10
0.279
20
-0.0165
40
0.0
41
0.0
42
0.0
10
0.294078
20
-0.015046
40
0.0
41
0.0
42
0.0
10
0.291964
20
0.0
40
0.0
41
0.0
42
0.0
10
0.3
20
0.0
40
0.0
41
0.0
42
0.0
210
0.0
220
0.0
230
1.0
0
LWPOLYLINE
5
150
330
108
100
AcDbEntity
8
0
62
4
6
ByLayer
370
-1
48
1.0
60
0
100
AcDbPolyline
90
13
70
1
38
-0.3
39
0.3
10
0.12
20
0.0000000000000001
40
0.0
41
0.0
42
0.0
10
0.12
20
0.0250000000000001
40
0.0
41
0.0
42
0.0
10
0.09
20
0.0250000000000001
40
0.0
41
0.0
42
0.0
10
0.0825
20
0.0160110000000001
40
0.0
41
0.0
42
0.0
10
0.080501
20
0.0041430000000001
40
0.0
41
0.0
42
0.0
10
0.0385
20
0.0041210000000001
40
0.0
41
0.0
42
0.0
10
0.0365
20
0.0210000000000001
40
0.0
41
0.0
42
0.0
10
0.0325
20
0.0250000000000001
40
0.0
41
0.0
42
0.0
10
0.0205
20
0.0250000000000001
40
0.0
41
0.0
42
0.0
10
0.0165
20
0.0210000000000001
40
0.0
41
0.0
42
0.0
10
0.015046
20
0.0059220000000001
40
0.0
41
0.0
42
0.0
10
0.0
20
0.0080360000000001
40
0.0
41
0.0
42
0.0
10
0.0
20
0.0000000000000001
40
0.0
41
0.0
42
0.0
210
-1.0
220
0.0000000000000001
230
0.0000000000000002
0
LWPOLYLINE
5
151
330
108
100
AcDbEntity
8
0
62
4
6
ByLayer
370
-1
48
1.0
60
0
100
AcDbPolyline
90
13
70
1
38
-0.3
39
0.3
10
0.12
20
0.0000000000000001
40
0.0
41
0.0
42
0.0
10
0.12
20
0.0250000000000001
40
0.0
41
0.0
42
0.0
10
0.09
20
0.0250000000000001
40
0.0
41
0.0
42
0.0
10
0.0825
20
0.0160110000000001
40
0.0
41
0.0
42
0.0
10
0.080501
20
0.0041430000000001
40
0.0
41
0.0
42
0.0
10
0.0385
20
0.0041210000000001
40
0.0
41
0.0
42
0.0
10
0.0365
20
0.0210000000000001
40
0.0
41
0.0
42
0.0
10
0.0325
20
0.0250000000000001
40
0.0
41
0.0
42
0.0
10
0.0205
20
0.0250000000000001
40
0.0
41
0.0
42
0.0
10
0.0165
20
0.0210000000000001
40
0.0
41
0.0
42
0.0
10
0.015046
20
0.0059220000000001
40
0.0
41
0.0
42
0.0
10
0.0
20
0.0080360000000001
40
0.0
41
0.0
42
0.0
10
0.0
20
0.0000000000000001
40
0.0
41
0.0
42
0.0
210
-1.0
220
0.0000000000000001
230
0.0000000000000002
0
LWPOLYLINE
5
152
330
108
100
AcDbEntity
8
0
62
4
6
ByLayer
370
-1
48
1.0
60
0
100
AcDbPolyline
90
13
70
1
38
0.0
39
2.7
10
0.0
20
-0.12
40
0.0
41
0.0
42
0.0
10
0.025
20
-0.12
40
0.0
41
0.0
42
0.0
10
0.025
20
-0.09
40
0.0
41
0.0
42
0.0
10
0.016011
20
-0.0825
40
0.0
41
0.0
42
0.0
10
0.004143
20
-0.080501
40
0.0
41
0.0
42
0.0
10
0.004121
20
-0.0385
40
0.0
41
0.0
42
0.0
10
0.021
20
-0.0365
40
0.0
41
0.0
42
0.0
10
0.025
20
-0.0325
40
0.0
41
0.0
42
0.0
10
0.025
20
-0.0205
40
0.0
41
0.0
42
0.0
10
0.021
20
-0.0165
40
0.0
41
0.0
42
0.0
10
0.005922
20
-0.015046
40
0.0
41
0.0
42
0.0
10
0.008036
20
0.0
40
0.0
41
0.0
42
0.0
10
0.0
20
0.0
40
0.0
41
0.0
42
0.0
210
0.0
220
0.0
230
1.0
0
CIRCLE
5
153
330
108
100
AcDbEntity
8
0
62
4
6
ByLayer
370
-1
48
1.0
60
0
100
AcDbCircle
10
0.225349
20
-0.08
30
2.412244
40
0.012
39
0.0
210
0.0
220
0.0
230
1.0
0
CIRCLE
5
154
330
108
100
AcDbEntity
8
0
62
4
6
ByLayer
370
-1
48
1.0
60
0
100
AcDbCircle
10
-0.225349
20
-0.08
30
-2.387244
40
0.012
39
0.0
210
0.0
220
0.0000000000000002
230
-1.0
0
CIRCLE
5
155
330
108
100
AcDbEntity
8
0
62
4
6
ByLayer
370
-1
48
1.0
60
0
100
AcDbCircle
10
-0.225349
20
-0.08
30
-0.287756
40
0.012
39
0.0
210
0.0
220
0.0000000000000002
230
-1.0
0
CIRCLE
5
156
330
108
100
AcDbEntity
8
0
62
4
6
ByLayer
370
-1
48
1.0
60
0
100
AcDbCircle
10
0.225349
20
-0.08
30
0.312756
40
0.012
39
0.0
210
0.0
220
0.0
230
1.0
0
CIRCLE
5
157
330
108
100
AcDbEntity
8
0
62
4
6
ByLayer
370
-1
48
1.0
60
0
100
AcDbCircle
10
0.225349
20
-0.08
30
2.112244
40
0.012
39
0.0
210
0.0
220
0.0
230
1.0
0
CIRCLE
5
158
330
108
100
AcDbEntity
8
0
62
4
6
ByLayer
370
-1
48
1.0
60
0
100
AcDbCircle
10
-0.225349
20
-0.08
30
-2.087244
40
0.012
39
0.0
210
0.0
220
0.0000000000000002
230
-1.0
0
CIRCLE
5
159
330
108
100
AcDbEntity
8
0
62
4
6
ByLayer
370
-1
48
1.0
60
0
100
AcDbCircle
10
0.225349
20
-0.08
30
1.812244
40
0.012
39
0.0
210
0.0
220
0.0
230
1.0
0
CIRCLE
5
15A
330
108
100
AcDbEntity
8
0
62
4
6
ByLayer
370
-1
48
1.0
60
0
100
AcDbCircle
10
-0.225349
20
-0.08
30
-1.787244
40
0.012
39
0.0
210
0.0
220
0.0000000000000002
230
-1.0
0
CIRCLE
5
15B
330
108
100
AcDbEntity
8
0
62
4
6
ByLayer
370
-1
48
1.0
60
0
100
AcDbCircle
10
0.225349
20
-0.08
30
1.512244
40
0.012
39
0.0
210
0.0
220
0.0
230
1.0
0
CIRCLE
5
15C
330
108
100
AcDbEntity
8
0
62
4
6
ByLayer
370
-1
48
1.0
60
0
100
AcDbCircle
10
-0.225349
20
-0.08
30
-1.487244
40
0.012
39
0.0
210
0.0
220
0.0000000000000002
230
-1.0
0
CIRCLE
5
15D
330
108
100
AcDbEntity
8
0
62
4
6
ByLayer
370
-1
48
1.0
60
0
100
AcDbCircle
10
-0.225349
20
-0.08
30
-0.587756
40
0.012
39
0.0
210
0.0
220
0.0000000000000001
230
-1.0
0
CIRCLE
5
15E
330
108
100
AcDbEntity
8
0
62
4
6
ByLayer
370
-1
48
1.0
60
0
100
AcDbCircle
10
0.225349
20
-0.08
30
0.612756
40
0.012
39
0.0
210
0.0
220
0.0
230
1.0
0
CIRCLE
5
15F
330
108
100
AcDbEntity
8
0
62
4
6
ByLayer
370
-1
48
1.0
60
0
100
AcDbCircle
10
-0.225349
20
-0.08
30
-0.887756
40
0.012
39
0.0
210
0.0
220
0.0000000000000001
230
-1.0
0
CIRCLE
5
160
330
108
100
AcDbEntity
8
0
62
4
6
ByLayer
370
-1
48
1.0
60
0
100
AcDbCircle
10
0.225349
20
-0.08
30
0.912756
40
0.012
39
0.0
210
0.0
220
0.0
230
1.0
0
CIRCLE
5
161
330
108
100
AcDbEntity
8
0
62
4
6
ByLayer
370
-1
48
1.0
60
0
100
AcDbCircle
10
-0.225349
20
-0.08
30
-1.187756
40
0.012
39
0.0
210
0.0
220
0.0000000000000001
230
-1.0
0
CIRCLE
5
162
330
108
100
AcDbEntity
8
0
62
4
6
ByLayer
370
-1
48
1.0
60
0
100
AcDbCircle
10
0.225349
20
-0.08
30
1.212756
40
0.012
39
0.0
210
0.0
220
0.0
230
1.0
0
CIRCLE
5
163
330
108
100
AcDbEntity
8
0
62
4
6
ByLayer
370
-1
48
1.0
60
0
100
AcDbCircle
10
-0.225349
20
-0.08
30
-0.587756
40
0.012
39
0.0
210
0.0
220
0.0000000000000002
230
-1.0
0
CIRCLE
5
164
330
108
100
AcDbEntity
8
0
62
4
6
ByLayer
370
-1
48
1.0
60
0
100
AcDbCircle
10
0.225349
20
-0.08
30
0.612756
40
0.012
39
0.0
210
0.0
220
0.0
230
1.0
0
CIRCLE
5
165
330
108
100
AcDbEntity
8
0
62
4
6
ByLayer
370
-1
48
1.0
60
0
100
AcDbCircle
10
0.074651
20
-0.08
30
2.412244
40
0.012
39
0.0
210
0.0
220
0.0
230
1.0
0
CIRCLE
5
166
330
108
100
AcDbEntity
8
0
62
4
6
ByLayer
370
-1
48
1.0
60
0
100
AcDbCircle
10
-0.074651
20
-0.08
30
-2.387244
40
0.012
39
0.0
210
0.0
220
0.0000000000000002
230
-1.0
0
CIRCLE
5
167
330
108
100
AcDbEntity
8
0
62
4
6
ByLayer
370
-1
48
1.0
60
0
100
AcDbCircle
10
-0.074651
20
-0.08
30
-0.287756
40
0.012
39
0.0
210
0.0
220
0.0000000000000002
230
-1.0
0
CIRCLE
5
168
330
108
100
AcDbEntity
8
0
62
4
6
ByLayer
370
-1
48
1.0
60
0
100
AcDbCircle
10
0.074651
20
-0.08
30
0.312756
40
0.012
39
0.0
210
0.0
220
0.0
230
1.0
0
CIRCLE
5
169
330
108
100
AcDbEntity
8
0
62
4
6
ByLayer
370
-1
48
1.0
60
0
100
AcDbCircle
10
0.074651
20
-0.08
30
2.112244
40
0.012
39
0.0
210
0.0
220
0.0
230
1.0
0
CIRCLE
5
16A
330
108
100
AcDbEntity
8
0
62
4
6
ByLayer
370
-1
48
1.0
60
0
100
AcDbCircle
10
-0.074651
20
-0.08
30
-2.087244
40
0.012
39
0.0
210
0.0
220
0.0000000000000002
230
-1.0
0
CIRCLE
5
16B
330
108
100
AcDbEntity
8
0
62
4
6
ByLayer
370
-1
48
1.0
60
0
100
AcDbCircle
10
0.074651
20
-0.08
30
1.812244
40
0.012
39
0.0
210
0.0
220
0.0
230
1.0
0
CIRCLE
5
16C
330
108
100
AcDbEntity
8
0
62
4
6
ByLayer
370
-1
48
1.0
60
0
100
AcDbCircle
10
-0.074651
20
-0.08
30
-1.787244
40
0.012
39
0.0
210
0.0
220
0.0000000000000002
230
-1.0
0
CIRCLE
5
16D
330
108
100
AcDbEntity
8
0
62
4
6
ByLayer
370
-1
48
1.0
60
0
100
AcDbCircle
10
0.074651
20
-0.08
30
1.512244
40
0.012
39
0.0
210
0.0
220
0.0
230
1.0
0
CIRCLE
5
16E
330
108
100
AcDbEntity
8
0
62
4
6
ByLayer
370
-1
48
1.0
60
0
100
AcDbCircle
10
-0.074651
20
-0.08
30
-1.487244
40
0.012
39
0.0
210
0.0
220
0.0000000000000002
230
-1.0
0
CIRCLE
5
16F
330
108
100
AcDbEntity
8
0
62
4
6
ByLayer
370
-1
48
1.0
60
0
100
AcDbCircle
10
-0.074651
20
-0.08
30
-0.587756
40
0.012
39
0.0
210
0.0
220
0.0000000000000001
230
-1.0
0
CIRCLE
5
170
330
108
100
AcDbEntity
8
0
62
4
6
ByLayer
370
-1
48
1.0
60
0
100
AcDbCircle
10
0.074651
20
-0.08
30
0.612756
40
0.012
39
0.0
210
0.0
220
0.0
230
1.0
0
CIRCLE
5
171
330
108
100
AcDbEntity
8
0
62
4
6
ByLayer
370
-1
48
1.0
60
0
100
AcDbCircle
10
-0.074651
20
-0.08
30
-0.887756
40
0.012
39
0.0
210
0.0
220
0.0000000000000001
230
-1.0
0
CIRCLE
5
172
330
108
100
AcDbEntity
8
0
62
4
6
ByLayer
370
-1
48
1.0
60
0
100
AcDbCircle
10
0.074651
20
-0.08
30
0.912756
40
0.012
39
0.0
210
0.0
220
0.0
230
1.0
0
CIRCLE
5
173
330
108
100
AcDbEntity
8
0
62
4
6
ByLayer
370
-1
48
1.0
60
0
100
AcDbCircle
10
-0.074651
20
-0.08
30
-1.187756
40
0.012
39
0.0
210
0.0
220
0.0000000000000001
230
-1.0
0
CIRCLE
5
174
330
108
100
AcDbEntity
8
0
62
4
6
ByLayer
370
-1
48
1.0
60
0
100
AcDbCircle
10
0.074651
20
-0.08
30
1.212756
40
0.012
39
0.0
210
0.0
220
0.0
230
1.0
0
CIRCLE
5
175
330
108
100
AcDbEntity
8
0
62
4
6
ByLayer
370
-1
48
1.0
60
0
100
AcDbCircle
10
-0.074651
20
-0.08
30
-0.587756
40
0.012
39
0.0
210
0.0
220
0.0000000000000002
230
-1.0
0
CIRCLE
5
176
330
108
100
AcDbEntity
8
0
62
4
6
ByLayer
370
-1
48
1.0
60
0
100
AcDbCircle
10
0.074651
20
-0.08
30
0.612756
40
0.012
39
0.0
210
0.0
220
0.0
230
1.0
0
POINT
5
177
330
108
100
AcDbEntity
8
0
62
4
6
ByLayer
370
-1
48
1.0
60
0
100
AcDbPoint
10
0.225349
20
-0.08
30
2.412244
39
0.0
210
0.0
220
0.0
230
1.0
50
180.0
0
POINT
5
178
330
108
100
AcDbEntity
8
0
62
4
6
ByLayer
370
-1
48
1.0
60
0
100
AcDbPoint
10
0.225349
20
-0.08
30
1.812244
39
0.0
210
0.0
220
0.0
230
1.0
50
180.0
0
POINT
5
179
330
108
100
AcDbEntity
8
0
62
4
6
ByLayer
370
-1
48
1.0
60
0
100
AcDbPoint
10
0.225349
20
-0.08
30
1.512244
39
0.0
210
0.0
220
0.0
230
1.0
50
180.0
0
POINT
5
17A
330
108
100
AcDbEntity
8
0
62
4
6
ByLayer
370
-1
48
1.0
60
0
100
AcDbPoint
10
0.225349
20
-0.08
30
1.212756
39
0.0
210
0.0
220
0.0
230
1.0
50
180.0
0
POINT
5
17B
330
108
100
AcDbEntity
8
0
62
4
6
ByLayer
370
-1
48
1.0
60
0
100
AcDbPoint
10
0.225349
20
-0.08
30
0.912756
39
0.0
210
0.0
220
0.0
230
1.0
50
180.0
0
POINT
5
17C
330
108
100
AcDbEntity
8
0
62
4
6
ByLayer
370
-1
48
1.0
60
0
100
AcDbPoint
10
0.225349
20
-0.08
30
0.612756
39
0.0
210
0.0
220
0.0
230
1.0
50
180.0
0
POINT
5
17D
330
108
100
AcDbEntity
8
0
62
4
6
ByLayer
370
-1
48
1.0
60
0
100
AcDbPoint
10
0.225349
20
-0.08
30
0.312756
39
0.0
210
0.0
220
0.0
230
1.0
50
180.0
0
POINT
5
17E
330
108
100
AcDbEntity
8
0
62
4
6
ByLayer
370
-1
48
1.0
60
0
100
AcDbPoint
10
0.257782
20
-0.0165
30
2.13082
39
0.0
210
0.0000000000000003
220
1.0
230
0.0
50
360.0
0
POINT
5
17F
330
108
100
AcDbEntity
8
0
62
4
6
ByLayer
370
-1
48
1.0
60
0
100
AcDbPoint
10
0.257782
20
-0.0165
30
0.56918
39
0.0
210
0.0000000000000003
220
1.0
230
0.0
50
360.0
0
POINT
5
180
330
108
100
AcDbEntity
8
0
62
4
6
ByLayer
370
-1
48
1.0
60
0
100
AcDbPoint
10
0.074651
20
-0.08
30
2.412244
39
0.0
210
0.0
220
0.0
230
1.0
50
360.0
0
POINT
5
181
330
108
100
AcDbEntity
8
0
62
4
6
ByLayer
370
-1
48
1.0
60
0
100
AcDbPoint
10
0.074651
20
-0.08
30
1.812244
39
0.0
210
0.0
220
0.0
230
1.0
50
360.0
0
POINT
5
182
330
108
100
AcDbEntity
8
0
62
4
6
ByLayer
370
-1
48
1.0
60
0
100
AcDbPoint
10
0.074651
20
-0.08
30
1.512244
39
0.0
210
0.0
220
0.0
230
1.0
50
360.0
0
POINT
5
183
330
108
100
AcDbEntity
8
0
62
4
6
ByLayer
370
-1
48
1.0
60
0
100
AcDbPoint
10
0.074651
20
-0.08
30
1.212756
39
0.0
210
0.0
220
0.0
230
1.0
50
360.0
0
POINT
5
184
330
108
100
AcDbEntity
8
0
62
4
6
ByLayer
370
-1
48
1.0
60
0
100
AcDbPoint
10
0.074651
20
-0.08
30
0.912756
39
0.0
210
0.0
220
0.0
230
1.0
50
360.0
0
POINT
5
185
330
108
100
AcDbEntity
8
0
62
4
6
ByLayer
370
-1
48
1.0
60
0
100
AcDbPoint
10
0.074651
20
-0.08
30
0.612756
39
0.0
210
0.0
220
0.0
230
1.0
50
360.0
0
POINT
5
186
330
108
100
AcDbEntity
8
0
62
4
6
ByLayer
370
-1
48
1.0
60
0
100
AcDbPoint
10
0.074651
20
-0.08
30
0.312756
39
0.0
210
0.0
220
0.0
230
1.0
50
360.0
0
POINT
5
187
330
108
100
AcDbEntity
8
0
62
4
6
ByLayer
370
-1
48
1.0
60
0
100
AcDbPoint
10
0.042218
20
-0.0165
30
2.13082
39
0.0
210
0.0000000000000001
220
1.0
230
0.0
50
180.0
0
POINT
5
188
330
108
100
AcDbEntity
8
0
62
4
6
ByLayer
370
-1
48
1.0
60
0
100
AcDbPoint
10
0.042218
20
-0.0165
30
0.56918
39
0.0
210
0.0000000000000001
220
1.0
230
0.0
50
180.0
0
ENDBLK
5
109
330
108
100
AcDbEntity
8
0
100
AcDbBlockEnd
0
ENDSEC
0
SECTION
2
ENTITIES
0
INSERT
5
2E
330
1C
100
AcDbEntity
67
0
8
ATK_Panel
62
256
6
ByLayer
370
-1
48
1.0
60
0
100
AcDbBlockReference
2
ATK_Panel27x90
10
-4.62
20
6.62
30
0.0
41
1.0
42
1.0
43
1.0
50
0.0
210
0.0
220
0.0
230
1.0
0
INSERT
5
F4
330
1C
100
AcDbEntity
67
0
8
ATK_Panel
62
256
6
ByLayer
370
-1
48
1.0
60
0
100
AcDbBlockReference
2
ATK_Panel27x90
10
-3.72
20
6.62
30
0.0
41
1.0
42
1.0
43
1.0
50
0.0
210
0.0
220
0.0
230
1.0
0
INSERT
5
F5
330
1C
100
AcDbEntity
67
0
8
ATK_Panel
62
256
6
ByLayer
370
-1
48
1.0
60
0
100
AcDbBlockReference
2
ATK_Panel27x90
10
-2.82
20
6.62
30
0.0
41
1.0
42
1.0
43
1.0
50
0.0
210
0.0
220
0.0
230
1.0
0
INSERT
5
F6
330
1C
100
AcDbEntity
67
0
8
ATK_Panel
62
256
6
ByLayer
370
-1
48
1.0
60
0
100
AcDbBlockReference
2
ATK_Panel27x90
10
-3.72
20
6.92
30
0.0
41
1.0
42
1.0
43
1.0
50
180.0
210
0.0
220
0.0
230
1.0
0
INSERT
5
F7
330
1C
100
AcDbEntity
67
0
8
ATK_Panel
62
256
6
ByLayer
370
-1
48
1.0
60
0
100
AcDbBlockReference
2
ATK_Panel27x90
10
-2.82
20
6.92
30
0.0
41
1.0
42
1.0
43
1.0
50
180.0
210
0.0
220
0.0
230
1.0
0
INSERT
5
F8
330
1C
100
AcDbEntity
67
0
8
ATK_Panel
62
256
6
ByLayer
370
-1
48
1.0
60
0
100
AcDbBlockReference
2
ATK_Panel27x90
10
-1.92
20
6.92
30
0.0
41
1.0
42
1.0
43
1.0
50
180.0
210
0.0
220
0.0
230
1.0
0
INSERT
5
F9
330
1C
100
AcDbEntity
67
0
8
ATK_Panel
62
256
6
ByLayer
370
-1
48
1.0
60
0
100
AcDbBlockReference
2
ATK_Panel27x90
10
-1.92
20
6.62
30
0.0
41
1.0
42
1.0
43
1.0
50
0.0
210
0.0
220
0.0
230
1.0
0
INSERT
5
FA
330
1C
100
AcDbEntity
67
0
8
ATK_Panel
62
256
6
ByLayer
370
-1
48
1.0
60
0
100
AcDbBlockReference
2
ATK_Panel27x90
10
-1.02
20
6.62
30
0.0
41
1.0
42
1.0
43
1.0
50
0.0
210
0.0
220
0.0
230
1.0
0
INSERT
5
FB
330
1C
100
AcDbEntity
67
0
8
ATK_Panel
62
256
6
ByLayer
370
-1
48
1.0
60
0
100
AcDbBlockReference
2
ATK_Panel27x90
10
-0.12
20
6.62
30
0.0
41
1.0
42
1.0
43
1.0
50
0.0
210
0.0
220
0.0
230
1.0
0
INSERT
5
FC
330
1C
100
AcDbEntity
67
0
8
ATK_Panel
62
256
6
ByLayer
370
-1
48
1.0
60
0
100
AcDbBlockReference
2
ATK_Panel27x90
10
-1.02
20
6.92
30
0.0
41
1.0
42
1.0
43
1.0
50
180.0
210
0.0
220
0.0
230
1.0
0
INSERT
5
FD
330
1C
100
AcDbEntity
67
0
8
ATK_Panel
62
256
6
ByLayer
370
-1
48
1.0
60
0
100
AcDbBlockReference
2
ATK_Panel27x90
10
-0.12
20
6.92
30
0.0
41
1.0
42
1.0
43
1.0
50
180.0
210
0.0
220
0.0
230
1.0
0
INSERT
5
FE
330
1C
100
AcDbEntity
67
0
8
ATK_Panel
62
256
6
ByLayer
370
-1
48
1.0
60
0
100
AcDbBlockReference
2
ATK_Panel27x90
10
0.78
20
6.92
30
0.0
41
1.0
42
1.0
43
1.0
50
180.0
210
0.0
220
0.0
230
1.0
0
INSERT
5
FF
330
1C
100
AcDbEntity
67
0
8
ATK_Panel
62
256
6
ByLayer
370
-1
48
1.0
60
0
100
AcDbBlockReference
2
ATK_Panel27x90
10
0.78
20
6.62
30
0.0
41
1.0
42
1.0
43
1.0
50
0.0
210
0.0
220
0.0
230
1.0
0
INSERT
5
100
330
1C
100
AcDbEntity
67
0
8
ATK_Panel
62
256
6
ByLayer
370
-1
48
1.0
60
0
100
AcDbBlockReference
2
ATK_Panel27x90
10
1.68
20
6.62
30
0.0
41
1.0
42
1.0
43
1.0
50
0.0
210
0.0
220
0.0
230
1.0
0
INSERT
5
101
330
1C
100
AcDbEntity
67
0
8
ATK_Panel
62
256
6
ByLayer
370
-1
48
1.0
60
0
100
AcDbBlockReference
2
ATK_Panel27x90
10
2.58
20
6.62
30
0.0
41
1.0
42
1.0
43
1.0
50
0.0
210
0.0
220
0.0
230
1.0
0
INSERT
5
102
330
1C
100
AcDbEntity
67
0
8
ATK_Panel
62
256
6
ByLayer
370
-1
48
1.0
60
0
100
AcDbBlockReference
2
ATK_Panel27x90
10
1.68
20
6.92
30
0.0
41
1.0
42
1.0
43
1.0
50
180.0
210
0.0
220
0.0
230
1.0
0
INSERT
5
103
330
1C
100
AcDbEntity
67
0
8
ATK_Panel
62
256
6
ByLayer
370
-1
48
1.0
60
0
100
AcDbBlockReference
2
ATK_Panel27x90
10
2.58
20
6.92
30
0.0
41
1.0
42
1.0
43
1.0
50
180.0
210
0.0
220
0.0
230
1.0
0
INSERT
5
104
330
1C
100
AcDbEntity
67
0
8
ATK_Panel
62
256
6
ByLayer
370
-1
48
1.0
60
0
100
AcDbBlockReference
2
ATK_Panel27x90
10
3.48
20
6.92
30
0.0
41
1.0
42
1.0
43
1.0
50
180.0
210
0.0
220
0.0
230
1.0
0
INSERT
5
105
330
1C
100
AcDbEntity
67
0
8
ATK_Panel
62
256
6
ByLayer
370
-1
48
1.0
60
0
100
AcDbBlockReference
2
ATK_Panel27x90
10
3.48
20
6.62
30
0.0
41
1.0
42
1.0
43
1.0
50
0.0
210
0.0
220
0.0
230
1.0
0
INSERT
5
106
330
1C
100
AcDbEntity
67
0
8
ATK_Panel
62
256
6
ByLayer
370
-1
48
1.0
60
0
100
AcDbBlockReference
2
ATK_Panel27x90
10
4.38
20
6.92
30
0.0
41
1.0
42
1.0
43
1.0
50
180.0
210
0.0
220
0.0
230
1.0
0
INSERT
5
107
330
1C
100
AcDbEntity
67
0
8
ATK_Panel
62
256
6
ByLayer
370
-1
48
1.0
60
0
100
AcDbBlockReference
2
ATK_Panel27x30
10
4.98
20
6.62
30
0.0
41
1.0
42
1.0
43
1.0
50
90.0
210
0.0
220
0.0
230
1.0
0
VIEWPORT
5
26
330
22
100
AcDbEntity
67
1
8
0
62
256
6
ByLayer
370
-1
48
1.0
60
0
100
AcDbViewport
10
0.0
20
0.0
30
0.0
40
297.0
41
210.0
68
1
69
1
12
50.0
22
100.0
13
0.0
23
0.0
14
10.0
24
10.0
15
10.0
25
10.0
16
0.0
26
0.0
36
1.0
17
0.0
27
0.0
37
0.0
42
50.0
43
0.0
44
0.0
45
250.0
50
0.0
51
0.0
72
1000
90
819232
110
0.0
120
0.0
130
0.0
111
1.0
121
0.0
131
0.0
112
0.0
122
1.0
132
0.0
0
ENDSEC
0
SECTION
2
OBJECTS
0
DICTIONARY
5
19E
330
0
100
AcDbDictionary
280
1
281
1
3
ACAD_GROUP
350
12
3
ACAD_LAYOUT
350
25
3
ACAD_DGNDEFINITIONS
350
F
3
ACAD_DWFDEFINITIONS
350
10
3
ACAD_PDFDEFINITIONS
350
11
3
ACAD_MLINESTYLE
350
B
3
ACAD_IMAGE_DICT
350
E
3
ACAD_IMAGE_VARS
350
21
0
DICTIONARY
5
12
330
19E
100
AcDbDictionary
280
1
281
1
0
DICTIONARY
5
25
330
19E
100
AcDbDictionary
280
1
281
1
3
Model
350
20
3
Layout1
350
27
0
DICTIONARY
5
F
330
19E
100
AcDbDictionary
280
1
281
1
0
DICTIONARY
5
10
330
19E
100
AcDbDictionary
280
1
281
1
0
DICTIONARY
5
11
330
19E
100
AcDbDictionary
280
1
281
1
0
DICTIONARY
5
B
330
19E
100
AcDbDictionary
280
1
281
1
3
Standard
350
1B
0
DICTIONARY
5
E
330
19E
100
AcDbDictionary
280
1
281
1
0
DICTIONARY
5
6
330
5
100
AcDbDictionary
280
1
281
1
3
ACAD_LAYERSTATES
360
19F
0
DICTIONARY
5
19F
330
6
100
AcDbDictionary
280
1
281
1
0
LAYOUT
5
20
330
25
100
AcDbPlotSettings
1

2
none_device
4
ISO_A4_(210.00_x_297.00_MM)
6

40
7.5
41
20.0
42
7.5
43
20.0
44
210.0
45
297.0
46
0.0
47
0.0
48
0.0
49
0.0
140
0.0
141
0.0
142
1.0
143
1.0
70
11952
72
1
73
1
74
1
7

75
0
76
0
77
2
78
300
147
1.0
148
0.0
149
0.0
100
AcDbLayout
1
Model
71
0
10
-20.0
20
-7.5
11
277.0
21
202.5
12
0.0
22
0.0
32
0.0
14
25.7
24
19.5
34
0.0
15
231.3
25
175.5
35
0.0
146
0.0
13
0.0
23
0.0
33
0.0
16
1.0
26
0.0
36
0.0
17
0.0
27
1.0
37
0.0
76
0
330
1C
0
LAYOUT
5
27
330
25
100
AcDbPlotSettings
1

2
none_device
4
ISO_A4_(210.00_x_297.00_MM)
6

40
7.5
41
20.0
42
7.5
43
20.0
44
210.0
45
297.0
46
0.0
47
0.0
48
0.0
49
0.0
140
0.0
141
0.0
142
1.0
143
1.0
70
688
72
1
73
1
74
1
7

75
0
76
0
77
2
78
300
147
1.0
148
0.0
149
0.0
100
AcDbLayout
1
Layout1
71
1
10
-20.0
20
-7.5
11
277.0
21
202.5
12
0.0
22
0.0
32
0.0
14
25.7
24
19.5
34
0.0
15
231.3
25
175.5
35
0.0
146
0.0
13
0.0
23
0.0
33
0.0
16
1.0
26
0.0
36
0.0
17
0.0
27
1.0
37
0.0
76
0
330
22
0
MLINESTYLE
5
1B
330
B
100
AcDbMlineStyle
2
Standard
70
0
3

62
256
51
90.0
52
90.0
71
2
49
0.5
62
256
6
ByLayer
49
-0.5
62
256
6
ByLayer
0
RASTERVARIABLES
5
21
330
E
100
AcDbRasterVariables
90
0
70
1
71
1
72
0
0
ENDSEC
0
EOF
