999
DXF file generated by netDxf https://github.com/haplokuon/netDxf, Copyright(C) Daniel Carvajal, Licensed under MIT
0
SECTION
2
HEADER
9
$ACADVER
1
AC1015
9
$DWGCODEPAGE
3
ANSI_1252
9
$HANDSEED
5
295
9
$ANGBASE
50
0.0
9
$ANGDIR
70
0
9
$ATTMODE
70
1
9
$AUNITS
70
0
9
$AUPREC
70
0
9
$CECOLOR
62
256
9
$CELTSCALE
40
1.0
9
$CELTYPE
6
ByLayer
9
$CELWEIGHT
370
-1
9
$CLAYER
8
0
9
$CMLJUST
70
0
9
$CMLSCALE
40
20.0
9
$CMLSTYLE
2
Standard
9
$DIMSTYLE
2
Standard
9
$TEXTSIZE
40
2.5
9
$TEXTSTYLE
7
Standard
9
$LUNITS
70
2
9
$LUPREC
70
4
9
$MIRRTEXT
70
0
9
$EXTNAMES
290
1
9
$INSBASE
10
0.0
20
0.0
30
0.0
9
$INSUNITS
70
0
9
$LTSCALE
40
1.0
9
$LWDISPLAY
290
0
9
$PDMODE
70
0
9
$PDSIZE
40
0.0
9
$PLINEGEN
70
0
9
$PSLTSCALE
70
1
9
$SPLINESEGS
70
8
9
$SURFU
70
6
9
$SURFV
70
6
9
$TDCREATE
40
2460342.54000656
9
$TDUCREATE
40
2460342.4983399
9
$TDUPDATE
40
2460342.54000656
9
$TDUUPDATE
40
2460342.4983399
9
$TDINDWG
40
0.0
9
$UCSORG
10
0.0
20
0.0
30
0.0
9
$UCSXDIR
10
1.0
20
0.0
30
0.0
9
$UCSYDIR
10
0.0
20
1.0
30
0.0
9
$DIMADEC
70
0
9
$DIMALT
70
0
9
$DIMALTD
70
2
9
$DIMALTF
40
25.4
9
$DIMALTRND
40
0.0
9
$DIMALTTD
70
2
9
$DIMALTTZ
70
0
9
$DIMALTU
70
2
9
$DIMALTZ
70
0
9
$DIMAPOST
1
[]
9
$DIMATFIT
70
3
9
$DIMAUNIT
70
0
9
$DIMASZ
40
0.18
9
$DIMAZIN
70
0
9
$DIMSAH
70
0
9
$DIMBLK
1

9
$DIMLDRBLK
1

9
$DIMCEN
40
0.09
9
$DIMCLRD
70
0
9
$DIMCLRE
70
0
9
$DIMCLRT
70
0
9
$DIMDEC
70
4
9
$DIMDLE
40
0.0
9
$DIMDLI
40
0.38
9
$DIMDSEP
70
46
9
$DIMEXE
40
0.18
9
$DIMEXO
40
0.0625
9
$DIMFXLON
70
0
9
$DIMFXL
40
1.0
9
$DIMGAP
40
0.09
9
$DIMJUST
70
0
9
$DIMLFAC
40
1.0
9
$DIMLUNIT
70
2
9
$DIMLWD
70
-2
9
$DIMLWE
70
-2
9
$DIMPOST
1
<>
9
$DIMRND
40
0.0
9
$DIMSCALE
40
1.0
9
$DIMSD1
70
0
9
$DIMSD2
70
0
9
$DIMSE1
70
0
9
$DIMSE2
70
0
9
$DIMSOXD
70
0
9
$DIMTAD
70
0
9
$DIMTDEC
70
4
9
$DIMTFAC
40
1.0
9
$DIMTIH
70
0
9
$DIMTIX
70
0
9
$DIMTM
40
0.0
9
$DIMTMOVE
70
0
9
$DIMTOFL
70
0
9
$DIMTOH
70
0
9
$DIMTOL
70
0
9
$DIMLIM
70
0
9
$DIMTOLJ
70
1
9
$DIMTP
40
0.0
9
$DIMTXT
40
0.18
9
$DIMTXTDIRECTION
70
0
9
$DIMTZIN
70
0
9
$DIMZIN
70
0
9
$DIMFRAC
70
0
9
$DIMLTYPE
6
ByBlock
9
$DIMLTEX1
6
ByBlock
9
$DIMLTEX2
6
ByBlock
0
ENDSEC
0
SECTION
2
CLASSES
0
CLASS
1
RASTERVARIABLES
2
AcDbRasterVariables
3
ISM
90
0
280
0
281
0
0
ENDSEC
0
SECTION
2
TABLES
0
TABLE
2
APPID
5
4
330
0
100
AcDbSymbolTable
70
5
0
APPID
5
19
330
4
100
AcDbSymbolTableRecord
100
AcDbRegAppTableRecord
2
ACAD
70
0
0
APPID
5
28
330
4
100
AcDbSymbolTableRecord
100
AcDbRegAppTableRecord
2
AcCmTransparency
70
0
0
APPID
5
29
330
4
100
AcDbSymbolTableRecord
100
AcDbRegAppTableRecord
2
AcAecLayerStandard
70
0
0
APPID
5
2A
330
4
100
AcDbSymbolTableRecord
100
AcDbRegAppTableRecord
2
GradientColor1ACI
70
0
0
APPID
5
2B
330
4
100
AcDbSymbolTableRecord
100
AcDbRegAppTableRecord
2
GradientColor2ACI
70
0
0
ENDTAB
0
TABLE
2
VPORT
5
1
330
0
100
AcDbSymbolTable
70
1
0
VPORT
5
2
330
1
100
AcDbSymbolTableRecord
100
AcDbViewportTableRecord
2
*Active
70
0
10
0.0
20
0.0
11
1.0
21
1.0
12
0.0
22
0.0
13
0.0
23
0.0
14
0.5
24
0.5
15
10.0
25
10.0
16
0.0
26
0.0
36
1.0
17
0.0
27
0.0
37
0.0
40
10.0
41
1.0
75
0
76
1
0
ENDTAB
0
TABLE
2
LTYPE
5
7
330
0
100
AcDbSymbolTable
70
3
0
LTYPE
5
15
330
7
100
AcDbSymbolTableRecord
100
AcDbLinetypeTableRecord
2
Continuous
70
0
3
Solid line
72
65
73
0
40
0.0
0
LTYPE
5
16
330
7
100
AcDbSymbolTableRecord
100
AcDbLinetypeTableRecord
2
ByLayer
70
0
3

72
65
73
0
40
0.0
0
LTYPE
5
17
330
7
100
AcDbSymbolTableRecord
100
AcDbLinetypeTableRecord
2
ByBlock
70
0
3

72
65
73
0
40
0.0
0
ENDTAB
0
TABLE
2
LAYER
5
5
102
{ACAD_XDICTIONARY
360
6
102
}
330
0
100
AcDbSymbolTable
70
2
0
LAYER
5
14
330
5
100
AcDbSymbolTableRecord
100
AcDbLayerTableRecord
2
0
70
0
62
7
6
Continuous
290
1
370
-3
390
0
0
LAYER
5
F3
330
5
100
AcDbSymbolTableRecord
100
AcDbLayerTableRecord
2
ATK_Panel
70
0
62
7
6
Continuous
290
1
370
-3
390
0
0
ENDTAB
0
TABLE
2
STYLE
5
8
330
0
100
AcDbSymbolTable
70
1
0
STYLE
5
18
330
8
100
AcDbSymbolTableRecord
100
AcDbTextStyleTableRecord
2
Standard
3
simplex.shx
70
0
71
0
40
0.0
41
1.0
42
0.0
50
0.0
0
ENDTAB
0
TABLE
2
DIMSTYLE
5
A
330
0
100
AcDbSymbolTable
70
1
100
AcDbDimStyleTable
0
DIMSTYLE
105
1A
330
A
100
AcDbSymbolTableRecord
100
AcDbDimStyleTableRecord
2
Standard
3
<>
4
[]
40
1.0
41
0.18
42
0.0625
43
0.38
44
0.18
45
0.0
46
0.0
47
0.0
48
0.0
49
1.0
70
0
71
0
72
0
73
0
74
0
75
0
76
0
77
0
78
0
79
0
140
0.18
141
0.09
143
25.4
144
1.0
146
1.0
147
0.09
148
0.0
170
0
171
2
172
0
174
0
175
0
176
0
177
0
178
0
179
0
271
4
272
4
273
2
274
2
275
0
276
0
277
2
278
46
279
0
280
0
281
0
282
0
283
1
284
0
285
0
286
0
289
3
290
0
294
0
340
18
173
0
345
17
346
17
347
17
371
-2
372
-2
0
ENDTAB
0
TABLE
2
VIEW
5
3
330
0
100
AcDbSymbolTable
70
0
0
ENDTAB
0
TABLE
2
UCS
5
C
330
0
100
AcDbSymbolTable
70
0
0
ENDTAB
0
TABLE
2
BLOCK_RECORD
5
D
330
0
100
AcDbSymbolTable
70
5
0
BLOCK_RECORD
5
1C
330
D
100
AcDbSymbolTableRecord
100
AcDbBlockTableRecord
2
*Model_Space
340
20
0
BLOCK_RECORD
5
22
330
D
100
AcDbSymbolTableRecord
100
AcDbBlockTableRecord
2
*Paper_Space
340
27
0
BLOCK_RECORD
5
2F
330
D
100
AcDbSymbolTableRecord
100
AcDbBlockTableRecord
2
ATK_Panel27x75R
340
0
70
0
280
1
281
0
1001
ACAD
1000
DesignCenter Data
1002
{
1070
1
1070
0
1002
}
0
BLOCK_RECORD
5
F9
330
D
100
AcDbSymbolTableRecord
100
AcDbBlockTableRecord
2
ATK_Union10004220
340
0
70
0
280
1
281
0
1001
ACAD
1000
DesignCenter Data
1002
{
1070
1
1070
0
1002
}
0
BLOCK_RECORD
5
16B
330
D
100
AcDbSymbolTableRecord
100
AcDbBlockTableRecord
2
ATK_Panel27x90
340
0
70
0
280
1
281
0
1001
ACAD
1000
DesignCenter Data
1002
{
1070
1
1070
0
1002
}
0
ENDTAB
0
ENDSEC
0
SECTION
2
BLOCKS
0
BLOCK
5
1E
330
1C
100
AcDbEntity
67
0
8
0
100
AcDbBlockBegin
2
*Model_Space
70
0
10
0.0
20
0.0
30
0.0
3
*Model_Space
4

0
ENDBLK
5
1D
330
1C
100
AcDbEntity
8
0
100
AcDbBlockEnd
0
BLOCK
5
24
330
22
100
AcDbEntity
67
1
8
0
100
AcDbBlockBegin
2
*Paper_Space
70
0
10
0.0
20
0.0
30
0.0
3
*Paper_Space
4

0
ENDBLK
5
23
330
22
100
AcDbEntity
8
0
100
AcDbBlockEnd
0
BLOCK
5
31
330
2F
100
AcDbEntity
8
0
100
AcDbBlockBegin
2
ATK_Panel27x75R
70
0
10
0.0
20
0.0
30
0.0
3
ATK_Panel27x75R
4

0
3DFACE
5
32
330
2F
100
AcDbEntity
8
0
62
38
6
ByLayer
370
-1
48
1.0
60
0
100
AcDbFace
10
0.0000000000000009
20
-0.0000000000000002
30
2.7
11
0.900000000000001
21
-0.0000000000000002
31
2.7
12
0.900000000000001
22
-0.0000000000000003
32
-0.0000000000000004
13
0.0000000000000009
23
-0.0000000000000003
33
-0.0000000000000004
70
0
0
3DFACE
5
33
330
2F
100
AcDbEntity
8
0
62
0
6
ByLayer
370
-1
48
1.0
60
0
100
AcDbFace
10
0.874650631070116
20
0.0165004505704757
30
2.41224383596508
11
0.874650631070116
21
0.120000450575191
31
2.41224383596508
12
0.024650631070434
22
0.120000450575191
32
2.41224383596508
13
0.024650631070434
23
0.0165004505704757
33
2.41224383596508
70
0
0
3DFACE
5
34
330
2F
100
AcDbEntity
8
0
62
0
6
ByLayer
370
-1
48
1.0
60
0
100
AcDbFace
10
0.874650631070116
20
0.0165004505704757
30
2.38724383596508
11
0.874650631070116
21
0.120000450575191
31
2.38724383596508
12
0.024650631070434
22
0.120000450575191
32
2.38724383596508
13
0.024650631070434
23
0.0165004505704757
33
2.38724383596508
70
0
0
3DFACE
5
35
330
2F
100
AcDbEntity
8
0
62
0
6
ByLayer
370
-1
48
1.0
60
0
100
AcDbFace
10
0.024650631070434
20
0.120000450575191
30
2.41224383596508
11
0.024650631070434
21
0.120000450575191
31
2.38724383596508
12
0.024650631070434
22
0.0165004505704757
32
2.38724383596508
13
0.024650631070434
23
0.0165004505704757
33
2.41224383596508
70
0
0
3DFACE
5
36
330
2F
100
AcDbEntity
8
0
62
0
6
ByLayer
370
-1
48
1.0
60
0
100
AcDbFace
10
0.874650631070116
20
0.0165004505704757
30
2.38724383596508
11
0.874650631070116
21
0.120000450575191
31
2.38724383596508
12
0.874650631070116
22
0.120000450575191
32
2.41224383596508
13
0.874650631070116
23
0.0165004505704757
33
2.41224383596508
70
0
0
3DFACE
5
37
330
2F
100
AcDbEntity
8
0
62
0
6
ByLayer
370
-1
48
1.0
60
0
100
AcDbFace
10
0.287147381658504
20
0.0165004505704761
30
2.41230383596507
11
0.287147381658959
21
0.120000450575191
31
2.41217723242407
12
0.287147381658959
22
0.120000450575191
32
2.67467723242407
13
0.287147381658504
23
0.0165004505704761
33
2.67480383596506
70
0
0
3DFACE
5
38
330
2F
100
AcDbEntity
8
0
62
0
6
ByLayer
370
-1
48
1.0
60
0
100
AcDbFace
10
0.312147381658595
20
0.0165004505704761
30
2.41217723242407
11
0.312147381658595
21
0.120000450575191
31
2.41230383596506
12
0.312147381658595
22
0.120000450575191
32
2.67467723242407
13
0.312147381658595
23
0.0165004505704761
33
2.67467723242407
70
0
0
3DFACE
5
39
330
2F
100
AcDbEntity
8
0
62
0
6
ByLayer
370
-1
48
1.0
60
0
100
AcDbFace
10
0.294288270915306
20
0.120000450575191
30
2.67467723242407
11
0.319288270914942
21
0.120000450575191
31
2.67480383596506
12
0.319288270914942
22
0.0165004505704761
32
2.67467723242407
13
0.294288270914851
23
0.0165004505704761
33
2.67467723242407
70
0
0
3DFACE
5
3A
330
2F
100
AcDbEntity
8
0
62
0
6
ByLayer
370
-1
48
1.0
60
0
100
AcDbFace
10
0.612153880482045
20
0.0165004505704761
30
2.67480383596506
11
0.61215388048159
21
0.120000450575191
31
2.67467723242407
12
0.61215388048159
22
0.120000450575191
32
2.41217723242407
13
0.612153880482045
23
0.0165004505704761
33
2.41230383596507
70
0
0
3DFACE
5
3B
330
2F
100
AcDbEntity
8
0
62
0
6
ByLayer
370
-1
48
1.0
60
0
100
AcDbFace
10
0.587153880481954
20
0.0165004505704761
30
2.67467723242407
11
0.587153880481954
21
0.120000450575191
31
2.67467723242407
12
0.587153880481954
22
0.120000450575191
32
2.41230383596506
13
0.587153880481954
23
0.0165004505704761
33
2.41217723242407
70
0
0
3DFACE
5
3C
330
2F
100
AcDbEntity
8
0
62
0
6
ByLayer
370
-1
48
1.0
60
0
100
AcDbFace
10
0.619294769738391
20
0.0165004505704761
30
2.67467723242407
11
0.594294769738301
21
0.0165004505704761
31
2.67467723242407
12
0.594294769738301
22
0.120000450575191
32
2.67480383596506
13
0.619294769737937
23
0.120000450575191
33
2.67467723242407
70
0
0
3DFACE
5
3D
330
2F
100
AcDbEntity
8
0
62
0
6
ByLayer
370
-1
48
1.0
60
0
100
AcDbFace
10
0.024650631070434
20
0.0165004505704757
30
2.38724383596508
11
0.024650631070434
21
0.120000450575191
31
2.38724383596508
12
0.874650631070116
22
0.120000450575191
32
2.38724383596508
13
0.874650631070116
23
0.0165004505704757
33
2.38724383596508
70
0
0
3DFACE
5
3E
330
2F
100
AcDbEntity
8
0
62
0
6
ByLayer
370
-1
48
1.0
60
0
100
AcDbFace
10
0.024650631070434
20
0.0165004505704756
30
0.287756164034923
11
0.024650631070434
21
0.12000045057519
31
0.287756164034923
12
0.874650631070116
22
0.12000045057519
32
0.287756164034923
13
0.874650631070116
23
0.0165004505704756
33
0.287756164034923
70
0
0
3DFACE
5
3F
330
2F
100
AcDbEntity
8
0
62
0
6
ByLayer
370
-1
48
1.0
60
0
100
AcDbFace
10
0.024650631070434
20
0.0165004505704756
30
0.312756164034923
11
0.024650631070434
21
0.12000045057519
31
0.312756164034923
12
0.874650631070116
22
0.12000045057519
32
0.312756164034923
13
0.874650631070116
23
0.0165004505704756
33
0.312756164034923
70
0
0
3DFACE
5
40
330
2F
100
AcDbEntity
8
0
62
0
6
ByLayer
370
-1
48
1.0
60
0
100
AcDbFace
10
0.024650631070434
20
0.0165004505704756
30
0.287756164034923
11
0.024650631070434
21
0.0165004505704756
31
0.312756164034923
12
0.024650631070434
22
0.12000045057519
32
0.312756164034923
13
0.024650631070434
23
0.12000045057519
33
0.287756164034923
70
0
0
3DFACE
5
41
330
2F
100
AcDbEntity
8
0
62
0
6
ByLayer
370
-1
48
1.0
60
0
100
AcDbFace
10
0.874650631070116
20
0.0165004505704756
30
0.287756164034923
11
0.874650631070116
21
0.12000045057519
31
0.287756164034923
12
0.874650631070116
22
0.12000045057519
32
0.312756164034923
13
0.874650631070116
23
0.0165004505704756
33
0.312756164034923
70
0
0
3DFACE
5
42
330
2F
100
AcDbEntity
8
0
62
0
6
ByLayer
370
-1
48
1.0
60
0
100
AcDbFace
10
0.287147381658504
20
0.016500450570476
30
0.0251961640349348
11
0.287147381658959
21
0.120000450575191
31
0.0253227675759305
12
0.287147381658959
22
0.120000450575191
32
0.287822767575931
13
0.287147381658504
23
0.016500450570476
33
0.287696164034933
70
0
0
3DFACE
5
43
330
2F
100
AcDbEntity
8
0
62
0
6
ByLayer
370
-1
48
1.0
60
0
100
AcDbFace
10
0.312147381658595
20
0.016500450570476
30
0.0253227675759305
11
0.312147381658595
21
0.120000450575191
31
0.0253227675759305
12
0.312147381658595
22
0.120000450575191
32
0.287696164034934
13
0.312147381658595
23
0.016500450570476
33
0.28782276757593
70
0
0
3DFACE
5
44
330
2F
100
AcDbEntity
8
0
62
0
6
ByLayer
370
-1
48
1.0
60
0
100
AcDbFace
10
0.294288270914851
20
0.016500450570476
30
0.0253227675759305
11
0.319288270914942
21
0.016500450570476
31
0.0253227675759305
12
0.319288270914942
22
0.120000450575191
32
0.0251961640349348
13
0.294288270915306
23
0.120000450575191
33
0.0253227675759305
70
0
0
3DFACE
5
45
330
2F
100
AcDbEntity
8
0
62
0
6
ByLayer
370
-1
48
1.0
60
0
100
AcDbFace
10
0.612153880482045
20
0.016500450570476
30
0.287696164034933
11
0.61215388048159
21
0.120000450575191
31
0.287822767575931
12
0.61215388048159
22
0.120000450575191
32
0.0253227675759305
13
0.612153880482045
23
0.016500450570476
33
0.0251961640349348
70
0
0
3DFACE
5
46
330
2F
100
AcDbEntity
8
0
62
0
6
ByLayer
370
-1
48
1.0
60
0
100
AcDbFace
10
0.587153880481954
20
0.016500450570476
30
0.28782276757593
11
0.587153880481954
21
0.120000450575191
31
0.287696164034934
12
0.587153880481954
22
0.120000450575191
32
0.0253227675759305
13
0.587153880481954
23
0.016500450570476
33
0.0253227675759305
70
0
0
3DFACE
5
47
330
2F
100
AcDbEntity
8
0
62
0
6
ByLayer
370
-1
48
1.0
60
0
100
AcDbFace
10
0.619294769737937
20
0.120000450575191
30
0.0253227675759305
11
0.594294769738301
21
0.120000450575191
31
0.0251961640349348
12
0.594294769738301
22
0.016500450570476
32
0.0253227675759305
13
0.619294769738391
23
0.016500450570476
33
0.0253227675759305
70
0
0
3DFACE
5
48
330
2F
100
AcDbEntity
8
0
62
0
6
ByLayer
370
-1
48
1.0
60
0
100
AcDbFace
10
0.874650631070116
20
0.0165004505704756
30
0.312756164034922
11
0.874650631070116
21
0.12000045057519
31
0.312756164034922
12
0.024650631070434
22
0.12000045057519
32
0.312756164034922
13
0.024650631070434
23
0.0165004505704756
33
0.312756164034922
70
0
0
3DFACE
5
49
330
2F
100
AcDbEntity
8
0
62
0
6
ByLayer
370
-1
48
1.0
60
0
100
AcDbFace
10
0.874650631070116
20
0.0165004505704757
30
2.11224383596508
11
0.874650631070116
21
0.120000450575191
31
2.11224383596508
12
0.024650631070434
22
0.120000450575191
32
2.11224383596508
13
0.024650631070434
23
0.0165004505704757
33
2.11224383596508
70
0
0
3DFACE
5
4A
330
2F
100
AcDbEntity
8
0
62
0
6
ByLayer
370
-1
48
1.0
60
0
100
AcDbFace
10
0.874650631070116
20
0.0165004505704757
30
2.08724383596508
11
0.874650631070116
21
0.120000450575191
31
2.08724383596508
12
0.024650631070434
22
0.120000450575191
32
2.08724383596508
13
0.024650631070434
23
0.0165004505704757
33
2.08724383596508
70
0
0
3DFACE
5
4B
330
2F
100
AcDbEntity
8
0
62
0
6
ByLayer
370
-1
48
1.0
60
0
100
AcDbFace
10
0.024650631070434
20
0.120000450575191
30
2.11224383596508
11
0.024650631070434
21
0.120000450575191
31
2.08724383596508
12
0.024650631070434
22
0.0165004505704757
32
2.08724383596508
13
0.024650631070434
23
0.0165004505704757
33
2.11224383596508
70
0
0
3DFACE
5
4C
330
2F
100
AcDbEntity
8
0
62
0
6
ByLayer
370
-1
48
1.0
60
0
100
AcDbFace
10
0.874650631070116
20
0.0165004505704757
30
2.08724383596508
11
0.874650631070116
21
0.120000450575191
31
2.08724383596508
12
0.874650631070116
22
0.120000450575191
32
2.11224383596508
13
0.874650631070116
23
0.0165004505704757
33
2.11224383596508
70
0
0
3DFACE
5
4D
330
2F
100
AcDbEntity
8
0
62
0
6
ByLayer
370
-1
48
1.0
60
0
100
AcDbFace
10
0.024650631070434
20
0.0165004505704757
30
2.08724383596508
11
0.024650631070434
21
0.120000450575191
31
2.08724383596508
12
0.874650631070116
22
0.120000450575191
32
2.08724383596508
13
0.874650631070116
23
0.0165004505704757
33
2.08724383596508
70
0
0
3DFACE
5
4E
330
2F
100
AcDbEntity
8
0
62
0
6
ByLayer
370
-1
48
1.0
60
0
100
AcDbFace
10
0.874650631070116
20
0.0165004505704757
30
1.81224383596508
11
0.874650631070116
21
0.120000450575191
31
1.81224383596508
12
0.024650631070434
22
0.120000450575191
32
1.81224383596508
13
0.024650631070434
23
0.0165004505704757
33
1.81224383596508
70
0
0
3DFACE
5
4F
330
2F
100
AcDbEntity
8
0
62
0
6
ByLayer
370
-1
48
1.0
60
0
100
AcDbFace
10
0.874650631070116
20
0.0165004505704757
30
1.78724383596508
11
0.874650631070116
21
0.120000450575191
31
1.78724383596508
12
0.024650631070434
22
0.120000450575191
32
1.78724383596508
13
0.024650631070434
23
0.0165004505704757
33
1.78724383596508
70
0
0
3DFACE
5
50
330
2F
100
AcDbEntity
8
0
62
0
6
ByLayer
370
-1
48
1.0
60
0
100
AcDbFace
10
0.024650631070434
20
0.120000450575191
30
1.81224383596508
11
0.024650631070434
21
0.120000450575191
31
1.78724383596508
12
0.024650631070434
22
0.0165004505704757
32
1.78724383596508
13
0.024650631070434
23
0.0165004505704757
33
1.81224383596508
70
0
0
3DFACE
5
51
330
2F
100
AcDbEntity
8
0
62
0
6
ByLayer
370
-1
48
1.0
60
0
100
AcDbFace
10
0.874650631070116
20
0.0165004505704757
30
1.78724383596508
11
0.874650631070116
21
0.120000450575191
31
1.78724383596508
12
0.874650631070116
22
0.120000450575191
32
1.81224383596508
13
0.874650631070116
23
0.0165004505704757
33
1.81224383596508
70
0
0
3DFACE
5
52
330
2F
100
AcDbEntity
8
0
62
0
6
ByLayer
370
-1
48
1.0
60
0
100
AcDbFace
10
0.024650631070434
20
0.0165004505704757
30
1.78724383596508
11
0.024650631070434
21
0.120000450575191
31
1.78724383596508
12
0.874650631070116
22
0.120000450575191
32
1.78724383596508
13
0.874650631070116
23
0.0165004505704757
33
1.78724383596508
70
0
0
3DFACE
5
53
330
2F
100
AcDbEntity
8
0
62
0
6
ByLayer
370
-1
48
1.0
60
0
100
AcDbFace
10
0.874650631070116
20
0.0165004505704757
30
1.51224383596507
11
0.874650631070116
21
0.120000450575191
31
1.51224383596507
12
0.024650631070434
22
0.120000450575191
32
1.51224383596507
13
0.024650631070434
23
0.0165004505704757
33
1.51224383596507
70
0
0
3DFACE
5
54
330
2F
100
AcDbEntity
8
0
62
0
6
ByLayer
370
-1
48
1.0
60
0
100
AcDbFace
10
0.874650631070116
20
0.0165004505704757
30
1.48724383596508
11
0.874650631070116
21
0.120000450575191
31
1.48724383596508
12
0.024650631070434
22
0.120000450575191
32
1.48724383596508
13
0.024650631070434
23
0.0165004505704757
33
1.48724383596508
70
0
0
3DFACE
5
55
330
2F
100
AcDbEntity
8
0
62
0
6
ByLayer
370
-1
48
1.0
60
0
100
AcDbFace
10
0.024650631070434
20
0.120000450575191
30
1.51224383596507
11
0.024650631070434
21
0.120000450575191
31
1.48724383596508
12
0.024650631070434
22
0.0165004505704757
32
1.48724383596508
13
0.024650631070434
23
0.0165004505704757
33
1.51224383596507
70
0
0
3DFACE
5
56
330
2F
100
AcDbEntity
8
0
62
0
6
ByLayer
370
-1
48
1.0
60
0
100
AcDbFace
10
0.024650631070434
20
0.0165004505704757
30
1.48724383596508
11
0.024650631070434
21
0.120000450575191
31
1.48724383596508
12
0.874650631070116
22
0.120000450575191
32
1.48724383596508
13
0.874650631070116
23
0.0165004505704757
33
1.48724383596508
70
0
0
3DFACE
5
57
330
2F
100
AcDbEntity
8
0
62
0
6
ByLayer
370
-1
48
1.0
60
0
100
AcDbFace
10
0.024650631070434
20
0.0165004505704757
30
0.587756164034923
11
0.024650631070434
21
0.120000450575191
31
0.587756164034923
12
0.874650631070116
22
0.120000450575191
32
0.587756164034923
13
0.874650631070116
23
0.0165004505704757
33
0.587756164034923
70
0
0
3DFACE
5
58
330
2F
100
AcDbEntity
8
0
62
0
6
ByLayer
370
-1
48
1.0
60
0
100
AcDbFace
10
0.024650631070434
20
0.0165004505704757
30
0.612756164034923
11
0.024650631070434
21
0.120000450575191
31
0.612756164034923
12
0.874650631070116
22
0.120000450575191
32
0.612756164034923
13
0.874650631070116
23
0.0165004505704757
33
0.612756164034923
70
0
0
3DFACE
5
59
330
2F
100
AcDbEntity
8
0
62
0
6
ByLayer
370
-1
48
1.0
60
0
100
AcDbFace
10
0.024650631070434
20
0.0165004505704757
30
0.587756164034923
11
0.024650631070434
21
0.0165004505704757
31
0.612756164034923
12
0.024650631070434
22
0.120000450575191
32
0.612756164034923
13
0.024650631070434
23
0.120000450575191
33
0.587756164034923
70
0
0
3DFACE
5
5A
330
2F
100
AcDbEntity
8
0
62
0
6
ByLayer
370
-1
48
1.0
60
0
100
AcDbFace
10
0.874650631070116
20
0.0165004505704757
30
0.587756164034923
11
0.874650631070116
21
0.120000450575191
31
0.587756164034923
12
0.874650631070116
22
0.120000450575191
32
0.612756164034923
13
0.874650631070116
23
0.0165004505704757
33
0.612756164034923
70
0
0
3DFACE
5
5B
330
2F
100
AcDbEntity
8
0
62
0
6
ByLayer
370
-1
48
1.0
60
0
100
AcDbFace
10
0.874650631070116
20
0.0165004505704757
30
0.612756164034922
11
0.874650631070116
21
0.120000450575191
31
0.612756164034922
12
0.024650631070434
22
0.120000450575191
32
0.612756164034922
13
0.024650631070434
23
0.0165004505704757
33
0.612756164034922
70
0
0
3DFACE
5
5C
330
2F
100
AcDbEntity
8
0
62
0
6
ByLayer
370
-1
48
1.0
60
0
100
AcDbFace
10
0.024650631070434
20
0.0165004505704757
30
0.887756164034923
11
0.024650631070434
21
0.120000450575191
31
0.887756164034923
12
0.874650631070116
22
0.120000450575191
32
0.887756164034923
13
0.874650631070116
23
0.0165004505704757
33
0.887756164034923
70
0
0
3DFACE
5
5D
330
2F
100
AcDbEntity
8
0
62
0
6
ByLayer
370
-1
48
1.0
60
0
100
AcDbFace
10
0.024650631070434
20
0.0165004505704757
30
0.912756164034923
11
0.024650631070434
21
0.120000450575191
31
0.912756164034923
12
0.874650631070116
22
0.120000450575191
32
0.912756164034923
13
0.874650631070116
23
0.0165004505704757
33
0.912756164034923
70
0
0
3DFACE
5
5E
330
2F
100
AcDbEntity
8
0
62
0
6
ByLayer
370
-1
48
1.0
60
0
100
AcDbFace
10
0.024650631070434
20
0.0165004505704757
30
0.887756164034923
11
0.024650631070434
21
0.0165004505704757
31
0.912756164034923
12
0.024650631070434
22
0.120000450575191
32
0.912756164034923
13
0.024650631070434
23
0.120000450575191
33
0.887756164034923
70
0
0
3DFACE
5
5F
330
2F
100
AcDbEntity
8
0
62
0
6
ByLayer
370
-1
48
1.0
60
0
100
AcDbFace
10
0.874650631070116
20
0.0165004505704757
30
0.887756164034923
11
0.874650631070116
21
0.120000450575191
31
0.887756164034923
12
0.874650631070116
22
0.120000450575191
32
0.912756164034923
13
0.874650631070116
23
0.0165004505704757
33
0.912756164034923
70
0
0
3DFACE
5
60
330
2F
100
AcDbEntity
8
0
62
0
6
ByLayer
370
-1
48
1.0
60
0
100
AcDbFace
10
0.874650631070116
20
0.0165004505704757
30
0.912756164034922
11
0.874650631070116
21
0.120000450575191
31
0.912756164034922
12
0.024650631070434
22
0.120000450575191
32
0.912756164034922
13
0.024650631070434
23
0.0165004505704757
33
0.912756164034922
70
0
0
3DFACE
5
61
330
2F
100
AcDbEntity
8
0
62
0
6
ByLayer
370
-1
48
1.0
60
0
100
AcDbFace
10
0.024650631070434
20
0.0165004505704757
30
1.18775616403492
11
0.024650631070434
21
0.120000450575191
31
1.18775616403492
12
0.874650631070116
22
0.120000450575191
32
1.18775616403492
13
0.874650631070116
23
0.0165004505704757
33
1.18775616403492
70
0
0
3DFACE
5
62
330
2F
100
AcDbEntity
8
0
62
0
6
ByLayer
370
-1
48
1.0
60
0
100
AcDbFace
10
0.024650631070434
20
0.0165004505704757
30
1.21275616403492
11
0.024650631070434
21
0.120000450575191
31
1.21275616403492
12
0.874650631070116
22
0.120000450575191
32
1.21275616403492
13
0.874650631070116
23
0.0165004505704757
33
1.21275616403492
70
0
0
3DFACE
5
63
330
2F
100
AcDbEntity
8
0
62
0
6
ByLayer
370
-1
48
1.0
60
0
100
AcDbFace
10
0.024650631070434
20
0.0165004505704757
30
1.18775616403492
11
0.024650631070434
21
0.0165004505704757
31
1.21275616403492
12
0.024650631070434
22
0.120000450575191
32
1.21275616403492
13
0.024650631070434
23
0.120000450575191
33
1.18775616403492
70
0
0
3DFACE
5
64
330
2F
100
AcDbEntity
8
0
62
0
6
ByLayer
370
-1
48
1.0
60
0
100
AcDbFace
10
0.874650631070116
20
0.0165004505704757
30
1.21275616403492
11
0.874650631070116
21
0.120000450575191
31
1.21275616403492
12
0.024650631070434
22
0.120000450575191
32
1.21275616403492
13
0.024650631070434
23
0.0165004505704757
33
1.21275616403492
70
0
0
3DFACE
5
65
330
2F
100
AcDbEntity
8
0
62
0
6
ByLayer
370
-1
48
1.0
60
0
100
AcDbFace
10
0.102668348889966
20
0.120000004280882
30
2.11223196139495
11
0.102668348889966
21
0.0165000042834436
31
2.11223196139495
12
0.0251093851143933
22
0.0165000042834436
32
2.19535589049985
13
0.0251093851143933
23
0.120000004280882
33
2.19535589049985
70
0
0
3DFACE
5
66
330
2F
100
AcDbEntity
8
0
62
0
6
ByLayer
370
-1
48
1.0
60
0
100
AcDbFace
10
0.0251093851143933
20
0.0165000042834436
30
2.18656092378981
11
0.094462185960384
21
0.0165000042834436
31
2.11223196139495
12
0.094462185960384
22
0.120000004280882
32
2.11223196139495
13
0.0251093851143933
23
0.120000004280882
33
2.18656092378981
70
0
0
3DFACE
5
67
330
2F
100
AcDbEntity
8
0
62
0
6
ByLayer
370
-1
48
1.0
60
0
100
AcDbFace
10
0.0251093851143933
20
0.120000004280882
30
2.18656092378981
11
0.094462185960384
21
0.120000004280882
31
2.11223196139495
12
0.102668348889966
22
0.120000004280882
32
2.11223196139495
13
0.0251093851143933
23
0.120000004280882
33
2.19535589049985
70
0
0
3DFACE
5
68
330
2F
100
AcDbEntity
8
0
62
0
6
ByLayer
370
-1
48
1.0
60
0
100
AcDbFace
10
0.0251093851143933
20
0.0165000042834436
30
2.18656092378981
11
0.094462185960384
21
0.0165000042834436
31
2.11223196139495
12
0.102668348889966
22
0.0165000042834435
32
2.11223196139495
13
0.0251093851143933
23
0.0165000042834436
33
2.19535589049985
70
0
0
3DFACE
5
69
330
2F
100
AcDbEntity
8
0
62
0
6
ByLayer
370
-1
48
1.0
60
0
100
AcDbFace
10
0.0251093851143933
20
0.0165000042834435
30
2.18656092378981
11
0.0251093851143933
21
0.120000004280882
31
2.18656092378981
12
0.0251093851143933
22
0.120000004280882
32
2.19535589049985
13
0.0251093851143933
23
0.0165000042834435
33
2.19535589049985
70
0
0
3DFACE
5
6A
330
2F
100
AcDbEntity
8
0
62
0
6
ByLayer
370
-1
48
1.0
60
0
100
AcDbFace
10
0.0251093851143933
20
0.0165000042834435
30
2.18656092378981
11
0.0251093851143933
21
0.120000004280882
31
2.18656092378981
12
0.094462185960384
22
0.120000004280882
32
2.11223196139495
13
0.094462185960384
23
0.0165000042834436
33
2.11223196139495
70
0
0
3DFACE
5
6B
330
2F
100
AcDbEntity
8
0
62
0
6
ByLayer
370
-1
48
1.0
60
0
100
AcDbFace
10
0.874191877026156
20
0.120000004280883
30
2.19535589049985
11
0.874191877026156
21
0.0165000042834437
31
2.19535589049985
12
0.796632913250583
22
0.0165000042834437
32
2.11223196139495
13
0.796632913250583
23
0.120000004280883
33
2.11223196139495
70
0
0
3DFACE
5
6C
330
2F
100
AcDbEntity
8
0
62
0
6
ByLayer
370
-1
48
1.0
60
0
100
AcDbFace
10
0.874191877026156
20
0.120000004280883
30
2.18656092378981
11
0.804839076180165
21
0.120000004280883
31
2.11223196139495
12
0.804839076180165
22
0.0165000042834437
32
2.11223196139495
13
0.874191877026156
23
0.0165000042834437
33
2.18656092378981
70
0
0
3DFACE
5
6D
330
2F
100
AcDbEntity
8
0
62
0
6
ByLayer
370
-1
48
1.0
60
0
100
AcDbFace
10
0.874191877026156
20
0.120000004280883
30
2.19535589049985
11
0.796632913250583
21
0.120000004280883
31
2.11223196139495
12
0.804839076180165
22
0.120000004280883
32
2.11223196139495
13
0.874191877026156
23
0.120000004280883
33
2.18656092378981
70
0
0
3DFACE
5
6E
330
2F
100
AcDbEntity
8
0
62
0
6
ByLayer
370
-1
48
1.0
60
0
100
AcDbFace
10
0.874191877026156
20
0.0165000042834437
30
2.19535589049985
11
0.796632913250583
21
0.0165000042834437
31
2.11223196139495
12
0.804839076180165
22
0.0165000042834437
32
2.11223196139495
13
0.874191877026156
23
0.0165000042834437
33
2.18656092378981
70
0
0
3DFACE
5
6F
330
2F
100
AcDbEntity
8
0
62
0
6
ByLayer
370
-1
48
1.0
60
0
100
AcDbFace
10
0.874191877026156
20
0.0165000042834437
30
2.19535589049985
11
0.874191877026156
21
0.120000004280883
31
2.19535589049985
12
0.874191877026156
22
0.120000004280883
32
2.18656092378981
13
0.874191877026156
23
0.0165000042834437
33
2.18656092378981
70
0
0
3DFACE
5
70
330
2F
100
AcDbEntity
8
0
62
0
6
ByLayer
370
-1
48
1.0
60
0
100
AcDbFace
10
0.804839076180165
20
0.0165000042834437
30
2.11223196139495
11
0.804839076180165
21
0.120000004280883
31
2.11223196139495
12
0.874191877026156
22
0.120000004280883
32
2.18656092378981
13
0.874191877026156
23
0.0165000042834437
33
2.18656092378981
70
0
0
3DFACE
5
71
330
2F
100
AcDbEntity
8
0
62
0
6
ByLayer
370
-1
48
1.0
60
0
100
AcDbFace
10
0.024650631070434
20
0.0165004505704756
30
0.587756164034923
11
0.024650631070434
21
0.0165004505704756
31
0.612756164034923
12
0.024650631070434
22
0.12000045057519
32
0.612756164034923
13
0.024650631070434
23
0.12000045057519
33
0.587756164034923
70
0
0
3DFACE
5
72
330
2F
100
AcDbEntity
8
0
62
0
6
ByLayer
370
-1
48
1.0
60
0
100
AcDbFace
10
0.874650631070116
20
0.0165004505704756
30
0.587756164034923
11
0.874650631070116
21
0.12000045057519
31
0.587756164034923
12
0.874650631070116
22
0.12000045057519
32
0.612756164034923
13
0.874650631070116
23
0.0165004505704756
33
0.612756164034923
70
0
0
3DFACE
5
73
330
2F
100
AcDbEntity
8
0
62
0
6
ByLayer
370
-1
48
1.0
60
0
100
AcDbFace
10
0.0251093851143933
20
0.120000004280882
30
0.504644109500146
11
0.0251093851143933
21
0.0165000042834435
31
0.504644109500146
12
0.102668348889966
22
0.0165000042834435
32
0.587768038605049
13
0.102668348889966
23
0.120000004280882
33
0.587768038605049
70
0
0
3DFACE
5
74
330
2F
100
AcDbEntity
8
0
62
0
6
ByLayer
370
-1
48
1.0
60
0
100
AcDbFace
10
0.0251093851143933
20
0.120000004280882
30
0.513439076210192
11
0.094462185960384
21
0.120000004280882
31
0.587768038605049
12
0.094462185960384
22
0.0165000042834435
32
0.587768038605049
13
0.0251093851143933
23
0.0165000042834435
33
0.513439076210192
70
0
0
3DFACE
5
75
330
2F
100
AcDbEntity
8
0
62
0
6
ByLayer
370
-1
48
1.0
60
0
100
AcDbFace
10
0.0251093851143933
20
0.120000004280882
30
0.504644109500146
11
0.102668348889966
21
0.120000004280882
31
0.587768038605049
12
0.094462185960384
22
0.120000004280882
32
0.587768038605049
13
0.0251093851143933
23
0.120000004280882
33
0.513439076210192
70
0
0
3DFACE
5
76
330
2F
100
AcDbEntity
8
0
62
0
6
ByLayer
370
-1
48
1.0
60
0
100
AcDbFace
10
0.0251093851143933
20
0.0165000042834435
30
0.504644109500146
11
0.102668348889966
21
0.0165000042834434
31
0.587768038605049
12
0.094462185960384
22
0.0165000042834435
32
0.587768038605049
13
0.0251093851143933
23
0.0165000042834435
33
0.513439076210192
70
0
0
3DFACE
5
77
330
2F
100
AcDbEntity
8
0
62
0
6
ByLayer
370
-1
48
1.0
60
0
100
AcDbFace
10
0.0251093851143933
20
0.0165000042834434
30
0.504644109500146
11
0.0251093851143933
21
0.120000004280882
31
0.504644109500146
12
0.0251093851143933
22
0.120000004280882
32
0.513439076210192
13
0.0251093851143933
23
0.0165000042834434
33
0.513439076210192
70
0
0
3DFACE
5
78
330
2F
100
AcDbEntity
8
0
62
0
6
ByLayer
370
-1
48
1.0
60
0
100
AcDbFace
10
0.094462185960384
20
0.0165000042834435
30
0.587768038605049
11
0.094462185960384
21
0.120000004280882
31
0.587768038605049
12
0.0251093851143933
22
0.120000004280882
32
0.513439076210192
13
0.0251093851143933
23
0.0165000042834434
33
0.513439076210192
70
0
0
3DFACE
5
79
330
2F
100
AcDbEntity
8
0
62
0
6
ByLayer
370
-1
48
1.0
60
0
100
AcDbFace
10
0.796632913250583
20
0.120000004280882
30
0.587768038605049
11
0.796632913250583
21
0.0165000042834436
31
0.587768038605049
12
0.874191877026156
22
0.0165000042834436
32
0.504644109500146
13
0.874191877026156
23
0.120000004280883
33
0.504644109500146
70
0
0
3DFACE
5
7A
330
2F
100
AcDbEntity
8
0
62
0
6
ByLayer
370
-1
48
1.0
60
0
100
AcDbFace
10
0.874191877026156
20
0.0165000042834436
30
0.513439076210192
11
0.804839076180165
21
0.0165000042834436
31
0.587768038605049
12
0.804839076180165
22
0.120000004280882
32
0.587768038605049
13
0.874191877026156
23
0.120000004280883
33
0.513439076210192
70
0
0
3DFACE
5
7B
330
2F
100
AcDbEntity
8
0
62
0
6
ByLayer
370
-1
48
1.0
60
0
100
AcDbFace
10
0.874191877026156
20
0.120000004280883
30
0.513439076210192
11
0.804839076180165
21
0.120000004280882
31
0.587768038605049
12
0.796632913250583
22
0.120000004280882
32
0.587768038605049
13
0.874191877026156
23
0.120000004280883
33
0.504644109500146
70
0
0
3DFACE
5
7C
330
2F
100
AcDbEntity
8
0
62
0
6
ByLayer
370
-1
48
1.0
60
0
100
AcDbFace
10
0.874191877026156
20
0.0165000042834436
30
0.513439076210192
11
0.804839076180165
21
0.0165000042834436
31
0.587768038605049
12
0.796632913250583
22
0.0165000042834436
32
0.587768038605049
13
0.874191877026156
23
0.0165000042834436
33
0.504644109500146
70
0
0
3DFACE
5
7D
330
2F
100
AcDbEntity
8
0
62
0
6
ByLayer
370
-1
48
1.0
60
0
100
AcDbFace
10
0.874191877026156
20
0.0165000042834436
30
0.513439076210192
11
0.874191877026156
21
0.120000004280883
31
0.513439076210192
12
0.874191877026156
22
0.120000004280883
32
0.504644109500146
13
0.874191877026156
23
0.0165000042834436
33
0.504644109500146
70
0
0
3DFACE
5
7E
330
2F
100
AcDbEntity
8
0
62
0
6
ByLayer
370
-1
48
1.0
60
0
100
AcDbFace
10
0.874191877026156
20
0.0165000042834436
30
0.513439076210192
11
0.874191877026156
21
0.120000004280883
31
0.513439076210192
12
0.804839076180165
22
0.120000004280882
32
0.587768038605049
13
0.804839076180165
23
0.0165000042834436
33
0.587768038605049
70
0
0
LWPOLYLINE
5
7F
330
2F
100
AcDbEntity
8
0
62
0
6
ByLayer
370
-1
48
1.0
60
0
100
AcDbPolyline
90
13
70
1
38
0.0
39
2.7
10
0.9
20
0.119999999988067
40
0.0
41
0.0
42
0.0
10
0.874999999999909
20
0.120000000002619
40
0.0
41
0.0
42
0.0
10
0.874999999999909
20
0.0899999999892316
40
0.0
41
0.0
42
0.0
10
0.883988605796185
20
0.0824999999903372
40
0.0
41
0.0
42
0.0
10
0.895856859147125
20
0.0805010550175212
40
0.0
41
0.0
42
0.0
10
0.895879015326409
20
0.0384999999878346
40
0.0
41
0.0
42
0.0
10
0.879000000000042
20
0.0364999999874264
40
0.0
41
0.0
42
0.0
10
0.875000000000042
20
0.0324999999938882
40
0.0
41
0.0
42
0.0
10
0.874999999999818
20
0.0204999999987197
40
0.0
41
0.0
42
0.0
10
0.879000000000037
20
0.0164999999934832
40
0.0
41
0.0
42
0.0
10
0.894078174573133
20
0.0150464246617048
40
0.0
41
0.0
42
0.0
10
0.891963537490392
20
0.0
40
0.0
41
0.0
42
0.0
10
0.9
20
0.0
40
0.0
41
0.0
42
0.0
210
0.0
220
0.0
230
1.0
0
LWPOLYLINE
5
80
330
2F
100
AcDbEntity
8
0
62
0
6
ByLayer
370
-1
48
1.0
60
0
100
AcDbPolyline
90
13
70
1
38
0.0
39
0.9
10
0.119999999988067
20
2.7
40
0.0
41
0.0
42
0.0
10
0.120000000002619
20
2.67499999999991
40
0.0
41
0.0
42
0.0
10
0.0899999999892316
20
2.67499999999991
40
0.0
41
0.0
42
0.0
10
0.0824999999903372
20
2.68398860579619
40
0.0
41
0.0
42
0.0
10
0.0805010550175212
20
2.69585685914713
40
0.0
41
0.0
42
0.0
10
0.0384999999878346
20
2.69587901532641
40
0.0
41
0.0
42
0.0
10
0.0364999999874264
20
2.67900000000004
40
0.0
41
0.0
42
0.0
10
0.0324999999938882
20
2.67500000000004
40
0.0
41
0.0
42
0.0
10
0.0204999999987197
20
2.67499999999982
40
0.0
41
0.0
42
0.0
10
0.0164999999934832
20
2.67900000000004
40
0.0
41
0.0
42
0.0
10
0.0150464246617049
20
2.69407817457313
40
0.0
41
0.0
42
0.0
10
0.0
20
2.69196353749039
40
0.0
41
0.0
42
0.0
10
0.0
20
2.7
40
0.0
41
0.0
42
0.0
210
1.0
220
0.0
230
-0.0000000000000002
0
LWPOLYLINE
5
81
330
2F
100
AcDbEntity
8
0
62
0
6
ByLayer
370
-1
48
1.0
60
0
100
AcDbPolyline
90
13
70
1
38
0.0
39
2.7
10
0.0000000000000007
20
0.119999999988067
40
0.0
41
0.0
42
0.0
10
0.0250000000000916
20
0.120000000002619
40
0.0
41
0.0
42
0.0
10
0.0250000000000916
20
0.0899999999892314
40
0.0
41
0.0
42
0.0
10
0.0160113942038158
20
0.0824999999903371
40
0.0
41
0.0
42
0.0
10
0.0041431408528758
20
0.080501055017521
40
0.0
41
0.0
42
0.0
10
0.0041209846735917
20
0.0384999999878345
40
0.0
41
0.0
42
0.0
10
0.0209999999999588
20
0.0364999999874262
40
0.0
41
0.0
42
0.0
10
0.0249999999999588
20
0.0324999999938881
40
0.0
41
0.0
42
0.0
10
0.025000000000183
20
0.0204999999987195
40
0.0
41
0.0
42
0.0
10
0.0209999999999645
20
0.016499999993483
40
0.0
41
0.0
42
0.0
10
0.0059218254268678
20
0.0150464246617047
40
0.0
41
0.0
42
0.0
10
0.0080364625096088
20
-0.0000000000000002
40
0.0
41
0.0
42
0.0
10
0.0000000000000009
20
-0.0000000000000002
40
0.0
41
0.0
42
0.0
210
0.0
220
0.0
230
1.0
0
LWPOLYLINE
5
82
330
2F
100
AcDbEntity
8
0
62
0
6
ByLayer
370
-1
48
1.0
60
0
100
AcDbPolyline
90
13
70
1
38
0.0
39
0.9
10
0.119999999988067
20
0.0
40
0.0
41
0.0
42
0.0
10
0.120000000002619
20
0.025000000000091
40
0.0
41
0.0
42
0.0
10
0.0899999999892316
20
0.025000000000091
40
0.0
41
0.0
42
0.0
10
0.0824999999903372
20
0.0160113942038152
40
0.0
41
0.0
42
0.0
10
0.0805010550175212
20
0.0041431408528752
40
0.0
41
0.0
42
0.0
10
0.0384999999878346
20
0.004120984673591
40
0.0
41
0.0
42
0.0
10
0.0364999999874264
20
0.0209999999999582
40
0.0
41
0.0
42
0.0
10
0.0324999999938882
20
0.0249999999999582
40
0.0
41
0.0
42
0.0
10
0.0204999999987197
20
0.025000000000182
40
0.0
41
0.0
42
0.0
10
0.0164999999934832
20
0.0209999999999635
40
0.0
41
0.0
42
0.0
10
0.0150464246617049
20
0.0059218254268671
40
0.0
41
0.0
42
0.0
10
0.0
20
0.0080364625096081
40
0.0
41
0.0
42
0.0
10
0.0
20
0.0
40
0.0
41
0.0
42
0.0
210
1.0
220
0.0
230
0.0000000000000002
0
LWPOLYLINE
5
83
330
2F
100
AcDbEntity
8
0
62
0
6
ByLayer
370
-1
48
1.0
60
0
100
AcDbPolyline
90
13
70
1
38
0.0
39
0.9
10
0.119999999988067
20
0.0
40
0.0
41
0.0
42
0.0
10
0.120000000002619
20
0.025000000000091
40
0.0
41
0.0
42
0.0
10
0.0899999999892314
20
0.025000000000091
40
0.0
41
0.0
42
0.0
10
0.082499999990337
20
0.0160113942038152
40
0.0
41
0.0
42
0.0
10
0.080501055017521
20
0.0041431408528752
40
0.0
41
0.0
42
0.0
10
0.0384999999878345
20
0.004120984673591
40
0.0
41
0.0
42
0.0
10
0.0364999999874262
20
0.0209999999999582
40
0.0
41
0.0
42
0.0
10
0.032499999993888
20
0.0249999999999582
40
0.0
41
0.0
42
0.0
10
0.0204999999987195
20
0.025000000000182
40
0.0
41
0.0
42
0.0
10
0.016499999993483
20
0.0209999999999635
40
0.0
41
0.0
42
0.0
10
0.0150464246617047
20
0.0059218254268671
40
0.0
41
0.0
42
0.0
10
-0.0000000000000001
20
0.0080364625096081
40
0.0
41
0.0
42
0.0
10
-0.0000000000000001
20
0.0
40
0.0
41
0.0
42
0.0
210
1.0
220
0.0
230
0.0000000000000002
0
CIRCLE
5
84
330
2F
100
AcDbEntity
8
0
62
0
6
ByLayer
370
-1
48
1.0
60
0
100
AcDbCircle
10
0.0746506310701611
20
0.080000456140425
30
2.41224383596508
40
0.012
39
0.0
210
0.0
220
0.0
230
1.0
0
CIRCLE
5
85
330
2F
100
AcDbEntity
8
0
62
0
6
ByLayer
370
-1
48
1.0
60
0
100
AcDbCircle
10
0.149650631070434
20
0.070000457535372
30
2.41224383596508
40
0.012
39
0.0
210
0.0
220
0.0
230
1.0
0
CIRCLE
5
86
330
2F
100
AcDbEntity
8
0
62
0
6
ByLayer
370
-1
48
1.0
60
0
100
AcDbCircle
10
0.224650631070252
20
0.070000457535372
30
2.41224383596508
40
0.012
39
0.0
210
0.0
220
0.0
230
1.0
0
CIRCLE
5
87
330
2F
100
AcDbEntity
8
0
62
0
6
ByLayer
370
-1
48
1.0
60
0
100
AcDbCircle
10
0.749650631070116
20
0.0800004561404254
30
2.41224383596508
40
0.012
39
0.0
210
0.0
220
0.0
230
1.0
0
CIRCLE
5
88
330
2F
100
AcDbEntity
8
0
62
0
6
ByLayer
370
-1
48
1.0
60
0
100
AcDbCircle
10
0.0700004672706033
20
2.53718053419457
30
0.287147381658504
40
0.012
39
0.0
210
1.0
220
0.0
230
0.0
0
CIRCLE
5
89
330
2F
100
AcDbEntity
8
0
62
0
6
ByLayer
370
-1
48
1.0
60
0
100
AcDbCircle
10
0.0800004672726406
20
2.46218053419457
30
0.287147381658504
40
0.012
39
0.0
210
1.0
220
0.0
230
0.0
0
CIRCLE
5
8A
330
2F
100
AcDbEntity
8
0
62
0
6
ByLayer
370
-1
48
1.0
60
0
100
AcDbCircle
10
0.0700004672706033
20
2.53718053419457
30
0.312147381658595
40
0.012
39
0.0
210
1.0
220
0.0
230
0.0
0
CIRCLE
5
8B
330
2F
100
AcDbEntity
8
0
62
0
6
ByLayer
370
-1
48
1.0
60
0
100
AcDbCircle
10
0.0800004672726406
20
2.46218053419457
30
0.312147381658595
40
0.012
39
0.0
210
1.0
220
0.0
230
0.0
0
CIRCLE
5
8C
330
2F
100
AcDbEntity
8
0
62
0
6
ByLayer
370
-1
48
1.0
60
0
100
AcDbCircle
10
-0.0700004672706031
20
2.53718053419457
30
-0.612153880482045
40
0.012
39
0.0
210
-1.0
220
-0.0000000000000004
230
0.0
0
CIRCLE
5
8D
330
2F
100
AcDbEntity
8
0
62
0
6
ByLayer
370
-1
48
1.0
60
0
100
AcDbCircle
10
-0.0800004672726403
20
2.46218053419457
30
-0.612153880482045
40
0.012
39
0.0
210
-1.0
220
-0.0000000000000004
230
0.0
0
CIRCLE
5
8E
330
2F
100
AcDbEntity
8
0
62
0
6
ByLayer
370
-1
48
1.0
60
0
100
AcDbCircle
10
-0.0700004672706031
20
2.53718053419457
30
-0.587153880481954
40
0.012
39
0.0
210
-1.0
220
-0.0000000000000004
230
0.0
0
CIRCLE
5
8F
330
2F
100
AcDbEntity
8
0
62
0
6
ByLayer
370
-1
48
1.0
60
0
100
AcDbCircle
10
-0.0800004672726403
20
2.46218053419457
30
-0.587153880481954
40
0.012
39
0.0
210
-1.0
220
-0.0000000000000004
230
0.0
0
CIRCLE
5
90
330
2F
100
AcDbEntity
8
0
62
0
6
ByLayer
370
-1
48
1.0
60
0
100
AcDbCircle
10
-0.0746506310701611
20
0.0800004561404247
30
-2.38724383596508
40
0.012
39
0.0
210
0.0
220
-0.0000000000000001
230
-1.0
0
CIRCLE
5
91
330
2F
100
AcDbEntity
8
0
62
0
6
ByLayer
370
-1
48
1.0
60
0
100
AcDbCircle
10
-0.149650631070434
20
0.0700004575353717
30
-2.38724383596508
40
0.012
39
0.0
210
0.0
220
-0.0000000000000001
230
-1.0
0
CIRCLE
5
92
330
2F
100
AcDbEntity
8
0
62
0
6
ByLayer
370
-1
48
1.0
60
0
100
AcDbCircle
10
-0.224650631070252
20
0.0700004575353717
30
-2.38724383596508
40
0.012
39
0.0
210
0.0
220
-0.0000000000000001
230
-1.0
0
CIRCLE
5
93
330
2F
100
AcDbEntity
8
0
62
0
6
ByLayer
370
-1
48
1.0
60
0
100
AcDbCircle
10
-0.749650631070116
20
0.0800004561404251
30
-2.38724383596508
40
0.012
39
0.0
210
0.0
220
-0.0000000000000001
230
-1.0
0
CIRCLE
5
94
330
2F
100
AcDbEntity
8
0
62
0
6
ByLayer
370
-1
48
1.0
60
0
100
AcDbCircle
10
-0.0746506310701611
20
0.0800004561404248
30
-0.287756164034923
40
0.012
39
0.0
210
0.0
220
-0.0000000000000001
230
-1.0
0
CIRCLE
5
95
330
2F
100
AcDbEntity
8
0
62
0
6
ByLayer
370
-1
48
1.0
60
0
100
AcDbCircle
10
-0.149650631070434
20
0.0700004575353718
30
-0.287756164034923
40
0.012
39
0.0
210
0.0
220
-0.0000000000000001
230
-1.0
0
CIRCLE
5
96
330
2F
100
AcDbEntity
8
0
62
0
6
ByLayer
370
-1
48
1.0
60
0
100
AcDbCircle
10
-0.224650631070252
20
0.0700004575353718
30
-0.287756164034923
40
0.012
39
0.0
210
0.0
220
-0.0000000000000001
230
-1.0
0
CIRCLE
5
97
330
2F
100
AcDbEntity
8
0
62
0
6
ByLayer
370
-1
48
1.0
60
0
100
AcDbCircle
10
-0.749650631070116
20
0.0800004561404252
30
-0.287756164034923
40
0.012
39
0.0
210
0.0
220
-0.0000000000000001
230
-1.0
0
CIRCLE
5
98
330
2F
100
AcDbEntity
8
0
62
0
6
ByLayer
370
-1
48
1.0
60
0
100
AcDbCircle
10
0.0700004672706031
20
0.162819465805427
30
0.287147381658504
40
0.012
39
0.0
210
1.0
220
0.0
230
0.0
0
CIRCLE
5
99
330
2F
100
AcDbEntity
8
0
62
0
6
ByLayer
370
-1
48
1.0
60
0
100
AcDbCircle
10
0.0800004672726404
20
0.237819465805426
30
0.287147381658504
40
0.012
39
0.0
210
1.0
220
0.0
230
0.0
0
CIRCLE
5
9A
330
2F
100
AcDbEntity
8
0
62
0
6
ByLayer
370
-1
48
1.0
60
0
100
AcDbCircle
10
0.0700004672706031
20
0.162819465805427
30
0.312147381658595
40
0.012
39
0.0
210
1.0
220
0.0
230
0.0
0
CIRCLE
5
9B
330
2F
100
AcDbEntity
8
0
62
0
6
ByLayer
370
-1
48
1.0
60
0
100
AcDbCircle
10
0.0800004672726404
20
0.237819465805426
30
0.312147381658595
40
0.012
39
0.0
210
1.0
220
0.0
230
0.0
0
CIRCLE
5
9C
330
2F
100
AcDbEntity
8
0
62
0
6
ByLayer
370
-1
48
1.0
60
0
100
AcDbCircle
10
-0.0700004672706029
20
0.162819465805427
30
-0.612153880482045
40
0.012
39
0.0
210
-1.0
220
-0.0000000000000004
230
0.0
0
CIRCLE
5
9D
330
2F
100
AcDbEntity
8
0
62
0
6
ByLayer
370
-1
48
1.0
60
0
100
AcDbCircle
10
-0.0800004672726402
20
0.237819465805426
30
-0.612153880482045
40
0.012
39
0.0
210
-1.0
220
-0.0000000000000004
230
0.0
0
CIRCLE
5
9E
330
2F
100
AcDbEntity
8
0
62
0
6
ByLayer
370
-1
48
1.0
60
0
100
AcDbCircle
10
-0.0700004672706029
20
0.162819465805427
30
-0.587153880481954
40
0.012
39
0.0
210
-1.0
220
-0.0000000000000004
230
0.0
0
CIRCLE
5
9F
330
2F
100
AcDbEntity
8
0
62
0
6
ByLayer
370
-1
48
1.0
60
0
100
AcDbCircle
10
-0.0800004672726402
20
0.237819465805426
30
-0.587153880481954
40
0.012
39
0.0
210
-1.0
220
-0.0000000000000004
230
0.0
0
CIRCLE
5
A0
330
2F
100
AcDbEntity
8
0
62
0
6
ByLayer
370
-1
48
1.0
60
0
100
AcDbCircle
10
0.0746506310701611
20
0.0800004561404248
30
0.312756164034922
40
0.012
39
0.0
210
0.0
220
0.0
230
1.0
0
CIRCLE
5
A1
330
2F
100
AcDbEntity
8
0
62
0
6
ByLayer
370
-1
48
1.0
60
0
100
AcDbCircle
10
0.149650631070434
20
0.0700004575353719
30
0.312756164034922
40
0.012
39
0.0
210
0.0
220
0.0
230
1.0
0
CIRCLE
5
A2
330
2F
100
AcDbEntity
8
0
62
0
6
ByLayer
370
-1
48
1.0
60
0
100
AcDbCircle
10
0.224650631070252
20
0.0700004575353719
30
0.312756164034922
40
0.012
39
0.0
210
0.0
220
0.0
230
1.0
0
CIRCLE
5
A3
330
2F
100
AcDbEntity
8
0
62
0
6
ByLayer
370
-1
48
1.0
60
0
100
AcDbCircle
10
0.749650631070116
20
0.0800004561404253
30
0.312756164034922
40
0.012
39
0.0
210
0.0
220
0.0
230
1.0
0
CIRCLE
5
A4
330
2F
100
AcDbEntity
8
0
62
0
6
ByLayer
370
-1
48
1.0
60
0
100
AcDbCircle
10
0.448557216266409
20
0.0684484198791323
30
2.28670981767374
40
0.0075
39
0.1
210
0.0
220
0.0
230
1.0
0
CIRCLE
5
A5
330
2F
100
AcDbEntity
8
0
62
0
6
ByLayer
370
-1
48
1.0
60
0
100
AcDbCircle
10
0.0684484198791322
20
2.29410446050305
30
0.355994204418838
40
0.0075
39
0.1
210
1.0
220
0.0000000000000001
230
-0.0000000000000002
0
CIRCLE
5
A6
330
2F
100
AcDbEntity
8
0
62
0
6
ByLayer
370
-1
48
1.0
60
0
100
AcDbCircle
10
-0.448557216266409
20
0.0684484198791323
30
-0.413290182326257
40
0.0075
39
0.1
210
0.0
220
0.0
230
-1.0
0
CIRCLE
5
A7
330
2F
100
AcDbEntity
8
0
62
0
6
ByLayer
370
-1
48
1.0
60
0
100
AcDbCircle
10
0.0684484198791322
20
0.405895539496945
30
0.355994204418839
40
0.0075
39
0.1
210
1.0
220
0.0000000000000001
230
0.0000000000000002
0
CIRCLE
5
A8
330
2F
100
AcDbEntity
8
0
62
0
6
ByLayer
370
-1
48
1.0
60
0
100
AcDbCircle
10
0.0746506310701611
20
0.080000456140425
30
2.11224383596508
40
0.012
39
0.0
210
0.0
220
0.0
230
1.0
0
CIRCLE
5
A9
330
2F
100
AcDbEntity
8
0
62
0
6
ByLayer
370
-1
48
1.0
60
0
100
AcDbCircle
10
0.149650631070434
20
0.070000457535372
30
2.11224383596508
40
0.012
39
0.0
210
0.0
220
0.0
230
1.0
0
CIRCLE
5
AA
330
2F
100
AcDbEntity
8
0
62
0
6
ByLayer
370
-1
48
1.0
60
0
100
AcDbCircle
10
0.224650631070252
20
0.070000457535372
30
2.11224383596508
40
0.012
39
0.0
210
0.0
220
0.0
230
1.0
0
CIRCLE
5
AB
330
2F
100
AcDbEntity
8
0
62
0
6
ByLayer
370
-1
48
1.0
60
0
100
AcDbCircle
10
0.749650631070116
20
0.0800004561404254
30
2.11224383596508
40
0.012
39
0.0
210
0.0
220
0.0
230
1.0
0
CIRCLE
5
AC
330
2F
100
AcDbEntity
8
0
62
0
6
ByLayer
370
-1
48
1.0
60
0
100
AcDbCircle
10
-0.0746506310701611
20
0.0800004561404247
30
-2.08724383596508
40
0.012
39
0.0
210
0.0
220
-0.0000000000000001
230
-1.0
0
CIRCLE
5
AD
330
2F
100
AcDbEntity
8
0
62
0
6
ByLayer
370
-1
48
1.0
60
0
100
AcDbCircle
10
-0.149650631070434
20
0.0700004575353718
30
-2.08724383596508
40
0.012
39
0.0
210
0.0
220
-0.0000000000000001
230
-1.0
0
CIRCLE
5
AE
330
2F
100
AcDbEntity
8
0
62
0
6
ByLayer
370
-1
48
1.0
60
0
100
AcDbCircle
10
-0.224650631070252
20
0.0700004575353718
30
-2.08724383596508
40
0.012
39
0.0
210
0.0
220
-0.0000000000000001
230
-1.0
0
CIRCLE
5
AF
330
2F
100
AcDbEntity
8
0
62
0
6
ByLayer
370
-1
48
1.0
60
0
100
AcDbCircle
10
-0.749650631070116
20
0.0800004561404252
30
-2.08724383596508
40
0.012
39
0.0
210
0.0
220
-0.0000000000000001
230
-1.0
0
CIRCLE
5
B0
330
2F
100
AcDbEntity
8
0
62
0
6
ByLayer
370
-1
48
1.0
60
0
100
AcDbCircle
10
0.0746506310701611
20
0.080000456140425
30
1.81224383596508
40
0.012
39
0.0
210
0.0
220
0.0
230
1.0
0
CIRCLE
5
B1
330
2F
100
AcDbEntity
8
0
62
0
6
ByLayer
370
-1
48
1.0
60
0
100
AcDbCircle
10
0.149650631070434
20
0.070000457535372
30
1.81224383596508
40
0.012
39
0.0
210
0.0
220
0.0
230
1.0
0
CIRCLE
5
B2
330
2F
100
AcDbEntity
8
0
62
0
6
ByLayer
370
-1
48
1.0
60
0
100
AcDbCircle
10
0.224650631070252
20
0.070000457535372
30
1.81224383596508
40
0.012
39
0.0
210
0.0
220
0.0
230
1.0
0
CIRCLE
5
B3
330
2F
100
AcDbEntity
8
0
62
0
6
ByLayer
370
-1
48
1.0
60
0
100
AcDbCircle
10
0.749650631070116
20
0.0800004561404254
30
1.81224383596508
40
0.012
39
0.0
210
0.0
220
0.0
230
1.0
0
CIRCLE
5
B4
330
2F
100
AcDbEntity
8
0
62
0
6
ByLayer
370
-1
48
1.0
60
0
100
AcDbCircle
10
-0.0746506310701611
20
0.0800004561404247
30
-1.78724383596508
40
0.012
39
0.0
210
0.0
220
-0.0000000000000001
230
-1.0
0
CIRCLE
5
B5
330
2F
100
AcDbEntity
8
0
62
0
6
ByLayer
370
-1
48
1.0
60
0
100
AcDbCircle
10
-0.149650631070434
20
0.0700004575353718
30
-1.78724383596508
40
0.012
39
0.0
210
0.0
220
-0.0000000000000001
230
-1.0
0
CIRCLE
5
B6
330
2F
100
AcDbEntity
8
0
62
0
6
ByLayer
370
-1
48
1.0
60
0
100
AcDbCircle
10
-0.224650631070252
20
0.0700004575353718
30
-1.78724383596508
40
0.012
39
0.0
210
0.0
220
-0.0000000000000001
230
-1.0
0
CIRCLE
5
B7
330
2F
100
AcDbEntity
8
0
62
0
6
ByLayer
370
-1
48
1.0
60
0
100
AcDbCircle
10
-0.749650631070116
20
0.0800004561404252
30
-1.78724383596508
40
0.012
39
0.0
210
0.0
220
-0.0000000000000001
230
-1.0
0
CIRCLE
5
B8
330
2F
100
AcDbEntity
8
0
62
0
6
ByLayer
370
-1
48
1.0
60
0
100
AcDbCircle
10
0.0746506310701611
20
0.080000456140425
30
1.51224383596507
40
0.012
39
0.0
210
0.0
220
0.0
230
1.0
0
CIRCLE
5
B9
330
2F
100
AcDbEntity
8
0
62
0
6
ByLayer
370
-1
48
1.0
60
0
100
AcDbCircle
10
-0.0746506310701611
20
0.0800004561404248
30
-1.48724383596508
40
0.012
39
0.0
210
0.0
220
-0.0000000000000001
230
-1.0
0
CIRCLE
5
BA
330
2F
100
AcDbEntity
8
0
62
0
6
ByLayer
370
-1
48
1.0
60
0
100
AcDbCircle
10
-0.0746506310701611
20
0.080000456140425
30
-0.587756164034923
40
0.012
39
0.0
210
0.0
220
0.0
230
-1.0
0
CIRCLE
5
BB
330
2F
100
AcDbEntity
8
0
62
0
6
ByLayer
370
-1
48
1.0
60
0
100
AcDbCircle
10
-0.149650631070434
20
0.070000457535372
30
-0.587756164034923
40
0.012
39
0.0
210
0.0
220
0.0
230
-1.0
0
CIRCLE
5
BC
330
2F
100
AcDbEntity
8
0
62
0
6
ByLayer
370
-1
48
1.0
60
0
100
AcDbCircle
10
-0.224650631070252
20
0.070000457535372
30
-0.587756164034923
40
0.012
39
0.0
210
0.0
220
0.0
230
-1.0
0
CIRCLE
5
BD
330
2F
100
AcDbEntity
8
0
62
0
6
ByLayer
370
-1
48
1.0
60
0
100
AcDbCircle
10
-0.749650631070116
20
0.0800004561404254
30
-0.587756164034923
40
0.012
39
0.0
210
0.0
220
0.0
230
-1.0
0
CIRCLE
5
BE
330
2F
100
AcDbEntity
8
0
62
0
6
ByLayer
370
-1
48
1.0
60
0
100
AcDbCircle
10
0.0746506310701611
20
0.080000456140425
30
0.612756164034922
40
0.012
39
0.0
210
0.0
220
0.0
230
1.0
0
CIRCLE
5
BF
330
2F
100
AcDbEntity
8
0
62
0
6
ByLayer
370
-1
48
1.0
60
0
100
AcDbCircle
10
0.149650631070434
20
0.070000457535372
30
0.612756164034922
40
0.012
39
0.0
210
0.0
220
0.0
230
1.0
0
CIRCLE
5
C0
330
2F
100
AcDbEntity
8
0
62
0
6
ByLayer
370
-1
48
1.0
60
0
100
AcDbCircle
10
0.224650631070252
20
0.070000457535372
30
0.612756164034922
40
0.012
39
0.0
210
0.0
220
0.0
230
1.0
0
CIRCLE
5
C1
330
2F
100
AcDbEntity
8
0
62
0
6
ByLayer
370
-1
48
1.0
60
0
100
AcDbCircle
10
0.749650631070116
20
0.0800004561404254
30
0.612756164034922
40
0.012
39
0.0
210
0.0
220
0.0
230
1.0
0
CIRCLE
5
C2
330
2F
100
AcDbEntity
8
0
62
0
6
ByLayer
370
-1
48
1.0
60
0
100
AcDbCircle
10
-0.0746506310701611
20
0.080000456140425
30
-0.887756164034923
40
0.012
39
0.0
210
0.0
220
0.0
230
-1.0
0
CIRCLE
5
C3
330
2F
100
AcDbEntity
8
0
62
0
6
ByLayer
370
-1
48
1.0
60
0
100
AcDbCircle
10
-0.149650631070434
20
0.070000457535372
30
-0.887756164034923
40
0.012
39
0.0
210
0.0
220
0.0
230
-1.0
0
CIRCLE
5
C4
330
2F
100
AcDbEntity
8
0
62
0
6
ByLayer
370
-1
48
1.0
60
0
100
AcDbCircle
10
-0.224650631070252
20
0.070000457535372
30
-0.887756164034923
40
0.012
39
0.0
210
0.0
220
0.0
230
-1.0
0
CIRCLE
5
C5
330
2F
100
AcDbEntity
8
0
62
0
6
ByLayer
370
-1
48
1.0
60
0
100
AcDbCircle
10
-0.749650631070116
20
0.0800004561404254
30
-0.887756164034923
40
0.012
39
0.0
210
0.0
220
0.0
230
-1.0
0
CIRCLE
5
C6
330
2F
100
AcDbEntity
8
0
62
0
6
ByLayer
370
-1
48
1.0
60
0
100
AcDbCircle
10
0.0746506310701611
20
0.080000456140425
30
0.912756164034922
40
0.012
39
0.0
210
0.0
220
0.0
230
1.0
0
CIRCLE
5
C7
330
2F
100
AcDbEntity
8
0
62
0
6
ByLayer
370
-1
48
1.0
60
0
100
AcDbCircle
10
0.149650631070434
20
0.070000457535372
30
0.912756164034922
40
0.012
39
0.0
210
0.0
220
0.0
230
1.0
0
CIRCLE
5
C8
330
2F
100
AcDbEntity
8
0
62
0
6
ByLayer
370
-1
48
1.0
60
0
100
AcDbCircle
10
0.224650631070252
20
0.070000457535372
30
0.912756164034922
40
0.012
39
0.0
210
0.0
220
0.0
230
1.0
0
CIRCLE
5
C9
330
2F
100
AcDbEntity
8
0
62
0
6
ByLayer
370
-1
48
1.0
60
0
100
AcDbCircle
10
0.749650631070116
20
0.0800004561404254
30
0.912756164034922
40
0.012
39
0.0
210
0.0
220
0.0
230
1.0
0
CIRCLE
5
CA
330
2F
100
AcDbEntity
8
0
62
0
6
ByLayer
370
-1
48
1.0
60
0
100
AcDbCircle
10
-0.0746506310701611
20
0.080000456140425
30
-1.18775616403492
40
0.012
39
0.0
210
0.0
220
0.0
230
-1.0
0
CIRCLE
5
CB
330
2F
100
AcDbEntity
8
0
62
0
6
ByLayer
370
-1
48
1.0
60
0
100
AcDbCircle
10
0.0746506310701611
20
0.080000456140425
30
1.21275616403492
40
0.012
39
0.0
210
0.0
220
0.0
230
1.0
0
CIRCLE
5
CC
330
2F
100
AcDbEntity
8
0
62
0
6
ByLayer
370
-1
48
1.0
60
0
100
AcDbCircle
10
-0.0746506310701611
20
0.0800004561404248
30
-0.587756164034923
40
0.012
39
0.0
210
0.0
220
-0.0000000000000001
230
-1.0
0
CIRCLE
5
CD
330
2F
100
AcDbEntity
8
0
62
0
6
ByLayer
370
-1
48
1.0
60
0
100
AcDbCircle
10
0.0746506310701611
20
0.0800004561404249
30
0.612756164034922
40
0.012
39
0.0
210
0.0
220
0.0
230
1.0
0
POINT
5
CE
330
2F
100
AcDbEntity
8
0
62
0
6
ByLayer
370
-1
48
1.0
60
0
100
AcDbPoint
10
0.0746506310701611
20
0.080000456140425
30
2.41224383596508
39
0.0
210
0.0
220
0.0
230
1.0
50
360.0
0
POINT
5
CF
330
2F
100
AcDbEntity
8
0
62
0
6
ByLayer
370
-1
48
1.0
60
0
100
AcDbPoint
10
0.149650631070434
20
0.070000457535372
30
2.41224383596508
39
0.0
210
0.0
220
0.0
230
1.0
50
360.0
0
POINT
5
D0
330
2F
100
AcDbEntity
8
0
62
0
6
ByLayer
370
-1
48
1.0
60
0
100
AcDbPoint
10
0.224650631070252
20
0.070000457535372
30
2.41224383596508
39
0.0
210
0.0
220
0.0
230
1.0
50
360.0
0
POINT
5
D1
330
2F
100
AcDbEntity
8
0
62
0
6
ByLayer
370
-1
48
1.0
60
0
100
AcDbPoint
10
0.312147381658595
20
0.0700004672706033
30
2.53718053419457
39
0.0
210
0.0
220
0.0
230
1.0
50
360.0
0
POINT
5
D2
330
2F
100
AcDbEntity
8
0
62
0
6
ByLayer
370
-1
48
1.0
60
0
100
AcDbPoint
10
0.312147381658595
20
0.0800004672726406
30
2.46218053419457
39
0.0
210
0.0
220
0.0
230
1.0
50
360.0
0
POINT
5
D3
330
2F
100
AcDbEntity
8
0
62
0
6
ByLayer
370
-1
48
1.0
60
0
100
AcDbPoint
10
0.612153880482045
20
0.0700004672706034
30
2.53718053419457
39
0.0
210
0.0
220
0.0
230
1.0
50
360.0
0
POINT
5
D4
330
2F
100
AcDbEntity
8
0
62
0
6
ByLayer
370
-1
48
1.0
60
0
100
AcDbPoint
10
0.612153880482045
20
0.0800004672726406
30
2.46218053419457
39
0.0
210
0.0
220
0.0
230
1.0
50
360.0
0
POINT
5
D5
330
2F
100
AcDbEntity
8
0
62
0
6
ByLayer
370
-1
48
1.0
60
0
100
AcDbPoint
10
0.749650631070116
20
0.0800004561404254
30
2.41224383596508
39
0.0
210
0.0
220
0.0
230
1.0
50
360.0
0
POINT
5
D6
330
2F
100
AcDbEntity
8
0
62
0
6
ByLayer
370
-1
48
1.0
60
0
100
AcDbPoint
10
0.149650631070434
20
0.070000457535372
30
2.11224383596508
39
0.0
210
0.0
220
0.0
230
1.0
50
360.0
0
POINT
5
D7
330
2F
100
AcDbEntity
8
0
62
0
6
ByLayer
370
-1
48
1.0
60
0
100
AcDbPoint
10
0.224650631070252
20
0.070000457535372
30
2.11224383596508
39
0.0
210
0.0
220
0.0
230
1.0
50
360.0
0
POINT
5
D8
330
2F
100
AcDbEntity
8
0
62
0
6
ByLayer
370
-1
48
1.0
60
0
100
AcDbPoint
10
0.749650631070116
20
0.0800004561404254
30
2.11224383596508
39
0.0
210
0.0
220
0.0
230
1.0
50
360.0
0
POINT
5
D9
330
2F
100
AcDbEntity
8
0
62
0
6
ByLayer
370
-1
48
1.0
60
0
100
AcDbPoint
10
0.0746506310701611
20
0.080000456140425
30
1.81224383596508
39
0.0
210
0.0
220
0.0
230
1.0
50
360.0
0
POINT
5
DA
330
2F
100
AcDbEntity
8
0
62
0
6
ByLayer
370
-1
48
1.0
60
0
100
AcDbPoint
10
0.149650631070434
20
0.070000457535372
30
1.81224383596508
39
0.0
210
0.0
220
0.0
230
1.0
50
360.0
0
POINT
5
DB
330
2F
100
AcDbEntity
8
0
62
0
6
ByLayer
370
-1
48
1.0
60
0
100
AcDbPoint
10
0.224650631070252
20
0.070000457535372
30
1.81224383596508
39
0.0
210
0.0
220
0.0
230
1.0
50
360.0
0
POINT
5
DC
330
2F
100
AcDbEntity
8
0
62
0
6
ByLayer
370
-1
48
1.0
60
0
100
AcDbPoint
10
0.0746506310701611
20
0.080000456140425
30
1.51224383596507
39
0.0
210
0.0
220
0.0
230
1.0
50
360.0
0
POINT
5
DD
330
2F
100
AcDbEntity
8
0
62
0
6
ByLayer
370
-1
48
1.0
60
0
100
AcDbPoint
10
0.749650631070116
20
0.0800004561404254
30
1.81224383596508
39
0.0
210
0.0
220
0.0
230
1.0
50
360.0
0
POINT
5
DE
330
2F
100
AcDbEntity
8
0
62
0
6
ByLayer
370
-1
48
1.0
60
0
100
AcDbPoint
10
0.0746506310701611
20
0.080000456140425
30
1.21275616403492
39
0.0
210
0.0
220
0.0
230
1.0
50
360.0
0
POINT
5
DF
330
2F
100
AcDbEntity
8
0
62
0
6
ByLayer
370
-1
48
1.0
60
0
100
AcDbPoint
10
0.0746506310701611
20
0.080000456140425
30
0.912756164034922
39
0.0
210
0.0
220
0.0
230
1.0
50
360.0
0
POINT
5
E0
330
2F
100
AcDbEntity
8
0
62
0
6
ByLayer
370
-1
48
1.0
60
0
100
AcDbPoint
10
0.149650631070434
20
0.070000457535372
30
0.912756164034922
39
0.0
210
0.0
220
0.0
230
1.0
50
360.0
0
POINT
5
E1
330
2F
100
AcDbEntity
8
0
62
0
6
ByLayer
370
-1
48
1.0
60
0
100
AcDbPoint
10
0.224650631070252
20
0.070000457535372
30
0.912756164034922
39
0.0
210
0.0
220
0.0
230
1.0
50
360.0
0
POINT
5
E2
330
2F
100
AcDbEntity
8
0
62
0
6
ByLayer
370
-1
48
1.0
60
0
100
AcDbPoint
10
0.749650631070116
20
0.0800004561404254
30
0.912756164034922
39
0.0
210
0.0
220
0.0
230
1.0
50
360.0
0
POINT
5
E3
330
2F
100
AcDbEntity
8
0
62
0
6
ByLayer
370
-1
48
1.0
60
0
100
AcDbPoint
10
0.0746506310701611
20
0.0800004561404249
30
0.612756164034922
39
0.0
210
0.0
220
0.0
230
1.0
50
360.0
0
POINT
5
E4
330
2F
100
AcDbEntity
8
0
62
0
6
ByLayer
370
-1
48
1.0
60
0
100
AcDbPoint
10
0.149650631070434
20
0.070000457535372
30
0.612756164034922
39
0.0
210
0.0
220
0.0
230
1.0
50
360.0
0
POINT
5
E5
330
2F
100
AcDbEntity
8
0
62
0
6
ByLayer
370
-1
48
1.0
60
0
100
AcDbPoint
10
0.212650631070252
20
0.070000457535372
30
0.612756164034922
39
0.0
210
0.0
220
0.0
230
1.0
50
360.0
0
POINT
5
E6
330
2F
100
AcDbEntity
8
0
62
0
6
ByLayer
370
-1
48
1.0
60
0
100
AcDbPoint
10
0.749650631070116
20
0.0800004561404254
30
0.612756164034922
39
0.0
210
0.0
220
0.0
230
1.0
50
360.0
0
POINT
5
E7
330
2F
100
AcDbEntity
8
0
62
0
6
ByLayer
370
-1
48
1.0
60
0
100
AcDbPoint
10
0.0746506310701611
20
0.0800004561404248
30
0.312756164034922
39
0.0
210
0.0
220
0.0
230
1.0
50
360.0
0
POINT
5
E8
330
2F
100
AcDbEntity
8
0
62
0
6
ByLayer
370
-1
48
1.0
60
0
100
AcDbPoint
10
0.149650631070434
20
0.0700004575353719
30
0.312756164034922
39
0.0
210
0.0
220
0.0
230
1.0
50
360.0
0
POINT
5
E9
330
2F
100
AcDbEntity
8
0
62
0
6
ByLayer
370
-1
48
1.0
60
0
100
AcDbPoint
10
0.224650631070252
20
0.0700004575353719
30
0.312756164034922
39
0.0
210
0.0
220
0.0
230
1.0
50
360.0
0
POINT
5
EA
330
2F
100
AcDbEntity
8
0
62
0
6
ByLayer
370
-1
48
1.0
60
0
100
AcDbPoint
10
0.749650631070116
20
0.0800004561404253
30
0.312756164034922
39
0.0
210
0.0
220
0.0
230
1.0
50
360.0
0
POINT
5
EB
330
2F
100
AcDbEntity
8
0
62
0
6
ByLayer
370
-1
48
1.0
60
0
100
AcDbPoint
10
0.312147381658595
20
0.0800004672726404
30
0.237819465805426
39
0.0
210
0.0
220
0.0
230
1.0
50
360.0
0
POINT
5
EC
330
2F
100
AcDbEntity
8
0
62
0
6
ByLayer
370
-1
48
1.0
60
0
100
AcDbPoint
10
0.312147381658595
20
0.0700004672706031
30
0.162819465805427
39
0.0
210
0.0
220
0.0
230
1.0
50
360.0
0
POINT
5
ED
330
2F
100
AcDbEntity
8
0
62
0
6
ByLayer
370
-1
48
1.0
60
0
100
AcDbPoint
10
0.612153880482045
20
0.0800004672726405
30
0.237819465805426
39
0.0
210
0.0
220
0.0
230
1.0
50
360.0
0
POINT
5
EE
330
2F
100
AcDbEntity
8
0
62
0
6
ByLayer
370
-1
48
1.0
60
0
100
AcDbPoint
10
0.612153880482045
20
0.0700004672706032
30
0.162819465805427
39
0.0
210
0.0
220
0.0
230
1.0
50
360.0
0
POINT
5
EF
330
2F
100
AcDbEntity
8
0
62
0
6
ByLayer
370
-1
48
1.0
60
0
100
AcDbPoint
10
0.0422182083039113
20
0.0165000042834436
30
2.13082013927873
39
0.0
210
-0.0000000000000002
220
-1.0
230
-0.0000000000000001
50
360.0
0
POINT
5
F0
330
2F
100
AcDbEntity
8
0
62
0
6
ByLayer
370
-1
48
1.0
60
0
100
AcDbPoint
10
0.857083053836638
20
0.0165000042834434
30
2.13082013927873
39
0.0
210
-0.0000000000000002
220
-1.0
230
-0.0000000000000001
50
180.0
0
POINT
5
F1
330
2F
100
AcDbEntity
8
0
62
0
6
ByLayer
370
-1
48
1.0
60
0
100
AcDbPoint
10
0.0422182083039113
20
0.0165000042834437
30
0.569179860721272
39
0.0
210
-0.0000000000000002
220
-1.0
230
-0.0000000000000001
50
360.0
0
POINT
5
F2
330
2F
100
AcDbEntity
8
0
62
0
6
ByLayer
370
-1
48
1.0
60
0
100
AcDbPoint
10
0.857083053836638
20
0.0165000042834435
30
0.569179860721272
39
0.0
210
-0.0000000000000002
220
-1.0
230
-0.0000000000000001
50
180.0
0
ENDBLK
5
30
330
2F
100
AcDbEntity
8
0
100
AcDbBlockEnd
0
BLOCK
5
FB
330
F9
100
AcDbEntity
8
0
100
AcDbBlockBegin
2
ATK_Union10004220
70
0
10
0.0
20
0.0
30
0.0
3
ATK_Union10004220
4

0
3DFACE
5
FC
330
F9
100
AcDbEntity
8
0
62
256
6
ByLayer
370
-1
48
1.0
60
0
100
AcDbFace
10
-0.0835402595460841
20
-0.0129994784160349
30
0.141111549591574
11
-0.0835402595460841
21
-0.0387560618276316
31
0.141111549591574
12
-0.139173059439883
22
-0.0387560618276316
32
0.141111549591574
13
-0.131773059439921
23
-0.0161189572653248
33
0.141111549591574
70
4
0
3DFACE
5
FD
330
F9
100
AcDbEntity
8
0
62
256
6
ByLayer
370
-1
48
1.0
60
0
100
AcDbFace
10
-0.131773059439921
20
-0.0161189572653248
30
0.141111549591574
11
-0.131773059439921
21
-0.0027560618276302
31
0.141111549591574
12
-0.149173059439873
22
-0.0027560618276302
32
0.141111549591574
13
-0.149173059439873
23
-0.0287560618276407
33
0.141111549591574
70
8
0
3DFACE
5
FE
330
F9
100
AcDbEntity
8
0
62
256
6
ByLayer
370
-1
48
1.0
60
0
100
AcDbFace
10
-0.149173059439873
20
-0.0287560618276407
30
0.141111549591574
11
-0.139173059439883
21
-0.0387560618276316
31
0.141111549591574
12
-0.131773059439921
22
-0.0161189572653248
32
0.141111549591574
13
-0.131773059439921
23
-0.0161189572653248
33
0.141111549591574
70
10
0
3DFACE
5
FF
330
F9
100
AcDbEntity
8
0
62
256
6
ByLayer
370
-1
48
1.0
60
0
100
AcDbFace
10
-0.0012968611379961
20
-0.0475028228561637
30
0.149992104547042
11
0.0058836721633234
21
-0.0595931638977477
31
0.149992104547042
12
0.0146796961304462
22
-0.0534992525927057
32
0.149992104547042
13
0.0094089606682587
23
-0.0387560618276307
33
0.149992104547042
70
4
0
3DFACE
5
100
330
F9
100
AcDbEntity
8
0
62
256
6
ByLayer
370
-1
48
1.0
60
0
100
AcDbFace
10
0.0094089606682587
20
-0.0387560618276307
30
0.149992104547042
11
0.0146796961304462
21
-0.0534992525927057
31
0.149992104547042
12
0.0242142710371093
22
-0.0412547326066436
32
0.149992104547042
13
0.0169014371356558
23
-0.0274925282021052
33
0.149992104547042
70
5
0
3DFACE
5
101
330
F9
100
AcDbEntity
8
0
62
256
6
ByLayer
370
-1
48
1.0
60
0
100
AcDbFace
10
0.0169014371356558
20
-0.0274925282021052
30
0.149992104547042
11
0.0242142710371093
21
-0.0412547326066436
31
0.149992104547042
12
0.0286854557459056
22
-0.027519098437303
32
0.149992104547042
13
0.0211124826396046
23
-0.0150795532578418
33
0.149992104547042
70
5
0
3DFACE
5
102
330
F9
100
AcDbEntity
8
0
62
256
6
ByLayer
370
-1
48
1.0
60
0
100
AcDbFace
10
0.0211124826396046
20
-0.0150795532578418
30
0.149992104547042
11
0.0286854557459056
21
-0.027519098437303
31
0.149992104547042
12
0.0286854557458923
22
-0.0027560618276293
32
0.149992104547042
13
0.0220828515086054
23
-0.0027560618276293
33
0.149992104547042
70
1
0
3DFACE
5
103
330
F9
100
AcDbEntity
8
0
62
256
6
ByLayer
370
-1
48
1.0
60
0
100
AcDbFace
10
-0.0169154777233291
20
0.0378142583924662
30
0.15
11
-0.0113339445869901
21
0.0439697134056255
31
0.15
12
0.0024901644673679
22
0.0387877478808681
32
0.15
13
-0.0089999999999823
23
0.0292203708813089
33
0.15
70
4
0
3DFACE
5
104
330
F9
100
AcDbEntity
8
0
62
256
6
ByLayer
370
-1
48
1.0
60
0
100
AcDbFace
10
-0.0089999999999823
20
0.0292203708813089
30
0.15
11
0.0024901644673679
21
0.0387877478808681
31
0.15
12
0.0119893531316716
22
0.0304088116121287
32
0.15
13
-0.0089999999999823
23
0.0292203708813089
33
0.15
70
5
0
3DFACE
5
105
330
F9
100
AcDbEntity
8
0
62
256
6
ByLayer
370
-1
48
1.0
60
0
100
AcDbFace
10
-0.0089999999999823
20
0.0292203708813089
30
0.15
11
0.0119893531316716
21
0.0304088116121287
31
0.15
12
0.0194220305071878
22
0.0151999688412753
32
0.15
13
-0.0089999999999823
23
0.0292203708813089
33
0.15
70
5
0
3DFACE
5
106
330
F9
100
AcDbEntity
8
0
62
256
6
ByLayer
370
-1
48
1.0
60
0
100
AcDbFace
10
-0.0089999999999823
20
0.0292203708813089
30
0.15
11
-0.0089999999999823
21
0.001
31
0.15
12
0.0204000000000274
22
-0.0069999999999814
32
0.15
13
0.0194220305071878
23
0.0151999688412753
33
0.15
70
10
0
3DFACE
5
107
330
F9
100
AcDbEntity
8
0
62
256
6
ByLayer
370
-1
48
1.0
60
0
100
AcDbFace
10
-0.0089999999999823
20
0.001
30
0.15
11
0.0204000000000274
21
-0.0069999999999814
31
0.15
12
0.016316531207606
22
-0.0263736492869335
32
0.15
13
-0.0089999999999823
23
0.001
33
0.15
70
5
0
3DFACE
5
108
330
F9
100
AcDbEntity
8
0
62
256
6
ByLayer
370
-1
48
1.0
60
0
100
AcDbFace
10
-0.0089999999999823
20
0.001
30
0.15
11
0.016316531207606
21
-0.0263736492869335
31
0.15
12
0.0018809442294015
22
-0.0448797297686138
32
0.15
13
-0.0089999999999823
23
0.001
33
0.15
70
5
0
3DFACE
5
109
330
F9
100
AcDbEntity
8
0
62
256
6
ByLayer
370
-1
48
1.0
60
0
100
AcDbFace
10
-0.0089999999999823
20
0.001
30
0.15
11
0.0018809442294015
21
-0.0448797297686138
31
0.15
12
-0.0129312291948078
22
-0.0527036887249159
32
0.15
13
-0.0700000000000177
23
0.001
33
0.15
70
5
0
3DFACE
5
10A
330
F9
100
AcDbEntity
8
0
62
256
6
ByLayer
370
-1
48
1.0
60
0
100
AcDbFace
10
-0.0700000000000177
20
0.001
30
0.15
11
-0.0129312291948078
21
-0.0527036887249159
31
0.15
12
-0.0310230889312605
22
-0.0549999999999832
32
0.15
13
-0.0700000000000177
23
0.001
33
0.15
70
5
0
3DFACE
5
10B
330
F9
100
AcDbEntity
8
0
62
256
6
ByLayer
370
-1
48
1.0
60
0
100
AcDbFace
10
-0.0700000000000177
20
0.001
30
0.15
11
-0.0310230889312605
21
-0.0549999999999832
31
0.15
12
-0.0647184369699826
22
-0.052687718406156
32
0.15
13
-0.0700000000000177
23
0.001
33
0.15
70
5
0
3DFACE
5
10C
330
F9
100
AcDbEntity
8
0
62
256
6
ByLayer
370
-1
48
1.0
60
0
100
AcDbFace
10
-0.0700000000000177
20
0.001
30
0.15
11
-0.0647184369699826
21
-0.052687718406156
31
0.15
12
-0.07809550740796
22
-0.0459184077717735
32
0.15
13
-0.0700000000000177
23
0.001
33
0.15
70
5
0
3DFACE
5
10D
330
F9
100
AcDbEntity
8
0
62
256
6
ByLayer
370
-1
48
1.0
60
0
100
AcDbFace
10
-0.0700000000000177
20
0.001
30
0.15
11
-0.07809550740796
21
-0.0459184077717735
31
0.15
12
-0.0928888773587021
22
-0.0285532874270412
32
0.15
13
-0.0980000000000378
23
-0.0001139712983903
33
0.15
70
9
0
3DFACE
5
10E
330
F9
100
AcDbEntity
8
0
62
256
6
ByLayer
370
-1
48
1.0
60
0
100
AcDbFace
10
-0.0980000000000378
20
-0.0001139712983903
30
0.15
11
-0.0700000000000177
21
0.001
31
0.15
12
-0.0700000000000177
22
0.0279999999999868
32
0.15
13
-0.0853022305895538
23
0.0266192757221454
33
0.15
70
9
0
3DFACE
5
10F
330
F9
100
AcDbEntity
8
0
62
256
6
ByLayer
370
-1
48
1.0
60
0
100
AcDbFace
10
-0.0853022305895538
20
0.0266192757221454
30
0.15
11
-0.0949715915062198
21
0.01858135538328
31
0.15
12
-0.0980000000000378
22
-0.0001139712983903
32
0.15
13
-0.0853022305895538
23
0.0266192757221454
33
0.15
70
4
0
3DFACE
5
110
330
F9
100
AcDbEntity
8
0
62
256
6
ByLayer
370
-1
48
1.0
60
0
100
AcDbFace
10
-0.083442553426291
20
0.0318765374596191
30
0.14999210454707
11
-0.0714838105191934
21
0.0438352803667167
31
0.14999210454707
12
-0.0567064348338381
22
0.0438352803667167
32
0.14999210454707
13
-0.0517914646837558
23
0.0389203102168617
33
0.14999210454707
70
8
0
3DFACE
5
111
330
F9
100
AcDbEntity
8
0
62
256
6
ByLayer
370
-1
48
1.0
60
0
100
AcDbFace
10
-0.0517914646837558
20
0.0389203102168617
30
0.14999210454707
11
-0.0594989285987954
21
0.0312128463018221
31
0.14999210454707
12
-0.081785424024044
22
0.0284764087470203
32
0.14999210454707
13
-0.083442553426291
23
0.0318765374596191
33
0.14999210454707
70
8
0
3DFACE
5
112
330
F9
100
AcDbEntity
8
0
62
256
6
ByLayer
370
-1
48
1.0
60
0
100
AcDbFace
10
-0.0012968611379961
20
-0.0475028228561637
30
0.119992104547042
11
0.0058836721633234
21
-0.0595931638977477
31
0.119992104547042
12
0.0146796961304462
22
-0.0534992525927057
32
0.119992104547042
13
0.0094089606682587
23
-0.0387560618276307
33
0.119992104547042
70
4
0
3DFACE
5
113
330
F9
100
AcDbEntity
8
0
62
256
6
ByLayer
370
-1
48
1.0
60
0
100
AcDbFace
10
0.0094089606682587
20
-0.0387560618276307
30
0.119992104547042
11
0.0146796961304462
21
-0.0534992525927057
31
0.119992104547042
12
0.0242142710371093
22
-0.0412547326066436
32
0.119992104547042
13
0.0169014371356558
23
-0.0274925282021052
33
0.119992104547042
70
5
0
3DFACE
5
114
330
F9
100
AcDbEntity
8
0
62
256
6
ByLayer
370
-1
48
1.0
60
0
100
AcDbFace
10
0.0169014371356558
20
-0.0274925282021052
30
0.119992104547042
11
0.0242142710371093
21
-0.0412547326066436
31
0.119992104547042
12
0.0286854557459056
22
-0.027519098437303
32
0.119992104547042
13
0.0211124826396046
23
-0.0150795532578418
33
0.119992104547042
70
5
0
3DFACE
5
115
330
F9
100
AcDbEntity
8
0
62
256
6
ByLayer
370
-1
48
1.0
60
0
100
AcDbFace
10
0.0211124826396046
20
-0.0150795532578418
30
0.119992104547042
11
0.0286854557459056
21
-0.027519098437303
31
0.119992104547042
12
0.0286854557458923
22
-0.0027560618276293
32
0.119992104547042
13
0.0220828515086054
23
-0.0027560618276293
33
0.119992104547042
70
1
0
3DFACE
5
116
330
F9
100
AcDbEntity
8
0
62
256
6
ByLayer
370
-1
48
1.0
60
0
100
AcDbFace
10
-0.0169154777233291
20
0.0378142583924662
30
0.12
11
-0.0113339445869901
21
0.0439697134056255
31
0.12
12
0.0024901644673679
22
0.0387877478808681
32
0.12
13
-0.0089999999999823
23
0.0292203708813089
33
0.12
70
4
0
3DFACE
5
117
330
F9
100
AcDbEntity
8
0
62
256
6
ByLayer
370
-1
48
1.0
60
0
100
AcDbFace
10
-0.0089999999999823
20
0.0292203708813089
30
0.12
11
0.0024901644673679
21
0.0387877478808681
31
0.12
12
0.0119893531316716
22
0.0304088116121287
32
0.12
13
-0.0089999999999823
23
0.0292203708813089
33
0.12
70
5
0
3DFACE
5
118
330
F9
100
AcDbEntity
8
0
62
256
6
ByLayer
370
-1
48
1.0
60
0
100
AcDbFace
10
-0.0089999999999823
20
0.0292203708813089
30
0.12
11
0.0119893531316716
21
0.0304088116121287
31
0.12
12
0.0194220305071878
22
0.0151999688412753
32
0.12
13
-0.0089999999999823
23
0.0292203708813089
33
0.12
70
5
0
3DFACE
5
119
330
F9
100
AcDbEntity
8
0
62
256
6
ByLayer
370
-1
48
1.0
60
0
100
AcDbFace
10
-0.0089999999999823
20
0.0292203708813089
30
0.12
11
-0.0089999999999823
21
0.001
31
0.12
12
0.0204000000000274
22
-0.0069999999999814
32
0.12
13
0.0194220305071878
23
0.0151999688412753
33
0.12
70
10
0
3DFACE
5
11A
330
F9
100
AcDbEntity
8
0
62
256
6
ByLayer
370
-1
48
1.0
60
0
100
AcDbFace
10
-0.0089999999999823
20
0.001
30
0.12
11
0.0204000000000274
21
-0.0069999999999814
31
0.12
12
0.016316531207606
22
-0.0263736492869335
32
0.12
13
-0.0089999999999823
23
0.001
33
0.12
70
5
0
3DFACE
5
11B
330
F9
100
AcDbEntity
8
0
62
256
6
ByLayer
370
-1
48
1.0
60
0
100
AcDbFace
10
-0.0089999999999823
20
0.001
30
0.12
11
0.016316531207606
21
-0.0263736492869335
31
0.12
12
0.0018809442294015
22
-0.0448797297686138
32
0.12
13
-0.0089999999999823
23
0.001
33
0.12
70
5
0
3DFACE
5
11C
330
F9
100
AcDbEntity
8
0
62
256
6
ByLayer
370
-1
48
1.0
60
0
100
AcDbFace
10
-0.0089999999999823
20
0.001
30
0.12
11
0.0018809442294015
21
-0.0448797297686138
31
0.12
12
-0.0129312291948078
22
-0.0527036887249159
32
0.12
13
-0.0700000000000177
23
0.001
33
0.12
70
5
0
3DFACE
5
11D
330
F9
100
AcDbEntity
8
0
62
256
6
ByLayer
370
-1
48
1.0
60
0
100
AcDbFace
10
-0.0700000000000177
20
0.001
30
0.12
11
-0.0129312291948078
21
-0.0527036887249159
31
0.12
12
-0.0310230889312605
22
-0.0549999999999832
32
0.12
13
-0.0700000000000177
23
0.001
33
0.12
70
5
0
3DFACE
5
11E
330
F9
100
AcDbEntity
8
0
62
256
6
ByLayer
370
-1
48
1.0
60
0
100
AcDbFace
10
-0.0700000000000177
20
0.001
30
0.12
11
-0.0310230889312605
21
-0.0549999999999832
31
0.12
12
-0.0647184369699826
22
-0.052687718406156
32
0.12
13
-0.0700000000000177
23
0.001
33
0.12
70
5
0
3DFACE
5
11F
330
F9
100
AcDbEntity
8
0
62
256
6
ByLayer
370
-1
48
1.0
60
0
100
AcDbFace
10
-0.0700000000000177
20
0.001
30
0.12
11
-0.0647184369699826
21
-0.052687718406156
31
0.12
12
-0.07809550740796
22
-0.0459184077717735
32
0.12
13
-0.0700000000000177
23
0.001
33
0.12
70
5
0
3DFACE
5
120
330
F9
100
AcDbEntity
8
0
62
256
6
ByLayer
370
-1
48
1.0
60
0
100
AcDbFace
10
-0.0700000000000177
20
0.001
30
0.12
11
-0.07809550740796
21
-0.0459184077717735
31
0.12
12
-0.0928888773587021
22
-0.0285532874270412
32
0.12
13
-0.0980000000000378
23
-0.0001139712983903
33
0.12
70
9
0
3DFACE
5
121
330
F9
100
AcDbEntity
8
0
62
256
6
ByLayer
370
-1
48
1.0
60
0
100
AcDbFace
10
-0.0980000000000378
20
-0.0001139712983903
30
0.12
11
-0.0700000000000177
21
0.001
31
0.12
12
-0.0700000000000177
22
0.0279999999999868
32
0.12
13
-0.0853022305895538
23
0.0266192757221454
33
0.12
70
9
0
3DFACE
5
122
330
F9
100
AcDbEntity
8
0
62
256
6
ByLayer
370
-1
48
1.0
60
0
100
AcDbFace
10
-0.0853022305895538
20
0.0266192757221454
30
0.12
11
-0.0949715915062198
21
0.01858135538328
31
0.12
12
-0.0980000000000378
22
-0.0001139712983903
32
0.12
13
-0.0853022305895538
23
0.0266192757221454
33
0.12
70
4
0
3DFACE
5
123
330
F9
100
AcDbEntity
8
0
62
256
6
ByLayer
370
-1
48
1.0
60
0
100
AcDbFace
10
-0.083442553426291
20
0.0318765374596191
30
0.11999210454707
11
-0.0714838105191934
21
0.0438352803667167
31
0.11999210454707
12
-0.0567064348338381
22
0.0438352803667167
32
0.11999210454707
13
-0.0517914646837558
23
0.0389203102168617
33
0.11999210454707
70
8
0
3DFACE
5
124
330
F9
100
AcDbEntity
8
0
62
256
6
ByLayer
370
-1
48
1.0
60
0
100
AcDbFace
10
-0.0517914646837558
20
0.0389203102168617
30
0.11999210454707
11
-0.0594989285987954
21
0.0312128463018221
31
0.11999210454707
12
-0.081785424024044
22
0.0284764087470203
32
0.11999210454707
13
-0.083442553426291
23
0.0318765374596191
33
0.11999210454707
70
8
0
3DFACE
5
125
330
F9
100
AcDbEntity
8
0
62
256
6
ByLayer
370
-1
48
1.0
60
0
100
AcDbFace
10
-0.0835402595460841
20
-0.0129994784160349
30
0.126111549591574
11
-0.0835402595460841
21
-0.0387560618276316
31
0.126111549591574
12
-0.139173059439883
22
-0.0387560618276316
32
0.126111549591574
13
-0.131773059439921
23
-0.0161189572653248
33
0.126111549591574
70
4
0
3DFACE
5
126
330
F9
100
AcDbEntity
8
0
62
256
6
ByLayer
370
-1
48
1.0
60
0
100
AcDbFace
10
-0.131773059439921
20
-0.0161189572653248
30
0.126111549591574
11
-0.131773059439921
21
-0.0027560618276302
31
0.126111549591574
12
-0.149173059439873
22
-0.0027560618276302
32
0.126111549591574
13
-0.149173059439873
23
-0.0287560618276407
33
0.126111549591574
70
8
0
3DFACE
5
127
330
F9
100
AcDbEntity
8
0
62
256
6
ByLayer
370
-1
48
1.0
60
0
100
AcDbFace
10
-0.149173059439873
20
-0.0287560618276407
30
0.126111549591574
11
-0.139173059439883
21
-0.0387560618276316
31
0.126111549591574
12
-0.131773059439921
22
-0.0161189572653248
32
0.126111549591574
13
-0.131773059439921
23
-0.0161189572653248
33
0.126111549591574
70
10
0
LWPOLYLINE
5
128
330
F9
100
AcDbEntity
8
0
62
256
6
ByLayer
370
-1
48
1.0
60
0
100
AcDbPolyline
90
6
70
1
38
0.11999210454707
39
0.03
10
-0.083442553426291
20
0.0318765374596191
40
0.0
41
0.0
42
0.0
10
-0.0714838105191934
20
0.0438352803667167
40
0.0
41
0.0
42
0.0
10
-0.0567064348338381
20
0.0438352803667167
40
0.0
41
0.0
42
0.0
10
-0.0517914646837558
20
0.0389203102168617
40
0.0
41
0.0
42
0.0
10
-0.0594989285987954
20
0.0312128463018221
40
0.0
41
0.0
42
0.0
10
-0.081785424024044
20
0.0284764087470203
40
0.0
41
0.0
42
0.0
210
0.0
220
0.0
230
1.0
0
LWPOLYLINE
5
129
330
F9
100
AcDbEntity
8
0
62
256
6
ByLayer
370
-1
48
1.0
60
0
100
AcDbPolyline
90
20
70
1
38
0.12
39
0.03
10
-0.0169154777233291
20
0.0378142583924662
40
0.0
41
0.0
42
0.0
10
-0.0113339445869901
20
0.0439697134056255
40
0.0
41
0.0
42
0.0
10
0.0024901644673679
20
0.0387877478808681
40
0.0
41
0.0
42
0.0
10
0.0119893531316716
20
0.0304088116121287
40
0.0
41
0.0
42
0.0
10
0.0194220305071878
20
0.0151999688412753
40
0.0
41
0.0
42
0.0
10
0.0204000000000274
20
-0.0069999999999814
40
0.0
41
0.0
42
0.0
10
0.016316531207606
20
-0.0263736492869335
40
0.0
41
0.0
42
0.0
10
0.0018809442294015
20
-0.0448797297686138
40
0.0
41
0.0
42
0.0
10
-0.0129312291948078
20
-0.0527036887249159
40
0.0
41
0.0
42
0.0
10
-0.0310230889312605
20
-0.0549999999999832
40
0.0
41
0.0
42
0.0
10
-0.0647184369699826
20
-0.052687718406156
40
0.0
41
0.0
42
0.0
10
-0.07809550740796
20
-0.0459184077717735
40
0.0
41
0.0
42
0.0
10
-0.0928888773587021
20
-0.0285532874270412
40
0.0
41
0.0
42
0.0
10
-0.0980000000000378
20
-0.0001139712983903
40
0.0
41
0.0
42
0.0
10
-0.0949715915062198
20
0.01858135538328
40
0.0
41
0.0
42
0.0
10
-0.0853022305895538
20
0.0266192757221454
40
0.0
41
0.0
42
0.0
10
-0.0700000000000177
20
0.0279999999999868
40
0.0
41
0.0
42
0.0
10
-0.0700000000000177
20
0.001
40
0.0
41
0.0
42
0.0
10
-0.0089999999999823
20
0.001
40
0.0
41
0.0
42
0.0
10
-0.0089999999999823
20
0.0292203708813089
40
0.0
41
0.0
42
0.0
210
0.0
220
0.0
230
1.0
0
LWPOLYLINE
5
12A
330
F9
100
AcDbEntity
8
0
62
256
6
ByLayer
370
-1
48
1.0
60
0
100
AcDbPolyline
90
10
70
1
38
0.119992104547042
39
0.03
10
0.0220828515086054
20
-0.0027560618276293
40
0.0
41
0.0
42
0.0
10
0.0286854557458923
20
-0.0027560618276293
40
0.0
41
0.0
42
0.0
10
0.0286854557459056
20
-0.027519098437303
40
0.0
41
0.0
42
0.0
10
0.0242142710371093
20
-0.0412547326066436
40
0.0
41
0.0
42
0.0
10
0.0146796961304462
20
-0.0534992525927057
40
0.0
41
0.0
42
0.0
10
0.0058836721633234
20
-0.0595931638977477
40
0.0
41
0.0
42
0.0
10
-0.0012968611379961
20
-0.0475028228561637
40
0.0
41
0.0
42
0.0
10
0.0094089606682587
20
-0.0387560618276307
40
0.0
41
0.0
42
0.0
10
0.0169014371356558
20
-0.0274925282021052
40
0.0
41
0.0
42
0.0
10
0.0211124826396046
20
-0.0150795532578418
40
0.0
41
0.0
42
0.0
210
0.0
220
0.0
230
1.0
0
LWPOLYLINE
5
12B
330
F9
100
AcDbEntity
8
0
62
256
6
ByLayer
370
-1
48
1.0
60
0
100
AcDbPolyline
90
8
70
1
38
0.126111549591574
39
0.015
10
-0.131773059439921
20
-0.0161189572653248
40
0.0
41
0.0
42
0.0
10
-0.131773059439921
20
-0.0027560618276302
40
0.0
41
0.0
42
0.0
10
-0.149173059439873
20
-0.0027560618276302
40
0.0
41
0.0
42
0.0
10
-0.149173059439873
20
-0.0287560618276407
40
0.0
41
0.0
42
0.0
10
-0.139173059439883
20
-0.0387560618276316
40
0.0
41
0.0
42
0.0
10
-0.0822203450500988
20
-0.0387560618276316
40
0.0
41
0.0
42
0.0
10
-0.0835402595460841
20
-0.0129994784160349
40
0.0
41
0.0
42
0.0
10
-0.131773059439921
20
-0.0161189572653248
40
0.0
41
0.0
42
0.0
210
0.0
220
0.0
230
1.0
0
LWPOLYLINE
5
12C
330
F9
100
AcDbEntity
8
0
62
256
6
ByLayer
370
-1
48
1.0
60
0
100
AcDbPolyline
90
14
70
1
38
0.15
39
0.0
10
-0.0772017025573059
20
-0.0213088872329349
40
0.0
41
0.0
42
0.0
10
-0.081276716241464
20
-0.0214269034874532
40
0.0
41
0.0
42
0.0
10
-0.0752527830490803
20
-0.0095662701979172
40
0.0
41
0.0
42
0.0
10
-0.0523972720352181
20
-0.0095662701979172
40
0.0
41
0.0
42
0.0
10
-0.0523972720352181
20
-0.0122806440518456
40
0.0
41
0.0
42
0.0
10
-0.0574762748908647
20
-0.0122806440518456
40
0.0
41
0.0
42
0.0
10
-0.0574762748908647
20
-0.0216039278692314
40
0.0
41
0.0
42
0.0
10
-0.0615512885750237
20
-0.0216039278692314
40
0.0
41
0.0
42
0.0
10
-0.0615512885750237
20
-0.0124576684336239
40
0.0
41
0.0
42
0.0
10
-0.0689335593560353
20
-0.0124576684336239
40
0.0
41
0.0
42
0.0
10
-0.0642089058358014
20
-0.0216629359964905
40
0.0
41
0.0
42
0.0
10
-0.0681067448522527
20
-0.0216629359964905
40
0.0
41
0.0
42
0.0
10
-0.0690516751889897
20
-0.0194206274502221
40
0.0
41
0.0
42
0.0
10
-0.0766111206377082
20
-0.0194206274502221
40
0.0
41
0.0
42
0.0
210
0.0
220
0.0
230
1.0
0
LWPOLYLINE
5
12D
330
F9
100
AcDbEntity
8
0
62
256
6
ByLayer
370
-1
48
1.0
60
0
100
AcDbPolyline
90
3
70
1
38
0.15003867724603
39
0.0
10
-0.0753118409655575
20
-0.016824269850812
40
0.0
41
0.0
42
0.0
10
-0.0725951657883025
20
-0.0118675871610309
40
0.0
41
0.0
42
0.0
10
-0.0703509548611395
20
-0.016824269850812
40
0.0
41
0.0
42
0.0
210
0.0
220
0.0
230
1.0
0
LWPOLYLINE
5
12E
330
F9
100
AcDbEntity
8
0
62
256
6
ByLayer
370
-1
48
1.0
60
0
100
AcDbPolyline
90
12
70
1
38
0.15
39
0.0
10
-0.0508617597788833
20
-0.0216039278692314
40
0.0
41
0.0
42
0.0
10
-0.0508617597788833
20
-0.0097432945796955
40
0.0
41
0.0
42
0.0
10
-0.0384004861422251
20
-0.0097432945796955
40
0.0
41
0.0
42
0.0
10
-0.0384004861422251
20
-0.0122806440518456
40
0.0
41
0.0
42
0.0
10
-0.047377328014323
20
-0.0122806440518456
40
0.0
41
0.0
42
0.0
10
-0.047377328014323
20
-0.0143459285059219
40
0.0
41
0.0
42
0.0
10
-0.039286358562484
20
-0.0143459285059219
40
0.0
41
0.0
42
0.0
10
-0.039286358562484
20
-0.0164702210872564
40
0.0
41
0.0
42
0.0
10
-0.0474954438472783
20
-0.0164702210872564
40
0.0
41
0.0
42
0.0
10
-0.0474954438472783
20
-0.0190075705594065
40
0.0
41
0.0
42
0.0
10
-0.0385186028934547
20
-0.0190075705594065
40
0.0
41
0.0
42
0.0
10
-0.0385186028934547
20
-0.0216039278692314
40
0.0
41
0.0
42
0.0
210
0.0
220
0.0
230
1.0
0
LWPOLYLINE
5
12F
330
F9
100
AcDbEntity
8
0
62
256
6
ByLayer
370
-1
48
1.0
60
0
100
AcDbPolyline
90
10
70
1
38
0.15
39
0.0
10
-0.0366877992181835
20
-0.0216039278692314
40
0.0
41
0.0
42
0.0
10
-0.0369830906371191
20
-0.0096252783251773
40
0.0
41
0.0
42
0.0
10
-0.0306638660257998
20
-0.0096252783251773
40
0.0
41
0.0
42
0.0
10
-0.0251123989200585
20
-0.0185355055413327
40
0.0
41
0.0
42
0.0
10
-0.0251123989200585
20
-0.0096252783251773
40
0.0
41
0.0
42
0.0
10
-0.0211555010688548
20
-0.0096252783251773
40
0.0
41
0.0
42
0.0
10
-0.0211555010688548
20
-0.0217219441237496
40
0.0
41
0.0
42
0.0
10
-0.027297551012469
20
-0.0217219441237496
40
0.0
41
0.0
42
0.0
10
-0.0332033674536231
20
-0.0126346928154012
40
0.0
41
0.0
42
0.0
10
-0.0332033674536231
20
-0.0216039278692314
40
0.0
41
0.0
42
0.0
210
0.0
220
0.0
230
1.0
0
LWPOLYLINE
5
130
330
F9
100
AcDbEntity
8
0
62
256
6
ByLayer
370
-1
48
1.0
60
0
100
AcDbPolyline
90
13
70
1
38
0.15
39
0.0
10
-0.0194428141448141
20
-0.0215449197419723
40
0.0
41
0.0
42
0.0
10
-0.0194428141448141
20
-0.0096842864524364
40
0.0
41
0.0
42
0.0
10
-0.0155449751283629
20
-0.0096842864524364
40
0.0
41
0.0
42
0.0
10
-0.0155449751283629
20
-0.0141098959968845
40
0.0
41
0.0
42
0.0
10
-0.0174348367201104
20
-0.0170012942325903
40
0.0
41
0.0
42
0.0
10
-0.008753286266949
20
-0.0096252783251773
40
0.0
41
0.0
42
0.0
10
-0.0039105159954863
20
-0.0096252783251773
40
0.0
41
0.0
42
0.0
10
-0.0111156130270655
20
-0.0152900585420705
40
0.0
41
0.0
42
0.0
10
-0.0034380508271174
20
-0.0212498791056758
40
0.0
41
0.0
42
0.0
10
-0.00828082109858
20
-0.0212498791056758
40
0.0
41
0.0
42
0.0
10
-0.01395040495555
20
-0.0169422861053311
40
0.0
41
0.0
42
0.0
10
-0.0156630918795925
20
-0.0169422861053311
40
0.0
41
0.0
42
0.0
10
-0.0156630918795925
20
-0.0216039278692314
40
0.0
41
0.0
42
0.0
210
0.0
220
0.0
230
1.0
0
LWPOLYLINE
5
131
330
F9
100
AcDbEntity
8
0
62
256
6
ByLayer
370
-1
48
1.0
60
0
100
AcDbPolyline
90
9
70
0
38
0.15
39
0.0
10
-0.0027293530745644
20
-0.0191845949411848
40
0.0
41
0.0
42
0.0
10
-0.0027293530745644
20
-0.0126346928154012
40
0.0
41
0.0
42
0.0
10
0.000282613521627
20
-0.0096842864524364
40
0.0
41
0.0
42
0.0
10
0.0092594553937258
20
-0.0096842864524364
40
0.0
41
0.0
42
0.0
10
0.0124485957393497
20
-0.0126346928154012
40
0.0
41
0.0
42
0.0
10
0.0124485957393497
20
-0.0184174892868136
40
0.0
41
0.0
42
0.0
10
0.0099681531462779
20
-0.0214859116147132
40
0.0
41
0.0
42
0.0
10
0.0004007302728567
20
-0.0214859116147132
40
0.0
41
0.0
42
0.0
10
-0.0027293530745644
20
-0.0191845949411848
40
0.0
41
0.0
42
0.0
210
0.0
220
0.0
230
1.0
0
LWPOLYLINE
5
132
330
F9
100
AcDbEntity
8
0
62
256
6
ByLayer
370
-1
48
1.0
60
0
100
AcDbPolyline
90
9
70
0
38
0.15
39
0.0
10
0.0011094280254097
20
-0.0181814567777762
40
0.0
41
0.0
42
0.0
10
0.0011094280254097
20
-0.0134608065970316
40
0.0
41
0.0
42
0.0
10
0.0020543583621458
20
-0.0122806440518456
40
0.0
41
0.0
42
0.0
10
0.0077239431373902
20
-0.0122806440518456
40
0.0
41
0.0
42
0.0
10
0.009082280726019
20
-0.0134017984697724
40
0.0
41
0.0
42
0.0
10
0.009082280726019
20
-0.0179454242687388
40
0.0
41
0.0
42
0.0
10
0.0080782915545295
20
-0.0192436030684439
40
0.0
41
0.0
42
0.0
10
0.0025268235305139
20
-0.0192436030684439
40
0.0
41
0.0
42
0.0
10
0.0011094280254097
20
-0.0181814567777762
40
0.0
41
0.0
42
0.0
210
0.0
220
0.0
230
1.0
0
ENDBLK
5
FA
330
F9
100
AcDbEntity
8
0
100
AcDbBlockEnd
0
BLOCK
5
16D
330
16B
100
AcDbEntity
8
0
100
AcDbBlockBegin
2
ATK_Panel27x90
70
0
10
0.0
20
0.0
30
0.0
3
ATK_Panel27x90
4

0
3DFACE
5
16E
330
16B
100
AcDbEntity
8
0
62
0
6
ByLayer
370
-1
48
1.0
60
0
100
AcDbFace
10
0.0000000000000009
20
-0.0000000000000002
30
2.7
11
0.900000000000001
21
-0.0000000000000002
31
2.7
12
0.900000000000001
22
-0.0000000000000003
32
-0.0000000000000004
13
0.0000000000000009
23
-0.0000000000000003
33
-0.0000000000000004
70
0
0
3DFACE
5
16F
330
16B
100
AcDbEntity
8
0
62
2
6
ByLayer
370
-1
48
1.0
60
0
100
AcDbFace
10
0.874650631070116
20
0.0165004505704757
30
2.41224383596508
11
0.874650631070116
21
0.120000450575191
31
2.41224383596508
12
0.024650631070434
22
0.120000450575191
32
2.41224383596508
13
0.024650631070434
23
0.0165004505704757
33
2.41224383596508
70
0
0
3DFACE
5
170
330
16B
100
AcDbEntity
8
0
62
2
6
ByLayer
370
-1
48
1.0
60
0
100
AcDbFace
10
0.874650631070116
20
0.0165004505704757
30
2.38724383596508
11
0.874650631070116
21
0.120000450575191
31
2.38724383596508
12
0.024650631070434
22
0.120000450575191
32
2.38724383596508
13
0.024650631070434
23
0.0165004505704757
33
2.38724383596508
70
0
0
3DFACE
5
171
330
16B
100
AcDbEntity
8
0
62
2
6
ByLayer
370
-1
48
1.0
60
0
100
AcDbFace
10
0.024650631070434
20
0.120000450575191
30
2.41224383596508
11
0.024650631070434
21
0.120000450575191
31
2.38724383596508
12
0.024650631070434
22
0.0165004505704757
32
2.38724383596508
13
0.024650631070434
23
0.0165004505704757
33
2.41224383596508
70
0
0
3DFACE
5
172
330
16B
100
AcDbEntity
8
0
62
2
6
ByLayer
370
-1
48
1.0
60
0
100
AcDbFace
10
0.874650631070116
20
0.0165004505704757
30
2.38724383596508
11
0.874650631070116
21
0.120000450575191
31
2.38724383596508
12
0.874650631070116
22
0.120000450575191
32
2.41224383596508
13
0.874650631070116
23
0.0165004505704757
33
2.41224383596508
70
0
0
3DFACE
5
173
330
16B
100
AcDbEntity
8
0
62
2
6
ByLayer
370
-1
48
1.0
60
0
100
AcDbFace
10
0.287147381658504
20
0.0165004505704761
30
2.41230383596507
11
0.287147381658959
21
0.120000450575191
31
2.41217723242407
12
0.287147381658959
22
0.120000450575191
32
2.67467723242407
13
0.287147381658504
23
0.0165004505704761
33
2.67480383596506
70
0
0
3DFACE
5
174
330
16B
100
AcDbEntity
8
0
62
2
6
ByLayer
370
-1
48
1.0
60
0
100
AcDbFace
10
0.312147381658595
20
0.0165004505704761
30
2.41217723242407
11
0.312147381658595
21
0.120000450575191
31
2.41230383596506
12
0.312147381658595
22
0.120000450575191
32
2.67467723242407
13
0.312147381658595
23
0.0165004505704761
33
2.67467723242407
70
0
0
3DFACE
5
175
330
16B
100
AcDbEntity
8
0
62
256
6
ByLayer
370
-1
48
1.0
60
0
100
AcDbFace
10
0.294288270915306
20
0.120000450575191
30
2.67467723242407
11
0.319288270914942
21
0.120000450575191
31
2.67480383596506
12
0.319288270914942
22
0.0165004505704761
32
2.67467723242407
13
0.294288270914851
23
0.0165004505704761
33
2.67467723242407
70
0
0
3DFACE
5
176
330
16B
100
AcDbEntity
8
0
62
2
6
ByLayer
370
-1
48
1.0
60
0
100
AcDbFace
10
0.612153880482045
20
0.0165004505704761
30
2.67480383596506
11
0.61215388048159
21
0.120000450575191
31
2.67467723242407
12
0.61215388048159
22
0.120000450575191
32
2.41217723242407
13
0.612153880482045
23
0.0165004505704761
33
2.41230383596507
70
0
0
3DFACE
5
177
330
16B
100
AcDbEntity
8
0
62
2
6
ByLayer
370
-1
48
1.0
60
0
100
AcDbFace
10
0.587153880481954
20
0.0165004505704761
30
2.67467723242407
11
0.587153880481954
21
0.120000450575191
31
2.67467723242407
12
0.587153880481954
22
0.120000450575191
32
2.41230383596506
13
0.587153880481954
23
0.0165004505704761
33
2.41217723242407
70
0
0
3DFACE
5
178
330
16B
100
AcDbEntity
8
0
62
256
6
ByLayer
370
-1
48
1.0
60
0
100
AcDbFace
10
0.619294769738391
20
0.0165004505704761
30
2.67467723242407
11
0.594294769738301
21
0.0165004505704761
31
2.67467723242407
12
0.594294769738301
22
0.120000450575191
32
2.67480383596506
13
0.619294769737937
23
0.120000450575191
33
2.67467723242407
70
0
0
3DFACE
5
179
330
16B
100
AcDbEntity
8
0
62
2
6
ByLayer
370
-1
48
1.0
60
0
100
AcDbFace
10
0.024650631070434
20
0.0165004505704757
30
2.38724383596508
11
0.024650631070434
21
0.120000450575191
31
2.38724383596508
12
0.874650631070116
22
0.120000450575191
32
2.38724383596508
13
0.874650631070116
23
0.0165004505704757
33
2.38724383596508
70
0
0
3DFACE
5
17A
330
16B
100
AcDbEntity
8
0
62
2
6
ByLayer
370
-1
48
1.0
60
0
100
AcDbFace
10
0.024650631070434
20
0.0165004505704756
30
0.287756164034923
11
0.024650631070434
21
0.12000045057519
31
0.287756164034923
12
0.874650631070116
22
0.12000045057519
32
0.287756164034923
13
0.874650631070116
23
0.0165004505704756
33
0.287756164034923
70
0
0
3DFACE
5
17B
330
16B
100
AcDbEntity
8
0
62
2
6
ByLayer
370
-1
48
1.0
60
0
100
AcDbFace
10
0.024650631070434
20
0.0165004505704756
30
0.312756164034923
11
0.024650631070434
21
0.12000045057519
31
0.312756164034923
12
0.874650631070116
22
0.12000045057519
32
0.312756164034923
13
0.874650631070116
23
0.0165004505704756
33
0.312756164034923
70
0
0
3DFACE
5
17C
330
16B
100
AcDbEntity
8
0
62
2
6
ByLayer
370
-1
48
1.0
60
0
100
AcDbFace
10
0.024650631070434
20
0.0165004505704756
30
0.287756164034923
11
0.024650631070434
21
0.0165004505704756
31
0.312756164034923
12
0.024650631070434
22
0.12000045057519
32
0.312756164034923
13
0.024650631070434
23
0.12000045057519
33
0.287756164034923
70
0
0
3DFACE
5
17D
330
16B
100
AcDbEntity
8
0
62
2
6
ByLayer
370
-1
48
1.0
60
0
100
AcDbFace
10
0.874650631070116
20
0.0165004505704756
30
0.287756164034923
11
0.874650631070116
21
0.12000045057519
31
0.287756164034923
12
0.874650631070116
22
0.12000045057519
32
0.312756164034923
13
0.874650631070116
23
0.0165004505704756
33
0.312756164034923
70
0
0
3DFACE
5
17E
330
16B
100
AcDbEntity
8
0
62
2
6
ByLayer
370
-1
48
1.0
60
0
100
AcDbFace
10
0.287147381658504
20
0.016500450570476
30
0.0251961640349348
11
0.287147381658959
21
0.120000450575191
31
0.0253227675759305
12
0.287147381658959
22
0.120000450575191
32
0.287822767575931
13
0.287147381658504
23
0.016500450570476
33
0.287696164034933
70
0
0
3DFACE
5
17F
330
16B
100
AcDbEntity
8
0
62
2
6
ByLayer
370
-1
48
1.0
60
0
100
AcDbFace
10
0.312147381658595
20
0.016500450570476
30
0.0253227675759305
11
0.312147381658595
21
0.120000450575191
31
0.0253227675759305
12
0.312147381658595
22
0.120000450575191
32
0.287696164034934
13
0.312147381658595
23
0.016500450570476
33
0.28782276757593
70
0
0
3DFACE
5
180
330
16B
100
AcDbEntity
8
0
62
256
6
ByLayer
370
-1
48
1.0
60
0
100
AcDbFace
10
0.294288270914851
20
0.016500450570476
30
0.0253227675759305
11
0.319288270914942
21
0.016500450570476
31
0.0253227675759305
12
0.319288270914942
22
0.120000450575191
32
0.0251961640349348
13
0.294288270915306
23
0.120000450575191
33
0.0253227675759305
70
0
0
3DFACE
5
181
330
16B
100
AcDbEntity
8
0
62
2
6
ByLayer
370
-1
48
1.0
60
0
100
AcDbFace
10
0.612153880482045
20
0.016500450570476
30
0.287696164034933
11
0.61215388048159
21
0.120000450575191
31
0.287822767575931
12
0.61215388048159
22
0.120000450575191
32
0.0253227675759305
13
0.612153880482045
23
0.016500450570476
33
0.0251961640349348
70
0
0
3DFACE
5
182
330
16B
100
AcDbEntity
8
0
62
2
6
ByLayer
370
-1
48
1.0
60
0
100
AcDbFace
10
0.587153880481954
20
0.016500450570476
30
0.28782276757593
11
0.587153880481954
21
0.120000450575191
31
0.287696164034934
12
0.587153880481954
22
0.120000450575191
32
0.0253227675759305
13
0.587153880481954
23
0.016500450570476
33
0.0253227675759305
70
0
0
3DFACE
5
183
330
16B
100
AcDbEntity
8
0
62
256
6
ByLayer
370
-1
48
1.0
60
0
100
AcDbFace
10
0.619294769737937
20
0.120000450575191
30
0.0253227675759305
11
0.594294769738301
21
0.120000450575191
31
0.0251961640349348
12
0.594294769738301
22
0.016500450570476
32
0.0253227675759305
13
0.619294769738391
23
0.016500450570476
33
0.0253227675759305
70
0
0
3DFACE
5
184
330
16B
100
AcDbEntity
8
0
62
2
6
ByLayer
370
-1
48
1.0
60
0
100
AcDbFace
10
0.874650631070116
20
0.0165004505704756
30
0.312756164034922
11
0.874650631070116
21
0.12000045057519
31
0.312756164034922
12
0.024650631070434
22
0.12000045057519
32
0.312756164034922
13
0.024650631070434
23
0.0165004505704756
33
0.312756164034922
70
0
0
3DFACE
5
185
330
16B
100
AcDbEntity
8
0
62
2
6
ByLayer
370
-1
48
1.0
60
0
100
AcDbFace
10
0.874650631070116
20
0.0165004505704757
30
2.11224383596508
11
0.874650631070116
21
0.120000450575191
31
2.11224383596508
12
0.024650631070434
22
0.120000450575191
32
2.11224383596508
13
0.024650631070434
23
0.0165004505704757
33
2.11224383596508
70
0
0
3DFACE
5
186
330
16B
100
AcDbEntity
8
0
62
2
6
ByLayer
370
-1
48
1.0
60
0
100
AcDbFace
10
0.874650631070116
20
0.0165004505704757
30
2.08724383596508
11
0.874650631070116
21
0.120000450575191
31
2.08724383596508
12
0.024650631070434
22
0.120000450575191
32
2.08724383596508
13
0.024650631070434
23
0.0165004505704757
33
2.08724383596508
70
0
0
3DFACE
5
187
330
16B
100
AcDbEntity
8
0
62
2
6
ByLayer
370
-1
48
1.0
60
0
100
AcDbFace
10
0.024650631070434
20
0.120000450575191
30
2.11224383596508
11
0.024650631070434
21
0.120000450575191
31
2.08724383596508
12
0.024650631070434
22
0.0165004505704757
32
2.08724383596508
13
0.024650631070434
23
0.0165004505704757
33
2.11224383596508
70
0
0
3DFACE
5
188
330
16B
100
AcDbEntity
8
0
62
2
6
ByLayer
370
-1
48
1.0
60
0
100
AcDbFace
10
0.874650631070116
20
0.0165004505704757
30
2.08724383596508
11
0.874650631070116
21
0.120000450575191
31
2.08724383596508
12
0.874650631070116
22
0.120000450575191
32
2.11224383596508
13
0.874650631070116
23
0.0165004505704757
33
2.11224383596508
70
0
0
3DFACE
5
189
330
16B
100
AcDbEntity
8
0
62
2
6
ByLayer
370
-1
48
1.0
60
0
100
AcDbFace
10
0.024650631070434
20
0.0165004505704757
30
2.08724383596508
11
0.024650631070434
21
0.120000450575191
31
2.08724383596508
12
0.874650631070116
22
0.120000450575191
32
2.08724383596508
13
0.874650631070116
23
0.0165004505704757
33
2.08724383596508
70
0
0
3DFACE
5
18A
330
16B
100
AcDbEntity
8
0
62
2
6
ByLayer
370
-1
48
1.0
60
0
100
AcDbFace
10
0.874650631070116
20
0.0165004505704757
30
1.81224383596508
11
0.874650631070116
21
0.120000450575191
31
1.81224383596508
12
0.024650631070434
22
0.120000450575191
32
1.81224383596508
13
0.024650631070434
23
0.0165004505704757
33
1.81224383596508
70
0
0
3DFACE
5
18B
330
16B
100
AcDbEntity
8
0
62
2
6
ByLayer
370
-1
48
1.0
60
0
100
AcDbFace
10
0.874650631070116
20
0.0165004505704757
30
1.78724383596508
11
0.874650631070116
21
0.120000450575191
31
1.78724383596508
12
0.024650631070434
22
0.120000450575191
32
1.78724383596508
13
0.024650631070434
23
0.0165004505704757
33
1.78724383596508
70
0
0
3DFACE
5
18C
330
16B
100
AcDbEntity
8
0
62
2
6
ByLayer
370
-1
48
1.0
60
0
100
AcDbFace
10
0.024650631070434
20
0.120000450575191
30
1.81224383596508
11
0.024650631070434
21
0.120000450575191
31
1.78724383596508
12
0.024650631070434
22
0.0165004505704757
32
1.78724383596508
13
0.024650631070434
23
0.0165004505704757
33
1.81224383596508
70
0
0
3DFACE
5
18D
330
16B
100
AcDbEntity
8
0
62
2
6
ByLayer
370
-1
48
1.0
60
0
100
AcDbFace
10
0.874650631070116
20
0.0165004505704757
30
1.78724383596508
11
0.874650631070116
21
0.120000450575191
31
1.78724383596508
12
0.874650631070116
22
0.120000450575191
32
1.81224383596508
13
0.874650631070116
23
0.0165004505704757
33
1.81224383596508
70
0
0
3DFACE
5
18E
330
16B
100
AcDbEntity
8
0
62
2
6
ByLayer
370
-1
48
1.0
60
0
100
AcDbFace
10
0.024650631070434
20
0.0165004505704757
30
1.78724383596508
11
0.024650631070434
21
0.120000450575191
31
1.78724383596508
12
0.874650631070116
22
0.120000450575191
32
1.78724383596508
13
0.874650631070116
23
0.0165004505704757
33
1.78724383596508
70
0
0
3DFACE
5
18F
330
16B
100
AcDbEntity
8
0
62
2
6
ByLayer
370
-1
48
1.0
60
0
100
AcDbFace
10
0.874650631070116
20
0.0165004505704757
30
1.51224383596508
11
0.874650631070116
21
0.120000450575191
31
1.51224383596508
12
0.024650631070434
22
0.120000450575191
32
1.51224383596508
13
0.024650631070434
23
0.0165004505704757
33
1.51224383596508
70
0
0
3DFACE
5
190
330
16B
100
AcDbEntity
8
0
62
2
6
ByLayer
370
-1
48
1.0
60
0
100
AcDbFace
10
0.874650631070116
20
0.0165004505704757
30
1.48724383596508
11
0.874650631070116
21
0.120000450575191
31
1.48724383596508
12
0.024650631070434
22
0.120000450575191
32
1.48724383596508
13
0.024650631070434
23
0.0165004505704757
33
1.48724383596508
70
0
0
3DFACE
5
191
330
16B
100
AcDbEntity
8
0
62
2
6
ByLayer
370
-1
48
1.0
60
0
100
AcDbFace
10
0.024650631070434
20
0.120000450575191
30
1.51224383596508
11
0.024650631070434
21
0.120000450575191
31
1.48724383596508
12
0.024650631070434
22
0.0165004505704757
32
1.48724383596508
13
0.024650631070434
23
0.0165004505704757
33
1.51224383596508
70
0
0
3DFACE
5
192
330
16B
100
AcDbEntity
8
0
62
2
6
ByLayer
370
-1
48
1.0
60
0
100
AcDbFace
10
0.024650631070434
20
0.0165004505704757
30
1.48724383596508
11
0.024650631070434
21
0.120000450575191
31
1.48724383596508
12
0.874650631070116
22
0.120000450575191
32
1.48724383596508
13
0.874650631070116
23
0.0165004505704757
33
1.48724383596508
70
0
0
3DFACE
5
193
330
16B
100
AcDbEntity
8
0
62
2
6
ByLayer
370
-1
48
1.0
60
0
100
AcDbFace
10
0.024650631070434
20
0.0165004505704757
30
0.587756164034923
11
0.024650631070434
21
0.120000450575191
31
0.587756164034923
12
0.874650631070116
22
0.120000450575191
32
0.587756164034923
13
0.874650631070116
23
0.0165004505704757
33
0.587756164034923
70
0
0
3DFACE
5
194
330
16B
100
AcDbEntity
8
0
62
2
6
ByLayer
370
-1
48
1.0
60
0
100
AcDbFace
10
0.024650631070434
20
0.0165004505704757
30
0.612756164034923
11
0.024650631070434
21
0.120000450575191
31
0.612756164034923
12
0.874650631070116
22
0.120000450575191
32
0.612756164034923
13
0.874650631070116
23
0.0165004505704757
33
0.612756164034923
70
0
0
3DFACE
5
195
330
16B
100
AcDbEntity
8
0
62
2
6
ByLayer
370
-1
48
1.0
60
0
100
AcDbFace
10
0.024650631070434
20
0.0165004505704757
30
0.587756164034923
11
0.024650631070434
21
0.0165004505704757
31
0.612756164034923
12
0.024650631070434
22
0.120000450575191
32
0.612756164034923
13
0.024650631070434
23
0.120000450575191
33
0.587756164034923
70
0
0
3DFACE
5
196
330
16B
100
AcDbEntity
8
0
62
2
6
ByLayer
370
-1
48
1.0
60
0
100
AcDbFace
10
0.874650631070116
20
0.0165004505704757
30
0.587756164034923
11
0.874650631070116
21
0.120000450575191
31
0.587756164034923
12
0.874650631070116
22
0.120000450575191
32
0.612756164034923
13
0.874650631070116
23
0.0165004505704757
33
0.612756164034923
70
0
0
3DFACE
5
197
330
16B
100
AcDbEntity
8
0
62
2
6
ByLayer
370
-1
48
1.0
60
0
100
AcDbFace
10
0.874650631070116
20
0.0165004505704757
30
0.612756164034922
11
0.874650631070116
21
0.120000450575191
31
0.612756164034922
12
0.024650631070434
22
0.120000450575191
32
0.612756164034922
13
0.024650631070434
23
0.0165004505704757
33
0.612756164034922
70
0
0
3DFACE
5
198
330
16B
100
AcDbEntity
8
0
62
2
6
ByLayer
370
-1
48
1.0
60
0
100
AcDbFace
10
0.024650631070434
20
0.0165004505704757
30
0.887756164034923
11
0.024650631070434
21
0.120000450575191
31
0.887756164034923
12
0.874650631070116
22
0.120000450575191
32
0.887756164034923
13
0.874650631070116
23
0.0165004505704757
33
0.887756164034923
70
0
0
3DFACE
5
199
330
16B
100
AcDbEntity
8
0
62
2
6
ByLayer
370
-1
48
1.0
60
0
100
AcDbFace
10
0.024650631070434
20
0.0165004505704757
30
0.912756164034923
11
0.024650631070434
21
0.120000450575191
31
0.912756164034923
12
0.874650631070116
22
0.120000450575191
32
0.912756164034923
13
0.874650631070116
23
0.0165004505704757
33
0.912756164034923
70
0
0
3DFACE
5
19A
330
16B
100
AcDbEntity
8
0
62
2
6
ByLayer
370
-1
48
1.0
60
0
100
AcDbFace
10
0.024650631070434
20
0.0165004505704757
30
0.887756164034923
11
0.024650631070434
21
0.0165004505704757
31
0.912756164034923
12
0.024650631070434
22
0.120000450575191
32
0.912756164034923
13
0.024650631070434
23
0.120000450575191
33
0.887756164034923
70
0
0
3DFACE
5
19B
330
16B
100
AcDbEntity
8
0
62
2
6
ByLayer
370
-1
48
1.0
60
0
100
AcDbFace
10
0.874650631070116
20
0.0165004505704757
30
0.887756164034923
11
0.874650631070116
21
0.120000450575191
31
0.887756164034923
12
0.874650631070116
22
0.120000450575191
32
0.912756164034923
13
0.874650631070116
23
0.0165004505704757
33
0.912756164034923
70
0
0
3DFACE
5
19C
330
16B
100
AcDbEntity
8
0
62
2
6
ByLayer
370
-1
48
1.0
60
0
100
AcDbFace
10
0.874650631070116
20
0.0165004505704757
30
0.912756164034922
11
0.874650631070116
21
0.120000450575191
31
0.912756164034922
12
0.024650631070434
22
0.120000450575191
32
0.912756164034922
13
0.024650631070434
23
0.0165004505704757
33
0.912756164034922
70
0
0
3DFACE
5
19D
330
16B
100
AcDbEntity
8
0
62
2
6
ByLayer
370
-1
48
1.0
60
0
100
AcDbFace
10
0.024650631070434
20
0.0165004505704757
30
1.18775616403492
11
0.024650631070434
21
0.120000450575191
31
1.18775616403492
12
0.874650631070116
22
0.120000450575191
32
1.18775616403492
13
0.874650631070116
23
0.0165004505704757
33
1.18775616403492
70
0
0
3DFACE
5
19E
330
16B
100
AcDbEntity
8
0
62
2
6
ByLayer
370
-1
48
1.0
60
0
100
AcDbFace
10
0.024650631070434
20
0.0165004505704757
30
1.21275616403492
11
0.024650631070434
21
0.120000450575191
31
1.21275616403492
12
0.874650631070116
22
0.120000450575191
32
1.21275616403492
13
0.874650631070116
23
0.0165004505704757
33
1.21275616403492
70
0
0
3DFACE
5
19F
330
16B
100
AcDbEntity
8
0
62
2
6
ByLayer
370
-1
48
1.0
60
0
100
AcDbFace
10
0.024650631070434
20
0.0165004505704757
30
1.18775616403492
11
0.024650631070434
21
0.0165004505704757
31
1.21275616403492
12
0.024650631070434
22
0.120000450575191
32
1.21275616403492
13
0.024650631070434
23
0.120000450575191
33
1.18775616403492
70
0
0
3DFACE
5
1A0
330
16B
100
AcDbEntity
8
0
62
2
6
ByLayer
370
-1
48
1.0
60
0
100
AcDbFace
10
0.874650631070116
20
0.0165004505704757
30
1.21275616403492
11
0.874650631070116
21
0.120000450575191
31
1.21275616403492
12
0.024650631070434
22
0.120000450575191
32
1.21275616403492
13
0.024650631070434
23
0.0165004505704757
33
1.21275616403492
70
0
0
3DFACE
5
1A1
330
16B
100
AcDbEntity
8
0
62
256
6
ByLayer
370
-1
48
1.0
60
0
100
AcDbFace
10
0.102668348889966
20
0.120000004280882
30
2.11223196139495
11
0.102668348889966
21
0.0165000042834436
31
2.11223196139495
12
0.0251093851143933
22
0.0165000042834436
32
2.19535589049985
13
0.0251093851143933
23
0.120000004280882
33
2.19535589049985
70
0
0
3DFACE
5
1A2
330
16B
100
AcDbEntity
8
0
62
256
6
ByLayer
370
-1
48
1.0
60
0
100
AcDbFace
10
0.0251093851143933
20
0.0165000042834436
30
2.18656092378981
11
0.094462185960384
21
0.0165000042834436
31
2.11223196139495
12
0.094462185960384
22
0.120000004280882
32
2.11223196139495
13
0.0251093851143933
23
0.120000004280882
33
2.18656092378981
70
0
0
3DFACE
5
1A3
330
16B
100
AcDbEntity
8
0
62
256
6
ByLayer
370
-1
48
1.0
60
0
100
AcDbFace
10
0.0251093851143933
20
0.120000004280882
30
2.18656092378981
11
0.094462185960384
21
0.120000004280882
31
2.11223196139495
12
0.102668348889966
22
0.120000004280882
32
2.11223196139495
13
0.0251093851143933
23
0.120000004280882
33
2.19535589049985
70
0
0
3DFACE
5
1A4
330
16B
100
AcDbEntity
8
0
62
256
6
ByLayer
370
-1
48
1.0
60
0
100
AcDbFace
10
0.0251093851143933
20
0.0165000042834436
30
2.18656092378981
11
0.094462185960384
21
0.0165000042834436
31
2.11223196139495
12
0.102668348889966
22
0.0165000042834435
32
2.11223196139495
13
0.0251093851143933
23
0.0165000042834436
33
2.19535589049985
70
0
0
3DFACE
5
1A5
330
16B
100
AcDbEntity
8
0
62
256
6
ByLayer
370
-1
48
1.0
60
0
100
AcDbFace
10
0.0251093851143933
20
0.0165000042834435
30
2.18656092378981
11
0.0251093851143933
21
0.120000004280882
31
2.18656092378981
12
0.0251093851143933
22
0.120000004280882
32
2.19535589049985
13
0.0251093851143933
23
0.0165000042834435
33
2.19535589049985
70
0
0
3DFACE
5
1A6
330
16B
100
AcDbEntity
8
0
62
256
6
ByLayer
370
-1
48
1.0
60
0
100
AcDbFace
10
0.0251093851143933
20
0.0165000042834435
30
2.18656092378981
11
0.0251093851143933
21
0.120000004280882
31
2.18656092378981
12
0.094462185960384
22
0.120000004280882
32
2.11223196139495
13
0.094462185960384
23
0.0165000042834436
33
2.11223196139495
70
0
0
3DFACE
5
1A7
330
16B
100
AcDbEntity
8
0
62
256
6
ByLayer
370
-1
48
1.0
60
0
100
AcDbFace
10
0.874191877026156
20
0.120000004280883
30
2.19535589049985
11
0.874191877026156
21
0.0165000042834437
31
2.19535589049985
12
0.796632913250583
22
0.0165000042834437
32
2.11223196139495
13
0.796632913250583
23
0.120000004280883
33
2.11223196139495
70
0
0
3DFACE
5
1A8
330
16B
100
AcDbEntity
8
0
62
256
6
ByLayer
370
-1
48
1.0
60
0
100
AcDbFace
10
0.874191877026156
20
0.120000004280883
30
2.18656092378981
11
0.804839076180165
21
0.120000004280883
31
2.11223196139495
12
0.804839076180165
22
0.0165000042834437
32
2.11223196139495
13
0.874191877026156
23
0.0165000042834437
33
2.18656092378981
70
0
0
3DFACE
5
1A9
330
16B
100
AcDbEntity
8
0
62
256
6
ByLayer
370
-1
48
1.0
60
0
100
AcDbFace
10
0.874191877026156
20
0.120000004280883
30
2.19535589049985
11
0.796632913250583
21
0.120000004280883
31
2.11223196139495
12
0.804839076180165
22
0.120000004280883
32
2.11223196139495
13
0.874191877026156
23
0.120000004280883
33
2.18656092378981
70
0
0
3DFACE
5
1AA
330
16B
100
AcDbEntity
8
0
62
256
6
ByLayer
370
-1
48
1.0
60
0
100
AcDbFace
10
0.874191877026156
20
0.0165000042834437
30
2.19535589049985
11
0.796632913250583
21
0.0165000042834437
31
2.11223196139495
12
0.804839076180165
22
0.0165000042834437
32
2.11223196139495
13
0.874191877026156
23
0.0165000042834437
33
2.18656092378981
70
0
0
3DFACE
5
1AB
330
16B
100
AcDbEntity
8
0
62
256
6
ByLayer
370
-1
48
1.0
60
0
100
AcDbFace
10
0.874191877026156
20
0.0165000042834437
30
2.19535589049985
11
0.874191877026156
21
0.120000004280883
31
2.19535589049985
12
0.874191877026156
22
0.120000004280883
32
2.18656092378981
13
0.874191877026156
23
0.0165000042834437
33
2.18656092378981
70
0
0
3DFACE
5
1AC
330
16B
100
AcDbEntity
8
0
62
256
6
ByLayer
370
-1
48
1.0
60
0
100
AcDbFace
10
0.804839076180165
20
0.0165000042834437
30
2.11223196139495
11
0.804839076180165
21
0.120000004280883
31
2.11223196139495
12
0.874191877026156
22
0.120000004280883
32
2.18656092378981
13
0.874191877026156
23
0.0165000042834437
33
2.18656092378981
70
0
0
3DFACE
5
1AD
330
16B
100
AcDbEntity
8
0
62
2
6
ByLayer
370
-1
48
1.0
60
0
100
AcDbFace
10
0.024650631070434
20
0.0165004505704756
30
0.587756164034923
11
0.024650631070434
21
0.0165004505704756
31
0.612756164034923
12
0.024650631070434
22
0.12000045057519
32
0.612756164034923
13
0.024650631070434
23
0.12000045057519
33
0.587756164034923
70
0
0
3DFACE
5
1AE
330
16B
100
AcDbEntity
8
0
62
2
6
ByLayer
370
-1
48
1.0
60
0
100
AcDbFace
10
0.874650631070116
20
0.0165004505704756
30
0.587756164034923
11
0.874650631070116
21
0.12000045057519
31
0.587756164034923
12
0.874650631070116
22
0.12000045057519
32
0.612756164034923
13
0.874650631070116
23
0.0165004505704756
33
0.612756164034923
70
0
0
3DFACE
5
1AF
330
16B
100
AcDbEntity
8
0
62
256
6
ByLayer
370
-1
48
1.0
60
0
100
AcDbFace
10
0.0251093851143933
20
0.120000004280882
30
0.504644109500146
11
0.0251093851143933
21
0.0165000042834435
31
0.504644109500146
12
0.102668348889966
22
0.0165000042834435
32
0.587768038605049
13
0.102668348889966
23
0.120000004280882
33
0.587768038605049
70
0
0
3DFACE
5
1B0
330
16B
100
AcDbEntity
8
0
62
256
6
ByLayer
370
-1
48
1.0
60
0
100
AcDbFace
10
0.0251093851143933
20
0.120000004280882
30
0.513439076210192
11
0.094462185960384
21
0.120000004280882
31
0.587768038605049
12
0.094462185960384
22
0.0165000042834435
32
0.587768038605049
13
0.0251093851143933
23
0.0165000042834435
33
0.513439076210192
70
0
0
3DFACE
5
1B1
330
16B
100
AcDbEntity
8
0
62
256
6
ByLayer
370
-1
48
1.0
60
0
100
AcDbFace
10
0.0251093851143933
20
0.120000004280882
30
0.504644109500146
11
0.102668348889966
21
0.120000004280882
31
0.587768038605049
12
0.094462185960384
22
0.120000004280882
32
0.587768038605049
13
0.0251093851143933
23
0.120000004280882
33
0.513439076210192
70
0
0
3DFACE
5
1B2
330
16B
100
AcDbEntity
8
0
62
256
6
ByLayer
370
-1
48
1.0
60
0
100
AcDbFace
10
0.0251093851143933
20
0.0165000042834435
30
0.504644109500146
11
0.102668348889966
21
0.0165000042834434
31
0.587768038605049
12
0.094462185960384
22
0.0165000042834435
32
0.587768038605049
13
0.0251093851143933
23
0.0165000042834435
33
0.513439076210192
70
0
0
3DFACE
5
1B3
330
16B
100
AcDbEntity
8
0
62
256
6
ByLayer
370
-1
48
1.0
60
0
100
AcDbFace
10
0.0251093851143933
20
0.0165000042834434
30
0.504644109500146
11
0.0251093851143933
21
0.120000004280882
31
0.504644109500146
12
0.0251093851143933
22
0.120000004280882
32
0.513439076210192
13
0.0251093851143933
23
0.0165000042834434
33
0.513439076210192
70
0
0
3DFACE
5
1B4
330
16B
100
AcDbEntity
8
0
62
256
6
ByLayer
370
-1
48
1.0
60
0
100
AcDbFace
10
0.094462185960384
20
0.0165000042834435
30
0.587768038605049
11
0.094462185960384
21
0.120000004280882
31
0.587768038605049
12
0.0251093851143933
22
0.120000004280882
32
0.513439076210192
13
0.0251093851143933
23
0.0165000042834434
33
0.513439076210192
70
0
0
3DFACE
5
1B5
330
16B
100
AcDbEntity
8
0
62
256
6
ByLayer
370
-1
48
1.0
60
0
100
AcDbFace
10
0.796632913250583
20
0.120000004280882
30
0.587768038605049
11
0.796632913250583
21
0.0165000042834436
31
0.587768038605049
12
0.874191877026156
22
0.0165000042834436
32
0.504644109500146
13
0.874191877026156
23
0.120000004280883
33
0.504644109500146
70
0
0
3DFACE
5
1B6
330
16B
100
AcDbEntity
8
0
62
256
6
ByLayer
370
-1
48
1.0
60
0
100
AcDbFace
10
0.874191877026156
20
0.0165000042834436
30
0.513439076210192
11
0.804839076180165
21
0.0165000042834436
31
0.587768038605049
12
0.804839076180165
22
0.120000004280882
32
0.587768038605049
13
0.874191877026156
23
0.120000004280883
33
0.513439076210192
70
0
0
3DFACE
5
1B7
330
16B
100
AcDbEntity
8
0
62
256
6
ByLayer
370
-1
48
1.0
60
0
100
AcDbFace
10
0.874191877026156
20
0.120000004280883
30
0.513439076210192
11
0.804839076180165
21
0.120000004280882
31
0.587768038605049
12
0.796632913250583
22
0.120000004280882
32
0.587768038605049
13
0.874191877026156
23
0.120000004280883
33
0.504644109500146
70
0
0
3DFACE
5
1B8
330
16B
100
AcDbEntity
8
0
62
256
6
ByLayer
370
-1
48
1.0
60
0
100
AcDbFace
10
0.874191877026156
20
0.0165000042834436
30
0.513439076210192
11
0.804839076180165
21
0.0165000042834436
31
0.587768038605049
12
0.796632913250583
22
0.0165000042834436
32
0.587768038605049
13
0.874191877026156
23
0.0165000042834436
33
0.504644109500146
70
0
0
3DFACE
5
1B9
330
16B
100
AcDbEntity
8
0
62
256
6
ByLayer
370
-1
48
1.0
60
0
100
AcDbFace
10
0.874191877026156
20
0.0165000042834436
30
0.513439076210192
11
0.874191877026156
21
0.120000004280883
31
0.513439076210192
12
0.874191877026156
22
0.120000004280883
32
0.504644109500146
13
0.874191877026156
23
0.0165000042834436
33
0.504644109500146
70
0
0
3DFACE
5
1BA
330
16B
100
AcDbEntity
8
0
62
256
6
ByLayer
370
-1
48
1.0
60
0
100
AcDbFace
10
0.874191877026156
20
0.0165000042834436
30
0.513439076210192
11
0.874191877026156
21
0.120000004280883
31
0.513439076210192
12
0.804839076180165
22
0.120000004280882
32
0.587768038605049
13
0.804839076180165
23
0.0165000042834436
33
0.587768038605049
70
0
0
LWPOLYLINE
5
1BB
330
16B
100
AcDbEntity
8
0
62
2
6
ByLayer
370
-1
48
1.0
60
0
100
AcDbPolyline
90
13
70
1
38
0.0
39
2.7
10
0.9
20
0.119999999988067
40
0.0
41
0.0
42
0.0
10
0.874999999999909
20
0.120000000002619
40
0.0
41
0.0
42
0.0
10
0.874999999999909
20
0.0899999999892316
40
0.0
41
0.0
42
0.0
10
0.883988605796185
20
0.0824999999903372
40
0.0
41
0.0
42
0.0
10
0.895856859147125
20
0.0805010550175212
40
0.0
41
0.0
42
0.0
10
0.895879015326409
20
0.0384999999878346
40
0.0
41
0.0
42
0.0
10
0.879000000000042
20
0.0364999999874264
40
0.0
41
0.0
42
0.0
10
0.875000000000042
20
0.0324999999938882
40
0.0
41
0.0
42
0.0
10
0.874999999999818
20
0.0204999999987197
40
0.0
41
0.0
42
0.0
10
0.879000000000037
20
0.0164999999934832
40
0.0
41
0.0
42
0.0
10
0.894078174573133
20
0.0150464246617048
40
0.0
41
0.0
42
0.0
10
0.891963537490392
20
0.0
40
0.0
41
0.0
42
0.0
10
0.9
20
0.0
40
0.0
41
0.0
42
0.0
210
0.0
220
0.0
230
1.0
0
LWPOLYLINE
5
1BC
330
16B
100
AcDbEntity
8
0
62
2
6
ByLayer
370
-1
48
1.0
60
0
100
AcDbPolyline
90
13
70
1
38
0.0
39
0.9
10
0.119999999988067
20
2.7
40
0.0
41
0.0
42
0.0
10
0.120000000002619
20
2.67499999999991
40
0.0
41
0.0
42
0.0
10
0.0899999999892316
20
2.67499999999991
40
0.0
41
0.0
42
0.0
10
0.0824999999903372
20
2.68398860579619
40
0.0
41
0.0
42
0.0
10
0.0805010550175212
20
2.69585685914713
40
0.0
41
0.0
42
0.0
10
0.0384999999878346
20
2.69587901532641
40
0.0
41
0.0
42
0.0
10
0.0364999999874264
20
2.67900000000004
40
0.0
41
0.0
42
0.0
10
0.0324999999938882
20
2.67500000000004
40
0.0
41
0.0
42
0.0
10
0.0204999999987197
20
2.67499999999982
40
0.0
41
0.0
42
0.0
10
0.0164999999934832
20
2.67900000000004
40
0.0
41
0.0
42
0.0
10
0.0150464246617049
20
2.69407817457313
40
0.0
41
0.0
42
0.0
10
0.0
20
2.69196353749039
40
0.0
41
0.0
42
0.0
10
0.0
20
2.7
40
0.0
41
0.0
42
0.0
210
1.0
220
0.0
230
-0.0000000000000002
0
LWPOLYLINE
5
1BD
330
16B
100
AcDbEntity
8
0
62
2
6
ByLayer
370
-1
48
1.0
60
0
100
AcDbPolyline
90
13
70
1
38
0.0
39
2.7
10
0.0000000000000007
20
0.119999999988067
40
0.0
41
0.0
42
0.0
10
0.0250000000000916
20
0.120000000002619
40
0.0
41
0.0
42
0.0
10
0.0250000000000916
20
0.0899999999892314
40
0.0
41
0.0
42
0.0
10
0.0160113942038158
20
0.0824999999903371
40
0.0
41
0.0
42
0.0
10
0.0041431408528758
20
0.080501055017521
40
0.0
41
0.0
42
0.0
10
0.0041209846735917
20
0.0384999999878345
40
0.0
41
0.0
42
0.0
10
0.0209999999999588
20
0.0364999999874262
40
0.0
41
0.0
42
0.0
10
0.0249999999999588
20
0.0324999999938881
40
0.0
41
0.0
42
0.0
10
0.025000000000183
20
0.0204999999987195
40
0.0
41
0.0
42
0.0
10
0.0209999999999645
20
0.016499999993483
40
0.0
41
0.0
42
0.0
10
0.0059218254268678
20
0.0150464246617047
40
0.0
41
0.0
42
0.0
10
0.0080364625096088
20
-0.0000000000000002
40
0.0
41
0.0
42
0.0
10
0.0000000000000009
20
-0.0000000000000002
40
0.0
41
0.0
42
0.0
210
0.0
220
0.0
230
1.0
0
LWPOLYLINE
5
1BE
330
16B
100
AcDbEntity
8
0
62
2
6
ByLayer
370
-1
48
1.0
60
0
100
AcDbPolyline
90
13
70
1
38
0.0
39
0.9
10
0.119999999988067
20
0.0
40
0.0
41
0.0
42
0.0
10
0.120000000002619
20
0.025000000000091
40
0.0
41
0.0
42
0.0
10
0.0899999999892316
20
0.025000000000091
40
0.0
41
0.0
42
0.0
10
0.0824999999903372
20
0.0160113942038152
40
0.0
41
0.0
42
0.0
10
0.0805010550175212
20
0.0041431408528752
40
0.0
41
0.0
42
0.0
10
0.0384999999878346
20
0.004120984673591
40
0.0
41
0.0
42
0.0
10
0.0364999999874264
20
0.0209999999999582
40
0.0
41
0.0
42
0.0
10
0.0324999999938882
20
0.0249999999999582
40
0.0
41
0.0
42
0.0
10
0.0204999999987197
20
0.025000000000182
40
0.0
41
0.0
42
0.0
10
0.0164999999934832
20
0.0209999999999635
40
0.0
41
0.0
42
0.0
10
0.0150464246617049
20
0.0059218254268671
40
0.0
41
0.0
42
0.0
10
0.0
20
0.0080364625096081
40
0.0
41
0.0
42
0.0
10
0.0
20
0.0
40
0.0
41
0.0
42
0.0
210
1.0
220
0.0
230
0.0000000000000002
0
LWPOLYLINE
5
1BF
330
16B
100
AcDbEntity
8
0
62
2
6
ByLayer
370
-1
48
1.0
60
0
100
AcDbPolyline
90
13
70
1
38
0.0
39
0.9
10
0.119999999988067
20
0.0
40
0.0
41
0.0
42
0.0
10
0.120000000002619
20
0.025000000000091
40
0.0
41
0.0
42
0.0
10
0.0899999999892314
20
0.025000000000091
40
0.0
41
0.0
42
0.0
10
0.082499999990337
20
0.0160113942038152
40
0.0
41
0.0
42
0.0
10
0.080501055017521
20
0.0041431408528752
40
0.0
41
0.0
42
0.0
10
0.0384999999878345
20
0.004120984673591
40
0.0
41
0.0
42
0.0
10
0.0364999999874262
20
0.0209999999999582
40
0.0
41
0.0
42
0.0
10
0.032499999993888
20
0.0249999999999582
40
0.0
41
0.0
42
0.0
10
0.0204999999987195
20
0.025000000000182
40
0.0
41
0.0
42
0.0
10
0.016499999993483
20
0.0209999999999635
40
0.0
41
0.0
42
0.0
10
0.0150464246617047
20
0.0059218254268671
40
0.0
41
0.0
42
0.0
10
-0.0000000000000001
20
0.0080364625096081
40
0.0
41
0.0
42
0.0
10
-0.0000000000000001
20
0.0
40
0.0
41
0.0
42
0.0
210
1.0
220
0.0
230
0.0000000000000002
0
CIRCLE
5
1C0
330
16B
100
AcDbEntity
8
0
62
2
6
ByLayer
370
-1
48
1.0
60
0
100
AcDbCircle
10
0.0746506310701611
20
0.080000456140425
30
2.41224383596508
40
0.012
39
0.0
210
0.0
220
0.0
230
1.0
0
CIRCLE
5
1C1
330
16B
100
AcDbEntity
8
0
62
2
6
ByLayer
370
-1
48
1.0
60
0
100
AcDbCircle
10
0.149650631070434
20
0.070000457535372
30
2.41224383596508
40
0.012
39
0.0
210
0.0
220
0.0
230
1.0
0
CIRCLE
5
1C2
330
16B
100
AcDbEntity
8
0
62
2
6
ByLayer
370
-1
48
1.0
60
0
100
AcDbCircle
10
0.224650631070252
20
0.070000457535372
30
2.41224383596508
40
0.012
39
0.0
210
0.0
220
0.0
230
1.0
0
CIRCLE
5
1C3
330
16B
100
AcDbEntity
8
0
62
2
6
ByLayer
370
-1
48
1.0
60
0
100
AcDbCircle
10
0.749650631070116
20
0.0800004561404254
30
2.41224383596508
40
0.012
39
0.0
210
0.0
220
0.0
230
1.0
0
CIRCLE
5
1C4
330
16B
100
AcDbEntity
8
0
62
2
6
ByLayer
370
-1
48
1.0
60
0
100
AcDbCircle
10
0.0700004672706033
20
2.53718053419457
30
0.287147381658504
40
0.012
39
0.0
210
1.0
220
0.0
230
0.0
0
CIRCLE
5
1C5
330
16B
100
AcDbEntity
8
0
62
2
6
ByLayer
370
-1
48
1.0
60
0
100
AcDbCircle
10
0.0800004672726406
20
2.46218053419457
30
0.287147381658504
40
0.012
39
0.0
210
1.0
220
0.0
230
0.0
0
CIRCLE
5
1C6
330
16B
100
AcDbEntity
8
0
62
2
6
ByLayer
370
-1
48
1.0
60
0
100
AcDbCircle
10
0.0700004672706033
20
2.53718053419457
30
0.312147381658595
40
0.012
39
0.0
210
1.0
220
0.0
230
0.0
0
CIRCLE
5
1C7
330
16B
100
AcDbEntity
8
0
62
2
6
ByLayer
370
-1
48
1.0
60
0
100
AcDbCircle
10
0.0800004672726406
20
2.46218053419457
30
0.312147381658595
40
0.012
39
0.0
210
1.0
220
0.0
230
0.0
0
CIRCLE
5
1C8
330
16B
100
AcDbEntity
8
0
62
2
6
ByLayer
370
-1
48
1.0
60
0
100
AcDbCircle
10
-0.0700004672706031
20
2.53718053419457
30
-0.612153880482045
40
0.012
39
0.0
210
-1.0
220
-0.0000000000000004
230
0.0
0
CIRCLE
5
1C9
330
16B
100
AcDbEntity
8
0
62
2
6
ByLayer
370
-1
48
1.0
60
0
100
AcDbCircle
10
-0.0800004672726403
20
2.46218053419457
30
-0.612153880482045
40
0.012
39
0.0
210
-1.0
220
-0.0000000000000004
230
0.0
0
CIRCLE
5
1CA
330
16B
100
AcDbEntity
8
0
62
2
6
ByLayer
370
-1
48
1.0
60
0
100
AcDbCircle
10
-0.0700004672706031
20
2.53718053419457
30
-0.587153880481954
40
0.012
39
0.0
210
-1.0
220
-0.0000000000000004
230
0.0
0
CIRCLE
5
1CB
330
16B
100
AcDbEntity
8
0
62
2
6
ByLayer
370
-1
48
1.0
60
0
100
AcDbCircle
10
-0.0800004672726403
20
2.46218053419457
30
-0.587153880481954
40
0.012
39
0.0
210
-1.0
220
-0.0000000000000004
230
0.0
0
CIRCLE
5
1CC
330
16B
100
AcDbEntity
8
0
62
2
6
ByLayer
370
-1
48
1.0
60
0
100
AcDbCircle
10
-0.0746506310701611
20
0.0800004561404247
30
-2.38724383596508
40
0.012
39
0.0
210
0.0
220
-0.0000000000000001
230
-1.0
0
CIRCLE
5
1CD
330
16B
100
AcDbEntity
8
0
62
2
6
ByLayer
370
-1
48
1.0
60
0
100
AcDbCircle
10
-0.149650631070434
20
0.0700004575353717
30
-2.38724383596508
40
0.012
39
0.0
210
0.0
220
-0.0000000000000001
230
-1.0
0
CIRCLE
5
1CE
330
16B
100
AcDbEntity
8
0
62
2
6
ByLayer
370
-1
48
1.0
60
0
100
AcDbCircle
10
-0.224650631070252
20
0.0700004575353717
30
-2.38724383596508
40
0.012
39
0.0
210
0.0
220
-0.0000000000000001
230
-1.0
0
CIRCLE
5
1CF
330
16B
100
AcDbEntity
8
0
62
2
6
ByLayer
370
-1
48
1.0
60
0
100
AcDbCircle
10
-0.749650631070116
20
0.0800004561404251
30
-2.38724383596508
40
0.012
39
0.0
210
0.0
220
-0.0000000000000001
230
-1.0
0
CIRCLE
5
1D0
330
16B
100
AcDbEntity
8
0
62
2
6
ByLayer
370
-1
48
1.0
60
0
100
AcDbCircle
10
-0.0746506310701611
20
0.0800004561404248
30
-0.287756164034923
40
0.012
39
0.0
210
0.0
220
-0.0000000000000001
230
-1.0
0
CIRCLE
5
1D1
330
16B
100
AcDbEntity
8
0
62
2
6
ByLayer
370
-1
48
1.0
60
0
100
AcDbCircle
10
-0.149650631070434
20
0.0700004575353718
30
-0.287756164034923
40
0.012
39
0.0
210
0.0
220
-0.0000000000000001
230
-1.0
0
CIRCLE
5
1D2
330
16B
100
AcDbEntity
8
0
62
2
6
ByLayer
370
-1
48
1.0
60
0
100
AcDbCircle
10
-0.224650631070252
20
0.0700004575353718
30
-0.287756164034923
40
0.012
39
0.0
210
0.0
220
-0.0000000000000001
230
-1.0
0
CIRCLE
5
1D3
330
16B
100
AcDbEntity
8
0
62
2
6
ByLayer
370
-1
48
1.0
60
0
100
AcDbCircle
10
-0.749650631070116
20
0.0800004561404252
30
-0.287756164034923
40
0.012
39
0.0
210
0.0
220
-0.0000000000000001
230
-1.0
0
CIRCLE
5
1D4
330
16B
100
AcDbEntity
8
0
62
2
6
ByLayer
370
-1
48
1.0
60
0
100
AcDbCircle
10
0.0700004672706031
20
0.162819465805427
30
0.287147381658504
40
0.012
39
0.0
210
1.0
220
0.0
230
0.0
0
CIRCLE
5
1D5
330
16B
100
AcDbEntity
8
0
62
2
6
ByLayer
370
-1
48
1.0
60
0
100
AcDbCircle
10
0.0800004672726404
20
0.237819465805426
30
0.287147381658504
40
0.012
39
0.0
210
1.0
220
0.0
230
0.0
0
CIRCLE
5
1D6
330
16B
100
AcDbEntity
8
0
62
2
6
ByLayer
370
-1
48
1.0
60
0
100
AcDbCircle
10
0.0700004672706031
20
0.162819465805427
30
0.312147381658595
40
0.012
39
0.0
210
1.0
220
0.0
230
0.0
0
CIRCLE
5
1D7
330
16B
100
AcDbEntity
8
0
62
2
6
ByLayer
370
-1
48
1.0
60
0
100
AcDbCircle
10
0.0800004672726404
20
0.237819465805426
30
0.312147381658595
40
0.012
39
0.0
210
1.0
220
0.0
230
0.0
0
CIRCLE
5
1D8
330
16B
100
AcDbEntity
8
0
62
2
6
ByLayer
370
-1
48
1.0
60
0
100
AcDbCircle
10
-0.0700004672706029
20
0.162819465805427
30
-0.612153880482045
40
0.012
39
0.0
210
-1.0
220
-0.0000000000000004
230
0.0
0
CIRCLE
5
1D9
330
16B
100
AcDbEntity
8
0
62
2
6
ByLayer
370
-1
48
1.0
60
0
100
AcDbCircle
10
-0.0800004672726402
20
0.237819465805426
30
-0.612153880482045
40
0.012
39
0.0
210
-1.0
220
-0.0000000000000004
230
0.0
0
CIRCLE
5
1DA
330
16B
100
AcDbEntity
8
0
62
2
6
ByLayer
370
-1
48
1.0
60
0
100
AcDbCircle
10
-0.0700004672706029
20
0.162819465805427
30
-0.587153880481954
40
0.012
39
0.0
210
-1.0
220
-0.0000000000000004
230
0.0
0
CIRCLE
5
1DB
330
16B
100
AcDbEntity
8
0
62
2
6
ByLayer
370
-1
48
1.0
60
0
100
AcDbCircle
10
-0.0800004672726402
20
0.237819465805426
30
-0.587153880481954
40
0.012
39
0.0
210
-1.0
220
-0.0000000000000004
230
0.0
0
CIRCLE
5
1DC
330
16B
100
AcDbEntity
8
0
62
2
6
ByLayer
370
-1
48
1.0
60
0
100
AcDbCircle
10
0.0746506310701611
20
0.0800004561404248
30
0.312756164034922
40
0.012
39
0.0
210
0.0
220
0.0
230
1.0
0
CIRCLE
5
1DD
330
16B
100
AcDbEntity
8
0
62
2
6
ByLayer
370
-1
48
1.0
60
0
100
AcDbCircle
10
0.149650631070434
20
0.0700004575353719
30
0.312756164034922
40
0.012
39
0.0
210
0.0
220
0.0
230
1.0
0
CIRCLE
5
1DE
330
16B
100
AcDbEntity
8
0
62
2
6
ByLayer
370
-1
48
1.0
60
0
100
AcDbCircle
10
0.224650631070252
20
0.0700004575353719
30
0.312756164034922
40
0.012
39
0.0
210
0.0
220
0.0
230
1.0
0
CIRCLE
5
1DF
330
16B
100
AcDbEntity
8
0
62
2
6
ByLayer
370
-1
48
1.0
60
0
100
AcDbCircle
10
0.749650631070116
20
0.0800004561404253
30
0.312756164034922
40
0.012
39
0.0
210
0.0
220
0.0
230
1.0
0
CIRCLE
5
1E0
330
16B
100
AcDbEntity
8
0
62
2
6
ByLayer
370
-1
48
1.0
60
0
100
AcDbCircle
10
0.448557216266409
20
0.0684484198791323
30
2.28670981767374
40
0.0075
39
0.1
210
0.0
220
0.0
230
1.0
0
CIRCLE
5
1E1
330
16B
100
AcDbEntity
8
0
62
2
6
ByLayer
370
-1
48
1.0
60
0
100
AcDbCircle
10
0.0684484198791322
20
2.29410446050305
30
0.355994204418838
40
0.0075
39
0.1
210
1.0
220
0.0000000000000001
230
-0.0000000000000002
0
CIRCLE
5
1E2
330
16B
100
AcDbEntity
8
0
62
2
6
ByLayer
370
-1
48
1.0
60
0
100
AcDbCircle
10
-0.448557216266409
20
0.0684484198791323
30
-0.413290182326257
40
0.0075
39
0.1
210
0.0
220
0.0
230
-1.0
0
CIRCLE
5
1E3
330
16B
100
AcDbEntity
8
0
62
2
6
ByLayer
370
-1
48
1.0
60
0
100
AcDbCircle
10
0.0684484198791322
20
0.405895539496945
30
0.355994204418839
40
0.0075
39
0.1
210
1.0
220
0.0000000000000001
230
0.0000000000000002
0
CIRCLE
5
1E4
330
16B
100
AcDbEntity
8
0
62
2
6
ByLayer
370
-1
48
1.0
60
0
100
AcDbCircle
10
0.0746506310701611
20
0.080000456140425
30
2.11224383596508
40
0.012
39
0.0
210
0.0
220
0.0
230
1.0
0
CIRCLE
5
1E5
330
16B
100
AcDbEntity
8
0
62
2
6
ByLayer
370
-1
48
1.0
60
0
100
AcDbCircle
10
0.149650631070434
20
0.070000457535372
30
2.11224383596508
40
0.012
39
0.0
210
0.0
220
0.0
230
1.0
0
CIRCLE
5
1E6
330
16B
100
AcDbEntity
8
0
62
2
6
ByLayer
370
-1
48
1.0
60
0
100
AcDbCircle
10
0.224650631070252
20
0.070000457535372
30
2.11224383596508
40
0.012
39
0.0
210
0.0
220
0.0
230
1.0
0
CIRCLE
5
1E7
330
16B
100
AcDbEntity
8
0
62
2
6
ByLayer
370
-1
48
1.0
60
0
100
AcDbCircle
10
0.749650631070116
20
0.0800004561404254
30
2.11224383596508
40
0.012
39
0.0
210
0.0
220
0.0
230
1.0
0
CIRCLE
5
1E8
330
16B
100
AcDbEntity
8
0
62
2
6
ByLayer
370
-1
48
1.0
60
0
100
AcDbCircle
10
-0.0746506310701611
20
0.0800004561404247
30
-2.08724383596508
40
0.012
39
0.0
210
0.0
220
-0.0000000000000001
230
-1.0
0
CIRCLE
5
1E9
330
16B
100
AcDbEntity
8
0
62
2
6
ByLayer
370
-1
48
1.0
60
0
100
AcDbCircle
10
-0.149650631070434
20
0.0700004575353718
30
-2.08724383596508
40
0.012
39
0.0
210
0.0
220
-0.0000000000000001
230
-1.0
0
CIRCLE
5
1EA
330
16B
100
AcDbEntity
8
0
62
2
6
ByLayer
370
-1
48
1.0
60
0
100
AcDbCircle
10
-0.224650631070252
20
0.0700004575353718
30
-2.08724383596508
40
0.012
39
0.0
210
0.0
220
-0.0000000000000001
230
-1.0
0
CIRCLE
5
1EB
330
16B
100
AcDbEntity
8
0
62
2
6
ByLayer
370
-1
48
1.0
60
0
100
AcDbCircle
10
-0.749650631070116
20
0.0800004561404252
30
-2.08724383596508
40
0.012
39
0.0
210
0.0
220
-0.0000000000000001
230
-1.0
0
CIRCLE
5
1EC
330
16B
100
AcDbEntity
8
0
62
2
6
ByLayer
370
-1
48
1.0
60
0
100
AcDbCircle
10
0.0746506310701611
20
0.080000456140425
30
1.81224383596508
40
0.012
39
0.0
210
0.0
220
0.0
230
1.0
0
CIRCLE
5
1ED
330
16B
100
AcDbEntity
8
0
62
2
6
ByLayer
370
-1
48
1.0
60
0
100
AcDbCircle
10
0.149650631070434
20
0.070000457535372
30
1.81224383596508
40
0.012
39
0.0
210
0.0
220
0.0
230
1.0
0
CIRCLE
5
1EE
330
16B
100
AcDbEntity
8
0
62
2
6
ByLayer
370
-1
48
1.0
60
0
100
AcDbCircle
10
0.224650631070252
20
0.070000457535372
30
1.81224383596508
40
0.012
39
0.0
210
0.0
220
0.0
230
1.0
0
CIRCLE
5
1EF
330
16B
100
AcDbEntity
8
0
62
2
6
ByLayer
370
-1
48
1.0
60
0
100
AcDbCircle
10
0.749650631070116
20
0.0800004561404254
30
1.81224383596508
40
0.012
39
0.0
210
0.0
220
0.0
230
1.0
0
CIRCLE
5
1F0
330
16B
100
AcDbEntity
8
0
62
2
6
ByLayer
370
-1
48
1.0
60
0
100
AcDbCircle
10
-0.0746506310701611
20
0.0800004561404247
30
-1.78724383596508
40
0.012
39
0.0
210
0.0
220
-0.0000000000000001
230
-1.0
0
CIRCLE
5
1F1
330
16B
100
AcDbEntity
8
0
62
2
6
ByLayer
370
-1
48
1.0
60
0
100
AcDbCircle
10
-0.149650631070434
20
0.0700004575353718
30
-1.78724383596508
40
0.012
39
0.0
210
0.0
220
-0.0000000000000001
230
-1.0
0
CIRCLE
5
1F2
330
16B
100
AcDbEntity
8
0
62
2
6
ByLayer
370
-1
48
1.0
60
0
100
AcDbCircle
10
-0.224650631070252
20
0.0700004575353718
30
-1.78724383596508
40
0.012
39
0.0
210
0.0
220
-0.0000000000000001
230
-1.0
0
CIRCLE
5
1F3
330
16B
100
AcDbEntity
8
0
62
2
6
ByLayer
370
-1
48
1.0
60
0
100
AcDbCircle
10
-0.749650631070116
20
0.0800004561404252
30
-1.78724383596508
40
0.012
39
0.0
210
0.0
220
-0.0000000000000001
230
-1.0
0
CIRCLE
5
1F4
330
16B
100
AcDbEntity
8
0
62
2
6
ByLayer
370
-1
48
1.0
60
0
100
AcDbCircle
10
0.0746506310701611
20
0.080000456140425
30
1.51224383596507
40
0.012
39
0.0
210
0.0
220
0.0
230
1.0
0
CIRCLE
5
1F5
330
16B
100
AcDbEntity
8
0
62
2
6
ByLayer
370
-1
48
1.0
60
0
100
AcDbCircle
10
-0.0746506310701611
20
0.0800004561404248
30
-1.48724383596508
40
0.012
39
0.0
210
0.0
220
-0.0000000000000001
230
-1.0
0
CIRCLE
5
1F6
330
16B
100
AcDbEntity
8
0
62
2
6
ByLayer
370
-1
48
1.0
60
0
100
AcDbCircle
10
-0.0746506310701611
20
0.080000456140425
30
-0.587756164034923
40
0.012
39
0.0
210
0.0
220
0.0
230
-1.0
0
CIRCLE
5
1F7
330
16B
100
AcDbEntity
8
0
62
2
6
ByLayer
370
-1
48
1.0
60
0
100
AcDbCircle
10
-0.149650631070434
20
0.070000457535372
30
-0.587756164034923
40
0.012
39
0.0
210
0.0
220
0.0
230
-1.0
0
CIRCLE
5
1F8
330
16B
100
AcDbEntity
8
0
62
2
6
ByLayer
370
-1
48
1.0
60
0
100
AcDbCircle
10
-0.224650631070252
20
0.070000457535372
30
-0.587756164034923
40
0.012
39
0.0
210
0.0
220
0.0
230
-1.0
0
CIRCLE
5
1F9
330
16B
100
AcDbEntity
8
0
62
2
6
ByLayer
370
-1
48
1.0
60
0
100
AcDbCircle
10
-0.749650631070116
20
0.0800004561404254
30
-0.587756164034923
40
0.012
39
0.0
210
0.0
220
0.0
230
-1.0
0
CIRCLE
5
1FA
330
16B
100
AcDbEntity
8
0
62
2
6
ByLayer
370
-1
48
1.0
60
0
100
AcDbCircle
10
0.0746506310701611
20
0.080000456140425
30
0.612756164034922
40
0.012
39
0.0
210
0.0
220
0.0
230
1.0
0
CIRCLE
5
1FB
330
16B
100
AcDbEntity
8
0
62
2
6
ByLayer
370
-1
48
1.0
60
0
100
AcDbCircle
10
0.149650631070434
20
0.070000457535372
30
0.612756164034922
40
0.012
39
0.0
210
0.0
220
0.0
230
1.0
0
CIRCLE
5
1FC
330
16B
100
AcDbEntity
8
0
62
2
6
ByLayer
370
-1
48
1.0
60
0
100
AcDbCircle
10
0.224650631070252
20
0.070000457535372
30
0.612756164034922
40
0.012
39
0.0
210
0.0
220
0.0
230
1.0
0
CIRCLE
5
1FD
330
16B
100
AcDbEntity
8
0
62
2
6
ByLayer
370
-1
48
1.0
60
0
100
AcDbCircle
10
0.749650631070116
20
0.0800004561404254
30
0.612756164034922
40
0.012
39
0.0
210
0.0
220
0.0
230
1.0
0
CIRCLE
5
1FE
330
16B
100
AcDbEntity
8
0
62
2
6
ByLayer
370
-1
48
1.0
60
0
100
AcDbCircle
10
-0.0746506310701611
20
0.080000456140425
30
-0.887756164034923
40
0.012
39
0.0
210
0.0
220
0.0
230
-1.0
0
CIRCLE
5
1FF
330
16B
100
AcDbEntity
8
0
62
2
6
ByLayer
370
-1
48
1.0
60
0
100
AcDbCircle
10
-0.149650631070434
20
0.070000457535372
30
-0.887756164034923
40
0.012
39
0.0
210
0.0
220
0.0
230
-1.0
0
CIRCLE
5
200
330
16B
100
AcDbEntity
8
0
62
2
6
ByLayer
370
-1
48
1.0
60
0
100
AcDbCircle
10
-0.224650631070252
20
0.070000457535372
30
-0.887756164034923
40
0.012
39
0.0
210
0.0
220
0.0
230
-1.0
0
CIRCLE
5
201
330
16B
100
AcDbEntity
8
0
62
2
6
ByLayer
370
-1
48
1.0
60
0
100
AcDbCircle
10
-0.749650631070116
20
0.0800004561404254
30
-0.887756164034923
40
0.012
39
0.0
210
0.0
220
0.0
230
-1.0
0
CIRCLE
5
202
330
16B
100
AcDbEntity
8
0
62
2
6
ByLayer
370
-1
48
1.0
60
0
100
AcDbCircle
10
0.0746506310701611
20
0.080000456140425
30
0.912756164034922
40
0.012
39
0.0
210
0.0
220
0.0
230
1.0
0
CIRCLE
5
203
330
16B
100
AcDbEntity
8
0
62
2
6
ByLayer
370
-1
48
1.0
60
0
100
AcDbCircle
10
0.149650631070434
20
0.070000457535372
30
0.912756164034922
40
0.012
39
0.0
210
0.0
220
0.0
230
1.0
0
CIRCLE
5
204
330
16B
100
AcDbEntity
8
0
62
2
6
ByLayer
370
-1
48
1.0
60
0
100
AcDbCircle
10
0.224650631070252
20
0.070000457535372
30
0.912756164034922
40
0.012
39
0.0
210
0.0
220
0.0
230
1.0
0
CIRCLE
5
205
330
16B
100
AcDbEntity
8
0
62
2
6
ByLayer
370
-1
48
1.0
60
0
100
AcDbCircle
10
0.749650631070116
20
0.0800004561404254
30
0.912756164034922
40
0.012
39
0.0
210
0.0
220
0.0
230
1.0
0
CIRCLE
5
206
330
16B
100
AcDbEntity
8
0
62
2
6
ByLayer
370
-1
48
1.0
60
0
100
AcDbCircle
10
-0.0746506310701611
20
0.080000456140425
30
-1.18775616403492
40
0.012
39
0.0
210
0.0
220
0.0
230
-1.0
0
CIRCLE
5
207
330
16B
100
AcDbEntity
8
0
62
2
6
ByLayer
370
-1
48
1.0
60
0
100
AcDbCircle
10
0.0746506310701611
20
0.080000456140425
30
1.21275616403492
40
0.012
39
0.0
210
0.0
220
0.0
230
1.0
0
CIRCLE
5
208
330
16B
100
AcDbEntity
8
0
62
2
6
ByLayer
370
-1
48
1.0
60
0
100
AcDbCircle
10
-0.0746506310701611
20
0.0800004561404248
30
-0.587756164034923
40
0.012
39
0.0
210
0.0
220
-0.0000000000000001
230
-1.0
0
CIRCLE
5
209
330
16B
100
AcDbEntity
8
0
62
2
6
ByLayer
370
-1
48
1.0
60
0
100
AcDbCircle
10
0.0746506310701611
20
0.0800004561404249
30
0.612756164034922
40
0.012
39
0.0
210
0.0
220
0.0
230
1.0
0
POINT
5
20A
330
16B
100
AcDbEntity
8
0
62
256
6
ByLayer
370
-1
48
1.0
60
0
100
AcDbPoint
10
0.0746506310701611
20
0.080000456140425
30
2.41224383596508
39
0.0
210
0.0
220
0.0
230
1.0
50
360.0
0
POINT
5
20B
330
16B
100
AcDbEntity
8
0
62
256
6
ByLayer
370
-1
48
1.0
60
0
100
AcDbPoint
10
0.149650631070434
20
0.070000457535372
30
2.41224383596508
39
0.0
210
0.0
220
0.0
230
1.0
50
360.0
0
POINT
5
20C
330
16B
100
AcDbEntity
8
0
62
256
6
ByLayer
370
-1
48
1.0
60
0
100
AcDbPoint
10
0.224650631070252
20
0.070000457535372
30
2.41224383596508
39
0.0
210
0.0
220
0.0
230
1.0
50
360.0
0
POINT
5
20D
330
16B
100
AcDbEntity
8
0
62
256
6
ByLayer
370
-1
48
1.0
60
0
100
AcDbPoint
10
0.312147381658595
20
0.0700004672706033
30
2.53718053419457
39
0.0
210
0.0
220
0.0
230
1.0
50
360.0
0
POINT
5
20E
330
16B
100
AcDbEntity
8
0
62
256
6
ByLayer
370
-1
48
1.0
60
0
100
AcDbPoint
10
0.312147381658595
20
0.0800004672726406
30
2.46218053419457
39
0.0
210
0.0
220
0.0
230
1.0
50
360.0
0
POINT
5
20F
330
16B
100
AcDbEntity
8
0
62
256
6
ByLayer
370
-1
48
1.0
60
0
100
AcDbPoint
10
0.612153880482045
20
0.0700004672706034
30
2.53718053419457
39
0.0
210
0.0
220
0.0
230
1.0
50
360.0
0
POINT
5
210
330
16B
100
AcDbEntity
8
0
62
256
6
ByLayer
370
-1
48
1.0
60
0
100
AcDbPoint
10
0.612153880482045
20
0.0800004672726406
30
2.46218053419457
39
0.0
210
0.0
220
0.0
230
1.0
50
360.0
0
POINT
5
211
330
16B
100
AcDbEntity
8
0
62
256
6
ByLayer
370
-1
48
1.0
60
0
100
AcDbPoint
10
0.749650631070116
20
0.0800004561404254
30
2.41224383596508
39
0.0
210
0.0
220
0.0
230
1.0
50
360.0
0
POINT
5
212
330
16B
100
AcDbEntity
8
0
62
256
6
ByLayer
370
-1
48
1.0
60
0
100
AcDbPoint
10
0.149650631070434
20
0.070000457535372
30
2.11224383596508
39
0.0
210
0.0
220
0.0
230
1.0
50
360.0
0
POINT
5
213
330
16B
100
AcDbEntity
8
0
62
256
6
ByLayer
370
-1
48
1.0
60
0
100
AcDbPoint
10
0.224650631070252
20
0.070000457535372
30
2.11224383596508
39
0.0
210
0.0
220
0.0
230
1.0
50
360.0
0
POINT
5
214
330
16B
100
AcDbEntity
8
0
62
256
6
ByLayer
370
-1
48
1.0
60
0
100
AcDbPoint
10
0.749650631070116
20
0.0800004561404254
30
2.11224383596508
39
0.0
210
0.0
220
0.0
230
1.0
50
360.0
0
POINT
5
215
330
16B
100
AcDbEntity
8
0
62
256
6
ByLayer
370
-1
48
1.0
60
0
100
AcDbPoint
10
0.0746506310701611
20
0.080000456140425
30
1.81224383596508
39
0.0
210
0.0
220
0.0
230
1.0
50
360.0
0
POINT
5
216
330
16B
100
AcDbEntity
8
0
62
256
6
ByLayer
370
-1
48
1.0
60
0
100
AcDbPoint
10
0.149650631070434
20
0.070000457535372
30
1.81224383596508
39
0.0
210
0.0
220
0.0
230
1.0
50
360.0
0
POINT
5
217
330
16B
100
AcDbEntity
8
0
62
256
6
ByLayer
370
-1
48
1.0
60
0
100
AcDbPoint
10
0.224650631070252
20
0.070000457535372
30
1.81224383596508
39
0.0
210
0.0
220
0.0
230
1.0
50
360.0
0
POINT
5
218
330
16B
100
AcDbEntity
8
0
62
256
6
ByLayer
370
-1
48
1.0
60
0
100
AcDbPoint
10
0.0746506310701611
20
0.080000456140425
30
1.51224383596507
39
0.0
210
0.0
220
0.0
230
1.0
50
360.0
0
POINT
5
219
330
16B
100
AcDbEntity
8
0
62
256
6
ByLayer
370
-1
48
1.0
60
0
100
AcDbPoint
10
0.749650631070116
20
0.0800004561404254
30
1.81224383596508
39
0.0
210
0.0
220
0.0
230
1.0
50
360.0
0
POINT
5
21A
330
16B
100
AcDbEntity
8
0
62
256
6
ByLayer
370
-1
48
1.0
60
0
100
AcDbPoint
10
0.0746506310701611
20
0.080000456140425
30
1.21275616403492
39
0.0
210
0.0
220
0.0
230
1.0
50
360.0
0
POINT
5
21B
330
16B
100
AcDbEntity
8
0
62
256
6
ByLayer
370
-1
48
1.0
60
0
100
AcDbPoint
10
0.0746506310701611
20
0.080000456140425
30
0.912756164034922
39
0.0
210
0.0
220
0.0
230
1.0
50
360.0
0
POINT
5
21C
330
16B
100
AcDbEntity
8
0
62
256
6
ByLayer
370
-1
48
1.0
60
0
100
AcDbPoint
10
0.149650631070434
20
0.070000457535372
30
0.912756164034922
39
0.0
210
0.0
220
0.0
230
1.0
50
360.0
0
POINT
5
21D
330
16B
100
AcDbEntity
8
0
62
256
6
ByLayer
370
-1
48
1.0
60
0
100
AcDbPoint
10
0.224650631070252
20
0.070000457535372
30
0.912756164034922
39
0.0
210
0.0
220
0.0
230
1.0
50
360.0
0
POINT
5
21E
330
16B
100
AcDbEntity
8
0
62
256
6
ByLayer
370
-1
48
1.0
60
0
100
AcDbPoint
10
0.749650631070116
20
0.0800004561404254
30
0.912756164034922
39
0.0
210
0.0
220
0.0
230
1.0
50
360.0
0
POINT
5
21F
330
16B
100
AcDbEntity
8
0
62
256
6
ByLayer
370
-1
48
1.0
60
0
100
AcDbPoint
10
0.0746506310701611
20
0.0800004561404249
30
0.612756164034922
39
0.0
210
0.0
220
0.0
230
1.0
50
360.0
0
POINT
5
220
330
16B
100
AcDbEntity
8
0
62
256
6
ByLayer
370
-1
48
1.0
60
0
100
AcDbPoint
10
0.149650631070434
20
0.070000457535372
30
0.612756164034922
39
0.0
210
0.0
220
0.0
230
1.0
50
360.0
0
POINT
5
221
330
16B
100
AcDbEntity
8
0
62
256
6
ByLayer
370
-1
48
1.0
60
0
100
AcDbPoint
10
0.212650631070252
20
0.070000457535372
30
0.612756164034922
39
0.0
210
0.0
220
0.0
230
1.0
50
360.0
0
POINT
5
222
330
16B
100
AcDbEntity
8
0
62
256
6
ByLayer
370
-1
48
1.0
60
0
100
AcDbPoint
10
0.749650631070116
20
0.0800004561404254
30
0.612756164034922
39
0.0
210
0.0
220
0.0
230
1.0
50
360.0
0
POINT
5
223
330
16B
100
AcDbEntity
8
0
62
256
6
ByLayer
370
-1
48
1.0
60
0
100
AcDbPoint
10
0.0746506310701611
20
0.0800004561404248
30
0.312756164034922
39
0.0
210
0.0
220
0.0
230
1.0
50
360.0
0
POINT
5
224
330
16B
100
AcDbEntity
8
0
62
256
6
ByLayer
370
-1
48
1.0
60
0
100
AcDbPoint
10
0.149650631070434
20
0.0700004575353719
30
0.312756164034922
39
0.0
210
0.0
220
0.0
230
1.0
50
360.0
0
POINT
5
225
330
16B
100
AcDbEntity
8
0
62
256
6
ByLayer
370
-1
48
1.0
60
0
100
AcDbPoint
10
0.224650631070252
20
0.0700004575353719
30
0.312756164034922
39
0.0
210
0.0
220
0.0
230
1.0
50
360.0
0
POINT
5
226
330
16B
100
AcDbEntity
8
0
62
256
6
ByLayer
370
-1
48
1.0
60
0
100
AcDbPoint
10
0.749650631070116
20
0.0800004561404253
30
0.312756164034922
39
0.0
210
0.0
220
0.0
230
1.0
50
360.0
0
POINT
5
227
330
16B
100
AcDbEntity
8
0
62
256
6
ByLayer
370
-1
48
1.0
60
0
100
AcDbPoint
10
0.312147381658595
20
0.0800004672726404
30
0.237819465805426
39
0.0
210
0.0
220
0.0
230
1.0
50
360.0
0
POINT
5
228
330
16B
100
AcDbEntity
8
0
62
256
6
ByLayer
370
-1
48
1.0
60
0
100
AcDbPoint
10
0.312147381658595
20
0.0700004672706031
30
0.162819465805427
39
0.0
210
0.0
220
0.0
230
1.0
50
360.0
0
POINT
5
229
330
16B
100
AcDbEntity
8
0
62
256
6
ByLayer
370
-1
48
1.0
60
0
100
AcDbPoint
10
0.612153880482045
20
0.0800004672726405
30
0.237819465805426
39
0.0
210
0.0
220
0.0
230
1.0
50
360.0
0
POINT
5
22A
330
16B
100
AcDbEntity
8
0
62
256
6
ByLayer
370
-1
48
1.0
60
0
100
AcDbPoint
10
0.612153880482045
20
0.0700004672706032
30
0.162819465805427
39
0.0
210
0.0
220
0.0
230
1.0
50
360.0
0
POINT
5
22B
330
16B
100
AcDbEntity
8
0
62
256
6
ByLayer
370
-1
48
1.0
60
0
100
AcDbPoint
10
0.0422182083039113
20
0.0165000042834436
30
2.13082013927873
39
0.0
210
-0.0000000000000002
220
-1.0
230
-0.0000000000000001
50
360.0
0
POINT
5
22C
330
16B
100
AcDbEntity
8
0
62
256
6
ByLayer
370
-1
48
1.0
60
0
100
AcDbPoint
10
0.857083053836638
20
0.0165000042834434
30
2.13082013927873
39
0.0
210
-0.0000000000000002
220
-1.0
230
-0.0000000000000001
50
180.0
0
POINT
5
22D
330
16B
100
AcDbEntity
8
0
62
256
6
ByLayer
370
-1
48
1.0
60
0
100
AcDbPoint
10
0.0422182083039113
20
0.0165000042834437
30
0.569179860721272
39
0.0
210
-0.0000000000000002
220
-1.0
230
-0.0000000000000001
50
360.0
0
POINT
5
22E
330
16B
100
AcDbEntity
8
0
62
256
6
ByLayer
370
-1
48
1.0
60
0
100
AcDbPoint
10
0.857083053836638
20
0.0165000042834435
30
0.569179860721272
39
0.0
210
-0.0000000000000002
220
-1.0
230
-0.0000000000000001
50
180.0
0
ENDBLK
5
16C
330
16B
100
AcDbEntity
8
0
100
AcDbBlockEnd
0
ENDSEC
0
SECTION
2
ENTITIES
0
INSERT
5
2E
330
1C
100
AcDbEntity
67
0
8
ATK_Panel
62
256
6
ByLayer
370
-1
48
1.0
60
0
100
AcDbBlockReference
2
ATK_Panel27x75R
10
2.53
20
0.23
30
0.0
41
1.0
42
1.0
43
1.0
50
270.0
210
0.0
220
0.0
230
1.0
0
INSERT
5
F4
330
1C
100
AcDbEntity
67
0
8
ATK_Panel
62
256
6
ByLayer
370
-1
48
1.0
60
0
100
AcDbBlockReference
2
ATK_Panel27x75R
10
2.53
20
0.98
30
0.0
41
1.0
42
1.0
43
1.0
50
270.0
210
0.0
220
0.0
230
1.0
0
INSERT
5
F5
330
1C
100
AcDbEntity
67
0
8
ATK_Panel
62
256
6
ByLayer
370
-1
48
1.0
60
0
100
AcDbBlockReference
2
ATK_Panel27x75R
10
1.78
20
0.38
30
0.0
41
1.0
42
1.0
43
1.0
50
0.0
210
0.0
220
0.0
230
1.0
0
INSERT
5
F6
330
1C
100
AcDbEntity
67
0
8
ATK_Panel
62
256
6
ByLayer
370
-1
48
1.0
60
0
100
AcDbBlockReference
2
ATK_Panel27x75R
10
1.63
20
-0.37
30
0.0
41
1.0
42
1.0
43
1.0
50
90.0
210
0.0
220
0.0
230
1.0
0
INSERT
5
F7
330
1C
100
AcDbEntity
67
0
8
ATK_Panel
62
256
6
ByLayer
370
-1
48
1.0
60
0
100
AcDbBlockReference
2
ATK_Panel27x75R
10
2.38
20
-0.52
30
0.0
41
1.0
42
1.0
43
1.0
50
180.0
210
0.0
220
0.0
230
1.0
0
INSERT
5
F8
330
1C
100
AcDbEntity
67
0
8
ATK_Panel
62
256
6
ByLayer
370
-1
48
1.0
60
0
100
AcDbBlockReference
2
ATK_Union10004220
10
2.65
20
0.53
30
0.55
41
1.0
42
1.0
43
1.0
50
0.0
210
0.0
220
0.0
230
1.0
0
INSERT
5
133
330
1C
100
AcDbEntity
67
0
8
ATK_Panel
62
256
6
ByLayer
370
-1
48
1.0
60
0
100
AcDbBlockReference
2
ATK_Union10004220
10
2.65
20
0.53
30
1.35
41
1.0
42
1.0
43
1.0
50
0.0
210
0.0
220
0.0
230
1.0
0
INSERT
5
134
330
1C
100
AcDbEntity
67
0
8
ATK_Panel
62
256
6
ByLayer
370
-1
48
1.0
60
0
100
AcDbBlockReference
2
ATK_Union10004220
10
2.65
20
0.53
30
2.15
41
1.0
42
1.0
43
1.0
50
0.0
210
0.0
220
0.0
230
1.0
0
INSERT
5
135
330
1C
100
AcDbEntity
67
0
8
ATK_Panel
62
256
6
ByLayer
370
-1
48
1.0
60
0
100
AcDbBlockReference
2
ATK_Union10004220
10
1.51
20
0.5
30
0.55
41
1.0
42
1.0
43
1.0
50
180.0
210
0.0
220
0.0
230
1.0
0
INSERT
5
136
330
1C
100
AcDbEntity
67
0
8
ATK_Panel
62
256
6
ByLayer
370
-1
48
1.0
60
0
100
AcDbBlockReference
2
ATK_Union10004220
10
1.51
20
0.5
30
1.35
41
1.0
42
1.0
43
1.0
50
180.0
210
0.0
220
0.0
230
1.0
0
INSERT
5
137
330
1C
100
AcDbEntity
67
0
8
ATK_Panel
62
256
6
ByLayer
370
-1
48
1.0
60
0
100
AcDbBlockReference
2
ATK_Union10004220
10
1.51
20
0.5
30
2.15
41
1.0
42
1.0
43
1.0
50
180.0
210
0.0
220
0.0
230
1.0
0
INSERT
5
138
330
1C
100
AcDbEntity
67
0
8
ATK_Panel
62
256
6
ByLayer
370
-1
48
1.0
60
0
100
AcDbBlockReference
2
ATK_Union10004220
10
1.51
20
-0.66
30
0.55
41
1.0
42
1.0
43
1.0
50
0.0
210
0.0
220
0.0
230
1.0
0
INSERT
5
139
330
1C
100
AcDbEntity
67
0
8
ATK_Panel
62
256
6
ByLayer
370
-1
48
1.0
60
0
100
AcDbBlockReference
2
ATK_Union10004220
10
1.51
20
-0.66
30
1.35
41
1.0
42
1.0
43
1.0
50
0.0
210
0.0
220
0.0
230
1.0
0
INSERT
5
13A
330
1C
100
AcDbEntity
67
0
8
ATK_Panel
62
256
6
ByLayer
370
-1
48
1.0
60
0
100
AcDbBlockReference
2
ATK_Union10004220
10
1.51
20
-0.66
30
2.15
41
1.0
42
1.0
43
1.0
50
0.0
210
0.0
220
0.0
230
1.0
0
INSERT
5
13B
330
1C
100
AcDbEntity
67
0
8
ATK_Panel
62
256
6
ByLayer
370
-1
48
1.0
60
0
100
AcDbBlockReference
2
ATK_Union10004220
10
2.67
20
-0.64
30
0.55
41
1.0
42
1.0
43
1.0
50
0.0
210
0.0
220
0.0
230
1.0
0
INSERT
5
13C
330
1C
100
AcDbEntity
67
0
8
ATK_Panel
62
256
6
ByLayer
370
-1
48
1.0
60
0
100
AcDbBlockReference
2
ATK_Union10004220
10
2.67
20
-0.64
30
1.35
41
1.0
42
1.0
43
1.0
50
0.0
210
0.0
220
0.0
230
1.0
0
INSERT
5
13D
330
1C
100
AcDbEntity
67
0
8
ATK_Panel
62
256
6
ByLayer
370
-1
48
1.0
60
0
100
AcDbBlockReference
2
ATK_Union10004220
10
2.67
20
-0.64
30
2.15
41
1.0
42
1.0
43
1.0
50
0.0
210
0.0
220
0.0
230
1.0
0
INSERT
5
13E
330
1C
100
AcDbEntity
67
0
8
ATK_Panel
62
256
6
ByLayer
370
-1
48
1.0
60
0
100
AcDbBlockReference
2
ATK_Union10004220
10
-0.08
20
-3.74
30
2.15
41
1.0
42
1.0
43
1.0
50
180.0
210
0.0
220
0.0
230
1.0
0
INSERT
5
13F
330
1C
100
AcDbEntity
67
0
8
ATK_Panel
62
256
6
ByLayer
370
-1
48
1.0
60
0
100
AcDbBlockReference
2
ATK_Union10004220
10
-0.08
20
-4.3
30
2.15
41
1.0
42
1.0
43
1.0
50
0.0
210
0.0
220
0.0
230
1.0
0
INSERT
5
140
330
1C
100
AcDbEntity
67
0
8
ATK_Panel
62
256
6
ByLayer
370
-1
48
1.0
60
0
100
AcDbBlockReference
2
ATK_Union10004220
10
-0.08
20
-3.74
30
0.55
41
1.0
42
1.0
43
1.0
50
180.0
210
0.0
220
0.0
230
1.0
0
INSERT
5
141
330
1C
100
AcDbEntity
67
0
8
ATK_Panel
62
256
6
ByLayer
370
-1
48
1.0
60
0
100
AcDbBlockReference
2
ATK_Union10004220
10
-0.08
20
-4.3
30
0.55
41
1.0
42
1.0
43
1.0
50
0.0
210
0.0
220
0.0
230
1.0
0
INSERT
5
142
330
1C
100
AcDbEntity
67
0
8
ATK_Panel
62
256
6
ByLayer
370
-1
48
1.0
60
0
100
AcDbBlockReference
2
ATK_Union10004220
10
0.82
20
-3.74
30
2.15
41
1.0
42
1.0
43
1.0
50
180.0
210
0.0
220
0.0
230
1.0
0
INSERT
5
143
330
1C
100
AcDbEntity
67
0
8
ATK_Panel
62
256
6
ByLayer
370
-1
48
1.0
60
0
100
AcDbBlockReference
2
ATK_Union10004220
10
0.82
20
-4.3
30
2.15
41
1.0
42
1.0
43
1.0
50
0.0
210
0.0
220
0.0
230
1.0
0
INSERT
5
144
330
1C
100
AcDbEntity
67
0
8
ATK_Panel
62
256
6
ByLayer
370
-1
48
1.0
60
0
100
AcDbBlockReference
2
ATK_Union10004220
10
0.82
20
-3.74
30
0.55
41
1.0
42
1.0
43
1.0
50
180.0
210
0.0
220
0.0
230
1.0
0
INSERT
5
145
330
1C
100
AcDbEntity
67
0
8
ATK_Panel
62
256
6
ByLayer
370
-1
48
1.0
60
0
100
AcDbBlockReference
2
ATK_Union10004220
10
0.82
20
-4.3
30
0.55
41
1.0
42
1.0
43
1.0
50
0.0
210
0.0
220
0.0
230
1.0
0
INSERT
5
146
330
1C
100
AcDbEntity
67
0
8
ATK_Panel
62
256
6
ByLayer
370
-1
48
1.0
60
0
100
AcDbBlockReference
2
ATK_Union10004220
10
1.72
20
-3.74
30
2.15
41
1.0
42
1.0
43
1.0
50
180.0
210
0.0
220
0.0
230
1.0
0
INSERT
5
147
330
1C
100
AcDbEntity
67
0
8
ATK_Panel
62
256
6
ByLayer
370
-1
48
1.0
60
0
100
AcDbBlockReference
2
ATK_Union10004220
10
1.72
20
-4.3
30
2.15
41
1.0
42
1.0
43
1.0
50
0.0
210
0.0
220
0.0
230
1.0
0
INSERT
5
148
330
1C
100
AcDbEntity
67
0
8
ATK_Panel
62
256
6
ByLayer
370
-1
48
1.0
60
0
100
AcDbBlockReference
2
ATK_Union10004220
10
1.72
20
-3.74
30
0.55
41
1.0
42
1.0
43
1.0
50
180.0
210
0.0
220
0.0
230
1.0
0
INSERT
5
149
330
1C
100
AcDbEntity
67
0
8
ATK_Panel
62
256
6
ByLayer
370
-1
48
1.0
60
0
100
AcDbBlockReference
2
ATK_Union10004220
10
1.72
20
-4.3
30
0.55
41
1.0
42
1.0
43
1.0
50
0.0
210
0.0
220
0.0
230
1.0
0
INSERT
5
14A
330
1C
100
AcDbEntity
67
0
8
ATK_Panel
62
256
6
ByLayer
370
-1
48
1.0
60
0
100
AcDbBlockReference
2
ATK_Union10004220
10
2.62
20
-3.74
30
2.15
41
1.0
42
1.0
43
1.0
50
180.0
210
0.0
220
0.0
230
1.0
0
INSERT
5
14B
330
1C
100
AcDbEntity
67
0
8
ATK_Panel
62
256
6
ByLayer
370
-1
48
1.0
60
0
100
AcDbBlockReference
2
ATK_Union10004220
10
2.62
20
-4.3
30
2.15
41
1.0
42
1.0
43
1.0
50
0.0
210
0.0
220
0.0
230
1.0
0
INSERT
5
14C
330
1C
100
AcDbEntity
67
0
8
ATK_Panel
62
256
6
ByLayer
370
-1
48
1.0
60
0
100
AcDbBlockReference
2
ATK_Union10004220
10
2.62
20
-3.74
30
0.55
41
1.0
42
1.0
43
1.0
50
180.0
210
0.0
220
0.0
230
1.0
0
INSERT
5
14D
330
1C
100
AcDbEntity
67
0
8
ATK_Panel
62
256
6
ByLayer
370
-1
48
1.0
60
0
100
AcDbBlockReference
2
ATK_Union10004220
10
2.62
20
-4.3
30
0.55
41
1.0
42
1.0
43
1.0
50
0.0
210
0.0
220
0.0
230
1.0
0
INSERT
5
14E
330
1C
100
AcDbEntity
67
0
8
ATK_Panel
62
256
6
ByLayer
370
-1
48
1.0
60
0
100
AcDbBlockReference
2
ATK_Union10004220
10
3.52
20
-3.74
30
2.15
41
1.0
42
1.0
43
1.0
50
180.0
210
0.0
220
0.0
230
1.0
0
INSERT
5
14F
330
1C
100
AcDbEntity
67
0
8
ATK_Panel
62
256
6
ByLayer
370
-1
48
1.0
60
0
100
AcDbBlockReference
2
ATK_Union10004220
10
3.52
20
-4.3
30
2.15
41
1.0
42
1.0
43
1.0
50
0.0
210
0.0
220
0.0
230
1.0
0
INSERT
5
150
330
1C
100
AcDbEntity
67
0
8
ATK_Panel
62
256
6
ByLayer
370
-1
48
1.0
60
0
100
AcDbBlockReference
2
ATK_Union10004220
10
3.52
20
-3.74
30
0.55
41
1.0
42
1.0
43
1.0
50
180.0
210
0.0
220
0.0
230
1.0
0
INSERT
5
151
330
1C
100
AcDbEntity
67
0
8
ATK_Panel
62
256
6
ByLayer
370
-1
48
1.0
60
0
100
AcDbBlockReference
2
ATK_Union10004220
10
3.52
20
-4.3
30
0.55
41
1.0
42
1.0
43
1.0
50
0.0
210
0.0
220
0.0
230
1.0
0
INSERT
5
152
330
1C
100
AcDbEntity
67
0
8
ATK_Panel
62
256
6
ByLayer
370
-1
48
1.0
60
0
100
AcDbBlockReference
2
ATK_Union10004220
10
4.42
20
-3.74
30
2.15
41
1.0
42
1.0
43
1.0
50
180.0
210
0.0
220
0.0
230
1.0
0
INSERT
5
153
330
1C
100
AcDbEntity
67
0
8
ATK_Panel
62
256
6
ByLayer
370
-1
48
1.0
60
0
100
AcDbBlockReference
2
ATK_Union10004220
10
4.42
20
-4.3
30
2.15
41
1.0
42
1.0
43
1.0
50
0.0
210
0.0
220
0.0
230
1.0
0
INSERT
5
154
330
1C
100
AcDbEntity
67
0
8
ATK_Panel
62
256
6
ByLayer
370
-1
48
1.0
60
0
100
AcDbBlockReference
2
ATK_Union10004220
10
4.42
20
-3.74
30
0.55
41
1.0
42
1.0
43
1.0
50
180.0
210
0.0
220
0.0
230
1.0
0
INSERT
5
155
330
1C
100
AcDbEntity
67
0
8
ATK_Panel
62
256
6
ByLayer
370
-1
48
1.0
60
0
100
AcDbBlockReference
2
ATK_Union10004220
10
4.42
20
-4.3
30
0.55
41
1.0
42
1.0
43
1.0
50
0.0
210
0.0
220
0.0
230
1.0
0
INSERT
5
156
330
1C
100
AcDbEntity
67
0
8
ATK_Panel
62
256
6
ByLayer
370
-1
48
1.0
60
0
100
AcDbBlockReference
2
ATK_Union10004220
10
5.32
20
-3.74
30
2.15
41
1.0
42
1.0
43
1.0
50
180.0
210
0.0
220
0.0
230
1.0
0
INSERT
5
157
330
1C
100
AcDbEntity
67
0
8
ATK_Panel
62
256
6
ByLayer
370
-1
48
1.0
60
0
100
AcDbBlockReference
2
ATK_Union10004220
10
5.32
20
-4.3
30
2.15
41
1.0
42
1.0
43
1.0
50
0.0
210
0.0
220
0.0
230
1.0
0
INSERT
5
158
330
1C
100
AcDbEntity
67
0
8
ATK_Panel
62
256
6
ByLayer
370
-1
48
1.0
60
0
100
AcDbBlockReference
2
ATK_Union10004220
10
5.32
20
-3.74
30
0.55
41
1.0
42
1.0
43
1.0
50
180.0
210
0.0
220
0.0
230
1.0
0
INSERT
5
159
330
1C
100
AcDbEntity
67
0
8
ATK_Panel
62
256
6
ByLayer
370
-1
48
1.0
60
0
100
AcDbBlockReference
2
ATK_Union10004220
10
5.32
20
-4.3
30
0.55
41
1.0
42
1.0
43
1.0
50
0.0
210
0.0
220
0.0
230
1.0
0
INSERT
5
15A
330
1C
100
AcDbEntity
67
0
8
ATK_Panel
62
256
6
ByLayer
370
-1
48
1.0
60
0
100
AcDbBlockReference
2
ATK_Union10004220
10
6.22
20
-3.74
30
2.15
41
1.0
42
1.0
43
1.0
50
180.0
210
0.0
220
0.0
230
1.0
0
INSERT
5
15B
330
1C
100
AcDbEntity
67
0
8
ATK_Panel
62
256
6
ByLayer
370
-1
48
1.0
60
0
100
AcDbBlockReference
2
ATK_Union10004220
10
6.22
20
-4.3
30
2.15
41
1.0
42
1.0
43
1.0
50
0.0
210
0.0
220
0.0
230
1.0
0
INSERT
5
15C
330
1C
100
AcDbEntity
67
0
8
ATK_Panel
62
256
6
ByLayer
370
-1
48
1.0
60
0
100
AcDbBlockReference
2
ATK_Union10004220
10
6.22
20
-3.74
30
0.55
41
1.0
42
1.0
43
1.0
50
180.0
210
0.0
220
0.0
230
1.0
0
INSERT
5
15D
330
1C
100
AcDbEntity
67
0
8
ATK_Panel
62
256
6
ByLayer
370
-1
48
1.0
60
0
100
AcDbBlockReference
2
ATK_Union10004220
10
6.22
20
-4.3
30
0.55
41
1.0
42
1.0
43
1.0
50
0.0
210
0.0
220
0.0
230
1.0
0
INSERT
5
15E
330
1C
100
AcDbEntity
67
0
8
ATK_Panel
62
256
6
ByLayer
370
-1
48
1.0
60
0
100
AcDbBlockReference
2
ATK_Union10004220
10
7.12
20
-3.74
30
2.15
41
1.0
42
1.0
43
1.0
50
180.0
210
0.0
220
0.0
230
1.0
0
INSERT
5
15F
330
1C
100
AcDbEntity
67
0
8
ATK_Panel
62
256
6
ByLayer
370
-1
48
1.0
60
0
100
AcDbBlockReference
2
ATK_Union10004220
10
7.12
20
-4.3
30
2.15
41
1.0
42
1.0
43
1.0
50
0.0
210
0.0
220
0.0
230
1.0
0
INSERT
5
160
330
1C
100
AcDbEntity
67
0
8
ATK_Panel
62
256
6
ByLayer
370
-1
48
1.0
60
0
100
AcDbBlockReference
2
ATK_Union10004220
10
7.12
20
-3.74
30
0.55
41
1.0
42
1.0
43
1.0
50
180.0
210
0.0
220
0.0
230
1.0
0
INSERT
5
161
330
1C
100
AcDbEntity
67
0
8
ATK_Panel
62
256
6
ByLayer
370
-1
48
1.0
60
0
100
AcDbBlockReference
2
ATK_Union10004220
10
7.12
20
-4.3
30
0.55
41
1.0
42
1.0
43
1.0
50
0.0
210
0.0
220
0.0
230
1.0
0
INSERT
5
162
330
1C
100
AcDbEntity
67
0
8
ATK_Panel
62
256
6
ByLayer
370
-1
48
1.0
60
0
100
AcDbBlockReference
2
ATK_Union10004220
10
8.02
20
-3.74
30
2.15
41
1.0
42
1.0
43
1.0
50
180.0
210
0.0
220
0.0
230
1.0
0
INSERT
5
163
330
1C
100
AcDbEntity
67
0
8
ATK_Panel
62
256
6
ByLayer
370
-1
48
1.0
60
0
100
AcDbBlockReference
2
ATK_Union10004220
10
8.02
20
-4.3
30
2.15
41
1.0
42
1.0
43
1.0
50
0.0
210
0.0
220
0.0
230
1.0
0
INSERT
5
164
330
1C
100
AcDbEntity
67
0
8
ATK_Panel
62
256
6
ByLayer
370
-1
48
1.0
60
0
100
AcDbBlockReference
2
ATK_Union10004220
10
8.02
20
-3.74
30
0.55
41
1.0
42
1.0
43
1.0
50
180.0
210
0.0
220
0.0
230
1.0
0
INSERT
5
165
330
1C
100
AcDbEntity
67
0
8
ATK_Panel
62
256
6
ByLayer
370
-1
48
1.0
60
0
100
AcDbBlockReference
2
ATK_Union10004220
10
8.02
20
-4.3
30
0.55
41
1.0
42
1.0
43
1.0
50
0.0
210
0.0
220
0.0
230
1.0
0
INSERT
5
166
330
1C
100
AcDbEntity
67
0
8
ATK_Panel
62
256
6
ByLayer
370
-1
48
1.0
60
0
100
AcDbBlockReference
2
ATK_Union10004220
10
8.82
20
-3.74
30
2.15
41
1.0
42
1.0
43
1.0
50
180.0
210
0.0
220
0.0
230
1.0
0
INSERT
5
167
330
1C
100
AcDbEntity
67
0
8
ATK_Panel
62
256
6
ByLayer
370
-1
48
1.0
60
0
100
AcDbBlockReference
2
ATK_Union10004220
10
8.82
20
-4.3
30
2.15
41
1.0
42
1.0
43
1.0
50
0.0
210
0.0
220
0.0
230
1.0
0
INSERT
5
168
330
1C
100
AcDbEntity
67
0
8
ATK_Panel
62
256
6
ByLayer
370
-1
48
1.0
60
0
100
AcDbBlockReference
2
ATK_Union10004220
10
8.82
20
-3.74
30
0.55
41
1.0
42
1.0
43
1.0
50
180.0
210
0.0
220
0.0
230
1.0
0
INSERT
5
169
330
1C
100
AcDbEntity
67
0
8
ATK_Panel
62
256
6
ByLayer
370
-1
48
1.0
60
0
100
AcDbBlockReference
2
ATK_Union10004220
10
8.82
20
-4.3
30
0.55
41
1.0
42
1.0
43
1.0
50
0.0
210
0.0
220
0.0
230
1.0
0
INSERT
5
16A
330
1C
100
AcDbEntity
67
0
8
ATK_Panel
62
256
6
ByLayer
370
-1
48
1.0
60
0
100
AcDbBlockReference
2
ATK_Panel27x90
10
-0.12
20
-3.87
30
0.0
41
1.0
42
1.0
43
1.0
50
0.0
210
0.0
220
0.0
230
1.0
0
INSERT
5
22F
330
1C
100
AcDbEntity
67
0
8
ATK_Panel
62
256
6
ByLayer
370
-1
48
1.0
60
0
100
AcDbBlockReference
2
ATK_Panel27x90
10
0.78
20
-3.87
30
0.0
41
1.0
42
1.0
43
1.0
50
0.0
210
0.0
220
0.0
230
1.0
0
INSERT
5
230
330
1C
100
AcDbEntity
67
0
8
ATK_Panel
62
256
6
ByLayer
370
-1
48
1.0
60
0
100
AcDbBlockReference
2
ATK_Panel27x90
10
1.68
20
-3.87
30
0.0
41
1.0
42
1.0
43
1.0
50
0.0
210
0.0
220
0.0
230
1.0
0
INSERT
5
231
330
1C
100
AcDbEntity
67
0
8
ATK_Panel
62
256
6
ByLayer
370
-1
48
1.0
60
0
100
AcDbBlockReference
2
ATK_Panel27x90
10
0.78
20
-4.17
30
0.0
41
1.0
42
1.0
43
1.0
50
180.0
210
0.0
220
0.0
230
1.0
0
INSERT
5
232
330
1C
100
AcDbEntity
67
0
8
ATK_Panel
62
256
6
ByLayer
370
-1
48
1.0
60
0
100
AcDbBlockReference
2
ATK_Panel27x90
10
1.68
20
-4.17
30
0.0
41
1.0
42
1.0
43
1.0
50
180.0
210
0.0
220
0.0
230
1.0
0
INSERT
5
233
330
1C
100
AcDbEntity
67
0
8
ATK_Panel
62
256
6
ByLayer
370
-1
48
1.0
60
0
100
AcDbBlockReference
2
ATK_Panel27x90
10
2.58
20
-4.17
30
0.0
41
1.0
42
1.0
43
1.0
50
180.0
210
0.0
220
0.0
230
1.0
0
INSERT
5
234
330
1C
100
AcDbEntity
67
0
8
ATK_Panel
62
256
6
ByLayer
370
-1
48
1.0
60
0
100
AcDbBlockReference
2
ATK_Panel27x90
10
2.58
20
-3.87
30
0.0
41
1.0
42
1.0
43
1.0
50
0.0
210
0.0
220
0.0
230
1.0
0
INSERT
5
235
330
1C
100
AcDbEntity
67
0
8
ATK_Panel
62
256
6
ByLayer
370
-1
48
1.0
60
0
100
AcDbBlockReference
2
ATK_Panel27x90
10
3.48
20
-3.87
30
0.0
41
1.0
42
1.0
43
1.0
50
0.0
210
0.0
220
0.0
230
1.0
0
INSERT
5
236
330
1C
100
AcDbEntity
67
0
8
ATK_Panel
62
256
6
ByLayer
370
-1
48
1.0
60
0
100
AcDbBlockReference
2
ATK_Panel27x90
10
4.38
20
-3.87
30
0.0
41
1.0
42
1.0
43
1.0
50
0.0
210
0.0
220
0.0
230
1.0
0
INSERT
5
237
330
1C
100
AcDbEntity
67
0
8
ATK_Panel
62
256
6
ByLayer
370
-1
48
1.0
60
0
100
AcDbBlockReference
2
ATK_Panel27x90
10
3.48
20
-4.17
30
0.0
41
1.0
42
1.0
43
1.0
50
180.0
210
0.0
220
0.0
230
1.0
0
INSERT
5
238
330
1C
100
AcDbEntity
67
0
8
ATK_Panel
62
256
6
ByLayer
370
-1
48
1.0
60
0
100
AcDbBlockReference
2
ATK_Panel27x90
10
4.38
20
-4.17
30
0.0
41
1.0
42
1.0
43
1.0
50
180.0
210
0.0
220
0.0
230
1.0
0
INSERT
5
239
330
1C
100
AcDbEntity
67
0
8
ATK_Panel
62
256
6
ByLayer
370
-1
48
1.0
60
0
100
AcDbBlockReference
2
ATK_Panel27x90
10
5.28
20
-4.17
30
0.0
41
1.0
42
1.0
43
1.0
50
180.0
210
0.0
220
0.0
230
1.0
0
INSERT
5
23A
330
1C
100
AcDbEntity
67
0
8
ATK_Panel
62
256
6
ByLayer
370
-1
48
1.0
60
0
100
AcDbBlockReference
2
ATK_Panel27x90
10
5.28
20
-3.87
30
0.0
41
1.0
42
1.0
43
1.0
50
0.0
210
0.0
220
0.0
230
1.0
0
INSERT
5
23B
330
1C
100
AcDbEntity
67
0
8
ATK_Panel
62
256
6
ByLayer
370
-1
48
1.0
60
0
100
AcDbBlockReference
2
ATK_Panel27x90
10
6.18
20
-3.87
30
0.0
41
1.0
42
1.0
43
1.0
50
0.0
210
0.0
220
0.0
230
1.0
0
INSERT
5
23C
330
1C
100
AcDbEntity
67
0
8
ATK_Panel
62
256
6
ByLayer
370
-1
48
1.0
60
0
100
AcDbBlockReference
2
ATK_Panel27x90
10
7.08
20
-3.87
30
0.0
41
1.0
42
1.0
43
1.0
50
0.0
210
0.0
220
0.0
230
1.0
0
INSERT
5
23D
330
1C
100
AcDbEntity
67
0
8
ATK_Panel
62
256
6
ByLayer
370
-1
48
1.0
60
0
100
AcDbBlockReference
2
ATK_Panel27x90
10
6.18
20
-4.17
30
0.0
41
1.0
42
1.0
43
1.0
50
180.0
210
0.0
220
0.0
230
1.0
0
INSERT
5
23E
330
1C
100
AcDbEntity
67
0
8
ATK_Panel
62
256
6
ByLayer
370
-1
48
1.0
60
0
100
AcDbBlockReference
2
ATK_Panel27x90
10
7.08
20
-4.17
30
0.0
41
1.0
42
1.0
43
1.0
50
180.0
210
0.0
220
0.0
230
1.0
0
INSERT
5
23F
330
1C
100
AcDbEntity
67
0
8
ATK_Panel
62
256
6
ByLayer
370
-1
48
1.0
60
0
100
AcDbBlockReference
2
ATK_Panel27x90
10
7.98
20
-4.17
30
0.0
41
1.0
42
1.0
43
1.0
50
180.0
210
0.0
220
0.0
230
1.0
0
INSERT
5
240
330
1C
100
AcDbEntity
67
0
8
ATK_Panel
62
256
6
ByLayer
370
-1
48
1.0
60
0
100
AcDbBlockReference
2
ATK_Panel27x90
10
7.98
20
-3.87
30
0.0
41
1.0
42
1.0
43
1.0
50
0.0
210
0.0
220
0.0
230
1.0
0
INSERT
5
241
330
1C
100
AcDbEntity
67
0
8
ATK_Panel
62
256
6
ByLayer
370
-1
48
1.0
60
0
100
AcDbBlockReference
2
ATK_Panel27x90
10
8.88
20
-4.17
30
0.0
41
1.0
42
1.0
43
1.0
50
180.0
210
0.0
220
0.0
230
1.0
0
VIEWPORT
5
26
330
22
100
AcDbEntity
67
1
8
0
62
256
6
ByLayer
370
-1
48
1.0
60
0
100
AcDbViewport
10
0.0
20
0.0
30
0.0
40
297.0
41
210.0
68
1
69
1
12
50.0
22
100.0
13
0.0
23
0.0
14
10.0
24
10.0
15
10.0
25
10.0
16
0.0
26
0.0
36
1.0
17
0.0
27
0.0
37
0.0
42
50.0
43
0.0
44
0.0
45
250.0
50
0.0
51
0.0
72
1000
90
819232
110
0.0
120
0.0
130
0.0
111
1.0
121
0.0
131
0.0
112
0.0
122
1.0
132
0.0
0
ENDSEC
0
SECTION
2
OBJECTS
0
DICTIONARY
5
293
330
0
100
AcDbDictionary
280
1
281
1
3
ACAD_GROUP
350
12
3
ACAD_LAYOUT
350
25
3
ACAD_DGNDEFINITIONS
350
F
3
ACAD_DWFDEFINITIONS
350
10
3
ACAD_PDFDEFINITIONS
350
11
3
ACAD_MLINESTYLE
350
B
3
ACAD_IMAGE_DICT
350
E
3
ACAD_IMAGE_VARS
350
21
0
DICTIONARY
5
12
330
293
100
AcDbDictionary
280
1
281
1
0
DICTIONARY
5
25
330
293
100
AcDbDictionary
280
1
281
1
3
Model
350
20
3
Layout1
350
27
0
DICTIONARY
5
F
330
293
100
AcDbDictionary
280
1
281
1
0
DICTIONARY
5
10
330
293
100
AcDbDictionary
280
1
281
1
0
DICTIONARY
5
11
330
293
100
AcDbDictionary
280
1
281
1
0
DICTIONARY
5
B
330
293
100
AcDbDictionary
280
1
281
1
3
Standard
350
1B
0
DICTIONARY
5
E
330
293
100
AcDbDictionary
280
1
281
1
0
DICTIONARY
5
6
330
5
100
AcDbDictionary
280
1
281
1
3
ACAD_LAYERSTATES
360
294
0
DICTIONARY
5
294
330
6
100
AcDbDictionary
280
1
281
1
0
LAYOUT
5
20
330
25
100
AcDbPlotSettings
1

2
none_device
4
ISO_A4_(210.00_x_297.00_MM)
6

40
7.5
41
20.0
42
7.5
43
20.0
44
210.0
45
297.0
46
0.0
47
0.0
48
0.0
49
0.0
140
0.0
141
0.0
142
1.0
143
1.0
70
11952
72
1
73
1
74
1
7

75
0
76
0
77
2
78
300
147
1.0
148
0.0
149
0.0
100
AcDbLayout
1
Model
71
0
10
-20.0
20
-7.5
11
277.0
21
202.5
12
0.0
22
0.0
32
0.0
14
25.7
24
19.5
34
0.0
15
231.3
25
175.5
35
0.0
146
0.0
13
0.0
23
0.0
33
0.0
16
1.0
26
0.0
36
0.0
17
0.0
27
1.0
37
0.0
76
0
330
1C
0
LAYOUT
5
27
330
25
100
AcDbPlotSettings
1

2
none_device
4
ISO_A4_(210.00_x_297.00_MM)
6

40
7.5
41
20.0
42
7.5
43
20.0
44
210.0
45
297.0
46
0.0
47
0.0
48
0.0
49
0.0
140
0.0
141
0.0
142
1.0
143
1.0
70
688
72
1
73
1
74
1
7

75
0
76
0
77
2
78
300
147
1.0
148
0.0
149
0.0
100
AcDbLayout
1
Layout1
71
1
10
-20.0
20
-7.5
11
277.0
21
202.5
12
0.0
22
0.0
32
0.0
14
25.7
24
19.5
34
0.0
15
231.3
25
175.5
35
0.0
146
0.0
13
0.0
23
0.0
33
0.0
16
1.0
26
0.0
36
0.0
17
0.0
27
1.0
37
0.0
76
0
330
22
0
MLINESTYLE
5
1B
330
B
100
AcDbMlineStyle
2
Standard
70
0
3

62
256
51
90.0
52
90.0
71
2
49
0.5
62
256
6
ByLayer
49
-0.5
62
256
6
ByLayer
0
RASTERVARIABLES
5
21
330
E
100
AcDbRasterVariables
90
0
70
1
71
1
72
0
0
ENDSEC
0
EOF
