999
DXF file generated by netDxf https://github.com/haplokuon/netDxf, Copyright(C) Daniel Carvajal, Licensed under MIT
0
SECTION
2
HEADER
9
$ACADVER
1
AC1015
9
$DWGCODEPAGE
3
ANSI_1252
9
$HANDSEED
5
101
9
$ANGBASE
50
0.0
9
$ANGDIR
70
0
9
$ATTMODE
70
1
9
$AUNITS
70
0
9
$AUPREC
70
0
9
$CECOLOR
62
256
9
$CELTSCALE
40
1.0
9
$CELTYPE
6
ByLayer
9
$CELWEIGHT
370
-1
9
$CLAYER
8
0
9
$CMLJUST
70
0
9
$CMLSCALE
40
20.0
9
$CMLSTYLE
2
Standard
9
$DIMSTYLE
2
Standard
9
$TEXTSIZE
40
2.5
9
$TEXTSTYLE
7
Standard
9
$LUNITS
70
2
9
$LUPREC
70
4
9
$MIRRTEXT
70
0
9
$EXTNAMES
290
1
9
$INSBASE
10
0.0
20
0.0
30
0.0
9
$INSUNITS
70
0
9
$LTSCALE
40
1.0
9
$LWDISPLAY
290
0
9
$PDMODE
70
0
9
$PDSIZE
40
0.0
9
$PLINEGEN
70
0
9
$PSLTSCALE
70
1
9
$SPLINESEGS
70
8
9
$SURFU
70
6
9
$SURFV
70
6
9
$TDCREATE
40
2460354.51030559
9
$TDUCREATE
40
2460354.46863892
9
$TDUPDATE
40
2460354.51030559
9
$TDUUPDATE
40
2460354.46863892
9
$TDINDWG
40
0.0
9
$UCSORG
10
0.0
20
0.0
30
0.0
9
$UCSXDIR
10
1.0
20
0.0
30
0.0
9
$UCSYDIR
10
0.0
20
1.0
30
0.0
9
$DIMADEC
70
0
9
$DIMALT
70
0
9
$DIMALTD
70
2
9
$DIMALTF
40
25.4
9
$DIMALTRND
40
0.0
9
$DIMALTTD
70
2
9
$DIMALTTZ
70
0
9
$DIMALTU
70
2
9
$DIMALTZ
70
0
9
$DIMAPOST
1
[]
9
$DIMATFIT
70
3
9
$DIMAUNIT
70
0
9
$DIMASZ
40
0.18
9
$DIMAZIN
70
0
9
$DIMSAH
70
0
9
$DIMBLK
1

9
$DIMLDRBLK
1

9
$DIMCEN
40
0.09
9
$DIMCLRD
70
0
9
$DIMCLRE
70
0
9
$DIMCLRT
70
0
9
$DIMDEC
70
4
9
$DIMDLE
40
0.0
9
$DIMDLI
40
0.38
9
$DIMDSEP
70
46
9
$DIMEXE
40
0.18
9
$DIMEXO
40
0.0625
9
$DIMFXLON
70
0
9
$DIMFXL
40
1.0
9
$DIMGAP
40
0.09
9
$DIMJUST
70
0
9
$DIMLFAC
40
1.0
9
$DIMLUNIT
70
2
9
$DIMLWD
70
-2
9
$DIMLWE
70
-2
9
$DIMPOST
1
<>
9
$DIMRND
40
0.0
9
$DIMSCALE
40
1.0
9
$DIMSD1
70
0
9
$DIMSD2
70
0
9
$DIMSE1
70
0
9
$DIMSE2
70
0
9
$DIMSOXD
70
0
9
$DIMTAD
70
0
9
$DIMTDEC
70
4
9
$DIMTFAC
40
1.0
9
$DIMTIH
70
0
9
$DIMTIX
70
0
9
$DIMTM
40
0.0
9
$DIMTMOVE
70
0
9
$DIMTOFL
70
0
9
$DIMTOH
70
0
9
$DIMTOL
70
0
9
$DIMLIM
70
0
9
$DIMTOLJ
70
1
9
$DIMTP
40
0.0
9
$DIMTXT
40
0.18
9
$DIMTXTDIRECTION
70
0
9
$DIMTZIN
70
0
9
$DIMZIN
70
0
9
$DIMFRAC
70
0
9
$DIMLTYPE
6
ByBlock
9
$DIMLTEX1
6
ByBlock
9
$DIMLTEX2
6
ByBlock
0
ENDSEC
0
SECTION
2
CLASSES
0
CLASS
1
RASTERVARIABLES
2
AcDbRasterVariables
3
ISM
90
0
280
0
281
0
0
ENDSEC
0
SECTION
2
TABLES
0
TABLE
2
APPID
5
4
330
0
100
AcDbSymbolTable
70
5
0
APPID
5
19
330
4
100
AcDbSymbolTableRecord
100
AcDbRegAppTableRecord
2
ACAD
70
0
0
APPID
5
28
330
4
100
AcDbSymbolTableRecord
100
AcDbRegAppTableRecord
2
AcCmTransparency
70
0
0
APPID
5
29
330
4
100
AcDbSymbolTableRecord
100
AcDbRegAppTableRecord
2
AcAecLayerStandard
70
0
0
APPID
5
2A
330
4
100
AcDbSymbolTableRecord
100
AcDbRegAppTableRecord
2
GradientColor1ACI
70
0
0
APPID
5
2B
330
4
100
AcDbSymbolTableRecord
100
AcDbRegAppTableRecord
2
GradientColor2ACI
70
0
0
ENDTAB
0
TABLE
2
VPORT
5
1
330
0
100
AcDbSymbolTable
70
1
0
VPORT
5
2
330
1
100
AcDbSymbolTableRecord
100
AcDbViewportTableRecord
2
*Active
70
0
10
0.0
20
0.0
11
1.0
21
1.0
12
0.0
22
0.0
13
0.0
23
0.0
14
0.5
24
0.5
15
10.0
25
10.0
16
0.0
26
0.0
36
1.0
17
0.0
27
0.0
37
0.0
40
10.0
41
1.0
75
0
76
1
0
ENDTAB
0
TABLE
2
LTYPE
5
7
330
0
100
AcDbSymbolTable
70
3
0
LTYPE
5
15
330
7
100
AcDbSymbolTableRecord
100
AcDbLinetypeTableRecord
2
Continuous
70
0
3
Solid line
72
65
73
0
40
0.0
0
LTYPE
5
16
330
7
100
AcDbSymbolTableRecord
100
AcDbLinetypeTableRecord
2
ByLayer
70
0
3

72
65
73
0
40
0.0
0
LTYPE
5
17
330
7
100
AcDbSymbolTableRecord
100
AcDbLinetypeTableRecord
2
ByBlock
70
0
3

72
65
73
0
40
0.0
0
ENDTAB
0
TABLE
2
LAYER
5
5
102
{ACAD_XDICTIONARY
360
6
102
}
330
0
100
AcDbSymbolTable
70
2
0
LAYER
5
14
330
5
100
AcDbSymbolTableRecord
100
AcDbLayerTableRecord
2
0
70
0
62
7
6
Continuous
290
1
370
-3
390
0
0
LAYER
5
F3
330
5
100
AcDbSymbolTableRecord
100
AcDbLayerTableRecord
2
ATK_Panel
70
0
62
7
6
Continuous
290
1
370
-3
390
0
0
ENDTAB
0
TABLE
2
STYLE
5
8
330
0
100
AcDbSymbolTable
70
1
0
STYLE
5
18
330
8
100
AcDbSymbolTableRecord
100
AcDbTextStyleTableRecord
2
Standard
3
simplex.shx
70
0
71
0
40
0.0
41
1.0
42
0.0
50
0.0
0
ENDTAB
0
TABLE
2
DIMSTYLE
5
A
330
0
100
AcDbSymbolTable
70
1
100
AcDbDimStyleTable
0
DIMSTYLE
105
1A
330
A
100
AcDbSymbolTableRecord
100
AcDbDimStyleTableRecord
2
Standard
3
<>
4
[]
40
1.0
41
0.18
42
0.0625
43
0.38
44
0.18
45
0.0
46
0.0
47
0.0
48
0.0
49
1.0
70
0
71
0
72
0
73
0
74
0
75
0
76
0
77
0
78
0
79
0
140
0.18
141
0.09
143
25.4
144
1.0
146
1.0
147
0.09
148
0.0
170
0
171
2
172
0
174
0
175
0
176
0
177
0
178
0
179
0
271
4
272
4
273
2
274
2
275
0
276
0
277
2
278
46
279
0
280
0
281
0
282
0
283
1
284
0
285
0
286
0
289
3
290
0
294
0
340
18
173
0
345
17
346
17
347
17
371
-2
372
-2
0
ENDTAB
0
TABLE
2
VIEW
5
3
330
0
100
AcDbSymbolTable
70
0
0
ENDTAB
0
TABLE
2
UCS
5
C
330
0
100
AcDbSymbolTable
70
0
0
ENDTAB
0
TABLE
2
BLOCK_RECORD
5
D
330
0
100
AcDbSymbolTable
70
3
0
BLOCK_RECORD
5
1C
330
D
100
AcDbSymbolTableRecord
100
AcDbBlockTableRecord
2
*Model_Space
340
20
0
BLOCK_RECORD
5
22
330
D
100
AcDbSymbolTableRecord
100
AcDbBlockTableRecord
2
*Paper_Space
340
27
0
BLOCK_RECORD
5
2F
330
D
100
AcDbSymbolTableRecord
100
AcDbBlockTableRecord
2
ATK_Panel27x90
340
0
70
0
280
1
281
0
1001
ACAD
1000
DesignCenter Data
1002
{
1070
1
1070
0
1002
}
0
ENDTAB
0
ENDSEC
0
SECTION
2
BLOCKS
0
BLOCK
5
1E
330
1C
100
AcDbEntity
67
0
8
0
100
AcDbBlockBegin
2
*Model_Space
70
0
10
0.0
20
0.0
30
0.0
3
*Model_Space
4

0
ENDBLK
5
1D
330
1C
100
AcDbEntity
8
0
100
AcDbBlockEnd
0
BLOCK
5
24
330
22
100
AcDbEntity
67
1
8
0
100
AcDbBlockBegin
2
*Paper_Space
70
0
10
0.0
20
0.0
30
0.0
3
*Paper_Space
4

0
ENDBLK
5
23
330
22
100
AcDbEntity
8
0
100
AcDbBlockEnd
0
BLOCK
5
31
330
2F
100
AcDbEntity
8
0
100
AcDbBlockBegin
2
ATK_Panel27x90
70
0
10
0.0
20
0.0
30
0.0
3
ATK_Panel27x90
4

0
3DFACE
5
32
330
2F
100
AcDbEntity
8
0
62
38
6
ByLayer
370
-1
48
1.0
60
0
100
AcDbFace
10
-0.0000000000000009
20
-0.0000000000000001
30
2.7
11
-0.900000000000001
21
0.0
31
2.7
12
-0.900000000000001
22
0.0000000000000004
32
-0.0000000000000004
13
-0.0000000000000009
23
0.0000000000000003
33
-0.0000000000000004
70
0
0
3DFACE
5
33
330
2F
100
AcDbEntity
8
0
62
0
6
ByLayer
370
-1
48
1.0
60
0
100
AcDbFace
10
-0.874650631070116
20
-0.0165004505704759
30
2.41224383596508
11
-0.874650631070116
21
-0.120000450575191
31
2.41224383596508
12
-0.024650631070434
22
-0.120000450575191
32
2.41224383596508
13
-0.024650631070434
23
-0.016500450570476
33
2.41224383596508
70
0
0
3DFACE
5
34
330
2F
100
AcDbEntity
8
0
62
0
6
ByLayer
370
-1
48
1.0
60
0
100
AcDbFace
10
-0.874650631070116
20
-0.0165004505704759
30
2.38724383596508
11
-0.874650631070116
21
-0.120000450575191
31
2.38724383596508
12
-0.024650631070434
22
-0.120000450575191
32
2.38724383596508
13
-0.024650631070434
23
-0.016500450570476
33
2.38724383596508
70
0
0
3DFACE
5
35
330
2F
100
AcDbEntity
8
0
62
0
6
ByLayer
370
-1
48
1.0
60
0
100
AcDbFace
10
-0.024650631070434
20
-0.120000450575191
30
2.41224383596508
11
-0.024650631070434
21
-0.120000450575191
31
2.38724383596508
12
-0.024650631070434
22
-0.016500450570476
32
2.38724383596508
13
-0.024650631070434
23
-0.016500450570476
33
2.41224383596508
70
0
0
3DFACE
5
36
330
2F
100
AcDbEntity
8
0
62
0
6
ByLayer
370
-1
48
1.0
60
0
100
AcDbFace
10
-0.874650631070116
20
-0.0165004505704759
30
2.38724383596508
11
-0.874650631070116
21
-0.120000450575191
31
2.38724383596508
12
-0.874650631070116
22
-0.120000450575191
32
2.41224383596508
13
-0.874650631070116
23
-0.0165004505704759
33
2.41224383596508
70
0
0
3DFACE
5
37
330
2F
100
AcDbEntity
8
0
62
0
6
ByLayer
370
-1
48
1.0
60
0
100
AcDbFace
10
-0.287147381658504
20
-0.0165004505704764
30
2.41230383596507
11
-0.287147381658959
21
-0.120000450575191
31
2.41217723242407
12
-0.287147381658959
22
-0.120000450575191
32
2.67467723242407
13
-0.287147381658504
23
-0.0165004505704764
33
2.67480383596506
70
0
0
3DFACE
5
38
330
2F
100
AcDbEntity
8
0
62
0
6
ByLayer
370
-1
48
1.0
60
0
100
AcDbFace
10
-0.312147381658595
20
-0.0165004505704764
30
2.41217723242407
11
-0.312147381658595
21
-0.120000450575191
31
2.41230383596506
12
-0.312147381658595
22
-0.120000450575191
32
2.67467723242407
13
-0.312147381658595
23
-0.0165004505704764
33
2.67467723242407
70
0
0
3DFACE
5
39
330
2F
100
AcDbEntity
8
0
62
0
6
ByLayer
370
-1
48
1.0
60
0
100
AcDbFace
10
-0.294288270915306
20
-0.120000450575191
30
2.67467723242407
11
-0.319288270914942
21
-0.120000450575191
31
2.67480383596506
12
-0.319288270914942
22
-0.0165004505704764
32
2.67467723242407
13
-0.294288270914851
23
-0.0165004505704764
33
2.67467723242407
70
0
0
3DFACE
5
3A
330
2F
100
AcDbEntity
8
0
62
0
6
ByLayer
370
-1
48
1.0
60
0
100
AcDbFace
10
-0.612153880482045
20
-0.0165004505704764
30
2.67480383596506
11
-0.61215388048159
21
-0.120000450575191
31
2.67467723242407
12
-0.61215388048159
22
-0.120000450575191
32
2.41217723242407
13
-0.612153880482045
23
-0.0165004505704763
33
2.41230383596507
70
0
0
3DFACE
5
3B
330
2F
100
AcDbEntity
8
0
62
0
6
ByLayer
370
-1
48
1.0
60
0
100
AcDbFace
10
-0.587153880481954
20
-0.0165004505704764
30
2.67467723242407
11
-0.587153880481954
21
-0.120000450575191
31
2.67467723242407
12
-0.587153880481954
22
-0.120000450575191
32
2.41230383596506
13
-0.587153880481954
23
-0.0165004505704763
33
2.41217723242407
70
0
0
3DFACE
5
3C
330
2F
100
AcDbEntity
8
0
62
0
6
ByLayer
370
-1
48
1.0
60
0
100
AcDbFace
10
-0.619294769738391
20
-0.0165004505704764
30
2.67467723242407
11
-0.594294769738301
21
-0.0165004505704764
31
2.67467723242407
12
-0.594294769738301
22
-0.120000450575191
32
2.67480383596506
13
-0.619294769737937
23
-0.120000450575191
33
2.67467723242407
70
0
0
3DFACE
5
3D
330
2F
100
AcDbEntity
8
0
62
0
6
ByLayer
370
-1
48
1.0
60
0
100
AcDbFace
10
-0.024650631070434
20
-0.016500450570476
30
2.38724383596508
11
-0.024650631070434
21
-0.120000450575191
31
2.38724383596508
12
-0.874650631070116
22
-0.120000450575191
32
2.38724383596508
13
-0.874650631070116
23
-0.0165004505704759
33
2.38724383596508
70
0
0
3DFACE
5
3E
330
2F
100
AcDbEntity
8
0
62
0
6
ByLayer
370
-1
48
1.0
60
0
100
AcDbFace
10
-0.024650631070434
20
-0.0165004505704756
30
0.287756164034923
11
-0.024650631070434
21
-0.12000045057519
31
0.287756164034923
12
-0.874650631070116
22
-0.12000045057519
32
0.287756164034923
13
-0.874650631070116
23
-0.0165004505704755
33
0.287756164034923
70
0
0
3DFACE
5
3F
330
2F
100
AcDbEntity
8
0
62
0
6
ByLayer
370
-1
48
1.0
60
0
100
AcDbFace
10
-0.024650631070434
20
-0.0165004505704756
30
0.312756164034923
11
-0.024650631070434
21
-0.12000045057519
31
0.312756164034923
12
-0.874650631070116
22
-0.12000045057519
32
0.312756164034923
13
-0.874650631070116
23
-0.0165004505704755
33
0.312756164034923
70
0
0
3DFACE
5
40
330
2F
100
AcDbEntity
8
0
62
0
6
ByLayer
370
-1
48
1.0
60
0
100
AcDbFace
10
-0.024650631070434
20
-0.0165004505704756
30
0.287756164034923
11
-0.024650631070434
21
-0.0165004505704756
31
0.312756164034923
12
-0.024650631070434
22
-0.12000045057519
32
0.312756164034923
13
-0.024650631070434
23
-0.12000045057519
33
0.287756164034923
70
0
0
3DFACE
5
41
330
2F
100
AcDbEntity
8
0
62
0
6
ByLayer
370
-1
48
1.0
60
0
100
AcDbFace
10
-0.874650631070116
20
-0.0165004505704755
30
0.287756164034923
11
-0.874650631070116
21
-0.12000045057519
31
0.287756164034923
12
-0.874650631070116
22
-0.12000045057519
32
0.312756164034923
13
-0.874650631070116
23
-0.0165004505704755
33
0.312756164034923
70
0
0
3DFACE
5
42
330
2F
100
AcDbEntity
8
0
62
0
6
ByLayer
370
-1
48
1.0
60
0
100
AcDbFace
10
-0.287147381658504
20
-0.016500450570476
30
0.0251961640349348
11
-0.287147381658959
21
-0.120000450575191
31
0.0253227675759305
12
-0.287147381658959
22
-0.120000450575191
32
0.287822767575931
13
-0.287147381658504
23
-0.016500450570476
33
0.287696164034933
70
0
0
3DFACE
5
43
330
2F
100
AcDbEntity
8
0
62
0
6
ByLayer
370
-1
48
1.0
60
0
100
AcDbFace
10
-0.312147381658595
20
-0.016500450570476
30
0.0253227675759305
11
-0.312147381658595
21
-0.120000450575191
31
0.0253227675759305
12
-0.312147381658595
22
-0.120000450575191
32
0.287696164034934
13
-0.312147381658595
23
-0.016500450570476
33
0.28782276757593
70
0
0
3DFACE
5
44
330
2F
100
AcDbEntity
8
0
62
0
6
ByLayer
370
-1
48
1.0
60
0
100
AcDbFace
10
-0.294288270914851
20
-0.016500450570476
30
0.0253227675759305
11
-0.319288270914942
21
-0.016500450570476
31
0.0253227675759305
12
-0.319288270914942
22
-0.120000450575191
32
0.0251961640349348
13
-0.294288270915306
23
-0.120000450575191
33
0.0253227675759305
70
0
0
3DFACE
5
45
330
2F
100
AcDbEntity
8
0
62
0
6
ByLayer
370
-1
48
1.0
60
0
100
AcDbFace
10
-0.612153880482045
20
-0.016500450570476
30
0.287696164034933
11
-0.61215388048159
21
-0.120000450575191
31
0.287822767575931
12
-0.61215388048159
22
-0.120000450575191
32
0.0253227675759305
13
-0.612153880482045
23
-0.0165004505704759
33
0.0251961640349348
70
0
0
3DFACE
5
46
330
2F
100
AcDbEntity
8
0
62
0
6
ByLayer
370
-1
48
1.0
60
0
100
AcDbFace
10
-0.587153880481954
20
-0.016500450570476
30
0.28782276757593
11
-0.587153880481954
21
-0.120000450575191
31
0.287696164034934
12
-0.587153880481954
22
-0.120000450575191
32
0.0253227675759305
13
-0.587153880481954
23
-0.0165004505704759
33
0.0253227675759305
70
0
0
3DFACE
5
47
330
2F
100
AcDbEntity
8
0
62
0
6
ByLayer
370
-1
48
1.0
60
0
100
AcDbFace
10
-0.619294769737937
20
-0.120000450575191
30
0.0253227675759305
11
-0.594294769738301
21
-0.120000450575191
31
0.0251961640349348
12
-0.594294769738301
22
-0.0165004505704759
32
0.0253227675759305
13
-0.619294769738391
23
-0.0165004505704759
33
0.0253227675759305
70
0
0
3DFACE
5
48
330
2F
100
AcDbEntity
8
0
62
0
6
ByLayer
370
-1
48
1.0
60
0
100
AcDbFace
10
-0.874650631070116
20
-0.0165004505704755
30
0.312756164034922
11
-0.874650631070116
21
-0.12000045057519
31
0.312756164034922
12
-0.024650631070434
22
-0.12000045057519
32
0.312756164034922
13
-0.024650631070434
23
-0.0165004505704756
33
0.312756164034922
70
0
0
3DFACE
5
49
330
2F
100
AcDbEntity
8
0
62
0
6
ByLayer
370
-1
48
1.0
60
0
100
AcDbFace
10
-0.874650631070116
20
-0.0165004505704759
30
2.11224383596508
11
-0.874650631070116
21
-0.120000450575191
31
2.11224383596508
12
-0.024650631070434
22
-0.120000450575191
32
2.11224383596508
13
-0.024650631070434
23
-0.016500450570476
33
2.11224383596508
70
0
0
3DFACE
5
4A
330
2F
100
AcDbEntity
8
0
62
0
6
ByLayer
370
-1
48
1.0
60
0
100
AcDbFace
10
-0.874650631070116
20
-0.0165004505704759
30
2.08724383596508
11
-0.874650631070116
21
-0.120000450575191
31
2.08724383596508
12
-0.024650631070434
22
-0.120000450575191
32
2.08724383596508
13
-0.024650631070434
23
-0.016500450570476
33
2.08724383596508
70
0
0
3DFACE
5
4B
330
2F
100
AcDbEntity
8
0
62
0
6
ByLayer
370
-1
48
1.0
60
0
100
AcDbFace
10
-0.024650631070434
20
-0.120000450575191
30
2.11224383596508
11
-0.024650631070434
21
-0.120000450575191
31
2.08724383596508
12
-0.024650631070434
22
-0.016500450570476
32
2.08724383596508
13
-0.024650631070434
23
-0.016500450570476
33
2.11224383596508
70
0
0
3DFACE
5
4C
330
2F
100
AcDbEntity
8
0
62
0
6
ByLayer
370
-1
48
1.0
60
0
100
AcDbFace
10
-0.874650631070116
20
-0.0165004505704759
30
2.08724383596508
11
-0.874650631070116
21
-0.120000450575191
31
2.08724383596508
12
-0.874650631070116
22
-0.120000450575191
32
2.11224383596508
13
-0.874650631070116
23
-0.0165004505704759
33
2.11224383596508
70
0
0
3DFACE
5
4D
330
2F
100
AcDbEntity
8
0
62
0
6
ByLayer
370
-1
48
1.0
60
0
100
AcDbFace
10
-0.024650631070434
20
-0.016500450570476
30
2.08724383596508
11
-0.024650631070434
21
-0.120000450575191
31
2.08724383596508
12
-0.874650631070116
22
-0.120000450575191
32
2.08724383596508
13
-0.874650631070116
23
-0.0165004505704759
33
2.08724383596508
70
0
0
3DFACE
5
4E
330
2F
100
AcDbEntity
8
0
62
0
6
ByLayer
370
-1
48
1.0
60
0
100
AcDbFace
10
-0.874650631070116
20
-0.0165004505704758
30
1.81224383596508
11
-0.874650631070116
21
-0.120000450575191
31
1.81224383596508
12
-0.024650631070434
22
-0.120000450575191
32
1.81224383596508
13
-0.024650631070434
23
-0.0165004505704759
33
1.81224383596508
70
0
0
3DFACE
5
4F
330
2F
100
AcDbEntity
8
0
62
0
6
ByLayer
370
-1
48
1.0
60
0
100
AcDbFace
10
-0.874650631070116
20
-0.0165004505704758
30
1.78724383596508
11
-0.874650631070116
21
-0.120000450575191
31
1.78724383596508
12
-0.024650631070434
22
-0.120000450575191
32
1.78724383596508
13
-0.024650631070434
23
-0.0165004505704759
33
1.78724383596508
70
0
0
3DFACE
5
50
330
2F
100
AcDbEntity
8
0
62
0
6
ByLayer
370
-1
48
1.0
60
0
100
AcDbFace
10
-0.024650631070434
20
-0.120000450575191
30
1.81224383596508
11
-0.024650631070434
21
-0.120000450575191
31
1.78724383596508
12
-0.024650631070434
22
-0.0165004505704759
32
1.78724383596508
13
-0.024650631070434
23
-0.0165004505704759
33
1.81224383596508
70
0
0
3DFACE
5
51
330
2F
100
AcDbEntity
8
0
62
0
6
ByLayer
370
-1
48
1.0
60
0
100
AcDbFace
10
-0.874650631070116
20
-0.0165004505704758
30
1.78724383596508
11
-0.874650631070116
21
-0.120000450575191
31
1.78724383596508
12
-0.874650631070116
22
-0.120000450575191
32
1.81224383596508
13
-0.874650631070116
23
-0.0165004505704758
33
1.81224383596508
70
0
0
3DFACE
5
52
330
2F
100
AcDbEntity
8
0
62
0
6
ByLayer
370
-1
48
1.0
60
0
100
AcDbFace
10
-0.024650631070434
20
-0.0165004505704759
30
1.78724383596508
11
-0.024650631070434
21
-0.120000450575191
31
1.78724383596508
12
-0.874650631070116
22
-0.120000450575191
32
1.78724383596508
13
-0.874650631070116
23
-0.0165004505704758
33
1.78724383596508
70
0
0
3DFACE
5
53
330
2F
100
AcDbEntity
8
0
62
0
6
ByLayer
370
-1
48
1.0
60
0
100
AcDbFace
10
-0.874650631070116
20
-0.0165004505704758
30
1.51224383596507
11
-0.874650631070116
21
-0.120000450575191
31
1.51224383596507
12
-0.024650631070434
22
-0.120000450575191
32
1.51224383596507
13
-0.024650631070434
23
-0.0165004505704759
33
1.51224383596507
70
0
0
3DFACE
5
54
330
2F
100
AcDbEntity
8
0
62
0
6
ByLayer
370
-1
48
1.0
60
0
100
AcDbFace
10
-0.874650631070116
20
-0.0165004505704758
30
1.48724383596508
11
-0.874650631070116
21
-0.120000450575191
31
1.48724383596508
12
-0.024650631070434
22
-0.120000450575191
32
1.48724383596508
13
-0.024650631070434
23
-0.0165004505704759
33
1.48724383596508
70
0
0
3DFACE
5
55
330
2F
100
AcDbEntity
8
0
62
0
6
ByLayer
370
-1
48
1.0
60
0
100
AcDbFace
10
-0.024650631070434
20
-0.120000450575191
30
1.51224383596507
11
-0.024650631070434
21
-0.120000450575191
31
1.48724383596508
12
-0.024650631070434
22
-0.0165004505704759
32
1.48724383596508
13
-0.024650631070434
23
-0.0165004505704759
33
1.51224383596507
70
0
0
3DFACE
5
56
330
2F
100
AcDbEntity
8
0
62
0
6
ByLayer
370
-1
48
1.0
60
0
100
AcDbFace
10
-0.024650631070434
20
-0.0165004505704759
30
1.48724383596508
11
-0.024650631070434
21
-0.120000450575191
31
1.48724383596508
12
-0.874650631070116
22
-0.120000450575191
32
1.48724383596508
13
-0.874650631070116
23
-0.0165004505704758
33
1.48724383596508
70
0
0
3DFACE
5
57
330
2F
100
AcDbEntity
8
0
62
0
6
ByLayer
370
-1
48
1.0
60
0
100
AcDbFace
10
-0.024650631070434
20
-0.0165004505704758
30
0.587756164034923
11
-0.024650631070434
21
-0.120000450575191
31
0.587756164034923
12
-0.874650631070116
22
-0.120000450575191
32
0.587756164034923
13
-0.874650631070116
23
-0.0165004505704757
33
0.587756164034923
70
0
0
3DFACE
5
58
330
2F
100
AcDbEntity
8
0
62
0
6
ByLayer
370
-1
48
1.0
60
0
100
AcDbFace
10
-0.024650631070434
20
-0.0165004505704758
30
0.612756164034923
11
-0.024650631070434
21
-0.120000450575191
31
0.612756164034923
12
-0.874650631070116
22
-0.120000450575191
32
0.612756164034923
13
-0.874650631070116
23
-0.0165004505704757
33
0.612756164034923
70
0
0
3DFACE
5
59
330
2F
100
AcDbEntity
8
0
62
0
6
ByLayer
370
-1
48
1.0
60
0
100
AcDbFace
10
-0.024650631070434
20
-0.0165004505704758
30
0.587756164034923
11
-0.024650631070434
21
-0.0165004505704758
31
0.612756164034923
12
-0.024650631070434
22
-0.120000450575191
32
0.612756164034923
13
-0.024650631070434
23
-0.120000450575191
33
0.587756164034923
70
0
0
3DFACE
5
5A
330
2F
100
AcDbEntity
8
0
62
0
6
ByLayer
370
-1
48
1.0
60
0
100
AcDbFace
10
-0.874650631070116
20
-0.0165004505704757
30
0.587756164034923
11
-0.874650631070116
21
-0.120000450575191
31
0.587756164034923
12
-0.874650631070116
22
-0.120000450575191
32
0.612756164034923
13
-0.874650631070116
23
-0.0165004505704757
33
0.612756164034923
70
0
0
3DFACE
5
5B
330
2F
100
AcDbEntity
8
0
62
0
6
ByLayer
370
-1
48
1.0
60
0
100
AcDbFace
10
-0.874650631070116
20
-0.0165004505704757
30
0.612756164034922
11
-0.874650631070116
21
-0.120000450575191
31
0.612756164034922
12
-0.024650631070434
22
-0.120000450575191
32
0.612756164034922
13
-0.024650631070434
23
-0.0165004505704758
33
0.612756164034922
70
0
0
3DFACE
5
5C
330
2F
100
AcDbEntity
8
0
62
0
6
ByLayer
370
-1
48
1.0
60
0
100
AcDbFace
10
-0.024650631070434
20
-0.0165004505704758
30
0.887756164034923
11
-0.024650631070434
21
-0.120000450575191
31
0.887756164034923
12
-0.874650631070116
22
-0.120000450575191
32
0.887756164034923
13
-0.874650631070116
23
-0.0165004505704757
33
0.887756164034923
70
0
0
3DFACE
5
5D
330
2F
100
AcDbEntity
8
0
62
0
6
ByLayer
370
-1
48
1.0
60
0
100
AcDbFace
10
-0.024650631070434
20
-0.0165004505704758
30
0.912756164034923
11
-0.024650631070434
21
-0.120000450575191
31
0.912756164034923
12
-0.874650631070116
22
-0.120000450575191
32
0.912756164034923
13
-0.874650631070116
23
-0.0165004505704757
33
0.912756164034923
70
0
0
3DFACE
5
5E
330
2F
100
AcDbEntity
8
0
62
0
6
ByLayer
370
-1
48
1.0
60
0
100
AcDbFace
10
-0.024650631070434
20
-0.0165004505704758
30
0.887756164034923
11
-0.024650631070434
21
-0.0165004505704758
31
0.912756164034923
12
-0.024650631070434
22
-0.120000450575191
32
0.912756164034923
13
-0.024650631070434
23
-0.120000450575191
33
0.887756164034923
70
0
0
3DFACE
5
5F
330
2F
100
AcDbEntity
8
0
62
0
6
ByLayer
370
-1
48
1.0
60
0
100
AcDbFace
10
-0.874650631070116
20
-0.0165004505704757
30
0.887756164034923
11
-0.874650631070116
21
-0.120000450575191
31
0.887756164034923
12
-0.874650631070116
22
-0.120000450575191
32
0.912756164034923
13
-0.874650631070116
23
-0.0165004505704757
33
0.912756164034923
70
0
0
3DFACE
5
60
330
2F
100
AcDbEntity
8
0
62
0
6
ByLayer
370
-1
48
1.0
60
0
100
AcDbFace
10
-0.874650631070116
20
-0.0165004505704757
30
0.912756164034922
11
-0.874650631070116
21
-0.120000450575191
31
0.912756164034922
12
-0.024650631070434
22
-0.120000450575191
32
0.912756164034922
13
-0.024650631070434
23
-0.0165004505704758
33
0.912756164034922
70
0
0
3DFACE
5
61
330
2F
100
AcDbEntity
8
0
62
0
6
ByLayer
370
-1
48
1.0
60
0
100
AcDbFace
10
-0.024650631070434
20
-0.0165004505704759
30
1.18775616403492
11
-0.024650631070434
21
-0.120000450575191
31
1.18775616403492
12
-0.874650631070116
22
-0.120000450575191
32
1.18775616403492
13
-0.874650631070116
23
-0.0165004505704758
33
1.18775616403492
70
0
0
3DFACE
5
62
330
2F
100
AcDbEntity
8
0
62
0
6
ByLayer
370
-1
48
1.0
60
0
100
AcDbFace
10
-0.024650631070434
20
-0.0165004505704759
30
1.21275616403492
11
-0.024650631070434
21
-0.120000450575191
31
1.21275616403492
12
-0.874650631070116
22
-0.120000450575191
32
1.21275616403492
13
-0.874650631070116
23
-0.0165004505704758
33
1.21275616403492
70
0
0
3DFACE
5
63
330
2F
100
AcDbEntity
8
0
62
0
6
ByLayer
370
-1
48
1.0
60
0
100
AcDbFace
10
-0.024650631070434
20
-0.0165004505704759
30
1.18775616403492
11
-0.024650631070434
21
-0.0165004505704759
31
1.21275616403492
12
-0.024650631070434
22
-0.120000450575191
32
1.21275616403492
13
-0.024650631070434
23
-0.120000450575191
33
1.18775616403492
70
0
0
3DFACE
5
64
330
2F
100
AcDbEntity
8
0
62
0
6
ByLayer
370
-1
48
1.0
60
0
100
AcDbFace
10
-0.874650631070116
20
-0.0165004505704758
30
1.21275616403492
11
-0.874650631070116
21
-0.120000450575191
31
1.21275616403492
12
-0.024650631070434
22
-0.120000450575191
32
1.21275616403492
13
-0.024650631070434
23
-0.0165004505704759
33
1.21275616403492
70
0
0
3DFACE
5
65
330
2F
100
AcDbEntity
8
0
62
0
6
ByLayer
370
-1
48
1.0
60
0
100
AcDbFace
10
-0.102668348889966
20
-0.120000004280883
30
2.11223196139495
11
-0.102668348889966
21
-0.0165000042834439
31
2.11223196139495
12
-0.0251093851143933
22
-0.0165000042834439
32
2.19535589049985
13
-0.0251093851143933
23
-0.120000004280883
33
2.19535589049985
70
0
0
3DFACE
5
66
330
2F
100
AcDbEntity
8
0
62
0
6
ByLayer
370
-1
48
1.0
60
0
100
AcDbFace
10
-0.0251093851143933
20
-0.0165000042834439
30
2.18656092378981
11
-0.094462185960384
21
-0.0165000042834439
31
2.11223196139495
12
-0.094462185960384
22
-0.120000004280883
32
2.11223196139495
13
-0.0251093851143933
23
-0.120000004280883
33
2.18656092378981
70
0
0
3DFACE
5
67
330
2F
100
AcDbEntity
8
0
62
0
6
ByLayer
370
-1
48
1.0
60
0
100
AcDbFace
10
-0.0251093851143933
20
-0.120000004280883
30
2.18656092378981
11
-0.094462185960384
21
-0.120000004280883
31
2.11223196139495
12
-0.102668348889966
22
-0.120000004280883
32
2.11223196139495
13
-0.0251093851143933
23
-0.120000004280883
33
2.19535589049985
70
0
0
3DFACE
5
68
330
2F
100
AcDbEntity
8
0
62
0
6
ByLayer
370
-1
48
1.0
60
0
100
AcDbFace
10
-0.0251093851143933
20
-0.0165000042834439
30
2.18656092378981
11
-0.094462185960384
21
-0.0165000042834439
31
2.11223196139495
12
-0.102668348889966
22
-0.0165000042834438
32
2.11223196139495
13
-0.0251093851143933
23
-0.0165000042834439
33
2.19535589049985
70
0
0
3DFACE
5
69
330
2F
100
AcDbEntity
8
0
62
0
6
ByLayer
370
-1
48
1.0
60
0
100
AcDbFace
10
-0.0251093851143933
20
-0.0165000042834438
30
2.18656092378981
11
-0.0251093851143933
21
-0.120000004280883
31
2.18656092378981
12
-0.0251093851143933
22
-0.120000004280883
32
2.19535589049985
13
-0.0251093851143933
23
-0.0165000042834438
33
2.19535589049985
70
0
0
3DFACE
5
6A
330
2F
100
AcDbEntity
8
0
62
0
6
ByLayer
370
-1
48
1.0
60
0
100
AcDbFace
10
-0.0251093851143933
20
-0.0165000042834438
30
2.18656092378981
11
-0.0251093851143933
21
-0.120000004280883
31
2.18656092378981
12
-0.094462185960384
22
-0.120000004280883
32
2.11223196139495
13
-0.094462185960384
23
-0.0165000042834439
33
2.11223196139495
70
0
0
3DFACE
5
6B
330
2F
100
AcDbEntity
8
0
62
0
6
ByLayer
370
-1
48
1.0
60
0
100
AcDbFace
10
-0.874191877026156
20
-0.120000004280883
30
2.19535589049985
11
-0.874191877026156
21
-0.0165000042834439
31
2.19535589049985
12
-0.796632913250583
22
-0.0165000042834439
32
2.11223196139495
13
-0.796632913250583
23
-0.120000004280883
33
2.11223196139495
70
0
0
3DFACE
5
6C
330
2F
100
AcDbEntity
8
0
62
0
6
ByLayer
370
-1
48
1.0
60
0
100
AcDbFace
10
-0.874191877026156
20
-0.120000004280883
30
2.18656092378981
11
-0.804839076180165
21
-0.120000004280883
31
2.11223196139495
12
-0.804839076180165
22
-0.0165000042834439
32
2.11223196139495
13
-0.874191877026156
23
-0.0165000042834439
33
2.18656092378981
70
0
0
3DFACE
5
6D
330
2F
100
AcDbEntity
8
0
62
0
6
ByLayer
370
-1
48
1.0
60
0
100
AcDbFace
10
-0.874191877026156
20
-0.120000004280883
30
2.19535589049985
11
-0.796632913250583
21
-0.120000004280883
31
2.11223196139495
12
-0.804839076180165
22
-0.120000004280883
32
2.11223196139495
13
-0.874191877026156
23
-0.120000004280883
33
2.18656092378981
70
0
0
3DFACE
5
6E
330
2F
100
AcDbEntity
8
0
62
0
6
ByLayer
370
-1
48
1.0
60
0
100
AcDbFace
10
-0.874191877026156
20
-0.0165000042834439
30
2.19535589049985
11
-0.796632913250583
21
-0.0165000042834439
31
2.11223196139495
12
-0.804839076180165
22
-0.0165000042834439
32
2.11223196139495
13
-0.874191877026156
23
-0.0165000042834439
33
2.18656092378981
70
0
0
3DFACE
5
6F
330
2F
100
AcDbEntity
8
0
62
0
6
ByLayer
370
-1
48
1.0
60
0
100
AcDbFace
10
-0.874191877026156
20
-0.0165000042834439
30
2.19535589049985
11
-0.874191877026156
21
-0.120000004280883
31
2.19535589049985
12
-0.874191877026156
22
-0.120000004280883
32
2.18656092378981
13
-0.874191877026156
23
-0.0165000042834439
33
2.18656092378981
70
0
0
3DFACE
5
70
330
2F
100
AcDbEntity
8
0
62
0
6
ByLayer
370
-1
48
1.0
60
0
100
AcDbFace
10
-0.804839076180165
20
-0.0165000042834439
30
2.11223196139495
11
-0.804839076180165
21
-0.120000004280883
31
2.11223196139495
12
-0.874191877026156
22
-0.120000004280883
32
2.18656092378981
13
-0.874191877026156
23
-0.0165000042834439
33
2.18656092378981
70
0
0
3DFACE
5
71
330
2F
100
AcDbEntity
8
0
62
0
6
ByLayer
370
-1
48
1.0
60
0
100
AcDbFace
10
-0.024650631070434
20
-0.0165004505704757
30
0.587756164034923
11
-0.024650631070434
21
-0.0165004505704757
31
0.612756164034923
12
-0.024650631070434
22
-0.120000450575191
32
0.612756164034923
13
-0.024650631070434
23
-0.120000450575191
33
0.587756164034923
70
0
0
3DFACE
5
72
330
2F
100
AcDbEntity
8
0
62
0
6
ByLayer
370
-1
48
1.0
60
0
100
AcDbFace
10
-0.874650631070116
20
-0.0165004505704756
30
0.587756164034923
11
-0.874650631070116
21
-0.12000045057519
31
0.587756164034923
12
-0.874650631070116
22
-0.12000045057519
32
0.612756164034923
13
-0.874650631070116
23
-0.0165004505704756
33
0.612756164034923
70
0
0
3DFACE
5
73
330
2F
100
AcDbEntity
8
0
62
0
6
ByLayer
370
-1
48
1.0
60
0
100
AcDbFace
10
-0.0251093851143933
20
-0.120000004280882
30
0.504644109500146
11
-0.0251093851143933
21
-0.0165000042834436
31
0.504644109500146
12
-0.102668348889966
22
-0.0165000042834436
32
0.587768038605049
13
-0.102668348889966
23
-0.120000004280882
33
0.587768038605049
70
0
0
3DFACE
5
74
330
2F
100
AcDbEntity
8
0
62
0
6
ByLayer
370
-1
48
1.0
60
0
100
AcDbFace
10
-0.0251093851143933
20
-0.120000004280882
30
0.513439076210192
11
-0.094462185960384
21
-0.120000004280882
31
0.587768038605049
12
-0.094462185960384
22
-0.0165000042834436
32
0.587768038605049
13
-0.0251093851143933
23
-0.0165000042834436
33
0.513439076210192
70
0
0
3DFACE
5
75
330
2F
100
AcDbEntity
8
0
62
0
6
ByLayer
370
-1
48
1.0
60
0
100
AcDbFace
10
-0.0251093851143933
20
-0.120000004280882
30
0.504644109500146
11
-0.102668348889966
21
-0.120000004280882
31
0.587768038605049
12
-0.094462185960384
22
-0.120000004280882
32
0.587768038605049
13
-0.0251093851143933
23
-0.120000004280882
33
0.513439076210192
70
0
0
3DFACE
5
76
330
2F
100
AcDbEntity
8
0
62
0
6
ByLayer
370
-1
48
1.0
60
0
100
AcDbFace
10
-0.0251093851143933
20
-0.0165000042834436
30
0.504644109500146
11
-0.102668348889966
21
-0.0165000042834435
31
0.587768038605049
12
-0.094462185960384
22
-0.0165000042834436
32
0.587768038605049
13
-0.0251093851143933
23
-0.0165000042834436
33
0.513439076210192
70
0
0
3DFACE
5
77
330
2F
100
AcDbEntity
8
0
62
0
6
ByLayer
370
-1
48
1.0
60
0
100
AcDbFace
10
-0.0251093851143933
20
-0.0165000042834435
30
0.504644109500146
11
-0.0251093851143933
21
-0.120000004280882
31
0.504644109500146
12
-0.0251093851143933
22
-0.120000004280882
32
0.513439076210192
13
-0.0251093851143933
23
-0.0165000042834435
33
0.513439076210192
70
0
0
3DFACE
5
78
330
2F
100
AcDbEntity
8
0
62
0
6
ByLayer
370
-1
48
1.0
60
0
100
AcDbFace
10
-0.094462185960384
20
-0.0165000042834436
30
0.587768038605049
11
-0.094462185960384
21
-0.120000004280882
31
0.587768038605049
12
-0.0251093851143933
22
-0.120000004280882
32
0.513439076210192
13
-0.0251093851143933
23
-0.0165000042834435
33
0.513439076210192
70
0
0
3DFACE
5
79
330
2F
100
AcDbEntity
8
0
62
0
6
ByLayer
370
-1
48
1.0
60
0
100
AcDbFace
10
-0.796632913250583
20
-0.120000004280882
30
0.587768038605049
11
-0.796632913250583
21
-0.0165000042834436
31
0.587768038605049
12
-0.874191877026156
22
-0.0165000042834436
32
0.504644109500146
13
-0.874191877026156
23
-0.120000004280882
33
0.504644109500146
70
0
0
3DFACE
5
7A
330
2F
100
AcDbEntity
8
0
62
0
6
ByLayer
370
-1
48
1.0
60
0
100
AcDbFace
10
-0.874191877026156
20
-0.0165000042834436
30
0.513439076210192
11
-0.804839076180165
21
-0.0165000042834436
31
0.587768038605049
12
-0.804839076180165
22
-0.120000004280882
32
0.587768038605049
13
-0.874191877026156
23
-0.120000004280883
33
0.513439076210192
70
0
0
3DFACE
5
7B
330
2F
100
AcDbEntity
8
0
62
0
6
ByLayer
370
-1
48
1.0
60
0
100
AcDbFace
10
-0.874191877026156
20
-0.120000004280883
30
0.513439076210192
11
-0.804839076180165
21
-0.120000004280882
31
0.587768038605049
12
-0.796632913250583
22
-0.120000004280882
32
0.587768038605049
13
-0.874191877026156
23
-0.120000004280882
33
0.504644109500146
70
0
0
3DFACE
5
7C
330
2F
100
AcDbEntity
8
0
62
0
6
ByLayer
370
-1
48
1.0
60
0
100
AcDbFace
10
-0.874191877026156
20
-0.0165000042834436
30
0.513439076210192
11
-0.804839076180165
21
-0.0165000042834436
31
0.587768038605049
12
-0.796632913250583
22
-0.0165000042834436
32
0.587768038605049
13
-0.874191877026156
23
-0.0165000042834436
33
0.504644109500146
70
0
0
3DFACE
5
7D
330
2F
100
AcDbEntity
8
0
62
0
6
ByLayer
370
-1
48
1.0
60
0
100
AcDbFace
10
-0.874191877026156
20
-0.0165000042834436
30
0.513439076210192
11
-0.874191877026156
21
-0.120000004280883
31
0.513439076210192
12
-0.874191877026156
22
-0.120000004280882
32
0.504644109500146
13
-0.874191877026156
23
-0.0165000042834436
33
0.504644109500146
70
0
0
3DFACE
5
7E
330
2F
100
AcDbEntity
8
0
62
0
6
ByLayer
370
-1
48
1.0
60
0
100
AcDbFace
10
-0.874191877026156
20
-0.0165000042834436
30
0.513439076210192
11
-0.874191877026156
21
-0.120000004280883
31
0.513439076210192
12
-0.804839076180165
22
-0.120000004280882
32
0.587768038605049
13
-0.804839076180165
23
-0.0165000042834436
33
0.587768038605049
70
0
0
LWPOLYLINE
5
7F
330
2F
100
AcDbEntity
8
0
62
0
6
ByLayer
370
-1
48
1.0
60
0
100
AcDbPolyline
90
13
70
1
38
0.0
39
2.7
10
-0.9
20
-0.119999999988067
40
0.0
41
0.0
42
0.0
10
-0.874999999999909
20
-0.120000000002619
40
0.0
41
0.0
42
0.0
10
-0.874999999999909
20
-0.0899999999892315
40
0.0
41
0.0
42
0.0
10
-0.883988605796185
20
-0.0824999999903371
40
0.0
41
0.0
42
0.0
10
-0.895856859147125
20
-0.0805010550175211
40
0.0
41
0.0
42
0.0
10
-0.895879015326409
20
-0.0384999999878345
40
0.0
41
0.0
42
0.0
10
-0.879000000000042
20
-0.0364999999874263
40
0.0
41
0.0
42
0.0
10
-0.875000000000042
20
-0.0324999999938881
40
0.0
41
0.0
42
0.0
10
-0.874999999999818
20
-0.0204999999987196
40
0.0
41
0.0
42
0.0
10
-0.879000000000037
20
-0.0164999999934831
40
0.0
41
0.0
42
0.0
10
-0.894078174573133
20
-0.0150464246617047
40
0.0
41
0.0
42
0.0
10
-0.891963537490392
20
0.0000000000000001
40
0.0
41
0.0
42
0.0
10
-0.9
20
0.0000000000000001
40
0.0
41
0.0
42
0.0
210
0.0
220
0.0
230
1.0
0
LWPOLYLINE
5
80
330
2F
100
AcDbEntity
8
0
62
0
6
ByLayer
370
-1
48
1.0
60
0
100
AcDbPolyline
90
13
70
1
38
0.0
39
0.9
10
0.119999999988068
20
2.7
40
0.0
41
0.0
42
0.0
10
0.12000000000262
20
2.67499999999991
40
0.0
41
0.0
42
0.0
10
0.0899999999892319
20
2.67499999999991
40
0.0
41
0.0
42
0.0
10
0.0824999999903376
20
2.68398860579619
40
0.0
41
0.0
42
0.0
10
0.0805010550175216
20
2.69585685914713
40
0.0
41
0.0
42
0.0
10
0.0384999999878349
20
2.69587901532641
40
0.0
41
0.0
42
0.0
10
0.0364999999874267
20
2.67900000000004
40
0.0
41
0.0
42
0.0
10
0.0324999999938885
20
2.67500000000004
40
0.0
41
0.0
42
0.0
10
0.02049999999872
20
2.67499999999982
40
0.0
41
0.0
42
0.0
10
0.0164999999934835
20
2.67900000000004
40
0.0
41
0.0
42
0.0
10
0.0150464246617052
20
2.69407817457313
40
0.0
41
0.0
42
0.0
10
0.0000000000000003
20
2.69196353749039
40
0.0
41
0.0
42
0.0
10
0.0000000000000003
20
2.7
40
0.0
41
0.0
42
0.0
210
-1.0
220
0.0000000000000001
230
-0.0000000000000002
0
LWPOLYLINE
5
81
330
2F
100
AcDbEntity
8
0
62
0
6
ByLayer
370
-1
48
1.0
60
0
100
AcDbPolyline
90
13
70
1
38
0.0
39
2.7
10
-0.0000000000000007
20
-0.119999999988067
40
0.0
41
0.0
42
0.0
10
-0.0250000000000916
20
-0.120000000002619
40
0.0
41
0.0
42
0.0
10
-0.0250000000000916
20
-0.0899999999892314
40
0.0
41
0.0
42
0.0
10
-0.0160113942038158
20
-0.0824999999903371
40
0.0
41
0.0
42
0.0
10
-0.0041431408528758
20
-0.080501055017521
40
0.0
41
0.0
42
0.0
10
-0.0041209846735917
20
-0.0384999999878345
40
0.0
41
0.0
42
0.0
10
-0.0209999999999588
20
-0.0364999999874262
40
0.0
41
0.0
42
0.0
10
-0.0249999999999588
20
-0.0324999999938881
40
0.0
41
0.0
42
0.0
10
-0.025000000000183
20
-0.0204999999987195
40
0.0
41
0.0
42
0.0
10
-0.0209999999999645
20
-0.016499999993483
40
0.0
41
0.0
42
0.0
10
-0.0059218254268678
20
-0.0150464246617047
40
0.0
41
0.0
42
0.0
10
-0.0080364625096088
20
0.0000000000000002
40
0.0
41
0.0
42
0.0
10
-0.0000000000000009
20
0.0000000000000002
40
0.0
41
0.0
42
0.0
210
0.0
220
0.0
230
1.0
0
LWPOLYLINE
5
82
330
2F
100
AcDbEntity
8
0
62
0
6
ByLayer
370
-1
48
1.0
60
0
100
AcDbPolyline
90
13
70
1
38
0.0
39
0.9
10
0.119999999988067
20
0.0
40
0.0
41
0.0
42
0.0
10
0.120000000002619
20
0.025000000000091
40
0.0
41
0.0
42
0.0
10
0.0899999999892316
20
0.025000000000091
40
0.0
41
0.0
42
0.0
10
0.0824999999903372
20
0.0160113942038152
40
0.0
41
0.0
42
0.0
10
0.0805010550175212
20
0.0041431408528752
40
0.0
41
0.0
42
0.0
10
0.0384999999878346
20
0.004120984673591
40
0.0
41
0.0
42
0.0
10
0.0364999999874264
20
0.0209999999999582
40
0.0
41
0.0
42
0.0
10
0.0324999999938882
20
0.0249999999999582
40
0.0
41
0.0
42
0.0
10
0.0204999999987197
20
0.025000000000182
40
0.0
41
0.0
42
0.0
10
0.0164999999934832
20
0.0209999999999635
40
0.0
41
0.0
42
0.0
10
0.0150464246617049
20
0.0059218254268671
40
0.0
41
0.0
42
0.0
10
0.0
20
0.0080364625096081
40
0.0
41
0.0
42
0.0
10
0.0
20
0.0
40
0.0
41
0.0
42
0.0
210
-1.0
220
0.0000000000000001
230
0.0000000000000002
0
LWPOLYLINE
5
83
330
2F
100
AcDbEntity
8
0
62
0
6
ByLayer
370
-1
48
1.0
60
0
100
AcDbPolyline
90
13
70
1
38
0.0
39
0.9
10
0.119999999988067
20
0.0
40
0.0
41
0.0
42
0.0
10
0.120000000002619
20
0.025000000000091
40
0.0
41
0.0
42
0.0
10
0.0899999999892314
20
0.025000000000091
40
0.0
41
0.0
42
0.0
10
0.082499999990337
20
0.0160113942038152
40
0.0
41
0.0
42
0.0
10
0.080501055017521
20
0.0041431408528752
40
0.0
41
0.0
42
0.0
10
0.0384999999878345
20
0.004120984673591
40
0.0
41
0.0
42
0.0
10
0.0364999999874262
20
0.0209999999999582
40
0.0
41
0.0
42
0.0
10
0.032499999993888
20
0.0249999999999582
40
0.0
41
0.0
42
0.0
10
0.0204999999987195
20
0.025000000000182
40
0.0
41
0.0
42
0.0
10
0.016499999993483
20
0.0209999999999635
40
0.0
41
0.0
42
0.0
10
0.0150464246617047
20
0.0059218254268671
40
0.0
41
0.0
42
0.0
10
-0.0000000000000001
20
0.0080364625096081
40
0.0
41
0.0
42
0.0
10
-0.0000000000000001
20
0.0
40
0.0
41
0.0
42
0.0
210
-1.0
220
0.0000000000000001
230
0.0000000000000002
0
CIRCLE
5
84
330
2F
100
AcDbEntity
8
0
62
0
6
ByLayer
370
-1
48
1.0
60
0
100
AcDbCircle
10
-0.0746506310701611
20
-0.0800004561404253
30
2.41224383596508
40
0.012
39
0.0
210
0.0
220
0.0
230
1.0
0
CIRCLE
5
85
330
2F
100
AcDbEntity
8
0
62
0
6
ByLayer
370
-1
48
1.0
60
0
100
AcDbCircle
10
-0.149650631070434
20
-0.0700004575353723
30
2.41224383596508
40
0.012
39
0.0
210
0.0
220
0.0
230
1.0
0
CIRCLE
5
86
330
2F
100
AcDbEntity
8
0
62
0
6
ByLayer
370
-1
48
1.0
60
0
100
AcDbCircle
10
-0.224650631070252
20
-0.0700004575353723
30
2.41224383596508
40
0.012
39
0.0
210
0.0
220
0.0
230
1.0
0
CIRCLE
5
87
330
2F
100
AcDbEntity
8
0
62
0
6
ByLayer
370
-1
48
1.0
60
0
100
AcDbCircle
10
-0.749650631070116
20
-0.0800004561404256
30
2.41224383596508
40
0.012
39
0.0
210
0.0
220
0.0
230
1.0
0
CIRCLE
5
88
330
2F
100
AcDbEntity
8
0
62
0
6
ByLayer
370
-1
48
1.0
60
0
100
AcDbCircle
10
0.0700004672706036
20
2.53718053419457
30
0.287147381658504
40
0.012
39
0.0
210
-1.0
220
0.0000000000000001
230
0.0
0
CIRCLE
5
89
330
2F
100
AcDbEntity
8
0
62
0
6
ByLayer
370
-1
48
1.0
60
0
100
AcDbCircle
10
0.0800004672726409
20
2.46218053419457
30
0.287147381658504
40
0.012
39
0.0
210
-1.0
220
0.0000000000000001
230
0.0
0
CIRCLE
5
8A
330
2F
100
AcDbEntity
8
0
62
0
6
ByLayer
370
-1
48
1.0
60
0
100
AcDbCircle
10
0.0700004672706036
20
2.53718053419457
30
0.312147381658595
40
0.012
39
0.0
210
-1.0
220
0.0000000000000001
230
0.0
0
CIRCLE
5
8B
330
2F
100
AcDbEntity
8
0
62
0
6
ByLayer
370
-1
48
1.0
60
0
100
AcDbCircle
10
0.0800004672726409
20
2.46218053419457
30
0.312147381658595
40
0.012
39
0.0
210
-1.0
220
0.0000000000000001
230
0.0
0
CIRCLE
5
8C
330
2F
100
AcDbEntity
8
0
62
0
6
ByLayer
370
-1
48
1.0
60
0
100
AcDbCircle
10
-0.0700004672706034
20
2.53718053419457
30
-0.612153880482045
40
0.012
39
0.0
210
1.0
220
0.0000000000000003
230
0.0
0
CIRCLE
5
8D
330
2F
100
AcDbEntity
8
0
62
0
6
ByLayer
370
-1
48
1.0
60
0
100
AcDbCircle
10
-0.0800004672726407
20
2.46218053419457
30
-0.612153880482045
40
0.012
39
0.0
210
1.0
220
0.0000000000000003
230
0.0
0
CIRCLE
5
8E
330
2F
100
AcDbEntity
8
0
62
0
6
ByLayer
370
-1
48
1.0
60
0
100
AcDbCircle
10
-0.0700004672706034
20
2.53718053419457
30
-0.587153880481954
40
0.012
39
0.0
210
1.0
220
0.0000000000000003
230
0.0
0
CIRCLE
5
8F
330
2F
100
AcDbEntity
8
0
62
0
6
ByLayer
370
-1
48
1.0
60
0
100
AcDbCircle
10
-0.0800004672726406
20
2.46218053419457
30
-0.587153880481954
40
0.012
39
0.0
210
1.0
220
0.0000000000000003
230
0.0
0
CIRCLE
5
90
330
2F
100
AcDbEntity
8
0
62
0
6
ByLayer
370
-1
48
1.0
60
0
100
AcDbCircle
10
0.0746506310701611
20
-0.0800004561404247
30
-2.38724383596508
40
0.012
39
0.0
210
0.0
220
0.0000000000000002
230
-1.0
0
CIRCLE
5
91
330
2F
100
AcDbEntity
8
0
62
0
6
ByLayer
370
-1
48
1.0
60
0
100
AcDbCircle
10
0.149650631070434
20
-0.0700004575353717
30
-2.38724383596508
40
0.012
39
0.0
210
0.0
220
0.0000000000000002
230
-1.0
0
CIRCLE
5
92
330
2F
100
AcDbEntity
8
0
62
0
6
ByLayer
370
-1
48
1.0
60
0
100
AcDbCircle
10
0.224650631070252
20
-0.0700004575353717
30
-2.38724383596508
40
0.012
39
0.0
210
0.0
220
0.0000000000000002
230
-1.0
0
CIRCLE
5
93
330
2F
100
AcDbEntity
8
0
62
0
6
ByLayer
370
-1
48
1.0
60
0
100
AcDbCircle
10
0.749650631070116
20
-0.080000456140425
30
-2.38724383596508
40
0.012
39
0.0
210
0.0
220
0.0000000000000002
230
-1.0
0
CIRCLE
5
94
330
2F
100
AcDbEntity
8
0
62
0
6
ByLayer
370
-1
48
1.0
60
0
100
AcDbCircle
10
0.0746506310701611
20
-0.0800004561404248
30
-0.287756164034923
40
0.012
39
0.0
210
0.0
220
0.0000000000000002
230
-1.0
0
CIRCLE
5
95
330
2F
100
AcDbEntity
8
0
62
0
6
ByLayer
370
-1
48
1.0
60
0
100
AcDbCircle
10
0.149650631070434
20
-0.0700004575353718
30
-0.287756164034923
40
0.012
39
0.0
210
0.0
220
0.0000000000000002
230
-1.0
0
CIRCLE
5
96
330
2F
100
AcDbEntity
8
0
62
0
6
ByLayer
370
-1
48
1.0
60
0
100
AcDbCircle
10
0.224650631070252
20
-0.0700004575353718
30
-0.287756164034923
40
0.012
39
0.0
210
0.0
220
0.0000000000000002
230
-1.0
0
CIRCLE
5
97
330
2F
100
AcDbEntity
8
0
62
0
6
ByLayer
370
-1
48
1.0
60
0
100
AcDbCircle
10
0.749650631070116
20
-0.0800004561404251
30
-0.287756164034923
40
0.012
39
0.0
210
0.0
220
0.0000000000000002
230
-1.0
0
CIRCLE
5
98
330
2F
100
AcDbEntity
8
0
62
0
6
ByLayer
370
-1
48
1.0
60
0
100
AcDbCircle
10
0.0700004672706031
20
0.162819465805427
30
0.287147381658504
40
0.012
39
0.0
210
-1.0
220
0.0000000000000001
230
0.0
0
CIRCLE
5
99
330
2F
100
AcDbEntity
8
0
62
0
6
ByLayer
370
-1
48
1.0
60
0
100
AcDbCircle
10
0.0800004672726404
20
0.237819465805426
30
0.287147381658504
40
0.012
39
0.0
210
-1.0
220
0.0000000000000001
230
0.0
0
CIRCLE
5
9A
330
2F
100
AcDbEntity
8
0
62
0
6
ByLayer
370
-1
48
1.0
60
0
100
AcDbCircle
10
0.0700004672706031
20
0.162819465805427
30
0.312147381658595
40
0.012
39
0.0
210
-1.0
220
0.0000000000000001
230
0.0
0
CIRCLE
5
9B
330
2F
100
AcDbEntity
8
0
62
0
6
ByLayer
370
-1
48
1.0
60
0
100
AcDbCircle
10
0.0800004672726404
20
0.237819465805426
30
0.312147381658595
40
0.012
39
0.0
210
-1.0
220
0.0000000000000001
230
0.0
0
CIRCLE
5
9C
330
2F
100
AcDbEntity
8
0
62
0
6
ByLayer
370
-1
48
1.0
60
0
100
AcDbCircle
10
-0.0700004672706029
20
0.162819465805427
30
-0.612153880482045
40
0.012
39
0.0
210
1.0
220
0.0000000000000003
230
0.0
0
CIRCLE
5
9D
330
2F
100
AcDbEntity
8
0
62
0
6
ByLayer
370
-1
48
1.0
60
0
100
AcDbCircle
10
-0.0800004672726402
20
0.237819465805426
30
-0.612153880482045
40
0.012
39
0.0
210
1.0
220
0.0000000000000003
230
0.0
0
CIRCLE
5
9E
330
2F
100
AcDbEntity
8
0
62
0
6
ByLayer
370
-1
48
1.0
60
0
100
AcDbCircle
10
-0.0700004672706029
20
0.162819465805427
30
-0.587153880481954
40
0.012
39
0.0
210
1.0
220
0.0000000000000003
230
0.0
0
CIRCLE
5
9F
330
2F
100
AcDbEntity
8
0
62
0
6
ByLayer
370
-1
48
1.0
60
0
100
AcDbCircle
10
-0.0800004672726402
20
0.237819465805426
30
-0.587153880481954
40
0.012
39
0.0
210
1.0
220
0.0000000000000003
230
0.0
0
CIRCLE
5
A0
330
2F
100
AcDbEntity
8
0
62
0
6
ByLayer
370
-1
48
1.0
60
0
100
AcDbCircle
10
-0.0746506310701611
20
-0.0800004561404248
30
0.312756164034922
40
0.012
39
0.0
210
0.0
220
0.0
230
1.0
0
CIRCLE
5
A1
330
2F
100
AcDbEntity
8
0
62
0
6
ByLayer
370
-1
48
1.0
60
0
100
AcDbCircle
10
-0.149650631070434
20
-0.0700004575353719
30
0.312756164034922
40
0.012
39
0.0
210
0.0
220
0.0
230
1.0
0
CIRCLE
5
A2
330
2F
100
AcDbEntity
8
0
62
0
6
ByLayer
370
-1
48
1.0
60
0
100
AcDbCircle
10
-0.224650631070252
20
-0.0700004575353719
30
0.312756164034922
40
0.012
39
0.0
210
0.0
220
0.0
230
1.0
0
CIRCLE
5
A3
330
2F
100
AcDbEntity
8
0
62
0
6
ByLayer
370
-1
48
1.0
60
0
100
AcDbCircle
10
-0.749650631070116
20
-0.0800004561404253
30
0.312756164034922
40
0.012
39
0.0
210
0.0
220
0.0
230
1.0
0
CIRCLE
5
A4
330
2F
100
AcDbEntity
8
0
62
0
6
ByLayer
370
-1
48
1.0
60
0
100
AcDbCircle
10
-0.448557216266409
20
-0.0684484198791325
30
2.28670981767374
40
0.0075
39
0.1
210
0.0
220
0.0
230
1.0
0
CIRCLE
5
A5
330
2F
100
AcDbEntity
8
0
62
0
6
ByLayer
370
-1
48
1.0
60
0
100
AcDbCircle
10
0.0684484198791325
20
2.29410446050305
30
0.355994204418838
40
0.0075
39
0.1
210
-1.0
220
0.0
230
-0.0000000000000002
0
CIRCLE
5
A6
330
2F
100
AcDbEntity
8
0
62
0
6
ByLayer
370
-1
48
1.0
60
0
100
AcDbCircle
10
0.448557216266409
20
-0.0684484198791323
30
-0.413290182326257
40
0.0075
39
0.1
210
0.0
220
0.0000000000000001
230
-1.0
0
CIRCLE
5
A7
330
2F
100
AcDbEntity
8
0
62
0
6
ByLayer
370
-1
48
1.0
60
0
100
AcDbCircle
10
0.0684484198791323
20
0.405895539496945
30
0.355994204418839
40
0.0075
39
0.1
210
-1.0
220
0.0
230
0.0000000000000002
0
CIRCLE
5
A8
330
2F
100
AcDbEntity
8
0
62
0
6
ByLayer
370
-1
48
1.0
60
0
100
AcDbCircle
10
-0.0746506310701611
20
-0.0800004561404253
30
2.11224383596508
40
0.012
39
0.0
210
0.0
220
0.0
230
1.0
0
CIRCLE
5
A9
330
2F
100
AcDbEntity
8
0
62
0
6
ByLayer
370
-1
48
1.0
60
0
100
AcDbCircle
10
-0.149650631070434
20
-0.0700004575353723
30
2.11224383596508
40
0.012
39
0.0
210
0.0
220
0.0
230
1.0
0
CIRCLE
5
AA
330
2F
100
AcDbEntity
8
0
62
0
6
ByLayer
370
-1
48
1.0
60
0
100
AcDbCircle
10
-0.224650631070252
20
-0.0700004575353723
30
2.11224383596508
40
0.012
39
0.0
210
0.0
220
0.0
230
1.0
0
CIRCLE
5
AB
330
2F
100
AcDbEntity
8
0
62
0
6
ByLayer
370
-1
48
1.0
60
0
100
AcDbCircle
10
-0.749650631070116
20
-0.0800004561404256
30
2.11224383596508
40
0.012
39
0.0
210
0.0
220
0.0
230
1.0
0
CIRCLE
5
AC
330
2F
100
AcDbEntity
8
0
62
0
6
ByLayer
370
-1
48
1.0
60
0
100
AcDbCircle
10
0.0746506310701611
20
-0.0800004561404247
30
-2.08724383596508
40
0.012
39
0.0
210
0.0
220
0.0000000000000002
230
-1.0
0
CIRCLE
5
AD
330
2F
100
AcDbEntity
8
0
62
0
6
ByLayer
370
-1
48
1.0
60
0
100
AcDbCircle
10
0.149650631070434
20
-0.0700004575353718
30
-2.08724383596508
40
0.012
39
0.0
210
0.0
220
0.0000000000000002
230
-1.0
0
CIRCLE
5
AE
330
2F
100
AcDbEntity
8
0
62
0
6
ByLayer
370
-1
48
1.0
60
0
100
AcDbCircle
10
0.224650631070252
20
-0.0700004575353718
30
-2.08724383596508
40
0.012
39
0.0
210
0.0
220
0.0000000000000002
230
-1.0
0
CIRCLE
5
AF
330
2F
100
AcDbEntity
8
0
62
0
6
ByLayer
370
-1
48
1.0
60
0
100
AcDbCircle
10
0.749650631070116
20
-0.0800004561404251
30
-2.08724383596508
40
0.012
39
0.0
210
0.0
220
0.0000000000000002
230
-1.0
0
CIRCLE
5
B0
330
2F
100
AcDbEntity
8
0
62
0
6
ByLayer
370
-1
48
1.0
60
0
100
AcDbCircle
10
-0.0746506310701611
20
-0.0800004561404252
30
1.81224383596508
40
0.012
39
0.0
210
0.0
220
0.0
230
1.0
0
CIRCLE
5
B1
330
2F
100
AcDbEntity
8
0
62
0
6
ByLayer
370
-1
48
1.0
60
0
100
AcDbCircle
10
-0.149650631070434
20
-0.0700004575353722
30
1.81224383596508
40
0.012
39
0.0
210
0.0
220
0.0
230
1.0
0
CIRCLE
5
B2
330
2F
100
AcDbEntity
8
0
62
0
6
ByLayer
370
-1
48
1.0
60
0
100
AcDbCircle
10
-0.224650631070252
20
-0.0700004575353722
30
1.81224383596508
40
0.012
39
0.0
210
0.0
220
0.0
230
1.0
0
CIRCLE
5
B3
330
2F
100
AcDbEntity
8
0
62
0
6
ByLayer
370
-1
48
1.0
60
0
100
AcDbCircle
10
-0.749650631070116
20
-0.0800004561404255
30
1.81224383596508
40
0.012
39
0.0
210
0.0
220
0.0
230
1.0
0
CIRCLE
5
B4
330
2F
100
AcDbEntity
8
0
62
0
6
ByLayer
370
-1
48
1.0
60
0
100
AcDbCircle
10
0.0746506310701611
20
-0.0800004561404247
30
-1.78724383596508
40
0.012
39
0.0
210
0.0
220
0.0000000000000002
230
-1.0
0
CIRCLE
5
B5
330
2F
100
AcDbEntity
8
0
62
0
6
ByLayer
370
-1
48
1.0
60
0
100
AcDbCircle
10
0.149650631070434
20
-0.0700004575353718
30
-1.78724383596508
40
0.012
39
0.0
210
0.0
220
0.0000000000000002
230
-1.0
0
CIRCLE
5
B6
330
2F
100
AcDbEntity
8
0
62
0
6
ByLayer
370
-1
48
1.0
60
0
100
AcDbCircle
10
0.224650631070252
20
-0.0700004575353718
30
-1.78724383596508
40
0.012
39
0.0
210
0.0
220
0.0000000000000002
230
-1.0
0
CIRCLE
5
B7
330
2F
100
AcDbEntity
8
0
62
0
6
ByLayer
370
-1
48
1.0
60
0
100
AcDbCircle
10
0.749650631070116
20
-0.0800004561404251
30
-1.78724383596508
40
0.012
39
0.0
210
0.0
220
0.0000000000000002
230
-1.0
0
CIRCLE
5
B8
330
2F
100
AcDbEntity
8
0
62
0
6
ByLayer
370
-1
48
1.0
60
0
100
AcDbCircle
10
-0.0746506310701611
20
-0.0800004561404252
30
1.51224383596507
40
0.012
39
0.0
210
0.0
220
0.0
230
1.0
0
CIRCLE
5
B9
330
2F
100
AcDbEntity
8
0
62
0
6
ByLayer
370
-1
48
1.0
60
0
100
AcDbCircle
10
0.0746506310701611
20
-0.0800004561404248
30
-1.48724383596508
40
0.012
39
0.0
210
0.0
220
0.0000000000000002
230
-1.0
0
CIRCLE
5
BA
330
2F
100
AcDbEntity
8
0
62
0
6
ByLayer
370
-1
48
1.0
60
0
100
AcDbCircle
10
0.0746506310701611
20
-0.080000456140425
30
-0.587756164034923
40
0.012
39
0.0
210
0.0
220
0.0000000000000001
230
-1.0
0
CIRCLE
5
BB
330
2F
100
AcDbEntity
8
0
62
0
6
ByLayer
370
-1
48
1.0
60
0
100
AcDbCircle
10
0.149650631070434
20
-0.070000457535372
30
-0.587756164034923
40
0.012
39
0.0
210
0.0
220
0.0000000000000001
230
-1.0
0
CIRCLE
5
BC
330
2F
100
AcDbEntity
8
0
62
0
6
ByLayer
370
-1
48
1.0
60
0
100
AcDbCircle
10
0.224650631070252
20
-0.070000457535372
30
-0.587756164034923
40
0.012
39
0.0
210
0.0
220
0.0000000000000001
230
-1.0
0
CIRCLE
5
BD
330
2F
100
AcDbEntity
8
0
62
0
6
ByLayer
370
-1
48
1.0
60
0
100
AcDbCircle
10
0.749650631070116
20
-0.0800004561404253
30
-0.587756164034923
40
0.012
39
0.0
210
0.0
220
0.0000000000000001
230
-1.0
0
CIRCLE
5
BE
330
2F
100
AcDbEntity
8
0
62
0
6
ByLayer
370
-1
48
1.0
60
0
100
AcDbCircle
10
-0.0746506310701611
20
-0.0800004561404251
30
0.612756164034922
40
0.012
39
0.0
210
0.0
220
0.0
230
1.0
0
CIRCLE
5
BF
330
2F
100
AcDbEntity
8
0
62
0
6
ByLayer
370
-1
48
1.0
60
0
100
AcDbCircle
10
-0.149650631070434
20
-0.0700004575353721
30
0.612756164034922
40
0.012
39
0.0
210
0.0
220
0.0
230
1.0
0
CIRCLE
5
C0
330
2F
100
AcDbEntity
8
0
62
0
6
ByLayer
370
-1
48
1.0
60
0
100
AcDbCircle
10
-0.224650631070252
20
-0.0700004575353721
30
0.612756164034922
40
0.012
39
0.0
210
0.0
220
0.0
230
1.0
0
CIRCLE
5
C1
330
2F
100
AcDbEntity
8
0
62
0
6
ByLayer
370
-1
48
1.0
60
0
100
AcDbCircle
10
-0.749650631070116
20
-0.0800004561404254
30
0.612756164034922
40
0.012
39
0.0
210
0.0
220
0.0
230
1.0
0
CIRCLE
5
C2
330
2F
100
AcDbEntity
8
0
62
0
6
ByLayer
370
-1
48
1.0
60
0
100
AcDbCircle
10
0.0746506310701611
20
-0.080000456140425
30
-0.887756164034923
40
0.012
39
0.0
210
0.0
220
0.0000000000000001
230
-1.0
0
CIRCLE
5
C3
330
2F
100
AcDbEntity
8
0
62
0
6
ByLayer
370
-1
48
1.0
60
0
100
AcDbCircle
10
0.149650631070434
20
-0.070000457535372
30
-0.887756164034923
40
0.012
39
0.0
210
0.0
220
0.0000000000000001
230
-1.0
0
CIRCLE
5
C4
330
2F
100
AcDbEntity
8
0
62
0
6
ByLayer
370
-1
48
1.0
60
0
100
AcDbCircle
10
0.224650631070252
20
-0.070000457535372
30
-0.887756164034923
40
0.012
39
0.0
210
0.0
220
0.0000000000000001
230
-1.0
0
CIRCLE
5
C5
330
2F
100
AcDbEntity
8
0
62
0
6
ByLayer
370
-1
48
1.0
60
0
100
AcDbCircle
10
0.749650631070116
20
-0.0800004561404253
30
-0.887756164034923
40
0.012
39
0.0
210
0.0
220
0.0000000000000001
230
-1.0
0
CIRCLE
5
C6
330
2F
100
AcDbEntity
8
0
62
0
6
ByLayer
370
-1
48
1.0
60
0
100
AcDbCircle
10
-0.0746506310701611
20
-0.0800004561404251
30
0.912756164034922
40
0.012
39
0.0
210
0.0
220
0.0
230
1.0
0
CIRCLE
5
C7
330
2F
100
AcDbEntity
8
0
62
0
6
ByLayer
370
-1
48
1.0
60
0
100
AcDbCircle
10
-0.149650631070434
20
-0.0700004575353721
30
0.912756164034922
40
0.012
39
0.0
210
0.0
220
0.0
230
1.0
0
CIRCLE
5
C8
330
2F
100
AcDbEntity
8
0
62
0
6
ByLayer
370
-1
48
1.0
60
0
100
AcDbCircle
10
-0.224650631070252
20
-0.0700004575353721
30
0.912756164034922
40
0.012
39
0.0
210
0.0
220
0.0
230
1.0
0
CIRCLE
5
C9
330
2F
100
AcDbEntity
8
0
62
0
6
ByLayer
370
-1
48
1.0
60
0
100
AcDbCircle
10
-0.749650631070116
20
-0.0800004561404254
30
0.912756164034922
40
0.012
39
0.0
210
0.0
220
0.0
230
1.0
0
CIRCLE
5
CA
330
2F
100
AcDbEntity
8
0
62
0
6
ByLayer
370
-1
48
1.0
60
0
100
AcDbCircle
10
0.0746506310701611
20
-0.080000456140425
30
-1.18775616403492
40
0.012
39
0.0
210
0.0
220
0.0000000000000001
230
-1.0
0
CIRCLE
5
CB
330
2F
100
AcDbEntity
8
0
62
0
6
ByLayer
370
-1
48
1.0
60
0
100
AcDbCircle
10
-0.0746506310701611
20
-0.0800004561404252
30
1.21275616403492
40
0.012
39
0.0
210
0.0
220
0.0
230
1.0
0
CIRCLE
5
CC
330
2F
100
AcDbEntity
8
0
62
0
6
ByLayer
370
-1
48
1.0
60
0
100
AcDbCircle
10
0.0746506310701611
20
-0.0800004561404248
30
-0.587756164034923
40
0.012
39
0.0
210
0.0
220
0.0000000000000002
230
-1.0
0
CIRCLE
5
CD
330
2F
100
AcDbEntity
8
0
62
0
6
ByLayer
370
-1
48
1.0
60
0
100
AcDbCircle
10
-0.0746506310701611
20
-0.080000456140425
30
0.612756164034922
40
0.012
39
0.0
210
0.0
220
0.0
230
1.0
0
POINT
5
CE
330
2F
100
AcDbEntity
8
0
62
0
6
ByLayer
370
-1
48
1.0
60
0
100
AcDbPoint
10
-0.0746506310701611
20
-0.0800004561404253
30
2.41224383596508
39
0.0
210
0.0
220
0.0
230
1.0
50
180.0
0
POINT
5
CF
330
2F
100
AcDbEntity
8
0
62
0
6
ByLayer
370
-1
48
1.0
60
0
100
AcDbPoint
10
-0.149650631070434
20
-0.0700004575353723
30
2.41224383596508
39
0.0
210
0.0
220
0.0
230
1.0
50
180.0
0
POINT
5
D0
330
2F
100
AcDbEntity
8
0
62
0
6
ByLayer
370
-1
48
1.0
60
0
100
AcDbPoint
10
-0.224650631070252
20
-0.0700004575353723
30
2.41224383596508
39
0.0
210
0.0
220
0.0
230
1.0
50
180.0
0
POINT
5
D1
330
2F
100
AcDbEntity
8
0
62
0
6
ByLayer
370
-1
48
1.0
60
0
100
AcDbPoint
10
-0.312147381658595
20
-0.0700004672706036
30
2.53718053419457
39
0.0
210
0.0
220
0.0
230
1.0
50
180.0
0
POINT
5
D2
330
2F
100
AcDbEntity
8
0
62
0
6
ByLayer
370
-1
48
1.0
60
0
100
AcDbPoint
10
-0.312147381658595
20
-0.0800004672726409
30
2.46218053419457
39
0.0
210
0.0
220
0.0
230
1.0
50
180.0
0
POINT
5
D3
330
2F
100
AcDbEntity
8
0
62
0
6
ByLayer
370
-1
48
1.0
60
0
100
AcDbPoint
10
-0.612153880482045
20
-0.0700004672706036
30
2.53718053419457
39
0.0
210
0.0
220
0.0
230
1.0
50
180.0
0
POINT
5
D4
330
2F
100
AcDbEntity
8
0
62
0
6
ByLayer
370
-1
48
1.0
60
0
100
AcDbPoint
10
-0.612153880482045
20
-0.0800004672726409
30
2.46218053419457
39
0.0
210
0.0
220
0.0
230
1.0
50
180.0
0
POINT
5
D5
330
2F
100
AcDbEntity
8
0
62
0
6
ByLayer
370
-1
48
1.0
60
0
100
AcDbPoint
10
-0.749650631070116
20
-0.0800004561404256
30
2.41224383596508
39
0.0
210
0.0
220
0.0
230
1.0
50
180.0
0
POINT
5
D6
330
2F
100
AcDbEntity
8
0
62
0
6
ByLayer
370
-1
48
1.0
60
0
100
AcDbPoint
10
-0.149650631070434
20
-0.0700004575353723
30
2.11224383596508
39
0.0
210
0.0
220
0.0
230
1.0
50
180.0
0
POINT
5
D7
330
2F
100
AcDbEntity
8
0
62
0
6
ByLayer
370
-1
48
1.0
60
0
100
AcDbPoint
10
-0.224650631070252
20
-0.0700004575353723
30
2.11224383596508
39
0.0
210
0.0
220
0.0
230
1.0
50
180.0
0
POINT
5
D8
330
2F
100
AcDbEntity
8
0
62
0
6
ByLayer
370
-1
48
1.0
60
0
100
AcDbPoint
10
-0.749650631070116
20
-0.0800004561404256
30
2.11224383596508
39
0.0
210
0.0
220
0.0
230
1.0
50
180.0
0
POINT
5
D9
330
2F
100
AcDbEntity
8
0
62
0
6
ByLayer
370
-1
48
1.0
60
0
100
AcDbPoint
10
-0.0746506310701611
20
-0.0800004561404252
30
1.81224383596508
39
0.0
210
0.0
220
0.0
230
1.0
50
180.0
0
POINT
5
DA
330
2F
100
AcDbEntity
8
0
62
0
6
ByLayer
370
-1
48
1.0
60
0
100
AcDbPoint
10
-0.149650631070434
20
-0.0700004575353722
30
1.81224383596508
39
0.0
210
0.0
220
0.0
230
1.0
50
180.0
0
POINT
5
DB
330
2F
100
AcDbEntity
8
0
62
0
6
ByLayer
370
-1
48
1.0
60
0
100
AcDbPoint
10
-0.224650631070252
20
-0.0700004575353722
30
1.81224383596508
39
0.0
210
0.0
220
0.0
230
1.0
50
180.0
0
POINT
5
DC
330
2F
100
AcDbEntity
8
0
62
0
6
ByLayer
370
-1
48
1.0
60
0
100
AcDbPoint
10
-0.0746506310701611
20
-0.0800004561404252
30
1.51224383596507
39
0.0
210
0.0
220
0.0
230
1.0
50
180.0
0
POINT
5
DD
330
2F
100
AcDbEntity
8
0
62
0
6
ByLayer
370
-1
48
1.0
60
0
100
AcDbPoint
10
-0.749650631070116
20
-0.0800004561404255
30
1.81224383596508
39
0.0
210
0.0
220
0.0
230
1.0
50
180.0
0
POINT
5
DE
330
2F
100
AcDbEntity
8
0
62
0
6
ByLayer
370
-1
48
1.0
60
0
100
AcDbPoint
10
-0.0746506310701611
20
-0.0800004561404252
30
1.21275616403492
39
0.0
210
0.0
220
0.0
230
1.0
50
180.0
0
POINT
5
DF
330
2F
100
AcDbEntity
8
0
62
0
6
ByLayer
370
-1
48
1.0
60
0
100
AcDbPoint
10
-0.0746506310701611
20
-0.0800004561404251
30
0.912756164034922
39
0.0
210
0.0
220
0.0
230
1.0
50
180.0
0
POINT
5
E0
330
2F
100
AcDbEntity
8
0
62
0
6
ByLayer
370
-1
48
1.0
60
0
100
AcDbPoint
10
-0.149650631070434
20
-0.0700004575353721
30
0.912756164034922
39
0.0
210
0.0
220
0.0
230
1.0
50
180.0
0
POINT
5
E1
330
2F
100
AcDbEntity
8
0
62
0
6
ByLayer
370
-1
48
1.0
60
0
100
AcDbPoint
10
-0.224650631070252
20
-0.0700004575353721
30
0.912756164034922
39
0.0
210
0.0
220
0.0
230
1.0
50
180.0
0
POINT
5
E2
330
2F
100
AcDbEntity
8
0
62
0
6
ByLayer
370
-1
48
1.0
60
0
100
AcDbPoint
10
-0.749650631070116
20
-0.0800004561404254
30
0.912756164034922
39
0.0
210
0.0
220
0.0
230
1.0
50
180.0
0
POINT
5
E3
330
2F
100
AcDbEntity
8
0
62
0
6
ByLayer
370
-1
48
1.0
60
0
100
AcDbPoint
10
-0.0746506310701611
20
-0.080000456140425
30
0.612756164034922
39
0.0
210
0.0
220
0.0
230
1.0
50
180.0
0
POINT
5
E4
330
2F
100
AcDbEntity
8
0
62
0
6
ByLayer
370
-1
48
1.0
60
0
100
AcDbPoint
10
-0.149650631070434
20
-0.0700004575353721
30
0.612756164034922
39
0.0
210
0.0
220
0.0
230
1.0
50
180.0
0
POINT
5
E5
330
2F
100
AcDbEntity
8
0
62
0
6
ByLayer
370
-1
48
1.0
60
0
100
AcDbPoint
10
-0.212650631070252
20
-0.0700004575353721
30
0.612756164034922
39
0.0
210
0.0
220
0.0
230
1.0
50
180.0
0
POINT
5
E6
330
2F
100
AcDbEntity
8
0
62
0
6
ByLayer
370
-1
48
1.0
60
0
100
AcDbPoint
10
-0.749650631070116
20
-0.0800004561404254
30
0.612756164034922
39
0.0
210
0.0
220
0.0
230
1.0
50
180.0
0
POINT
5
E7
330
2F
100
AcDbEntity
8
0
62
0
6
ByLayer
370
-1
48
1.0
60
0
100
AcDbPoint
10
-0.0746506310701611
20
-0.0800004561404248
30
0.312756164034922
39
0.0
210
0.0
220
0.0
230
1.0
50
180.0
0
POINT
5
E8
330
2F
100
AcDbEntity
8
0
62
0
6
ByLayer
370
-1
48
1.0
60
0
100
AcDbPoint
10
-0.149650631070434
20
-0.0700004575353719
30
0.312756164034922
39
0.0
210
0.0
220
0.0
230
1.0
50
180.0
0
POINT
5
E9
330
2F
100
AcDbEntity
8
0
62
0
6
ByLayer
370
-1
48
1.0
60
0
100
AcDbPoint
10
-0.224650631070252
20
-0.0700004575353719
30
0.312756164034922
39
0.0
210
0.0
220
0.0
230
1.0
50
180.0
0
POINT
5
EA
330
2F
100
AcDbEntity
8
0
62
0
6
ByLayer
370
-1
48
1.0
60
0
100
AcDbPoint
10
-0.749650631070116
20
-0.0800004561404253
30
0.312756164034922
39
0.0
210
0.0
220
0.0
230
1.0
50
180.0
0
POINT
5
EB
330
2F
100
AcDbEntity
8
0
62
0
6
ByLayer
370
-1
48
1.0
60
0
100
AcDbPoint
10
-0.312147381658595
20
-0.0800004672726404
30
0.237819465805426
39
0.0
210
0.0
220
0.0
230
1.0
50
180.0
0
POINT
5
EC
330
2F
100
AcDbEntity
8
0
62
0
6
ByLayer
370
-1
48
1.0
60
0
100
AcDbPoint
10
-0.312147381658595
20
-0.0700004672706031
30
0.162819465805427
39
0.0
210
0.0
220
0.0
230
1.0
50
180.0
0
POINT
5
ED
330
2F
100
AcDbEntity
8
0
62
0
6
ByLayer
370
-1
48
1.0
60
0
100
AcDbPoint
10
-0.612153880482045
20
-0.0800004672726405
30
0.237819465805426
39
0.0
210
0.0
220
0.0
230
1.0
50
180.0
0
POINT
5
EE
330
2F
100
AcDbEntity
8
0
62
0
6
ByLayer
370
-1
48
1.0
60
0
100
AcDbPoint
10
-0.612153880482045
20
-0.0700004672706032
30
0.162819465805427
39
0.0
210
0.0
220
0.0
230
1.0
50
180.0
0
POINT
5
EF
330
2F
100
AcDbEntity
8
0
62
0
6
ByLayer
370
-1
48
1.0
60
0
100
AcDbPoint
10
-0.0422182083039113
20
-0.0165000042834439
30
2.13082013927873
39
0.0
210
0.0000000000000003
220
1.0
230
0.0
50
360.0
0
POINT
5
F0
330
2F
100
AcDbEntity
8
0
62
0
6
ByLayer
370
-1
48
1.0
60
0
100
AcDbPoint
10
-0.857083053836638
20
-0.0165000042834436
30
2.13082013927873
39
0.0
210
0.0000000000000003
220
1.0
230
0.0
50
180.0
0
POINT
5
F1
330
2F
100
AcDbEntity
8
0
62
0
6
ByLayer
370
-1
48
1.0
60
0
100
AcDbPoint
10
-0.0422182083039113
20
-0.0165000042834438
30
0.569179860721272
39
0.0
210
0.0000000000000003
220
1.0
230
0.0
50
360.0
0
POINT
5
F2
330
2F
100
AcDbEntity
8
0
62
0
6
ByLayer
370
-1
48
1.0
60
0
100
AcDbPoint
10
-0.857083053836638
20
-0.0165000042834435
30
0.569179860721272
39
0.0
210
0.0000000000000003
220
1.0
230
0.0
50
180.0
0
ENDBLK
5
30
330
2F
100
AcDbEntity
8
0
100
AcDbBlockEnd
0
ENDSEC
0
SECTION
2
ENTITIES
0
INSERT
5
2E
330
1C
100
AcDbEntity
67
0
8
ATK_Panel
62
256
6
ByLayer
370
-1
48
1.0
60
0
100
AcDbBlockReference
2
ATK_Panel27x90
10
0.6
20
3.0
30
0.0
41
1.0
42
1.0
43
1.0
50
180.0
210
0.0
220
0.0
230
1.0
0
INSERT
5
F4
330
1C
100
AcDbEntity
67
0
8
ATK_Panel
62
256
6
ByLayer
370
-1
48
1.0
60
0
100
AcDbBlockReference
2
ATK_Panel27x90
10
1.5
20
3.0
30
0.0
41
1.0
42
1.0
43
1.0
50
180.0
210
0.0
220
0.0
230
1.0
0
INSERT
5
F5
330
1C
100
AcDbEntity
67
0
8
ATK_Panel
62
256
6
ByLayer
370
-1
48
1.0
60
0
100
AcDbBlockReference
2
ATK_Panel27x90
10
2.4
20
3.0
30
0.0
41
1.0
42
1.0
43
1.0
50
180.0
210
0.0
220
0.0
230
1.0
0
INSERT
5
F6
330
1C
100
AcDbEntity
67
0
8
ATK_Panel
62
256
6
ByLayer
370
-1
48
1.0
60
0
100
AcDbBlockReference
2
ATK_Panel27x90
10
1.5
20
3.3
30
0.0
41
1.0
42
1.0
43
1.0
50
0.0
210
0.0
220
0.0
230
1.0
0
INSERT
5
F7
330
1C
100
AcDbEntity
67
0
8
ATK_Panel
62
256
6
ByLayer
370
-1
48
1.0
60
0
100
AcDbBlockReference
2
ATK_Panel27x90
10
2.4
20
3.3
30
0.0
41
1.0
42
1.0
43
1.0
50
0.0
210
0.0
220
0.0
230
1.0
0
INSERT
5
F8
330
1C
100
AcDbEntity
67
0
8
ATK_Panel
62
256
6
ByLayer
370
-1
48
1.0
60
0
100
AcDbBlockReference
2
ATK_Panel27x90
10
3.3
20
3.3
30
0.0
41
1.0
42
1.0
43
1.0
50
0.0
210
0.0
220
0.0
230
1.0
0
VIEWPORT
5
26
330
22
100
AcDbEntity
67
1
8
0
62
256
6
ByLayer
370
-1
48
1.0
60
0
100
AcDbViewport
10
0.0
20
0.0
30
0.0
40
297.0
41
210.0
68
1
69
1
12
50.0
22
100.0
13
0.0
23
0.0
14
10.0
24
10.0
15
10.0
25
10.0
16
0.0
26
0.0
36
1.0
17
0.0
27
0.0
37
0.0
42
50.0
43
0.0
44
0.0
45
250.0
50
0.0
51
0.0
72
1000
90
819232
110
0.0
120
0.0
130
0.0
111
1.0
121
0.0
131
0.0
112
0.0
122
1.0
132
0.0
0
ENDSEC
0
SECTION
2
OBJECTS
0
DICTIONARY
5
FF
330
0
100
AcDbDictionary
280
1
281
1
3
ACAD_GROUP
350
12
3
ACAD_LAYOUT
350
25
3
ACAD_DGNDEFINITIONS
350
F
3
ACAD_DWFDEFINITIONS
350
10
3
ACAD_PDFDEFINITIONS
350
11
3
ACAD_MLINESTYLE
350
B
3
ACAD_IMAGE_DICT
350
E
3
ACAD_IMAGE_VARS
350
21
0
DICTIONARY
5
12
330
FF
100
AcDbDictionary
280
1
281
1
0
DICTIONARY
5
25
330
FF
100
AcDbDictionary
280
1
281
1
3
Model
350
20
3
Layout1
350
27
0
DICTIONARY
5
F
330
FF
100
AcDbDictionary
280
1
281
1
0
DICTIONARY
5
10
330
FF
100
AcDbDictionary
280
1
281
1
0
DICTIONARY
5
11
330
FF
100
AcDbDictionary
280
1
281
1
0
DICTIONARY
5
B
330
FF
100
AcDbDictionary
280
1
281
1
3
Standard
350
1B
0
DICTIONARY
5
E
330
FF
100
AcDbDictionary
280
1
281
1
0
DICTIONARY
5
6
330
5
100
AcDbDictionary
280
1
281
1
3
ACAD_LAYERSTATES
360
100
0
DICTIONARY
5
100
330
6
100
AcDbDictionary
280
1
281
1
0
LAYOUT
5
20
330
25
100
AcDbPlotSettings
1

2
none_device
4
ISO_A4_(210.00_x_297.00_MM)
6

40
7.5
41
20.0
42
7.5
43
20.0
44
210.0
45
297.0
46
0.0
47
0.0
48
0.0
49
0.0
140
0.0
141
0.0
142
1.0
143
1.0
70
11952
72
1
73
1
74
1
7

75
0
76
0
77
2
78
300
147
1.0
148
0.0
149
0.0
100
AcDbLayout
1
Model
71
0
10
-20.0
20
-7.5
11
277.0
21
202.5
12
0.0
22
0.0
32
0.0
14
25.7
24
19.5
34
0.0
15
231.3
25
175.5
35
0.0
146
0.0
13
0.0
23
0.0
33
0.0
16
1.0
26
0.0
36
0.0
17
0.0
27
1.0
37
0.0
76
0
330
1C
0
LAYOUT
5
27
330
25
100
AcDbPlotSettings
1

2
none_device
4
ISO_A4_(210.00_x_297.00_MM)
6

40
7.5
41
20.0
42
7.5
43
20.0
44
210.0
45
297.0
46
0.0
47
0.0
48
0.0
49
0.0
140
0.0
141
0.0
142
1.0
143
1.0
70
688
72
1
73
1
74
1
7

75
0
76
0
77
2
78
300
147
1.0
148
0.0
149
0.0
100
AcDbLayout
1
Layout1
71
1
10
-20.0
20
-7.5
11
277.0
21
202.5
12
0.0
22
0.0
32
0.0
14
25.7
24
19.5
34
0.0
15
231.3
25
175.5
35
0.0
146
0.0
13
0.0
23
0.0
33
0.0
16
1.0
26
0.0
36
0.0
17
0.0
27
1.0
37
0.0
76
0
330
22
0
MLINESTYLE
5
1B
330
B
100
AcDbMlineStyle
2
Standard
70
0
3

62
256
51
90.0
52
90.0
71
2
49
0.5
62
256
6
ByLayer
49
-0.5
62
256
6
ByLayer
0
RASTERVARIABLES
5
21
330
E
100
AcDbRasterVariables
90
0
70
1
71
1
72
0
0
ENDSEC
0
EOF
