999
DXF file generated by netDxf https://github.com/haplokuon/netDxf, Copyright(C) Daniel Carvajal, Licensed under MIT
0
SECTION
2
HEADER
9
$ACADVER
1
AC1015
9
$DWGCODEPAGE
3
ANSI_1252
9
$HANDSEED
5
100
9
$ANGBASE
50
0.0
9
$ANGDIR
70
0
9
$ATTMODE
70
1
9
$AUNITS
70
0
9
$AUPREC
70
0
9
$CECOLOR
62
256
9
$CELTSCALE
40
1.0
9
$CELTYPE
6
ByLayer
9
$CELWEIGHT
370
-1
9
$CLAYER
8
0
9
$CMLJUST
70
0
9
$CMLSCALE
40
20.0
9
$CMLSTYLE
2
Standard
9
$DIMSTYLE
2
Standard
9
$TEXTSIZE
40
2.5
9
$TEXTSTYLE
7
Standard
9
$LUNITS
70
2
9
$LUPREC
70
4
9
$MIRRTEXT
70
0
9
$EXTNAMES
290
1
9
$INSBASE
10
0.0
20
0.0
30
0.0
9
$INSUNITS
70
0
9
$LTSCALE
40
1.0
9
$LWDISPLAY
290
0
9
$PDMODE
70
0
9
$PDSIZE
40
0.0
9
$PLINEGEN
70
0
9
$PSLTSCALE
70
1
9
$SPLINESEGS
70
8
9
$SURFU
70
6
9
$SURFV
70
6
9
$TDCREATE
40
2460626.39972895
9
$TDUCREATE
40
2460626.35806228
9
$TDUPDATE
40
2460626.39972895
9
$TDUUPDATE
40
2460626.35806228
9
$TDINDWG
40
0.0
9
$UCSORG
10
0.0
20
0.0
30
0.0
9
$UCSXDIR
10
1.0
20
0.0
30
0.0
9
$UCSYDIR
10
0.0
20
1.0
30
0.0
9
$DIMADEC
70
0
9
$DIMALT
70
0
9
$DIMALTD
70
2
9
$DIMALTF
40
25.4
9
$DIMALTRND
40
0.0
9
$DIMALTTD
70
2
9
$DIMALTTZ
70
0
9
$DIMALTU
70
2
9
$DIMALTZ
70
0
9
$DIMAPOST
1
[]
9
$DIMATFIT
70
3
9
$DIMAUNIT
70
0
9
$DIMASZ
40
0.18
9
$DIMAZIN
70
0
9
$DIMSAH
70
0
9
$DIMBLK
1

9
$DIMLDRBLK
1

9
$DIMCEN
40
0.09
9
$DIMCLRD
70
0
9
$DIMCLRE
70
0
9
$DIMCLRT
70
0
9
$DIMDEC
70
4
9
$DIMDLE
40
0.0
9
$DIMDLI
40
0.38
9
$DIMDSEP
70
46
9
$DIMEXE
40
0.18
9
$DIMEXO
40
0.0625
9
$DIMFXLON
70
0
9
$DIMFXL
40
1.0
9
$DIMGAP
40
0.09
9
$DIMJUST
70
0
9
$DIMLFAC
40
1.0
9
$DIMLUNIT
70
2
9
$DIMLWD
70
-2
9
$DIMLWE
70
-2
9
$DIMPOST
1
<>
9
$DIMRND
40
0.0
9
$DIMSCALE
40
1.0
9
$DIMSD1
70
0
9
$DIMSD2
70
0
9
$DIMSE1
70
0
9
$DIMSE2
70
0
9
$DIMSOXD
70
0
9
$DIMTAD
70
0
9
$DIMTDEC
70
4
9
$DIMTFAC
40
1.0
9
$DIMTIH
70
0
9
$DIMTIX
70
0
9
$DIMTM
40
0.0
9
$DIMTMOVE
70
0
9
$DIMTOFL
70
0
9
$DIMTOH
70
0
9
$DIMTOL
70
0
9
$DIMLIM
70
0
9
$DIMTOLJ
70
1
9
$DIMTP
40
0.0
9
$DIMTXT
40
0.18
9
$DIMTXTDIRECTION
70
0
9
$DIMTZIN
70
0
9
$DIMZIN
70
0
9
$DIMFRAC
70
0
9
$DIMLTYPE
6
ByBlock
9
$DIMLTEX1
6
ByBlock
9
$DIMLTEX2
6
ByBlock
0
ENDSEC
0
SECTION
2
CLASSES
0
CLASS
1
RASTERVARIABLES
2
AcDbRasterVariables
3
ISM
90
0
280
0
281
0
0
ENDSEC
0
SECTION
2
TABLES
0
TABLE
2
APPID
5
4
330
0
100
AcDbSymbolTable
70
5
0
APPID
5
19
330
4
100
AcDbSymbolTableRecord
100
AcDbRegAppTableRecord
2
ACAD
70
0
0
APPID
5
28
330
4
100
AcDbSymbolTableRecord
100
AcDbRegAppTableRecord
2
AcCmTransparency
70
0
0
APPID
5
29
330
4
100
AcDbSymbolTableRecord
100
AcDbRegAppTableRecord
2
AcAecLayerStandard
70
0
0
APPID
5
2A
330
4
100
AcDbSymbolTableRecord
100
AcDbRegAppTableRecord
2
GradientColor1ACI
70
0
0
APPID
5
2B
330
4
100
AcDbSymbolTableRecord
100
AcDbRegAppTableRecord
2
GradientColor2ACI
70
0
0
ENDTAB
0
TABLE
2
VPORT
5
1
330
0
100
AcDbSymbolTable
70
1
0
VPORT
5
2
330
1
100
AcDbSymbolTableRecord
100
AcDbViewportTableRecord
2
*Active
70
0
10
0.0
20
0.0
11
1.0
21
1.0
12
0.0
22
0.0
13
0.0
23
0.0
14
0.5
24
0.5
15
10.0
25
10.0
16
0.0
26
0.0
36
1.0
17
0.0
27
0.0
37
0.0
40
10.0
41
1.0
75
0
76
1
0
ENDTAB
0
TABLE
2
LTYPE
5
7
330
0
100
AcDbSymbolTable
70
3
0
LTYPE
5
15
330
7
100
AcDbSymbolTableRecord
100
AcDbLinetypeTableRecord
2
Continuous
70
0
3
Solid line
72
65
73
0
40
0.0
0
LTYPE
5
16
330
7
100
AcDbSymbolTableRecord
100
AcDbLinetypeTableRecord
2
ByLayer
70
0
3

72
65
73
0
40
0.0
0
LTYPE
5
17
330
7
100
AcDbSymbolTableRecord
100
AcDbLinetypeTableRecord
2
ByBlock
70
0
3

72
65
73
0
40
0.0
0
ENDTAB
0
TABLE
2
LAYER
5
5
102
{ACAD_XDICTIONARY
360
6
102
}
330
0
100
AcDbSymbolTable
70
2
0
LAYER
5
14
330
5
100
AcDbSymbolTableRecord
100
AcDbLayerTableRecord
2
0
70
0
62
7
6
Continuous
290
1
370
-3
390
0
0
LAYER
5
FC
330
5
100
AcDbSymbolTableRecord
100
AcDbLayerTableRecord
2
ATK_Panel
70
0
62
7
6
Continuous
290
1
370
-3
390
0
0
ENDTAB
0
TABLE
2
STYLE
5
8
330
0
100
AcDbSymbolTable
70
1
0
STYLE
5
18
330
8
100
AcDbSymbolTableRecord
100
AcDbTextStyleTableRecord
2
Standard
3
simplex.shx
70
0
71
0
40
0.0
41
1.0
42
0.0
50
0.0
0
ENDTAB
0
TABLE
2
DIMSTYLE
5
A
330
0
100
AcDbSymbolTable
70
1
100
AcDbDimStyleTable
0
DIMSTYLE
105
1A
330
A
100
AcDbSymbolTableRecord
100
AcDbDimStyleTableRecord
2
Standard
3
<>
4
[]
40
1.0
41
0.18
42
0.0625
43
0.38
44
0.18
45
0.0
46
0.0
47
0.0
48
0.0
49
1.0
70
0
71
0
72
0
73
0
74
0
75
0
76
0
77
0
78
0
79
0
140
0.18
141
0.09
143
25.4
144
1.0
146
1.0
147
0.09
148
0.0
170
0
171
2
172
0
174
0
175
0
176
0
177
0
178
0
179
0
271
4
272
4
273
2
274
2
275
0
276
0
277
2
278
46
279
0
280
0
281
0
282
0
283
1
284
0
285
0
286
0
289
3
290
0
294
0
340
18
173
0
345
17
346
17
347
17
371
-2
372
-2
0
ENDTAB
0
TABLE
2
VIEW
5
3
330
0
100
AcDbSymbolTable
70
0
0
ENDTAB
0
TABLE
2
UCS
5
C
330
0
100
AcDbSymbolTable
70
0
0
ENDTAB
0
TABLE
2
BLOCK_RECORD
5
D
330
0
100
AcDbSymbolTable
70
3
0
BLOCK_RECORD
5
1C
330
D
100
AcDbSymbolTableRecord
100
AcDbBlockTableRecord
2
*Model_Space
340
20
0
BLOCK_RECORD
5
22
330
D
100
AcDbSymbolTableRecord
100
AcDbBlockTableRecord
2
*Paper_Space
340
27
0
BLOCK_RECORD
5
2F
330
D
100
AcDbSymbolTableRecord
100
AcDbBlockTableRecord
2
ATK_Panel27x75R
340
0
70
0
280
1
281
0
1001
ACAD
1000
DesignCenter Data
1002
{
1070
1
1070
0
1002
}
0
ENDTAB
0
ENDSEC
0
SECTION
2
BLOCKS
0
BLOCK
5
1E
330
1C
100
AcDbEntity
67
0
8
0
100
AcDbBlockBegin
2
*Model_Space
70
0
10
0.0
20
0.0
30
0.0
3
*Model_Space
4

0
ENDBLK
5
1D
330
1C
100
AcDbEntity
8
0
100
AcDbBlockEnd
0
BLOCK
5
24
330
22
100
AcDbEntity
67
1
8
0
100
AcDbBlockBegin
2
*Paper_Space
70
0
10
0.0
20
0.0
30
0.0
3
*Paper_Space
4

0
ENDBLK
5
23
330
22
100
AcDbEntity
8
0
100
AcDbBlockEnd
0
BLOCK
5
31
330
2F
100
AcDbEntity
8
0
100
AcDbBlockBegin
2
ATK_Panel27x75R
70
0
10
0.0
20
0.0
30
0.0
3
ATK_Panel27x75R
4

0
3DFACE
5
32
330
2F
100
AcDbEntity
8
0
62
1
6
ByLayer
370
-1
48
1.0
60
0
100
AcDbFace
10
0.0000000000000009
20
0.0000000000000003
30
-0.0000000000000004
11
0.750000000000001
21
0.0000000000000003
31
-0.0000000000000004
12
0.750000000000001
22
-0.0000000000000005
32
2.7
13
0.0000000000000009
23
-0.0000000000000005
33
2.7
70
0
0
3DFACE
5
33
330
2F
100
AcDbEntity
8
0
62
1
6
ByLayer
370
-1
48
1.0
60
0
100
AcDbFace
10
0.024650631070434
20
-0.0165004505704763
30
2.41224383596508
11
0.024650631070434
21
-0.120000450575191
31
2.41224383596508
12
0.724650631070116
22
-0.120000450575191
32
2.41224383596508
13
0.724650631070116
23
-0.0165004505704763
33
2.41224383596508
70
0
0
3DFACE
5
34
330
2F
100
AcDbEntity
8
0
62
1
6
ByLayer
370
-1
48
1.0
60
0
100
AcDbFace
10
0.024650631070434
20
-0.0165004505704763
30
2.38724383596508
11
0.024650631070434
21
-0.120000450575191
31
2.38724383596508
12
0.724650631070116
22
-0.120000450575191
32
2.38724383596508
13
0.724650631070116
23
-0.0165004505704763
33
2.38724383596508
70
0
0
3DFACE
5
35
330
2F
100
AcDbEntity
8
0
62
1
6
ByLayer
370
-1
48
1.0
60
0
100
AcDbFace
10
0.024650631070434
20
-0.0165004505704763
30
2.41224383596508
11
0.024650631070434
21
-0.0165004505704763
31
2.38724383596508
12
0.024650631070434
22
-0.120000450575191
32
2.38724383596508
13
0.024650631070434
23
-0.120000450575191
33
2.41224383596508
70
0
0
3DFACE
5
36
330
2F
100
AcDbEntity
8
0
62
1
6
ByLayer
370
-1
48
1.0
60
0
100
AcDbFace
10
0.724650631070116
20
-0.0165004505704763
30
2.41224383596508
11
0.724650631070116
21
-0.120000450575191
31
2.41224383596508
12
0.724650631070116
22
-0.120000450575191
32
2.38724383596508
13
0.724650631070116
23
-0.0165004505704763
33
2.38724383596508
70
0
0
3DFACE
5
37
330
2F
100
AcDbEntity
8
0
62
1
6
ByLayer
370
-1
48
1.0
60
0
100
AcDbFace
10
0.462852618341497
20
-0.0165004505704767
30
2.41230383596507
11
0.462852618341042
21
-0.120000450575192
31
2.41217723242407
12
0.462852618341042
22
-0.120000450575192
32
2.67467723242407
13
0.462852618341497
23
-0.0165004505704768
33
2.67480383596506
70
0
0
3DFACE
5
38
330
2F
100
AcDbEntity
8
0
62
1
6
ByLayer
370
-1
48
1.0
60
0
100
AcDbFace
10
0.437852618341406
20
-0.0165004505704767
30
2.41217723242407
11
0.437852618341406
21
-0.120000450575192
31
2.41230383596506
12
0.437852618341406
22
-0.120000450575192
32
2.67467723242407
13
0.437852618341406
23
-0.0165004505704768
33
2.67467723242407
70
0
0
3DFACE
5
39
330
2F
100
AcDbEntity
8
0
62
1
6
ByLayer
370
-1
48
1.0
60
0
100
AcDbFace
10
0.294288270914851
20
-0.0165004505704768
30
2.67467723242407
11
0.319288270914942
21
-0.0165004505704768
31
2.67467723242407
12
0.319288270914942
22
-0.120000450575192
32
2.67480383596506
13
0.294288270915306
23
-0.120000450575192
33
2.67467723242407
70
0
0
3DFACE
5
3A
330
2F
100
AcDbEntity
8
0
62
1
6
ByLayer
370
-1
48
1.0
60
0
100
AcDbFace
10
0.724650631070116
20
-0.0165004505704763
30
2.38724383596508
11
0.724650631070116
21
-0.120000450575191
31
2.38724383596508
12
0.024650631070434
22
-0.120000450575191
32
2.38724383596508
13
0.024650631070434
23
-0.0165004505704763
33
2.38724383596508
70
0
0
3DFACE
5
3B
330
2F
100
AcDbEntity
8
0
62
1
6
ByLayer
370
-1
48
1.0
60
0
100
AcDbFace
10
0.024650631070434
20
-0.0165004505704762
30
2.11224383596508
11
0.024650631070434
21
-0.0165004505704762
31
2.08724383596508
12
0.024650631070434
22
-0.120000450575191
32
2.08724383596508
13
0.024650631070434
23
-0.120000450575191
33
2.11224383596508
70
0
0
3DFACE
5
3C
330
2F
100
AcDbEntity
8
0
62
1
6
ByLayer
370
-1
48
1.0
60
0
100
AcDbFace
10
0.724650631070116
20
-0.0165004505704762
30
2.11224383596508
11
0.724650631070116
21
-0.120000450575191
31
2.11224383596508
12
0.724650631070116
22
-0.120000450575191
32
2.08724383596508
13
0.724650631070116
23
-0.0165004505704762
33
2.08724383596508
70
0
0
3DFACE
5
3D
330
2F
100
AcDbEntity
8
0
62
1
6
ByLayer
370
-1
48
1.0
60
0
100
AcDbFace
10
0.0251093851143933
20
-0.0165000042834441
30
2.19535589049985
11
0.0251093851143933
21
-0.120000004280883
31
2.19535589049985
12
0.0251093851143933
22
-0.120000004280883
32
2.18656092378981
13
0.0251093851143933
23
-0.016500004283444
33
2.18656092378981
70
0
0
3DFACE
5
3E
330
2F
100
AcDbEntity
8
0
62
1
6
ByLayer
370
-1
48
1.0
60
0
100
AcDbFace
10
0.724191877026156
20
-0.0165000042834443
30
2.18656092378981
11
0.724191877026156
21
-0.120000004280883
31
2.18656092378981
12
0.724191877026156
22
-0.120000004280883
32
2.19535589049985
13
0.724191877026156
23
-0.0165000042834443
33
2.19535589049985
70
0
0
3DFACE
5
3F
330
2F
100
AcDbEntity
8
0
62
1
6
ByLayer
370
-1
48
1.0
60
0
100
AcDbFace
10
0.724650631070116
20
-0.120000450575191
30
2.38724383596508
11
0.024650631070434
21
-0.120000450575191
31
2.38724383596508
12
0.024650631070434
22
-0.120000450575191
32
2.41224383596508
13
0.724650631070116
23
-0.120000450575191
33
2.41224383596508
70
0
0
3DFACE
5
40
330
2F
100
AcDbEntity
8
0
62
1
6
ByLayer
370
-1
48
1.0
60
0
100
AcDbFace
10
0.437852618341406
20
-0.120000450575192
30
2.67467723242407
11
0.462852618341042
21
-0.120000450575192
31
2.67467723242407
12
0.462852618341042
22
-0.120000450575192
32
2.41217723242407
13
0.437852618341406
23
-0.120000450575192
33
2.41230383596506
70
0
0
3DFACE
5
41
330
2F
100
AcDbEntity
8
0
62
1
6
ByLayer
370
-1
48
1.0
60
0
100
AcDbFace
10
0.725000000000819
20
-0.120230566736717
30
2.18750000000002
11
0.0250000000007731
21
-0.120230566736717
31
2.18750000000002
12
0.0250000000007731
22
-0.0202305667381724
32
2.18750000000002
13
0.725000000000819
23
-0.0202305667381724
33
2.18750000000002
70
0
0
3DFACE
5
42
330
2F
100
AcDbEntity
8
0
62
1
6
ByLayer
370
-1
48
1.0
60
0
100
AcDbFace
10
0.725000000000819
20
-0.120230566736717
30
2.18150000000001
11
0.0250000000007731
21
-0.120230566736717
31
2.18150000000001
12
0.0250000000007731
22
-0.0202305667381724
32
2.18150000000001
13
0.725000000000819
23
-0.0202305667381724
33
2.18150000000001
70
0
0
3DFACE
5
43
330
2F
100
AcDbEntity
8
0
62
1
6
ByLayer
370
-1
48
1.0
60
0
100
AcDbFace
10
0.725000000000819
20
-0.120230566736717
30
2.1185
11
0.0250000000007731
21
-0.120230566736717
31
2.1185
12
0.0250000000007731
22
-0.0202305667381724
32
2.1185
13
0.725000000000819
23
-0.0202305667381724
33
2.1185
70
0
0
3DFACE
5
44
330
2F
100
AcDbEntity
8
0
62
1
6
ByLayer
370
-1
48
1.0
60
0
100
AcDbFace
10
0.725000000000819
20
-0.120230566736717
30
2.11249999999999
11
0.0250000000007731
21
-0.120230566736717
31
2.11249999999999
12
0.0250000000007731
22
-0.0202305667381724
32
2.11249999999999
13
0.725000000000819
23
-0.0202305667381724
33
2.11249999999999
70
0
0
3DFACE
5
45
330
2F
100
AcDbEntity
8
0
62
1
6
ByLayer
370
-1
48
1.0
60
0
100
AcDbFace
10
0.725000000000819
20
-0.120230566736717
30
2.11249999999999
11
0.0250000000007731
21
-0.120230566736717
31
2.11249999999999
12
0.0250000000007731
22
-0.120230566736717
32
2.1185
13
0.725000000000819
23
-0.120230566736717
33
2.1185
70
0
0
3DFACE
5
46
330
2F
100
AcDbEntity
8
0
62
1
6
ByLayer
370
-1
48
1.0
60
0
100
AcDbFace
10
0.0250000000007731
20
-0.0202305667381724
30
2.1185
11
0.0250000000007731
21
-0.0202305667381724
31
2.11249999999999
12
0.725000000000819
22
-0.0202305667381724
32
2.11249999999999
13
0.725000000000819
23
-0.0202305667381724
33
2.11849999999999
70
0
0
3DFACE
5
47
330
2F
100
AcDbEntity
8
0
62
1
6
ByLayer
370
-1
48
1.0
60
0
100
AcDbFace
10
0.725000000000819
20
-0.120230566736717
30
2.18150000000001
11
0.0250000000007731
21
-0.120230566736717
31
2.18150000000001
12
0.0250000000007731
22
-0.120230566736717
32
2.18750000000002
13
0.725000000000819
23
-0.120230566736717
33
2.18750000000002
70
0
0
3DFACE
5
48
330
2F
100
AcDbEntity
8
0
62
1
6
ByLayer
370
-1
48
1.0
60
0
100
AcDbFace
10
0.725000000000819
20
-0.0202305667381724
30
2.18150000000001
11
0.0250000000007731
21
-0.0202305667381724
31
2.18150000000001
12
0.0250000000007731
22
-0.0202305667381724
32
2.18750000000002
13
0.725000000000819
23
-0.0202305667381724
33
2.18750000000002
70
0
0
3DFACE
5
49
330
2F
100
AcDbEntity
8
0
62
1
6
ByLayer
370
-1
48
1.0
60
0
100
AcDbFace
10
0.724650631070116
20
-0.0165004505704758
30
0.287756164034924
11
0.724650631070116
21
-0.120000450575191
31
0.287756164034924
12
0.024650631070434
22
-0.120000450575191
32
0.287756164034924
13
0.024650631070434
23
-0.0165004505704758
33
0.287756164034924
70
0
0
3DFACE
5
4A
330
2F
100
AcDbEntity
8
0
62
1
6
ByLayer
370
-1
48
1.0
60
0
100
AcDbFace
10
0.724650631070116
20
-0.0165004505704758
30
0.312756164034924
11
0.724650631070116
21
-0.120000450575191
31
0.312756164034924
12
0.024650631070434
22
-0.120000450575191
32
0.312756164034924
13
0.024650631070434
23
-0.0165004505704758
33
0.312756164034924
70
0
0
3DFACE
5
4B
330
2F
100
AcDbEntity
8
0
62
1
6
ByLayer
370
-1
48
1.0
60
0
100
AcDbFace
10
0.024650631070434
20
-0.120000450575191
30
0.287756164034924
11
0.024650631070434
21
-0.120000450575191
31
0.312756164034924
12
0.024650631070434
22
-0.0165004505704758
32
0.312756164034924
13
0.024650631070434
23
-0.0165004505704758
33
0.287756164034924
70
0
0
3DFACE
5
4C
330
2F
100
AcDbEntity
8
0
62
1
6
ByLayer
370
-1
48
1.0
60
0
100
AcDbFace
10
0.724650631070116
20
-0.0165004505704758
30
0.312756164034924
11
0.724650631070116
21
-0.120000450575191
31
0.312756164034924
12
0.724650631070116
22
-0.120000450575191
32
0.287756164034924
13
0.724650631070116
23
-0.0165004505704758
33
0.287756164034924
70
0
0
3DFACE
5
4D
330
2F
100
AcDbEntity
8
0
62
1
6
ByLayer
370
-1
48
1.0
60
0
100
AcDbFace
10
0.462852618341497
20
-0.0165004505704761
30
0.0251961640349365
11
0.462852618341042
21
-0.120000450575191
31
0.0253227675759318
12
0.462852618341042
22
-0.120000450575191
32
0.287822767575932
13
0.462852618341497
23
-0.0165004505704762
33
0.287696164034933
70
0
0
3DFACE
5
4E
330
2F
100
AcDbEntity
8
0
62
1
6
ByLayer
370
-1
48
1.0
60
0
100
AcDbFace
10
0.437852618341406
20
-0.0165004505704761
30
0.0253227675759318
11
0.437852618341406
21
-0.120000450575191
31
0.0253227675759318
12
0.437852618341406
22
-0.120000450575191
32
0.287696164034935
13
0.437852618341406
23
-0.0165004505704762
33
0.28782276757593
70
0
0
3DFACE
5
4F
330
2F
100
AcDbEntity
8
0
62
1
6
ByLayer
370
-1
48
1.0
60
0
100
AcDbFace
10
0.294288270915306
20
-0.120000450575191
30
0.0253227675759318
11
0.319288270914942
21
-0.120000450575191
31
0.0251961640349365
12
0.319288270914942
22
-0.0165004505704761
32
0.0253227675759318
13
0.294288270914851
23
-0.0165004505704761
33
0.0253227675759318
70
0
0
3DFACE
5
50
330
2F
100
AcDbEntity
8
0
62
1
6
ByLayer
370
-1
48
1.0
60
0
100
AcDbFace
10
0.024650631070434
20
-0.0165004505704758
30
0.312756164034924
11
0.024650631070434
21
-0.120000450575191
31
0.312756164034924
12
0.724650631070116
22
-0.120000450575191
32
0.312756164034924
13
0.724650631070116
23
-0.0165004505704758
33
0.312756164034924
70
0
0
3DFACE
5
51
330
2F
100
AcDbEntity
8
0
62
1
6
ByLayer
370
-1
48
1.0
60
0
100
AcDbFace
10
0.024650631070434
20
-0.120000450575191
30
0.587756164034923
11
0.024650631070434
21
-0.120000450575191
31
0.612756164034923
12
0.024650631070434
22
-0.0165004505704759
32
0.612756164034923
13
0.024650631070434
23
-0.0165004505704759
33
0.587756164034923
70
0
0
3DFACE
5
52
330
2F
100
AcDbEntity
8
0
62
1
6
ByLayer
370
-1
48
1.0
60
0
100
AcDbFace
10
0.724650631070116
20
-0.0165004505704759
30
0.612756164034923
11
0.724650631070116
21
-0.120000450575191
31
0.612756164034923
12
0.724650631070116
22
-0.120000450575191
32
0.587756164034923
13
0.724650631070116
23
-0.0165004505704759
33
0.587756164034923
70
0
0
3DFACE
5
53
330
2F
100
AcDbEntity
8
0
62
1
6
ByLayer
370
-1
48
1.0
60
0
100
AcDbFace
10
0.0251093851143933
20
-0.0165000042834436
30
0.513439076210192
11
0.0251093851143933
21
-0.120000004280883
31
0.513439076210192
12
0.0251093851143933
22
-0.120000004280883
32
0.504644109500146
13
0.0251093851143933
23
-0.0165000042834436
33
0.504644109500146
70
0
0
3DFACE
5
54
330
2F
100
AcDbEntity
8
0
62
1
6
ByLayer
370
-1
48
1.0
60
0
100
AcDbFace
10
0.724191877026156
20
-0.0165000042834438
30
0.504644109500146
11
0.724191877026156
21
-0.120000004280883
31
0.504644109500146
12
0.724191877026156
22
-0.120000004280883
32
0.513439076210192
13
0.724191877026156
23
-0.0165000042834438
33
0.513439076210192
70
0
0
3DFACE
5
55
330
2F
100
AcDbEntity
8
0
62
1
6
ByLayer
370
-1
48
1.0
60
0
100
AcDbFace
10
0.724650631070116
20
-0.120000450575191
30
0.287756164034924
11
0.024650631070434
21
-0.120000450575191
31
0.287756164034924
12
0.024650631070434
22
-0.120000450575191
32
0.312756164034924
13
0.724650631070116
23
-0.120000450575191
33
0.312756164034924
70
0
0
3DFACE
5
56
330
2F
100
AcDbEntity
8
0
62
1
6
ByLayer
370
-1
48
1.0
60
0
100
AcDbFace
10
0.437852618341406
20
-0.120000450575191
30
0.287696164034935
11
0.462852618341042
21
-0.120000450575191
31
0.287822767575932
12
0.462852618341042
22
-0.120000450575191
32
0.0253227675759318
13
0.437852618341406
23
-0.120000450575191
33
0.0253227675759318
70
0
0
3DFACE
5
57
330
2F
100
AcDbEntity
8
0
62
1
6
ByLayer
370
-1
48
1.0
60
0
100
AcDbFace
10
0.725000000000819
20
-0.020230566738172
30
0.512499999999979
11
0.0250000000007731
21
-0.020230566738172
31
0.512499999999979
12
0.0250000000007731
22
-0.120230566736717
32
0.512499999999979
13
0.725000000000819
23
-0.120230566736717
33
0.512499999999979
70
0
0
3DFACE
5
58
330
2F
100
AcDbEntity
8
0
62
1
6
ByLayer
370
-1
48
1.0
60
0
100
AcDbFace
10
0.725000000000819
20
-0.020230566738172
30
0.518499999999987
11
0.0250000000007731
21
-0.020230566738172
31
0.518499999999987
12
0.0250000000007731
22
-0.120230566736717
32
0.518499999999987
13
0.725000000000819
23
-0.120230566736717
33
0.518499999999987
70
0
0
3DFACE
5
59
330
2F
100
AcDbEntity
8
0
62
1
6
ByLayer
370
-1
48
1.0
60
0
100
AcDbFace
10
0.725000000000819
20
-0.0202305667381721
30
0.581499999999999
11
0.0250000000007731
21
-0.0202305667381721
31
0.581499999999999
12
0.0250000000007731
22
-0.120230566736717
32
0.581499999999999
13
0.725000000000819
23
-0.120230566736717
33
0.581499999999999
70
0
0
3DFACE
5
5A
330
2F
100
AcDbEntity
8
0
62
1
6
ByLayer
370
-1
48
1.0
60
0
100
AcDbFace
10
0.725000000000819
20
-0.0202305667381721
30
0.587500000000006
11
0.0250000000007731
21
-0.0202305667381721
31
0.587500000000006
12
0.0250000000007731
22
-0.120230566736717
32
0.587500000000006
13
0.725000000000819
23
-0.120230566736717
33
0.587500000000006
70
0
0
3DFACE
5
5B
330
2F
100
AcDbEntity
8
0
62
1
6
ByLayer
370
-1
48
1.0
60
0
100
AcDbFace
10
0.725000000000819
20
-0.120230566736717
30
0.581499999999999
11
0.0250000000007731
21
-0.120230566736717
31
0.581499999999999
12
0.0250000000007731
22
-0.120230566736717
32
0.587500000000006
13
0.725000000000819
23
-0.120230566736717
33
0.587500000000006
70
0
0
3DFACE
5
5C
330
2F
100
AcDbEntity
8
0
62
1
6
ByLayer
370
-1
48
1.0
60
0
100
AcDbFace
10
0.725000000000819
20
-0.0202305667381721
30
0.581500000000006
11
0.725000000000819
21
-0.0202305667381721
31
0.587500000000006
12
0.0250000000007731
22
-0.0202305667381721
32
0.587500000000006
13
0.0250000000007731
23
-0.0202305667381721
33
0.581499999999999
70
0
0
3DFACE
5
5D
330
2F
100
AcDbEntity
8
0
62
1
6
ByLayer
370
-1
48
1.0
60
0
100
AcDbFace
10
0.725000000000819
20
-0.120230566736717
30
0.512499999999979
11
0.0250000000007731
21
-0.120230566736717
31
0.512499999999979
12
0.0250000000007731
22
-0.120230566736717
32
0.518499999999987
13
0.725000000000819
23
-0.120230566736717
33
0.518499999999987
70
0
0
3DFACE
5
5E
330
2F
100
AcDbEntity
8
0
62
1
6
ByLayer
370
-1
48
1.0
60
0
100
AcDbFace
10
0.725000000000819
20
-0.020230566738172
30
0.512499999999979
11
0.0250000000007731
21
-0.020230566738172
31
0.512499999999979
12
0.0250000000007731
22
-0.020230566738172
32
0.518499999999987
13
0.725000000000819
23
-0.020230566738172
33
0.518499999999987
70
0
0
3DFACE
5
5F
330
2F
100
AcDbEntity
8
0
62
1
6
ByLayer
370
-1
48
1.0
60
0
100
AcDbFace
10
0.024650631070434
20
-0.016500450570476
30
1.31224383596507
11
0.024650631070434
21
-0.016500450570476
31
1.28724383596508
12
0.024650631070434
22
-0.120000450575191
32
1.28724383596508
13
0.024650631070434
23
-0.120000450575191
33
1.31224383596507
70
0
0
3DFACE
5
60
330
2F
100
AcDbEntity
8
0
62
1
6
ByLayer
370
-1
48
1.0
60
0
100
AcDbFace
10
0.724650631070116
20
-0.016500450570476
30
1.31224383596507
11
0.724650631070116
21
-0.120000450575191
31
1.31224383596507
12
0.724650631070116
22
-0.120000450575191
32
1.28724383596508
13
0.724650631070116
23
-0.016500450570476
33
1.28724383596508
70
0
0
3DFACE
5
61
330
2F
100
AcDbEntity
8
0
62
1
6
ByLayer
370
-1
48
1.0
60
0
100
AcDbFace
10
0.0251093851143933
20
-0.0165000042834439
30
1.39535589049985
11
0.0251093851143933
21
-0.120000004280883
31
1.39535589049985
12
0.0251093851143933
22
-0.120000004280883
32
1.38656092378981
13
0.0251093851143933
23
-0.0165000042834439
33
1.38656092378981
70
0
0
3DFACE
5
62
330
2F
100
AcDbEntity
8
0
62
1
6
ByLayer
370
-1
48
1.0
60
0
100
AcDbFace
10
0.724191877026156
20
-0.0165000042834441
30
1.38656092378981
11
0.724191877026156
21
-0.120000004280883
31
1.38656092378981
12
0.724191877026156
22
-0.120000004280883
32
1.39535589049985
13
0.724191877026156
23
-0.0165000042834441
33
1.39535589049985
70
0
0
3DFACE
5
63
330
2F
100
AcDbEntity
8
0
62
1
6
ByLayer
370
-1
48
1.0
60
0
100
AcDbFace
10
0.725000000000819
20
-0.120230566736717
30
1.38750000000002
11
0.0250000000007731
21
-0.120230566736717
31
1.38750000000002
12
0.0250000000007731
22
-0.0202305667381722
32
1.38750000000002
13
0.725000000000819
23
-0.0202305667381722
33
1.38750000000002
70
0
0
3DFACE
5
64
330
2F
100
AcDbEntity
8
0
62
1
6
ByLayer
370
-1
48
1.0
60
0
100
AcDbFace
10
0.725000000000819
20
-0.120230566736717
30
1.38150000000001
11
0.0250000000007731
21
-0.120230566736717
31
1.38150000000001
12
0.0250000000007731
22
-0.0202305667381722
32
1.38150000000001
13
0.725000000000819
23
-0.0202305667381722
33
1.38150000000001
70
0
0
3DFACE
5
65
330
2F
100
AcDbEntity
8
0
62
1
6
ByLayer
370
-1
48
1.0
60
0
100
AcDbFace
10
0.725000000000819
20
-0.120230566736717
30
1.3185
11
0.0250000000007731
21
-0.120230566736717
31
1.3185
12
0.0250000000007731
22
-0.0202305667381722
32
1.3185
13
0.725000000000819
23
-0.0202305667381722
33
1.3185
70
0
0
3DFACE
5
66
330
2F
100
AcDbEntity
8
0
62
1
6
ByLayer
370
-1
48
1.0
60
0
100
AcDbFace
10
0.725000000000819
20
-0.120230566736717
30
1.31249999999999
11
0.0250000000007731
21
-0.120230566736717
31
1.31249999999999
12
0.0250000000007731
22
-0.0202305667381722
32
1.31249999999999
13
0.725000000000819
23
-0.0202305667381722
33
1.31249999999999
70
0
0
3DFACE
5
67
330
2F
100
AcDbEntity
8
0
62
1
6
ByLayer
370
-1
48
1.0
60
0
100
AcDbFace
10
0.725000000000819
20
-0.120230566736717
30
1.31249999999999
11
0.0250000000007731
21
-0.120230566736717
31
1.31249999999999
12
0.0250000000007731
22
-0.120230566736717
32
1.3185
13
0.725000000000819
23
-0.120230566736717
33
1.3185
70
0
0
3DFACE
5
68
330
2F
100
AcDbEntity
8
0
62
1
6
ByLayer
370
-1
48
1.0
60
0
100
AcDbFace
10
0.0250000000007731
20
-0.0202305667381722
30
1.3185
11
0.0250000000007731
21
-0.0202305667381722
31
1.31249999999999
12
0.725000000000819
22
-0.0202305667381722
32
1.31249999999999
13
0.725000000000819
23
-0.0202305667381722
33
1.31849999999999
70
0
0
3DFACE
5
69
330
2F
100
AcDbEntity
8
0
62
1
6
ByLayer
370
-1
48
1.0
60
0
100
AcDbFace
10
0.725000000000819
20
-0.120230566736717
30
1.38150000000001
11
0.0250000000007731
21
-0.120230566736717
31
1.38150000000001
12
0.0250000000007731
22
-0.120230566736717
32
1.38750000000002
13
0.725000000000819
23
-0.120230566736717
33
1.38750000000002
70
0
0
3DFACE
5
6A
330
2F
100
AcDbEntity
8
0
62
1
6
ByLayer
370
-1
48
1.0
60
0
100
AcDbFace
10
0.725000000000819
20
-0.0202305667381722
30
1.38150000000001
11
0.0250000000007731
21
-0.0202305667381722
31
1.38150000000001
12
0.0250000000007731
22
-0.0202305667381722
32
1.38750000000002
13
0.725000000000819
23
-0.0202305667381722
33
1.38750000000002
70
0
0
3DFACE
5
6B
330
2F
100
AcDbEntity
8
0
62
1
6
ByLayer
370
-1
48
1.0
60
0
100
AcDbFace
10
0.024650631070434
20
-0.0165004505704762
30
1.81224383596507
11
0.024650631070434
21
-0.120000450575191
31
1.81224383596507
12
0.724650631070116
22
-0.120000450575191
32
1.81224383596507
13
0.724650631070116
23
-0.0165004505704762
33
1.81224383596507
70
0
0
3DFACE
5
6C
330
2F
100
AcDbEntity
8
0
62
1
6
ByLayer
370
-1
48
1.0
60
0
100
AcDbFace
10
0.024650631070434
20
-0.0165004505704762
30
1.78724383596507
11
0.024650631070434
21
-0.120000450575191
31
1.78724383596507
12
0.724650631070116
22
-0.120000450575191
32
1.78724383596507
13
0.724650631070116
23
-0.0165004505704762
33
1.78724383596507
70
0
0
3DFACE
5
6D
330
2F
100
AcDbEntity
8
0
62
1
6
ByLayer
370
-1
48
1.0
60
0
100
AcDbFace
10
0.024650631070434
20
-0.0165004505704762
30
1.81224383596507
11
0.024650631070434
21
-0.0165004505704762
31
1.78724383596507
12
0.024650631070434
22
-0.120000450575191
32
1.78724383596507
13
0.024650631070434
23
-0.120000450575191
33
1.81224383596507
70
0
0
3DFACE
5
6E
330
2F
100
AcDbEntity
8
0
62
1
6
ByLayer
370
-1
48
1.0
60
0
100
AcDbFace
10
0.724650631070116
20
-0.0165004505704762
30
1.81224383596507
11
0.724650631070116
21
-0.120000450575191
31
1.81224383596507
12
0.724650631070116
22
-0.120000450575191
32
1.78724383596507
13
0.724650631070116
23
-0.0165004505704762
33
1.78724383596507
70
0
0
3DFACE
5
6F
330
2F
100
AcDbEntity
8
0
62
1
6
ByLayer
370
-1
48
1.0
60
0
100
AcDbFace
10
0.724650631070116
20
-0.0165004505704762
30
1.78724383596507
11
0.724650631070116
21
-0.120000450575191
31
1.78724383596507
12
0.024650631070434
22
-0.120000450575191
32
1.78724383596507
13
0.024650631070434
23
-0.0165004505704762
33
1.78724383596507
70
0
0
3DFACE
5
70
330
2F
100
AcDbEntity
8
0
62
1
6
ByLayer
370
-1
48
1.0
60
0
100
AcDbFace
10
0.724650631070116
20
-0.120000450575191
30
1.78724383596507
11
0.024650631070434
21
-0.120000450575191
31
1.78724383596507
12
0.024650631070434
22
-0.120000450575191
32
1.81224383596507
13
0.724650631070116
23
-0.120000450575191
33
1.81224383596507
70
0
0
3DFACE
5
71
330
2F
100
AcDbEntity
8
0
62
1
6
ByLayer
370
-1
48
1.0
60
0
100
AcDbFace
10
0.724650631070116
20
-0.0165004505704759
30
0.887756164034924
11
0.724650631070116
21
-0.120000450575191
31
0.887756164034924
12
0.024650631070434
22
-0.120000450575191
32
0.887756164034924
13
0.024650631070434
23
-0.0165004505704759
33
0.887756164034924
70
0
0
3DFACE
5
72
330
2F
100
AcDbEntity
8
0
62
1
6
ByLayer
370
-1
48
1.0
60
0
100
AcDbFace
10
0.724650631070116
20
-0.0165004505704759
30
0.912756164034924
11
0.724650631070116
21
-0.120000450575191
31
0.912756164034924
12
0.024650631070434
22
-0.120000450575191
32
0.912756164034924
13
0.024650631070434
23
-0.0165004505704759
33
0.912756164034924
70
0
0
3DFACE
5
73
330
2F
100
AcDbEntity
8
0
62
1
6
ByLayer
370
-1
48
1.0
60
0
100
AcDbFace
10
0.024650631070434
20
-0.120000450575191
30
0.887756164034924
11
0.024650631070434
21
-0.120000450575191
31
0.912756164034924
12
0.024650631070434
22
-0.0165004505704759
32
0.912756164034924
13
0.024650631070434
23
-0.0165004505704759
33
0.887756164034924
70
0
0
3DFACE
5
74
330
2F
100
AcDbEntity
8
0
62
1
6
ByLayer
370
-1
48
1.0
60
0
100
AcDbFace
10
0.724650631070116
20
-0.0165004505704759
30
0.912756164034924
11
0.724650631070116
21
-0.120000450575191
31
0.912756164034924
12
0.724650631070116
22
-0.120000450575191
32
0.887756164034924
13
0.724650631070116
23
-0.0165004505704759
33
0.887756164034924
70
0
0
3DFACE
5
75
330
2F
100
AcDbEntity
8
0
62
1
6
ByLayer
370
-1
48
1.0
60
0
100
AcDbFace
10
0.024650631070434
20
-0.0165004505704759
30
0.912756164034924
11
0.024650631070434
21
-0.120000450575191
31
0.912756164034924
12
0.724650631070116
22
-0.120000450575191
32
0.912756164034924
13
0.724650631070116
23
-0.0165004505704759
33
0.912756164034924
70
0
0
3DFACE
5
76
330
2F
100
AcDbEntity
8
0
62
1
6
ByLayer
370
-1
48
1.0
60
0
100
AcDbFace
10
0.724650631070116
20
-0.120000450575191
30
0.887756164034924
11
0.024650631070434
21
-0.120000450575191
31
0.887756164034924
12
0.024650631070434
22
-0.120000450575191
32
0.912756164034924
13
0.724650631070116
23
-0.120000450575191
33
0.912756164034924
70
0
0
LWPOLYLINE
5
77
330
2F
100
AcDbEntity
8
0
62
1
6
ByLayer
370
-1
48
1.0
60
0
100
AcDbPolyline
90
13
70
1
38
0.0
39
2.7
10
0.75
20
-0.119999999988067
40
0.0
41
0.0
42
0.0
10
0.724999999999909
20
-0.120000000002619
40
0.0
41
0.0
42
0.0
10
0.724999999999909
20
-0.0899999999892316
40
0.0
41
0.0
42
0.0
10
0.733988605796185
20
-0.0824999999903372
40
0.0
41
0.0
42
0.0
10
0.745856859147125
20
-0.0805010550175212
40
0.0
41
0.0
42
0.0
10
0.745879015326409
20
-0.0384999999878346
40
0.0
41
0.0
42
0.0
10
0.729000000000042
20
-0.0364999999874264
40
0.0
41
0.0
42
0.0
10
0.725000000000042
20
-0.0324999999938882
40
0.0
41
0.0
42
0.0
10
0.724999999999818
20
-0.0204999999987197
40
0.0
41
0.0
42
0.0
10
0.729000000000037
20
-0.0164999999934832
40
0.0
41
0.0
42
0.0
10
0.744078174573133
20
-0.0150464246617048
40
0.0
41
0.0
42
0.0
10
0.741963537490392
20
0.0
40
0.0
41
0.0
42
0.0
10
0.75
20
0.0
40
0.0
41
0.0
42
0.0
210
0.0
220
0.0
230
1.0
0
LWPOLYLINE
5
78
330
2F
100
AcDbEntity
8
0
62
1
6
ByLayer
370
-1
48
1.0
60
0
100
AcDbPolyline
90
13
70
1
38
0.0
39
0.75
10
-0.119999999988068
20
2.7
40
0.0
41
0.0
42
0.0
10
-0.12000000000262
20
2.67499999999991
40
0.0
41
0.0
42
0.0
10
-0.0899999999892323
20
2.67499999999991
40
0.0
41
0.0
42
0.0
10
-0.0824999999903379
20
2.68398860579619
40
0.0
41
0.0
42
0.0
10
-0.0805010550175219
20
2.69585685914713
40
0.0
41
0.0
42
0.0
10
-0.0384999999878353
20
2.69587901532641
40
0.0
41
0.0
42
0.0
10
-0.0364999999874271
20
2.67900000000004
40
0.0
41
0.0
42
0.0
10
-0.0324999999938889
20
2.67500000000004
40
0.0
41
0.0
42
0.0
10
-0.0204999999987204
20
2.67499999999982
40
0.0
41
0.0
42
0.0
10
-0.0164999999934839
20
2.67900000000004
40
0.0
41
0.0
42
0.0
10
-0.0150464246617056
20
2.69407817457313
40
0.0
41
0.0
42
0.0
10
-0.0000000000000007
20
2.69196353749039
40
0.0
41
0.0
42
0.0
10
-0.0000000000000007
20
2.7
40
0.0
41
0.0
42
0.0
210
1.0
220
0.0
230
-0.0000000000000002
0
LWPOLYLINE
5
79
330
2F
100
AcDbEntity
8
0
62
1
6
ByLayer
370
-1
48
1.0
60
0
100
AcDbPolyline
90
13
70
1
38
0.0
39
2.7
10
0.0000000000000007
20
-0.119999999988067
40
0.0
41
0.0
42
0.0
10
0.0250000000000916
20
-0.120000000002619
40
0.0
41
0.0
42
0.0
10
0.0250000000000916
20
-0.0899999999892314
40
0.0
41
0.0
42
0.0
10
0.0160113942038158
20
-0.0824999999903371
40
0.0
41
0.0
42
0.0
10
0.0041431408528758
20
-0.080501055017521
40
0.0
41
0.0
42
0.0
10
0.0041209846735917
20
-0.0384999999878345
40
0.0
41
0.0
42
0.0
10
0.0209999999999588
20
-0.0364999999874262
40
0.0
41
0.0
42
0.0
10
0.0249999999999588
20
-0.0324999999938881
40
0.0
41
0.0
42
0.0
10
0.025000000000183
20
-0.0204999999987195
40
0.0
41
0.0
42
0.0
10
0.0209999999999645
20
-0.016499999993483
40
0.0
41
0.0
42
0.0
10
0.0059218254268678
20
-0.0150464246617047
40
0.0
41
0.0
42
0.0
10
0.0080364625096088
20
0.0000000000000002
40
0.0
41
0.0
42
0.0
10
0.0000000000000009
20
0.0000000000000002
40
0.0
41
0.0
42
0.0
210
0.0
220
0.0
230
1.0
0
LWPOLYLINE
5
7A
330
2F
100
AcDbEntity
8
0
62
1
6
ByLayer
370
-1
48
1.0
60
0
100
AcDbPolyline
90
13
70
1
38
0.0
39
0.75
10
-0.119999999988067
20
0.0
40
0.0
41
0.0
42
0.0
10
-0.120000000002619
20
0.025000000000091
40
0.0
41
0.0
42
0.0
10
-0.0899999999892316
20
0.025000000000091
40
0.0
41
0.0
42
0.0
10
-0.0824999999903372
20
0.0160113942038152
40
0.0
41
0.0
42
0.0
10
-0.0805010550175212
20
0.0041431408528752
40
0.0
41
0.0
42
0.0
10
-0.0384999999878346
20
0.004120984673591
40
0.0
41
0.0
42
0.0
10
-0.0364999999874264
20
0.0209999999999582
40
0.0
41
0.0
42
0.0
10
-0.0324999999938882
20
0.0249999999999582
40
0.0
41
0.0
42
0.0
10
-0.0204999999987197
20
0.0250000000001816
40
0.0
41
0.0
42
0.0
10
-0.0164999999934832
20
0.0209999999999639
40
0.0
41
0.0
42
0.0
10
-0.0150464246617049
20
0.0059218254268667
40
0.0
41
0.0
42
0.0
10
0.0
20
0.0080364625096077
40
0.0
41
0.0
42
0.0
10
0.0
20
0.0
40
0.0
41
0.0
42
0.0
210
1.0
220
0.0
230
0.0000000000000002
0
CIRCLE
5
7B
330
2F
100
AcDbEntity
8
0
62
1
6
ByLayer
370
-1
48
1.0
60
0
100
AcDbCircle
10
0.674650631070389
20
-0.0800004561404255
30
2.41224383596508
40
0.012
39
0.0
210
0.0
220
0.0
230
1.0
0
CIRCLE
5
7C
330
2F
100
AcDbEntity
8
0
62
1
6
ByLayer
370
-1
48
1.0
60
0
100
AcDbCircle
10
0.599650631070116
20
-0.0700004575353725
30
2.41224383596508
40
0.012
39
0.0
210
0.0
220
0.0
230
1.0
0
CIRCLE
5
7D
330
2F
100
AcDbEntity
8
0
62
1
6
ByLayer
370
-1
48
1.0
60
0
100
AcDbCircle
10
0.524650631070298
20
-0.0700004575353725
30
2.41224383596508
40
0.012
39
0.0
210
0.0
220
0.0
230
1.0
0
CIRCLE
5
7E
330
2F
100
AcDbEntity
8
0
62
1
6
ByLayer
370
-1
48
1.0
60
0
100
AcDbCircle
10
0.070000467270604
20
2.53718053419457
30
-0.462852618341497
40
0.012
39
0.0
210
-1.0
220
-0.0000000000000004
230
0.0
0
CIRCLE
5
7F
330
2F
100
AcDbEntity
8
0
62
1
6
ByLayer
370
-1
48
1.0
60
0
100
AcDbCircle
10
0.0800004672726414
20
2.46218053419457
30
-0.462852618341497
40
0.012
39
0.0
210
-1.0
220
-0.0000000000000004
230
0.0
0
CIRCLE
5
80
330
2F
100
AcDbEntity
8
0
62
1
6
ByLayer
370
-1
48
1.0
60
0
100
AcDbCircle
10
0.070000467270604
20
2.53718053419457
30
-0.437852618341406
40
0.012
39
0.0
210
-1.0
220
-0.0000000000000004
230
0.0
0
CIRCLE
5
81
330
2F
100
AcDbEntity
8
0
62
1
6
ByLayer
370
-1
48
1.0
60
0
100
AcDbCircle
10
0.0800004672726414
20
2.46218053419457
30
-0.437852618341406
40
0.012
39
0.0
210
-1.0
220
-0.0000000000000004
230
0.0
0
CIRCLE
5
82
330
2F
100
AcDbEntity
8
0
62
1
6
ByLayer
370
-1
48
1.0
60
0
100
AcDbCircle
10
-0.674650631070389
20
-0.0800004561404246
30
-2.38724383596508
40
0.012
39
0.0
210
0.0
220
0.0000000000000003
230
-1.0
0
CIRCLE
5
83
330
2F
100
AcDbEntity
8
0
62
1
6
ByLayer
370
-1
48
1.0
60
0
100
AcDbCircle
10
-0.599650631070116
20
-0.0700004575353716
30
-2.38724383596508
40
0.012
39
0.0
210
0.0
220
0.0000000000000003
230
-1.0
0
CIRCLE
5
84
330
2F
100
AcDbEntity
8
0
62
1
6
ByLayer
370
-1
48
1.0
60
0
100
AcDbCircle
10
-0.524650631070298
20
-0.0700004575353716
30
-2.38724383596508
40
0.012
39
0.0
210
0.0
220
0.0000000000000003
230
-1.0
0
CIRCLE
5
85
330
2F
100
AcDbEntity
8
0
62
1
6
ByLayer
370
-1
48
1.0
60
0
100
AcDbCircle
10
0.448557216266409
20
-0.0684484198791329
30
2.28670981767374
40
0.0075
39
0.1
210
0.0
220
0.0
230
1.0
0
CIRCLE
5
86
330
2F
100
AcDbEntity
8
0
62
1
6
ByLayer
370
-1
48
1.0
60
0
100
AcDbCircle
10
-0.0684484198791328
20
2.29410446050305
30
0.355994204418838
40
0.0075
39
0.1
210
1.0
220
-0.0000000000000001
230
-0.0000000000000002
0
CIRCLE
5
87
330
2F
100
AcDbEntity
8
0
62
1
6
ByLayer
370
-1
48
1.0
60
0
100
AcDbCircle
10
-0.0651191258101029
20
2.15000026848125
30
-0.0026329682117947
40
0.0126407923941936
39
0.0
210
-0.0000000000000002
220
1.0
230
0.0000000000000002
0
CIRCLE
5
88
330
2F
100
AcDbEntity
8
0
62
1
6
ByLayer
370
-1
48
1.0
60
0
100
AcDbCircle
10
-0.114612305269886
20
2.15000026848125
30
-0.0026329682117947
40
0.0126407923941936
39
0.0
210
-0.0000000000000002
220
1.0
230
0.0000000000000002
0
CIRCLE
5
89
330
2F
100
AcDbEntity
8
0
62
1
6
ByLayer
370
-1
48
1.0
60
0
100
AcDbCircle
10
-0.165043764414865
20
2.15000000000003
30
-0.0026329682117947
40
0.0126407923941936
39
0.0
210
-0.0000000000000002
220
1.0
230
0.0000000000000002
0
CIRCLE
5
8A
330
2F
100
AcDbEntity
8
0
62
1
6
ByLayer
370
-1
48
1.0
60
0
100
AcDbCircle
10
-0.215043764415046
20
2.15000000000003
30
-0.0026329682117947
40
0.0126407923941936
39
0.0
210
-0.0000000000000002
220
1.0
230
0.0000000000000002
0
CIRCLE
5
8B
330
2F
100
AcDbEntity
8
0
62
1
6
ByLayer
370
-1
48
1.0
60
0
100
AcDbCircle
10
-0.265043764415001
20
2.15000000000003
30
-0.0026329682117948
40
0.0126407923941936
39
0.0
210
-0.0000000000000002
220
1.0
230
0.0000000000000002
0
CIRCLE
5
8C
330
2F
100
AcDbEntity
8
0
62
1
6
ByLayer
370
-1
48
1.0
60
0
100
AcDbCircle
10
-0.315043764414956
20
2.15000000000003
30
-0.0026329682117948
40
0.0126407923941936
39
0.0
210
-0.0000000000000002
220
1.0
230
0.0000000000000002
0
CIRCLE
5
8D
330
2F
100
AcDbEntity
8
0
62
1
6
ByLayer
370
-1
48
1.0
60
0
100
AcDbCircle
10
-0.36504376441491
20
2.15000000000003
30
-0.0026329682117948
40
0.0126407923941936
39
0.0
210
-0.0000000000000002
220
1.0
230
0.0000000000000002
0
CIRCLE
5
8E
330
2F
100
AcDbEntity
8
0
62
1
6
ByLayer
370
-1
48
1.0
60
0
100
AcDbCircle
10
-0.415043764414865
20
2.15000000000003
30
-0.0026329682117948
40
0.0126407923941936
39
0.0
210
-0.0000000000000002
220
1.0
230
0.0000000000000002
0
CIRCLE
5
8F
330
2F
100
AcDbEntity
8
0
62
1
6
ByLayer
370
-1
48
1.0
60
0
100
AcDbCircle
10
-0.465043764415047
20
2.15000000000003
30
-0.0026329682117948
40
0.0126407923941936
39
0.0
210
-0.0000000000000002
220
1.0
230
0.0000000000000002
0
CIRCLE
5
90
330
2F
100
AcDbEntity
8
0
62
1
6
ByLayer
370
-1
48
1.0
60
0
100
AcDbCircle
10
-0.515043764415001
20
2.15000000000003
30
-0.0026329682117948
40
0.0126407923941936
39
0.0
210
-0.0000000000000002
220
1.0
230
0.0000000000000002
0
CIRCLE
5
91
330
2F
100
AcDbEntity
8
0
62
1
6
ByLayer
370
-1
48
1.0
60
0
100
AcDbCircle
10
-0.565043764414956
20
2.15000000000003
30
-0.0026329682117948
40
0.0126407923941936
39
0.0
210
-0.0000000000000002
220
1.0
230
0.0000000000000002
0
CIRCLE
5
92
330
2F
100
AcDbEntity
8
0
62
1
6
ByLayer
370
-1
48
1.0
60
0
100
AcDbCircle
10
-0.61504376441491
20
2.15000000000003
30
-0.0026329682117948
40
0.0126407923941936
39
0.0
210
-0.0000000000000002
220
1.0
230
0.0000000000000002
0
CIRCLE
5
93
330
2F
100
AcDbEntity
8
0
62
1
6
ByLayer
370
-1
48
1.0
60
0
100
AcDbCircle
10
-0.665043764414865
20
2.15000000000003
30
-0.0026329682117948
40
0.0126407923941936
39
0.0
210
-0.0000000000000002
220
1.0
230
0.0000000000000002
0
CIRCLE
5
94
330
2F
100
AcDbEntity
8
0
62
1
6
ByLayer
370
-1
48
1.0
60
0
100
AcDbCircle
10
-0.674650631070389
20
-0.0800004561404249
30
-0.287756164034925
40
0.012
39
0.0
210
0.0
220
0.0000000000000002
230
-1.0
0
CIRCLE
5
95
330
2F
100
AcDbEntity
8
0
62
1
6
ByLayer
370
-1
48
1.0
60
0
100
AcDbCircle
10
-0.599650631070116
20
-0.0700004575353719
30
-0.287756164034925
40
0.012
39
0.0
210
0.0
220
0.0000000000000002
230
-1.0
0
CIRCLE
5
96
330
2F
100
AcDbEntity
8
0
62
1
6
ByLayer
370
-1
48
1.0
60
0
100
AcDbCircle
10
-0.524650631070298
20
-0.0700004575353719
30
-0.287756164034925
40
0.012
39
0.0
210
0.0
220
0.0000000000000002
230
-1.0
0
CIRCLE
5
97
330
2F
100
AcDbEntity
8
0
62
1
6
ByLayer
370
-1
48
1.0
60
0
100
AcDbCircle
10
0.0700004672706034
20
0.162819465805427
30
-0.462852618341497
40
0.012
39
0.0
210
-1.0
220
-0.0000000000000004
230
0.0
0
CIRCLE
5
98
330
2F
100
AcDbEntity
8
0
62
1
6
ByLayer
370
-1
48
1.0
60
0
100
AcDbCircle
10
0.0800004672726409
20
0.237819465805427
30
-0.462852618341497
40
0.012
39
0.0
210
-1.0
220
-0.0000000000000004
230
0.0
0
CIRCLE
5
99
330
2F
100
AcDbEntity
8
0
62
1
6
ByLayer
370
-1
48
1.0
60
0
100
AcDbCircle
10
0.0700004672706034
20
0.162819465805427
30
-0.437852618341406
40
0.012
39
0.0
210
-1.0
220
-0.0000000000000004
230
0.0
0
CIRCLE
5
9A
330
2F
100
AcDbEntity
8
0
62
1
6
ByLayer
370
-1
48
1.0
60
0
100
AcDbCircle
10
0.0800004672726409
20
0.237819465805427
30
-0.437852618341406
40
0.012
39
0.0
210
-1.0
220
-0.0000000000000004
230
0.0
0
CIRCLE
5
9B
330
2F
100
AcDbEntity
8
0
62
1
6
ByLayer
370
-1
48
1.0
60
0
100
AcDbCircle
10
0.674650631070389
20
-0.0800004561404249
30
0.312756164034922
40
0.012
39
0.0
210
0.0
220
0.0
230
1.0
0
CIRCLE
5
9C
330
2F
100
AcDbEntity
8
0
62
1
6
ByLayer
370
-1
48
1.0
60
0
100
AcDbCircle
10
0.599650631070116
20
-0.0700004575353719
30
0.312756164034922
40
0.012
39
0.0
210
0.0
220
0.0
230
1.0
0
CIRCLE
5
9D
330
2F
100
AcDbEntity
8
0
62
1
6
ByLayer
370
-1
48
1.0
60
0
100
AcDbCircle
10
0.524650631070298
20
-0.0700004575353719
30
0.312756164034922
40
0.012
39
0.0
210
0.0
220
0.0
230
1.0
0
CIRCLE
5
9E
330
2F
100
AcDbEntity
8
0
62
1
6
ByLayer
370
-1
48
1.0
60
0
100
AcDbCircle
10
-0.448557216266409
20
-0.0684484198791323
30
-0.413290182326257
40
0.0075
39
0.1
210
0.0
220
0.0000000000000002
230
-1.0
0
CIRCLE
5
9F
330
2F
100
AcDbEntity
8
0
62
1
6
ByLayer
370
-1
48
1.0
60
0
100
AcDbCircle
10
-0.0684484198791323
20
0.405895539496946
30
0.355994204418839
40
0.0075
39
0.1
210
1.0
220
-0.0000000000000001
230
0.0000000000000002
0
CIRCLE
5
A0
330
2F
100
AcDbEntity
8
0
62
1
6
ByLayer
370
-1
48
1.0
60
0
100
AcDbCircle
10
-0.0651191258101029
20
0.549999731518745
30
-0.0026329682117947
40
0.0126407923941936
39
0.0
210
-0.0000000000000002
220
1.0
230
0.0000000000000002
0
CIRCLE
5
A1
330
2F
100
AcDbEntity
8
0
62
1
6
ByLayer
370
-1
48
1.0
60
0
100
AcDbCircle
10
-0.114612305269886
20
0.549999731518745
30
-0.0026329682117947
40
0.0126407923941936
39
0.0
210
-0.0000000000000002
220
1.0
230
0.0000000000000002
0
CIRCLE
5
A2
330
2F
100
AcDbEntity
8
0
62
1
6
ByLayer
370
-1
48
1.0
60
0
100
AcDbCircle
10
-0.165043764414865
20
0.549999999999973
30
-0.0026329682117947
40
0.0126407923941936
39
0.0
210
-0.0000000000000002
220
1.0
230
0.0000000000000002
0
CIRCLE
5
A3
330
2F
100
AcDbEntity
8
0
62
1
6
ByLayer
370
-1
48
1.0
60
0
100
AcDbCircle
10
-0.215043764415046
20
0.549999999999973
30
-0.0026329682117947
40
0.0126407923941936
39
0.0
210
-0.0000000000000002
220
1.0
230
0.0000000000000002
0
CIRCLE
5
A4
330
2F
100
AcDbEntity
8
0
62
1
6
ByLayer
370
-1
48
1.0
60
0
100
AcDbCircle
10
-0.265043764415001
20
0.549999999999973
30
-0.0026329682117948
40
0.0126407923941936
39
0.0
210
-0.0000000000000002
220
1.0
230
0.0000000000000002
0
CIRCLE
5
A5
330
2F
100
AcDbEntity
8
0
62
1
6
ByLayer
370
-1
48
1.0
60
0
100
AcDbCircle
10
-0.315043764414956
20
0.549999999999973
30
-0.0026329682117948
40
0.0126407923941936
39
0.0
210
-0.0000000000000002
220
1.0
230
0.0000000000000002
0
CIRCLE
5
A6
330
2F
100
AcDbEntity
8
0
62
1
6
ByLayer
370
-1
48
1.0
60
0
100
AcDbCircle
10
-0.36504376441491
20
0.549999999999973
30
-0.0026329682117948
40
0.0126407923941936
39
0.0
210
-0.0000000000000002
220
1.0
230
0.0000000000000002
0
CIRCLE
5
A7
330
2F
100
AcDbEntity
8
0
62
1
6
ByLayer
370
-1
48
1.0
60
0
100
AcDbCircle
10
-0.415043764414865
20
0.549999999999973
30
-0.0026329682117948
40
0.0126407923941936
39
0.0
210
-0.0000000000000002
220
1.0
230
0.0000000000000002
0
CIRCLE
5
A8
330
2F
100
AcDbEntity
8
0
62
1
6
ByLayer
370
-1
48
1.0
60
0
100
AcDbCircle
10
-0.465043764415047
20
0.549999999999973
30
-0.0026329682117948
40
0.0126407923941936
39
0.0
210
-0.0000000000000002
220
1.0
230
0.0000000000000002
0
CIRCLE
5
A9
330
2F
100
AcDbEntity
8
0
62
1
6
ByLayer
370
-1
48
1.0
60
0
100
AcDbCircle
10
-0.515043764415001
20
0.549999999999973
30
-0.0026329682117948
40
0.0126407923941936
39
0.0
210
-0.0000000000000002
220
1.0
230
0.0000000000000002
0
CIRCLE
5
AA
330
2F
100
AcDbEntity
8
0
62
1
6
ByLayer
370
-1
48
1.0
60
0
100
AcDbCircle
10
-0.565043764414956
20
0.549999999999973
30
-0.0026329682117948
40
0.0126407923941936
39
0.0
210
-0.0000000000000002
220
1.0
230
0.0000000000000002
0
CIRCLE
5
AB
330
2F
100
AcDbEntity
8
0
62
1
6
ByLayer
370
-1
48
1.0
60
0
100
AcDbCircle
10
-0.61504376441491
20
0.549999999999973
30
-0.0026329682117948
40
0.0126407923941936
39
0.0
210
-0.0000000000000002
220
1.0
230
0.0000000000000002
0
CIRCLE
5
AC
330
2F
100
AcDbEntity
8
0
62
1
6
ByLayer
370
-1
48
1.0
60
0
100
AcDbCircle
10
-0.665043764414865
20
0.549999999999973
30
-0.0026329682117948
40
0.0126407923941936
39
0.0
210
-0.0000000000000002
220
1.0
230
0.0000000000000002
0
CIRCLE
5
AD
330
2F
100
AcDbEntity
8
0
62
1
6
ByLayer
370
-1
48
1.0
60
0
100
AcDbCircle
10
-0.0651191258101029
20
1.35000026848125
30
-0.0026329682117947
40
0.0126407923941936
39
0.0
210
-0.0000000000000002
220
1.0
230
0.0000000000000002
0
CIRCLE
5
AE
330
2F
100
AcDbEntity
8
0
62
1
6
ByLayer
370
-1
48
1.0
60
0
100
AcDbCircle
10
-0.114612305269886
20
1.35000026848125
30
-0.0026329682117947
40
0.0126407923941936
39
0.0
210
-0.0000000000000002
220
1.0
230
0.0000000000000002
0
CIRCLE
5
AF
330
2F
100
AcDbEntity
8
0
62
1
6
ByLayer
370
-1
48
1.0
60
0
100
AcDbCircle
10
-0.165043764414865
20
1.35000000000002
30
-0.0026329682117947
40
0.0126407923941936
39
0.0
210
-0.0000000000000002
220
1.0
230
0.0000000000000002
0
CIRCLE
5
B0
330
2F
100
AcDbEntity
8
0
62
1
6
ByLayer
370
-1
48
1.0
60
0
100
AcDbCircle
10
-0.215043764415046
20
1.35000000000002
30
-0.0026329682117947
40
0.0126407923941936
39
0.0
210
-0.0000000000000002
220
1.0
230
0.0000000000000002
0
CIRCLE
5
B1
330
2F
100
AcDbEntity
8
0
62
1
6
ByLayer
370
-1
48
1.0
60
0
100
AcDbCircle
10
-0.265043764415001
20
1.35000000000002
30
-0.0026329682117948
40
0.0126407923941936
39
0.0
210
-0.0000000000000002
220
1.0
230
0.0000000000000002
0
CIRCLE
5
B2
330
2F
100
AcDbEntity
8
0
62
1
6
ByLayer
370
-1
48
1.0
60
0
100
AcDbCircle
10
-0.315043764414956
20
1.35000000000002
30
-0.0026329682117948
40
0.0126407923941936
39
0.0
210
-0.0000000000000002
220
1.0
230
0.0000000000000002
0
CIRCLE
5
B3
330
2F
100
AcDbEntity
8
0
62
1
6
ByLayer
370
-1
48
1.0
60
0
100
AcDbCircle
10
-0.36504376441491
20
1.35000000000002
30
-0.0026329682117948
40
0.0126407923941936
39
0.0
210
-0.0000000000000002
220
1.0
230
0.0000000000000002
0
CIRCLE
5
B4
330
2F
100
AcDbEntity
8
0
62
1
6
ByLayer
370
-1
48
1.0
60
0
100
AcDbCircle
10
-0.415043764414865
20
1.35000000000002
30
-0.0026329682117948
40
0.0126407923941936
39
0.0
210
-0.0000000000000002
220
1.0
230
0.0000000000000002
0
CIRCLE
5
B5
330
2F
100
AcDbEntity
8
0
62
1
6
ByLayer
370
-1
48
1.0
60
0
100
AcDbCircle
10
-0.465043764415047
20
1.35000000000002
30
-0.0026329682117948
40
0.0126407923941936
39
0.0
210
-0.0000000000000002
220
1.0
230
0.0000000000000002
0
CIRCLE
5
B6
330
2F
100
AcDbEntity
8
0
62
1
6
ByLayer
370
-1
48
1.0
60
0
100
AcDbCircle
10
-0.515043764415001
20
1.35000000000002
30
-0.0026329682117948
40
0.0126407923941936
39
0.0
210
-0.0000000000000002
220
1.0
230
0.0000000000000002
0
CIRCLE
5
B7
330
2F
100
AcDbEntity
8
0
62
1
6
ByLayer
370
-1
48
1.0
60
0
100
AcDbCircle
10
-0.565043764414956
20
1.35000000000002
30
-0.0026329682117948
40
0.0126407923941936
39
0.0
210
-0.0000000000000002
220
1.0
230
0.0000000000000002
0
CIRCLE
5
B8
330
2F
100
AcDbEntity
8
0
62
1
6
ByLayer
370
-1
48
1.0
60
0
100
AcDbCircle
10
-0.61504376441491
20
1.35000000000002
30
-0.0026329682117948
40
0.0126407923941936
39
0.0
210
-0.0000000000000002
220
1.0
230
0.0000000000000002
0
CIRCLE
5
B9
330
2F
100
AcDbEntity
8
0
62
1
6
ByLayer
370
-1
48
1.0
60
0
100
AcDbCircle
10
-0.665043764414865
20
1.35000000000002
30
-0.0026329682117948
40
0.0126407923941936
39
0.0
210
-0.0000000000000002
220
1.0
230
0.0000000000000002
0
CIRCLE
5
BA
330
2F
100
AcDbEntity
8
0
62
1
6
ByLayer
370
-1
48
1.0
60
0
100
AcDbCircle
10
0.674650631070389
20
-0.0800004561404254
30
1.81224383596507
40
0.012
39
0.0
210
0.0
220
0.0
230
1.0
0
CIRCLE
5
BB
330
2F
100
AcDbEntity
8
0
62
1
6
ByLayer
370
-1
48
1.0
60
0
100
AcDbCircle
10
0.599650631070116
20
-0.0700004575353724
30
1.81224383596507
40
0.012
39
0.0
210
0.0
220
0.0
230
1.0
0
CIRCLE
5
BC
330
2F
100
AcDbEntity
8
0
62
1
6
ByLayer
370
-1
48
1.0
60
0
100
AcDbCircle
10
0.524650631070298
20
-0.0700004575353724
30
1.81224383596507
40
0.012
39
0.0
210
0.0
220
0.0
230
1.0
0
CIRCLE
5
BD
330
2F
100
AcDbEntity
8
0
62
1
6
ByLayer
370
-1
48
1.0
60
0
100
AcDbCircle
10
-0.674650631070389
20
-0.0800004561404247
30
-1.78724383596508
40
0.012
39
0.0
210
0.0
220
0.0000000000000003
230
-1.0
0
CIRCLE
5
BE
330
2F
100
AcDbEntity
8
0
62
1
6
ByLayer
370
-1
48
1.0
60
0
100
AcDbCircle
10
-0.599650631070116
20
-0.0700004575353716
30
-1.78724383596508
40
0.012
39
0.0
210
0.0
220
0.0000000000000003
230
-1.0
0
CIRCLE
5
BF
330
2F
100
AcDbEntity
8
0
62
1
6
ByLayer
370
-1
48
1.0
60
0
100
AcDbCircle
10
-0.524650631070298
20
-0.0700004575353717
30
-1.78724383596508
40
0.012
39
0.0
210
0.0
220
0.0000000000000003
230
-1.0
0
CIRCLE
5
C0
330
2F
100
AcDbEntity
8
0
62
1
6
ByLayer
370
-1
48
1.0
60
0
100
AcDbCircle
10
-0.674650631070389
20
-0.0800004561404249
30
-0.887756164034925
40
0.012
39
0.0
210
0.0
220
0.0000000000000002
230
-1.0
0
CIRCLE
5
C1
330
2F
100
AcDbEntity
8
0
62
1
6
ByLayer
370
-1
48
1.0
60
0
100
AcDbCircle
10
-0.599650631070116
20
-0.0700004575353719
30
-0.887756164034925
40
0.012
39
0.0
210
0.0
220
0.0000000000000002
230
-1.0
0
CIRCLE
5
C2
330
2F
100
AcDbEntity
8
0
62
1
6
ByLayer
370
-1
48
1.0
60
0
100
AcDbCircle
10
-0.524650631070298
20
-0.0700004575353719
30
-0.887756164034925
40
0.012
39
0.0
210
0.0
220
0.0000000000000002
230
-1.0
0
CIRCLE
5
C3
330
2F
100
AcDbEntity
8
0
62
1
6
ByLayer
370
-1
48
1.0
60
0
100
AcDbCircle
10
0.674650631070389
20
-0.080000456140425
30
0.912756164034922
40
0.012
39
0.0
210
0.0
220
0.0
230
1.0
0
CIRCLE
5
C4
330
2F
100
AcDbEntity
8
0
62
1
6
ByLayer
370
-1
48
1.0
60
0
100
AcDbCircle
10
0.599650631070116
20
-0.070000457535372
30
0.912756164034922
40
0.012
39
0.0
210
0.0
220
0.0
230
1.0
0
CIRCLE
5
C5
330
2F
100
AcDbEntity
8
0
62
1
6
ByLayer
370
-1
48
1.0
60
0
100
AcDbCircle
10
0.524650631070298
20
-0.070000457535372
30
0.912756164034922
40
0.012
39
0.0
210
0.0
220
0.0
230
1.0
0
POINT
5
C6
330
2F
100
AcDbEntity
8
0
62
1
6
ByLayer
370
-1
48
1.0
60
0
100
AcDbPoint
10
0.437852618341406
20
-0.0700004672706038
30
2.53718053419457
39
0.0
210
0.0
220
0.0
230
1.0
50
360.0
0
POINT
5
C7
330
2F
100
AcDbEntity
8
0
62
1
6
ByLayer
370
-1
48
1.0
60
0
100
AcDbPoint
10
0.437852618341406
20
-0.0800004672726412
30
2.46218053419457
39
0.0
210
0.0
220
0.0
230
1.0
50
360.0
0
POINT
5
C8
330
2F
100
AcDbEntity
8
0
62
1
6
ByLayer
370
-1
48
1.0
60
0
100
AcDbPoint
10
0.524650631070298
20
-0.0700004575353725
30
2.41224383596508
39
0.0
210
0.0
220
0.0
230
1.0
50
360.0
0
POINT
5
C9
330
2F
100
AcDbEntity
8
0
62
1
6
ByLayer
370
-1
48
1.0
60
0
100
AcDbPoint
10
0.599650631070116
20
-0.0700004575353725
30
2.41224383596508
39
0.0
210
0.0
220
0.0
230
1.0
50
360.0
0
POINT
5
CA
330
2F
100
AcDbEntity
8
0
62
1
6
ByLayer
370
-1
48
1.0
60
0
100
AcDbPoint
10
0.674650631070389
20
-0.0680004561404255
30
2.41224383596508
39
0.0
210
0.0
220
0.0
230
1.0
50
360.0
0
POINT
5
CB
330
2F
100
AcDbEntity
8
0
62
1
6
ByLayer
370
-1
48
1.0
60
0
100
AcDbPoint
10
0.524650631070298
20
-0.0700004575353724
30
1.81224383596507
39
0.0
210
0.0
220
0.0
230
1.0
50
360.0
0
POINT
5
CC
330
2F
100
AcDbEntity
8
0
62
1
6
ByLayer
370
-1
48
1.0
60
0
100
AcDbPoint
10
0.599650631070116
20
-0.0700004575353724
30
1.81224383596507
39
0.0
210
0.0
220
0.0
230
1.0
50
360.0
0
POINT
5
CD
330
2F
100
AcDbEntity
8
0
62
1
6
ByLayer
370
-1
48
1.0
60
0
100
AcDbPoint
10
0.674650631070389
20
-0.0800004561404254
30
1.81224383596507
39
0.0
210
0.0
220
0.0
230
1.0
50
360.0
0
POINT
5
CE
330
2F
100
AcDbEntity
8
0
62
1
6
ByLayer
370
-1
48
1.0
60
0
100
AcDbPoint
10
0.524650631070298
20
-0.070000457535372
30
0.912756164034922
39
0.0
210
0.0
220
0.0
230
1.0
50
360.0
0
POINT
5
CF
330
2F
100
AcDbEntity
8
0
62
1
6
ByLayer
370
-1
48
1.0
60
0
100
AcDbPoint
10
0.599650631070116
20
-0.070000457535372
30
0.912756164034922
39
0.0
210
0.0
220
0.0
230
1.0
50
360.0
0
POINT
5
D0
330
2F
100
AcDbEntity
8
0
62
1
6
ByLayer
370
-1
48
1.0
60
0
100
AcDbPoint
10
0.674650631070389
20
-0.080000456140425
30
0.912756164034922
39
0.0
210
0.0
220
0.0
230
1.0
50
360.0
0
POINT
5
D1
330
2F
100
AcDbEntity
8
0
62
1
6
ByLayer
370
-1
48
1.0
60
0
100
AcDbPoint
10
0.524650631070298
20
-0.0700004575353719
30
0.312756164034922
39
0.0
210
0.0
220
0.0
230
1.0
50
360.0
0
POINT
5
D2
330
2F
100
AcDbEntity
8
0
62
1
6
ByLayer
370
-1
48
1.0
60
0
100
AcDbPoint
10
0.599650631070116
20
-0.0700004575353719
30
0.312756164034922
39
0.0
210
0.0
220
0.0
230
1.0
50
360.0
0
POINT
5
D3
330
2F
100
AcDbEntity
8
0
62
1
6
ByLayer
370
-1
48
1.0
60
0
100
AcDbPoint
10
0.674650631070389
20
-0.0800004561404249
30
0.312756164034922
39
0.0
210
0.0
220
0.0
230
1.0
50
360.0
0
POINT
5
D4
330
2F
100
AcDbEntity
8
0
62
1
6
ByLayer
370
-1
48
1.0
60
0
100
AcDbPoint
10
0.437852618341406
20
-0.0700004672706033
30
0.162819465805427
39
0.0
210
0.0
220
0.0
230
1.0
50
360.0
0
POINT
5
D5
330
2F
100
AcDbEntity
8
0
62
1
6
ByLayer
370
-1
48
1.0
60
0
100
AcDbPoint
10
0.665043764414865
20
-0.0026329682117952
30
2.15000000000003
39
0.0
210
-0.0000000000000002
220
1.0
230
0.0000000000000002
50
180.0
0
POINT
5
D6
330
2F
100
AcDbEntity
8
0
62
1
6
ByLayer
370
-1
48
1.0
60
0
100
AcDbPoint
10
0.61504376441491
20
-0.0026329682117952
30
2.15000000000003
39
0.0
210
-0.0000000000000002
220
1.0
230
0.0000000000000002
50
180.0
0
POINT
5
D7
330
2F
100
AcDbEntity
8
0
62
1
6
ByLayer
370
-1
48
1.0
60
0
100
AcDbPoint
10
0.565043764414956
20
-0.0026329682117952
30
2.15000000000003
39
0.0
210
-0.0000000000000002
220
1.0
230
0.0000000000000002
50
180.0
0
POINT
5
D8
330
2F
100
AcDbEntity
8
0
62
1
6
ByLayer
370
-1
48
1.0
60
0
100
AcDbPoint
10
0.515043764415001
20
-0.0026329682117952
30
2.15000000000003
39
0.0
210
-0.0000000000000002
220
1.0
230
0.0000000000000002
50
180.0
0
POINT
5
D9
330
2F
100
AcDbEntity
8
0
62
1
6
ByLayer
370
-1
48
1.0
60
0
100
AcDbPoint
10
0.465043764415047
20
-0.0026329682117952
30
2.15000000000003
39
0.0
210
-0.0000000000000002
220
1.0
230
0.0000000000000002
50
180.0
0
POINT
5
DA
330
2F
100
AcDbEntity
8
0
62
1
6
ByLayer
370
-1
48
1.0
60
0
100
AcDbPoint
10
0.415043764414865
20
-0.0026329682117952
30
2.15000000000003
39
0.0
210
-0.0000000000000002
220
1.0
230
0.0000000000000002
50
180.0
0
POINT
5
DB
330
2F
100
AcDbEntity
8
0
62
1
6
ByLayer
370
-1
48
1.0
60
0
100
AcDbPoint
10
0.36504376441491
20
-0.0026329682117953
30
2.15000000000003
39
0.0
210
-0.0000000000000002
220
1.0
230
0.0000000000000002
50
180.0
0
POINT
5
DC
330
2F
100
AcDbEntity
8
0
62
1
6
ByLayer
370
-1
48
1.0
60
0
100
AcDbPoint
10
0.315043764414956
20
-0.0026329682117953
30
2.15000000000003
39
0.0
210
-0.0000000000000002
220
1.0
230
0.0000000000000002
50
180.0
0
POINT
5
DD
330
2F
100
AcDbEntity
8
0
62
1
6
ByLayer
370
-1
48
1.0
60
0
100
AcDbPoint
10
0.265043764415001
20
-0.0026329682117953
30
2.15000000000003
39
0.0
210
-0.0000000000000002
220
1.0
230
0.0000000000000002
50
180.0
0
POINT
5
DE
330
2F
100
AcDbEntity
8
0
62
1
6
ByLayer
370
-1
48
1.0
60
0
100
AcDbPoint
10
0.215043764415046
20
-0.0026329682117952
30
2.15000000000003
39
0.0
210
-0.0000000000000002
220
1.0
230
0.0000000000000002
50
180.0
0
POINT
5
DF
330
2F
100
AcDbEntity
8
0
62
1
6
ByLayer
370
-1
48
1.0
60
0
100
AcDbPoint
10
0.165043764414865
20
-0.0026329682117952
30
2.15000000000003
39
0.0
210
-0.0000000000000002
220
1.0
230
0.0000000000000002
50
180.0
0
POINT
5
E0
330
2F
100
AcDbEntity
8
0
62
1
6
ByLayer
370
-1
48
1.0
60
0
100
AcDbPoint
10
0.0250000000007731
20
-0.120230566739338
30
2.18150000000001
39
0.0
210
-0.0000000000000002
220
1.0
230
0.0000000000000002
50
180.0
0
POINT
5
E1
330
2F
100
AcDbEntity
8
0
62
1
6
ByLayer
370
-1
48
1.0
60
0
100
AcDbPoint
10
0.0651191258101029
20
-0.0026329682117952
30
2.15000026848125
39
0.0
210
-0.0000000000000002
220
1.0
230
0.0000000000000002
50
180.0
0
POINT
5
E2
330
2F
100
AcDbEntity
8
0
62
1
6
ByLayer
370
-1
48
1.0
60
0
100
AcDbPoint
10
0.665043764414865
20
-0.002632968211795
30
1.35000000000002
39
0.0
210
-0.0000000000000002
220
1.0
230
0.0000000000000002
50
180.0
0
POINT
5
E3
330
2F
100
AcDbEntity
8
0
62
1
6
ByLayer
370
-1
48
1.0
60
0
100
AcDbPoint
10
0.61504376441491
20
-0.002632968211795
30
1.35000000000002
39
0.0
210
-0.0000000000000002
220
1.0
230
0.0000000000000002
50
180.0
0
POINT
5
E4
330
2F
100
AcDbEntity
8
0
62
1
6
ByLayer
370
-1
48
1.0
60
0
100
AcDbPoint
10
0.565043764414956
20
-0.002632968211795
30
1.35000000000002
39
0.0
210
-0.0000000000000002
220
1.0
230
0.0000000000000002
50
180.0
0
POINT
5
E5
330
2F
100
AcDbEntity
8
0
62
1
6
ByLayer
370
-1
48
1.0
60
0
100
AcDbPoint
10
0.515043764415001
20
-0.002632968211795
30
1.35000000000002
39
0.0
210
-0.0000000000000002
220
1.0
230
0.0000000000000002
50
180.0
0
POINT
5
E6
330
2F
100
AcDbEntity
8
0
62
1
6
ByLayer
370
-1
48
1.0
60
0
100
AcDbPoint
10
0.465043764415047
20
-0.002632968211795
30
1.35000000000002
39
0.0
210
-0.0000000000000002
220
1.0
230
0.0000000000000002
50
180.0
0
POINT
5
E7
330
2F
100
AcDbEntity
8
0
62
1
6
ByLayer
370
-1
48
1.0
60
0
100
AcDbPoint
10
0.415043764414865
20
-0.002632968211795
30
1.35000000000002
39
0.0
210
-0.0000000000000002
220
1.0
230
0.0000000000000002
50
180.0
0
POINT
5
E8
330
2F
100
AcDbEntity
8
0
62
1
6
ByLayer
370
-1
48
1.0
60
0
100
AcDbPoint
10
0.36504376441491
20
-0.0026329682117951
30
1.35000000000002
39
0.0
210
-0.0000000000000002
220
1.0
230
0.0000000000000002
50
180.0
0
POINT
5
E9
330
2F
100
AcDbEntity
8
0
62
1
6
ByLayer
370
-1
48
1.0
60
0
100
AcDbPoint
10
0.315043764414956
20
-0.0026329682117951
30
1.35000000000002
39
0.0
210
-0.0000000000000002
220
1.0
230
0.0000000000000002
50
180.0
0
POINT
5
EA
330
2F
100
AcDbEntity
8
0
62
1
6
ByLayer
370
-1
48
1.0
60
0
100
AcDbPoint
10
0.265043764415001
20
-0.0026329682117951
30
1.35000000000002
39
0.0
210
-0.0000000000000002
220
1.0
230
0.0000000000000002
50
180.0
0
POINT
5
EB
330
2F
100
AcDbEntity
8
0
62
1
6
ByLayer
370
-1
48
1.0
60
0
100
AcDbPoint
10
0.215043764415046
20
-0.002632968211795
30
1.35000000000002
39
0.0
210
-0.0000000000000002
220
1.0
230
0.0000000000000002
50
180.0
0
POINT
5
EC
330
2F
100
AcDbEntity
8
0
62
1
6
ByLayer
370
-1
48
1.0
60
0
100
AcDbPoint
10
0.165043764414865
20
-0.002632968211795
30
1.35000000000002
39
0.0
210
-0.0000000000000002
220
1.0
230
0.0000000000000002
50
180.0
0
POINT
5
ED
330
2F
100
AcDbEntity
8
0
62
1
6
ByLayer
370
-1
48
1.0
60
0
100
AcDbPoint
10
0.0250000000007731
20
-0.120230566739338
30
1.38150000000001
39
0.0
210
-0.0000000000000002
220
1.0
230
0.0000000000000002
50
180.0
0
POINT
5
EE
330
2F
100
AcDbEntity
8
0
62
1
6
ByLayer
370
-1
48
1.0
60
0
100
AcDbPoint
10
0.665043764414865
20
-0.0026329682117948
30
0.549999999999973
39
0.0
210
-0.0000000000000002
220
1.0
230
0.0000000000000002
50
180.0
0
POINT
5
EF
330
2F
100
AcDbEntity
8
0
62
1
6
ByLayer
370
-1
48
1.0
60
0
100
AcDbPoint
10
0.61504376441491
20
-0.0026329682117948
30
0.549999999999973
39
0.0
210
-0.0000000000000002
220
1.0
230
0.0000000000000002
50
180.0
0
POINT
5
F0
330
2F
100
AcDbEntity
8
0
62
1
6
ByLayer
370
-1
48
1.0
60
0
100
AcDbPoint
10
0.565043764414956
20
-0.0026329682117948
30
0.549999999999973
39
0.0
210
-0.0000000000000002
220
1.0
230
0.0000000000000002
50
180.0
0
POINT
5
F1
330
2F
100
AcDbEntity
8
0
62
1
6
ByLayer
370
-1
48
1.0
60
0
100
AcDbPoint
10
0.515043764415001
20
-0.0026329682117948
30
0.549999999999973
39
0.0
210
-0.0000000000000002
220
1.0
230
0.0000000000000002
50
180.0
0
POINT
5
F2
330
2F
100
AcDbEntity
8
0
62
1
6
ByLayer
370
-1
48
1.0
60
0
100
AcDbPoint
10
0.465043764415047
20
-0.0026329682117948
30
0.549999999999973
39
0.0
210
-0.0000000000000002
220
1.0
230
0.0000000000000002
50
180.0
0
POINT
5
F3
330
2F
100
AcDbEntity
8
0
62
1
6
ByLayer
370
-1
48
1.0
60
0
100
AcDbPoint
10
0.415043764414865
20
-0.0026329682117949
30
0.549999999999973
39
0.0
210
-0.0000000000000002
220
1.0
230
0.0000000000000002
50
180.0
0
POINT
5
F4
330
2F
100
AcDbEntity
8
0
62
1
6
ByLayer
370
-1
48
1.0
60
0
100
AcDbPoint
10
0.36504376441491
20
-0.0026329682117949
30
0.549999999999973
39
0.0
210
-0.0000000000000002
220
1.0
230
0.0000000000000002
50
180.0
0
POINT
5
F5
330
2F
100
AcDbEntity
8
0
62
1
6
ByLayer
370
-1
48
1.0
60
0
100
AcDbPoint
10
0.315043764414956
20
-0.0026329682117949
30
0.549999999999973
39
0.0
210
-0.0000000000000002
220
1.0
230
0.0000000000000002
50
180.0
0
POINT
5
F6
330
2F
100
AcDbEntity
8
0
62
1
6
ByLayer
370
-1
48
1.0
60
0
100
AcDbPoint
10
0.265043764415001
20
-0.0026329682117949
30
0.549999999999973
39
0.0
210
-0.0000000000000002
220
1.0
230
0.0000000000000002
50
180.0
0
POINT
5
F7
330
2F
100
AcDbEntity
8
0
62
1
6
ByLayer
370
-1
48
1.0
60
0
100
AcDbPoint
10
0.215043764415046
20
-0.0026329682117948
30
0.549999999999973
39
0.0
210
-0.0000000000000002
220
1.0
230
0.0000000000000002
50
180.0
0
POINT
5
F8
330
2F
100
AcDbEntity
8
0
62
1
6
ByLayer
370
-1
48
1.0
60
0
100
AcDbPoint
10
0.165043764414865
20
-0.0026329682117948
30
0.549999999999973
39
0.0
210
-0.0000000000000002
220
1.0
230
0.0000000000000002
50
180.0
0
POINT
5
F9
330
2F
100
AcDbEntity
8
0
62
1
6
ByLayer
370
-1
48
1.0
60
0
100
AcDbPoint
10
0.0250000000007731
20
-0.120230566739338
30
0.581499999999998
39
0.0
210
-0.0000000000000002
220
1.0
230
0.0000000000000002
50
180.0
0
POINT
5
FA
330
2F
100
AcDbEntity
8
0
62
1
6
ByLayer
370
-1
48
1.0
60
0
100
AcDbPoint
10
0.0651191258101029
20
-0.0026329682117948
30
0.549999731518745
39
0.0
210
-0.0000000000000002
220
1.0
230
0.0000000000000002
50
180.0
0
POINT
5
FB
330
2F
100
AcDbEntity
8
0
62
1
6
ByLayer
370
-1
48
1.0
60
0
100
AcDbPoint
10
0.437852618341406
20
-0.0800004672726407
30
0.237819465805427
39
0.0
210
0.0
220
0.0
230
1.0
50
360.0
0
ENDBLK
5
30
330
2F
100
AcDbEntity
8
0
100
AcDbBlockEnd
0
ENDSEC
0
SECTION
2
ENTITIES
0
INSERT
5
2E
330
1C
100
AcDbEntity
67
0
8
ATK_Panel
62
256
6
ByLayer
370
-1
48
1.0
60
0
100
AcDbBlockReference
2
ATK_Panel27x75R
10
-0.77
20
-2.23
30
0.0
41
1.0
42
1.0
43
1.0
50
90.0
210
0.0
220
0.0
230
1.0
0
VIEWPORT
5
26
330
22
100
AcDbEntity
67
1
8
0
62
256
6
ByLayer
370
-1
48
1.0
60
0
100
AcDbViewport
10
0.0
20
0.0
30
0.0
40
297.0
41
210.0
68
1
69
1
12
50.0
22
100.0
13
0.0
23
0.0
14
10.0
24
10.0
15
10.0
25
10.0
16
0.0
26
0.0
36
1.0
17
0.0
27
0.0
37
0.0
42
50.0
43
0.0
44
0.0
45
250.0
50
0.0
51
0.0
72
1000
90
819232
110
0.0
120
0.0
130
0.0
111
1.0
121
0.0
131
0.0
112
0.0
122
1.0
132
0.0
0
ENDSEC
0
SECTION
2
OBJECTS
0
DICTIONARY
5
FE
330
0
100
AcDbDictionary
280
1
281
1
3
ACAD_GROUP
350
12
3
ACAD_LAYOUT
350
25
3
ACAD_DGNDEFINITIONS
350
F
3
ACAD_DWFDEFINITIONS
350
10
3
ACAD_PDFDEFINITIONS
350
11
3
ACAD_MLINESTYLE
350
B
3
ACAD_IMAGE_DICT
350
E
3
ACAD_IMAGE_VARS
350
21
0
DICTIONARY
5
12
330
FE
100
AcDbDictionary
280
1
281
1
0
DICTIONARY
5
25
330
FE
100
AcDbDictionary
280
1
281
1
3
Model
350
20
3
Layout1
350
27
0
DICTIONARY
5
F
330
FE
100
AcDbDictionary
280
1
281
1
0
DICTIONARY
5
10
330
FE
100
AcDbDictionary
280
1
281
1
0
DICTIONARY
5
11
330
FE
100
AcDbDictionary
280
1
281
1
0
DICTIONARY
5
B
330
FE
100
AcDbDictionary
280
1
281
1
3
Standard
350
1B
0
DICTIONARY
5
E
330
FE
100
AcDbDictionary
280
1
281
1
0
DICTIONARY
5
6
330
5
100
AcDbDictionary
280
1
281
1
3
ACAD_LAYERSTATES
360
FF
0
DICTIONARY
5
FF
330
6
100
AcDbDictionary
280
1
281
1
0
LAYOUT
5
20
330
25
100
AcDbPlotSettings
1

2
none_device
4
ISO_A4_(210.00_x_297.00_MM)
6

40
7.5
41
20.0
42
7.5
43
20.0
44
210.0
45
297.0
46
0.0
47
0.0
48
0.0
49
0.0
140
0.0
141
0.0
142
1.0
143
1.0
70
11952
72
1
73
1
74
1
7

75
0
76
0
77
2
78
300
147
1.0
148
0.0
149
0.0
100
AcDbLayout
1
Model
71
0
10
-20.0
20
-7.5
11
277.0
21
202.5
12
0.0
22
0.0
32
0.0
14
25.7
24
19.5
34
0.0
15
231.3
25
175.5
35
0.0
146
0.0
13
0.0
23
0.0
33
0.0
16
1.0
26
0.0
36
0.0
17
0.0
27
1.0
37
0.0
76
0
330
1C
0
LAYOUT
5
27
330
25
100
AcDbPlotSettings
1

2
none_device
4
ISO_A4_(210.00_x_297.00_MM)
6

40
7.5
41
20.0
42
7.5
43
20.0
44
210.0
45
297.0
46
0.0
47
0.0
48
0.0
49
0.0
140
0.0
141
0.0
142
1.0
143
1.0
70
688
72
1
73
1
74
1
7

75
0
76
0
77
2
78
300
147
1.0
148
0.0
149
0.0
100
AcDbLayout
1
Layout1
71
1
10
-20.0
20
-7.5
11
277.0
21
202.5
12
0.0
22
0.0
32
0.0
14
25.7
24
19.5
34
0.0
15
231.3
25
175.5
35
0.0
146
0.0
13
0.0
23
0.0
33
0.0
16
1.0
26
0.0
36
0.0
17
0.0
27
1.0
37
0.0
76
0
330
22
0
MLINESTYLE
5
1B
330
B
100
AcDbMlineStyle
2
Standard
70
0
3

62
256
51
90.0
52
90.0
71
2
49
0.5
62
256
6
ByLayer
49
-0.5
62
256
6
ByLayer
0
RASTERVARIABLES
5
21
330
E
100
AcDbRasterVariables
90
0
70
1
71
1
72
0
0
ENDSEC
0
EOF
