0
SECTION
2
HEADER
9
$INSUNITS
70
4
9
$INSBASE
10
0.0
20
0.0
30
0.0
0
ENDSEC
0
SECTION
2
TABLES
0
TABLE
2
LAYER
70
1
0
LAYER
2
0
70
0
62
7
6
CONTINUOUS
0
ENDTAB
0
ENDSEC
0
SECTION
2
ENTITIES
0
LINE
8
0
10
0.0
20
0.0
30
0.0
11
900.0
21
0.0
31
0.0
0
LINE
8
0
10
900.0
20
0.0
30
0.0
11
900.0
21
2700.0
31
0.0
0
LINE
8
0
10
900.0
20
2700.0
30
0.0
11
0.0
21
2700.0
31
0.0
0
LINE
8
0
10
0.0
20
2700.0
30
0.0
11
0.0
21
0.0
31
0.0
0
CIRCLE
8
0
10
0.0
20
300.0
30
0.0
40
40.0
0
CIRCLE
8
0
10
0.0
20
600.0
30
0.0
40
40.0
0
CIRCLE
8
0
10
0.0
20
900.0
30
0.0
40
40.0
0
CIRCLE
8
0
10
0.0
20
1200.0
30
0.0
40
40.0
0
CIRCLE
8
0
10
0.0
20
1500.0
30
0.0
40
40.0
0
CIRCLE
8
0
10
0.0
20
1800.0
30
0.0
40
40.0
0
CIRCLE
8
0
10
0.0
20
2100.0
30
0.0
40
40.0
0
CIRCLE
8
0
10
0.0
20
2400.0
30
0.0
40
40.0
0
CIRCLE
8
0
10
900.0
20
300.0
30
0.0
40
40.0
0
CIRCLE
8
0
10
900.0
20
600.0
30
0.0
40
40.0
0
CIRCLE
8
0
10
900.0
20
900.0
30
0.0
40
40.0
0
CIRCLE
8
0
10
900.0
20
1200.0
30
0.0
40
40.0
0
CIRCLE
8
0
10
900.0
20
1500.0
30
0.0
40
40.0
0
CIRCLE
8
0
10
900.0
20
1800.0
30
0.0
40
40.0
0
CIRCLE
8
0
10
900.0
20
2100.0
30
0.0
40
40.0
0
CIRCLE
8
0
10
900.0
20
2400.0
30
0.0
40
40.0
0
TEXT
8
0
10
20.0
20
2720.0
30
0.0
40
80.0
1
27904209 900x2700 GRAPA_V
0
ENDSEC
0
EOF
